<svg xmlns="http://www.w3.org/2000/svg" width="41.424" height="41.3" viewBox="0 0 41.424 41.3">
  <g id="clear_icon" transform="translate(-43.082 -43)">
    <path id="路径_996" data-name="路径 996" d="M71.8,74.7c-.1,0-.3.1-.4.1a5.786,5.786,0,0,0-3.1-2l.8-1.6,1.7-1.7a3.32,3.32,0,0,0,0-4.7l-1.8-2,9.3-9.3h0l3.6-3.6h0l1.7-1.7a3.018,3.018,0,0,0,0-4.3,2.94,2.94,0,0,0-2.2-.9h0a2.723,2.723,0,0,0-2.1.9l-1.7,1.7h0L74,49.2h0l-2,2a.778.778,0,0,0,1.1,1.1l1.5-1.5,2,2-8.7,8.7-2-2L68,57.4a.778.778,0,1,0-1.1-1.1l-2.1,2.1L63,56.6a3.492,3.492,0,0,0-2.4-1,3.25,3.25,0,0,0-2.4,1l-1.7,1.7L53.2,60h0L50,61.8h0l-5.1,2.6c-1.1.6-1.7,1.2-1.8,2a2.7,2.7,0,0,0,1.1,2.4L46.4,71h0l5,5,5,5h0l2.2,2.2a3.108,3.108,0,0,0,2.1,1.1H61a2.7,2.7,0,0,0,2-1.8l.4-.7a1.794,1.794,0,0,0,.7.5,5.291,5.291,0,0,0,3,.9,4.1,4.1,0,0,0,1.1-.1,4.552,4.552,0,0,0,1.9-.8,4.13,4.13,0,0,0,3.4.7,4.468,4.468,0,0,0,2.8-1.9,4.19,4.19,0,0,0-4.5-6.4Zm9.7-30h0a1.284,1.284,0,0,1,1,.4,1.335,1.335,0,0,1,0,2l-1.1,1.1-2-2,1.1-1.1a1.284,1.284,0,0,1,1-.4Zm-5.7,5.1,2.5-2.5,2,2-2.5,2.5ZM63.3,74.3,51.7,62.7l1.7-.9L64.7,73.1a8.064,8.064,0,0,0-1.4,1.2ZM56.8,60.1,67.5,70.8l-1,1.9h0L54.9,61.1Zm2.5-2.2a1.845,1.845,0,0,1,1.2-.5,1.656,1.656,0,0,1,1.2.5l7.9,7.9a1.633,1.633,0,0,1,0,2.4l-1.2,1.2L58.1,59.1ZM61.7,82a1.794,1.794,0,0,1-.9,1,1.827,1.827,0,0,1-1-.6L58,80.5l1.8-3.4a.806.806,0,1,0-1.4-.8l-1.5,3-3.6-3.6,2.6-2.6A.778.778,0,0,0,54.8,72L52,74.5l-3.6-3.7,3-1.5a.806.806,0,0,0-.8-1.4l-3.4,1.8-1.8-1.9a1.827,1.827,0,0,1-.6-1c0-.3.4-.6,1-.9l4.6-2.4L62.5,75.6a5.91,5.91,0,0,0-.5,3.5,4.714,4.714,0,0,0,.6,1.5ZM75,80.5a2.982,2.982,0,0,1-1.7,1.2,2.6,2.6,0,0,1-2.5-.8.785.785,0,0,0-1.1,0,5.559,5.559,0,0,1-1.7.9,3.858,3.858,0,0,1-2.8-.5,3.981,3.981,0,0,1-1.6-2.4,3.906,3.906,0,0,1,2.9-4.5h0a2.2,2.2,0,0,1,.8-.1,3.859,3.859,0,0,1,3.3,1.9.8.8,0,0,0,1.1.3,1.445,1.445,0,0,1,.7-.2,2.9,2.9,0,0,1,3.3,2.1,5.787,5.787,0,0,1-.7,2.1Z" fill="#fff"/>
    <path id="路径_997" data-name="路径 997" d="M81.7,77.3a2.8,2.8,0,1,0,2.8,2.8A2.677,2.677,0,0,0,81.7,77.3Zm0,4a1.2,1.2,0,1,1,1.2-1.2A1.216,1.216,0,0,1,81.7,81.3Z" fill="#fff"/>
    <path id="路径_998" data-name="路径 998" d="M81.5,68.6A3.478,3.478,0,0,0,78,65.1a3.5,3.5,0,0,0,0,7A3.36,3.36,0,0,0,81.5,68.6ZM78,70.5a1.9,1.9,0,0,1-1.9-1.9A1.967,1.967,0,0,1,78,66.7a1.9,1.9,0,0,1,0,3.8Z" fill="#fff"/>
    <path id="路径_999" data-name="路径 999" d="M70,55.3a1.421,1.421,0,0,0,.6-.2A.778.778,0,0,0,69.5,54h0a.785.785,0,0,0,0,1.1C69.5,55.2,69.8,55.3,70,55.3Z" fill="#fff"/>
  </g>
</svg>
