<svg xmlns="http://www.w3.org/2000/svg" width="51" height="41.4" viewBox="0 0 51 41.4">
  <g id="discord_icon" transform="translate(-38.3 -43.1)">
    <g id="组_498" data-name="组 498">
      <path id="路径_1002" data-name="路径 1002" d="M86.6,60.7a78.178,78.178,0,0,0-3-8.2h0c-.4-.8-1.3-2.4-1.3-2.5-.1-.2-3.4-4-11.2-6.9l-1,2.8A31.618,31.618,0,0,1,77.9,50a51.037,51.037,0,0,0-14-2.1,50.471,50.471,0,0,0-14,2.1,33.218,33.218,0,0,1,7.8-4.1l-1-2.8c-8,2.9-11.2,6.8-11.4,6.9a18.307,18.307,0,0,0-1.4,2.6A40,40,0,0,0,41,60.7c-2,6.7-2.6,16.3-2.7,16.7.3.8,4.3,7.1,15.1,7.1l2.9-4.3a30.811,30.811,0,0,0,7.5.9,27.122,27.122,0,0,0,7.5-1l2.9,4.3c11,0,14.5-6.1,15.1-7.1,0-.4-1.1-11.6-2.7-16.6ZM83.7,78.8a14.66,14.66,0,0,1-8,2.6l-1.5-2.2a28.464,28.464,0,0,0,6-3.1l-1.7-2.5a25.73,25.73,0,0,1-6.7,3.2h0a30.949,30.949,0,0,1-8,1.2,30.949,30.949,0,0,1-8-1.2h0a24.292,24.292,0,0,1-6.7-3.2l-1.7,2.5a28.463,28.463,0,0,0,6,3.1l-1.5,2.2a14.66,14.66,0,0,1-8-2.6,11.758,11.758,0,0,1-2.5-2.3,91.01,91.01,0,0,1,2.5-15,39.51,39.51,0,0,1,2.5-7S58,50.9,63.9,50.9a46.862,46.862,0,0,1,17.4,3.5,64.35,64.35,0,0,1,2.5,7.1c1.3,4.1,2.2,12.7,2.5,15a16.868,16.868,0,0,1-2.6,2.3Z" fill="#fff"/>
    </g>
    <path id="路径_1003" data-name="路径 1003" d="M53.9,63.6h3v5h-3Z" fill="#fff"/>
    <path id="路径_1004" data-name="路径 1004" d="M70.7,63.6h3v5h-3Z" fill="#fff"/>
  </g>
</svg>
