<svg xmlns="http://www.w3.org/2000/svg" width="51.113" height="58" viewBox="0 0 51.113 58">
  <g id="bell_icon" transform="translate(-38.531 -35.5)">
    <path id="路径_1010" data-name="路径 1010" d="M81.7,65.3V59.9A17.643,17.643,0,0,0,69.2,43.1V40.6a5.1,5.1,0,0,0-10.2,0v2.5A17.643,17.643,0,0,0,46.5,59.9v5.4A26.939,26.939,0,0,1,39,83.9a1.529,1.529,0,0,0-.3,1.8,1.781,1.781,0,0,0,1.6,1H55.8a8.465,8.465,0,0,0,16.6,0H87.9a1.781,1.781,0,0,0,1.6-1,1.669,1.669,0,0,0-.3-1.8A26.759,26.759,0,0,1,81.7,65.3ZM62.4,40.6a1.7,1.7,0,1,1,3.4,0v1.8a14.5,14.5,0,0,0-3.4,0V40.6Zm1.7,49.6a5.083,5.083,0,0,1-4.8-3.4h9.6a4.989,4.989,0,0,1-4.8,3.4ZM44,83.4a29.961,29.961,0,0,0,6-18V60a14.2,14.2,0,1,1,28.4,0v5.4a29.529,29.529,0,0,0,6,18Z" fill="#fff"/>
    <path id="路径_1011" data-name="路径 1011" d="M86.2,59.9a1.7,1.7,0,1,0,3.4,0,25.35,25.35,0,0,0-7.5-18,1.7,1.7,0,1,0-2.4,2.4,21.862,21.862,0,0,1,6.5,15.6Z" fill="#fff"/>
    <path id="路径_1012" data-name="路径 1012" d="M40.3,61.6A1.752,1.752,0,0,0,42,59.9a21.692,21.692,0,0,1,6.5-15.6,1.7,1.7,0,1,0-2.4-2.4,25.35,25.35,0,0,0-7.5,18A1.685,1.685,0,0,0,40.3,61.6Z" fill="#fff"/>
  </g>
</svg>
