<svg xmlns="http://www.w3.org/2000/svg" width="41.452" height="41.5" viewBox="0 0 41.452 41.5">
  <g id="setup2_icon" transform="translate(-43 -43)">
    <path id="路径_1000" data-name="路径 1000" d="M63.8,53.9a9.9,9.9,0,1,0,9.9,9.9A9.923,9.923,0,0,0,63.8,53.9Zm0,17.3a7.4,7.4,0,1,1,7.4-7.4A7.383,7.383,0,0,1,63.8,71.2Z" fill="#fff"/>
    <path id="路径_1001" data-name="路径 1001" d="M83.6,59.1l-3.2-.7a26.043,26.043,0,0,0-1-2.5l1.8-2.7a1.212,1.212,0,0,0-.2-1.5l-5-5a1.228,1.228,0,0,0-1.5-.2l-2.7,1.8a18.611,18.611,0,0,0-2.5-1L68.5,44a1.188,1.188,0,0,0-1.2-1h-7a1.188,1.188,0,0,0-1.2,1l-.7,3.2a26.042,26.042,0,0,0-2.5,1l-2.7-1.8a1.212,1.212,0,0,0-1.5.2l-5,5a1.228,1.228,0,0,0-.2,1.5l1.8,2.7a18.611,18.611,0,0,0-1,2.5l-3.3.8a1.188,1.188,0,0,0-1,1.2v7a1.188,1.188,0,0,0,1,1.2l3.2.7a26.042,26.042,0,0,0,1,2.5l-1.8,2.7a1.212,1.212,0,0,0,.2,1.5l5,5a1.228,1.228,0,0,0,1.5.2l2.7-1.8a18.612,18.612,0,0,0,2.5,1l.7,3.2a1.188,1.188,0,0,0,1.2,1h7a1.188,1.188,0,0,0,1.2-1l.7-3.2a26.043,26.043,0,0,0,2.5-1l2.7,1.8a1.212,1.212,0,0,0,1.5-.2l5-5a1.228,1.228,0,0,0,.2-1.5l-1.8-2.7a18.612,18.612,0,0,0,1-2.5l3.2-.7a1.188,1.188,0,0,0,1-1.2v-7A.912.912,0,0,0,83.6,59.1Zm-1.5,7.2-2.9.7a1.182,1.182,0,0,0-.9.9,12.154,12.154,0,0,1-1.4,3.3,1.483,1.483,0,0,0,0,1.3L78.5,75l-3.6,3.6L72.4,77a1.22,1.22,0,0,0-1.3,0,13.647,13.647,0,0,1-3.3,1.4,1.352,1.352,0,0,0-.9.9l-.6,2.9h-5l-.6-2.9a1.182,1.182,0,0,0-.9-.9A12.154,12.154,0,0,1,56.5,77a1.483,1.483,0,0,0-1.3,0l-2.5,1.6L49.1,75l1.6-2.5a1.22,1.22,0,0,0,0-1.3,13.647,13.647,0,0,1-1.4-3.3,1.352,1.352,0,0,0-.9-.9l-2.9-.6v-5l2.9-.6a1.182,1.182,0,0,0,.9-.9,12.154,12.154,0,0,1,1.4-3.3,1.483,1.483,0,0,0,0-1.3l-1.6-2.5,3.6-3.6,2.5,1.6a1.22,1.22,0,0,0,1.3,0,13.647,13.647,0,0,1,3.3-1.4,1.352,1.352,0,0,0,.9-.9l.6-2.9h5l.6,2.9a1.182,1.182,0,0,0,.9.9,12.154,12.154,0,0,1,3.3,1.4,1.483,1.483,0,0,0,1.3,0l2.5-1.6,3.6,3.6-1.6,2.5a1.22,1.22,0,0,0,0,1.3,13.647,13.647,0,0,1,1.4,3.3,1.352,1.352,0,0,0,.9.9l2.9.6Z" fill="#fff"/>
  </g>
</svg>
