<svg xmlns="http://www.w3.org/2000/svg" width="50.938" height="51.3" viewBox="0 0 50.938 51.3">
  <g id="whatsapp_icon" transform="translate(-38.363 -38.2)">
    <path id="路径_1005" data-name="路径 1005" d="M81.9,45.6a25.618,25.618,0,0,0-32.8-2.7,1,1,0,0,0,1.2,1.6,23,23,0,0,1,13.6-4.4,23.45,23.45,0,0,1,0,46.9,23.75,23.75,0,0,1-11.3-2.9.878.878,0,0,0-.7-.1L40.7,87l3-10.9a1.128,1.128,0,0,0-.1-.8,23.5,23.5,0,0,1-3.2-11.8,23,23,0,0,1,4.4-13.6,1.075,1.075,0,0,0-.2-1.4,1.058,1.058,0,0,0-1.4.2A25.5,25.5,0,0,0,41.8,76L38.4,88.2a1.015,1.015,0,0,0,.3,1,.908.908,0,0,0,.7.3h.3L52,86.1A26.131,26.131,0,0,0,63.9,89a25.456,25.456,0,0,0,18-43.4Z" fill="#fff"/>
    <path id="路径_1006" data-name="路径 1006" d="M80.3,75.7a.984.984,0,0,0,1.4-.3,21.631,21.631,0,0,0,3.6-11.9A20.937,20.937,0,0,0,79,48.4a21.523,21.523,0,0,0-15.1-6.3,20.937,20.937,0,0,0-15.1,6.3,21.369,21.369,0,0,0-3.4,25.9l.6,1.1-2,7a1.015,1.015,0,0,0,.3,1,.959.959,0,0,0,1,.3l7.2-2,1.1.6a21.576,21.576,0,0,0,10.3,2.6,21.079,21.079,0,0,0,11.9-3.6,1.012,1.012,0,1,0-1.1-1.7,19.625,19.625,0,0,1-10.8,3.3,18.68,18.68,0,0,1-9.3-2.4l-1.4-.8a.878.878,0,0,0-.7-.1l-5.9,1.6,1.6-5.7a1.128,1.128,0,0,0-.1-.8l-.9-1.5a20.063,20.063,0,0,1-2.7-9.8,19.4,19.4,0,0,1,38.8,0A18.847,18.847,0,0,1,80,74.2,1.182,1.182,0,0,0,80.3,75.7Z" fill="#fff"/>
    <path id="路径_1007" data-name="路径 1007" d="M60.2,60.5h0a2.811,2.811,0,0,0,.4-3.1c-.5-1.2-1.9-4.3-2-4.6a2.308,2.308,0,0,0-2.2-1.3H54.9c-.2,0-3.8.6-4.4,6-.2,2.5.9,5.5,3.5,8.8a25.091,25.091,0,0,0,9.3,7.9,16.85,16.85,0,0,0,7.3,2.1h.3A6.756,6.756,0,0,0,76.2,74a5.028,5.028,0,0,0,1-2.3,9.442,9.442,0,0,0,.1-1.4A2.569,2.569,0,0,0,76.1,68c-.3-.1-3.1-1.6-4.3-2.1a2.383,2.383,0,0,0-3,.5h0a5.3,5.3,0,0,0-.7.9c-.3.4-.8,1.1-1,1.3-.5,0-2-.7-4.3-2.4A16.216,16.216,0,0,1,59.1,62v-.1A11,11,0,0,1,60.2,60.5Zm1.3,7.3a25.421,25.421,0,0,0,3.2,2.1c.6.3,2.4,1.2,3.5.2a14.254,14.254,0,0,0,1.3-1.6c.2-.2.4-.5.5-.6a.1.1,0,0,0,.1-.1c.2-.2.3-.3.7-.1,1.2.6,4.2,2.1,4.3,2.1a1.034,1.034,0,0,1,.1.4,6.761,6.761,0,0,1-.1,1.2h0a2.658,2.658,0,0,1-.7,1.4,5.079,5.079,0,0,1-3.7,1.5c-2.3.1-4.8-1-6.6-1.9a22.916,22.916,0,0,1-8.6-7.3c-2.2-2.9-3.2-5.4-3-7.4.4-3.6,2.4-4.2,2.7-4.3h1.2a1.034,1.034,0,0,1,.4.1c0,.1,1.5,3.3,2,4.6.3.6.1.8,0,.9h0l-.1.1c-.6.7-1,1.1-1.2,1.4a2.151,2.151,0,0,0-.3,2.5A16.349,16.349,0,0,0,61.5,67.8Z" fill="#fff"/>
    <path id="路径_1008" data-name="路径 1008" d="M46.6,47.3a1.017,1.017,0,1,0-.6-1.8h0a1.071,1.071,0,0,0-.1,1.4A.755.755,0,0,0,46.6,47.3Z" fill="#fff"/>
    <path id="路径_1009" data-name="路径 1009" d="M77.6,77.3h0a.972.972,0,0,0,.1,1.4.967.967,0,0,0,1.4,0,1.029,1.029,0,0,0-1.5-1.4Z" fill="#fff"/>
  </g>
</svg>
