<svg xmlns="http://www.w3.org/2000/svg" xmlns:xlink="http://www.w3.org/1999/xlink" width="690.7" height="561.101" viewBox="0 0 690.7 561.101">
  <defs>
    <clipPath id="clip-path">
      <path id="路径_1614" data-name="路径 1614" d="M680.2,26.6H18.4V548.7a21.211,21.211,0,0,0,21.2,21.2H679.9a21.211,21.211,0,0,0,21.2-21.2V47.8A21.147,21.147,0,0,0,680.2,26.6Z"/>
    </clipPath>
  </defs>
  <g id="_1on1_box" data-name="1on1 box" transform="translate(-14.4 -22.6)">
    <g id="组_836" data-name="组 836">
      <path id="路径_1601" data-name="路径 1601" d="M680.2,29.7H14.4V558.5a25.223,25.223,0,0,0,25.2,25.2H679.9a25.223,25.223,0,0,0,25.2-25.2V54.9a25.262,25.262,0,0,0-23.2-25.1l-.1-.1Z" fill="#c8d1ff"/>
    </g>
    <path id="路径_1602" data-name="路径 1602" d="M680.2,26.6H18.4V550.3a21.211,21.211,0,0,0,21.2,21.2H679.9a21.211,21.211,0,0,0,21.2-21.2V47.8A21.147,21.147,0,0,0,680.2,26.6Z" fill="#1a1a1a"/>
    <g id="组_837" data-name="组 837">
      <path id="路径_1603" data-name="路径 1603" d="M680.2,26.6h0a21.3,21.3,0,0,1,21,21.2V550.3A21.211,21.211,0,0,1,680,571.5H39.6a21.211,21.211,0,0,1-21.2-21.2V26.6H680.2m0-4H14.4V550.3a25.223,25.223,0,0,0,25.2,25.2H679.9a25.223,25.223,0,0,0,25.2-25.2V47.8a25.262,25.262,0,0,0-23.2-25.1l-.1-.1Z" fill="#fff"/>
    </g>
    <g id="组_839" data-name="组 839">
      <g id="组_838" data-name="组 838" clip-path="url(#clip-path)">
        <path id="路径_1604" data-name="路径 1604" d="M217,263.1,12,634.8a38.221,38.221,0,0,1-51.7,15h0a38.22,38.22,0,0,1-15-51.7l205-371.8a38.22,38.22,0,0,1,51.7-15h0A38.249,38.249,0,0,1,217,263.1Z" opacity="0.3"/>
        <path id="路径_1605" data-name="路径 1605" d="M808.2,620.4l-205,371.8a38.221,38.221,0,0,1-51.7,15h0a38.221,38.221,0,0,1-15-51.7l205-371.8a38.221,38.221,0,0,1,51.7-15h0A38.046,38.046,0,0,1,808.2,620.4Z" opacity="0.3"/>
        <path id="路径_1606" data-name="路径 1606" d="M103.9,21-14.3,235.4a30.63,30.63,0,0,1-41.4,12h0a30.63,30.63,0,0,1-12-41.4L50.6-8.4A30.63,30.63,0,0,1,92-20.4h0A30.6,30.6,0,0,1,103.9,21Z" opacity="0.3"/>
        <path id="路径_1607" data-name="路径 1607" d="M655.4,594.4,537.2,808.8a30.63,30.63,0,0,1-41.4,12h0a30.63,30.63,0,0,1-12-41.4L602.1,565a30.63,30.63,0,0,1,41.4-12h0A30.622,30.622,0,0,1,655.4,594.4Z" opacity="0.3"/>
        <path id="路径_1608" data-name="路径 1608" d="M257.4,595.6l-146.1,265a37.743,37.743,0,0,1-51.1,14.8h0a37.743,37.743,0,0,1-14.8-51.1l146.1-265a37.743,37.743,0,0,1,51.1-14.8h0A37.656,37.656,0,0,1,257.4,595.6Z" opacity="0.3"/>
        <path id="路径_1609" data-name="路径 1609" d="M482.3,281.6,364.1,496a30.63,30.63,0,0,1-41.4,12h0a30.63,30.63,0,0,1-12-41.4L429,252.2a30.63,30.63,0,0,1,41.4-12h0A30.6,30.6,0,0,1,482.3,281.6Z" opacity="0.3"/>
        <path id="路径_1610" data-name="路径 1610" d="M787.3-51.3,669,163.1a30.63,30.63,0,0,1-41.4,12h0a30.63,30.63,0,0,1-12-41.4L733.9-80.7a30.63,30.63,0,0,1,41.4-12h0A30.656,30.656,0,0,1,787.3-51.3Z" opacity="0.3"/>
        <path id="路径_1611" data-name="路径 1611" d="M469.5,3.4,366.1,190.9a26.847,26.847,0,0,1-36.2,10.5h0a26.847,26.847,0,0,1-10.5-36.2L422.9-22.3a26.847,26.847,0,0,1,36.2-10.5h0A26.725,26.725,0,0,1,469.5,3.4Z" opacity="0.3"/>
        <path id="路径_1612" data-name="路径 1612" d="M414.2,758.3,310.8,945.8a26.847,26.847,0,0,1-36.2,10.5h0a26.847,26.847,0,0,1-10.5-36.2L367.5,732.6a26.847,26.847,0,0,1,36.2-10.5h0A26.646,26.646,0,0,1,414.2,758.3Z" opacity="0.3"/>
        <path id="路径_1613" data-name="路径 1613" d="M685.7,293.2,582.3,480.7a26.847,26.847,0,0,1-36.2,10.5h0A26.847,26.847,0,0,1,535.6,455L639,267.5A26.847,26.847,0,0,1,675.2,257h0A26.847,26.847,0,0,1,685.7,293.2Z" opacity="0.3"/>
      </g>
    </g>
  </g>
</svg>
