<svg xmlns="http://www.w3.org/2000/svg" width="54.425" height="54.424" viewBox="0 0 54.425 54.424">
  <g id="组_1263" data-name="组 1263" transform="translate(-210.492 -890.426)">
    <path id="路径_2142" data-name="路径 2142" d="M262.862,912.906h-22.2a1.775,1.775,0,0,0-1.775,1.775v7.092a1.774,1.774,0,0,0,1.775,1.774h12.5a16.692,16.692,0,0,1-7.184,8.419l5.331,9.227a26.681,26.681,0,0,0,13.606-23.335,17.975,17.975,0,0,0-.306-3.485A1.783,1.783,0,0,0,262.862,912.906Z" fill="#fafafa"/>
    <path id="路径_2143" data-name="路径 2143" d="M237.705,934.2a16.564,16.564,0,0,1-14.328-8.289l-9.227,5.318a27.191,27.191,0,0,0,37.161,9.974v-.013l-5.331-9.228A16.431,16.431,0,0,1,237.705,934.2Z" fill="#fafafa"/>
    <path id="路径_2144" data-name="路径 2144" d="M251.311,941.205v-.013l-5.331-9.228a16.428,16.428,0,0,1-8.275,2.238V944.85A27.167,27.167,0,0,0,251.311,941.205Z" fill="#fafafa"/>
    <path id="路径_2145" data-name="路径 2145" d="M221.141,917.638a16.448,16.448,0,0,1,2.236-8.275l-9.227-5.319a27.087,27.087,0,0,0,0,27.187l9.227-5.318A16.451,16.451,0,0,1,221.141,917.638Z" fill="#fafafa"/>
    <path id="路径_2146" data-name="路径 2146" d="M237.705,901.074a16.487,16.487,0,0,1,10.516,3.775,1.767,1.767,0,0,0,2.379-.107l5.025-5.024a1.789,1.789,0,0,0-.1-2.616,27.154,27.154,0,0,0-41.372,6.942l9.227,5.319A16.561,16.561,0,0,1,237.705,901.074Z" fill="#fafafa"/>
    <path id="路径_2147" data-name="路径 2147" d="M248.221,904.849a1.767,1.767,0,0,0,2.379-.107l5.025-5.024a1.789,1.789,0,0,0-.1-2.616,27.13,27.13,0,0,0-17.817-6.676v10.648A16.487,16.487,0,0,1,248.221,904.849Z" fill="#fafafa"/>
  </g>
</svg>
