<svg xmlns="http://www.w3.org/2000/svg" xmlns:xlink="http://www.w3.org/1999/xlink" width="296.571" height="74.827" viewBox="0 0 296.571 74.827">
  <defs>
    <linearGradient id="linear-gradient" y1="0.5" x2="1" y2="0.5" gradientUnits="objectBoundingBox">
      <stop offset="0.001" stop-color="#00e5ff"/>
      <stop offset="1" stop-color="#1200ff"/>
    </linearGradient>
  </defs>
  <g id="组_1167" data-name="组 1167" transform="translate(-381.72 -578.949)">
    <g id="组_1163" data-name="组 1163">
      <path id="路径_1972" data-name="路径 1972" d="M673.589,615.73l-12.6-26.148a5.267,5.267,0,0,0-4.56-2.633H403.582a5.264,5.264,0,0,0-4.56,2.633l-12.6,26.148a5.267,5.267,0,0,0,0,5.265l12.6,26.148a5.262,5.262,0,0,0,4.56,2.633H656.429a5.265,5.265,0,0,0,4.56-2.633l12.6-26.148A5.262,5.262,0,0,0,673.589,615.73Z" fill="#c8d1ff"/>
      <path id="路径_1973" data-name="路径 1973" d="M656.429,586.949a5.267,5.267,0,0,1,4.56,2.633l12.6,26.148a5.262,5.262,0,0,1,0,5.265l-12.6,26.148a5.265,5.265,0,0,1-4.56,2.633H403.582a5.262,5.262,0,0,1-4.56-2.633l-12.6-26.148a5.267,5.267,0,0,1,0-5.265l12.6-26.148a5.264,5.264,0,0,1,4.56-2.633H656.429m0-4H403.582a9.292,9.292,0,0,0-8.025,4.633l-.074.129-.065.135-12.544,26.032a9.294,9.294,0,0,0,0,8.969l12.545,26.033.065.134.074.129a9.292,9.292,0,0,0,8.025,4.633H656.429a9.289,9.289,0,0,0,8.024-4.633l.075-.129.064-.134,12.545-26.033a9.294,9.294,0,0,0,0-8.969l-12.545-26.032-.064-.135-.075-.129a9.29,9.29,0,0,0-8.024-4.633Z" fill="#c8d1ff"/>
    </g>
    <g id="路径_1974" data-name="路径 1974" stroke-miterlimit="10" fill="url(#linear-gradient)">
      <path d="M 656.4290161132812 647.7760009765625 L 403.5820007324219 647.7760009765625 C 400.9931945800781 647.7760009765625 398.58203125 646.383544921875 397.2894287109375 644.14208984375 L 397.25244140625 644.0779418945312 L 397.2203063964844 644.01123046875 L 384.64892578125 617.9247436523438 C 383.4091491699219 615.7198486328125 383.4091186523438 613.0049438476562 384.6490173339844 610.800048828125 L 397.2203063964844 584.7137451171875 L 397.2525634765625 584.646728515625 L 397.2897338867188 584.5823974609375 C 398.5829467773438 582.3412475585938 400.9940185546875 580.948974609375 403.5820007324219 580.948974609375 L 656.4290161132812 580.948974609375 C 659.0155639648438 580.948974609375 661.4264526367188 582.3408813476562 662.7208251953125 584.58154296875 L 662.7582397460938 584.6463623046875 L 662.790771484375 584.7138061523438 L 675.3609008789062 610.7998657226562 C 676.6019897460938 613.005126953125 676.6019897460938 615.7202758789062 675.3607177734375 617.9254150390625 L 662.790771484375 644.0111694335938 L 662.7583618164062 644.078369140625 L 662.7211303710938 644.1429443359375 C 661.4273681640625 646.3838500976562 659.0164184570312 647.7760009765625 656.4290161132812 647.7760009765625 Z" stroke="none"/>
      <path d="M 403.58203125 582.948974609375 C 401.7000122070312 582.948974609375 399.9620361328125 583.9530029296875 399.02197265625 585.5819702148438 L 386.4210205078125 611.72998046875 C 385.48095703125 613.3590087890625 385.48095703125 615.3660278320312 386.4210205078125 616.9949951171875 L 399.02197265625 643.1430053710938 C 399.9620361328125 644.7730102539062 401.7000122070312 645.7760009765625 403.58203125 645.7760009765625 L 656.428955078125 645.7760009765625 C 658.3099975585938 645.7760009765625 660.0479736328125 644.7730102539062 660.989013671875 643.1430053710938 L 673.5889892578125 616.9949951171875 C 674.530029296875 615.3660278320312 674.530029296875 613.3590087890625 673.5889892578125 611.72998046875 L 660.989013671875 585.5819702148438 C 660.0479736328125 583.9530029296875 658.3099975585938 582.948974609375 656.428955078125 582.948974609375 L 403.58203125 582.948974609375 M 403.58203125 578.948974609375 L 656.428955078125 578.948974609375 C 659.7275390625 578.948974609375 662.802001953125 580.723876953125 664.4525756835938 583.5811157226562 L 664.5274658203125 583.710693359375 L 664.5924072265625 583.8455810546875 L 677.1367797851562 609.8780517578125 C 678.6757202148438 612.6600341796875 678.675537109375 616.0653076171875 677.1365966796875 618.8472290039062 L 664.5277099609375 645.0137329101562 L 664.453125 645.1429443359375 C 662.80322265625 648.000732421875 659.7285766601562 649.7760009765625 656.428955078125 649.7760009765625 L 403.58203125 649.7760009765625 C 400.2807006835938 649.7760009765625 397.2056884765625 648.0001220703125 395.5569458007812 645.1414184570312 L 395.48291015625 645.0130615234375 L 395.4185180664062 644.8795166015625 L 382.873046875 618.8464965820312 C 381.33544921875 616.0650024414062 381.3356323242188 612.6597900390625 382.8731079101562 609.8782348632812 L 395.483154296875 583.7114868164062 L 395.5574340820312 583.5826416015625 C 397.2069091796875 580.7244873046875 400.28173828125 578.948974609375 403.58203125 578.948974609375 Z" stroke="none" fill="#fff"/>
    </g>
    <g id="组_1164" data-name="组 1164">
      <path id="路径_1975" data-name="路径 1975" d="M492.762,624.131a.417.417,0,0,1-.43-.617L498.4,605.37a.574.574,0,0,1,.59-.43h4.94a.572.572,0,0,1,.589.43l6.067,18.144a.417.417,0,0,1-.43.617h-4.429a.581.581,0,0,1-.617-.456l-.724-2.63h-5.825l-.751,2.63a.581.581,0,0,1-.618.456Zm7.058-7.515h3.3l-1.61-5.985H501.4Z" fill="#fff"/>
      <path id="路径_1976" data-name="路径 1976" d="M512.994,624.131a.482.482,0,0,1-.536-.537V605.477a.482.482,0,0,1,.536-.537h6.576c4.134,0,7.918,1.53,7.918,7.811v3.569c0,6.389-3.784,7.811-7.918,7.811Zm4.7-4.912h1.987c1.611,0,2.443-.751,2.443-2.576V612.4c0-1.771-.832-2.55-2.443-2.55h-1.987Z" fill="#fff"/>
      <path id="路径_1977" data-name="路径 1977" d="M531.054,624.131a.482.482,0,0,1-.537-.537V605.477a.482.482,0,0,1,.537-.537h6.576c4.134,0,7.917,1.53,7.917,7.811v3.569c0,6.389-3.783,7.811-7.917,7.811Zm4.7-4.912h1.986c1.611,0,2.443-.751,2.443-2.576V612.4c0-1.771-.832-2.55-2.443-2.55h-1.986Z" fill="#fff"/>
      <path id="路径_1978" data-name="路径 1978" d="M566.746,609.288a.482.482,0,0,1-.537.537h-7.14v3.033h6.013a.482.482,0,0,1,.536.537v3.6a.481.481,0,0,1-.536.537h-6.013v6.066a.482.482,0,0,1-.537.537h-4.16a.481.481,0,0,1-.536-.537V605.477a.481.481,0,0,1,.536-.537h11.837a.482.482,0,0,1,.537.537Z" fill="#fff"/>
      <path id="路径_1979" data-name="路径 1979" d="M579.141,624.131a.615.615,0,0,1-.617-.376l-2.9-5.556h-1.153v5.4a.483.483,0,0,1-.538.537h-4.16a.482.482,0,0,1-.536-.537V605.477a.482.482,0,0,1,.536-.537h6.818c4.67,0,7.273,2.684,7.273,6.764a5.811,5.811,0,0,1-3.381,5.637l3.757,6.146c.215.375.081.644-.349.644Zm-4.669-14.359v3.945h1.852c1.529,0,2.147-.59,2.147-1.986,0-1.315-.618-1.959-2.147-1.959Z" fill="#fff"/>
      <path id="路径_1980" data-name="路径 1980" d="M592.021,623.594a.482.482,0,0,1-.537.537h-4.16a.482.482,0,0,1-.537-.537V605.477a.482.482,0,0,1,.537-.537h4.16a.482.482,0,0,1,.537.537Z" fill="#fff"/>
      <path id="路径_1981" data-name="路径 1981" d="M600.849,619.434h7.408a.482.482,0,0,1,.537.537v3.623a.482.482,0,0,1-.537.537H596.152a.482.482,0,0,1-.537-.537V605.477a.482.482,0,0,1,.537-.537H607.8a.482.482,0,0,1,.537.537V609.1a.482.482,0,0,1-.537.536h-6.952v2.5h5.905a.482.482,0,0,1,.537.537v3.516a.482.482,0,0,1-.537.537h-5.905Z" fill="#fff"/>
      <path id="路径_1982" data-name="路径 1982" d="M612.172,624.131a.482.482,0,0,1-.537-.537V605.477a.482.482,0,0,1,.537-.537h4.32a.616.616,0,0,1,.618.376l2.148,4.08a64.272,64.272,0,0,1,3.032,6.495l.107-.027c-.241-2.523-.348-4.885-.348-7.086v-3.3a.482.482,0,0,1,.537-.537h4.1a.482.482,0,0,1,.537.537v18.117a.482.482,0,0,1-.537.537H622.4a.691.691,0,0,1-.643-.376l-2.121-3.542a47.621,47.621,0,0,1-3.3-7.113l-.108.027a62.512,62.512,0,0,1,.59,7.891v2.576a.481.481,0,0,1-.536.537Z" fill="#fff"/>
      <path id="路径_1983" data-name="路径 1983" d="M631.357,624.131a.482.482,0,0,1-.537-.537V605.477a.482.482,0,0,1,.537-.537h6.576c4.133,0,7.918,1.53,7.918,7.811v3.569c0,6.389-3.785,7.811-7.918,7.811Zm4.7-4.912h1.986c1.61,0,2.442-.751,2.442-2.576V612.4c0-1.771-.832-2.55-2.442-2.55h-1.986Z" fill="#fff"/>
    </g>
    <rect id="矩形_504" data-name="矩形 504" width="1.551" height="42.291" transform="translate(477.065 593.833)" fill="#fff"/>
    <g id="组_1166" data-name="组 1166">
      <g id="组_1165" data-name="组 1165">
        <path id="路径_1984" data-name="路径 1984" d="M432.118,627.412a.872.872,0,1,1,.854-.7A.881.881,0,0,1,432.118,627.412Z" fill="#fff"/>
        <path id="路径_1985" data-name="路径 1985" d="M446.812,626.308a2.7,2.7,0,0,1-2.693-2.693v-.7h-.694a2.693,2.693,0,0,1,0-5.386h.694v-.694a2.693,2.693,0,1,1,5.386,0v.694h.7a2.693,2.693,0,1,1,0,5.386h-.7v.7A2.7,2.7,0,0,1,446.812,626.308Zm-3.387-7.03a.949.949,0,1,0,0,1.9h1.566a.872.872,0,0,1,.872.872v1.566a.949.949,0,1,0,1.9,0v-1.566a.872.872,0,0,1,.872-.872H450.2a.949.949,0,1,0,0-1.9h-1.566a.872.872,0,0,1-.872-.872V616.84a.949.949,0,1,0-1.9,0v1.566a.873.873,0,0,1-.872.872Z" fill="#fff"/>
        <path id="路径_1986" data-name="路径 1986" d="M446.812,610.022a10.131,10.131,0,0,0-6.008,1.967h-1.789a7.427,7.427,0,1,0-11.766-8.2,6.738,6.738,0,1,0-10.684,7.714,4.246,4.246,0,0,0-4.194,4.241v8.182a.872.872,0,0,0,.872.872h11.362v1.743a.873.873,0,0,0,.872.872h2.684a.872.872,0,1,0,0-1.744h-1.812v-9.041a2.9,2.9,0,0,1,2.894-2.894h9.715a10.2,10.2,0,0,0-.764,11.935h-2.151a.872.872,0,1,0,0,1.744h3.539a10.2,10.2,0,1,0,7.23-17.39Zm-12.573-9.4a5.685,5.685,0,1,1-5.685,5.685A5.691,5.691,0,0,1,434.239,600.619Zm-18.152,5.887a5,5,0,1,1,5,5A5,5,0,0,1,416.087,606.506Zm-1.973,16.547v-7.31a2.5,2.5,0,0,1,2.5-2.5h8.94a3.182,3.182,0,0,1,.483.034,4.629,4.629,0,0,0-1.431,3.348v6.426Zm15.129-11.064a4.629,4.629,0,0,0-1.339.2,3.981,3.981,0,0,0-2.3-.684,6.769,6.769,0,0,0,1.729-2.469,7.457,7.457,0,0,0,2.132,2.956Zm17.569,16.7a8.462,8.462,0,1,1,8.448-8.462A8.465,8.465,0,0,1,446.812,628.689Z" fill="#fff"/>
      </g>
    </g>
  </g>
</svg>
