<svg xmlns="http://www.w3.org/2000/svg" width="165.4" height="82.7" viewBox="0 0 165.4 82.7">
  <g id="组_1048" data-name="组 1048" transform="translate(-32 -81.5)">
    <g id="组_1047" data-name="组 1047">
      <path id="路径_1909" data-name="路径 1909" d="M190.7,81.5H38.6A6.594,6.594,0,0,0,32,88.1v69.5a6.594,6.594,0,0,0,6.6,6.6H190.8a6.594,6.594,0,0,0,6.6-6.6V88.1A6.746,6.746,0,0,0,190.7,81.5ZM68,154.7a3.9,3.9,0,0,1-3.9,3.9H40.3a3.9,3.9,0,0,1-3.9-3.9V114.3a3.9,3.9,0,0,1,3.9-3.9H64.2a3.9,3.9,0,0,1,3.9,3.9v40.4Zm34.7,0a3.9,3.9,0,0,1-3.9,3.9H74.9a3.9,3.9,0,0,1-3.9-3.9V114.3a3.9,3.9,0,0,1,3.9-3.9H98.8a3.9,3.9,0,0,1,3.9,3.9v40.4Zm20.7-35.2L111,152.8c-.1.4-.4.5-.8.5h-4c-.5,0-.7-.3-.5-.8l12.5-33.3a.64.64,0,0,1,.7-.5h3.9C123.4,118.7,123.6,119,123.4,119.5Zm34.8,35.2a3.9,3.9,0,0,1-3.9,3.9H130.4a3.9,3.9,0,0,1-3.9-3.9V114.3a3.9,3.9,0,0,1,3.9-3.9h23.9a3.9,3.9,0,0,1,3.9,3.9Zm34.6,0a3.9,3.9,0,0,1-3.9,3.9H165a3.9,3.9,0,0,1-3.9-3.9V114.3a3.9,3.9,0,0,1,3.9-3.9h24a3.9,3.9,0,0,1,3.9,3.9v40.4Z" fill="#fff"/>
    </g>
  </g>
</svg>
