<svg xmlns="http://www.w3.org/2000/svg" xmlns:xlink="http://www.w3.org/1999/xlink" width="296.571" height="74.827" viewBox="0 0 296.571 74.827">
  <defs>
    <linearGradient id="linear-gradient" y1="0.5" x2="1" y2="0.5" gradientUnits="objectBoundingBox">
      <stop offset="0" stop-color="#00ff5b"/>
      <stop offset="1" stop-color="#0d1eff"/>
    </linearGradient>
  </defs>
  <g id="组_1162" data-name="组 1162" transform="translate(-381.72 -494.57)">
    <g id="组_1158" data-name="组 1158">
      <path id="路径_1960" data-name="路径 1960" d="M673.589,531.351l-12.6-26.148a5.267,5.267,0,0,0-4.56-2.633H403.582a5.264,5.264,0,0,0-4.56,2.633l-12.6,26.148a5.269,5.269,0,0,0,0,5.266l12.6,26.148a5.263,5.263,0,0,0,4.56,2.632H656.429a5.266,5.266,0,0,0,4.56-2.632l12.6-26.148A5.264,5.264,0,0,0,673.589,531.351Z" fill="#c8d1ff"/>
      <path id="路径_1961" data-name="路径 1961" d="M656.429,502.57a5.267,5.267,0,0,1,4.56,2.633l12.6,26.148a5.264,5.264,0,0,1,0,5.266l-12.6,26.147a5.265,5.265,0,0,1-4.56,2.633H403.582a5.262,5.262,0,0,1-4.56-2.633l-12.6-26.147a5.269,5.269,0,0,1,0-5.266l12.6-26.148a5.264,5.264,0,0,1,4.56-2.633H656.429m0-4H403.582a9.292,9.292,0,0,0-8.025,4.633l-.074.129-.065.135L382.873,529.5a9.3,9.3,0,0,0,0,8.969L395.418,564.5l.065.134.074.129a9.292,9.292,0,0,0,8.025,4.633H656.429a9.29,9.29,0,0,0,8.024-4.633l.075-.129.064-.134,12.545-26.033a9.292,9.292,0,0,0,0-8.968l-12.545-26.034-.064-.134-.075-.129a9.29,9.29,0,0,0-8.024-4.633Z" fill="#c8d1ff"/>
    </g>
    <g id="路径_1962" data-name="路径 1962" stroke-miterlimit="10" fill="url(#linear-gradient)">
      <path d="M 656.4290161132812 563.39697265625 L 403.5820007324219 563.39697265625 C 400.9936828613281 563.39697265625 398.5826110839844 562.005126953125 397.2897338867188 559.7646484375 L 397.2525634765625 559.7002563476562 L 397.2203063964844 559.63330078125 L 384.64892578125 533.5467529296875 C 383.4093933105469 531.3411865234375 383.4093627929688 528.6257934570312 384.64892578125 526.4212646484375 L 397.2203063964844 500.3347473144531 L 397.2525634765625 500.2677917480469 L 397.2897338867188 500.2033996582031 C 398.5829467773438 497.9622497558594 400.9940185546875 496.5700073242188 403.5820007324219 496.5700073242188 L 656.4290161132812 496.5700073242188 C 659.0155639648438 496.5700073242188 661.4264526367188 497.9619445800781 662.7208251953125 500.2026062011719 L 662.7582397460938 500.2673950195312 L 662.790771484375 500.3348388671875 L 675.3607177734375 526.4205932617188 C 676.6018676757812 528.62548828125 676.6019287109375 531.3409423828125 675.3609619140625 533.5469360351562 L 662.790771484375 559.6332397460938 L 662.7582397460938 559.7006225585938 L 662.7208251953125 559.7655029296875 C 661.4268188476562 562.0054931640625 659.0159301757812 563.39697265625 656.4290161132812 563.39697265625 Z" stroke="none"/>
      <path d="M 403.58203125 498.5700073242188 C 401.7000122070312 498.5700073242188 399.9620361328125 499.573974609375 399.02197265625 501.2030029296875 L 386.4210205078125 527.3510131835938 C 385.48095703125 528.97998046875 385.48095703125 530.9869995117188 386.4210205078125 532.6170043945312 L 399.02197265625 558.7650146484375 C 399.9620361328125 560.3939819335938 401.7000122070312 561.39697265625 403.58203125 561.39697265625 L 656.428955078125 561.39697265625 C 658.3099975585938 561.39697265625 660.0479736328125 560.3939819335938 660.989013671875 558.7650146484375 L 673.5889892578125 532.6170043945312 C 674.530029296875 530.9869995117188 674.530029296875 528.97998046875 673.5889892578125 527.3510131835938 L 660.989013671875 501.2030029296875 C 660.0479736328125 499.573974609375 658.3099975585938 498.5700073242188 656.428955078125 498.5700073242188 L 403.58203125 498.5700073242188 M 403.58203125 494.5700073242188 L 656.428955078125 494.5700073242188 C 659.7276611328125 494.5700073242188 662.8021240234375 496.344970703125 664.45263671875 499.2022094726562 L 664.5274658203125 499.331787109375 L 664.5924072265625 499.4666137695312 L 677.1365966796875 525.498779296875 C 678.67529296875 528.2803344726562 678.6754150390625 531.6860961914062 677.1368408203125 534.4688110351562 L 664.5274658203125 560.6362915039062 L 664.4525756835938 560.7659301757812 C 662.8023681640625 563.6224365234375 659.7279052734375 565.39697265625 656.428955078125 565.39697265625 L 403.58203125 565.39697265625 C 400.2813720703125 565.39697265625 397.2066040039062 563.6218872070312 395.5574951171875 560.764404296875 L 395.483154296875 560.6355590820312 L 395.4185180664062 560.5015258789062 L 382.8727416992188 534.468017578125 C 381.3355712890625 531.685791015625 381.335693359375 528.2807006835938 382.8729858398438 525.49951171875 L 395.483154296875 499.33251953125 L 395.5574340820312 499.2036743164062 C 397.2068481445312 496.3455810546875 400.2816772460938 494.5700073242188 403.58203125 494.5700073242188 Z" stroke="none" fill="#fff"/>
    </g>
    <g id="组_1159" data-name="组 1159">
      <path id="路径_1963" data-name="路径 1963" d="M506.236,529.472a4.124,4.124,0,0,1,2.684,4.16c0,3.839-2.363,6.12-6.576,6.12h-7.757a.481.481,0,0,1-.536-.536V521.1a.481.481,0,0,1,.536-.537h7.622c3.731,0,5.906,2.04,5.906,5.556A3.758,3.758,0,0,1,506.236,529.472Zm-4.992-4.455h-1.96v2.818h1.96c1.02,0,1.529-.43,1.529-1.422C502.773,525.554,502.316,525.017,501.244,525.017Zm.617,10.145a1.56,1.56,0,0,0,1.691-1.717c0-.967-.511-1.611-1.879-1.611h-2.389v3.328Z" fill="#fff"/>
      <path id="路径_1964" data-name="路径 1964" d="M519.06,540.128c-5.072,0-8.05-2.9-8.05-7.81v-4.375c0-4.886,2.978-7.757,8.05-7.757s8.053,2.871,8.053,7.757v4.375C527.113,537.229,524.134,540.128,519.06,540.128Zm0-4.966c1.8,0,2.685-1.019,2.685-2.979v-4.106c0-1.933-.886-2.926-2.685-2.926s-2.683.993-2.683,2.926v4.106C516.377,534.143,517.263,535.162,519.06,535.162Z" fill="#fff"/>
      <path id="路径_1965" data-name="路径 1965" d="M537.576,540.128c-5.072,0-8.052-2.9-8.052-7.81v-4.375c0-4.886,2.98-7.757,8.052-7.757s8.053,2.871,8.053,7.757v4.375C545.629,537.229,542.648,540.128,537.576,540.128Zm0-4.966c1.8,0,2.684-1.019,2.684-2.979v-4.106c0-1.933-.885-2.926-2.684-2.926s-2.684.993-2.684,2.926v4.106C534.892,534.143,535.777,535.162,537.576,535.162Z" fill="#fff"/>
      <path id="路径_1966" data-name="路径 1966" d="M549.166,539.752a.481.481,0,0,1-.536-.536V521.1a.482.482,0,0,1,.536-.537h4.16a.482.482,0,0,1,.537.537V527l3.838-6.093a.656.656,0,0,1,.645-.349h5.234c.43,0,.59.269.322.645l-5.771,7.6,6.683,10.307c.242.349.08.644-.349.644h-4.992a.693.693,0,0,1-.644-.376l-3.892-6.441-1.074,1.234v5.047a.481.481,0,0,1-.537.536Z" fill="#fff"/>
      <path id="路径_1967" data-name="路径 1967" d="M567.011,539.752a.482.482,0,0,1-.537-.536V521.1a.482.482,0,0,1,.537-.537H571.6a.637.637,0,0,1,.618.4l1.717,3.462c.886,1.8,2.04,4.563,2.5,5.717h.108c.457-1.154,1.61-3.918,2.5-5.717l1.718-3.462a.637.637,0,0,1,.618-.4h4.589a.483.483,0,0,1,.537.537v18.118a.482.482,0,0,1-.537.536h-4.079a.481.481,0,0,1-.537-.536v-1.96c0-2.389.107-5.77.295-8.723l-.135-.027c-.4,1.1-1.637,4-2.442,5.771l-.457.993a.6.6,0,0,1-.617.4h-3.006a.6.6,0,0,1-.617-.4l-.457-.993c-.8-1.772-2.039-4.67-2.441-5.771l-.135.027c.187,2.953.3,6.334.3,8.723v1.96a.481.481,0,0,1-.536.536Z" fill="#fff"/>
      <path id="路径_1968" data-name="路径 1968" d="M588.8,539.752a.416.416,0,0,1-.429-.617l6.065-18.144a.575.575,0,0,1,.591-.43h4.939a.575.575,0,0,1,.591.43l6.065,18.144a.416.416,0,0,1-.43.617h-4.427a.581.581,0,0,1-.618-.456l-.724-2.63H594.6l-.752,2.63a.581.581,0,0,1-.618.456Zm7.059-7.515h3.3l-1.611-5.985h-.108Z" fill="#fff"/>
      <path id="路径_1969" data-name="路径 1969" d="M618.4,539.752a.614.614,0,0,1-.617-.376l-2.9-5.556h-1.154v5.4a.482.482,0,0,1-.537.536h-4.16a.481.481,0,0,1-.536-.536V521.1a.481.481,0,0,1,.536-.537h6.817c4.67,0,7.274,2.684,7.274,6.764a5.811,5.811,0,0,1-3.381,5.637l3.757,6.146c.215.376.081.644-.349.644Zm-4.67-14.359v3.945h1.853c1.529,0,2.146-.59,2.146-1.986,0-1.315-.617-1.959-2.146-1.959Z" fill="#fff"/>
      <path id="路径_1970" data-name="路径 1970" d="M626.582,539.752a.481.481,0,0,1-.537-.536V521.1a.482.482,0,0,1,.537-.537h4.16a.482.482,0,0,1,.537.537V527l3.838-6.093a.653.653,0,0,1,.645-.349h5.233c.429,0,.591.269.321.645l-5.769,7.6,6.682,10.307c.242.349.081.644-.348.644h-4.992a.7.7,0,0,1-.645-.376l-3.892-6.441-1.073,1.234v5.047a.482.482,0,0,1-.537.536Z" fill="#fff"/>
    </g>
    <rect id="矩形_503" data-name="矩形 503" width="1.551" height="42.291" transform="translate(477.065 509.455)" fill="#fff"/>
    <g id="组_1161" data-name="组 1161">
      <g id="组_1160" data-name="组 1160">
        <path id="路径_1971" data-name="路径 1971" d="M445.289,515.831c-.027,0-.055,0-.084,0H424.171a5.26,5.26,0,0,0-5.261,5.261v24.979a1.314,1.314,0,0,0,2.18.989l9.653-8.446,9.652,8.446a1.315,1.315,0,0,0,2.181-.989V531.606h6.574a1.315,1.315,0,0,0,1.315-1.315v-9.2A5.258,5.258,0,0,0,445.289,515.831Zm-5.343,27.34-8.337-7.3a1.315,1.315,0,0,0-1.732,0l-8.338,7.3V521.09a2.633,2.633,0,0,1,2.632-2.632H440.65l-.056.1-.018.033c-.035.066-.069.132-.1.2l-.023.047c-.029.06-.056.121-.082.182l-.014.031c-.029.069-.056.139-.082.209l-.019.051q-.035.1-.066.2l-.008.026c-.023.072-.043.146-.062.22l-.014.053c-.017.069-.034.139-.048.209l-.005.02c-.015.076-.028.152-.04.229l-.009.056c-.011.074-.021.149-.028.224l0,.011c-.008.079-.013.157-.018.237l0,.058c0,.08-.006.16-.006.241v22.083Zm7.889-14.194h-5.259v-7.889a2.63,2.63,0,1,1,5.259,0v7.889Z" fill="#fff"/>
      </g>
    </g>
  </g>
</svg>
