<svg xmlns="http://www.w3.org/2000/svg" xmlns:xlink="http://www.w3.org/1999/xlink" width="339.571" height="316.141" viewBox="0 0 339.571 316.141">
  <defs>
    <linearGradient id="linear-gradient" x1="0.458" y1="0.002" x2="0.541" y2="0.998" gradientUnits="objectBoundingBox">
      <stop offset="0" stop-color="#ff0a6c"/>
      <stop offset="1" stop-color="#2d27ff"/>
    </linearGradient>
  </defs>
  <g id="login" transform="translate(-79.1 -48.159)">
    <path id="路径_1794" data-name="路径 1794" d="M218.3,85.9c-76.7,0-139.2,62.4-139.2,139.2,0,76.7,62.4,139.2,139.2,139.2,76.7,0,139.2-62.4,139.2-139.2C357.4,148.3,295,85.9,218.3,85.9Z" fill="#c8d1ff"/>
    <path id="路径_1795" data-name="路径 1795" d="M218.3,77.4c-76.7,0-139.2,62.4-139.2,139.2,0,76.7,62.4,139.2,139.2,139.2,76.7,0,139.2-62.4,139.2-139.2C357.4,139.8,295,77.4,218.3,77.4Z" fill="url(#linear-gradient)"/>
    <path id="路径_1796" data-name="路径 1796" d="M345.6,216.7a127.227,127.227,0,0,1-13,56.2q-1.95,4.05-4.2,7.8a122.675,122.675,0,0,1-12.5,17.7c-.9,1-1.7,2-2.6,3-.8.9-1.7,1.9-2.5,2.8a29.488,29.488,0,0,1-2.5,2.5l-2.4,2.4c-.8.8-1.7,1.6-2.5,2.3A127.5,127.5,0,0,1,130.5,309l-2.4-2.4-.1-.1c-1.7-1.7-3.3-3.4-4.9-5.2-.9-1-1.7-1.9-2.5-2.9l-.1-.1a127.5,127.5,0,0,1,0-163.6l.1-.1c.8-1,1.7-2,2.5-2.9,1.6-1.8,3.2-3.5,4.9-5.2l.1-.1,2.4-2.4a127.5,127.5,0,0,1,172.9-2.4c.9.8,1.7,1.6,2.5,2.3l2.4,2.4c.8.8,1.6,1.7,2.5,2.5a33.288,33.288,0,0,1,2.5,2.8c.9,1,1.8,2,2.6,3A127.847,127.847,0,0,1,345.6,216.7Z" fill="#fff"/>
    <g id="组_936" data-name="组 936">
      <path id="路径_1797" data-name="路径 1797" d="M293.7,75.4H142.6a22.214,22.214,0,0,0-22.2,22.2V298.4l.1.1c.8,1,1.7,2,2.5,2.9,1.6,1.8,3.2,3.5,4.9,5.2l.1.1V97.6A14.617,14.617,0,0,1,142.6,83H293.7a14.617,14.617,0,0,1,14.6,14.6V306.7c.8-.8,1.6-1.7,2.5-2.5a33.288,33.288,0,0,0,2.5-2.8c.9-1,1.8-2,2.6-3V97.6A22.214,22.214,0,0,0,293.7,75.4Z" fill="#151b5e"/>
      <path id="路径_1798" data-name="路径 1798" d="M308.3,97.6V306.7l-2.4,2.4c-.8.8-1.7,1.6-2.5,2.3A127.5,127.5,0,0,1,130.5,309l-2.4-2.4V97.6A14.617,14.617,0,0,1,142.7,83H293.8A14.661,14.661,0,0,1,308.3,97.6Z" fill="#29abe2"/>
    </g>
    <g id="组_941" data-name="组 941">
      <path id="路径_1799" data-name="路径 1799" d="M315.4,247.7H120.9A25.692,25.692,0,0,1,95.2,222h0a25.692,25.692,0,0,1,25.7-25.7H315.3A25.692,25.692,0,0,1,341,222h0A25.543,25.543,0,0,1,315.4,247.7Z" opacity="0.35"/>
      <path id="路径_1800" data-name="路径 1800" d="M315.4,241.8H120.9a25.692,25.692,0,0,1-25.7-25.7h0a25.692,25.692,0,0,1,25.7-25.7H315.3A25.692,25.692,0,0,1,341,216.1h0A25.543,25.543,0,0,1,315.4,241.8Z" fill="#fff"/>
      <g id="组_938" data-name="组 938">
        <g id="组_937" data-name="组 937">
          <path id="路径_1801" data-name="路径 1801" d="M165.8,173.6a.53.53,0,0,1-.6-.6V145.2a.53.53,0,0,1,.6-.6h3.8a.53.53,0,0,1,.6.6v23.9H182a.53.53,0,0,1,.6.6V173a.53.53,0,0,1-.6.6Z" fill="#fff"/>
          <path id="路径_1802" data-name="路径 1802" d="M196.4,174.1c-7.2,0-11.4-4.2-11.4-11.3v-7.5c0-7.1,4.2-11.2,11.4-11.2s11.4,4.1,11.4,11.2v7.5C207.7,169.9,203.5,174.1,196.4,174.1Zm0-4.6c4.2,0,6.4-2.3,6.4-6.6v-7.4c0-4.4-2.2-6.7-6.4-6.7s-6.4,2.3-6.4,6.7v7.4C189.9,167.2,192.1,169.5,196.4,169.5Z" fill="#fff"/>
          <path id="路径_1803" data-name="路径 1803" d="M223.8,174.1c-6,0-11.3-3.3-11.3-10.4v-9.2c0-7.1,5.1-10.3,11-10.3a18.85,18.85,0,0,1,9.7,2.7.58.58,0,0,1,.2.9l-2,2.8a.627.627,0,0,1-.8.2,13.257,13.257,0,0,0-7.1-1.9c-3.5,0-6.1,1.9-6.1,5.8v9.1c0,4,2.9,5.8,6.4,5.8a9.891,9.891,0,0,0,5.7-1.7v-6.2h-5.4a.53.53,0,0,1-.6-.6v-3.2a.53.53,0,0,1,.6-.6h9.6a.53.53,0,0,1,.6.6v11.4c0,.3,0,.5-.2.6A14.009,14.009,0,0,1,223.8,174.1Z" fill="#fff"/>
          <path id="路径_1804" data-name="路径 1804" d="M244.7,173a.53.53,0,0,1-.6.6h-3.7a.53.53,0,0,1-.6-.6V145.2a.53.53,0,0,1,.6-.6h3.7a.53.53,0,0,1,.6.6Z" fill="#fff"/>
          <path id="路径_1805" data-name="路径 1805" d="M252,173.6a.53.53,0,0,1-.6-.6V145.2a.53.53,0,0,1,.6-.6h4.1a.842.842,0,0,1,.7.4l7.9,13.8c1.4,2.4,2.9,5.1,4.1,7.3h.1c-.2-3.4-.4-7.6-.4-11v-9.9a.53.53,0,0,1,.6-.6h3.6a.53.53,0,0,1,.6.6V173a.53.53,0,0,1-.6.6h-4.1a.755.755,0,0,1-.7-.4l-7.7-12.7a78.088,78.088,0,0,1-4.3-8h-.1c.2,3.5.4,7.7.4,11.1v9.3a.53.53,0,0,1-.6.6H252Z" fill="#fff"/>
        </g>
      </g>
      <g id="组_939" data-name="组 939">
        <circle id="椭圆_208" data-name="椭圆 208" cx="8" cy="8" r="8" transform="matrix(0.24, -0.971, 0.971, 0.24, 112.277, 222.267)" fill="#151b5e"/>
        <circle id="椭圆_209" data-name="椭圆 209" cx="8" cy="8" r="8" transform="translate(152.7 208.7)" fill="#151b5e"/>
        <circle id="椭圆_210" data-name="椭圆 210" cx="8" cy="8" r="8" transform="matrix(0.226, -0.974, 0.974, 0.226, 189.933, 223.118)" fill="#151b5e"/>
        <path id="路径_1806" data-name="路径 1806" d="M246.7,218.2h-16a1.793,1.793,0,0,1-1.8-1.8h0a1.793,1.793,0,0,1,1.8-1.8h16a1.793,1.793,0,0,1,1.8,1.8h0A1.793,1.793,0,0,1,246.7,218.2Z" fill="#151b5e"/>
        <path id="路径_1807" data-name="路径 1807" d="M285.1,218.2h-16a1.793,1.793,0,0,1-1.8-1.8h0a1.793,1.793,0,0,1,1.8-1.8h16a1.793,1.793,0,0,1,1.8,1.8h0A1.793,1.793,0,0,1,285.1,218.2Z" fill="#151b5e"/>
        <path id="路径_1808" data-name="路径 1808" d="M323.6,218.2h-16a1.793,1.793,0,0,1-1.8-1.8h0a1.793,1.793,0,0,1,1.8-1.8h16a1.793,1.793,0,0,1,1.8,1.8h0A1.793,1.793,0,0,1,323.6,218.2Z" fill="#151b5e"/>
      </g>
      <g id="组_940" data-name="组 940">
        <rect id="矩形_469" data-name="矩形 469" width="8.5" height="10.1" transform="matrix(0.712, -0.702, 0.702, 0.712, 319.603, 264.462)" fill="#151b5e"/>
        <path id="路径_1809" data-name="路径 1809" d="M323.3,170.8a64.136,64.136,0,1,0-3.7,93.6l6-5.9A64.287,64.287,0,0,0,323.3,170.8Zm-4.6,86.7a58.408,58.408,0,1,1,.5-82.6A58.516,58.516,0,0,1,318.7,257.5Zm57.8,47.6a2.837,2.837,0,0,0-.9-1l-35.8-36.3a7.766,7.766,0,0,0-7.2-2.2l-6,5.9a7.6,7.6,0,0,0,2.1,7.2L364.5,315c.3.3.7.6,1,.9a7.774,7.774,0,0,0,12.3-6.3A6.781,6.781,0,0,0,376.5,305.1Z" fill="#636393"/>
        <path id="路径_1810" data-name="路径 1810" d="M238.2,256.9a57.564,57.564,0,0,0,40.4,17.3,58.362,58.362,0,1,1,.1-116.7,57.748,57.748,0,0,0-40,16.8A58.516,58.516,0,0,0,238.2,256.9Z" fill="#abe1ff" opacity="0.92"/>
        <path id="路径_1811" data-name="路径 1811" d="M318.7,257.5a57.748,57.748,0,0,1-40,16.8,58.36,58.36,0,0,1-39.9-99.9,57.748,57.748,0,0,1,40-16.8,58.36,58.36,0,0,1,39.9,99.9Z" fill="#abe1ff" opacity="0.27"/>
      </g>
    </g>
    <g id="组_942" data-name="组 942">
      <path id="路径_1812" data-name="路径 1812" d="M343.3,103.9a2.028,2.028,0,0,1-1.8-2.7l.6-3.1c3.5-18.4,20.7-12.2,22.8-22.9.7-3.5-.8-7-6.9-8.1a20.669,20.669,0,0,0-14.6,2.3c-1.4.8-2.5.5-3.1-.9L335,55.7a2.292,2.292,0,0,1,.9-3.1c17.4-10.8,55.2-1.8,50,25.9-3.8,19.9-21.9,12.4-24.5,25.7l-.3,1.5c-.3,1.4-1.2,1.4-2.6,1.2Zm2.6,29.1c-6.9-1.3-10.7-7.2-9.5-13.5,1.3-6.7,6.9-10.4,13.8-9.1s10.8,6.9,9.5,13.5C358.5,130.2,352.8,134.3,345.9,133Z" fill="#fff"/>
    </g>
    <g id="组_943" data-name="组 943">
      <path id="路径_1813" data-name="路径 1813" d="M369.3,188.4c-6.6-2.4-9.5-8.8-7.3-14.8,2.3-6.4,8.4-9.2,15.1-6.8s9.6,8.4,7.3,14.8C382.2,187.6,375.9,190.7,369.3,188.4Zm2-29.2a2.038,2.038,0,0,1-1.4-2.9l1-2.9c6.3-17.7,22.4-8.9,26-19.1,1.2-3.4.3-7-5.6-9.1a21.251,21.251,0,0,0-14.8,0c-1.5.5-2.6.1-2.9-1.4l-3.2-13.5a2.308,2.308,0,0,1,1.4-2.9c18.9-7.9,54.8,6.8,45.3,33.4-6.8,19.1-23.6,8.8-28.2,21.6l-.5,1.4c-.5,1.3-1.4,1.2-2.7.7Z" fill="#fff"/>
    </g>
  </g>
</svg>
