<svg xmlns="http://www.w3.org/2000/svg" width="304.7" height="57.5" viewBox="0 0 304.7 57.5">
  <g id="add_newcard" data-name="add newcard" transform="translate(-301.7 -190.5)">
    <g id="组_921" data-name="组 921">
      <path id="路径_1724" data-name="路径 1724" d="M313.7,246a10.029,10.029,0,0,1-10-10V202.5a10.029,10.029,0,0,1,10-10H594.4a10.029,10.029,0,0,1,10,10V236a10.029,10.029,0,0,1-10,10Z" fill="#5b2c80"/>
      <path id="路径_1725" data-name="路径 1725" d="M594.4,194.5a8.024,8.024,0,0,1,8,8V236a8.024,8.024,0,0,1-8,8H313.7a8.024,8.024,0,0,1-8-8V202.5a8.024,8.024,0,0,1,8-8H594.4m0-4H313.7a12.035,12.035,0,0,0-12,12V236a12.035,12.035,0,0,0,12,12H594.4a12.035,12.035,0,0,0,12-12V202.5a12.035,12.035,0,0,0-12-12Z" fill="#fff"/>
    </g>
    <g id="组_922" data-name="组 922">
      <path id="路径_1726" data-name="路径 1726" d="M332.3,230.4a.46.46,0,0,1-.5-.6l7.5-21.9a.634.634,0,0,1,.6-.5h4.9a.634.634,0,0,1,.6.5l7.5,21.9c.2.4,0,.6-.5.6h-4.3a.752.752,0,0,1-.7-.5l-1.2-3.9h-7.8l-1.2,3.9a.738.738,0,0,1-.6.5Zm7.5-8.9H345c-.9-2.8-1.9-6.3-2.5-8.5h-.1C341.6,215.2,340.6,218.7,339.8,221.5Z" fill="#fff"/>
      <path id="路径_1727" data-name="路径 1727" d="M356,230.4a.53.53,0,0,1-.6-.6V208a.53.53,0,0,1,.6-.6h7.9c5.2,0,9.1,2.3,9.1,9v5.1c0,6.7-4,8.9-9.1,8.9Zm4.6-4.8H364c2.5,0,3.7-1.2,3.7-3.8v-5.6c0-2.7-1.3-3.9-3.7-3.9h-3.4Z" fill="#fff"/>
      <path id="路径_1728" data-name="路径 1728" d="M377.7,230.4a.53.53,0,0,1-.6-.6V208a.53.53,0,0,1,.6-.6h7.9c5.2,0,9.1,2.3,9.1,9v5.1c0,6.7-4,8.9-9.1,8.9Zm4.6-4.8h3.4c2.5,0,3.7-1.2,3.7-3.8v-5.6c0-2.7-1.3-3.9-3.7-3.9h-3.4Z" fill="#fff"/>
      <path id="路径_1729" data-name="路径 1729" d="M406,230.4a.53.53,0,0,1-.6-.6V208a.53.53,0,0,1,.6-.6h4.3a.548.548,0,0,1,.6.4l4.3,7.7c1.4,2.6,2.7,5.3,3.4,6.9h.1c-.2-2.9-.4-5.9-.4-8.6V208a.53.53,0,0,1,.6-.6h4c.4,0,.5.2.5.6v21.9c0,.4-.2.6-.5.6h-4.3a.755.755,0,0,1-.7-.4l-4.2-7a64.046,64.046,0,0,1-3.7-7.5h-.1c.3,2.9.5,6.3.5,9.2v5.1c0,.4-.2.6-.5.6H406Z" fill="#fff"/>
      <path id="路径_1730" data-name="路径 1730" d="M433.5,225.7h9.6c.4,0,.6.2.6.5v3.5a.53.53,0,0,1-.6.6H428.9a.53.53,0,0,1-.6-.6V208a.53.53,0,0,1,.6-.6h13.7a.53.53,0,0,1,.6.6v3.5c0,.4-.2.5-.6.5h-9v4.4h8c.4,0,.6.2.6.5v3.5c0,.4-.2.5-.6.5h-8v4.8Z" fill="#fff"/>
      <path id="路径_1731" data-name="路径 1731" d="M451.9,230.4a.634.634,0,0,1-.6-.5L445.2,208c-.1-.4.1-.6.5-.6H450c.4,0,.5.2.6.5l1.8,7.3c.5,2.2,1.4,6.4,1.8,9.1h.1c.5-2.8,1.4-6.6,2.1-9.3l1.9-6.9a.634.634,0,0,1,.6-.5h4.3c.4,0,.5.2.6.5l1.9,6.9c.7,2.6,1.5,6.5,2,9.3h.1c.5-2.7,1.3-7,1.8-9.1l1.7-7.3c.1-.4.3-.5.6-.5h4.3a.46.46,0,0,1,.5.6l-6.1,21.9a.634.634,0,0,1-.6.5h-4.6a.634.634,0,0,1-.6-.5l-2.1-7.4a76.712,76.712,0,0,1-1.7-8.3h-.1a72.119,72.119,0,0,1-1.7,8.3l-2.1,7.4a.634.634,0,0,1-.6.5Z" fill="#fff"/>
      <path id="路径_1732" data-name="路径 1732" d="M494.1,230.9c-5.7,0-9.4-3-9.4-8.6v-6.7c0-5.6,3.8-8.6,9.3-8.6a12,12,0,0,1,6.9,2.1c.3.2.4.5.2.7l-2,3.1a.54.54,0,0,1-.8.2,7.537,7.537,0,0,0-4.1-1.2c-2.7,0-4.2,1.5-4.2,3.9v6.3c0,2.5,1.5,3.9,4.2,3.9a7.983,7.983,0,0,0,4.5-1.4.521.521,0,0,1,.8.1l2.1,3.1c.2.3.2.5,0,.7A12.9,12.9,0,0,1,494.1,230.9Z" fill="#fff"/>
      <path id="路径_1733" data-name="路径 1733" d="M502.8,230.4a.46.46,0,0,1-.5-.6l7.5-21.9a.634.634,0,0,1,.6-.5h4.9a.634.634,0,0,1,.6.5l7.5,21.9c.2.4,0,.6-.5.6h-4.3a.752.752,0,0,1-.7-.5l-1.2-3.9H509l-1.2,3.9a.738.738,0,0,1-.6.5Zm7.5-8.9h5.2c-.9-2.8-1.9-6.3-2.5-8.5h-.1C512.2,215.2,511.2,218.7,510.3,221.5Z" fill="#fff"/>
      <path id="路径_1734" data-name="路径 1734" d="M538.3,230.4a.548.548,0,0,1-.6-.4l-4.5-7.3h-2.1v7.1a.53.53,0,0,1-.6.6h-4a.53.53,0,0,1-.6-.6V208a.53.53,0,0,1,.6-.6h7.8c5.5,0,8.6,3,8.6,7.8a6.861,6.861,0,0,1-4.6,6.8l5.2,7.8c.2.4.1.7-.4.7h-4.8Zm-7.2-18.2v6.1h3.1c2.4,0,3.4-.9,3.4-3s-1-3-3.4-3h-3.1Z" fill="#fff"/>
      <path id="路径_1735" data-name="路径 1735" d="M547.3,230.4a.53.53,0,0,1-.6-.6V208a.53.53,0,0,1,.6-.6h7.9c5.2,0,9.1,2.3,9.1,9v5.1c0,6.7-4,8.9-9.1,8.9Zm4.6-4.8h3.4c2.5,0,3.7-1.2,3.7-3.8v-5.6c0-2.7-1.3-3.9-3.7-3.9h-3.4Z" fill="#fff"/>
    </g>
  </g>
</svg>
