<svg xmlns="http://www.w3.org/2000/svg" width="463.4" height="57.5" viewBox="0 0 463.4 57.5">
  <g id="add_newcard3" data-name="add newcard3" transform="translate(-219.5 -190.5)">
    <g id="组_923" data-name="组 923">
      <path id="路径_1736" data-name="路径 1736" d="M231.5,246a10.029,10.029,0,0,1-10-10V202.5a10.029,10.029,0,0,1,10-10H670.9a10.029,10.029,0,0,1,10,10V236a10.029,10.029,0,0,1-10,10Z" fill="#5b2c80"/>
      <path id="路径_1737" data-name="路径 1737" d="M670.8,194.5a8.024,8.024,0,0,1,8,8V236a8.024,8.024,0,0,1-8,8H231.5a8.024,8.024,0,0,1-8-8V202.5a8.024,8.024,0,0,1,8-8H670.8m0-4H231.5a12.035,12.035,0,0,0-12,12V236a12.035,12.035,0,0,0,12,12H670.9a12.035,12.035,0,0,0,12-12V202.5a12.187,12.187,0,0,0-12.1-12Z" fill="#fff"/>
    </g>
    <g id="组_924" data-name="组 924">
      <path id="路径_1738" data-name="路径 1738" d="M233.5,230.4a.46.46,0,0,1-.5-.6l7.5-21.9a.634.634,0,0,1,.6-.5H246a.634.634,0,0,1,.6.5l7.5,21.9c.2.4,0,.6-.5.6h-4.3a.752.752,0,0,1-.7-.5l-1.2-3.9h-7.8l-1.2,3.9a.738.738,0,0,1-.6.5Zm7.5-8.9h5.2c-.9-2.8-1.9-6.3-2.5-8.5h-.1C242.8,215.2,241.8,218.7,241,221.5Z" fill="#fff"/>
      <path id="路径_1739" data-name="路径 1739" d="M257.2,230.4a.53.53,0,0,1-.6-.6V208a.53.53,0,0,1,.6-.6h7.9c5.2,0,9.1,2.3,9.1,9v5.1c0,6.7-4,8.9-9.1,8.9Zm4.6-4.8h3.4c2.5,0,3.7-1.2,3.7-3.8v-5.6c0-2.7-1.3-3.9-3.7-3.9h-3.4Z" fill="#fff"/>
      <path id="路径_1740" data-name="路径 1740" d="M278.9,230.4a.53.53,0,0,1-.6-.6V208a.53.53,0,0,1,.6-.6h7.9c5.2,0,9.1,2.3,9.1,9v5.1c0,6.7-4,8.9-9.1,8.9Zm4.6-4.8h3.4c2.5,0,3.7-1.2,3.7-3.8v-5.6c0-2.7-1.3-3.9-3.7-3.9h-3.4Z" fill="#fff"/>
      <path id="路径_1741" data-name="路径 1741" d="M307.2,230.4a.53.53,0,0,1-.6-.6V208a.53.53,0,0,1,.6-.6h4.3a.548.548,0,0,1,.6.4l4.3,7.7c1.4,2.6,2.7,5.3,3.4,6.9h.1c-.2-2.9-.4-5.9-.4-8.6V208a.53.53,0,0,1,.6-.6h4c.4,0,.5.2.5.6v21.9c0,.4-.2.6-.5.6h-4.3a.755.755,0,0,1-.7-.4l-4.2-7a64.046,64.046,0,0,1-3.7-7.5h-.1c.3,2.9.5,6.3.5,9.2v5.1c0,.4-.2.6-.5.6h-3.9Z" fill="#fff"/>
      <path id="路径_1742" data-name="路径 1742" d="M334.7,225.7h9.6c.4,0,.6.2.6.5v3.5a.53.53,0,0,1-.6.6H330.1a.53.53,0,0,1-.6-.6V208a.53.53,0,0,1,.6-.6h13.7a.53.53,0,0,1,.6.6v3.5c0,.4-.2.5-.6.5h-9v4.4h8c.4,0,.6.2.6.5v3.5c0,.4-.2.5-.6.5h-8v4.8Z" fill="#fff"/>
      <path id="路径_1743" data-name="路径 1743" d="M353.1,230.4a.634.634,0,0,1-.6-.5L346.4,208c-.1-.4.1-.6.5-.6h4.3c.4,0,.5.2.6.5l1.8,7.3c.5,2.2,1.4,6.4,1.8,9.1h.1c.5-2.8,1.4-6.6,2.1-9.3l1.9-6.9a.634.634,0,0,1,.6-.5h4.3c.4,0,.5.2.6.5l1.9,6.9c.7,2.6,1.5,6.5,2,9.3h.1c.5-2.7,1.3-7,1.8-9.1l1.7-7.3c.1-.4.3-.5.6-.5h4.3a.46.46,0,0,1,.5.6l-6.1,21.9a.634.634,0,0,1-.6.5h-4.6a.634.634,0,0,1-.6-.5l-2.1-7.4a76.712,76.712,0,0,1-1.7-8.3h-.1a72.119,72.119,0,0,1-1.7,8.3l-2.1,7.4a.634.634,0,0,1-.6.5Z" fill="#fff"/>
      <path id="路径_1744" data-name="路径 1744" d="M395.7,207.4c5.1,0,8.2,3.2,8.2,8.1,0,5-3.2,8.2-8.2,8.2h-3.9v6.1c0,.4-.2.6-.5.6h-4.1c-.4,0-.5-.2-.5-.6V208c0-.4.2-.6.5-.6Zm-.7,11.5c2.4,0,3.6-1.1,3.6-3.4s-1.2-3.4-3.6-3.4h-3.2v6.8H395Z" fill="#fff"/>
      <path id="路径_1745" data-name="路径 1745" d="M404.2,230.4a.46.46,0,0,1-.5-.6l7.5-21.9a.634.634,0,0,1,.6-.5h4.9a.634.634,0,0,1,.6.5l7.5,21.9c.2.4,0,.6-.5.6H420a.752.752,0,0,1-.7-.5l-1.2-3.9h-7.8l-1.2,3.9a.738.738,0,0,1-.6.5Zm7.5-8.9h5.2c-.9-2.8-1.9-6.3-2.5-8.5h-.1C413.6,215.2,412.6,218.7,411.7,221.5Z" fill="#fff"/>
      <path id="路径_1746" data-name="路径 1746" d="M430.9,230.4c-.4,0-.5-.2-.5-.6v-7.6l-7.1-14.1c-.2-.4,0-.7.4-.7h4.5a.634.634,0,0,1,.6.5l4.2,9.4,4.2-9.4a.634.634,0,0,1,.6-.5h4.5c.4,0,.6.3.4.7l-7.1,14.2v7.6c0,.4-.2.6-.5.6h-4.2Z" fill="#fff"/>
      <path id="路径_1747" data-name="路径 1747" d="M445.8,230.4a.53.53,0,0,1-.6-.6V208a.53.53,0,0,1,.6-.6h4.6a.548.548,0,0,1,.6.4l2.9,5.6c1,1.9,2.4,5.1,2.9,6.3h.1c.5-1.3,1.9-4.4,2.9-6.3l2.9-5.6a.548.548,0,0,1,.6-.4h4.6c.4,0,.5.2.5.6v21.9c0,.4-.2.6-.5.6h-4a.53.53,0,0,1-.6-.6v-4.2c0-2.9.1-6.9.3-10.3h-.1c-.6,1.5-1.9,4.3-2.9,6.5l-1.6,3.2a.723.723,0,0,1-.6.4h-3.1a.548.548,0,0,1-.6-.4l-1.6-3.2c-1-2.1-2.3-5-2.9-6.5h-.1c.2,3.4.3,7.4.3,10.3v4.2a.53.53,0,0,1-.6.6h-4Z" fill="#fff"/>
      <path id="路径_1748" data-name="路径 1748" d="M478.4,225.7H488c.4,0,.6.2.6.5v3.5a.53.53,0,0,1-.6.6H473.8a.53.53,0,0,1-.6-.6V208a.53.53,0,0,1,.6-.6h13.7a.53.53,0,0,1,.6.6v3.5c0,.4-.2.5-.6.5h-9v4.4h8c.4,0,.6.2.6.5v3.5c0,.4-.2.5-.6.5h-8v4.8Z" fill="#fff"/>
      <path id="路径_1749" data-name="路径 1749" d="M492.9,230.4a.53.53,0,0,1-.6-.6V208a.53.53,0,0,1,.6-.6h4.3a.548.548,0,0,1,.6.4l4.3,7.7c1.4,2.6,2.7,5.3,3.4,6.9h.1c-.2-2.9-.4-5.9-.4-8.6V208a.53.53,0,0,1,.6-.6h4c.4,0,.5.2.5.6v21.9c0,.4-.2.6-.5.6h-4.3a.755.755,0,0,1-.7-.4l-4.2-7a64.046,64.046,0,0,1-3.7-7.5h-.1c.3,2.9.5,6.3.5,9.2v5.1c0,.4-.2.6-.5.6h-3.9Z" fill="#fff"/>
      <path id="路径_1750" data-name="路径 1750" d="M530.7,207.4c.4,0,.5.2.5.6v3.7c0,.4-.2.5-.5.5h-5.9v17.6c0,.4-.2.6-.5.6h-4.1c-.4,0-.5-.2-.5-.6V212.2h-5.9c-.4,0-.6-.2-.6-.5V208a.53.53,0,0,1,.6-.6Z" fill="#fff"/>
      <path id="路径_1751" data-name="路径 1751" d="M540.3,230.4a.53.53,0,0,1-.6-.6V208a.53.53,0,0,1,.6-.6h4.6a.548.548,0,0,1,.6.4l2.9,5.6c1,1.9,2.4,5.1,2.9,6.3h.1c.5-1.3,1.9-4.4,2.9-6.3l2.9-5.6a.548.548,0,0,1,.6-.4h4.6c.4,0,.5.2.5.6v21.9c0,.4-.2.6-.5.6h-4a.53.53,0,0,1-.6-.6v-4.2c0-2.9.1-6.9.3-10.3H558c-.6,1.5-1.9,4.3-2.9,6.5l-1.6,3.2a.723.723,0,0,1-.6.4h-3.1a.548.548,0,0,1-.6-.4l-1.6-3.2c-1-2.1-2.3-5-2.9-6.5h-.1c.2,3.4.3,7.4.3,10.3v4.2a.53.53,0,0,1-.6.6h-4Z" fill="#fff"/>
      <path id="路径_1752" data-name="路径 1752" d="M573,225.7h9.6c.4,0,.6.2.6.5v3.5a.53.53,0,0,1-.6.6H568.4a.53.53,0,0,1-.6-.6V208a.53.53,0,0,1,.6-.6H582a.53.53,0,0,1,.6.6v3.5c0,.4-.2.5-.6.5h-9v4.4h8c.4,0,.6.2.6.5v3.5c0,.4-.2.5-.6.5h-8Z" fill="#fff"/>
      <path id="路径_1753" data-name="路径 1753" d="M602.4,207.4c.4,0,.5.2.5.6v3.7c0,.4-.2.5-.5.5h-5.9v17.6c0,.4-.2.6-.5.6h-4.1c-.4,0-.5-.2-.5-.6V212.2h-5.9c-.4,0-.6-.2-.6-.5V208a.53.53,0,0,1,.6-.6Z" fill="#fff"/>
      <path id="路径_1754" data-name="路径 1754" d="M618.2,208a.53.53,0,0,1,.6-.6h4a.53.53,0,0,1,.6.6v21.9a.53.53,0,0,1-.6.6h-4a.53.53,0,0,1-.6-.6v-8.6H611v8.6a.53.53,0,0,1-.6.6h-4a.53.53,0,0,1-.6-.6V208a.53.53,0,0,1,.6-.6h4a.53.53,0,0,1,.6.6v8.4h7.2Z" fill="#fff"/>
      <path id="路径_1755" data-name="路径 1755" d="M636.7,230.8c-5.9,0-9.4-3.4-9.4-9.1v-5.6c0-5.7,3.5-9.1,9.4-9.1s9.4,3.4,9.4,9.1v5.6C646.1,227.4,642.7,230.8,636.7,230.8Zm0-4.9c2.7,0,4.1-1.5,4.1-4.3v-5.4c0-2.8-1.4-4.3-4.1-4.3s-4.1,1.5-4.1,4.3v5.4C632.6,224.4,634,225.9,636.7,225.9Z" fill="#fff"/>
      <path id="路径_1756" data-name="路径 1756" d="M650.7,230.4a.53.53,0,0,1-.6-.6V208a.53.53,0,0,1,.6-.6h7.9c5.2,0,9.1,2.3,9.1,9v5.1c0,6.7-4,8.9-9.1,8.9Zm4.7-4.8h3.4c2.5,0,3.7-1.2,3.7-3.8v-5.6c0-2.7-1.3-3.9-3.7-3.9h-3.4Z" fill="#fff"/>
    </g>
  </g>
</svg>
