<svg xmlns="http://www.w3.org/2000/svg" xmlns:xlink="http://www.w3.org/1999/xlink" width="82.527" height="87.781" viewBox="0 0 82.527 87.781">
  <defs>
    <linearGradient id="linear-gradient" x1="0.288" y1="-2.043" x2="0.536" y2="0.928" gradientUnits="objectBoundingBox">
      <stop offset="0" stop-color="#ff0a6c"/>
      <stop offset="1" stop-color="#2d27ff"/>
    </linearGradient>
  </defs>
  <g id="组_1200" data-name="组 1200" transform="translate(-428.611 -541.112)">
    <rect id="矩形_559" data-name="矩形 559" width="82.528" height="82.528" rx="16.363" transform="translate(428.612 546.365)" fill="#c8d1ff"/>
    <g id="组_1198" data-name="组 1198">
      <rect id="矩形_560" data-name="矩形 560" width="82.528" height="82.528" rx="16.363" transform="translate(428.612 541.112)" fill="url(#linear-gradient)"/>
      <rect id="矩形_561" data-name="矩形 561" width="66.022" height="66.022" rx="13.091" transform="translate(436.864 549.365)" fill="#fff"/>
    </g>
    <g id="组_1199" data-name="组 1199">
      <path id="路径_2027" data-name="路径 2027" d="M492.933,554.45a5.778,5.778,0,0,1,2.637,1.252,4.81,4.81,0,0,1,1.661,3.607c.025,2.961.015,5.923.006,8.884a1.72,1.72,0,1,1-3.438,0c-.01-2.818,0-5.636-.005-8.454,0-1.281-.554-1.839-1.828-1.839q-4.013,0-8.023,0c-1.257,0-1.941-.422-2.166-1.337-.21-.855.191-1.533,1.248-2.109Z"/>
      <path id="路径_2028" data-name="路径 2028" d="M442.1,595.374c.576-1.057,1.252-1.458,2.107-1.249.916.223,1.34.906,1.34,2.16q0,4.008,0,8.014c0,1.284.553,1.843,1.822,1.844,2.815,0,5.63,0,8.445,0a1.719,1.719,0,0,1,.435,3.4,2.975,2.975,0,0,1-.641.043q-4.142,0-8.283,0a4.939,4.939,0,0,1-5.135-4.061,2.2,2.2,0,0,0-.09-.246Z"/>
      <path id="路径_2029" data-name="路径 2029" d="M456.317,554.45c1.055.576,1.457,1.257,1.247,2.11-.227.918-.9,1.336-2.164,1.336q-4.036,0-8.072,0a1.56,1.56,0,0,0-1.78,1.779c0,2.834,0,5.668,0,8.5a1.731,1.731,0,0,1-1.384,1.747,1.754,1.754,0,0,1-1.93-1.035c-.038-.078-.086-.15-.129-.225v-9.908c.041-.152.084-.3.122-.454A4.9,4.9,0,0,1,445,554.911a11.665,11.665,0,0,1,1.413-.461Z"/>
      <path id="路径_2030" data-name="路径 2030" d="M458.426,580.3c-1.453,0-2.906.006-4.359,0A4.95,4.95,0,0,1,449,575.226q-.015-4.412,0-8.824a4.943,4.943,0,0,1,5.081-5.057q4.386-.015,8.771,0a4.946,4.946,0,0,1,5.1,5.094q.013,4.386,0,8.771a4.951,4.951,0,0,1-5.108,5.087C461.367,580.3,459.9,580.3,458.426,580.3Zm.044-15.508c-1.434,0-2.869,0-4.3,0a1.54,1.54,0,0,0-1.725,1.725q0,4.3,0,8.609a1.539,1.539,0,0,0,1.725,1.725q4.305.006,8.61,0a1.539,1.539,0,0,0,1.724-1.725q.006-4.3,0-8.61a1.54,1.54,0,0,0-1.726-1.724C461.34,564.785,459.9,564.789,458.47,564.789Z"/>
      <path id="路径_2031" data-name="路径 2031" d="M480.853,580.3c-1.452,0-2.9.005-4.358,0a4.954,4.954,0,0,1-5.1-5.1q-.012-4.386,0-8.771a4.947,4.947,0,0,1,5.108-5.085q4.359-.011,8.717,0a4.949,4.949,0,0,1,5.126,5.121q.012,4.359,0,8.717a4.953,4.953,0,0,1-5.135,5.114C483.759,580.3,482.306,580.3,480.853,580.3Zm-6.012-9.491q0,2.1,0,4.2c0,1.287.551,1.846,1.82,1.847q4.224,0,8.448,0a1.559,1.559,0,0,0,1.792-1.766q0-4.278,0-8.556a1.548,1.548,0,0,0-1.765-1.738q-4.251,0-8.5,0c-1.233,0-1.791.57-1.793,1.82Q474.838,568.707,474.841,570.806Z"/>
      <path id="路径_2032" data-name="路径 2032" d="M458.427,602.7c-1.453,0-2.906.007-4.359,0A4.95,4.95,0,0,1,449,597.628q-.015-4.413,0-8.825a4.944,4.944,0,0,1,5.08-5.058q4.386-.013,8.771,0a4.945,4.945,0,0,1,5.1,5.093q.013,4.384,0,8.771a4.95,4.95,0,0,1-5.107,5.087C461.368,602.7,459.9,602.7,458.427,602.7Zm.045-3.446c1.435,0,2.87,0,4.305,0a1.541,1.541,0,0,0,1.723-1.727q.006-4.3,0-8.609a1.54,1.54,0,0,0-1.727-1.724q-4.3,0-8.609,0a1.539,1.539,0,0,0-1.724,1.726q0,4.3,0,8.61a1.541,1.541,0,0,0,1.727,1.724C455.6,599.254,457.037,599.251,458.472,599.251Z"/>
      <path id="路径_2033" data-name="路径 2033" d="M483.456,592.359c1.359,0,2.632,0,3.9,0a2.809,2.809,0,0,1,2.987,3c0,1.471.006,2.942,0,4.413a2.8,2.8,0,0,1-2.909,2.919q-2.26.012-4.521,0a2.8,2.8,0,0,1-2.906-2.921C480,598.5,480,597.227,480,595.953a.664.664,0,0,0-.061-.148h-.554c-1.705,0-3.409.007-5.113,0a2.781,2.781,0,0,1-2.874-2.843q-.018-3.2,0-6.4a2.772,2.772,0,0,1,2.8-2.808q3.228-.023,6.458,0a2.776,2.776,0,0,1,2.8,2.81c.016,1.722,0,3.444,0,5.166Zm-3.47-5.132h-5.1v5.1h5.1Zm6.891,8.608h-3.386v3.376h3.386Z"/>
      <path id="路径_2034" data-name="路径 2034" d="M497.241,600.4c0,1.363.006,2.727,0,4.09a4.954,4.954,0,0,1-5.1,5.1q-4.251.012-8.5,0a1.73,1.73,0,1,1-.017-3.444q4.17-.006,8.34,0c1.274,0,1.832-.559,1.832-1.835q0-4.143,0-8.286a1.735,1.735,0,1,1,3.444.022Q497.245,598.224,497.241,600.4Z"/>
      <path id="路径_2035" data-name="路径 2035" d="M455.886,570.791c-.158-1.945.654-2.708,2.544-2.559.3.023.61-.005.914.005a1.72,1.72,0,0,1,1.708,1.721q.022.861,0,1.722a1.713,1.713,0,0,1-1.707,1.72c-.556.017-1.112.011-1.668,0a1.727,1.727,0,0,1-1.79-1.8C455.883,571.33,455.886,571.061,455.886,570.791Z"/>
      <path id="路径_2036" data-name="路径 2036" d="M480.872,568.235c1.959-.162,2.618.635,2.618,2.572,0,1.955-.629,2.635-2.648,2.632-1.938,0-2.713-.7-2.558-2.582.022-.268,0-.538,0-.807a1.726,1.726,0,0,1,1.832-1.815C480.37,568.232,480.621,568.235,480.872,568.235Z"/>
      <path id="路径_2037" data-name="路径 2037" d="M458.454,590.635c1.967-.159,2.637.6,2.636,2.609,0,1.94-.694,2.59-2.576,2.595-2.028.005-2.672-.656-2.662-2.671C455.861,591.31,456.477,590.474,458.454,590.635Z"/>
    </g>
  </g>
</svg>
