<svg xmlns="http://www.w3.org/2000/svg" width="300" height="300" viewBox="0 0 300 300">
  <path id="Icon_metro-qrcode" data-name="Icon metro-qrcode" d="M96.321,20.678h-75v75h75Zm18.75-18.75v112.5H2.571V1.928Zm-75,37.5h37.5v37.5h-37.5Zm243.75-18.75h-75v75h75Zm18.75-18.75v112.5h-112.5V1.928h112.5Zm-75,37.5h37.5v37.5h-37.5ZM96.321,208.178h-75v75h75Zm18.75-18.75v112.5H2.571v-112.5Zm-75,37.5h37.5v37.5h-37.5Zm93.75-225h18.75v18.75h-18.75Zm18.75,18.75h18.75v18.75h-18.75Zm-18.75,18.75h18.75v18.75h-18.75Zm18.75,18.75h18.75v18.75h-18.75Zm-18.75,18.75h18.75v18.75h-18.75Zm18.75,18.75h18.75v18.75h-18.75Zm-18.75,18.75h18.75v18.75h-18.75Zm0,37.5h18.75v18.75h-18.75Zm18.75,18.75h18.75v18.75h-18.75Zm-18.75,18.75h18.75v18.75h-18.75Zm18.75,18.75h18.75v18.75h-18.75Zm-18.75,18.75h18.75v18.75h-18.75Zm18.75,18.75h18.75v18.75h-18.75Zm-18.75,18.75h18.75v18.75h-18.75Zm18.75,18.75h18.75v18.75h-18.75Zm131.25-131.25h18.75v18.75h-18.75Zm-262.5,0h18.75v18.75H21.321Zm18.75-18.75h18.75v18.75H40.071Zm-37.5,0h18.75v18.75H2.571Zm75,0h18.75v18.75H77.571Zm18.75,18.75h18.75v18.75H96.321Zm18.75-18.75h18.75v18.75h-18.75Zm56.25,18.75h18.75v18.75h-18.75Zm18.75-18.75h18.75v18.75h-18.75Zm18.75,18.75h18.75v18.75h-18.75Zm18.75-18.75h18.75v18.75h-18.75Zm18.75,18.75h18.75v18.75h-18.75Zm18.75-18.75h18.75v18.75h-18.75Zm18.75,56.25h18.75v18.75h-18.75Zm-112.5,0h18.75v18.75h-18.75Zm18.75-18.75h18.75v18.75h-18.75Zm18.75,18.75h18.75v18.75h-18.75Zm37.5,0h18.75v18.75h-18.75Zm18.75-18.75h18.75v18.75h-18.75Zm18.75,56.25h18.75v18.75h-18.75Zm-112.5,0h18.75v18.75h-18.75Zm18.75-18.75h18.75v18.75h-18.75Zm37.5,0h18.75v18.75h-18.75Zm18.75,18.75h18.75v18.75h-18.75Zm18.75-18.75h18.75v18.75h-18.75Zm18.75,56.25h18.75v18.75h-18.75Zm-93.75-18.75h18.75v18.75h-18.75Zm18.75,18.75h18.75v18.75h-18.75Zm18.75-18.75h18.75v18.75h-18.75Zm18.75,18.75h18.75v18.75h-18.75Zm-56.25,18.75h18.75v18.75h-18.75Zm37.5,0h18.75v18.75h-18.75Zm37.5,0h18.75v18.75h-18.75Z" transform="translate(-2.571 -1.928)"/>
</svg>
