<svg xmlns="http://www.w3.org/2000/svg" xmlns:xlink="http://www.w3.org/1999/xlink" width="64.6" height="93.425" viewBox="0 0 64.6 93.425">
  <defs>
    <clipPath id="clip-path">
      <path id="路径_1132" data-name="路径 1132" d="M77.5,63.4v-19a12.8,12.8,0,0,0-6.3-11L54.7,23.9a12.55,12.55,0,0,0-12.7,0L25.5,33.4a12.68,12.68,0,0,0-6.3,11v19a12.8,12.8,0,0,0,6.3,11L42,83.9a12.55,12.55,0,0,0,12.7,0l16.5-9.5A12.8,12.8,0,0,0,77.5,63.4Z" transform="translate(-17.7 -35)"/>
    </clipPath>
    <clipPath id="clip-path-2">
      <path id="路径_1137" data-name="路径 1137" d="M48.3,24.6a6.2,6.2,0,0,1,3.2.9L71.3,37a6.224,6.224,0,0,1,3.2,5.5V65.4a6.224,6.224,0,0,1-3.2,5.5L51.5,82.3a6.139,6.139,0,0,1-6.4,0L25.3,70.8a6.224,6.224,0,0,1-3.2-5.5V42.4a6.224,6.224,0,0,1,3.2-5.5L45.1,25.4a7.216,7.216,0,0,1,3.2-.8"/>
    </clipPath>
    <clipPath id="clip-path-7">
      <path id="路径_1146" data-name="路径 1146" d="M48.3,24.6a6.2,6.2,0,0,1,3.2.9L71.3,37a6.224,6.224,0,0,1,3.2,5.5V65.4a6.224,6.224,0,0,1-3.2,5.5L51.5,82.3a6.139,6.139,0,0,1-6.4,0L25.3,70.8a6.224,6.224,0,0,1-3.2-5.5V42.4a6.224,6.224,0,0,1,3.2-5.5L45.1,25.4a7.216,7.216,0,0,1,3.2-.8" transform="translate(-23.4 -48.6)"/>
    </clipPath>
    <clipPath id="clip-path-8">
      <path id="路径_1147" data-name="路径 1147" d="M48.3,24.6a6.2,6.2,0,0,1,3.2.9L71.3,37a6.224,6.224,0,0,1,3.2,5.5V65.4a6.224,6.224,0,0,1-3.2,5.5L51.5,82.3a6.139,6.139,0,0,1-6.4,0L25.3,70.8a6.224,6.224,0,0,1-3.2-5.5V42.4a6.224,6.224,0,0,1,3.2-5.5L45.1,25.4a7.216,7.216,0,0,1,3.2-.8" transform="translate(-59.3 -34.9)"/>
    </clipPath>
  </defs>
  <g id="download" transform="translate(-16 -22.175)">
    <path id="路径_1131" data-name="路径 1131" d="M77.5,67.3v-19a12.8,12.8,0,0,0-6.3-11L54.7,27.8a12.55,12.55,0,0,0-12.7,0L25.5,37.3a12.68,12.68,0,0,0-6.3,11v19a12.8,12.8,0,0,0,6.3,11L42,87.8a12.55,12.55,0,0,0,12.7,0l16.5-9.5A12.8,12.8,0,0,0,77.5,67.3Z" fill="#5a5858"/>
    <g id="组_554" data-name="组 554">
      <g id="组_553" data-name="组 553" transform="translate(17.7 35)" clip-path="url(#clip-path)">
        <circle id="椭圆_176" data-name="椭圆 176" cx="44.4" cy="44.4" r="44.4" fill="#e7e6e6"/>
      </g>
    </g>
    <path id="路径_1133" data-name="路径 1133" d="M77.5,63.4v-19a12.8,12.8,0,0,0-6.3-11L54.7,23.9a12.55,12.55,0,0,0-12.7,0L25.5,33.4a12.68,12.68,0,0,0-6.3,11v19a12.8,12.8,0,0,0,6.3,11L42,83.9a12.55,12.55,0,0,0,12.7,0l16.5-9.5A12.8,12.8,0,0,0,77.5,63.4Z" fill="#f8f9f9"/>
    <path id="路径_1134" data-name="路径 1134" d="M48.3,24.6a6.2,6.2,0,0,1,3.2.9L71.3,37a6.224,6.224,0,0,1,3.2,5.5V65.4a6.224,6.224,0,0,1-3.2,5.5L51.5,82.3a6.139,6.139,0,0,1-6.4,0L25.3,70.8a6.224,6.224,0,0,1-3.2-5.5V42.4a6.224,6.224,0,0,1,3.2-5.5L45.1,25.4a7.216,7.216,0,0,1,3.2-.8" fill="#5b2c81"/>
    <path id="路径_1135" data-name="路径 1135" d="M53,42.4Z" fill="#5c6bb0"/>
    <g id="组_562" data-name="组 562">
      <g id="组_555" data-name="组 555" clip-path="url(#clip-path-2)">
        <path id="路径_1136" data-name="路径 1136" d="M33.1,68.3H7.7a3.009,3.009,0,0,1-3-3h0a3.009,3.009,0,0,1,3-3H33.2a3.009,3.009,0,0,1,3,3h0A3.1,3.1,0,0,1,33.1,68.3Z" fill="#3b2256"/>
      </g>
      <g id="组_556" data-name="组 556" clip-path="url(#clip-path-2)">
        <path id="路径_1138" data-name="路径 1138" d="M84.7,56.8H69.5a3.009,3.009,0,0,1-3-3h0a3.009,3.009,0,0,1,3-3H84.7a3.009,3.009,0,0,1,3,3h0A3.009,3.009,0,0,1,84.7,56.8Z" fill="#3b2256"/>
      </g>
      <g id="组_557" data-name="组 557" clip-path="url(#clip-path-2)">
        <path id="路径_1140" data-name="路径 1140" d="M42.5,34.4H30.6a3.009,3.009,0,0,1-3-3h0a3.009,3.009,0,0,1,3-3H42.5a3.009,3.009,0,0,1,3,3h0A2.946,2.946,0,0,1,42.5,34.4Z" fill="#3b2256"/>
      </g>
      <g id="组_558" data-name="组 558" clip-path="url(#clip-path-2)">
        <path id="路径_1142" data-name="路径 1142" d="M74.5,72.5H51.7a3.009,3.009,0,0,1-3-3h0a3.009,3.009,0,0,1,3-3H74.5a3.009,3.009,0,0,1,3,3h0A3.009,3.009,0,0,1,74.5,72.5Z" fill="#3b2256"/>
      </g>
      <g id="组_559" data-name="组 559" clip-path="url(#clip-path-2)">
        <path id="路径_1144" data-name="路径 1144" d="M45.8,82.4H23.1a3.009,3.009,0,0,1-3-3h0a3.009,3.009,0,0,1,3-3H45.9a3.009,3.009,0,0,1,3,3h0A3.1,3.1,0,0,1,45.8,82.4Z" fill="#3b2256"/>
      </g>
      <g id="组_560" data-name="组 560" transform="translate(23.4 48.6)" clip-path="url(#clip-path-7)">
        <circle id="椭圆_177" data-name="椭圆 177" cx="2.8" cy="2.8" r="2.8" fill="#3b2256"/>
      </g>
      <g id="组_561" data-name="组 561" transform="translate(59.3 34.9)" clip-path="url(#clip-path-8)">
        <circle id="椭圆_178" data-name="椭圆 178" cx="3.2" cy="3.2" r="3.2" fill="#3b2256"/>
      </g>
    </g>
    <g id="组_563" data-name="组 563">
      <path id="路径_1148" data-name="路径 1148" d="M16,88.4a21.578,21.578,0,0,1,2.8-.2,6.046,6.046,0,0,1,3.9,1.1,5.043,5.043,0,0,1,1.6,4.1,5.67,5.67,0,0,1-1.6,4.4,6.427,6.427,0,0,1-4.4,1.3c-1,0-1.8-.1-2.3-.1V88.4Zm2,9h.8c2,0,3.3-1.2,3.3-4,0-2.4-1.2-3.6-3.1-3.6a2.787,2.787,0,0,0-1,.1v7.5Z" fill="#fff"/>
      <path id="路径_1149" data-name="路径 1149" d="M32.5,95c0,3-1.9,4.1-3.6,4.1-2.1,0-3.6-1.5-3.6-4,0-2.6,1.6-4.1,3.7-4.1C31.2,91,32.5,92.7,32.5,95Zm-3.6-2.5c-1.1,0-1.6,1.3-1.6,2.5,0,1.4.5,2.5,1.5,2.5s1.5-1.2,1.5-2.5C30.4,93.9,30,92.5,28.9,92.5Z" fill="#fff"/>
      <path id="路径_1150" data-name="路径 1150" d="M44.2,91.2,41.9,99H40l-.8-3a15.766,15.766,0,0,1-.5-2.5h0a18.425,18.425,0,0,1-.5,2.5l-.9,3H35.4l-2.2-7.8h2.1l.7,3.4a21.657,21.657,0,0,1,.4,2.5h0c.1-.8.4-1.7.5-2.5l.9-3.4h1.6l.8,3.3a23.812,23.812,0,0,1,.5,2.6h0c.1-.8.3-1.7.4-2.6l.7-3.3Z" fill="#fff"/>
      <path id="路径_1151" data-name="路径 1151" d="M51.9,99H49.8V94.4c0-1-.3-1.7-1.2-1.7-.6,0-1.3.4-1.3,1.6V99H45.2V93.6a15.52,15.52,0,0,0-.1-2.3H47l.1,1.1h0a2.622,2.622,0,0,1,2.3-1.2c1.4,0,2.5,1,2.5,3.2V99Z" fill="#fff"/>
      <path id="路径_1152" data-name="路径 1152" d="M55.9,99H53.8V87.7h2.1Z" fill="#fff"/>
      <path id="路径_1153" data-name="路径 1153" d="M64.5,95c0,3-1.9,4.1-3.6,4.1-2.1,0-3.6-1.5-3.6-4,0-2.6,1.6-4.1,3.7-4.1S64.5,92.7,64.5,95Zm-3.6-2.5c-1.1,0-1.6,1.3-1.6,2.5,0,1.4.5,2.5,1.5,2.5s1.5-1.2,1.5-2.5C62.4,93.9,62,92.5,60.9,92.5Z" fill="#fff"/>
      <path id="路径_1154" data-name="路径 1154" d="M71.8,97.1a9.184,9.184,0,0,0,.1,1.8H70v-.7h0a2.517,2.517,0,0,1-2.1,1,2.262,2.262,0,0,1-2.3-2.3c0-2,1.8-2.9,4.3-2.9,0-.8-.3-1.4-1.4-1.4a3.83,3.83,0,0,0-1.9.5l-.4-1.3a5.51,5.51,0,0,1,2.7-.7c2.4,0,3.1,1.5,3.1,3.2v2.8Zm-2-1.9c-1.1,0-2.3.3-2.3,1.4a1.029,1.029,0,0,0,1,1.1,1.246,1.246,0,0,0,1.3-1.3Z" fill="#fff"/>
      <path id="路径_1155" data-name="路径 1155" d="M80.4,96.8a14.119,14.119,0,0,0,.1,2.2H78.7l-.1-1.1h0a2.374,2.374,0,0,1-2.2,1.3c-1.8,0-3-1.6-3-4,0-2.7,1.5-4.1,3.2-4.1a2.187,2.187,0,0,1,1.9.9h0V87.8h2.1v9Zm-2.1-2.4a1.519,1.519,0,0,0-1.4-1.7c-1.1,0-1.6,1.1-1.6,2.5s.6,2.4,1.6,2.4c.6,0,1.4-.4,1.4-1.7Z" fill="#fff"/>
      <path id="路径_1156" data-name="路径 1156" d="M21.2,115.6H19.8L23.5,104h1.4Z" fill="#fff"/>
      <path id="路径_1157" data-name="路径 1157" d="M25.9,104.4a19.1,19.1,0,0,1,2.8-.2,4.589,4.589,0,0,1,3.1.9,3.148,3.148,0,0,1,1,2.4c0,3-2.5,3.6-4.1,3.6a2.2,2.2,0,0,1-.8-.1v4H25.8V104.4Zm2,4.9c.2,0,.4.1.7.1a1.767,1.767,0,0,0,2-1.9,1.71,1.71,0,0,0-1.9-1.8,2.22,2.22,0,0,0-.9.1v3.5Z" fill="#fff"/>
      <path id="路径_1158" data-name="路径 1158" d="M38.4,109h-.5c-.9,0-1.7.6-1.7,2v4H34.1v-5.4a16.987,16.987,0,0,0-.1-2.4h1.8l.1,1.4H36a2.17,2.17,0,0,1,1.9-1.5h.5Z" fill="#fff"/>
      <path id="路径_1159" data-name="路径 1159" d="M45.4,113.1a9.184,9.184,0,0,0,.1,1.8H43.6l-.1-.8h0a2.517,2.517,0,0,1-2.1,1,2.262,2.262,0,0,1-2.3-2.3c0-2,1.8-2.9,4.3-2.9,0-.8-.3-1.4-1.4-1.4a3.83,3.83,0,0,0-1.9.5l-.4-1.3a5.51,5.51,0,0,1,2.7-.7c2.4,0,3.1,1.5,3.1,3.2v2.9Zm-2-1.9c-1.1,0-2.3.3-2.3,1.4a1.029,1.029,0,0,0,1,1.1,1.246,1.246,0,0,0,1.3-1.3Z" fill="#fff"/>
      <path id="路径_1160" data-name="路径 1160" d="M52.5,114.8a4.7,4.7,0,0,1-1.9.3c-2.3,0-3.8-1.5-3.8-4a3.882,3.882,0,0,1,4.1-4.1,5.017,5.017,0,0,1,1.6.3l-.3,1.6a2.959,2.959,0,0,0-1.2-.3,2.421,2.421,0,0,0,0,4.8,2.768,2.768,0,0,0,1.3-.3Z" fill="#fff"/>
      <path id="路径_1161" data-name="路径 1161" d="M54.1,105.8l2-.6v2h1.7v1.5H56.1v3.4c0,.9.3,1.3.9,1.3a1.483,1.483,0,0,0,.7-.1v1.6a4.636,4.636,0,0,1-1.4.2c-2.2,0-2.3-1.9-2.3-2.8v-3.6H53v-1.5h1v-1.4Z" fill="#fff"/>
      <path id="路径_1162" data-name="路径 1162" d="M60.2,106.2a1.049,1.049,0,0,1-1.1-1.1,1.11,1.11,0,0,1,1.1-1.1,1.1,1.1,0,1,1,0,2.2Zm1.1,8.8H59.2v-7.8h2.1Z" fill="#fff"/>
      <path id="路径_1163" data-name="路径 1163" d="M68.4,114.8a4.386,4.386,0,0,1-1.9.3c-2.3,0-3.8-1.5-3.8-4a3.882,3.882,0,0,1,4.1-4.1,5.017,5.017,0,0,1,1.6.3l-.3,1.6a2.959,2.959,0,0,0-1.2-.3,2.421,2.421,0,0,0,0,4.8,2.768,2.768,0,0,0,1.3-.3Z" fill="#fff"/>
      <path id="路径_1164" data-name="路径 1164" d="M75.6,114.7a6.249,6.249,0,0,1-2.5.4,3.548,3.548,0,0,1-3.8-3.9c0-2.2,1.3-4.2,3.6-4.2,1.9,0,3.1,1.3,3.1,3.9a1.95,1.95,0,0,1-.1.8H71.2a1.94,1.94,0,0,0,2.1,1.9,5.04,5.04,0,0,0,1.9-.3ZM74,110.3c0-.8-.3-1.8-1.3-1.8s-1.4,1-1.5,1.8Z" fill="#fff"/>
    </g>
    <g id="组_564" data-name="组 564">
      <path id="路径_1165" data-name="路径 1165" d="M34.6,62.8a3.805,3.805,0,0,1,.8-1.7,3.646,3.646,0,0,1,2.9-1.5h5.3a.52.52,0,0,1,.4.2c.6,1.3,1.3,2.6,1.9,3.9a1.416,1.416,0,0,0,1.4.9h6.5a1.416,1.416,0,0,0,1.4-.9c.6-1.3,1.3-2.6,1.9-3.9.1-.2.2-.3.4-.3h5.2a3.846,3.846,0,0,1,3.8,3.7v4.9a3.691,3.691,0,0,1-3.7,3.7H38.4a3.847,3.847,0,0,1-3.7-3c0-.1,0-.1-.1-.2C34.6,66.8,34.6,64.8,34.6,62.8Zm15.9,6.8H62.6a1.208,1.208,0,0,0,1.3-1.3V63.5a1.208,1.208,0,0,0-1.3-1.3H59a.52.52,0,0,0-.4.2c-.4.9-.9,1.7-1.3,2.6a3.65,3.65,0,0,1-3.5,2.1H47.1a3.585,3.585,0,0,1-3.5-2.2c-.4-.9-.9-1.7-1.3-2.6-.1-.2-.2-.2-.4-.2H38.3a1.265,1.265,0,0,0-1.4,1.4v4.6c0,1,.5,1.4,1.5,1.4C42.5,69.6,46.5,69.6,50.5,69.6Z" fill="#3b2256" stroke="#3b2256" stroke-miterlimit="10" stroke-width="2"/>
      <path id="路径_1166" data-name="路径 1166" d="M54.2,40.2v9.4h3.6c-2.4,3.7-4.9,7.3-7.3,11-2.4-3.7-4.8-7.3-7.3-10.9h3.6V40.2Zm-6.3,12c.9,1.4,1.8,2.6,2.7,4,.9-1.3,1.8-2.6,2.7-4H51.9V42.8H49.4v9.4Z" fill="#3b2256" stroke="#3b2256" stroke-miterlimit="10" stroke-width="2"/>
    </g>
    <g id="组_565" data-name="组 565">
      <path id="路径_1167" data-name="路径 1167" d="M32.6,60.8a3.805,3.805,0,0,1,.8-1.7,3.646,3.646,0,0,1,2.9-1.5h5.3a.52.52,0,0,1,.4.2c.6,1.3,1.3,2.6,1.9,3.9a1.416,1.416,0,0,0,1.4.9h6.5a1.416,1.416,0,0,0,1.4-.9c.6-1.3,1.3-2.6,1.9-3.9.1-.2.2-.3.4-.3h5.2a3.846,3.846,0,0,1,3.8,3.7v4.9a3.691,3.691,0,0,1-3.7,3.7H36.4a3.847,3.847,0,0,1-3.7-3c0-.1,0-.1-.1-.2C32.6,64.8,32.6,62.8,32.6,60.8Zm15.9,6.8H60.6a1.208,1.208,0,0,0,1.3-1.3V61.5a1.208,1.208,0,0,0-1.3-1.3H57a.52.52,0,0,0-.4.2c-.4.9-.9,1.7-1.3,2.6a3.65,3.65,0,0,1-3.5,2.1H45.1a3.585,3.585,0,0,1-3.5-2.2c-.4-.9-.9-1.7-1.3-2.6-.1-.2-.2-.2-.4-.2H36.3a1.265,1.265,0,0,0-1.4,1.4v4.6c0,1,.5,1.4,1.5,1.4C40.5,67.6,44.5,67.6,48.5,67.6Z" fill="#fff"/>
      <path id="路径_1168" data-name="路径 1168" d="M52.2,38.2v9.4h3.6c-2.4,3.7-4.9,7.3-7.3,11-2.4-3.7-4.8-7.3-7.3-10.9h3.6V38.2Zm-6.3,12c.9,1.4,1.8,2.6,2.7,4,.9-1.3,1.8-2.6,2.7-4H49.9V40.8H47.4v9.4Z" fill="#fff"/>
    </g>
  </g>
</svg>
