<svg xmlns="http://www.w3.org/2000/svg" width="46.04" height="46.04" viewBox="0 0 46.04 46.04">
  <g id="all_tutorial_teach_icon" transform="translate(-41.55 -39.4)">
    <path id="路径_256" data-name="路径 256" d="M83.96,39.4H45.18a3.63,3.63,0,0,0-3.63,3.63V81.81a3.63,3.63,0,0,0,3.63,3.63H83.96a3.63,3.63,0,0,0,3.63-3.63V43.03A3.623,3.623,0,0,0,83.96,39.4Z" fill="#5b2c81" opacity="0.9"/>
    <g id="组_167" data-name="组 167">
      <ellipse id="椭圆_76" data-name="椭圆 76" cx="4.94" cy="4.54" rx="4.94" ry="4.54" transform="translate(51.3 56.39)" fill="#fff"/>
      <path id="路径_257" data-name="路径 257" d="M59.2,66.68H57.92a6.745,6.745,0,0,1-3.34,0H53.25s-5.37.5-5.37,5.14a2.2,2.2,0,0,0,2.53,2.39H62.05a2.2,2.2,0,0,0,2.53-2.39C64.57,67.18,59.2,66.68,59.2,66.68Z" fill="#fff"/>
      <path id="路径_258" data-name="路径 258" d="M77.08,50.62H60.82a4.2,4.2,0,0,0-4.19,4.19v.17a6.683,6.683,0,0,1,2.79.79v-.95a1.4,1.4,0,0,1,1.4-1.4H77.08a1.4,1.4,0,0,1,1.4,1.4V65.53a1.4,1.4,0,0,1-1.4,1.4H74.95V63.7h-6.9v3.21H63.6a5.96,5.96,0,0,1,2.06,2.79H77.08a4.2,4.2,0,0,0,4.19-4.19V54.81A4.2,4.2,0,0,0,77.08,50.62Z" fill="#fff"/>
    </g>
  </g>
</svg>
