<svg xmlns="http://www.w3.org/2000/svg" xmlns:xlink="http://www.w3.org/1999/xlink" width="225" height="225" viewBox="0 0 225 225">
  <defs>
    <clipPath id="clip-path">
      <path id="矩形_607" data-name="矩形 607" d="M32.962,0H192.038A32.962,32.962,0,0,1,225,32.962v159A33.041,33.041,0,0,1,191.959,225h-159A32.962,32.962,0,0,1,0,192.038V32.962A32.962,32.962,0,0,1,32.962,0Z" transform="translate(-332.085 1674.932)" fill="#fff"/>
    </clipPath>
    <clipPath id="clip-path-2">
      <rect id="矩形_605" data-name="矩形 605" width="344.311" height="417.323" transform="translate(-394.579 1568.071)" fill="none"/>
    </clipPath>
  </defs>
  <g id="组_1262" data-name="组 1262" transform="translate(332.085 -1674.932)">
    <g id="组_1261" data-name="组 1261">
      <path id="矩形_594" data-name="矩形 594" d="M32.962,0H192.038A32.962,32.962,0,0,1,225,32.962v159A33.041,33.041,0,0,1,191.959,225h-159A32.962,32.962,0,0,1,0,192.038V32.962A32.962,32.962,0,0,1,32.962,0Z" transform="translate(-332.085 1674.932)" fill="#fff"/>
      <g id="组_1260" data-name="组 1260" clip-path="url(#clip-path)">
        <g id="组_1259" data-name="组 1259">
          <g id="组_1258" data-name="组 1258" clip-path="url(#clip-path-2)">
            <rect id="矩形_595" data-name="矩形 595" width="271.063" height="253.283" transform="translate(-358.789 1645.774)" fill="#5b2c80"/>
            <g id="组_1257" data-name="组 1257">
              <g id="组_1256" data-name="组 1256">
                <circle id="椭圆_255" data-name="椭圆 255" cx="131.018" cy="131.018" r="131.018" transform="translate(-353.441 1651.539)" fill="#5b2c80"/>
                <path id="路径_2127" data-name="路径 2127" d="M-208.459,1822.957h0a22.137,22.137,0,0,0,22.138,22.137h79.056a130.571,130.571,0,0,0,14.583-44.275h-93.639A22.137,22.137,0,0,0-208.459,1822.957Z" fill="#3c1956"/>
                <path id="路径_2128" data-name="路径 2128" d="M-151.618,1672.3h-42.894a38.1,38.1,0,0,0-38.1,38.1h0a38.1,38.1,0,0,0,38.1,38.1H-95.89a130.412,130.412,0,0,0-33.889-58.58A131.476,131.476,0,0,0-151.618,1672.3Z" fill="#3c1956"/>
                <rect id="矩形_596" data-name="矩形 596" width="76.195" height="76.195" transform="translate(-172.084 1672.299)" fill="#3c1956"/>
                <path id="路径_2129" data-name="路径 2129" d="M-264.414,1776.669h0a20.126,20.126,0,0,0-20.126-20.125h-66.3a131.714,131.714,0,0,0-1.821,40.25h68.12A20.125,20.125,0,0,0-264.414,1776.669Z" fill="#3c1956"/>
                <g id="组_1255" data-name="组 1255">
                  <g id="组_1251" data-name="组 1251">
                    <path id="路径_2130" data-name="路径 2130" d="M-137.715,1710.876a26.53,26.53,0,0,0-7.41-14.26,26.533,26.533,0,0,0-14.26-7.41,25.713,25.713,0,0,0-17.238,3.263l-45.8,26.443-45.8-26.443a25.713,25.713,0,0,0-17.238-3.263,26.537,26.537,0,0,0-14.26,7.41,26.537,26.537,0,0,0-7.41,14.26,25.714,25.714,0,0,0,3.263,17.238,26.166,26.166,0,0,0,22.6,13.047h117.694a26.165,26.165,0,0,0,22.6-13.047A25.713,25.713,0,0,0-137.715,1710.876Zm-143.555,14.988a10.828,10.828,0,0,1-9.35-5.4,10.444,10.444,0,0,1,1.716-13.033,10.832,10.832,0,0,1,7.565-3.265,10.858,10.858,0,0,1,5.468,1.549l34.9,20.147Zm127.044-5.4a10.827,10.827,0,0,1-9.35,5.4h-40.293l34.9-20.147a10.852,10.852,0,0,1,5.468-1.549,10.831,10.831,0,0,1,7.564,3.265A10.444,10.444,0,0,1-154.226,1720.466Z" fill="#fbdf63"/>
                  </g>
                  <g id="组_1254" data-name="组 1254">
                    <rect id="矩形_597" data-name="矩形 597" width="172.671" height="36.521" transform="translate(-308.759 1737.071)" fill="#27b4e8"/>
                    <g id="组_1252" data-name="组 1252">
                      <path id="路径_2131" data-name="路径 2131" d="M-285.434,1737.071l-23.325,23.325v13.2h24.119l36.521-36.521Z" fill="#00a8e6"/>
                      <path id="路径_2132" data-name="路径 2132" d="M-210.8,1737.071l-36.521,36.521h37.316l36.521-36.521Z" fill="#00a8e6"/>
                      <path id="路径_2133" data-name="路径 2133" d="M-136.087,1737.071h-.083l-36.521,36.521h36.6Z" fill="#00a8e6"/>
                    </g>
                    <rect id="矩形_598" data-name="矩形 598" width="29.509" height="36.813" transform="translate(-237.177 1736.779)" fill="#fbdf63"/>
                    <rect id="矩形_599" data-name="矩形 599" width="12.075" height="36.813" transform="translate(-232.609 1736.779)" fill="#fff"/>
                    <rect id="矩形_600" data-name="矩形 600" width="148.714" height="97.292" transform="translate(-296.78 1773.592)" fill="#27b4e8"/>
                    <g id="组_1253" data-name="组 1253">
                      <path id="路径_2134" data-name="路径 2134" d="M-295.961,1773.592l-.819.818v37.316l38.134-38.134Z" fill="#009fde"/>
                      <path id="路径_2135" data-name="路径 2135" d="M-221.329,1773.592l-75.45,75.45v21.842h15.474l97.292-97.292Z" fill="#009fde"/>
                      <path id="路径_2136" data-name="路径 2136" d="M-148.066,1774.96l-95.924,95.924h37.316l58.608-58.608Z" fill="#009fde"/>
                      <path id="路径_2137" data-name="路径 2137" d="M-148.066,1849.592l-21.292,21.292h21.292Z" fill="#009fde"/>
                    </g>
                    <rect id="矩形_601" data-name="矩形 601" width="148.714" height="17.822" transform="translate(-296.78 1773.592)" fill="#0088cd"/>
                    <rect id="矩形_602" data-name="矩形 602" width="29.363" height="97.292" transform="translate(-237.104 1773.592)" fill="#fbdf63"/>
                    <rect id="矩形_603" data-name="矩形 603" width="12.075" height="97.292" transform="translate(-232.609 1773.592)" fill="#fefbec"/>
                    <rect id="矩形_604" data-name="矩形 604" width="29.363" height="17.822" transform="translate(-237.104 1773.592)" fill="#f89c28"/>
                  </g>
                </g>
                <path id="路径_2138" data-name="路径 2138" d="M-129.779,1875.2q2.048-2.049,3.979-4.168H-319.046c1.293,1.41,2.614,2.8,3.979,4.168A131.018,131.018,0,0,0-129.779,1875.2Z" fill="#003343"/>
              </g>
              <path id="路径_2139" data-name="路径 2139" d="M-300.952,1714.364a2.429,2.429,0,0,1-.406-.034,2.459,2.459,0,0,1-2.023-2.83,22.7,22.7,0,0,1,6.348-12.2,22.7,22.7,0,0,1,12.2-6.349,21.421,21.421,0,0,1,3.491-.288,22.226,22.226,0,0,1,11.222,3.094,2.459,2.459,0,0,1,.9,3.36,2.46,2.46,0,0,1-3.36.9,17.371,17.371,0,0,0-8.763-2.436,16.353,16.353,0,0,0-2.684.223,17.738,17.738,0,0,0-9.524,4.973,17.739,17.739,0,0,0-4.974,9.525A2.462,2.462,0,0,1-300.952,1714.364Z" fill="#fff"/>
              <path id="路径_2140" data-name="路径 2140" d="M-146.4,1727.444a2.445,2.445,0,0,1-1.227-.33,2.46,2.46,0,0,1-.9-3.36,17.1,17.1,0,0,0,2.213-11.447,17.749,17.749,0,0,0-4.974-9.525,17.738,17.738,0,0,0-9.525-4.973,17.091,17.091,0,0,0-11.447,2.213l-34.966,20.188a2.46,2.46,0,0,1-3.36-.9,2.46,2.46,0,0,1,.9-3.36l34.967-20.188a21.957,21.957,0,0,1,14.714-2.806,22.7,22.7,0,0,1,12.2,6.348,22.7,22.7,0,0,1,6.347,12.2,21.956,21.956,0,0,1-2.805,14.714A2.458,2.458,0,0,1-146.4,1727.444Z" fill="#fff"/>
            </g>
          </g>
        </g>
        <rect id="矩形_606" data-name="矩形 606" width="242.801" height="47.587" transform="translate(-340.815 1871.033)" fill="#003343"/>
      </g>
    </g>
  </g>
</svg>
