<svg xmlns="http://www.w3.org/2000/svg" width="27" height="27" viewBox="0 0 27 27">
  <path id="Icon_awesome-exclamation-circle" data-name="Icon awesome-exclamation-circle" d="M27.563,14.063a13.5,13.5,0,1,1-13.5-13.5A13.5,13.5,0,0,1,27.563,14.063Zm-13.5,2.722a2.5,2.5,0,1,0,2.5,2.5A2.5,2.5,0,0,0,14.063,16.784Zm-2.377-9,.4,7.4a.653.653,0,0,0,.652.618h2.643a.653.653,0,0,0,.652-.618l.4-7.4a.653.653,0,0,0-.652-.689h-3.45A.653.653,0,0,0,11.685,7.784Z" transform="translate(-0.563 -0.563)" fill="#1ac77a"/>
</svg>
