<svg xmlns="http://www.w3.org/2000/svg" width="35.49" height="44s.49" viewBox="0 -4 45.49 44.49">
  <g id="coin_icon" transform="translate(-0.5 -0.49)">
    <g id="组_333" data-name="组 333">
      <g id="组_321" data-name="组 321">
        <circle id="椭圆_115" data-name="椭圆 115" cx="16.98" cy="16.98" r="16.98" transform="translate(1.51 1.51)" fill="#3b2256"/>
        <path id="路径_733" data-name="路径 733" d="M18.49,35.98A17.485,17.485,0,1,1,35.98,18.5,17.509,17.509,0,0,1,18.49,35.98Zm0-33.96A16.47,16.47,0,1,0,34.96,18.49,16.491,16.491,0,0,0,18.49,2.02Z" fill="#3b2256"/>
      </g>
      <g id="组_322" data-name="组 322">
        <circle id="椭圆_116" data-name="椭圆 116" cx="16.55" cy="16.55" r="16.55" transform="translate(1.94 1.94)" fill="#3b2256"/>
        <path id="路径_734" data-name="路径 734" d="M18.49,35.55A17.05,17.05,0,1,1,35.54,18.5,17.071,17.071,0,0,1,18.49,35.55Zm0-33.09A16.04,16.04,0,1,0,34.53,18.5,16.064,16.064,0,0,0,18.49,2.46Z" fill="#3b2256"/>
      </g>
      <g id="组_323" data-name="组 323">
        <path id="路径_735" data-name="路径 735" d="M30.23,6.83,6.83,30.23a16.674,16.674,0,0,0,5.54,3.64l21.5-21.5A16.674,16.674,0,0,0,30.23,6.83Z" fill="#3b2256"/>
        <path id="路径_736" data-name="路径 736" d="M12.49,34.46l-.31-.12a17.016,17.016,0,0,1-5.71-3.75l-.36-.36L30.23,6.11l.36.36a17.016,17.016,0,0,1,3.75,5.71l.12.31ZM7.55,30.22a15.894,15.894,0,0,0,4.69,3.04L33.26,12.24a15.865,15.865,0,0,0-3.05-4.69Z" fill="#3b2256"/>
      </g>
      <g id="组_324" data-name="组 324">
        <path id="路径_737" data-name="路径 737" d="M34.62,22.18,22.18,34.62A16.529,16.529,0,0,0,34.62,22.18Z" fill="#3b2256"/>
        <path id="路径_738" data-name="路径 738" d="M20.58,35.51,35.51,20.58l-.39,1.71A17.121,17.121,0,0,1,22.29,35.12Zm13-11.57-9.64,9.64A16.178,16.178,0,0,0,33.58,23.94Z" fill="#3b2256"/>
      </g>
      <g id="组_325" data-name="组 325">
        <path id="路径_739" data-name="路径 739" d="M10.37,4.08,4.08,10.37a16.54,16.54,0,0,0-1.6,3.94L14.31,2.48A16.79,16.79,0,0,0,10.37,4.08Z" fill="#3b2256"/>
        <path id="路径_740" data-name="路径 740" d="M1.52,15.99l.47-1.81a16.811,16.811,0,0,1,1.65-4.06l.08-.11,6.4-6.37a16.976,16.976,0,0,1,4.06-1.65l1.81-.47Zm2.97-5.31a17.609,17.609,0,0,0-.85,1.75l8.79-8.79a16.6,16.6,0,0,0-1.75.85Z" fill="#3b2256"/>
      </g>
      <g id="组_326" data-name="组 326">
        <path id="路径_741" data-name="路径 741" d="M28.05,4.99,4.99,28.05c.27.38.55.75.85,1.1L29.15,5.84C28.79,5.54,28.43,5.26,28.05,4.99Z" fill="#3b2256"/>
        <path id="路径_742" data-name="路径 742" d="M5.81,29.9l-.36-.42c-.31-.37-.6-.75-.88-1.14l-.25-.35L27.99,4.33l.35.25c.39.28.77.57,1.14.88l.42.36Zm-.16-1.8c.07.1.15.2.22.29L28.39,5.88c-.1-.08-.2-.15-.29-.22Z" fill="#3b2256"/>
      </g>
      <g id="组_327" data-name="组 327">
        <circle id="椭圆_117" data-name="椭圆 117" cx="11.99" cy="11.99" r="11.99" transform="translate(6.83 6.81)" fill="#3b2256"/>
        <path id="路径_743" data-name="路径 743" d="M18.82,31.3a12.5,12.5,0,1,1,12.5-12.5A12.517,12.517,0,0,1,18.82,31.3Zm0-23.98A11.48,11.48,0,1,0,30.3,18.8,11.493,11.493,0,0,0,18.82,7.32Z" fill="#3b2256"/>
      </g>
      <g id="组_328" data-name="组 328">
        <circle id="椭圆_118" data-name="椭圆 118" cx="14.39" cy="14.39" r="14.39" transform="translate(4.1 4.1)" fill="#3b2256"/>
        <path id="路径_744" data-name="路径 744" d="M18.49,33.39A14.89,14.89,0,1,1,33.38,18.5,14.907,14.907,0,0,1,18.49,33.39Zm0-28.78A13.88,13.88,0,1,0,32.37,18.49,13.9,13.9,0,0,0,18.49,4.61Z" fill="#3b2256"/>
      </g>
      <g id="组_329" data-name="组 329">
        <path id="路径_745" data-name="路径 745" d="M4.89,19.27A14.386,14.386,0,0,1,29.05,8.71,14.386,14.386,0,1,0,8.72,29.04,14.288,14.288,0,0,1,4.89,19.27Z" fill="#3b2256"/>
        <path id="路径_746" data-name="路径 746" d="M8.38,29.42A14.889,14.889,0,1,1,29.42,8.38l-.72.71A13.876,13.876,0,0,0,9.09,28.7ZM13.59,5.51a13.93,13.93,0,0,0-8.07,8.07A14.913,14.913,0,0,1,13.59,5.51Z" fill="#3b2256"/>
      </g>
      <g id="组_330" data-name="组 330">
        <path id="路径_747" data-name="路径 747" d="M18.49,2.16A16.972,16.972,0,0,1,35.46,18.81c0-.11.01-.22.01-.33a16.98,16.98,0,1,0-33.96,0c0,.11.01.22.01.33A16.985,16.985,0,0,1,18.49,2.16Z" fill="#3b2256"/>
        <path id="路径_748" data-name="路径 748" d="M34.96,18.83a16.468,16.468,0,0,0-32.93,0H1.02l-.01-.33a17.49,17.49,0,1,1,34.98,0l-.01.33Z" fill="#3b2256"/>
      </g>
      <g id="组_331" data-name="组 331">
        <path id="路径_749" data-name="路径 749" d="M22.56,23.07a5.885,5.885,0,0,0,3.02-1.97,7.078,7.078,0,0,0,1.53-4.45,6.713,6.713,0,0,0-1.52-4.35,6.061,6.061,0,0,0-4.73-2.1H9.55l4.1,4.18h7.21A1.867,1.867,0,0,1,22.4,15a2.6,2.6,0,0,1,.53,1.66,2.87,2.87,0,0,1-.59,1.81,1.783,1.783,0,0,1-1.49.66H18.67l-.01-.01H12.32l8.76,8.93h6.34Z" fill="#3b2256"/>
        <path id="路径_750" data-name="路径 750" d="M28.65,28.55H20.89l-9.75-9.94h9.73a1.282,1.282,0,0,0,1.09-.48,2.389,2.389,0,0,0,.47-1.49,2.172,2.172,0,0,0-.41-1.33,1.347,1.347,0,0,0-1.15-.44H13.44L8.34,9.69H20.86a6.558,6.558,0,0,1,5.12,2.28,7.209,7.209,0,0,1,1.64,4.68,7.536,7.536,0,0,1-1.64,4.77,6.393,6.393,0,0,1-2.5,1.87Zm-7.34-1.02h4.92L21.59,22.8l.83-.23a5.372,5.372,0,0,0,2.77-1.81,6.533,6.533,0,0,0,1.41-4.13,6.2,6.2,0,0,0-1.4-4.02,5.546,5.546,0,0,0-4.34-1.92H10.76l3.1,3.16h7a2.429,2.429,0,0,1,1.93.79,3.061,3.061,0,0,1,.65,1.98,3.386,3.386,0,0,1-.7,2.13,2.316,2.316,0,0,1-1.88.85H13.55Z" fill="#3b2256"/>
      </g>
      <g id="组_332" data-name="组 332">
        <path id="路径_751" data-name="路径 751" d="M21.79,22.81a5.885,5.885,0,0,0,3.02-1.97,7.078,7.078,0,0,0,1.53-4.45,6.713,6.713,0,0,0-1.52-4.35,6.061,6.061,0,0,0-4.73-2.1H8.78l4.1,4.18h7.21a1.867,1.867,0,0,1,1.54.62,2.6,2.6,0,0,1,.53,1.66,2.87,2.87,0,0,1-.59,1.81,1.783,1.783,0,0,1-1.49.66H17.9l-.01-.01H11.55l8.76,8.93h6.34Z" fill="#3b2256"/>
        <path id="路径_752" data-name="路径 752" d="M27.88,28.29H20.12l-9.75-9.94,9.73.01a1.282,1.282,0,0,0,1.09-.48,2.389,2.389,0,0,0,.47-1.49,2.172,2.172,0,0,0-.41-1.33,1.347,1.347,0,0,0-1.15-.44H12.67L7.57,9.43H20.09a6.558,6.558,0,0,1,5.12,2.28,7.209,7.209,0,0,1,1.64,4.68,7.536,7.536,0,0,1-1.64,4.77,6.466,6.466,0,0,1-2.5,1.87Zm-7.33-1.01h4.92l-4.63-4.73.83-.23a5.372,5.372,0,0,0,2.77-1.81,6.533,6.533,0,0,0,1.41-4.13,6.2,6.2,0,0,0-1.4-4.02,5.546,5.546,0,0,0-4.34-1.92H9.99l3.1,3.16h7a2.429,2.429,0,0,1,1.93.79,3.138,3.138,0,0,1,.65,1.98,3.386,3.386,0,0,1-.7,2.13,2.316,2.316,0,0,1-1.88.85l-7.31-.01Z" fill="#3b2256"/>
      </g>
    </g>
    <g id="组_334" data-name="组 334">
      <circle id="椭圆_119" data-name="椭圆 119" cx="16.98" cy="16.98" r="16.98" transform="translate(0.5 0.5)" fill="#ffe576"/>
      <circle id="椭圆_120" data-name="椭圆 120" cx="16.55" cy="16.55" r="16.55" transform="translate(0.93 0.93)" fill="#f6f1c7"/>
      <path id="路径_753" data-name="路径 753" d="M29.21,5.81,5.81,29.21a16.674,16.674,0,0,0,5.54,3.64l21.5-21.5A16.674,16.674,0,0,0,29.21,5.81Z" fill="#fff"/>
      <path id="路径_754" data-name="路径 754" d="M33.61,21.16,21.16,33.61A16.583,16.583,0,0,0,33.61,21.16Z" fill="#fff"/>
      <path id="路径_755" data-name="路径 755" d="M9.35,3.07,3.07,9.35a16.54,16.54,0,0,0-1.6,3.94L13.3,1.47A16.445,16.445,0,0,0,9.35,3.07Z" fill="#fff"/>
      <path id="路径_756" data-name="路径 756" d="M27.03,3.97,3.97,27.03c.27.38.55.75.85,1.1L28.13,4.82C27.78,4.53,27.41,4.24,27.03,3.97Z" fill="#fff"/>
      <circle id="椭圆_121" data-name="椭圆 121" cx="11.99" cy="11.99" r="11.99" transform="translate(5.82 5.8)" fill="#fff"/>
      <circle id="椭圆_122" data-name="椭圆 122" cx="14.39" cy="14.39" r="14.39" transform="translate(3.09 3.09)" fill="#bd9e55"/>
      <path id="路径_757" data-name="路径 757" d="M3.87,18.26A14.386,14.386,0,0,1,28.03,7.7,14.386,14.386,0,1,0,7.7,28.03,14.354,14.354,0,0,1,3.87,18.26Z" fill="#bd9e55"/>
      <path id="路径_758" data-name="路径 758" d="M17.48,1.15A16.972,16.972,0,0,1,34.45,17.8c0-.11.01-.22.01-.33A16.98,16.98,0,1,0,.5,17.48c0,.11.01.22.01.33A16.974,16.974,0,0,1,17.48,1.15Z" fill="#fff"/>
      <path id="路径_759" data-name="路径 759" d="M21.5,22.44a5.885,5.885,0,0,0,3.02-1.97,7.078,7.078,0,0,0,1.53-4.45,6.713,6.713,0,0,0-1.52-4.35,6.061,6.061,0,0,0-4.73-2.1H8.49l4.1,4.18H19.8a1.867,1.867,0,0,1,1.54.62,2.6,2.6,0,0,1,.53,1.66,2.87,2.87,0,0,1-.59,1.81,1.783,1.783,0,0,1-1.49.66H17.61l-.01-.01H11.26l8.76,8.93h6.34Z" fill="#bd9e55"/>
      <path id="路径_760" data-name="路径 760" d="M20.78,21.8a5.885,5.885,0,0,0,3.02-1.97,7.078,7.078,0,0,0,1.53-4.45,6.713,6.713,0,0,0-1.52-4.35,6.061,6.061,0,0,0-4.73-2.1H7.77l4.1,4.18h7.21a1.867,1.867,0,0,1,1.54.62,2.6,2.6,0,0,1,.53,1.66,2.87,2.87,0,0,1-.59,1.81,1.783,1.783,0,0,1-1.49.66H16.9l-.01-.01H10.55l8.76,8.93h6.34Z" fill="#f6f1c7"/>
    </g>
  </g>
</svg>
