<svg xmlns="http://www.w3.org/2000/svg" xmlns:xlink="http://www.w3.org/1999/xlink" width="225" height="225" viewBox="0 0 225 225">
  <defs>
    <clipPath id="clip-path">
      <path id="矩形_593" data-name="矩形 593" d="M32.962,0H192.038A32.962,32.962,0,0,1,225,32.962v159A33.041,33.041,0,0,1,191.959,225h-159A32.962,32.962,0,0,1,0,192.038V32.962A32.962,32.962,0,0,1,32.962,0Z" transform="translate(-264.135 808.273)" fill="#fff"/>
    </clipPath>
    <clipPath id="clip-path-2">
      <rect id="矩形_592" data-name="矩形 592" width="344.311" height="417.323" transform="translate(-326.629 701.412)" fill="none"/>
    </clipPath>
  </defs>
  <g id="组_1250" data-name="组 1250" transform="translate(264.136 -808.273)">
    <g id="组_1249" data-name="组 1249">
      <path id="矩形_584" data-name="矩形 584" d="M32.962,0H192.038A32.962,32.962,0,0,1,225,32.962v159A33.041,33.041,0,0,1,191.959,225h-159A32.962,32.962,0,0,1,0,192.038V32.962A32.962,32.962,0,0,1,32.962,0Z" transform="translate(-264.135 808.273)" fill="#fff"/>
      <g id="组_1248" data-name="组 1248" clip-path="url(#clip-path)">
        <g id="组_1247" data-name="组 1247">
          <g id="组_1246" data-name="组 1246" clip-path="url(#clip-path-2)">
            <rect id="矩形_585" data-name="矩形 585" width="271.063" height="253.283" transform="translate(-290.839 779.115)" fill="#5b2c80"/>
            <g id="组_1245" data-name="组 1245">
              <path id="路径_2099" data-name="路径 2099" d="M-152.292,791.1a27.585,27.585,0,0,1,13.772,3.69L-52.415,844.5a27.619,27.619,0,0,1,13.771,23.852v99.426a27.619,27.619,0,0,1-13.771,23.852l-86.105,49.713a27.584,27.584,0,0,1-13.772,3.69,27.578,27.578,0,0,1-13.771-3.69l-86.1-49.713a27.619,27.619,0,0,1-13.771-23.852V868.353A27.619,27.619,0,0,1-252.168,844.5l86.1-49.713a27.578,27.578,0,0,1,13.771-3.69" fill="#5b2c80"/>
              <path id="路径_2100" data-name="路径 2100" d="M-131.87,868.285l-.133.134.367-.134Z" fill="#5c6bc0"/>
              <path id="矩形_586" data-name="矩形 586" d="M12.382,0H112.6a12.382,12.382,0,0,1,12.382,12.382v0A11.321,11.321,0,0,1,113.658,23.7H11.321A11.321,11.321,0,0,1,0,12.382v0A12.382,12.382,0,0,1,12.382,0Z" transform="translate(-330.688 960.466)" fill="#3c1956"/>
              <path id="矩形_587" data-name="矩形 587" d="M12.382,0H71.656A12.382,12.382,0,0,1,84.038,12.382v0A11.321,11.321,0,0,1,72.716,23.7h-61.4A11.321,11.321,0,0,1,0,12.382v0A12.382,12.382,0,0,1,12.382,0Z" transform="translate(-74.754 889.551)" fill="#3c1956"/>
              <path id="矩形_588" data-name="矩形 588" d="M12.382,0H58.727A12.382,12.382,0,0,1,71.109,12.382v0A11.321,11.321,0,0,1,59.787,23.7H11.321A11.321,11.321,0,0,1,0,12.382v0A12.382,12.382,0,0,1,12.382,0Z" transform="translate(-284.018 829.068)" fill="#3c1956"/>
              <path id="矩形_589" data-name="矩形 589" d="M10.351,0H85.128A10.351,10.351,0,0,1,95.479,10.351v0a9.465,9.465,0,0,1-9.465,9.465H9.465A9.465,9.465,0,0,1,0,10.351v0A10.351,10.351,0,0,1,10.351,0Z" transform="translate(-155.093 994.043)" fill="#3c1956"/>
              <path id="矩形_590" data-name="矩形 590" d="M12.382,0h89.442A12.382,12.382,0,0,1,114.2,12.382V22.423a11.321,11.321,0,0,1-11.321,11.321H11.321A11.321,11.321,0,0,1,0,22.423V12.382A12.382,12.382,0,0,1,12.382,0Z" transform="translate(-139.777 794.251)" fill="#3c1956"/>
              <path id="矩形_591" data-name="矩形 591" d="M10.351,0H85.128A10.351,10.351,0,0,1,95.479,10.351v0a9.465,9.465,0,0,1-9.465,9.465H9.465A9.465,9.465,0,0,1,0,10.351v0A10.351,10.351,0,0,1,10.351,0Z" transform="translate(-250.572 1019.693)" fill="#3c1956"/>
              <circle id="椭圆_253" data-name="椭圆 253" cx="9.868" cy="9.868" r="9.868" transform="translate(-255.766 895.197)" fill="#3c1956"/>
              <circle id="椭圆_254" data-name="椭圆 254" cx="11.804" cy="11.804" r="11.804" transform="translate(-54.516 852.771)" fill="#3c1956"/>
              <g id="组_1244" data-name="组 1244">
                <path id="路径_2101" data-name="路径 2101" d="M-118.136,909.86a4.307,4.307,0,0,1-4.308-4.307V862.474A30.155,30.155,0,0,0-152.6,832.318a30.155,30.155,0,0,0-30.155,30.156v43.079a4.307,4.307,0,0,1-4.308,4.307,4.307,4.307,0,0,1-4.308-4.307V862.474A38.771,38.771,0,0,1-152.6,823.7a38.771,38.771,0,0,1,38.771,38.772v43.079A4.307,4.307,0,0,1-118.136,909.86Z" fill="#3c1956" stroke="#3c1956" stroke-miterlimit="10" stroke-width="12.728"/>
                <path id="路径_2102" data-name="路径 2102" d="M-109.52,1060.637H-255.989l8.616-172.316h129.237Z" fill="#3c1956" stroke="#3c1956" stroke-miterlimit="10" stroke-width="12.728"/>
                <path id="路径_2103" data-name="路径 2103" d="M-75.057,1060.637H-109.52l-8.616-172.316h34.463Z" fill="#3c1956" stroke="#3c1956" stroke-miterlimit="10" stroke-width="12.728"/>
                <path id="路径_2104" data-name="路径 2104" d="M-92.035,1039.092c-.086.005-.173.005-.259.005a4.308,4.308,0,0,1-4.3-4.054l-8.616-146.469c0-.086,0-.167,0-.253h8.626l8.6,146.215a4.312,4.312,0,0,1-4.049,4.556Z" fill="#3c1956" stroke="#3c1956" stroke-miterlimit="10" stroke-width="12.728"/>
                <path id="路径_2105" data-name="路径 2105" d="M-6.13,1060.637H-40.594l-.538-6.963v-.005l-8.077-105.037h34.463L-6.8,1051.854v.006Z" fill="#3c1956" stroke="#3c1956" stroke-miterlimit="10" stroke-width="12.728"/>
                <path id="路径_2106" data-name="路径 2106" d="M-22.931,1039.076a4.01,4.01,0,0,1-.436.021,4.306,4.306,0,0,1-4.281-3.877l-.156-1.54-8.46-84.618a3.87,3.87,0,0,1-.022-.43h8.638l8.465,84.655.107,1.072a4.308,4.308,0,0,1-3.855,4.717Z" fill="#3c1956" stroke="#3c1956" stroke-miterlimit="10" stroke-width="12.728"/>
                <path id="路径_2107" data-name="路径 2107" d="M-6.13,1060.637h-5.181l-12.051-18.082-12.051,18.082h-5.181l-.538-6.963v-.005L-27.8,1033.68l.856-1.281a4.312,4.312,0,0,1,5.982-1.19,4.292,4.292,0,0,1,1.19,1.19l.593.888,12.38,18.567v.006Z" fill="#3c1956" stroke="#3c1956" stroke-miterlimit="10" stroke-width="12.728"/>
                <path id="路径_2108" data-name="路径 2108" d="M-40.594,1060.637h-112l8.616-112h94.774Z" fill="#3c1956" stroke="#3c1956" stroke-miterlimit="10" stroke-width="12.728"/>
                <path id="路径_2109" data-name="路径 2109" d="M-92.288,1030.482H-100.9a21.565,21.565,0,0,1-21.54-21.54V974.479a4.308,4.308,0,0,1,4.308-4.308,4.308,4.308,0,0,1,4.308,4.308v34.463a12.939,12.939,0,0,0,12.924,12.924h8.616a12.938,12.938,0,0,0,12.923-12.924V974.479a4.308,4.308,0,0,1,4.308-4.308,4.308,4.308,0,0,1,4.308,4.308v34.463A21.564,21.564,0,0,1-92.288,1030.482Z" fill="#3c1956" stroke="#3c1956" stroke-miterlimit="10" stroke-width="12.728"/>
                <path id="路径_2110" data-name="路径 2110" d="M-217.217,905.553h8.615V931.4h-8.615Z" fill="#3c1956" stroke="#3c1956" stroke-miterlimit="10" stroke-width="12.728"/>
                <path id="路径_2111" data-name="路径 2111" d="M-212.91,909.86a4.307,4.307,0,0,1-4.307-4.307V862.474A38.771,38.771,0,0,1-178.446,823.7a38.772,38.772,0,0,1,38.771,38.772v43.079a4.307,4.307,0,0,1-4.308,4.307,4.307,4.307,0,0,1-4.308-4.307V862.474a30.155,30.155,0,0,0-30.155-30.156A30.156,30.156,0,0,0-208.6,862.474v43.079A4.307,4.307,0,0,1-212.91,909.86Z" fill="#3c1956" stroke="#3c1956" stroke-miterlimit="10" stroke-width="12.728"/>
                <path id="路径_2112" data-name="路径 2112" d="M-199.986,965.863h-25.847V931.4l12.923-8.616,12.924,8.616Z" fill="#3c1956" stroke="#3c1956" stroke-miterlimit="10" stroke-width="12.728"/>
                <path id="路径_2113" data-name="路径 2113" d="M-132.338,895.658a4.308,4.308,0,0,1-4.308-4.308V848.271A30.155,30.155,0,0,0-166.8,818.116a30.155,30.155,0,0,0-30.156,30.155V891.35a4.307,4.307,0,0,1-4.307,4.308,4.308,4.308,0,0,1-4.308-4.308V848.271A38.771,38.771,0,0,1-166.8,809.5a38.772,38.772,0,0,1,38.771,38.771V891.35A4.308,4.308,0,0,1-132.338,895.658Z" fill="#dadcde"/>
                <path id="路径_2114" data-name="路径 2114" d="M-123.722,1046.435H-270.191l8.616-172.316h129.237Z" fill="#eb423f"/>
                <path id="路径_2115" data-name="路径 2115" d="M-89.259,1046.435h-34.463l-8.616-172.316h34.463Z" fill="#d13330"/>
                <path id="路径_2116" data-name="路径 2116" d="M-106.238,1024.89c-.086.005-.172.005-.258.005a4.308,4.308,0,0,1-4.3-4.055l-8.616-146.468c-.005-.086-.005-.167-.005-.253h8.626l8.6,146.215a4.312,4.312,0,0,1-4.05,4.556Z" fill="#a82a27"/>
                <path id="路径_2117" data-name="路径 2117" d="M-20.333,1046.435H-54.8l-.538-6.963v-.005l-8.078-105.038h34.464l7.942,103.223v.005Z" fill="#eba72e"/>
                <path id="路径_2118" data-name="路径 2118" d="M-37.133,1024.874a3.986,3.986,0,0,1-.437.021,4.309,4.309,0,0,1-4.281-3.877l-.156-1.54-8.459-84.618a3.649,3.649,0,0,1-.022-.431h8.637l8.465,84.656.108,1.072a4.308,4.308,0,0,1-3.855,4.717Z" fill="#e09f2c"/>
                <path id="路径_2119" data-name="路径 2119" d="M-20.333,1046.435h-5.18l-12.051-18.083-12.052,18.083H-54.8l-.538-6.963v-.005l13.327-19.989.856-1.282a4.315,4.315,0,0,1,5.983-1.19,4.32,4.32,0,0,1,1.19,1.19l.592.889,12.38,18.567v.005Z" fill="#e09f2c"/>
                <path id="路径_2120" data-name="路径 2120" d="M-54.8,1046.435h-112l8.616-112.006h94.773Z" fill="#f7b030"/>
                <path id="路径_2121" data-name="路径 2121" d="M-106.491,1016.279h-8.615a21.563,21.563,0,0,1-21.54-21.539V960.277a4.308,4.308,0,0,1,4.308-4.308,4.308,4.308,0,0,1,4.308,4.308V994.74a12.938,12.938,0,0,0,12.924,12.924h8.615A12.938,12.938,0,0,0-93.567,994.74V960.277a4.308,4.308,0,0,1,4.308-4.308,4.308,4.308,0,0,1,4.308,4.308V994.74A21.563,21.563,0,0,1-106.491,1016.279Z" fill="#e9eef2"/>
                <path id="路径_2122" data-name="路径 2122" d="M-231.42,891.35h8.616V917.2h-8.616Z" fill="#dadcde"/>
                <path id="路径_2123" data-name="路径 2123" d="M-227.112,895.658a4.308,4.308,0,0,1-4.308-4.308V848.271A38.772,38.772,0,0,1-192.649,809.5a38.771,38.771,0,0,1,38.771,38.771V891.35a4.307,4.307,0,0,1-4.307,4.308,4.308,4.308,0,0,1-4.308-4.308V848.271a30.155,30.155,0,0,0-30.156-30.155A30.155,30.155,0,0,0-222.8,848.271V891.35A4.308,4.308,0,0,1-227.112,895.658Z" fill="#e9eef2"/>
                <path id="路径_2124" data-name="路径 2124" d="M-214.188,951.661h-25.848V917.2l12.924-8.616,12.924,8.616Z" fill="#f7b030"/>
              </g>
              <path id="路径_2125" data-name="路径 2125" d="M-152.292,791.1a27.578,27.578,0,0,1,13.771,3.69L-52.415,844.5a27.619,27.619,0,0,1,13.771,23.852v99.426a27.619,27.619,0,0,1-13.771,23.852l-86.106,49.713a27.578,27.578,0,0,1-13.771,3.69,27.578,27.578,0,0,1-13.771-3.69l-86.1-49.713a27.617,27.617,0,0,1-13.771-23.852V868.353A27.617,27.617,0,0,1-252.168,844.5l86.1-49.713a27.578,27.578,0,0,1,13.771-3.69" fill="none"/>
              <path id="路径_2126" data-name="路径 2126" d="M-227.112,895.658a4.308,4.308,0,0,1-4.308-4.308V848.271A38.772,38.772,0,0,1-192.649,809.5a38.771,38.771,0,0,1,38.771,38.771V891.35a4.307,4.307,0,0,1-4.307,4.308,4.308,4.308,0,0,1-4.308-4.308V848.271a30.155,30.155,0,0,0-30.156-30.155A30.155,30.155,0,0,0-222.8,848.271V891.35A4.308,4.308,0,0,1-227.112,895.658Z" fill="#e9eef2"/>
            </g>
          </g>
        </g>
      </g>
    </g>
  </g>
</svg>
