<?xml version="1.0" encoding="utf-8"?>
<!-- Generator: Adobe Illustrator 25.4.1, SVG Export Plug-In . SVG Version: 6.00 Build 0)  -->
<svg version="1.1" id="Layer_1" xmlns="http://www.w3.org/2000/svg" xmlns:xlink="http://www.w3.org/1999/xlink" x="0px" y="0px"
	 viewBox="0 0 1080 1080" style="enable-background:new 0 0 1080 1080;" xml:space="preserve">
<style type="text/css">
	.st0{fill:#E48D7A;}
	.st1{fill:#DB6666;}
	.st2{fill:#F0BB98;}
	.st3{fill:#D74427;}
	.st4{fill:#C52528;}
	.st5{fill:#E5653B;}
	.st6{fill:#CF2E27;}
	.st7{fill:#002438;}
	.st8{fill:#EAA08D;}
	.st9{fill:#FAD6BB;}
	.st10{fill:#9B2383;}
	.st11{fill:#6E246D;}
	.st12{fill:#7D1934;}
	.st13{fill:#4B0614;}
	.st14{fill:#FFFFFF;}
	.st15{fill:#CADAE3;}
</style>
<g>
	<g>
		<rect x="366.5" y="874.4" class="st0" width="338.4" height="312.8"/>
		<rect x="366.5" y="866.9" class="st1" width="338.4" height="186.2"/>
		<g>
			<g>
				<circle class="st2" cx="800.1" cy="589.5" r="61.5"/>
				<path class="st0" d="M800.1,628.6c-30.1,0-55.1-21.7-60.4-50.3c-0.7,3.6-1.1,7.4-1.1,11.2c0,33.9,27.5,61.5,61.5,61.5
					s61.5-27.5,61.5-61.5c0-3.8-0.4-7.5-1.1-11.2C855.2,606.9,830.2,628.6,800.1,628.6z"/>
				<circle class="st1" cx="800.1" cy="589.5" r="24.2"/>
			</g>
			<g>
				<circle class="st2" cx="271.3" cy="589.5" r="61.5"/>
				<path class="st0" d="M271.3,628.6c-30.1,0-55.1-21.7-60.4-50.3c-0.7,3.6-1.1,7.4-1.1,11.2c0,33.9,27.5,61.5,61.5,61.5
					s61.5-27.5,61.5-61.5c0-3.8-0.4-7.5-1.1-11.2C326.4,606.9,301.4,628.6,271.3,628.6z"/>
				<circle class="st1" cx="271.3" cy="589.5" r="24.2"/>
			</g>
		</g>
		<g>
			<path class="st3" d="M651.1,1008.4H420.2c-104.5,0-189.9-85.5-189.9-189.9v0c0-104.5,85.5-189.9,189.9-189.9h230.9
				c104.5,0,189.9,85.5,189.9,189.9v0C841.1,923,755.6,1008.4,651.1,1008.4z"/>
			<path class="st3" d="M568.6,895.1h-65.8c-127.9,0-231.5-103.7-231.5-231.5V465.7c0-143.7,116.5-260.1,260.1-260.1h8.6
				c143.7,0,260.1,116.5,260.1,260.1v197.9C800.1,791.5,696.5,895.1,568.6,895.1z"/>
			<path class="st2" d="M710.5,650.9H360.9c-26.9,0-48.7-21.8-48.7-48.7V317.9c0-36.2,29.3-65.5,65.5-65.5l315.9,0
				c36.2,0,65.5,29.3,65.5,65.5v284.3C759.1,629.1,737.4,650.9,710.5,650.9z"/>
			<path class="st4" d="M535.7,205.6L535.7,205.6c-60,0-115.3,20-159.7,53.7c-16.8,31.4-26.4,67.3-26.4,105.5v85h307.9
				c50.3,0,96.8-15.8,135.1-42.5C764.4,291.5,660.1,205.6,535.7,205.6z"/>
			<path class="st0" d="M535.7,252.4L535.7,252.4c-77.4,0-145.5,39.3-185.6,99.1c-0.3,4.4-0.4,8.8-0.4,13.3v85h307.9
				c34.5,0,67.2-7.5,96.7-20.7C732.7,328.1,643,252.4,535.7,252.4z"/>
			<path class="st3" d="M815,140.7H580.4c-170.7,0-309.1,138.4-309.1,309.1v0h312.2c127.9,0,231.5-103.7,231.5-231.5V140.7z"/>
			<path class="st5" d="M703.4,140.7v73.2c0,130.3-105.6,235.9-235.9,235.9h111.6c130.3,0,235.9-105.6,235.9-235.9v-73.2H703.4z"/>
		</g>
		<g>
			<g>
				<path class="st0" d="M467.1,545.4h-116c-1.1,0-2-0.9-2-2v-33.2c0-1.1,0.9-2,2-2h116c1.1,0,2,0.9,2,2v33.2
					C469.1,544.5,468.2,545.4,467.1,545.4z"/>
				<path class="st3" d="M467.1,520.6h-116c-1.1,0-2-0.9-2-2v-33.2c0-1.1,0.9-2,2-2l116,0c1.1,0,2,0.9,2,2v33.2
					C469.1,519.6,468.2,520.6,467.1,520.6z"/>
				<path class="st5" d="M430.7,501.3h-43.2c-0.4,0-0.8-0.3-0.8-0.8v-12.4c0-0.4,0.3-0.8,0.8-0.8h43.2c0.4,0,0.8,0.3,0.8,0.8v12.4
					C431.4,501,431.1,501.3,430.7,501.3z"/>
				<path class="st6" d="M450.4,508.1h-82.8c-8.1,0-14.9-5.2-17.5-12.4c-0.7,2-1.1,4-1.1,6.2c0,10.3,8.3,18.6,18.6,18.6h82.8
					c10.3,0,18.6-8.3,18.6-18.6c0-2.2-0.4-4.3-1.1-6.2C465.4,502.9,458.5,508.1,450.4,508.1z"/>
				<path class="st7" d="M427.5,595h-36.9c-1.2,0-2.2-1-2.2-2.2v-57.6c0-1.2,1-2.2,2.2-2.2h36.9c1.2,0,2.2,1,2.2,2.2v57.6
					C429.8,594,428.8,595,427.5,595z"/>
			</g>
			<g>
				<path class="st0" d="M720.3,545.4h-116c-1.1,0-2-0.9-2-2v-33.2c0-1.1,0.9-2,2-2h116c1.1,0,2,0.9,2,2v33.2
					C722.3,544.5,721.4,545.4,720.3,545.4z"/>
				<path class="st3" d="M720.3,520.6h-116c-1.1,0-2-0.9-2-2v-33.2c0-1.1,0.9-2,2-2h116c1.1,0,2,0.9,2,2v33.2
					C722.3,519.6,721.4,520.6,720.3,520.6z"/>
				<path class="st5" d="M683.9,501.3h-43.2c-0.4,0-0.8-0.3-0.8-0.8v-12.4c0-0.4,0.3-0.8,0.8-0.8h43.2c0.4,0,0.8,0.3,0.8,0.8v12.4
					C684.7,501,684.3,501.3,683.9,501.3z"/>
				<path class="st6" d="M703.7,508.1h-82.8c-8.1,0-14.9-5.2-17.5-12.4c-0.7,2-1.1,4-1.1,6.2c0,10.3,8.3,18.6,18.6,18.6h82.8
					c10.3,0,18.6-8.3,18.6-18.6c0-2.2-0.4-4.3-1.1-6.2C718.6,502.9,711.8,508.1,703.7,508.1z"/>
				<path class="st7" d="M680.8,595h-36.9c-1.2,0-2.2-1-2.2-2.2v-57.6c0-1.2,1-2.2,2.2-2.2h36.9c1.2,0,2.2,1,2.2,2.2l0,57.6
					C683,594,682,595,680.8,595z"/>
			</g>
		</g>
		<path class="st4" d="M651.2,911.6H420.3c-87.8,0-162.2-60.4-183.7-141.7c-4.1,15.5-6.4,31.8-6.4,48.6v0
			c0,104.5,85.5,189.9,189.9,189.9h230.9c104.5,0,189.9-85.5,189.9-189.9v0c0-16.7-2.2-32.8-6.3-48.2
			C813.2,851.4,738.9,911.6,651.2,911.6z"/>
		<g>
			<path class="st4" d="M535.7,749.4L535.7,749.4c-37,0-67-30-67-67v-14.9c0-37,30-67,67-67h0c37,0,67,30,67,67v14.9
				C602.7,719.4,572.7,749.4,535.7,749.4z"/>
			<path class="st2" d="M536.6,702.6h-1.7c-36.6,0-66.2-29.6-66.2-66.2v-75.5c0-4,3.2-7.3,7.3-7.3h119.6c4,0,7.3,3.2,7.3,7.3v75.6
				C602.7,673,573.1,702.6,536.6,702.6z"/>
			<path class="st8" d="M535.7,671.7L535.7,671.7c-34.3,0-62.6-25.8-66.5-59c-0.3,2.6-0.5,5.3-0.5,8v14.9c0,37,30,67,67,67l0,0
				c37,0,67-30,67-67v-14.9c0-2.7-0.2-5.4-0.5-8C598.2,645.9,570,671.7,535.7,671.7z"/>
			<path class="st9" d="M578.5,652.6h-33.2c-1.1,0-2-0.9-2-2V554c0-1.1,0.9-2,2-2h33.2c1.1,0,2,0.9,2,2v96.5
				C580.5,651.7,579.6,652.6,578.5,652.6z"/>
		</g>
		<g>
			<rect x="299.2" y="1112.7" class="st10" width="473" height="74.5"/>
			<rect x="299.2" y="1150" class="st11" width="473" height="37.2"/>
		</g>
		<g>
			<path class="st12" d="M399.1,725.4c0,0.6,0,1.1,0,1.6c0,75.4,61.2,136.6,136.6,136.6S672.3,802.5,672.3,727c0-0.6,0-1.1,0-1.6
				H399.1z"/>
			<path class="st13" d="M628.6,825.6H442.7c-1.9,0-3.5-1.6-3.5-3.5v-57.3c0-1.9,1.6-3.5,3.5-3.5h185.9c1.9,0,3.5,1.6,3.5,3.5v57.3
				C632.1,824,630.6,825.6,628.6,825.6z"/>
			<g>
				<path class="st14" d="M647.9,769.9H423.5c-2.2,0-4.1-1.8-4.1-4.1v-40.5h232.4v40.5C651.9,768.1,650.1,769.9,647.9,769.9z"/>
				<rect x="419.5" y="725.4" class="st15" width="232.4" height="19.8"/>
			</g>
			<path class="st14" d="M605.3,844.6c7.9-4.7,15.3-10.1,22.1-16.3c-3.5-3.7-8.4-6.1-13.9-6.1H457.9c-5.5,0-10.4,2.4-13.9,6.1
				c6.8,6.1,14.2,11.6,22.1,16.3H605.3z"/>
			<path class="st15" d="M535.7,863.6c25.4,0,49.2-7,69.6-19.1H466.1C486.5,856.7,510.3,863.6,535.7,863.6z"/>
		</g>
		<g>
			<path class="st5" d="M644.2,241.2h-193c-1.2,0-2.2-1-2.2-2.2v-36.5c0-1.2,1-2.2,2.2-2.2h193c1.2,0,2.2,1,2.2,2.2V239
				C646.4,240.2,645.4,241.2,644.2,241.2z"/>
			<path class="st5" d="M468.9,379H332.2c-1.3,0-2.4-1.1-2.4-2.4v-39.9c0-1.3,1.1-2.4,2.4-2.4h136.7c1.3,0,2.4,1.1,2.4,2.4v39.9
				C471.3,377.9,470.3,379,468.9,379z"/>
			<path class="st5" d="M600.7,308.3h-65c-0.6,0-1-0.5-1-1v-16.6c0-0.6,0.5-1,1-1h65c0.6,0,1,0.5,1,1v16.6
				C601.7,307.8,601.2,308.3,600.7,308.3z"/>
			<path class="st5" d="M388,717.9h-67.9c-0.8,0-1.4-0.6-1.4-1.4v-23.3c0-0.8,0.6-1.4,1.4-1.4H388c0.8,0,1.4,0.6,1.4,1.4v23.3
				C389.4,717.3,388.8,717.9,388,717.9z"/>
			<path class="st5" d="M369.6,803.6H305c-0.7,0-1.2-0.5-1.2-1.2v-19.9c0-0.7,0.5-1.2,1.2-1.2h64.6c0.7,0,1.2,0.5,1.2,1.2v19.9
				C370.8,803.1,370.2,803.6,369.6,803.6z"/>
			<path class="st5" d="M421.3,870.6h-48.9c-0.9,0-1.6-0.7-1.6-1.6v-26.6c0-0.9,0.7-1.6,1.6-1.6h48.9c0.9,0,1.6,0.7,1.6,1.6V869
				C422.9,869.9,422.2,870.6,421.3,870.6z"/>
			<path class="st5" d="M712.4,855.7H666c-0.6,0-1-0.5-1-1v-16.6c0-0.6,0.5-1,1-1h46.4c0.6,0,1,0.5,1,1v16.6
				C713.4,855.3,713,855.7,712.4,855.7z"/>
			<path class="st5" d="M801.6,792.4h-98.1c-0.7,0-1.2-0.5-1.2-1.2v-19.9c0-0.7,0.5-1.2,1.2-1.2h98.1c0.7,0,1.2,0.5,1.2,1.2v19.9
				C802.8,791.9,802.3,792.4,801.6,792.4z"/>
			<path class="st5" d="M742.4,717.9h-50.5c-0.4,0-0.8-0.4-0.8-0.8v-13.3c0-0.4,0.4-0.8,0.8-0.8h50.5c0.4,0,0.8,0.4,0.8,0.8v13.3
				C743.2,717.6,742.9,717.9,742.4,717.9z"/>
		</g>
	</g>
	<path class="st8" d="M454.3,626.3h-90.8c-0.5,0-1-0.4-1-1v-15.8c0-0.5,0.4-1,1-1h90.8c0.5,0,1,0.4,1,1v15.8
		C455.2,625.9,454.8,626.3,454.3,626.3z"/>
	<path class="st8" d="M706,626.3h-90.8c-0.5,0-1-0.4-1-1v-15.8c0-0.5,0.4-1,1-1H706c0.5,0,1,0.4,1,1v15.8
		C707,625.9,706.6,626.3,706,626.3z"/>
</g>
</svg>
