<svg xmlns="http://www.w3.org/2000/svg" xmlns:xlink="http://www.w3.org/1999/xlink" width="1080" height="1080" viewBox="0 0 1080 1080">
  <defs>
    <clipPath id="clip-path">
      <circle id="椭圆_138" data-name="椭圆 138" cx="540" cy="540" r="540" transform="translate(1 -2.3)"/>
    </clipPath>
    <clipPath id="clip-path-2">
      <circle id="椭圆_146" data-name="椭圆 146" cx="540" cy="540" r="540" transform="translate(-2.3 1.1)"/>
    </clipPath>
  </defs>
  <g id="face_4" transform="translate(2.3 -1.1)">
    <g id="组_387" data-name="组 387" transform="translate(-3.3 3.4)" clip-path="url(#clip-path)">
      <rect id="矩形_300" data-name="矩形 300" width="1084.6" height="1082.3" fill="#fff"/>
    </g>
    <g id="组_409" data-name="组 409" clip-path="url(#clip-path-2)">
      <g id="组_390" data-name="组 390">
        <g id="组_388" data-name="组 388">
          <circle id="椭圆_139" data-name="椭圆 139" cx="177.8" cy="177.8" r="177.8" transform="translate(709.4 14.7)" fill="#002539"/>
          <path id="路径_864" data-name="路径 864" d="M857.9,221.9A177.829,177.829,0,0,1,819.3,28.3a177.633,177.633,0,0,0-57.8,38.6c-69.4,69.4-69.4,182,0,251.4s182,69.4,251.4,0a177.633,177.633,0,0,0,38.6-57.8A177.829,177.829,0,0,1,857.9,221.9Z"/>
        </g>
        <g id="组_389" data-name="组 389">
          <circle id="椭圆_140" data-name="椭圆 140" cx="177.8" cy="177.8" r="177.8" transform="translate(22 14.7)" fill="#002539"/>
          <path id="路径_865" data-name="路径 865" d="M229.1,221.9c52.4-52.3,65.2-129.2,38.6-193.6a177.633,177.633,0,0,1,57.8,38.6c69.4,69.4,69.4,182,0,251.4s-182,69.4-251.4,0a177.633,177.633,0,0,1-38.6-57.8A177.829,177.829,0,0,0,229.1,221.9Z"/>
        </g>
      </g>
      <g id="组_395" data-name="组 395">
        <g id="组_393" data-name="组 393">
          <g id="组_391" data-name="组 391">
            <path id="路径_866" data-name="路径 866" d="M349.9,610.3a48.4,48.4,0,1,1-48.4-48.4A48.439,48.439,0,0,1,349.9,610.3Z" fill="#f4b497"/>
            <circle id="椭圆_141" data-name="椭圆 141" cx="19.4" cy="19.4" r="19.4" transform="translate(282.1 590.9)" fill="#e9686a"/>
          </g>
          <g id="组_392" data-name="组 392">
            <path id="路径_867" data-name="路径 867" d="M833.9,610.3a48.4,48.4,0,1,1-48.4-48.4A48.439,48.439,0,0,1,833.9,610.3Z" fill="#f4b497"/>
            <circle id="椭圆_142" data-name="椭圆 142" cx="19.4" cy="19.4" r="19.4" transform="translate(766.1 590.9)" fill="#e9686a"/>
          </g>
        </g>
        <g id="组_394" data-name="组 394">
          <path id="路径_868" data-name="路径 868" d="M301.5,656.3a12.1,12.1,0,1,1-12.1-12.1A12.078,12.078,0,0,1,301.5,656.3Z" fill="#d9dbee"/>
          <path id="路径_869" data-name="路径 869" d="M809.7,656.3a12.1,12.1,0,1,1-12.1-12.1A12.078,12.078,0,0,1,809.7,656.3Z" fill="#d9dbee"/>
        </g>
      </g>
      <circle id="椭圆_143" data-name="椭圆 143" cx="320" cy="320" r="320" transform="translate(223.5 79.9)" fill="#002539"/>
      <path id="路径_870" data-name="路径 870" d="M543.5,654.8c-165.7,0-302-126-318.4-287.4a319.141,319.141,0,0,0-1.6,32.6c0,176.7,143.3,320,320,320s320-143.3,320-320c0-11-.6-21.9-1.6-32.6C845.5,528.8,709.2,654.8,543.5,654.8Z"/>
      <g id="组_408" data-name="组 408">
        <g id="组_399" data-name="组 399">
          <g id="组_396" data-name="组 396">
            <rect id="矩形_301" data-name="矩形 301" width="272.8" height="324.2" transform="translate(410.4 808.7)" fill="#ee927e"/>
            <path id="路径_871" data-name="路径 871" d="M410.4,808.7V931.2l18.4,18.4a170.262,170.262,0,0,0,240.8,0L683.2,936V808.7Z" fill="#ec7f77"/>
          </g>
          <g id="组_398" data-name="组 398">
            <g id="组_397" data-name="组 397">
              <path id="路径_872" data-name="路径 872" d="M584.9,973.3H694.3v128.3H456.5Z" fill="#c5c9e6"/>
              <path id="路径_873" data-name="路径 873" d="M506.3,973.3H396.8v128.3H634.6Z" fill="#d9dbee"/>
            </g>
            <rect id="矩形_302" data-name="矩形 302" width="326.7" height="140" transform="translate(382.3 1072.4)" fill="#b7184a"/>
            <path id="路径_874" data-name="路径 874" d="M563.1,1142.4a17.5,17.5,0,1,1-17.5-17.5A17.455,17.455,0,0,1,563.1,1142.4Z" fill="#d9dbee"/>
          </g>
        </g>
        <path id="路径_875" data-name="路径 875" d="M780.9,714.7v-273c0-131.1-106.3-237.4-237.4-237.4h0c-131.1,0-237.4,106.3-237.4,237.4V712.9A169.887,169.887,0,0,0,356,833.3l68,68a170.262,170.262,0,0,0,240.8,0L731,835A170.248,170.248,0,0,0,780.9,714.7Z" fill="#f6c09c"/>
        <path id="路径_876" data-name="路径 876" d="M543.5,204.3h0c-131.1,0-237.4,106.3-237.4,237.4V589.6H780.9V441.7C780.9,310.6,674.6,204.3,543.5,204.3Z" fill="#f4b497"/>
        <path id="路径_877" data-name="路径 877" d="M664.8,823.9a170.262,170.262,0,0,1-240.8,0l-68-68a170.306,170.306,0,0,1-49.9-120.4v77.4A169.887,169.887,0,0,0,356,833.3l68,68a170.262,170.262,0,0,0,240.8,0L731,835a170.306,170.306,0,0,0,49.9-120.4V637.2A169.887,169.887,0,0,1,731,757.6Z" fill="#f4b497"/>
        <g id="组_401" data-name="组 401">
          <g id="组_400" data-name="组 400">
            <path id="路径_878" data-name="路径 878" d="M599.2,759.6v-.2h0A33.248,33.248,0,0,0,566,726.5a32.8,32.8,0,0,0-22.3,8.6,32.8,32.8,0,0,0-22.3-8.6,33.248,33.248,0,0,0-33.2,32.9h0v.3h0a55.6,55.6,0,0,0,111.2,0h0C599.2,759.7,599.2,759.6,599.2,759.6Z" fill="#ee2761"/>
          </g>
          <path id="路径_879" data-name="路径 879" d="M583.3,761a7.6,7.6,0,0,1-7.6,7.6H511.5a7.6,7.6,0,0,1-7.6-7.6h0a7.6,7.6,0,0,1,7.6-7.6h64.2a7.6,7.6,0,0,1,7.6,7.6Z" fill="#b7184a"/>
        </g>
        <g id="组_406" data-name="组 406">
          <g id="组_403" data-name="组 403">
            <g id="组_402" data-name="组 402">
              <path id="路径_880" data-name="路径 880" d="M424.1,628.4h0a21.467,21.467,0,0,1-21.5-21.5V578.3a21.467,21.467,0,0,1,21.5-21.5h0a21.467,21.467,0,0,1,21.5,21.5v28.6A21.467,21.467,0,0,1,424.1,628.4Z"/>
            </g>
            <path id="路径_881" data-name="路径 881" d="M490.2,650.4H358a5.549,5.549,0,0,1-5.5-5.5h0a5.549,5.549,0,0,1,5.5-5.5H490.2a5.549,5.549,0,0,1,5.5,5.5h0A5.421,5.421,0,0,1,490.2,650.4Z" fill="#f4b497"/>
          </g>
          <g id="组_405" data-name="组 405">
            <g id="组_404" data-name="组 404">
              <path id="路径_882" data-name="路径 882" d="M666.4,628.4h0a21.467,21.467,0,0,1-21.5-21.5V578.3a21.467,21.467,0,0,1,21.5-21.5h0a21.467,21.467,0,0,1,21.5,21.5v28.6A21.6,21.6,0,0,1,666.4,628.4Z"/>
            </g>
            <path id="路径_883" data-name="路径 883" d="M732.5,650.4H600.2a5.549,5.549,0,0,1-5.5-5.5h0a5.549,5.549,0,0,1,5.5-5.5H732.4a5.549,5.549,0,0,1,5.5,5.5h0A5.4,5.4,0,0,1,732.5,650.4Z" fill="#f4b497"/>
          </g>
        </g>
        <g id="组_407" data-name="组 407">
          <path id="路径_884" data-name="路径 884" d="M525,678.1a9.7,9.7,0,1,1-9.7-9.7A9.709,9.709,0,0,1,525,678.1Z" fill="#e9686a"/>
          <path id="路径_885" data-name="路径 885" d="M583.1,678.1a9.7,9.7,0,1,1-9.7-9.7A9.709,9.709,0,0,1,583.1,678.1Z" fill="#e9686a"/>
        </g>
        <path id="路径_886" data-name="路径 886" d="M467,709.5a50.8,50.8,0,1,1-50.8-50.8A50.808,50.808,0,0,1,467,709.5Z" fill="#f3b29e"/>
        <path id="路径_887" data-name="路径 887" d="M723.4,709.5a50.8,50.8,0,1,1-50.8-50.8A50.808,50.808,0,0,1,723.4,709.5Z" fill="#f3b29e"/>
      </g>
      <path id="路径_888" data-name="路径 888" d="M797.4,541.6V446.8c0-140.2-113.7-253.9-253.9-253.9h0c-140.2,0-253.9,113.7-253.9,253.9v94.8Z" fill="#002539"/>
      <circle id="椭圆_144" data-name="椭圆 144" cx="38.5" cy="38.5" r="38.5" transform="translate(878.1 56.3)" fill="#133c4b"/>
      <circle id="椭圆_145" data-name="椭圆 145" cx="47.4" cy="47.4" r="47.4" transform="translate(72.2 127.4)" fill="#133c4b"/>
    </g>
  </g>
</svg>
