<svg xmlns="http://www.w3.org/2000/svg" xmlns:xlink="http://www.w3.org/1999/xlink" width="1080" height="1080" viewBox="0 0 1080 1080">
  <defs>
    <clipPath id="clip-path">
      <circle id="椭圆_124" data-name="椭圆 124" cx="540" cy="540" r="540" transform="translate(1 -2.3)"/>
    </clipPath>
    <clipPath id="clip-path-2">
      <circle id="椭圆_128" data-name="椭圆 128" cx="540" cy="540" r="540" transform="translate(-2.3 1.1)"/>
    </clipPath>
  </defs>
  <g id="face_1" transform="translate(2.3 -1.1)">
    <g id="组_365" data-name="组 365" transform="translate(-3.3 3.4)" clip-path="url(#clip-path)">
      <rect id="矩形_291" data-name="矩形 291" width="1084.6" height="1082.3" fill="#fff"/>
    </g>
    <g id="组_371" data-name="组 371" clip-path="url(#clip-path-2)">
      <circle id="椭圆_125" data-name="椭圆 125" cx="484.3" cy="484.3" r="484.3" transform="translate(53.5 -82.5)" fill="#ee4042"/>
      <path id="路径_816" data-name="路径 816" d="M1000.3,257.7c-60.8,198-245.1,342-463,342C320,599.7,136.2,456.6,74.8,259.6A484.676,484.676,0,0,0,53.6,401.9c0,267.5,216.8,484.3,484.3,484.3s484.3-216.8,484.3-484.3A486.334,486.334,0,0,0,1000.3,257.7Z" fill="#ca3537"/>
      <circle id="椭圆_126" data-name="椭圆 126" cx="342.1" cy="342.1" r="342.1" transform="translate(195.7 59.7)" fill="#9f2627"/>
      <g id="组_366" data-name="组 366">
        <path id="路径_817" data-name="路径 817" d="M830.8,640.5H244.6a51.171,51.171,0,0,1-51.2-51.2h0a51.171,51.171,0,0,1,51.2-51.2H830.8A51.171,51.171,0,0,1,882,589.3h0A51.235,51.235,0,0,1,830.8,640.5Z" fill="#f4b497"/>
        <path id="路径_818" data-name="路径 818" d="M830.8,588.5H244.6a51.084,51.084,0,0,1-44.1-25.2,50.9,50.9,0,0,0-7.1,26h0a51.171,51.171,0,0,0,51.2,51.2H830.8A51.171,51.171,0,0,0,882,589.3h0a50.9,50.9,0,0,0-7.1-26A51.3,51.3,0,0,1,830.8,588.5Z" fill="#ee927e"/>
      </g>
      <circle id="椭圆_127" data-name="椭圆 127" cx="312.9" cy="312.9" r="312.9" transform="translate(224.9 115.7)" fill="#002539"/>
      <rect id="矩形_292" data-name="矩形 292" width="338.8" height="442.8" transform="translate(368.3 719.2)" fill="#ee927e"/>
      <path id="路径_819" data-name="路径 819" d="M548.5,1065.9H527A158.59,158.59,0,0,1,368.4,907.3V753.9H707.2V907.3C707.1,994.9,636.1,1065.9,548.5,1065.9Z" fill="#ec8178"/>
      <path id="路径_820" data-name="路径 820" d="M537.7,976.1h0c-146.6,0-265.5-118.9-265.5-265.5V428.5C272.2,281.9,391.1,163,537.7,163h0c146.6,0,265.5,118.9,265.5,265.5v282C803.2,857.2,684.4,976.1,537.7,976.1Z" fill="#f6c09c"/>
      <path id="路径_821" data-name="路径 821" d="M537.7,163h0c-146.6,0-265.5,118.9-265.5,265.5v65.1a78.586,78.586,0,0,1,73.9-51.7H569.7A259.722,259.722,0,0,0,784,329.2C744.7,231.8,649.3,163,537.7,163Z" fill="#ee927e"/>
      <path id="路径_822" data-name="路径 822" d="M537.7,876.8h0c-146.6,0-265.5-118.9-265.5-265.5v99.3c0,146.6,118.9,265.5,265.5,265.5h0c146.6,0,265.5-118.9,265.5-265.5V611.3C803.2,758,684.4,876.8,537.7,876.8Z" fill="#f4b497"/>
      <rect id="矩形_293" data-name="矩形 293" width="444.4" height="104" transform="translate(315.6 1108.4)" fill="#0980b7"/>
      <g id="组_369" data-name="组 369">
        <g id="组_367" data-name="组 367">
          <path id="路径_823" data-name="路径 823" d="M443.2,558.5a17.3,17.3,0,1,1-17.3-17.3A17.306,17.306,0,0,1,443.2,558.5Z" fill="#002539"/>
          <path id="路径_824" data-name="路径 824" d="M456.6,538H395.1A22.107,22.107,0,0,1,373,515.9h0a22.107,22.107,0,0,1,22.1-22.1h61.5a22.107,22.107,0,0,1,22.1,22.1h0A22.107,22.107,0,0,1,456.6,538Z" fill="#f2a491"/>
          <path id="路径_825" data-name="路径 825" d="M456.6,511.3H395.1A22.107,22.107,0,0,1,373,489.2h0a22.107,22.107,0,0,1,22.1-22.1h61.5a22.107,22.107,0,0,1,22.1,22.1h0A22.171,22.171,0,0,1,456.6,511.3Z" fill="#002539"/>
        </g>
        <g id="组_368" data-name="组 368">
          <path id="路径_826" data-name="路径 826" d="M666.9,558.5a17.3,17.3,0,1,1-17.3-17.3A17.306,17.306,0,0,1,666.9,558.5Z" fill="#002539"/>
          <path id="路径_827" data-name="路径 827" d="M680.3,538H618.8a22.107,22.107,0,0,1-22.1-22.1h0a22.107,22.107,0,0,1,22.1-22.1h61.5a22.107,22.107,0,0,1,22.1,22.1h0A22.043,22.043,0,0,1,680.3,538Z" fill="#f2a491"/>
          <path id="路径_828" data-name="路径 828" d="M680.3,511.3H618.8a22.107,22.107,0,0,1-22.1-22.1h0a22.107,22.107,0,0,1,22.1-22.1h61.5a22.107,22.107,0,0,1,22.1,22.1h0A22.107,22.107,0,0,1,680.3,511.3Z" fill="#002539"/>
        </g>
      </g>
      <path id="路径_829" data-name="路径 829" d="M417.2,640.5v.8a120.5,120.5,0,1,0,241,0v-.8Z" fill="#fff"/>
      <path id="路径_830" data-name="路径 830" d="M672.2-30.5A215,215,0,0,0,465.8,124.1C327.7,156.6,224.9,280.6,224.9,428.6A311.29,311.29,0,0,0,269,588.8h3.2V490.2a67,67,0,0,1,67-67H529.9c113.7,0,207.4-85.5,220.3-195.7h1.5v-258Z" fill="#002539"/>
      <g id="组_370" data-name="组 370">
        <path id="路径_831" data-name="路径 831" d="M226,402.6c-.7,8.6-1.1,17.2-1.1,26A311.29,311.29,0,0,0,269,588.8h3.2V537.2H269A311.214,311.214,0,0,1,226,402.6Z"/>
        <path id="路径_832" data-name="路径 832" d="M529.9,371.6H339.2a67,67,0,0,0-67,67v51.6a67,67,0,0,1,67-67H529.9c113.7,0,207.4-85.5,220.3-195.7h1.5V176h-1.5C737.3,286.1,643.6,371.6,529.9,371.6Z"/>
      </g>
      <path id="路径_833" data-name="路径 833" d="M589.4,257.6h0a29.021,29.021,0,0,1-29-29V108.2a29.021,29.021,0,0,1,29-29h0a29.021,29.021,0,0,1,29,29V228.6A28.83,28.83,0,0,1,589.4,257.6Z" fill="#0b3442"/>
      <path id="路径_834" data-name="路径 834" d="M444.3,289.9h0a19.418,19.418,0,0,1-19.4-19.4V206a19.418,19.418,0,0,1,19.4-19.4h0A19.418,19.418,0,0,1,463.7,206v64.5A19.483,19.483,0,0,1,444.3,289.9Z" fill="#0b3442"/>
    </g>
  </g>
</svg>
