<svg xmlns="http://www.w3.org/2000/svg" xmlns:xlink="http://www.w3.org/1999/xlink" width="345.795" height="75.736" viewBox="0 0 345.795 75.736">
  <defs>
    <linearGradient id="linear-gradient" y1="0.5" x2="1" y2="0.5" gradientUnits="objectBoundingBox">
      <stop offset="0.001" stop-color="#ff2cdf"/>
      <stop offset="0.122" stop-color="#e629e2"/>
      <stop offset="0.38" stop-color="#a823e9"/>
      <stop offset="0.749" stop-color="#461af6"/>
      <stop offset="1" stop-color="#0014ff"/>
    </linearGradient>
  </defs>
  <g id="组_1382" data-name="组 1382" transform="translate(-194.675 -1762.515)">
    <path id="路径_2487" data-name="路径 2487" d="M539.661,1799.227l-14.443-29.971a6.034,6.034,0,0,0-5.226-3.017H215.152a6.037,6.037,0,0,0-5.227,3.017l-14.442,29.971a6.035,6.035,0,0,0,0,6.035l14.442,29.971a6.036,6.036,0,0,0,5.227,3.018h304.84a6.033,6.033,0,0,0,5.226-3.018l14.443-29.971A6.035,6.035,0,0,0,539.661,1799.227Z" fill="#c8d1ff"/>
    <path id="路径_2488" data-name="路径 2488" d="M539.661,1795.5l-14.443-29.971a6.034,6.034,0,0,0-5.226-3.017H215.152a6.037,6.037,0,0,0-5.227,3.017L195.483,1795.5a6.037,6.037,0,0,0,0,6.036l14.442,29.97a6.036,6.036,0,0,0,5.227,3.018h304.84a6.033,6.033,0,0,0,5.226-3.018l14.443-29.97A6.037,6.037,0,0,0,539.661,1795.5Z" fill="url(#linear-gradient)"/>
    <g id="组_1380" data-name="组 1380">
      <path id="路径_2489" data-name="路径 2489" d="M519.992,1767.251a1.3,1.3,0,0,1,1.065.555l14.337,29.753.077.159.088.153a1.3,1.3,0,0,1,0,1.3l-.088.153-.077.159-14.337,29.753a1.3,1.3,0,0,1-1.065.555H215.152a1.3,1.3,0,0,1-1.065-.556l-14.337-29.752-.077-.16-.088-.153a1.3,1.3,0,0,1,0-1.3l.088-.154.077-.159,14.337-29.753a1.3,1.3,0,0,1,1.065-.555h304.84m0-4.736H215.152a6.037,6.037,0,0,0-5.227,3.017L195.483,1795.5a6.035,6.035,0,0,0,0,6.035l14.442,29.971a6.036,6.036,0,0,0,5.227,3.018h304.84a6.035,6.035,0,0,0,5.227-3.018l14.442-29.971a6.035,6.035,0,0,0,0-6.035l-14.442-29.971a6.036,6.036,0,0,0-5.227-3.017Z" fill="#fff"/>
    </g>
    <g id="组_1381" data-name="组 1381">
      <path id="路径_2490" data-name="路径 2490" d="M233.55,1813.77c-7.54,0-11.556-3.9-11.556-10.419V1796c0-6.479,4.243-10.381,11.556-10.381a14.717,14.717,0,0,1,8.107,2.311.652.652,0,0,1,.19,1.023l-2.917,4.509a.688.688,0,0,1-1.061.227,8.085,8.085,0,0,0-4.055-1.061c-2.765,0-4.281,1.629-4.281,3.789v6.479c0,2.5,1.554,3.864,4.13,3.864a8.89,8.89,0,0,0,4.622-1.288.648.648,0,0,1,1.023.189l2.956,4.509c.265.379.3.72.038.909A14.642,14.642,0,0,1,233.55,1813.77Z" fill="#fff"/>
      <path id="路径_2491" data-name="路径 2491" d="M259.465,1786.908a.68.68,0,0,1,.758-.758H266.1a.68.68,0,0,1,.757.758v25.574a.679.679,0,0,1-.757.758h-5.872a.68.68,0,0,1-.758-.758v-9.434h-6.706v9.434a.681.681,0,0,1-.758.758h-5.873a.681.681,0,0,1-.758-.758v-25.574a.681.681,0,0,1,.758-.758H252a.681.681,0,0,1,.758.758v9.244h6.706Z" fill="#fff"/>
      <path id="路径_2492" data-name="路径 2492" d="M270.11,1813.24a.588.588,0,0,1-.606-.872l8.562-25.612a.811.811,0,0,1,.834-.606h6.972a.809.809,0,0,1,.833.606l8.562,25.612a.587.587,0,0,1-.605.872H288.41a.819.819,0,0,1-.871-.644l-1.024-3.713h-8.221l-1.061,3.713a.819.819,0,0,1-.871.644Zm9.965-10.609h4.66l-2.273-8.449h-.152Z" fill="#fff"/>
      <path id="路径_2493" data-name="路径 2493" d="M298.678,1813.24a.68.68,0,0,1-.758-.758v-25.574a.681.681,0,0,1,.758-.758h6.1a.868.868,0,0,1,.871.531l3.032,5.759a90.89,90.89,0,0,1,4.281,9.169l.151-.039c-.341-3.561-.492-6.895-.492-10v-4.66a.681.681,0,0,1,.758-.758h5.8a.68.68,0,0,1,.757.758v25.574a.679.679,0,0,1-.757.758h-6.062a.98.98,0,0,1-.909-.53l-2.993-5a66.988,66.988,0,0,1-4.66-10.04l-.152.038a88.378,88.378,0,0,1,.833,11.139v3.637a.68.68,0,0,1-.758.758Z" fill="#fff"/>
      <path id="路径_2494" data-name="路径 2494" d="M335.467,1813.77c-7.2,0-11.252-3.9-11.252-10.494v-7.313c0-6.441,4.167-10.343,11.4-10.343a18.227,18.227,0,0,1,9.131,2.425.69.69,0,0,1,.189,1.061l-3.145,4.508a.647.647,0,0,1-1.023.189,10.579,10.579,0,0,0-5.152-1.174c-2.577,0-3.865,1.364-3.865,3.6v6.782c0,2.35,1.213,3.713,3.713,3.713a8.611,8.611,0,0,0,3.258-.644v-3.144h-3.144a.681.681,0,0,1-.758-.758v-4.358a.68.68,0,0,1,.758-.757h9.358a.679.679,0,0,1,.757.757v11.14a1.137,1.137,0,0,1-.341.871A14.34,14.34,0,0,1,335.467,1813.77Z" fill="#fff"/>
      <path id="路径_2495" data-name="路径 2495" d="M357.328,1806.61h10.457a.68.68,0,0,1,.758.757v5.115a.681.681,0,0,1-.758.758H350.7a.681.681,0,0,1-.758-.758v-25.574a.681.681,0,0,1,.758-.758H367.14a.68.68,0,0,1,.758.758v5.115a.679.679,0,0,1-.758.757h-9.812v3.524h8.335a.681.681,0,0,1,.758.758v4.963a.681.681,0,0,1-.758.758h-8.335Z" fill="#fff"/>
      <path id="路径_2496" data-name="路径 2496" d="M377.446,1813.24a.588.588,0,0,1-.606-.872l8.562-25.612a.811.811,0,0,1,.834-.606h6.972a.809.809,0,0,1,.833.606l8.562,25.612a.587.587,0,0,1-.605.872h-6.252a.819.819,0,0,1-.871-.644l-1.024-3.713H385.63l-1.061,3.713a.819.819,0,0,1-.871.644Zm9.965-10.609h4.66l-2.273-8.449h-.152Z" fill="#fff"/>
      <path id="路径_2497" data-name="路径 2497" d="M410.409,1813.24a.812.812,0,0,1-.834-.606l-8.6-25.612a.588.588,0,0,1,.606-.872h6.327a.815.815,0,0,1,.834.645l3.106,10.267c.758,2.5,1.516,5.721,1.971,7.767h.228c.454-2.046,1.212-5.266,1.969-7.767l3.107-10.267a.816.816,0,0,1,.834-.645h6.327a.588.588,0,0,1,.606.872l-8.6,25.612a.811.811,0,0,1-.834.606Z" fill="#fff"/>
      <path id="路径_2498" data-name="路径 2498" d="M425.867,1813.24a.588.588,0,0,1-.606-.872l8.562-25.612a.811.811,0,0,1,.834-.606h6.972a.81.81,0,0,1,.833.606l8.562,25.612a.587.587,0,0,1-.6.872h-6.252a.819.819,0,0,1-.871-.644l-1.024-3.713h-8.221l-1.061,3.713a.819.819,0,0,1-.871.644Zm9.965-10.609h4.66l-2.273-8.449h-.152Z" fill="#fff"/>
      <path id="路径_2499" data-name="路径 2499" d="M470.2,1786.15a.681.681,0,0,1,.758.758v5.38a.681.681,0,0,1-.758.758h-6.327v19.436a.681.681,0,0,1-.758.758h-5.872a.68.68,0,0,1-.758-.758v-19.436h-6.328a.68.68,0,0,1-.757-.758v-5.38a.68.68,0,0,1,.757-.758Z" fill="#fff"/>
      <path id="路径_2500" data-name="路径 2500" d="M469.93,1813.24a.588.588,0,0,1-.607-.872l8.563-25.612a.811.811,0,0,1,.834-.606h6.971a.809.809,0,0,1,.833.606l8.563,25.612a.588.588,0,0,1-.606.872h-6.252a.819.819,0,0,1-.871-.644l-1.023-3.713h-8.222l-1.06,3.713a.82.82,0,0,1-.871.644Zm9.964-10.609h4.661l-2.274-8.449h-.151Z" fill="#fff"/>
      <path id="路径_2501" data-name="路径 2501" d="M511.72,1813.24a.869.869,0,0,1-.872-.53l-4.091-7.843h-1.629v7.615a.681.681,0,0,1-.758.758H498.5a.681.681,0,0,1-.758-.758v-25.574a.681.681,0,0,1,.758-.758h9.624c6.592,0,10.268,3.789,10.268,9.548a8.2,8.2,0,0,1-4.775,7.956l5.3,8.677c.3.53.113.909-.493.909Zm-6.592-20.27v5.57h2.614c2.159,0,3.031-.834,3.031-2.8,0-1.856-.872-2.766-3.031-2.766Z" fill="#fff"/>
    </g>
  </g>
</svg>
