<svg xmlns="http://www.w3.org/2000/svg" width="651.663" height="53.811" viewBox="0 0 651.663 53.811">
  <g id="组_1379" data-name="组 1379" transform="translate(-93.442 -1001.103)">
    <g id="组_1376" data-name="组 1376">
      <g id="组_1375" data-name="组 1375">
        <rect id="矩形_656" data-name="矩形 656" width="651.664" height="53.811" rx="26.905" transform="translate(93.442 1001.103)" fill="#33363c"/>
      </g>
    </g>
    <g id="组_1378" data-name="组 1378">
      <g id="组_1377" data-name="组 1377">
        <path id="路径_2439" data-name="路径 2439" d="M134.959,1021.993c0,.229-.1.356-.294.356h-6.24v5.291h5.419c.175,0,.273.127.273.381v2.035c0,.255-.1.382-.273.382h-5.419v6.893c0,.255-.1.382-.274.382h-1.8c-.175,0-.273-.127-.273-.382v-17.424c0-.255.1-.381.273-.381h8.314c.2,0,.294.126.294.381Z" fill="#fff"/>
        <path id="路径_2440" data-name="路径 2440" d="M142,1038.018c-3.463,0-5.5-2.62-5.5-7.072v-4.68c0-4.451,2.034-7.046,5.5-7.046s5.5,2.6,5.5,7.046v4.68C147.5,1035.4,145.465,1038.018,142,1038.018Zm0-2.9c2.034,0,3.091-1.45,3.091-4.172v-4.654c0-2.747-1.057-4.2-3.091-4.2s-3.091,1.451-3.091,4.2v4.654C138.912,1033.668,139.968,1035.118,142,1035.118Z" fill="#fff"/>
        <path id="路径_2441" data-name="路径 2441" d="M158.084,1037.713a.36.36,0,0,1-.332-.255l-3.424-6.384h-1.741v6.257c0,.255-.1.382-.274.382h-1.8c-.176,0-.274-.127-.274-.382v-17.424c0-.255.1-.381.274-.381h4.538c3.208,0,5.086,2.162,5.086,5.8,0,2.8-1.194,4.706-3.248,5.418l3.581,6.512c.136.279.039.458-.176.458Zm-5.5-15.364v5.977h2.465c1.819,0,2.68-.941,2.68-2.976,0-2.06-.861-3-2.68-3Z" fill="#fff"/>
        <path id="路径_2442" data-name="路径 2442" d="M167.2,1037.713c-.176,0-.273-.127-.273-.382v-17.424c0-.255.1-.381.273-.381h2.132c.138,0,.255.076.313.279l2.387,5.774c.528,1.272,1.35,3.561,1.662,4.477h.079c.313-.916,1.134-3.205,1.662-4.477l2.368-5.774c.078-.2.195-.279.332-.279h2.113c.2,0,.293.126.293.381v17.424q0,.383-.293.382h-1.78c-.176,0-.274-.127-.274-.382v-5.113c0-2.391.078-5.494.156-7.987l-.058-.025c-.47,1.322-1.115,3.027-1.761,4.706l-1.722,4.349a.351.351,0,0,1-.332.28h-1.487a.353.353,0,0,1-.332-.28l-1.722-4.349c-.645-1.679-1.291-3.384-1.76-4.706l-.059.025c.078,2.493.156,5.6.156,7.987v5.113c0,.255-.1.382-.293.382Z" fill="#fff"/>
        <path id="路径_2443" data-name="路径 2443" d="M188.78,1038.018c-3.463,0-5.5-2.62-5.5-7.072v-4.68c0-4.451,2.034-7.046,5.5-7.046s5.5,2.6,5.5,7.046v4.68C194.276,1035.4,192.242,1038.018,188.78,1038.018Zm0-2.9c2.034,0,3.091-1.45,3.091-4.172v-4.654c0-2.747-1.057-4.2-3.091-4.2s-3.091,1.451-3.091,4.2v4.654C185.689,1033.668,186.745,1035.118,188.78,1035.118Z" fill="#fff"/>
        <path id="路径_2444" data-name="路径 2444" d="M199.384,1034.915h6.279c.2,0,.294.127.294.356v2.06q0,.383-.294.382h-8.372c-.176,0-.274-.127-.274-.382v-17.424c0-.255.1-.381.274-.381h8.1c.2,0,.292.126.292.381v2.06c0,.229-.1.356-.292.356h-6.006v4.757h5.5c.2,0,.294.127.294.382v2.035c0,.254-.1.381-.294.381h-5.5Z" fill="#fff"/>
        <path id="路径_2445" data-name="路径 2445" d="M216.326,1037.713a.36.36,0,0,1-.332-.255l-3.424-6.384h-1.741v6.257c0,.255-.1.382-.273.382h-1.8c-.176,0-.274-.127-.274-.382v-17.424c0-.255.1-.381.274-.381h4.538c3.208,0,5.086,2.162,5.086,5.8,0,2.8-1.194,4.706-3.247,5.418l3.58,6.512c.136.279.039.458-.176.458Zm-5.5-15.364v5.977h2.465c1.819,0,2.68-.941,2.68-2.976,0-2.06-.861-3-2.68-3Z" fill="#fff"/>
        <path id="路径_2446" data-name="路径 2446" d="M230.14,1038.018c-2.916,0-5.4-2.01-5.4-6.487v-5.8c0-4.477,2.5-6.512,5.359-6.512a6.318,6.318,0,0,1,4.187,1.7.407.407,0,0,1,.059.509l-.919,1.73c-.1.229-.236.229-.411.1a4.381,4.381,0,0,0-2.916-1.145c-1.9,0-2.992,1.374-2.992,3.637v5.7c0,2.315,1.115,3.663,3.012,3.663a4.851,4.851,0,0,0,3.248-1.322c.156-.153.293-.128.391.1l.92,1.73a.449.449,0,0,1-.039.534A6.314,6.314,0,0,1,230.14,1038.018Z" fill="#fff"/>
        <path id="路径_2447" data-name="路径 2447" d="M244.636,1019.907c0-.255.1-.381.274-.381h1.8c.177,0,.274.126.274.381v17.424c0,.255-.1.382-.274.382h-1.8c-.177,0-.274-.127-.274-.382v-7.4h-5.517v7.4c0,.255-.1.382-.273.382h-1.8c-.176,0-.274-.127-.274-.382v-17.424c0-.255.1-.381.274-.381h1.8c.175,0,.273.126.273.381v7.2h5.517Z" fill="#fff"/>
        <path id="路径_2448" data-name="路径 2448" d="M255.221,1038.018c-3.463,0-5.5-2.62-5.5-7.072v-4.68c0-4.451,2.035-7.046,5.5-7.046s5.5,2.6,5.5,7.046v4.68C260.717,1035.4,258.682,1038.018,255.221,1038.018Zm0-2.9c2.034,0,3.09-1.45,3.09-4.172v-4.654c0-2.747-1.056-4.2-3.09-4.2s-3.091,1.451-3.091,4.2v4.654C252.13,1033.668,253.185,1035.118,255.221,1035.118Z" fill="#fff"/>
        <path id="路径_2449" data-name="路径 2449" d="M265.8,1037.331c0,.255-.1.382-.274.382h-1.8c-.175,0-.273-.127-.273-.382v-17.424c0-.255.1-.381.273-.381h1.8c.176,0,.274.126.274.381Z" fill="#fff"/>
        <path id="路径_2450" data-name="路径 2450" d="M273.983,1038.018c-2.915,0-5.4-2.01-5.4-6.487v-5.8c0-4.477,2.5-6.512,5.359-6.512a6.318,6.318,0,0,1,4.187,1.7.407.407,0,0,1,.058.509l-.919,1.73c-.1.229-.235.229-.411.1a4.379,4.379,0,0,0-2.915-1.145c-1.9,0-2.992,1.374-2.992,3.637v5.7c0,2.315,1.114,3.663,3.012,3.663a4.851,4.851,0,0,0,3.248-1.322c.156-.153.293-.128.39.1l.92,1.73a.446.446,0,0,1-.039.534A6.312,6.312,0,0,1,273.983,1038.018Z" fill="#fff"/>
        <path id="路径_2451" data-name="路径 2451" d="M282.981,1034.915h6.28c.2,0,.294.127.294.356v2.06q0,.383-.294.382h-8.372c-.176,0-.274-.127-.274-.382v-17.424c0-.255.1-.381.274-.381h8.1c.2,0,.293.126.293.381v2.06c0,.229-.1.356-.293.356h-6.006v4.757h5.5q.294,0,.294.382v2.035q0,.381-.294.381h-5.5Z" fill="#fff"/>
        <path id="路径_2452" data-name="路径 2452" d="M296.442,1038.018a6.612,6.612,0,0,1-4.988-2.442.452.452,0,0,1-.06-.534l.979-1.781a.229.229,0,0,1,.392-.076,5.891,5.891,0,0,0,3.775,1.933,2.559,2.559,0,0,0,2.836-2.518c0-1.832-1.467-2.289-3.169-2.747-2.054-.56-4.753-1.781-4.753-5.571,0-3.536,2.4-5.062,5.223-5.062a6.568,6.568,0,0,1,4.6,2.01.385.385,0,0,1,.078.508l-.938,1.756c-.1.2-.255.2-.411.076a5.746,5.746,0,0,0-3.5-1.476c-1.683,0-2.661.866-2.661,2.239,0,1.628,1.252,2.06,2.973,2.569,2.289.662,4.989,1.628,4.989,5.647C301.8,1036.364,299.3,1038.018,296.442,1038.018Z" fill="#fff"/>
        <path id="路径_2453" data-name="路径 2453" d="M304.777,1040.587a.339.339,0,0,1-.333.3h-1.369c-.215,0-.294-.178-.255-.432l1.115-5.6c.039-.228.137-.33.314-.33h1.721c.2,0,.294.178.235.432Z" fill="#fff"/>
        <path id="路径_2454" data-name="路径 2454" d="M317.807,1019.526c3.09,0,4.91,2.34,4.91,6.206,0,3.917-1.82,6.232-4.91,6.232h-2.876v5.367c0,.255-.1.382-.274.382h-1.8c-.175,0-.273-.127-.273-.382v-17.424c0-.255.1-.381.273-.381Zm-.275,9.589c1.9,0,2.778-1.068,2.778-3.383,0-2.289-.879-3.358-2.778-3.358h-2.6v6.741Z" fill="#fff"/>
        <path id="路径_2455" data-name="路径 2455" d="M325.222,1037.713c-.176,0-.274-.127-.274-.382v-17.424c0-.255.1-.381.274-.381h1.819c.176,0,.273.126.273.381v14.982h5.752c.2,0,.293.127.293.356v2.086c0,.255-.1.382-.293.382Z" fill="#fff"/>
        <path id="路径_2456" data-name="路径 2456" d="M337.565,1034.915h6.28c.2,0,.294.127.294.356v2.06q0,.383-.294.382h-8.372c-.176,0-.274-.127-.274-.382v-17.424c0-.255.1-.381.274-.381h8.1c.195,0,.293.126.293.381v2.06c0,.229-.1.356-.293.356h-6.006v4.757h5.5q.294,0,.294.382v2.035q0,.381-.294.381h-5.5Z" fill="#fff"/>
        <path id="路径_2457" data-name="路径 2457" d="M345.432,1037.713c-.216,0-.294-.153-.236-.433l4.695-17.449c.059-.2.157-.3.313-.3h2.23c.157,0,.254.1.313.3l4.695,17.449c.059.28-.039.433-.235.433H355.29a.338.338,0,0,1-.332-.306l-.959-3.84H348.64l-.959,3.84c-.059.2-.176.306-.333.306Zm3.873-6.919h4.029l-1.976-7.911h-.078Z" fill="#fff"/>
        <path id="路径_2458" data-name="路径 2458" d="M363.45,1038.018a6.612,6.612,0,0,1-4.988-2.442.452.452,0,0,1-.06-.534l.979-1.781a.228.228,0,0,1,.391-.076,5.9,5.9,0,0,0,3.776,1.933,2.559,2.559,0,0,0,2.836-2.518c0-1.832-1.467-2.289-3.169-2.747-2.054-.56-4.753-1.781-4.753-5.571,0-3.536,2.4-5.062,5.222-5.062a6.568,6.568,0,0,1,4.6,2.01.386.386,0,0,1,.078.508l-.938,1.756c-.1.2-.255.2-.411.076a5.749,5.749,0,0,0-3.5-1.476c-1.683,0-2.661.866-2.661,2.239,0,1.628,1.251,2.06,2.973,2.569,2.289.662,4.988,1.628,4.988,5.647C368.809,1036.364,366.306,1038.018,363.45,1038.018Z" fill="#fff"/>
        <path id="路径_2459" data-name="路径 2459" d="M373.525,1034.915h6.28c.2,0,.293.127.293.356v2.06c0,.255-.1.382-.293.382h-8.373c-.175,0-.273-.127-.273-.382v-17.424c0-.255.1-.381.273-.381h8.1c.2,0,.293.126.293.381v2.06c0,.229-.1.356-.293.356h-6.006v4.757h5.5q.294,0,.294.382v2.035q0,.381-.294.381h-5.5Z" fill="#fff"/>
        <path id="路径_2460" data-name="路径 2460" d="M391.817,1038.018c-2.914,0-5.4-2.01-5.4-6.487v-5.8c0-4.477,2.5-6.512,5.359-6.512a6.318,6.318,0,0,1,4.187,1.7.407.407,0,0,1,.058.509l-.919,1.73c-.1.229-.235.229-.411.1a4.379,4.379,0,0,0-2.915-1.145c-1.9,0-2.992,1.374-2.992,3.637v5.7c0,2.315,1.114,3.663,3.012,3.663a4.851,4.851,0,0,0,3.248-1.322c.156-.153.293-.128.39.1l.92,1.73a.445.445,0,0,1-.039.534A6.313,6.313,0,0,1,391.817,1038.018Z" fill="#fff"/>
        <path id="路径_2461" data-name="路径 2461" d="M403.342,1038.018c-3.463,0-5.5-2.62-5.5-7.072v-4.68c0-4.451,2.034-7.046,5.5-7.046s5.5,2.6,5.5,7.046v4.68C408.838,1035.4,406.8,1038.018,403.342,1038.018Zm0-2.9c2.034,0,3.09-1.45,3.09-4.172v-4.654c0-2.747-1.056-4.2-3.09-4.2s-3.091,1.451-3.091,4.2v4.654C400.251,1033.668,401.307,1035.118,403.342,1035.118Z" fill="#fff"/>
        <path id="路径_2462" data-name="路径 2462" d="M411.852,1037.713c-.175,0-.273-.127-.273-.382v-17.424c0-.255.1-.381.273-.381h2.132c.138,0,.255.076.314.279l2.386,5.774c.529,1.272,1.35,3.561,1.663,4.477h.078c.313-.916,1.134-3.205,1.663-4.477l2.367-5.774c.078-.2.2-.279.332-.279H424.9c.2,0,.293.126.293.381v17.424c0,.255-.1.382-.293.382h-1.78c-.176,0-.273-.127-.273-.382v-5.113c0-2.391.078-5.494.156-7.987l-.059-.025c-.47,1.322-1.115,3.027-1.761,4.706l-1.721,4.349a.353.353,0,0,1-.332.28h-1.488a.353.353,0,0,1-.332-.28l-1.721-4.349c-.646-1.679-1.291-3.384-1.761-4.706l-.059.025c.079,2.493.157,5.6.157,7.987v5.113q0,.383-.293.382Z" fill="#fff"/>
        <path id="路径_2463" data-name="路径 2463" d="M430.77,1034.915h6.28c.2,0,.294.127.294.356v2.06q0,.383-.294.382h-8.372c-.176,0-.274-.127-.274-.382v-17.424c0-.255.1-.381.274-.381h8.1c.2,0,.293.126.293.381v2.06c0,.229-.1.356-.293.356H430.77v4.757h5.5q.294,0,.294.382v2.035q0,.381-.294.381h-5.5Z" fill="#fff"/>
        <path id="路径_2464" data-name="路径 2464" d="M447.243,1037.713c-.156,0-.254-.1-.332-.306l-4.734-17.449c-.059-.28.019-.432.235-.432h1.956c.156,0,.273.1.313.3l2.562,9.843c.392,1.5.783,3.155,1.135,4.63h.078c.392-1.5.763-3.078,1.154-4.63l2.543-9.843a.337.337,0,0,1,.333-.3h1.956c.2,0,.293.152.215.432l-4.733,17.449c-.06.2-.158.306-.314.306Z" fill="#fff"/>
        <path id="路径_2465" data-name="路径 2465" d="M458.727,1037.331c0,.255-.1.382-.273.382h-1.8c-.176,0-.273-.127-.273-.382v-17.424c0-.255.1-.381.273-.381h1.8c.176,0,.273.126.273.381Z" fill="#fff"/>
        <path id="路径_2466" data-name="路径 2466" d="M466.3,1038.018a6.614,6.614,0,0,1-4.989-2.442.452.452,0,0,1-.059-.534l.978-1.781a.229.229,0,0,1,.392-.076,5.891,5.891,0,0,0,3.775,1.933,2.559,2.559,0,0,0,2.836-2.518c0-1.832-1.467-2.289-3.169-2.747-2.053-.56-4.753-1.781-4.753-5.571,0-3.536,2.406-5.062,5.223-5.062a6.568,6.568,0,0,1,4.6,2.01.388.388,0,0,1,.078.508l-.939,1.756c-.1.2-.255.2-.411.076a5.744,5.744,0,0,0-3.5-1.476c-1.682,0-2.661.866-2.661,2.239,0,1.628,1.252,2.06,2.974,2.569,2.289.662,4.988,1.628,4.988,5.647C471.659,1036.364,469.155,1038.018,466.3,1038.018Z" fill="#fff"/>
        <path id="路径_2467" data-name="路径 2467" d="M476.355,1037.331c0,.255-.1.382-.273.382h-1.8c-.176,0-.273-.127-.273-.382v-17.424c0-.255.1-.381.273-.381h1.8c.176,0,.273.126.273.381Z" fill="#fff"/>
        <path id="路径_2468" data-name="路径 2468" d="M488.719,1019.526c.175,0,.294.126.294.381v2.086c0,.229-.119.356-.294.356h-3.932v14.982c0,.255-.1.382-.274.382h-1.8c-.177,0-.275-.127-.275-.382v-14.982h-3.951c-.176,0-.294-.127-.294-.356v-2.086c0-.255.118-.381.294-.381Z" fill="#fff"/>
        <path id="路径_2469" data-name="路径 2469" d="M499.5,1038.018c-3.463,0-5.5-2.62-5.5-7.072v-4.68c0-4.451,2.034-7.046,5.5-7.046s5.5,2.6,5.5,7.046v4.68C505,1035.4,502.962,1038.018,499.5,1038.018Zm0-2.9c2.034,0,3.091-1.45,3.091-4.172v-4.654c0-2.747-1.057-4.2-3.091-4.2s-3.091,1.451-3.091,4.2v4.654C496.409,1033.668,497.465,1035.118,499.5,1035.118Z" fill="#fff"/>
        <path id="路径_2470" data-name="路径 2470" d="M512.94,1038.018c-3.208,0-5.3-2.62-5.3-6.639v-11.472c0-.255.1-.381.293-.381h1.82c.176,0,.293.126.293.381V1031.2c0,2.543,1.056,3.968,2.895,3.968s2.935-1.425,2.935-3.968v-11.294c0-.255.1-.381.293-.381h1.819c.2,0,.293.126.293.381v11.472C518.28,1035.4,516.187,1038.018,512.94,1038.018Z" fill="#fff"/>
        <path id="路径_2471" data-name="路径 2471" d="M529.237,1037.713a.36.36,0,0,1-.332-.255l-3.424-6.384H523.74v6.257c0,.255-.1.382-.273.382h-1.8c-.176,0-.274-.127-.274-.382v-17.424c0-.255.1-.381.274-.381h4.538c3.208,0,5.086,2.162,5.086,5.8,0,2.8-1.193,4.706-3.247,5.418l3.58,6.512c.137.279.039.458-.176.458Zm-5.5-15.364v5.977h2.465c1.819,0,2.681-.941,2.681-2.976,0-2.06-.862-3-2.681-3Z" fill="#fff"/>
        <path id="路径_2472" data-name="路径 2472" d="M538.354,1037.713c-.175,0-.273-.127-.273-.382v-17.424c0-.255.1-.381.273-.381h4.852c3.247,0,5.281,2.263,5.281,6.715v4.833c0,4.4-2.034,6.639-5.281,6.639Zm2.093-2.875h2.759c1.878,0,2.836-1.2,2.836-3.739v-4.884c0-2.62-.958-3.866-2.836-3.866h-2.759Z" fill="#fff"/>
        <path id="路径_2473" data-name="路径 2473" d="M553.595,1037.331c0,.255-.1.382-.274.382h-1.8c-.175,0-.273-.127-.273-.382v-17.424c0-.255.1-.381.273-.381h1.8c.176,0,.274.126.274.381Z" fill="#fff"/>
        <path id="路径_2474" data-name="路径 2474" d="M561.832,1038.018c-2.876,0-5.458-2.06-5.458-6.512v-5.8c0-4.452,2.484-6.487,5.32-6.487a7.612,7.612,0,0,1,4.7,1.7.412.412,0,0,1,.1.535l-.978,1.755c-.1.2-.235.2-.391.1a5.5,5.5,0,0,0-3.443-1.2c-1.682,0-2.934,1.17-2.934,3.663v5.7c0,2.518,1.408,3.637,3.091,3.637a3.915,3.915,0,0,0,2.738-1.068v-3.867h-2.621c-.177,0-.274-.127-.274-.381v-1.984c0-.254.1-.382.274-.382H566.6c.176,0,.275.128.275.382v7.147c0,.2-.02.331-.1.407A6.031,6.031,0,0,1,561.832,1038.018Z" fill="#fff"/>
        <path id="路径_2475" data-name="路径 2475" d="M571.927,1037.331c0,.255-.1.382-.274.382h-1.8c-.175,0-.273-.127-.273-.382v-17.424c0-.255.1-.381.273-.381h1.8c.176,0,.274.126.274.381Z" fill="#fff"/>
        <path id="路径_2476" data-name="路径 2476" d="M584.291,1019.526c.176,0,.294.126.294.381v2.086c0,.229-.118.356-.294.356h-3.932v14.982c0,.255-.1.382-.274.382h-1.8c-.177,0-.274-.127-.274-.382v-14.982H574.06c-.175,0-.294-.127-.294-.356v-2.086c0-.255.119-.381.294-.381Z" fill="#fff"/>
        <path id="路径_2477" data-name="路径 2477" d="M584.038,1037.713c-.216,0-.294-.153-.235-.433l4.7-17.449c.059-.2.156-.3.312-.3h2.231c.156,0,.254.1.312.3l4.7,17.449c.058.28-.039.433-.236.433H593.9a.338.338,0,0,1-.332-.306l-.959-3.84h-5.359l-.959,3.84c-.059.2-.176.306-.332.306Zm3.873-6.919h4.029l-1.975-7.911h-.078Z" fill="#fff"/>
        <path id="路径_2478" data-name="路径 2478" d="M598.065,1037.713c-.175,0-.273-.127-.273-.382v-17.424c0-.255.1-.381.273-.381h1.82c.175,0,.273.126.273.381v14.982h5.752c.2,0,.293.127.293.356v2.086q0,.383-.293.382Z" fill="#fff"/>
        <path id="路径_2479" data-name="路径 2479" d="M610.019,1037.713c-.215,0-.294-.153-.235-.433l4.7-17.449c.059-.2.157-.3.313-.3h2.23c.157,0,.254.1.313.3l4.7,17.449c.059.28-.039.433-.235.433h-1.917a.338.338,0,0,1-.332-.306l-.959-3.84h-5.36l-.959,3.84c-.058.2-.175.306-.332.306Zm3.873-6.919h4.03l-1.976-7.911h-.078Z" fill="#fff"/>
        <path id="路径_2480" data-name="路径 2480" d="M631.617,1037.713a.36.36,0,0,1-.332-.255l-3.424-6.384H626.12v6.257c0,.255-.1.382-.273.382h-1.8c-.176,0-.274-.127-.274-.382v-17.424c0-.255.1-.381.274-.381h4.538c3.208,0,5.086,2.162,5.086,5.8,0,2.8-1.194,4.706-3.247,5.418l3.58,6.512c.136.279.039.458-.176.458Zm-5.5-15.364v5.977h2.465c1.819,0,2.68-.941,2.68-2.976,0-2.06-.861-3-2.68-3Z" fill="#fff"/>
        <path id="路径_2481" data-name="路径 2481" d="M645.214,1019.526c.176,0,.294.126.294.381v2.086c0,.229-.118.356-.294.356h-3.932v14.982c0,.255-.1.382-.274.382h-1.8c-.177,0-.275-.127-.275-.382v-14.982h-3.951c-.176,0-.294-.127-.294-.356v-2.086c0-.255.118-.381.294-.381Z" fill="#fff"/>
        <path id="路径_2482" data-name="路径 2482" d="M655.33,1038.018a6.612,6.612,0,0,1-4.988-2.442.45.45,0,0,1-.06-.534l.979-1.781a.228.228,0,0,1,.391-.076,5.9,5.9,0,0,0,3.776,1.933,2.559,2.559,0,0,0,2.836-2.518c0-1.832-1.467-2.289-3.169-2.747-2.054-.56-4.753-1.781-4.753-5.571,0-3.536,2.405-5.062,5.222-5.062a6.568,6.568,0,0,1,4.6,2.01.388.388,0,0,1,.078.508l-.938,1.756c-.1.2-.255.2-.411.076a5.749,5.749,0,0,0-3.5-1.476c-1.683,0-2.662.866-2.662,2.239,0,1.628,1.252,2.06,2.974,2.569,2.289.662,4.988,1.628,4.988,5.647C660.689,1036.364,658.185,1038.018,655.33,1038.018Z" fill="#fff"/>
        <path id="路径_2483" data-name="路径 2483" d="M672.076,1019.526c.176,0,.294.126.294.381v2.086c0,.229-.118.356-.294.356h-3.932v14.982c0,.255-.1.382-.274.382h-1.8c-.177,0-.274-.127-.274-.382v-14.982h-3.951c-.176,0-.294-.127-.294-.356v-2.086c0-.255.118-.381.294-.381Z" fill="#fff"/>
        <path id="路径_2484" data-name="路径 2484" d="M679,1038.018c-3.463,0-5.5-2.62-5.5-7.072v-4.68c0-4.451,2.034-7.046,5.5-7.046s5.5,2.6,5.5,7.046v4.68C684.5,1035.4,682.465,1038.018,679,1038.018Zm0-2.9c2.034,0,3.091-1.45,3.091-4.172v-4.654c0-2.747-1.057-4.2-3.091-4.2s-3.091,1.451-3.091,4.2v4.654C675.912,1033.668,676.968,1035.118,679,1035.118Z" fill="#fff"/>
        <path id="路径_2485" data-name="路径 2485" d="M695.084,1037.713a.36.36,0,0,1-.332-.255l-3.424-6.384h-1.741v6.257c0,.255-.1.382-.274.382h-1.8c-.176,0-.274-.127-.274-.382v-17.424c0-.255.1-.381.274-.381h4.538c3.208,0,5.086,2.162,5.086,5.8,0,2.8-1.194,4.706-3.248,5.418l3.581,6.512c.136.279.039.458-.176.458Zm-5.5-15.364v5.977h2.465c1.819,0,2.68-.941,2.68-2.976,0-2.06-.861-3-2.68-3Z" fill="#fff"/>
        <path id="路径_2486" data-name="路径 2486" d="M702.069,1034.915h6.279c.2,0,.294.127.294.356v2.06c0,.255-.1.382-.294.382h-8.372c-.175,0-.273-.127-.273-.382v-17.424c0-.255.1-.381.273-.381h8.1c.2,0,.293.126.293.381v2.06c0,.229-.1.356-.293.356h-6.006v4.757h5.5q.294,0,.294.382v2.035q0,.381-.294.381h-5.5Z" fill="#fff"/>
      </g>
    </g>
  </g>
</svg>
