<svg xmlns="http://www.w3.org/2000/svg" xmlns:xlink="http://www.w3.org/1999/xlink" width="322.584" height="75.736" viewBox="0 0 322.584 75.736">
  <defs>
    <linearGradient id="linear-gradient" y1="0.5" x2="1" y2="0.5" gradientUnits="objectBoundingBox">
      <stop offset="0.001" stop-color="#ff2cdf"/>
      <stop offset="0.122" stop-color="#e629e2"/>
      <stop offset="0.38" stop-color="#a823e9"/>
      <stop offset="0.749" stop-color="#461af6"/>
      <stop offset="1" stop-color="#0014ff"/>
    </linearGradient>
  </defs>
  <g id="组_1374" data-name="组 1374" transform="translate(-208.727 -1825.146)">
    <path id="路径_2425" data-name="路径 2425" d="M530.5,1861.858l-14.442-29.971a6.036,6.036,0,0,0-5.227-3.017H229.2a6.036,6.036,0,0,0-5.227,3.017l-14.442,29.971a6.037,6.037,0,0,0,0,6.036l14.442,29.971a6.036,6.036,0,0,0,5.227,3.017H510.833a6.036,6.036,0,0,0,5.227-3.017l14.442-29.971A6.037,6.037,0,0,0,530.5,1861.858Z" fill="#c8d1ff"/>
    <path id="路径_2426" data-name="路径 2426" d="M530.5,1858.134l-14.442-29.971a6.036,6.036,0,0,0-5.227-3.017H229.2a6.036,6.036,0,0,0-5.227,3.017l-14.442,29.971a6.037,6.037,0,0,0,0,6.036l14.442,29.971a6.036,6.036,0,0,0,5.227,3.017H510.833a6.036,6.036,0,0,0,5.227-3.017L530.5,1864.17A6.037,6.037,0,0,0,530.5,1858.134Z" fill="url(#linear-gradient)"/>
    <g id="组_1372" data-name="组 1372">
      <path id="路径_2427" data-name="路径 2427" d="M510.833,1829.882a1.306,1.306,0,0,1,1.066.555l14.337,29.753.076.159.089.153a1.306,1.306,0,0,1,0,1.3l-.089.153-.076.159L511.9,1891.867a1.3,1.3,0,0,1-1.065.555H229.2a1.3,1.3,0,0,1-1.066-.556L213.8,1862.114l-.077-.159-.089-.154a1.3,1.3,0,0,1,0-1.3l.089-.153.077-.16,14.336-29.752a1.3,1.3,0,0,1,1.066-.556H510.833m0-4.736H229.2a6.037,6.037,0,0,0-5.227,3.017l-14.442,29.971a6.037,6.037,0,0,0,0,6.036l14.442,29.971a6.037,6.037,0,0,0,5.227,3.017H510.833a6.036,6.036,0,0,0,5.227-3.017L530.5,1864.17a6.037,6.037,0,0,0,0-6.036l-14.442-29.971a6.036,6.036,0,0,0-5.227-3.017Z" fill="#fff"/>
    </g>
    <g id="组_1373" data-name="组 1373">
      <path id="路径_2428" data-name="路径 2428" d="M245.843,1876.4a15.153,15.153,0,0,1-10.268-3.827.713.713,0,0,1-.151-1.061l3.144-4.508a.685.685,0,0,1,1.062-.152,12.191,12.191,0,0,0,6.819,2.463c2.2,0,3.031-.645,3.031-1.516,0-1.174-1.705-1.743-3.789-2.159-3.713-.72-9.7-2.8-9.7-9.321,0-5.3,4.736-8.07,10.723-8.07a16.152,16.152,0,0,1,9.433,2.842.692.692,0,0,1,.228,1.06l-2.993,4.509a.718.718,0,0,1-1.061.228,11.738,11.738,0,0,0-5.873-1.63c-2.235,0-2.917.569-2.917,1.288,0,1.062.833,1.4,4.016,2.2,5.948,1.478,9.548,3.524,9.548,8.828C257.1,1872.537,253.421,1876.4,245.843,1876.4Z" fill="#fff"/>
      <path id="路径_2429" data-name="路径 2429" d="M258.46,1875.871a.588.588,0,0,1-.607-.871l8.563-25.612a.811.811,0,0,1,.834-.607h6.972a.811.811,0,0,1,.833.607L283.617,1875a.587.587,0,0,1-.605.871H276.76a.818.818,0,0,1-.871-.644l-1.024-3.713h-8.222l-1.06,3.713a.819.819,0,0,1-.871.644Zm9.965-10.608h4.66l-2.274-8.449h-.151Z" fill="#fff"/>
      <path id="路径_2430" data-name="路径 2430" d="M291.423,1875.871a.811.811,0,0,1-.834-.606l-8.6-25.612a.588.588,0,0,1,.606-.872h6.327a.816.816,0,0,1,.834.645l3.106,10.267c.758,2.5,1.516,5.721,1.971,7.767h.227c.455-2.046,1.212-5.266,1.97-7.767l3.107-10.267a.816.816,0,0,1,.834-.645H307.3a.588.588,0,0,1,.606.872l-8.6,25.612a.811.811,0,0,1-.834.606Z" fill="#fff"/>
      <path id="路径_2431" data-name="路径 2431" d="M317.906,1869.241h10.457a.681.681,0,0,1,.758.758v5.114a.681.681,0,0,1-.758.758H311.275a.681.681,0,0,1-.758-.758v-25.574a.681.681,0,0,1,.758-.758h16.444a.68.68,0,0,1,.757.758v5.115a.679.679,0,0,1-.757.758h-9.813v3.524h8.335a.68.68,0,0,1,.758.757v4.963a.68.68,0,0,1-.758.758h-8.335Z" fill="#fff"/>
      <path id="路径_2432" data-name="路径 2432" d="M333.893,1875.871a.68.68,0,0,1-.757-.758v-25.574a.68.68,0,0,1,.757-.758h9.284c5.834,0,11.176,2.16,11.176,11.026v5.039c0,9.017-5.342,11.025-11.176,11.025Zm6.631-6.933h2.8c2.273,0,3.447-1.061,3.447-3.638v-5.985c0-2.5-1.174-3.6-3.447-3.6h-2.8Z" fill="#fff"/>
      <path id="路径_2433" data-name="路径 2433" d="M363.522,1875.871a.587.587,0,0,1-.606-.871l8.562-25.612a.812.812,0,0,1,.834-.607h6.972a.81.81,0,0,1,.833.607L388.68,1875a.588.588,0,0,1-.606.871h-6.252a.818.818,0,0,1-.871-.644l-1.023-3.713h-8.222l-1.061,3.713a.818.818,0,0,1-.871.644Zm9.965-10.608h4.66l-2.273-8.449h-.151Z" fill="#fff"/>
      <path id="路径_2434" data-name="路径 2434" d="M396.484,1875.871a.811.811,0,0,1-.834-.606l-8.6-25.612a.588.588,0,0,1,.605-.872h6.327a.815.815,0,0,1,.834.645l3.107,10.267c.758,2.5,1.515,5.721,1.97,7.767h.228c.454-2.046,1.212-5.266,1.97-7.767l3.106-10.267a.816.816,0,0,1,.834-.645h6.327a.589.589,0,0,1,.607.872l-8.6,25.612a.81.81,0,0,1-.834.606Z" fill="#fff"/>
      <path id="路径_2435" data-name="路径 2435" d="M411.943,1875.871a.587.587,0,0,1-.606-.871l8.562-25.612a.812.812,0,0,1,.834-.607H427.7a.81.81,0,0,1,.833.607L437.1,1875a.587.587,0,0,1-.605.871h-6.252a.818.818,0,0,1-.871-.644l-1.024-3.713h-8.221l-1.061,3.713a.819.819,0,0,1-.871.644Zm9.965-10.608h4.66l-2.273-8.449h-.152Z" fill="#fff"/>
      <path id="路径_2436" data-name="路径 2436" d="M456.271,1848.781a.681.681,0,0,1,.758.758v5.381a.68.68,0,0,1-.758.757h-6.327v19.436a.68.68,0,0,1-.758.758h-5.872a.679.679,0,0,1-.757-.758v-19.436h-6.329a.679.679,0,0,1-.756-.757v-5.381a.68.68,0,0,1,.756-.758Z" fill="#fff"/>
      <path id="路径_2437" data-name="路径 2437" d="M456.006,1875.871a.588.588,0,0,1-.607-.871l8.563-25.612a.811.811,0,0,1,.834-.607h6.971a.81.81,0,0,1,.833.607L481.163,1875a.587.587,0,0,1-.606.871h-6.251a.82.82,0,0,1-.872-.644l-1.023-3.713h-8.222l-1.06,3.713a.819.819,0,0,1-.871.644Zm9.965-10.608h4.66l-2.274-8.449h-.151Z" fill="#fff"/>
      <path id="路径_2438" data-name="路径 2438" d="M497.8,1875.871a.867.867,0,0,1-.871-.53l-4.092-7.843H491.2v7.615a.681.681,0,0,1-.758.758h-5.873a.681.681,0,0,1-.758-.758v-25.574a.681.681,0,0,1,.758-.758H494.2c6.592,0,10.268,3.789,10.268,9.548a8.2,8.2,0,0,1-4.775,7.957l5.3,8.676c.3.53.113.909-.493.909ZM491.2,1855.6v5.57h2.614c2.159,0,3.031-.833,3.031-2.8,0-1.856-.872-2.766-3.031-2.766Z" fill="#fff"/>
    </g>
  </g>
</svg>
