<svg xmlns="http://www.w3.org/2000/svg" width="70" height="10.83" viewBox="0 0 114.321 8.83">
  <g id="组_1306" data-name="组 1306" transform="translate(305.741 -1747.05)">
    <path id="路径_2263" data-name="路径 2263" d="M-302.407,1755.88c-1.756,0-3.334-.968-3.334-3.059V1750.1a2.948,2.948,0,0,1,3.25-3.047,5.56,5.56,0,0,1,2.868.8.164.164,0,0,1,.059.25l-.6.825c-.06.1-.144.1-.239.048a4.035,4.035,0,0,0-2.1-.562,1.614,1.614,0,0,0-1.792,1.72v2.677a1.673,1.673,0,0,0,1.888,1.708,2.818,2.818,0,0,0,1.673-.5V1752.2h-1.6c-.108,0-.168-.059-.168-.179v-.931c0-.12.06-.18.168-.18h2.843c.108,0,.167.06.167.18v3.356c0,.1-.012.156-.059.192A4.072,4.072,0,0,1-302.407,1755.88Z"/>
    <path id="路径_2264" data-name="路径 2264" d="M-292.885,1755.736a.222.222,0,0,1-.2-.12l-2.091-3h-1.063v2.939c0,.119-.06.179-.167.179h-1.1c-.108,0-.168-.06-.168-.179v-8.184c0-.12.06-.179.168-.179h2.772c1.959,0,3.106,1.015,3.106,2.724a2.479,2.479,0,0,1-1.983,2.545l2.186,3.058c.084.132.024.215-.108.215Zm-3.357-7.216v2.807h1.506c1.111,0,1.637-.442,1.637-1.4s-.526-1.409-1.637-1.409Z"/>
    <path id="路径_2265" data-name="路径 2265" d="M-290.817,1755.736c-.131,0-.179-.072-.143-.2l2.867-8.2a.19.19,0,0,1,.191-.143h1.363a.19.19,0,0,1,.191.143l2.867,8.2c.036.131-.024.2-.143.2H-284.8a.2.2,0,0,1-.2-.144l-.586-1.8h-3.273l-.586,1.8a.2.2,0,0,1-.2.144Zm2.366-3.25h2.461l-1.207-3.715h-.047Z"/>
    <path id="路径_2266" data-name="路径 2266" d="M-282.25,1755.736c-.107,0-.167-.06-.167-.179v-8.184c0-.12.06-.179.167-.179h1.207a.251.251,0,0,1,.215.119l2.33,4.062c.406.717.86,1.517,1.194,2.163l.036-.012c-.071-1.016-.107-2.234-.107-3.238v-2.915a.158.158,0,0,1,.179-.179h1.075a.158.158,0,0,1,.179.179v8.184a.158.158,0,0,1-.179.179h-1.206a.223.223,0,0,1-.2-.12l-2.257-3.739c-.443-.717-.944-1.649-1.279-2.354l-.036.012c.06,1.028.108,2.27.108,3.286v2.736c0,.119-.06.179-.167.179Z"/>
    <path id="路径_2267" data-name="路径 2267" d="M-273.815,1755.736c-.107,0-.167-.06-.167-.179v-8.184c0-.12.06-.179.167-.179h2.963a2.9,2.9,0,0,1,3.226,3.154v2.27c0,2.067-1.243,3.118-3.226,3.118Zm1.279-1.35h1.684a1.536,1.536,0,0,0,1.733-1.756v-2.294c0-1.231-.586-1.816-1.733-1.816h-1.684Z"/>
    <path id="路径_2268" data-name="路径 2268" d="M-260.289,1755.88c-1.757,0-3.334-.968-3.334-3.059V1750.1a2.948,2.948,0,0,1,3.25-3.047,5.556,5.556,0,0,1,2.867.8.163.163,0,0,1,.06.25l-.6.825c-.06.1-.144.1-.239.048a4.038,4.038,0,0,0-2.1-.562,1.614,1.614,0,0,0-1.792,1.72v2.677a1.673,1.673,0,0,0,1.888,1.708,2.815,2.815,0,0,0,1.672-.5V1752.2h-1.6c-.108,0-.167-.059-.167-.179v-.931c0-.12.059-.18.167-.18h2.844c.107,0,.167.06.167.18v3.356c0,.1-.012.156-.06.192A4.068,4.068,0,0,1-260.289,1755.88Z"/>
    <path id="路径_2269" data-name="路径 2269" d="M-250.767,1755.736a.222.222,0,0,1-.2-.12l-2.091-3h-1.063v2.939c0,.119-.06.179-.167.179h-1.1c-.108,0-.168-.06-.168-.179v-8.184c0-.12.06-.179.168-.179h2.771c1.96,0,3.107,1.015,3.107,2.724a2.479,2.479,0,0,1-1.983,2.545l2.186,3.058c.084.132.024.215-.108.215Zm-3.357-7.216v2.807h1.5c1.111,0,1.637-.442,1.637-1.4s-.526-1.409-1.637-1.409Z"/>
    <path id="路径_2270" data-name="路径 2270" d="M-248.7,1755.736c-.131,0-.179-.072-.144-.2l2.868-8.2a.19.19,0,0,1,.191-.143h1.362a.189.189,0,0,1,.191.143l2.868,8.2c.036.131-.024.2-.144.2h-1.171a.2.2,0,0,1-.2-.144l-.585-1.8h-3.274l-.585,1.8a.2.2,0,0,1-.2.144Zm2.366-3.25h2.461l-1.207-3.715h-.048Z"/>
    <path id="路径_2271" data-name="路径 2271" d="M-240.132,1755.736c-.108,0-.168-.06-.168-.179v-8.184c0-.12.06-.179.168-.179h2.963a2.9,2.9,0,0,1,3.226,3.154v2.27c0,2.067-1.243,3.118-3.226,3.118Zm1.278-1.35h1.685a1.535,1.535,0,0,0,1.732-1.756v-2.294c0-1.231-.585-1.816-1.732-1.816h-1.685Z"/>
    <path id="路径_2272" data-name="路径 2272" d="M-230.813,1754.422h3.836c.119,0,.179.06.179.167v.968a.158.158,0,0,1-.179.179h-5.114c-.108,0-.168-.06-.168-.179v-8.184c0-.12.06-.179.168-.179h4.946a.158.158,0,0,1,.179.179v.968c0,.107-.059.166-.179.166h-3.668v2.235h3.358a.158.158,0,0,1,.179.179v.956a.159.159,0,0,1-.179.179h-3.358Z"/>
    <path id="路径_2273" data-name="路径 2273" d="M-219.486,1747.194a2.717,2.717,0,0,1,3,2.915,2.716,2.716,0,0,1-3,2.927h-1.756v2.521c0,.119-.06.179-.168.179h-1.1c-.107,0-.167-.06-.167-.179v-8.184c0-.12.06-.179.167-.179Zm-.167,4.5c1.159,0,1.7-.5,1.7-1.589s-.538-1.578-1.7-1.578h-1.589v3.167Z"/>
    <path id="路径_2274" data-name="路径 2274" d="M-210.334,1755.736a.222.222,0,0,1-.2-.12l-2.091-3h-1.063v2.939c0,.119-.06.179-.167.179h-1.1c-.108,0-.168-.06-.168-.179v-8.184c0-.12.06-.179.168-.179h2.772c1.959,0,3.106,1.015,3.106,2.724a2.479,2.479,0,0,1-1.983,2.545l2.186,3.058c.084.132.024.215-.108.215Zm-3.357-7.216v2.807h1.506c1.11,0,1.636-.442,1.636-1.4s-.526-1.409-1.636-1.409Z"/>
    <path id="路径_2275" data-name="路径 2275" d="M-206.08,1755.557c0,.119-.06.179-.167.179h-1.1c-.107,0-.167-.06-.167-.179v-8.184c0-.12.06-.179.167-.179h1.1c.107,0,.167.059.167.179Z"/>
    <path id="路径_2276" data-name="路径 2276" d="M-204.491,1755.736a.158.158,0,0,1-.179-.179v-.681a.4.4,0,0,1,.06-.227l4.241-6.129h-3.918a.164.164,0,0,1-.18-.179v-.968a.163.163,0,0,1,.18-.179h5.687c.107,0,.167.059.167.179v.657a.347.347,0,0,1-.06.215l-4.217,6.165h4.229a.15.15,0,0,1,.167.167v.98c0,.119-.059.179-.167.179Z"/>
    <path id="路径_2277" data-name="路径 2277" d="M-195.434,1754.422h3.835c.119,0,.179.06.179.167v.968a.158.158,0,0,1-.179.179h-5.114c-.107,0-.167-.06-.167-.179v-8.184c0-.12.06-.179.167-.179h4.947a.158.158,0,0,1,.179.179v.968c0,.107-.06.166-.179.166h-3.668v2.235h3.357a.158.158,0,0,1,.179.179v.956a.158.158,0,0,1-.179.179h-3.357Z"/>
  </g>
</svg>
