<svg xmlns="http://www.w3.org/2000/svg" width="59.811" height="55.611" viewBox="0 0 59.811 55.611">
  <g id="money2" transform="translate(-36.1 -35.8)">
    <g id="组_581" data-name="组 581">
      <path id="路径_1209" data-name="路径 1209" d="M61.3,77.5v3.4c0,3.8-5.2,6.7-11.9,6.7s-11.9-2.9-11.9-6.7V77.5Z" fill="#dfd9d4" stroke="#dfd9d4" stroke-miterlimit="10" stroke-width="1.822"/>
      <path id="路径_1210" data-name="路径 1210" d="M61.3,77.5v3.4c0,3.8-5.2,6.7-11.9,6.7V77.5Z" fill="#dfd9d4" stroke="#dfd9d4" stroke-miterlimit="10" stroke-width="1.822"/>
      <path id="路径_1211" data-name="路径 1211" d="M61.3,74.2v3.4c0,3.8-5.2,6.7-11.9,6.7s-11.9-2.9-11.9-6.7V74.2Z" fill="#dfd9d4" stroke="#dfd9d4" stroke-miterlimit="10" stroke-width="1.822"/>
      <path id="路径_1212" data-name="路径 1212" d="M61.3,74.2v3.4c0,3.8-5.2,6.7-11.9,6.7V74.2Z" fill="#dfd9d4" stroke="#dfd9d4" stroke-miterlimit="10" stroke-width="1.822"/>
      <path id="路径_1213" data-name="路径 1213" d="M61.3,74.2v3.4c0,3.8-5.2,6.7-11.9,6.7s-11.9-2.9-11.9-6.7V74.2Z" fill="#dfd9d4" stroke="#dfd9d4" stroke-miterlimit="10" stroke-width="1.822"/>
      <path id="路径_1214" data-name="路径 1214" d="M61.3,74.2v3.4c0,3.8-5.2,6.7-11.9,6.7V74.2Z" fill="#dfd9d4" stroke="#dfd9d4" stroke-miterlimit="10" stroke-width="1.822"/>
      <path id="路径_1215" data-name="路径 1215" d="M61.3,70.8v3.4c0,3.8-5.2,6.7-11.9,6.7S37.5,78,37.5,74.2V70.8H61.3Z" fill="#dfd9d4" stroke="#dfd9d4" stroke-miterlimit="10" stroke-width="1.822"/>
      <path id="路径_1216" data-name="路径 1216" d="M61.3,70.8v3.4c0,3.8-5.2,6.7-11.9,6.7V70.8Z" fill="#dfd9d4" stroke="#dfd9d4" stroke-miterlimit="10" stroke-width="1.822"/>
      <path id="路径_1217" data-name="路径 1217" d="M61.3,67.4v3.4c0,3.8-5.2,6.7-11.9,6.7s-11.9-2.9-11.9-6.7V67.4Z" fill="#dfd9d4" stroke="#dfd9d4" stroke-miterlimit="10" stroke-width="1.822"/>
      <path id="路径_1218" data-name="路径 1218" d="M61.3,67.4v3.4c0,3.8-5.2,6.7-11.9,6.7V67.4Z" fill="#dfd9d4" stroke="#dfd9d4" stroke-miterlimit="10" stroke-width="1.822"/>
      <path id="路径_1219" data-name="路径 1219" d="M61.3,64.1v3.4c0,3.8-5.2,6.7-11.9,6.7s-11.9-2.9-11.9-6.7V64.1Z" fill="#dfd9d4" stroke="#dfd9d4" stroke-miterlimit="10" stroke-width="1.822"/>
      <path id="路径_1220" data-name="路径 1220" d="M61.3,64.1v3.4c0,3.8-5.2,6.7-11.9,6.7V64.1Z" fill="#dfd9d4" stroke="#dfd9d4" stroke-miterlimit="10" stroke-width="1.822"/>
      <path id="路径_1221" data-name="路径 1221" d="M61.3,60.7v3.4c0,3.8-5.2,6.7-11.9,6.7s-11.9-2.9-11.9-6.7V60.7H61.3Z" fill="#dfd9d4" stroke="#dfd9d4" stroke-miterlimit="10" stroke-width="1.822"/>
      <path id="路径_1222" data-name="路径 1222" d="M61.3,60.7v3.4c0,3.8-5.2,6.7-11.9,6.7V60.7Z" fill="#dfd9d4" stroke="#dfd9d4" stroke-miterlimit="10" stroke-width="1.822"/>
      <path id="路径_1223" data-name="路径 1223" d="M61.3,57.3v3.4c0,3.8-5.2,6.7-11.9,6.7s-11.9-2.9-11.9-6.7V57.3Z" fill="#dfd9d4" stroke="#dfd9d4" stroke-miterlimit="10" stroke-width="1.822"/>
      <path id="路径_1224" data-name="路径 1224" d="M61.3,57.3v3.4c0,3.8-5.2,6.7-11.9,6.7V57.3Z" fill="#dfd9d4" stroke="#dfd9d4" stroke-miterlimit="10" stroke-width="1.822"/>
      <path id="路径_1225" data-name="路径 1225" d="M61.3,54v3.4c0,3.8-5.2,6.7-11.9,6.7s-11.9-2.9-11.9-6.7V54Z" fill="#dfd9d4" stroke="#dfd9d4" stroke-miterlimit="10" stroke-width="1.822"/>
      <path id="路径_1226" data-name="路径 1226" d="M61.3,54v3.4c0,3.8-5.2,6.7-11.9,6.7V54Z" fill="#dfd9d4" stroke="#dfd9d4" stroke-miterlimit="10" stroke-width="1.822"/>
      <path id="路径_1227" data-name="路径 1227" d="M61.3,50.6V54c0,3.8-5.2,6.7-11.9,6.7S37.5,57.8,37.5,54V50.6Z" fill="#dfd9d4" stroke="#dfd9d4" stroke-miterlimit="10" stroke-width="1.822"/>
      <path id="路径_1228" data-name="路径 1228" d="M61.3,50.6V54c0,3.8-5.2,6.7-11.9,6.7V50.6Z" fill="#dfd9d4" stroke="#dfd9d4" stroke-miterlimit="10" stroke-width="1.822"/>
      <path id="路径_1229" data-name="路径 1229" d="M61.3,47.3v3.4c0,3.8-5.2,6.7-11.9,6.7s-11.9-2.9-11.9-6.7V47.3Z" fill="#dfd9d4" stroke="#dfd9d4" stroke-miterlimit="10" stroke-width="1.822"/>
      <path id="路径_1230" data-name="路径 1230" d="M61.3,47.3v3.4c0,3.8-5.2,6.7-11.9,6.7V47.3Z" fill="#dfd9d4" stroke="#dfd9d4" stroke-miterlimit="10" stroke-width="1.822"/>
      <path id="路径_1231" data-name="路径 1231" d="M61.3,43.9v3.4c0,3.8-5.2,6.7-11.9,6.7s-11.9-2.9-11.9-6.7V43.9Z" fill="#dfd9d4" stroke="#dfd9d4" stroke-miterlimit="10" stroke-width="1.822"/>
      <path id="路径_1232" data-name="路径 1232" d="M61.3,43.9v3.4c0,3.8-5.2,6.7-11.9,6.7V43.9Z" fill="#dfd9d4" stroke="#dfd9d4" stroke-miterlimit="10" stroke-width="1.822"/>
      <path id="路径_1233" data-name="路径 1233" d="M49.4,37.2c-6.7,0-11.9,2.9-11.9,6.7s5.2,6.7,11.9,6.7,11.9-2.9,11.9-6.7S56.1,37.2,49.4,37.2Z" fill="#dfd9d4" stroke="#dfd9d4" stroke-miterlimit="10" stroke-width="1.822"/>
      <path id="路径_1234" data-name="路径 1234" d="M61.3,43.9c0,3.8-5.2,6.7-11.9,6.7V37.2C56.1,37.2,61.3,40.1,61.3,43.9Z" fill="#dfd9d4" stroke="#dfd9d4" stroke-miterlimit="10" stroke-width="1.822"/>
      <path id="路径_1235" data-name="路径 1235" d="M84.8,77.5v3.4c0,3.8-5,6.7-11.8,6.7s-11.8-2.9-11.8-6.7V77.5Z" fill="#dfd9d4" stroke="#dfd9d4" stroke-miterlimit="10" stroke-width="1.822"/>
      <path id="路径_1236" data-name="路径 1236" d="M84.8,77.5v3.4c0,3.8-5,6.7-11.8,6.7V77.5Z" fill="#dfd9d4" stroke="#dfd9d4" stroke-miterlimit="10" stroke-width="1.822"/>
      <path id="路径_1237" data-name="路径 1237" d="M84.8,74.2v3.4c0,3.8-5,6.7-11.8,6.7s-11.8-2.9-11.8-6.7V74.2Z" fill="#dfd9d4" stroke="#dfd9d4" stroke-miterlimit="10" stroke-width="1.822"/>
      <path id="路径_1238" data-name="路径 1238" d="M84.8,74.2v3.4c0,3.8-5,6.7-11.8,6.7V74.2Z" fill="#dfd9d4" stroke="#dfd9d4" stroke-miterlimit="10" stroke-width="1.822"/>
      <path id="路径_1239" data-name="路径 1239" d="M84.8,70.8v3.4c0,3.8-5,6.7-11.8,6.7S61.3,78,61.3,74.2V70.8H84.8Z" fill="#dfd9d4" stroke="#dfd9d4" stroke-miterlimit="10" stroke-width="1.822"/>
      <path id="路径_1240" data-name="路径 1240" d="M84.8,70.8v3.4c0,3.8-5,6.7-11.8,6.7V70.8Z" fill="#dfd9d4" stroke="#dfd9d4" stroke-miterlimit="10" stroke-width="1.822"/>
      <path id="路径_1241" data-name="路径 1241" d="M84.8,67.4v3.4c0,3.8-5,6.7-11.8,6.7s-11.8-2.9-11.8-6.7V67.4Z" fill="#dfd9d4" stroke="#dfd9d4" stroke-miterlimit="10" stroke-width="1.822"/>
      <path id="路径_1242" data-name="路径 1242" d="M84.8,67.4v3.4c0,3.8-5,6.7-11.8,6.7V67.4Z" fill="#dfd9d4" stroke="#dfd9d4" stroke-miterlimit="10" stroke-width="1.822"/>
      <path id="路径_1243" data-name="路径 1243" d="M84.8,64.1v3.4c0,3.8-5,6.7-11.8,6.7s-11.8-2.9-11.8-6.7V64.1Z" fill="#dfd9d4" stroke="#dfd9d4" stroke-miterlimit="10" stroke-width="1.822"/>
      <path id="路径_1244" data-name="路径 1244" d="M84.8,64.1v3.4c0,3.8-5,6.7-11.8,6.7V64.1Z" fill="#dfd9d4" stroke="#dfd9d4" stroke-miterlimit="10" stroke-width="1.822"/>
      <path id="路径_1245" data-name="路径 1245" d="M84.8,60.7v3.4c0,3.8-5,6.7-11.8,6.7s-11.8-2.9-11.8-6.7V60.7H84.8Z" fill="#dfd9d4" stroke="#dfd9d4" stroke-miterlimit="10" stroke-width="1.822"/>
      <path id="路径_1246" data-name="路径 1246" d="M84.8,60.7v3.4c0,3.8-5,6.7-11.8,6.7V60.7Z" fill="#dfd9d4" stroke="#dfd9d4" stroke-miterlimit="10" stroke-width="1.822"/>
      <path id="路径_1247" data-name="路径 1247" d="M84.8,57.3v3.4c0,3.8-5,6.7-11.8,6.7s-11.8-2.9-11.8-6.7V57.3Z" fill="#dfd9d4" stroke="#dfd9d4" stroke-miterlimit="10" stroke-width="1.822"/>
      <path id="路径_1248" data-name="路径 1248" d="M84.8,57.3v3.4c0,3.8-5,6.7-11.8,6.7V57.3Z" fill="#dfd9d4" stroke="#dfd9d4" stroke-miterlimit="10" stroke-width="1.822"/>
      <path id="路径_1249" data-name="路径 1249" d="M84.8,54v3.4c0,3.8-5,6.7-11.8,6.7s-11.8-2.9-11.8-6.7V54Z" fill="#dfd9d4" stroke="#dfd9d4" stroke-miterlimit="10" stroke-width="1.822"/>
      <path id="路径_1250" data-name="路径 1250" d="M84.8,54v3.4c0,3.8-5,6.7-11.8,6.7V54Z" fill="#dfd9d4" stroke="#dfd9d4" stroke-miterlimit="10" stroke-width="1.822"/>
      <path id="路径_1251" data-name="路径 1251" d="M84.8,50.6V54c0,3.8-5,6.7-11.8,6.7S61.3,57.8,61.3,54V50.6Z" fill="#dfd9d4" stroke="#dfd9d4" stroke-miterlimit="10" stroke-width="1.822"/>
      <path id="路径_1252" data-name="路径 1252" d="M84.8,50.6V54c0,3.8-5,6.7-11.8,6.7V50.6Z" fill="#dfd9d4" stroke="#dfd9d4" stroke-miterlimit="10" stroke-width="1.822"/>
      <path id="路径_1253" data-name="路径 1253" d="M73,43.9c-6.7,0-11.8,2.9-11.8,6.7s5,6.7,11.8,6.7,11.8-2.9,11.8-6.7S79.8,43.9,73,43.9Z" fill="#dfd9d4" stroke="#dfd9d4" stroke-miterlimit="10" stroke-width="1.822"/>
      <path id="路径_1254" data-name="路径 1254" d="M84.8,50.6c0,3.8-5,6.7-11.8,6.7V43.9C79.8,43.9,84.8,46.8,84.8,50.6Z" fill="#dfd9d4" stroke="#dfd9d4" stroke-miterlimit="10" stroke-width="1.822"/>
      <path id="路径_1255" data-name="路径 1255" d="M81.4,63.6A13.45,13.45,0,1,0,95,77,13.573,13.573,0,0,0,81.4,63.6Z" fill="#dfd9d4" stroke="#dfd9d4" stroke-miterlimit="10" stroke-width="1.822"/>
      <path id="路径_1256" data-name="路径 1256" d="M94.9,77A13.507,13.507,0,0,1,81.4,90.5V63.6A13.423,13.423,0,0,1,94.9,77Z" fill="#dfd9d4" stroke="#dfd9d4" stroke-miterlimit="10" stroke-width="1.822"/>
      <path id="路径_1257" data-name="路径 1257" d="M81.4,66.9A10.1,10.1,0,1,0,91.5,77,10.072,10.072,0,0,0,81.4,66.9Z" fill="#dfd9d4" stroke="#dfd9d4" stroke-miterlimit="10" stroke-width="1.822"/>
      <path id="路径_1258" data-name="路径 1258" d="M91.5,77A10.072,10.072,0,0,1,81.4,87.1V66.9A10.136,10.136,0,0,1,91.5,77Z" fill="#dfd9d4" stroke="#dfd9d4" stroke-miterlimit="10" stroke-width="1.822"/>
    </g>
    <g id="组_582" data-name="组 582">
      <path id="路径_1259" data-name="路径 1259" d="M59.9,76.2v3.4c0,3.8-5.2,6.7-11.9,6.7s-11.9-2.9-11.9-6.7V76.2Z" fill="#f7a637"/>
      <path id="路径_1260" data-name="路径 1260" d="M59.9,76.2v3.4c0,3.8-5.2,6.7-11.9,6.7V76.2Z" fill="#f4982d"/>
      <path id="路径_1261" data-name="路径 1261" d="M59.9,72.8v3.4c0,3.8-5.2,6.7-11.9,6.7S36.1,80,36.1,76.2V72.8H59.9Z" fill="#f7a637"/>
      <path id="路径_1262" data-name="路径 1262" d="M59.9,72.8v3.4c0,3.8-5.2,6.7-11.9,6.7V72.8Z" fill="#f4982d"/>
      <path id="路径_1263" data-name="路径 1263" d="M59.9,72.8v3.4c0,3.8-5.2,6.7-11.9,6.7S36.1,80,36.1,76.2V72.8H59.9Z" fill="#fedc43"/>
      <path id="路径_1264" data-name="路径 1264" d="M59.9,72.8v3.4c0,3.8-5.2,6.7-11.9,6.7V72.8Z" fill="#fecb39"/>
      <path id="路径_1265" data-name="路径 1265" d="M59.9,69.4v3.4c0,3.8-5.2,6.7-11.9,6.7s-11.9-2.9-11.9-6.7V69.4Z" fill="#f7a637"/>
      <path id="路径_1266" data-name="路径 1266" d="M59.9,69.4v3.4c0,3.8-5.2,6.7-11.9,6.7V69.4Z" fill="#f4982d"/>
      <path id="路径_1267" data-name="路径 1267" d="M59.9,66.1v3.4c0,3.8-5.2,6.7-11.9,6.7s-11.9-2.9-11.9-6.7V66.1Z" fill="#fedc43"/>
      <path id="路径_1268" data-name="路径 1268" d="M59.9,66.1v3.4c0,3.8-5.2,6.7-11.9,6.7V66.1Z" fill="#fecb39"/>
      <path id="路径_1269" data-name="路径 1269" d="M59.9,62.7v3.4c0,3.8-5.2,6.7-11.9,6.7s-11.9-2.9-11.9-6.7V62.7H59.9Z" fill="#f7a637"/>
      <path id="路径_1270" data-name="路径 1270" d="M59.9,62.7v3.4c0,3.8-5.2,6.7-11.9,6.7V62.7Z" fill="#f4982d"/>
      <path id="路径_1271" data-name="路径 1271" d="M59.9,59.3v3.4c0,3.8-5.2,6.7-11.9,6.7s-11.9-2.9-11.9-6.7V59.3Z" fill="#fedc43"/>
      <path id="路径_1272" data-name="路径 1272" d="M59.9,59.3v3.4c0,3.8-5.2,6.7-11.9,6.7V59.3Z" fill="#fecb39"/>
      <path id="路径_1273" data-name="路径 1273" d="M59.9,56v3.4c0,3.8-5.2,6.7-11.9,6.7s-11.9-2.9-11.9-6.7V56Z" fill="#f7a637"/>
      <path id="路径_1274" data-name="路径 1274" d="M59.9,56v3.4c0,3.8-5.2,6.7-11.9,6.7V56Z" fill="#f4982d"/>
      <path id="路径_1275" data-name="路径 1275" d="M59.9,52.6V56c0,3.8-5.2,6.7-11.9,6.7S36.1,59.8,36.1,56V52.6Z" fill="#fedc43"/>
      <path id="路径_1276" data-name="路径 1276" d="M59.9,52.6V56c0,3.8-5.2,6.7-11.9,6.7V52.6Z" fill="#fecb39"/>
      <path id="路径_1277" data-name="路径 1277" d="M59.9,49.2v3.4c0,3.8-5.2,6.7-11.9,6.7s-11.9-2.9-11.9-6.7V49.2Z" fill="#f7a637"/>
      <path id="路径_1278" data-name="路径 1278" d="M59.9,49.2v3.4c0,3.8-5.2,6.7-11.9,6.7V49.2Z" fill="#f4982d"/>
      <path id="路径_1279" data-name="路径 1279" d="M59.9,45.9v3.4c0,3.8-5.2,6.7-11.9,6.7s-11.9-2.9-11.9-6.7V45.9Z" fill="#fedc43"/>
      <path id="路径_1280" data-name="路径 1280" d="M59.9,45.9v3.4c0,3.8-5.2,6.7-11.9,6.7V45.9Z" fill="#fecb39"/>
      <path id="路径_1281" data-name="路径 1281" d="M59.9,42.5v3.4c0,3.8-5.2,6.7-11.9,6.7s-11.9-2.9-11.9-6.7V42.5Z" fill="#f7a637"/>
      <path id="路径_1282" data-name="路径 1282" d="M59.9,42.5v3.4c0,3.8-5.2,6.7-11.9,6.7V42.5Z" fill="#f4982d"/>
      <path id="路径_1283" data-name="路径 1283" d="M48,35.8c-6.7,0-11.9,2.9-11.9,6.7s5.2,6.7,11.9,6.7,11.9-2.9,11.9-6.7S54.7,35.8,48,35.8Z" fill="#fedc43"/>
      <path id="路径_1284" data-name="路径 1284" d="M59.9,42.5c0,3.8-5.2,6.7-11.9,6.7V35.8C54.7,35.8,59.9,38.7,59.9,42.5Z" fill="#fecb39"/>
      <path id="路径_1285" data-name="路径 1285" d="M83.4,76.2v3.4c0,3.8-5,6.7-11.8,6.7s-11.8-2.9-11.8-6.7V76.2Z" fill="#f7a637"/>
      <path id="路径_1286" data-name="路径 1286" d="M83.4,76.2v3.4c0,3.8-5,6.7-11.8,6.7V76.2Z" fill="#f4982d"/>
      <path id="路径_1287" data-name="路径 1287" d="M83.4,72.8v3.4c0,3.8-5,6.7-11.8,6.7S59.9,80,59.9,76.2V72.8H83.4Z" fill="#fedc43"/>
      <path id="路径_1288" data-name="路径 1288" d="M83.4,72.8v3.4c0,3.8-5,6.7-11.8,6.7V72.8Z" fill="#fecb39"/>
      <path id="路径_1289" data-name="路径 1289" d="M83.4,69.4v3.4c0,3.8-5,6.7-11.8,6.7s-11.8-2.9-11.8-6.7V69.4Z" fill="#f7a637"/>
      <path id="路径_1290" data-name="路径 1290" d="M83.4,69.4v3.4c0,3.8-5,6.7-11.8,6.7V69.4Z" fill="#f4982d"/>
      <path id="路径_1291" data-name="路径 1291" d="M83.4,66.1v3.4c0,3.8-5,6.7-11.8,6.7s-11.8-2.9-11.8-6.7V66.1Z" fill="#fedc43"/>
      <path id="路径_1292" data-name="路径 1292" d="M83.4,66.1v3.4c0,3.8-5,6.7-11.8,6.7V66.1Z" fill="#fecb39"/>
      <path id="路径_1293" data-name="路径 1293" d="M83.4,62.7v3.4c0,3.8-5,6.7-11.8,6.7s-11.8-2.9-11.8-6.7V62.7H83.4Z" fill="#f7a637"/>
      <path id="路径_1294" data-name="路径 1294" d="M83.4,62.7v3.4c0,3.8-5,6.7-11.8,6.7V62.7Z" fill="#f4982d"/>
      <path id="路径_1295" data-name="路径 1295" d="M83.4,59.3v3.4c0,3.8-5,6.7-11.8,6.7s-11.8-2.9-11.8-6.7V59.3Z" fill="#fedc43"/>
      <path id="路径_1296" data-name="路径 1296" d="M83.4,59.3v3.4c0,3.8-5,6.7-11.8,6.7V59.3Z" fill="#fecb39"/>
      <path id="路径_1297" data-name="路径 1297" d="M83.4,56v3.4c0,3.8-5,6.7-11.8,6.7s-11.8-2.9-11.8-6.7V56Z" fill="#f7a637"/>
      <path id="路径_1298" data-name="路径 1298" d="M83.4,56v3.4c0,3.8-5,6.7-11.8,6.7V56Z" fill="#f4982d"/>
      <path id="路径_1299" data-name="路径 1299" d="M83.4,52.6V56c0,3.8-5,6.7-11.8,6.7S59.9,59.8,59.9,56V52.6Z" fill="#fedc43"/>
      <path id="路径_1300" data-name="路径 1300" d="M83.4,52.6V56c0,3.8-5,6.7-11.8,6.7V52.6Z" fill="#fecb39"/>
      <path id="路径_1301" data-name="路径 1301" d="M83.4,49.2v3.4c0,3.8-5,6.7-11.8,6.7s-11.8-2.9-11.8-6.7V49.2Z" fill="#f7a637"/>
      <path id="路径_1302" data-name="路径 1302" d="M83.4,49.2v3.4c0,3.8-5,6.7-11.8,6.7V49.2Z" fill="#f4982d"/>
      <path id="路径_1303" data-name="路径 1303" d="M71.7,42.5c-6.7,0-11.8,2.9-11.8,6.7s5,6.7,11.8,6.7S83.5,53,83.5,49.2,78.4,42.5,71.7,42.5Z" fill="#fedc43"/>
      <path id="路径_1304" data-name="路径 1304" d="M83.4,49.2c0,3.8-5,6.7-11.8,6.7V42.5C78.4,42.5,83.4,45.4,83.4,49.2Z" fill="#fecb39"/>
      <path id="路径_1305" data-name="路径 1305" d="M80.1,62.2A13.5,13.5,0,1,0,93.6,75.7,13.507,13.507,0,0,0,80.1,62.2Z" fill="#f7a637"/>
      <path id="路径_1306" data-name="路径 1306" d="M93.5,75.7A13.507,13.507,0,0,1,80,89.2v-27A13.444,13.444,0,0,1,93.5,75.7Z" fill="#f4982d"/>
      <path id="路径_1307" data-name="路径 1307" d="M80.1,65.6A10.1,10.1,0,1,0,90.2,75.7,10.072,10.072,0,0,0,80.1,65.6Z" fill="#fedc43"/>
      <path id="路径_1308" data-name="路径 1308" d="M90.2,75.7A10.072,10.072,0,0,1,80.1,85.8V65.6A10.136,10.136,0,0,1,90.2,75.7Z" fill="#fecb39"/>
    </g>
  </g>
</svg>
