<svg id="tickect_4" xmlns="http://www.w3.org/2000/svg" width="239.9" height="121.6" viewBox="0 0 239.9 121.6">
  <path id="路径_1525" data-name="路径 1525" d="M0,116.1l4.9,5.5H230.1a9.816,9.816,0,0,0,9.8-9.8V11.6a9.816,9.816,0,0,0-9.8-9.8H4.9L0,6.7Z" fill="#c8d1ff"/>
  <path id="路径_1526" data-name="路径 1526" d="M0,114.4l4.9,5.5H230.1a9.816,9.816,0,0,0,9.8-9.8V9.8A9.816,9.816,0,0,0,230.1,0H4.9L0,5.5Z" fill="#fff"/>
  <path id="路径_1527" data-name="路径 1527" d="M230.2,1.3a8.493,8.493,0,0,1,8.5,8.5V110a8.493,8.493,0,0,1-8.5,8.5H5.5l-3.7-4.2V5.5L5.5,1.3H230.2M5.5,1.3H230.2" fill="#f2b6bf"/>
  <line id="直线_53" data-name="直线 53" y1="108.9" transform="translate(0 5.5)" fill="#fff"/>
</svg>
