<svg id="tickect_1" xmlns="http://www.w3.org/2000/svg" xmlns:xlink="http://www.w3.org/1999/xlink" width="90" height="96" viewBox="0 0 90 96">
  <defs>
    <clipPath id="clip-path">
      <path id="路径_1508" data-name="路径 1508" d="M83.4,1.3,88.1,6V88.2l-4.7,4.7H9.8a8.493,8.493,0,0,1-8.5-8.5V9.8A8.493,8.493,0,0,1,9.8,1.3H83.4"/>
    </clipPath>
  </defs>
  <path id="路径_1497" data-name="路径 1497" d="M90,90,89.5,7.2,84,1.7H9.8A9.838,9.838,0,0,0,0,11.6V86.2A9.816,9.816,0,0,0,9.8,96H84Z" fill="#c8d1ff"/>
  <path id="路径_1498" data-name="路径 1498" d="M89.5,88.6l.5-.4V6h-.5Z" fill="#fff"/>
  <path id="路径_1499" data-name="路径 1499" d="M89.5,88.8V5.5L84,0H9.8A9.816,9.816,0,0,0,0,9.8V84.4a9.816,9.816,0,0,0,9.8,9.8H84Z" fill="#fff"/>
  <line id="直线_50" data-name="直线 50" y1="83.3" transform="translate(89.5 5.5)" fill="#fff"/>
  <g id="组_757" data-name="组 757">
    <rect id="矩形_410" data-name="矩形 410" width="0.7" height="3.7" transform="translate(89.3 34)" fill="#4a4a4a"/>
    <rect id="矩形_411" data-name="矩形 411" width="0.7" height="3.7" transform="translate(89.3 26.6)" fill="#4a4a4a"/>
    <path id="路径_1500" data-name="路径 1500" d="M89.5,88.8l.5-.6V86.4h-.7v2.5Z" fill="#4a4a4a"/>
    <rect id="矩形_412" data-name="矩形 412" width="0.7" height="3.7" transform="translate(89.3 11.6)" fill="#4a4a4a"/>
    <rect id="矩形_413" data-name="矩形 413" width="0.7" height="3.7" transform="translate(89.3 19.1)" fill="#4a4a4a"/>
    <rect id="矩形_414" data-name="矩形 414" width="0.7" height="3.7" transform="translate(89.3 41.5)" fill="#4a4a4a"/>
    <rect id="矩形_415" data-name="矩形 415" width="0.7" height="3.7" transform="translate(89.3 78.9)" fill="#4a4a4a"/>
    <rect id="矩形_416" data-name="矩形 416" width="0.7" height="3.7" transform="translate(89.3 49)" fill="#4a4a4a"/>
    <path id="路径_1501" data-name="路径 1501" d="M89.5,5.5l-.2-.2V7.9H90V6Z" fill="#4a4a4a"/>
    <rect id="矩形_417" data-name="矩形 417" width="0.7" height="3.7" transform="translate(89.3 71.4)" fill="#4a4a4a"/>
    <rect id="矩形_418" data-name="矩形 418" width="0.7" height="3.7" transform="translate(89.3 64)" fill="#4a4a4a"/>
    <rect id="矩形_419" data-name="矩形 419" width="0.7" height="3.7" transform="translate(89.3 56.5)" fill="#4a4a4a"/>
  </g>
  <path id="路径_1502" data-name="路径 1502" d="M83.4,1.3,88.1,6V88.2l-4.7,4.7H9.8a8.493,8.493,0,0,1-8.5-8.5V9.8A8.493,8.493,0,0,1,9.8,1.3H83.4" fill="#eeeceb"/>
  <g id="组_760" data-name="组 760">
    <g id="组_759" data-name="组 759" clip-path="url(#clip-path)">
      <path id="路径_1503" data-name="路径 1503" d="M45.7,36.2-31.1,7.8a1.3,1.3,0,0,1-.8-1.7l4.6-12.5a1.3,1.3,0,0,1,1.7-.8L51.2,21.2a1.3,1.3,0,0,1,.8,1.7L47.4,35.4A1.262,1.262,0,0,1,45.7,36.2Z" fill="#ded8d4"/>
      <path id="路径_1504" data-name="路径 1504" d="M83,89.6l-32.4-12a1.3,1.3,0,0,1-.8-1.7l3.4-9.1a1.3,1.3,0,0,1,1.7-.8L87.3,78a1.3,1.3,0,0,1,.8,1.7l-3.4,9.1A1.337,1.337,0,0,1,83,89.6Z" fill="#ded8d4"/>
      <path id="路径_1505" data-name="路径 1505" d="M32.4,69-21.2,49.2a1.3,1.3,0,0,1-.8-1.7l3.4-9.1a1.3,1.3,0,0,1,1.7-.8L36.7,57.4a1.3,1.3,0,0,1,.8,1.7l-3.4,9.1A1.262,1.262,0,0,1,32.4,69Z" fill="#ded8d4"/>
      <path id="路径_1506" data-name="路径 1506" d="M100.2,124.4,36,100.7a1.3,1.3,0,0,1-.8-1.7l3.4-9.1a1.3,1.3,0,0,1,1.7-.8l64.2,23.7a1.3,1.3,0,0,1,.8,1.7l-3.4,9.1A1.262,1.262,0,0,1,100.2,124.4Z" fill="#ded8d4"/>
      <path id="路径_1507" data-name="路径 1507" d="M130.5,34.7,46.1,3.5a1.3,1.3,0,0,1-.8-1.7L51-13.5a1.3,1.3,0,0,1,1.7-.8l84.4,31.2a1.3,1.3,0,0,1,.8,1.7l-5.7,15.3A1.262,1.262,0,0,1,130.5,34.7Z" fill="#ded8d4"/>
      <circle id="椭圆_194" data-name="椭圆 194" cx="6.4" cy="6.4" r="6.4" transform="translate(52.1 40.8)" fill="#ded8d4"/>
      <circle id="椭圆_195" data-name="椭圆 195" cx="4.6" cy="4.6" r="4.6" transform="translate(23.6 79.7)" fill="#ded8d4"/>
    </g>
  </g>
</svg>
