<svg xmlns="http://www.w3.org/2000/svg" width="57.719" height="49.1" viewBox="0 0 57.719 49.1">
  <g id="_0000001" data-name="0000001" transform="translate(-145.4 -88.3)">
    <g id="组_1034" data-name="组 1034">
      <path id="路径_1905" data-name="路径 1905" d="M193.6,115.1a.6.6,0,0,0-.4-.1,1.135,1.135,0,0,0-.8.3l-2.2,2.2a1.136,1.136,0,0,0-.3.8v8.9a5.132,5.132,0,0,1-1.6,3.9,5.284,5.284,0,0,1-3.9,1.6h-29a5.132,5.132,0,0,1-3.9-1.6,5.284,5.284,0,0,1-1.6-3.9v-29a5.132,5.132,0,0,1,1.6-3.9,5.284,5.284,0,0,1,3.9-1.6h29a9.972,9.972,0,0,1,1.6.2c.1,0,.2.1.3.1a1.135,1.135,0,0,0,.8-.3l1.7-1.7a.959.959,0,0,0,.3-1,1.242,1.242,0,0,0-.6-.8,9.455,9.455,0,0,0-4.1-.9h-29a9.9,9.9,0,0,0-7.1,2.9,9.506,9.506,0,0,0-2.9,7.1v29a9.9,9.9,0,0,0,2.9,7.1,9.6,9.6,0,0,0,7.1,3h29a10.246,10.246,0,0,0,10.1-10.1V116.2A1.713,1.713,0,0,0,193.6,115.1Z" fill="#fff"/>
      <path id="路径_1906" data-name="路径 1906" d="M202.3,95l-3.8-3.8a2.568,2.568,0,0,0-2-.8,2.973,2.973,0,0,0-2,.8l-22.6,22.6-9.2-9.2a2.568,2.568,0,0,0-2-.8,2.973,2.973,0,0,0-2,.8l-3.8,3.8a2.568,2.568,0,0,0-.8,2,2.973,2.973,0,0,0,.8,2l15,15a2.568,2.568,0,0,0,2,.8,2.973,2.973,0,0,0,2-.8L202.3,99a2.568,2.568,0,0,0,.8-2A2.373,2.373,0,0,0,202.3,95Z" fill="#fff"/>
    </g>
  </g>
</svg>
