<svg xmlns="http://www.w3.org/2000/svg" width="58.169" height="38.164" viewBox="0 0 58.169 38.164">
  <g id="game_2" transform="translate(-144.981 -94.44)">
    <g id="组_1018" data-name="组 1018">
      <g id="组_1017" data-name="组 1017">
        <g id="组_1016" data-name="组 1016">
          <path id="路径_1903" data-name="路径 1903" d="M203.1,120.8a49.547,49.547,0,0,0-1.6-10.5,42.634,42.634,0,0,0-3.3-8.8c-5.1-8.9-10.6-7.5-17.1-5.8a44.19,44.19,0,0,1-6.7,1.3h-.7a46.733,46.733,0,0,1-6.7-1.3c-6.6-1.7-12.1-3.1-17.1,5.9a37.588,37.588,0,0,0-3.3,8.8,56.912,56.912,0,0,0-1.6,10.5c-.1,3.7.2,6.4,1,8.2a5.941,5.941,0,0,0,3.5,3.3,6.842,6.842,0,0,0,4.6-.5,35.013,35.013,0,0,0,9.3-6.6c2.2-2.2,6.4-3.3,10.6-3.3s8.4,1.1,10.6,3.3a33.5,33.5,0,0,0,9.3,6.6,6.947,6.947,0,0,0,4.6.5,5.375,5.375,0,0,0,3.5-3.3C202.9,127.2,203.3,124.6,203.1,120.8Zm-3.4,7.2a2.776,2.776,0,0,1-1.7,1.8,4.817,4.817,0,0,1-3-.4c-2.5-1-5.5-3.3-8.4-6-2.7-2.7-7.6-4.1-12.4-4.1s-9.7,1.4-12.5,4c-3,2.7-5.9,5.1-8.4,6a4.817,4.817,0,0,1-3,.4,2.776,2.776,0,0,1-1.7-1.8c-.6-1.4-.9-3.6-.7-6.9a51.539,51.539,0,0,1,1.5-10,37.1,37.1,0,0,1,3-8.2c4-7.2,8.6-6,14.1-4.6a38.817,38.817,0,0,0,7.1,1.4h1a39.924,39.924,0,0,0,7.2-1.4c5.5-1.4,10.1-2.6,14.1,4.6a35.3,35.3,0,0,1,3,8.2,50.429,50.429,0,0,1,1.5,10A16.55,16.55,0,0,1,199.7,128Z" fill="#fff"/>
        </g>
      </g>
    </g>
    <g id="组_1021" data-name="组 1021">
      <g id="组_1020" data-name="组 1020">
        <g id="组_1019" data-name="组 1019">
          <path id="路径_1904" data-name="路径 1904" d="M167.5,106.7a3.733,3.733,0,0,0-2.6-1.2,3.947,3.947,0,0,0-1.2-2.5l-.1-.1a4.07,4.07,0,0,0-3-1.2,4.505,4.505,0,0,0-3,1.2,3.733,3.733,0,0,0-1.2,2.6,4.2,4.2,0,0,0-2.6,1.2l-.1.1a4.07,4.07,0,0,0-1.2,3,4.505,4.505,0,0,0,1.2,3,3.777,3.777,0,0,0,2.7,1.2,3.967,3.967,0,0,0,1.2,2.6,4.07,4.07,0,0,0,3,1.2,4.505,4.505,0,0,0,3-1.2,3.733,3.733,0,0,0,1.2-2.6,3.967,3.967,0,0,0,2.6-1.2,4.07,4.07,0,0,0,1.2-3A3.941,3.941,0,0,0,167.5,106.7Zm-1.8,4.1a1.5,1.5,0,0,1-1.1.4h-1a1.43,1.43,0,0,0-1.4,1.4v.9a1.5,1.5,0,1,1-3,0v-1a1.43,1.43,0,0,0-1.4-1.4h-1a1.5,1.5,0,0,1-1.1-.4,1.528,1.528,0,0,1-.4-1,1.5,1.5,0,0,1,.4-1.1l.1-.1a2.112,2.112,0,0,1,1-.4h1a1.43,1.43,0,0,0,1.4-1.4v-1a1.558,1.558,0,0,1,2.6-1.1l.1.1a2.112,2.112,0,0,1,.4,1v1a1.43,1.43,0,0,0,1.4,1.4h1a1.384,1.384,0,0,1,1.5,1.5A2.195,2.195,0,0,1,165.7,110.8Z" fill="#fff"/>
        </g>
      </g>
    </g>
    <g id="组_1024" data-name="组 1024">
      <g id="组_1023" data-name="组 1023">
        <g id="组_1022" data-name="组 1022">
          <circle id="椭圆_239" data-name="椭圆 239" cx="2.5" cy="2.5" r="2.5" transform="translate(184.2 102)" fill="#fff"/>
        </g>
      </g>
    </g>
    <g id="组_1027" data-name="组 1027">
      <g id="组_1026" data-name="组 1026">
        <g id="组_1025" data-name="组 1025">
          <circle id="椭圆_240" data-name="椭圆 240" cx="2.5" cy="2.5" r="2.5" transform="translate(184.2 112.3)" fill="#fff"/>
        </g>
      </g>
    </g>
    <g id="组_1030" data-name="组 1030">
      <g id="组_1029" data-name="组 1029">
        <g id="组_1028" data-name="组 1028">
          <circle id="椭圆_241" data-name="椭圆 241" cx="2.5" cy="2.5" r="2.5" transform="translate(179.1 107.2)" fill="#fff"/>
        </g>
      </g>
    </g>
    <g id="组_1033" data-name="组 1033">
      <g id="组_1032" data-name="组 1032">
        <g id="组_1031" data-name="组 1031">
          <circle id="椭圆_242" data-name="椭圆 242" cx="2.5" cy="2.5" r="2.5" transform="translate(189.4 107.2)" fill="#fff"/>
        </g>
      </g>
    </g>
  </g>
</svg>
