<svg xmlns="http://www.w3.org/2000/svg" width="58.005" height="57.9" viewBox="0 0 58.005 57.9">
  <g id="pic_2" transform="translate(-145.1 -83.7)">
    <g id="组_1015" data-name="组 1015">
      <g id="组_1014" data-name="组 1014">
        <g id="组_1013" data-name="组 1013">
          <path id="路径_1900" data-name="路径 1900" d="M199.5,94.5H159.6a3.585,3.585,0,0,0-3.6,3.6V138a3.585,3.585,0,0,0,3.6,3.6h39.9a3.585,3.585,0,0,0,3.6-3.6V98.2A3.607,3.607,0,0,0,199.5,94.5Zm0,43.6H159.6V98.2h39.9Z" fill="#fff"/>
          <path id="路径_1901" data-name="路径 1901" d="M148.7,87.3h39.9v3.6h3.6V87.3a3.585,3.585,0,0,0-3.6-3.6H148.7a3.585,3.585,0,0,0-3.6,3.6v39.9a3.585,3.585,0,0,0,3.6,3.6h3.6v-3.6h-3.6V87.3Z" fill="#fff"/>
          <path id="路径_1902" data-name="路径 1902" d="M165.1,129h29a1.793,1.793,0,0,0,1.8-1.8,1.9,1.9,0,0,0-.5-1.3l-7.3-7.3a1.872,1.872,0,0,0-2.6,0l-2.4,2.4-6-6a1.872,1.872,0,0,0-2.6,0l-10.9,10.9a1.872,1.872,0,0,0,0,2.6A3.315,3.315,0,0,0,165.1,129Z" fill="#fff"/>
          <circle id="椭圆_238" data-name="椭圆 238" cx="3.6" cy="3.6" r="3.6" transform="translate(185.1 107.3)" fill="#fff"/>
        </g>
      </g>
    </g>
  </g>
</svg>
