<svg xmlns="http://www.w3.org/2000/svg" width="58.101" height="54.6" viewBox="0 0 58.101 54.6">
  <path id="movie_2" d="M198.5,85.4H149.8a4.7,4.7,0,0,0-4.7,4.7v45.2a4.7,4.7,0,0,0,4.7,4.7h48.7a4.7,4.7,0,0,0,4.7-4.7V90.1A4.7,4.7,0,0,0,198.5,85.4Zm-35.7,5.8h8.4v6.6h-8.4ZM157,134.1h-6v-6.6h6Zm0-36.2h-6V91.3h6Zm14.2,36.2h-8.4v-6.6h8.4Zm-2.1-16V107.3c0-1.6,1.1-2.2,2.5-1.3l7.8,5.1c1.3.9,1.4,2.3,0,3.2l-7.9,5.1C170.2,120.3,169.1,119.7,169.1,118.1Zm16.3,16H177v-6.6h8.4Zm0-36.2H177V91.3h8.4Zm11.9,36.2h-6v-6.6h6Zm0-36.2h-6V91.3h6Z" transform="translate(-145.1 -85.4)" fill="#fff"/>
</svg>
