<svg xmlns="http://www.w3.org/2000/svg" xmlns:xlink="http://www.w3.org/1999/xlink" width="450.194" height="111.52" viewBox="0 0 450.194 111.52">
  <defs>
    <linearGradient id="linear-gradient" y1="0.5" x2="1" y2="0.5" gradientUnits="objectBoundingBox">
      <stop offset="0.001" stop-color="#faa31d"/>
      <stop offset="1" stop-color="#ed4042"/>
    </linearGradient>
  </defs>
  <g id="_01" data-name="01" transform="translate(-72.803 -364.41)">
    <g id="组_1277" data-name="组 1277">
      <g id="组_1275" data-name="组 1275">
        <path id="路径_2163" data-name="路径 2163" d="M515.87,418.17l-19.13-39.69a8.009,8.009,0,0,0-6.92-4H105.98a7.976,7.976,0,0,0-6.92,4L79.93,418.17a7.977,7.977,0,0,0,0,7.99l19.13,39.69a8.009,8.009,0,0,0,6.92,4H489.82a7.976,7.976,0,0,0,6.92-4l19.13-39.69A7.977,7.977,0,0,0,515.87,418.17Z" fill="#cbd0e9"/>
        <path id="路径_2164" data-name="路径 2164" d="M489.82,374.48a7.976,7.976,0,0,1,6.92,4l19.13,39.69a7.977,7.977,0,0,1,0,7.99l-19.13,39.69a8.009,8.009,0,0,1-6.92,4H105.98a7.976,7.976,0,0,1-6.92-4L79.93,426.16a7.977,7.977,0,0,1,0-7.99l19.13-39.69a8.009,8.009,0,0,1,6.92-4H489.82m0-6.07H105.98a14.089,14.089,0,0,0-12.18,7.03l-.11.2-.1.2L74.55,415.36a14.143,14.143,0,0,0,0,13.62L93.59,468.5l.1.2.11.2a14.089,14.089,0,0,0,12.18,7.03H489.82A14.089,14.089,0,0,0,502,468.9l.11-.2.1-.2,19.04-39.52a14.143,14.143,0,0,0,0-13.62l-19.04-39.52-.1-.2-.11-.2a14.11,14.11,0,0,0-12.18-7.03Z" fill="#cbd0e9"/>
      </g>
      <g id="组_1276" data-name="组 1276">
        <path id="路径_2165" data-name="路径 2165" d="M105.98,465.79a10.008,10.008,0,0,1-8.65-5l-.07-.13-19.1-39.63a10.015,10.015,0,0,1,0-9.86l19.13-39.7.04-.06a10.033,10.033,0,0,1,8.65-5H489.82a10,10,0,0,1,8.65,5l.07.13,19.1,39.63a10.015,10.015,0,0,1,0,9.86l-19.13,39.7-.04.06a10.033,10.033,0,0,1-8.65,5Z" fill="url(#linear-gradient)"/>
        <path id="路径_2166" data-name="路径 2166" d="M489.82,368.41a7.976,7.976,0,0,1,6.92,4l19.13,39.69a7.977,7.977,0,0,1,0,7.99l-19.13,39.69a8.009,8.009,0,0,1-6.92,4H105.98a7.976,7.976,0,0,1-6.92-4L79.93,420.1a7.977,7.977,0,0,1,0-7.99l19.13-39.69a8.009,8.009,0,0,1,6.92-4H489.82m0-4.01H105.98a12.04,12.04,0,0,0-10.39,6l-.07.13-.06.13L76.39,410.24a12.019,12.019,0,0,0,0,11.71l19.07,39.57.06.13.07.13a12.04,12.04,0,0,0,10.39,6H489.82a12.04,12.04,0,0,0,10.39-6l.07-.13.06-.13,19.07-39.57a12.019,12.019,0,0,0,0-11.71l-19.07-39.57-.06-.13-.07-.13a12.04,12.04,0,0,0-10.39-6Z" fill="#fff"/>
      </g>
    </g>
    <g id="组_1278" data-name="组 1278">
      <path id="路径_2167" data-name="路径 2167" d="M155.27,409.97c-5.34,0-8.19-2.76-8.19-7.38v-5.21c0-4.59,3.01-7.35,8.19-7.35a10.338,10.338,0,0,1,5.74,1.64.453.453,0,0,1,.13.72l-2.07,3.19a.482.482,0,0,1-.75.16,5.762,5.762,0,0,0-2.87-.75c-1.96,0-3.03,1.15-3.03,2.68v4.59c0,1.77,1.1,2.74,2.93,2.74a6.305,6.305,0,0,0,3.27-.91c.3-.19.54-.16.72.13l2.09,3.19c.19.27.21.51.03.64A10.277,10.277,0,0,1,155.27,409.97Z" fill="#fff"/>
      <path id="路径_2168" data-name="路径 2168" d="M170.8,409.97c-5.07,0-8.05-2.9-8.05-7.81v-4.38c0-4.89,2.98-7.76,8.05-7.76s8.05,2.87,8.05,7.76v4.38C178.86,407.07,175.88,409.97,170.8,409.97Zm0-4.97c1.8,0,2.68-1.02,2.68-2.98v-4.11c0-1.93-.89-2.93-2.68-2.93s-2.68.99-2.68,2.93v4.11C168.12,403.98,169.01,405,170.8,405Z" fill="#fff"/>
      <path id="路径_2169" data-name="路径 2169" d="M182.39,409.59a.486.486,0,0,1-.54-.54V390.93a.486.486,0,0,1,.54-.54h4.32a.62.62,0,0,1,.62.38l2.15,4.08a64.482,64.482,0,0,1,3.03,6.5l.11-.03c-.24-2.52-.35-4.89-.35-7.09v-3.3a.486.486,0,0,1,.54-.54h4.11a.486.486,0,0,1,.54.54v18.12a.486.486,0,0,1-.54.54h-4.29a.678.678,0,0,1-.64-.38l-2.12-3.54a47.838,47.838,0,0,1-3.3-7.11l-.11.03a62.351,62.351,0,0,1,.59,7.89v2.58a.486.486,0,0,1-.54.54h-4.12Z" fill="#fff"/>
      <path id="路径_2170" data-name="路径 2170" d="M214.3,390.4a.486.486,0,0,1,.54.54v3.81a.486.486,0,0,1-.54.54h-4.48v13.77a.486.486,0,0,1-.54.54h-4.16a.486.486,0,0,1-.54-.54V395.29H200.1a.486.486,0,0,1-.54-.54v-3.81a.486.486,0,0,1,.54-.54Z" fill="#fff"/>
      <path id="路径_2171" data-name="路径 2171" d="M222.19,409.06a.486.486,0,0,1-.54.54h-4.16a.486.486,0,0,1-.54-.54V390.94a.486.486,0,0,1,.54-.54h4.16a.486.486,0,0,1,.54.54Z" fill="#fff"/>
      <path id="路径_2172" data-name="路径 2172" d="M226.32,409.59a.486.486,0,0,1-.54-.54V390.93a.486.486,0,0,1,.54-.54h4.32a.62.62,0,0,1,.62.38l2.15,4.08a64.482,64.482,0,0,1,3.03,6.5l.11-.03c-.24-2.52-.35-4.89-.35-7.09v-3.3a.486.486,0,0,1,.54-.54h4.11a.486.486,0,0,1,.54.54v18.12a.486.486,0,0,1-.54.54h-4.29a.678.678,0,0,1-.64-.38l-2.12-3.54a47.838,47.838,0,0,1-3.3-7.11l-.11.03a62.351,62.351,0,0,1,.59,7.89v2.58a.486.486,0,0,1-.54.54h-4.12Z" fill="#fff"/>
      <path id="路径_2173" data-name="路径 2173" d="M252.43,409.97c-4.99,0-7.62-2.68-7.62-7.73v-11.3a.486.486,0,0,1,.54-.54h4.21a.486.486,0,0,1,.54.54v11.41c0,1.74.78,2.66,2.33,2.66,1.5,0,2.33-.91,2.33-2.66V390.94a.486.486,0,0,1,.54-.54h4.21a.486.486,0,0,1,.54.54v11.3C260.05,407.28,257.4,409.97,252.43,409.97Z" fill="#fff"/>
      <path id="路径_2174" data-name="路径 2174" d="M268.72,404.9h7.41a.486.486,0,0,1,.54.54v3.62a.486.486,0,0,1-.54.54H264.02a.486.486,0,0,1-.54-.54V390.94a.486.486,0,0,1,.54-.54h11.65a.486.486,0,0,1,.54.54v3.62a.486.486,0,0,1-.54.54h-6.95v2.5h5.91a.486.486,0,0,1,.54.54v3.52a.486.486,0,0,1-.54.54h-5.91Z" fill="#fff"/>
      <path id="路径_2175" data-name="路径 2175" d="M292.71,390.4c4.19,0,6.95,2.79,6.95,7.01a6.593,6.593,0,0,1-6.95,7.01H290v4.64a.486.486,0,0,1-.54.54H285.3a.486.486,0,0,1-.54-.54V390.94a.486.486,0,0,1,.54-.54h7.41Zm-.81,9.18c1.56,0,2.39-.75,2.39-2.17s-.83-2.17-2.39-2.17H290v4.35h1.9Z" fill="#fff"/>
      <path id="路径_2176" data-name="路径 2176" d="M299.76,409.59c-.38,0-.56-.24-.43-.62l6.07-18.14a.568.568,0,0,1,.59-.43h4.94a.575.575,0,0,1,.59.43l6.07,18.14c.13.38-.05.62-.43.62h-4.43a.582.582,0,0,1-.62-.46l-.72-2.63h-5.82l-.75,2.63a.585.585,0,0,1-.62.46h-4.44Zm7.06-7.51h3.3l-1.61-5.99h-.11Z" fill="#fff"/>
      <path id="路径_2177" data-name="路径 2177" d="M324.69,409.06a.486.486,0,0,1-.54.54H320a.486.486,0,0,1-.54-.54V390.94a.486.486,0,0,1,.54-.54h4.16a.486.486,0,0,1,.54.54v18.12Z" fill="#fff"/>
      <path id="路径_2178" data-name="路径 2178" d="M328.82,409.59a.486.486,0,0,1-.54-.54V390.93a.486.486,0,0,1,.54-.54h6.58c4.13,0,7.92,1.53,7.92,7.81v3.57c0,6.39-3.78,7.81-7.92,7.81h-6.58Zm4.7-4.91h1.99c1.61,0,2.44-.75,2.44-2.58v-4.24c0-1.77-.83-2.55-2.44-2.55h-1.99Z" fill="#fff"/>
      <path id="路径_2179" data-name="路径 2179" d="M364.09,390.4a.486.486,0,0,1,.54.54v3.81a.486.486,0,0,1-.54.54h-4.48v13.77a.486.486,0,0,1-.54.54h-4.16a.486.486,0,0,1-.54-.54V395.29h-4.48a.486.486,0,0,1-.54-.54v-3.81a.486.486,0,0,1,.54-.54Z" fill="#fff"/>
      <path id="路径_2180" data-name="路径 2180" d="M373.88,409.97c-5.07,0-8.05-2.9-8.05-7.81v-4.38c0-4.89,2.98-7.76,8.05-7.76s8.05,2.87,8.05,7.76v4.38C381.93,407.07,378.95,409.97,373.88,409.97Zm0-4.97c1.8,0,2.68-1.02,2.68-2.98v-4.11c0-1.93-.89-2.93-2.68-2.93s-2.68.99-2.68,2.93v4.11C371.2,403.98,372.08,405,373.88,405Z" fill="#fff"/>
      <path id="路径_2181" data-name="路径 2181" d="M398.14,390.4c4.19,0,6.95,2.79,6.95,7.01a6.593,6.593,0,0,1-6.95,7.01h-2.71v4.64a.486.486,0,0,1-.54.54h-4.16a.486.486,0,0,1-.54-.54V390.94a.486.486,0,0,1,.54-.54h7.41Zm-.81,9.18c1.56,0,2.39-.75,2.39-2.17s-.83-2.17-2.39-2.17h-1.91v4.35h1.91Z" fill="#fff"/>
      <path id="路径_2182" data-name="路径 2182" d="M408.2,409.59a.486.486,0,0,1-.54-.54V390.93a.486.486,0,0,1,.54-.54h4.16a.486.486,0,0,1,.54.54V404.7h6.82a.486.486,0,0,1,.54.54v3.81a.486.486,0,0,1-.54.54Z" fill="#fff"/>
      <path id="路径_2183" data-name="路径 2183" d="M421.05,409.59c-.38,0-.56-.24-.43-.62l6.07-18.14a.568.568,0,0,1,.59-.43h4.94a.568.568,0,0,1,.59.43l6.07,18.14c.13.38-.05.62-.43.62h-4.43a.582.582,0,0,1-.62-.46l-.72-2.63h-5.82l-.75,2.63a.585.585,0,0,1-.62.46h-4.44Zm7.06-7.51h3.3l-1.61-5.99h-.11Z" fill="#fff"/>
      <path id="路径_2184" data-name="路径 2184" d="M443.7,409.59a.486.486,0,0,1-.54-.54v-6.09l-5.77-11.92c-.19-.38,0-.64.4-.64h4.59a.637.637,0,0,1,.62.43l2.79,7.03,2.79-7.03a.637.637,0,0,1,.62-.43h4.59c.4,0,.59.27.4.64l-5.77,11.92v6.09a.486.486,0,0,1-.54.54Z" fill="#fff"/>
      <path id="路径_2185" data-name="路径 2185" d="M206.28,442.06a5.67,5.67,0,0,1-5.99-5.72c0-2.66,1.56-4.24,3.35-5.39a7.02,7.02,0,0,1-1.61-4.05c0-2.66,2.28-4.67,5.21-4.67,3.06,0,5.18,2.01,5.18,4.8-.03,2.36-1.5,3.92-3.17,5.1.54.64,1.05,1.29,1.58,1.93a8.587,8.587,0,0,0,.89-1.58.471.471,0,0,1,.7-.3l2.63,1.21a.5.5,0,0,1,.29.7,22.378,22.378,0,0,1-1.77,3.44c.94,1.21,1.85,2.42,2.79,3.62.27.35.13.64-.32.64h-3.89a.7.7,0,0,1-.64-.32c-.21-.29-.46-.62-.67-.91A7.59,7.59,0,0,1,206.28,442.06Zm.21-4.05a2.776,2.776,0,0,0,1.91-.7c-.81-1.02-1.58-2.01-2.39-3.03a2.793,2.793,0,0,0-1.31,2.04A1.654,1.654,0,0,0,206.49,438.01Zm.51-9.07a2.518,2.518,0,0,0,1.26-2.07.992.992,0,0,0-1.02-1.05,1.011,1.011,0,0,0-1.02,1.05A3.658,3.658,0,0,0,207,428.94Z" fill="#fff"/>
      <path id="路径_2186" data-name="路径 2186" d="M228.84,437.1h7.41a.486.486,0,0,1,.54.54v3.62a.486.486,0,0,1-.54.54h-12.1a.486.486,0,0,1-.54-.54V423.14a.486.486,0,0,1,.54-.54H235.8a.486.486,0,0,1,.54.54v3.62a.486.486,0,0,1-.54.54h-6.95v2.5h5.9a.486.486,0,0,1,.54.54v3.52a.486.486,0,0,1-.54.54h-5.9v2.7Z" fill="#fff"/>
      <path id="路径_2187" data-name="路径 2187" d="M238.34,441.79c-.38,0-.56-.24-.43-.62l6.07-18.14a.568.568,0,0,1,.59-.43h4.94a.568.568,0,0,1,.59.43l6.07,18.14c.13.38-.05.62-.43.62h-4.43a.582.582,0,0,1-.62-.46l-.72-2.63h-5.82l-.75,2.63a.585.585,0,0,1-.62.46h-4.44Zm7.06-7.51h3.3l-1.61-5.99h-.11Z" fill="#fff"/>
      <path id="路径_2188" data-name="路径 2188" d="M267.94,441.79a.629.629,0,0,1-.62-.38l-2.9-5.56h-1.15v5.4a.486.486,0,0,1-.54.54h-4.16a.486.486,0,0,1-.54-.54V423.13a.486.486,0,0,1,.54-.54h6.82c4.67,0,7.27,2.68,7.27,6.76a5.814,5.814,0,0,1-3.38,5.64l3.76,6.15c.21.38.08.64-.35.64h-4.75Zm-4.67-14.36v3.95h1.85c1.53,0,2.15-.59,2.15-1.99,0-1.31-.62-1.96-2.15-1.96h-1.85Z" fill="#fff"/>
      <path id="路径_2189" data-name="路径 2189" d="M276.12,441.79a.486.486,0,0,1-.54-.54V423.13a.486.486,0,0,1,.54-.54h4.32a.629.629,0,0,1,.62.38l2.15,4.08a64.482,64.482,0,0,1,3.03,6.5l.11-.03c-.24-2.52-.35-4.89-.35-7.09v-3.3a.486.486,0,0,1,.54-.54h4.11a.486.486,0,0,1,.54.54v18.12a.486.486,0,0,1-.54.54h-4.29a.678.678,0,0,1-.64-.38l-2.12-3.54a47.834,47.834,0,0,1-3.3-7.11l-.11.03a62.351,62.351,0,0,1,.59,7.89v2.58a.486.486,0,0,1-.54.54h-4.12Z" fill="#fff"/>
      <path id="路径_2190" data-name="路径 2190" d="M307.98,422.6c4.19,0,6.95,2.79,6.95,7.01a6.593,6.593,0,0,1-6.95,7.01h-2.71v4.64a.486.486,0,0,1-.54.54h-4.16a.486.486,0,0,1-.54-.54V423.14a.486.486,0,0,1,.54-.54h7.41Zm-.81,9.18c1.56,0,2.39-.75,2.39-2.17s-.83-2.17-2.39-2.17h-1.91v4.35h1.91Z" fill="#fff"/>
      <path id="路径_2191" data-name="路径 2191" d="M324.96,442.17c-4.99,0-7.62-2.68-7.62-7.73v-11.3a.486.486,0,0,1,.54-.54h4.21a.486.486,0,0,1,.54.54v11.41c0,1.74.78,2.66,2.33,2.66,1.5,0,2.33-.91,2.33-2.66V423.14a.486.486,0,0,1,.54-.54h4.21a.486.486,0,0,1,.54.54v11.3C332.58,439.49,329.93,442.17,324.96,442.17Z" fill="#fff"/>
      <path id="路径_2192" data-name="路径 2192" d="M335.61,441.79a.486.486,0,0,1-.54-.54v-2.58a1.26,1.26,0,0,1,.21-.67l7.41-10.55h-6.5a.486.486,0,0,1-.54-.54v-3.78a.486.486,0,0,1,.54-.54h13.1a.486.486,0,0,1,.54.54v2.47a1.26,1.26,0,0,1-.21.67l-7.27,10.63h7.19a.486.486,0,0,1,.54.54v3.81a.486.486,0,0,1-.54.54H335.61Z" fill="#fff"/>
      <path id="路径_2193" data-name="路径 2193" d="M352.44,441.79a.486.486,0,0,1-.54-.54v-2.58a1.26,1.26,0,0,1,.21-.67l7.41-10.55h-6.5a.486.486,0,0,1-.54-.54v-3.78a.486.486,0,0,1,.54-.54h13.1a.486.486,0,0,1,.54.54v2.47a1.26,1.26,0,0,1-.21.67l-7.27,10.63h7.19a.486.486,0,0,1,.54.54v3.81a.486.486,0,0,1-.54.54H352.44Z" fill="#fff"/>
      <path id="路径_2194" data-name="路径 2194" d="M370.2,441.79a.486.486,0,0,1-.54-.54V423.13a.486.486,0,0,1,.54-.54h4.16a.486.486,0,0,1,.54.54V436.9h6.82a.486.486,0,0,1,.54.54v3.81a.486.486,0,0,1-.54.54Z" fill="#fff"/>
      <path id="路径_2195" data-name="路径 2195" d="M389.58,437.1h7.41a.486.486,0,0,1,.54.54v3.62a.486.486,0,0,1-.54.54h-12.1a.486.486,0,0,1-.54-.54V423.14a.486.486,0,0,1,.54-.54h11.65a.486.486,0,0,1,.54.54v3.62a.486.486,0,0,1-.54.54h-6.95v2.5h5.9a.486.486,0,0,1,.54.54v3.52a.486.486,0,0,1-.54.54h-5.9v2.7Z" fill="#fff"/>
      <path id="路径_2196" data-name="路径 2196" d="M406.97,442.17a10.75,10.75,0,0,1-7.27-2.71.507.507,0,0,1-.11-.75l2.23-3.19a.485.485,0,0,1,.75-.11,8.632,8.632,0,0,0,4.83,1.74c1.56,0,2.15-.46,2.15-1.07,0-.83-1.21-1.23-2.68-1.53-2.63-.51-6.87-1.99-6.87-6.6,0-3.76,3.36-5.72,7.6-5.72a11.463,11.463,0,0,1,6.68,2.01.492.492,0,0,1,.16.75l-2.12,3.19a.5.5,0,0,1-.75.16,8.31,8.31,0,0,0-4.16-1.15c-1.58,0-2.07.4-2.07.91,0,.75.59.99,2.84,1.56,4.21,1.05,6.76,2.5,6.76,6.25C414.94,439.43,412.33,442.17,406.97,442.17Z" fill="#fff"/>
    </g>
  </g>
</svg>
