<svg xmlns="http://www.w3.org/2000/svg" width="52.7" height="10.1" viewBox="0 0 52.7 10.1">
  <g id="text_3" transform="translate(-17.9 -53.6)">
    <path id="路径_1081" data-name="路径 1081" d="M20.7,63.7a.215.215,0,0,1-.2-.2l-2.6-9.6c0-.1,0-.2.2-.2h1.4c.1,0,.2,0,.2.2l1.2,4.7c.2,1,.5,2.1.7,3.2h0a33.742,33.742,0,0,1,.9-3.4l1.2-4.3a.215.215,0,0,1,.2-.2h1.4a.215.215,0,0,1,.2.2l1.2,4.3c.3,1,.6,2.4.8,3.4h0c.2-1,.4-2.2.7-3.2l1.2-4.7a.215.215,0,0,1,.2-.2H31a.215.215,0,0,1,.2.2l-2.6,9.6a.215.215,0,0,1-.2.2H26.9a.215.215,0,0,1-.2-.2l-1.3-4.4a25.956,25.956,0,0,1-.7-3.1h-.1c-.2.9-.4,2-.7,3.1l-1.3,4.4a.215.215,0,0,1-.2.2Z" fill="#fff"/>
    <path id="路径_1082" data-name="路径 1082" d="M31.2,63.7c-.2,0-.2-.1-.2-.2l3.4-9.6a.215.215,0,0,1,.2-.2h1.6a.215.215,0,0,1,.2.2l3.4,9.6c0,.2,0,.2-.2.2H38.2a.215.215,0,0,1-.2-.2l-.7-2.1H33.5l-.7,2.1a.215.215,0,0,1-.2.2Zm2.7-3.8h2.9l-1.4-4.4h-.1Z" fill="#fff"/>
    <path id="路径_1083" data-name="路径 1083" d="M41.2,63.7a.215.215,0,0,1-.2-.2V53.9a.215.215,0,0,1,.2-.2h1.3a.215.215,0,0,1,.2.2v8.3h4.1a.215.215,0,0,1,.2.2v1.1a.215.215,0,0,1-.2.2Z" fill="#fff"/>
    <path id="路径_1084" data-name="路径 1084" d="M48.5,63.7a.215.215,0,0,1-.2-.2V53.9a.215.215,0,0,1,.2-.2h1.3a.215.215,0,0,1,.2.2v8.3h4.1a.215.215,0,0,1,.2.2v1.1a.215.215,0,0,1-.2.2Z" fill="#fff"/>
    <path id="路径_1085" data-name="路径 1085" d="M57.4,62.1h4.5a.215.215,0,0,1,.2.2v1.1a.215.215,0,0,1-.2.2h-6a.215.215,0,0,1-.2-.2V53.8a.215.215,0,0,1,.2-.2h5.8a.215.215,0,0,1,.2.2V55a.215.215,0,0,1-.2.2H57.4v2.6h3.9a.215.215,0,0,1,.2.2v1.1a.215.215,0,0,1-.2.2H57.4Z" fill="#fff"/>
    <path id="路径_1086" data-name="路径 1086" d="M70.4,53.7a.215.215,0,0,1,.2.2V55a.215.215,0,0,1-.2.2H67.6v8.3a.215.215,0,0,1-.2.2H66.1a.215.215,0,0,1-.2-.2V55.2H63.1a.215.215,0,0,1-.2-.2V53.9a.215.215,0,0,1,.2-.2Z" fill="#fff"/>
  </g>
</svg>
