<svg xmlns="http://www.w3.org/2000/svg" width="35.575" height="10.4" viewBox="0 0 35.575 10.4">
  <g id="text_2" transform="translate(-26.525 -53.5)">
    <path id="路径_1077" data-name="路径 1077" d="M30.2,63.9a5.509,5.509,0,0,1-3.6-1.3.187.187,0,0,1,0-.3l.7-1a.188.188,0,0,1,.3,0,5.187,5.187,0,0,0,2.7,1.1c1,0,2-.4,2-1.4s-1.1-1.3-2.3-1.5c-1.5-.3-3.4-1-3.4-3.1,0-1.9,1.7-2.8,3.7-2.8a5.244,5.244,0,0,1,3.3,1.1.367.367,0,0,1,.1.3L33,56a.188.188,0,0,1-.3,0,4.9,4.9,0,0,0-2.5-.8c-1.2,0-1.9.5-1.9,1.2,0,.9.9,1.1,2.1,1.4,1.6.4,3.6.9,3.6,3.1C34,62.9,32.2,63.9,30.2,63.9Z" fill="#fff"/>
    <path id="路径_1078" data-name="路径 1078" d="M41.3,53.9a.215.215,0,0,1,.2-.2h1.3a.215.215,0,0,1,.2.2v9.6a.215.215,0,0,1-.2.2H41.5a.215.215,0,0,1-.2-.2V59.4h-4v4.1a.215.215,0,0,1-.2.2H35.8a.215.215,0,0,1-.2-.2V53.9a.215.215,0,0,1,.2-.2h1.3a.215.215,0,0,1,.2.2v4h4Z" fill="#fff"/>
    <path id="路径_1079" data-name="路径 1079" d="M48.9,63.9A3.531,3.531,0,0,1,45,60V57.4a3.576,3.576,0,0,1,3.9-3.9,3.531,3.531,0,0,1,3.9,3.9V60C52.9,62.4,51.4,63.9,48.9,63.9Zm0-1.6c1.5,0,2.2-.8,2.2-2.3V57.4a2.032,2.032,0,0,0-2.2-2.3c-1.5,0-2.2.8-2.2,2.3V60A2.032,2.032,0,0,0,48.9,62.3Z" fill="#fff"/>
    <path id="路径_1080" data-name="路径 1080" d="M58.6,53.7a3.181,3.181,0,0,1,3.5,3.4c0,2.2-1.3,3.4-3.5,3.4H56.5v3a.215.215,0,0,1-.2.2H55a.215.215,0,0,1-.2-.2V53.9a.215.215,0,0,1,.2-.2Zm-.2,5.2c1.4,0,2-.6,2-1.9s-.6-1.8-2-1.8H56.5v3.7Z" fill="#fff"/>
  </g>
</svg>
