<svg xmlns="http://www.w3.org/2000/svg" width="74.1" height="10.3" viewBox="0 0 74.1 10.3">
  <g id="text_1" transform="translate(-7 -53.4)">
    <path id="路径_1101" data-name="路径 1101" d="M10.7,53.7a3.181,3.181,0,0,1,3.5,3.4c0,2.2-1.3,3.4-3.5,3.4H8.6v3a.215.215,0,0,1-.2.2H7.2c-.2,0-.2-.1-.2-.2V53.9a.215.215,0,0,1,.2-.2Zm-.2,5.2c1.4,0,2-.6,2-1.9s-.6-1.8-2-1.8H8.6v3.7Z" fill="#fff"/>
    <path id="路径_1102" data-name="路径 1102" d="M16,63.7a.215.215,0,0,1-.2-.2V53.9a.215.215,0,0,1,.2-.2h1.3a.215.215,0,0,1,.2.2v8.3h4.1a.215.215,0,0,1,.2.2v1.1a.215.215,0,0,1-.2.2Z" fill="#fff"/>
    <path id="路径_1103" data-name="路径 1103" d="M22.3,63.7c-.2,0-.2-.1-.2-.2l3.4-9.6a.215.215,0,0,1,.2-.2h1.6a.215.215,0,0,1,.2.2l3.4,9.6c0,.2,0,.2-.2.2H29.3a.215.215,0,0,1-.2-.2l-.7-2.1H24.6l-.7,2.1a.215.215,0,0,1-.2.2ZM25,59.9h2.9l-1.4-4.4h-.1Z" fill="#fff"/>
    <path id="路径_1104" data-name="路径 1104" d="M33.7,63.7a.215.215,0,0,1-.2-.2V60l-3.2-6.1c-.1-.1,0-.3.2-.3H32c.1,0,.2,0,.2.2l2.2,4.6,2.2-4.6a.215.215,0,0,1,.2-.2h1.5c.2,0,.2.1.1.3L35.2,60v3.5a.215.215,0,0,1-.2.2Z" fill="#fff"/>
    <path id="路径_1105" data-name="路径 1105" d="M39.2,63.7a.215.215,0,0,1-.2-.2v-.8a.367.367,0,0,1,.1-.3l2.8-3c1.1-1.1,1.9-2.1,1.9-3.1,0-.7-.4-1.3-1.5-1.3a3.119,3.119,0,0,0-2.2,1.1.188.188,0,0,1-.3,0l-.7-.9a.188.188,0,0,1,0-.3,4.073,4.073,0,0,1,3.2-1.5c1.8,0,3.1,1,3.1,2.8,0,1.3-.8,2.3-1.9,3.7A20.393,20.393,0,0,1,41.4,62h4a.215.215,0,0,1,.2.2v1.1a.215.215,0,0,1-.2.2H39.2Z" fill="#fff"/>
    <path id="路径_1106" data-name="路径 1106" d="M49.2,62.1h4.5a.215.215,0,0,1,.2.2v1.1a.215.215,0,0,1-.2.2h-6a.215.215,0,0,1-.2-.2V53.8a.215.215,0,0,1,.2-.2h5.8a.215.215,0,0,1,.2.2V55a.215.215,0,0,1-.2.2H49.2v2.6h3.9a.215.215,0,0,1,.2.2v1.1a.215.215,0,0,1-.2.2H49.2Z" fill="#fff"/>
    <path id="路径_1107" data-name="路径 1107" d="M54.8,63.7c-.2,0-.2-.1-.2-.2L58,53.9a.215.215,0,0,1,.2-.2h1.6a.215.215,0,0,1,.2.2l3.4,9.6c0,.2,0,.2-.2.2H61.8a.215.215,0,0,1-.2-.2l-.7-2.1H57.1l-.7,2.1a.215.215,0,0,1-.2.2Zm2.8-3.8h2.9L59,55.5h0Z" fill="#fff"/>
    <path id="路径_1108" data-name="路径 1108" d="M70.3,63.7c-.1,0-.2,0-.2-.1L67.6,60H66.4v3.4a.215.215,0,0,1-.2.2H64.9a.215.215,0,0,1-.2-.2V53.8a.215.215,0,0,1,.2-.2h3.2c2.3,0,3.6,1.2,3.6,3.2a3.009,3.009,0,0,1-2.3,3L72,63.4c.1.2,0,.3-.1.3Zm-4-8.5v3.3h1.8c1.3,0,1.9-.5,1.9-1.6s-.6-1.7-1.9-1.7Z" fill="#fff"/>
    <path id="路径_1109" data-name="路径 1109" d="M73.7,63.7a.215.215,0,0,1-.2-.2V53.9a.215.215,0,0,1,.2-.2h1.4c.1,0,.2.1.3.1l2.7,4.8c.5.8,1,1.8,1.4,2.5h0c-.1-1.2-.1-2.6-.1-3.8V53.9a.215.215,0,0,1,.2-.2h1.3a.215.215,0,0,1,.2.2v9.6a.215.215,0,0,1-.2.2H79.5c-.1,0-.2,0-.2-.1l-2.6-4.4a24.869,24.869,0,0,1-1.5-2.8h0c.1,1.2.1,2.7.1,3.9v3.2a.215.215,0,0,1-.2.2H73.7Z" fill="#fff"/>
  </g>
</svg>
