<svg xmlns="http://www.w3.org/2000/svg" width="54.3" height="10.4" viewBox="0 0 54.3 10.4">
  <g id="text_5" transform="translate(-16.9 -53.5)">
    <path id="路径_1094" data-name="路径 1094" d="M17.1,63.7a.215.215,0,0,1-.2-.2V53.9a.215.215,0,0,1,.2-.2h1.5c.1,0,.2,0,.2.2l1.7,3.2a27.216,27.216,0,0,1,1.2,2.5h.1A19.553,19.553,0,0,1,23,57l1.7-3.2c.1-.1.1-.2.2-.2h1.5a.215.215,0,0,1,.2.2v9.6a.215.215,0,0,1-.2.2H25.1a.215.215,0,0,1-.2-.2V60.6c0-1.3.1-3,.1-4.4h0c-.3.7-.8,1.7-1.3,2.6l-1.2,2.4a.215.215,0,0,1-.2.2H21.2a.215.215,0,0,1-.2-.2l-1.2-2.4c-.5-.9-.9-1.9-1.3-2.6h0c.1,1.4.1,3.1.1,4.4v2.8a.215.215,0,0,1-.2.2H17.1Z" fill="#fff"/>
    <path id="路径_1095" data-name="路径 1095" d="M30.6,63.5a.215.215,0,0,1-.2.2H29.1a.215.215,0,0,1-.2-.2V53.9a.215.215,0,0,1,.2-.2h1.3a.215.215,0,0,1,.2.2Z" fill="#fff"/>
    <path id="路径_1096" data-name="路径 1096" d="M36,63.9a5.509,5.509,0,0,1-3.6-1.3.188.188,0,0,1,0-.3l.7-1a.188.188,0,0,1,.3,0,5.187,5.187,0,0,0,2.7,1.1c1,0,2-.4,2-1.4s-1.1-1.3-2.3-1.5c-1.5-.3-3.4-1-3.4-3.1,0-1.9,1.7-2.8,3.7-2.8a5.244,5.244,0,0,1,3.3,1.1.367.367,0,0,1,.1.3l-.7,1a.188.188,0,0,1-.3,0,4.9,4.9,0,0,0-2.5-.8c-1.2,0-1.9.5-1.9,1.2,0,.9.9,1.1,2.1,1.4,1.6.4,3.6.9,3.6,3.1C39.9,62.9,38.1,63.9,36,63.9Z" fill="#fff"/>
    <path id="路径_1097" data-name="路径 1097" d="M44.7,63.9a5.509,5.509,0,0,1-3.6-1.3.188.188,0,0,1,0-.3l.7-1a.188.188,0,0,1,.3,0,5.187,5.187,0,0,0,2.7,1.1c1,0,2-.4,2-1.4s-1.1-1.3-2.3-1.5c-1.5-.3-3.4-1-3.4-3.1,0-1.9,1.7-2.8,3.7-2.8a5.244,5.244,0,0,1,3.3,1.1.367.367,0,0,1,.1.3l-.7,1a.188.188,0,0,1-.3,0,4.9,4.9,0,0,0-2.5-.8c-1.2,0-1.9.5-1.9,1.2,0,.9.9,1.1,2.1,1.4,1.6.4,3.6.9,3.6,3.1C48.5,62.9,46.7,63.9,44.7,63.9Z" fill="#fff"/>
    <path id="路径_1098" data-name="路径 1098" d="M51.8,63.5a.215.215,0,0,1-.2.2H50.3a.215.215,0,0,1-.2-.2V53.9a.215.215,0,0,1,.2-.2h1.3a.215.215,0,0,1,.2.2Z" fill="#fff"/>
    <path id="路径_1099" data-name="路径 1099" d="M57.7,63.9A3.531,3.531,0,0,1,53.8,60V57.4a3.576,3.576,0,0,1,3.9-3.9,3.576,3.576,0,0,1,3.9,3.9V60C61.7,62.4,60.2,63.9,57.7,63.9Zm0-1.6c1.5,0,2.2-.8,2.2-2.3V57.4a2.032,2.032,0,0,0-2.2-2.3c-1.5,0-2.2.8-2.2,2.3V60A2.032,2.032,0,0,0,57.7,62.3Z" fill="#fff"/>
    <path id="路径_1100" data-name="路径 1100" d="M63.8,63.7a.215.215,0,0,1-.2-.2V53.9a.215.215,0,0,1,.2-.2h1.4c.1,0,.2.1.3.1l2.7,4.8c.5.8,1,1.8,1.4,2.5h0c-.1-1.2-.1-2.6-.1-3.8V53.9a.215.215,0,0,1,.2-.2H71a.215.215,0,0,1,.2.2v9.6a.215.215,0,0,1-.2.2H69.6c-.1,0-.2,0-.2-.1l-2.6-4.4a24.869,24.869,0,0,1-1.5-2.8h0c.1,1.2.1,2.7.1,3.9v3.2a.215.215,0,0,1-.2.2H63.8Z" fill="#fff"/>
  </g>
</svg>
