<svg xmlns="http://www.w3.org/2000/svg" width="55.365" height="10.4" viewBox="0 0 55.365 10.4">
  <g id="text_4" transform="translate(-17.1 -53.5)">
    <path id="路径_1087" data-name="路径 1087" d="M22.8,53.9a.215.215,0,0,1,.2-.2h1.3a.215.215,0,0,1,.2.2v9.6a.215.215,0,0,1-.2.2H23a.215.215,0,0,1-.2-.2V59.4h-4v4.1a.215.215,0,0,1-.2.2H17.3a.215.215,0,0,1-.2-.2V53.9a.215.215,0,0,1,.2-.2h1.3a.215.215,0,0,1,.2.2v4h4Z" fill="#fff"/>
    <path id="路径_1088" data-name="路径 1088" d="M28.4,63.5a.215.215,0,0,1-.2.2H26.9a.215.215,0,0,1-.2-.2V53.9a.215.215,0,0,1,.2-.2h1.3a.215.215,0,0,1,.2.2Z" fill="#fff"/>
    <path id="路径_1089" data-name="路径 1089" d="M33.8,63.9a5.509,5.509,0,0,1-3.6-1.3.187.187,0,0,1,0-.3l.7-1a.188.188,0,0,1,.3,0,5.187,5.187,0,0,0,2.7,1.1c1,0,2-.4,2-1.4s-1.1-1.3-2.3-1.5c-1.5-.3-3.4-1-3.4-3.1,0-1.9,1.7-2.8,3.7-2.8a5.244,5.244,0,0,1,3.3,1.1.367.367,0,0,1,.1.3l-.7,1a.188.188,0,0,1-.3,0,4.9,4.9,0,0,0-2.5-.8c-1.2,0-1.9.5-1.9,1.2,0,.9.9,1.1,2.1,1.4,1.6.4,3.6.9,3.6,3.1C37.7,62.9,35.9,63.9,33.8,63.9Z" fill="#fff"/>
    <path id="路径_1090" data-name="路径 1090" d="M45.8,53.7a.215.215,0,0,1,.2.2V55a.215.215,0,0,1-.2.2H43v8.3a.215.215,0,0,1-.2.2H41.5a.215.215,0,0,1-.2-.2V55.2H38.5a.215.215,0,0,1-.2-.2V53.9a.215.215,0,0,1,.2-.2Z" fill="#fff"/>
    <path id="路径_1091" data-name="路径 1091" d="M50.8,63.9A3.531,3.531,0,0,1,46.9,60V57.4a3.576,3.576,0,0,1,3.9-3.9,3.531,3.531,0,0,1,3.9,3.9V60A3.624,3.624,0,0,1,50.8,63.9Zm0-1.6c1.5,0,2.2-.8,2.2-2.3V57.4a2.2,2.2,0,1,0-4.4,0V60C48.6,61.5,49.3,62.3,50.8,62.3Z" fill="#fff"/>
    <path id="路径_1092" data-name="路径 1092" d="M62.3,63.7c-.1,0-.2,0-.2-.1L59.6,60H58.4v3.4a.215.215,0,0,1-.2.2H56.9a.215.215,0,0,1-.2-.2V53.8a.215.215,0,0,1,.2-.2h3.2c2.3,0,3.6,1.2,3.6,3.2a3.009,3.009,0,0,1-2.3,3L64,63.4c.1.2,0,.3-.1.3Zm-4-8.5v3.3h1.8c1.3,0,1.9-.5,1.9-1.6s-.6-1.7-1.9-1.7Z" fill="#fff"/>
    <path id="路径_1093" data-name="路径 1093" d="M67.8,63.7a.215.215,0,0,1-.2-.2V60l-3.2-6.1c-.1-.1,0-.3.2-.3H66c.1,0,.2,0,.2.2l2.2,4.6,2.2-4.6a.215.215,0,0,1,.2-.2h1.5c.2,0,.2.1.1.3L69.3,60v3.5a.215.215,0,0,1-.2.2Z" fill="#fff"/>
  </g>
</svg>
