<svg xmlns="http://www.w3.org/2000/svg" xmlns:xlink="http://www.w3.org/1999/xlink" width="281.777" height="105.46" viewBox="0 0 281.777 105.46">
  <defs>
    <clipPath id="clip-path">
      <path id="路径_2355" data-name="路径 2355" d="M663.824,1109.747H410.434a13.253,13.253,0,0,0-11.477,6.627l-.489,74.661a13.252,13.252,0,0,0,11.477,19.878H663.824A11.909,11.909,0,0,0,675.734,1199v-77.347A11.91,11.91,0,0,0,663.824,1109.747Z" fill="none"/>
    </clipPath>
  </defs>
  <g id="组_1347" data-name="组 1347" transform="translate(-396.673 -1109.747)">
    <path id="路径_2346" data-name="路径 2346" d="M666.54,1114.041H408.583a11.91,11.91,0,0,0-11.91,11.91V1203.3a11.91,11.91,0,0,0,11.91,11.91H666.54a11.91,11.91,0,0,0,11.91-11.91v-77.346A11.91,11.91,0,0,0,666.54,1114.041Z" fill="#c8d1ff"/>
    <g id="组_1335" data-name="组 1335">
      <path id="路径_2347" data-name="路径 2347" d="M666.54,1109.747H410.326a13.251,13.251,0,0,0-11.477,6.627l-.381,74.661a13.252,13.252,0,0,0,11.477,19.878H666.54A11.91,11.91,0,0,0,678.45,1199v-77.347A11.911,11.911,0,0,0,666.54,1109.747Z" fill="#fff"/>
    </g>
    <g id="组_1346" data-name="组 1346">
      <g id="组_1345" data-name="组 1345" clip-path="url(#clip-path)">
        <g id="组_1344" data-name="组 1344">
          <g id="组_1343" data-name="组 1343">
            <g id="组_1336" data-name="组 1336">
              <rect id="矩形_632" data-name="矩形 632" width="92.069" height="18.34" rx="8.007" transform="translate(466.801 1274.063) rotate(-61.126)" fill="#c9caca"/>
            </g>
            <g id="组_1337" data-name="组 1337">
              <rect id="矩形_633" data-name="矩形 633" width="121.989" height="18.56" rx="8.103" transform="translate(401.008 1252.66) rotate(-61.126)" fill="#c9caca"/>
            </g>
            <g id="组_1338" data-name="组 1338">
              <rect id="矩形_634" data-name="矩形 634" width="74.481" height="14.836" rx="6.477" transform="translate(387.185 1181.936) rotate(-61.126)" fill="#c9caca"/>
            </g>
            <g id="组_1339" data-name="组 1339">
              <rect id="矩形_635" data-name="矩形 635" width="92.069" height="18.34" rx="8.007" transform="translate(581.021 1249.055) rotate(-61.126)" fill="#c9caca"/>
            </g>
            <g id="组_1340" data-name="组 1340">
              <rect id="矩形_636" data-name="矩形 636" width="74.481" height="14.836" rx="6.477" transform="translate(536.414 1184.442) rotate(-61.126)" fill="#c9caca"/>
            </g>
            <g id="组_1341" data-name="组 1341">
              <rect id="矩形_637" data-name="矩形 637" width="65.141" height="12.976" rx="5.665" transform="translate(513.3 1115.963) rotate(-61.126)" fill="#c9caca"/>
            </g>
            <g id="组_1342" data-name="组 1342">
              <rect id="矩形_638" data-name="矩形 638" width="121.989" height="18.56" rx="8.103" transform="translate(600.771 1127.562) rotate(-61.126)" fill="#c9caca"/>
            </g>
            <path id="路径_2348" data-name="路径 2348" d="M460.078,1127.364v-3.488h3.488a3.7,3.7,0,0,0,3.682-3.682,3.638,3.638,0,0,0-1.172-2.657c-.036-.033-.063-.074-.1-.106a3.649,3.649,0,0,0-2.41-.919h-3.488v-3.488a3.683,3.683,0,0,0-2.928-3.6,3.733,3.733,0,0,0-.754-.078,3.682,3.682,0,0,0-3.682,3.682v3.488h-3.488a3.682,3.682,0,1,0,0,7.364h3.488v3.488a3.682,3.682,0,0,0,7.364,0Z" fill="#c9caca"/>
            <path id="路径_2349" data-name="路径 2349" d="M409.8,1195.524h2.454v2.453a2.589,2.589,0,1,0,5.179,0v-2.453h2.454a2.535,2.535,0,0,0,.541-.059,2.59,2.59,0,0,0-.541-5.12h-2.454v-2.454a2.589,2.589,0,0,0-5.179,0v2.454H409.8a2.59,2.59,0,0,0,0,5.179Z" fill="#c9caca"/>
            <path id="路径_2350" data-name="路径 2350" d="M561.568,1206.9c-.223-.018-.447-.034-.675-.034a8.434,8.434,0,1,0,.675.034Z" fill="#c9caca"/>
            <path id="路径_2351" data-name="路径 2351" d="M469.678,1201.225a5.428,5.428,0,0,0-.824,10.8h0a5.42,5.42,0,0,0,3.088-10.288h0A5.391,5.391,0,0,0,469.678,1201.225Z" fill="#c9caca"/>
            <path id="路径_2352" data-name="路径 2352" d="M490.221,1114.886a3.945,3.945,0,0,0-.6,7.846h0a3.94,3.94,0,0,0,2.245-7.477h0A3.927,3.927,0,0,0,490.221,1114.886Z" fill="#c9caca"/>
            <path id="路径_2353" data-name="路径 2353" d="M655.919,1123.876v3.488h-3.488a3.69,3.69,0,0,0-3.682,3.682,3.638,3.638,0,0,0,1.172,2.656c.036.034.063.075.1.107a3.649,3.649,0,0,0,2.41.918h3.488v3.489a3.682,3.682,0,1,0,7.364,0v-3.489h3.488a3.682,3.682,0,1,0,0-7.363h-3.488v-3.488a3.682,3.682,0,0,0-7.364,0Z" fill="#c9caca"/>
            <path id="路径_2354" data-name="路径 2354" d="M646.022,1165.335c.223.017.447.034.675.034a8.346,8.346,0,1,0-8.271-9.413,8.518,8.518,0,0,0-.075,1.067A8.342,8.342,0,0,0,646.022,1165.335Z" fill="#c9caca"/>
          </g>
        </g>
      </g>
    </g>
    <path id="路径_2356" data-name="路径 2356" d="M666.54,1109.747H408.583a11.91,11.91,0,0,0-11.91,11.91V1199a11.909,11.909,0,0,0,11.91,11.909H666.54A11.909,11.909,0,0,0,678.45,1199v-77.347A11.91,11.91,0,0,0,666.54,1109.747ZM675.229,1199a8.7,8.7,0,0,1-8.689,8.689H408.583a8.7,8.7,0,0,1-8.689-8.689v-77.347a8.7,8.7,0,0,1,8.689-8.689H666.54a8.7,8.7,0,0,1,8.689,8.689Z" fill="#fff"/>
  </g>
</svg>
