<svg xmlns="http://www.w3.org/2000/svg" xmlns:xlink="http://www.w3.org/1999/xlink" width="690.7" height="389.7" viewBox="0 0 690.7 389.7">
  <defs>
    <clipPath id="clip-path">
      <path id="路径_1714" data-name="路径 1714" d="M688,37.6H26.2V388.3a21.211,21.211,0,0,0,21.2,21.2H687.7a21.211,21.211,0,0,0,21.2-21.2V58.8A21.213,21.213,0,0,0,688,37.6Z"/>
    </clipPath>
  </defs>
  <g id="black_bg" transform="translate(-22.2 -33.6)">
    <g id="组_914" data-name="组 914">
      <path id="路径_1701" data-name="路径 1701" d="M687.9,40.7H22.2V398.1a25.223,25.223,0,0,0,25.2,25.2H687.7a25.223,25.223,0,0,0,25.2-25.2V65.9a25.262,25.262,0,0,0-23.2-25.1l-.1-.1Z" fill="#c8d1ff"/>
    </g>
    <path id="路径_1702" data-name="路径 1702" d="M688,37.6H26.2V390a21.211,21.211,0,0,0,21.2,21.2H687.7A21.211,21.211,0,0,0,708.9,390V58.8A21.213,21.213,0,0,0,688,37.6Z" fill="#1a1a1a"/>
    <g id="组_915" data-name="组 915">
      <path id="路径_1703" data-name="路径 1703" d="M687.9,37.6h0a21.3,21.3,0,0,1,21,21.2V390a21.211,21.211,0,0,1-21.2,21.2H47.4A21.211,21.211,0,0,1,26.2,390V37.6H687.9m0-4H22.2V390a25.223,25.223,0,0,0,25.2,25.2H687.7A25.223,25.223,0,0,0,712.9,390V58.8a25.262,25.262,0,0,0-23.2-25.1l-.1-.1Z" fill="#fff"/>
    </g>
    <g id="组_917" data-name="组 917">
      <g id="组_916" data-name="组 916" clip-path="url(#clip-path)">
        <path id="路径_1704" data-name="路径 1704" d="M224.8,274.1,19.8,645.9a38.221,38.221,0,0,1-51.7,15h0a38.22,38.22,0,0,1-15-51.7l205-371.8a38.22,38.22,0,0,1,51.7-15h0A38.107,38.107,0,0,1,224.8,274.1Z" opacity="0.3"/>
        <path id="路径_1705" data-name="路径 1705" d="M816,631.4,611,1003.2a38.22,38.22,0,0,1-51.7,15h0a38.221,38.221,0,0,1-15-51.7l205-371.8a38.221,38.221,0,0,1,51.7-15h0A38.133,38.133,0,0,1,816,631.4Z" opacity="0.3"/>
        <path id="路径_1706" data-name="路径 1706" d="M111.6,32-6.6,246.4a30.63,30.63,0,0,1-41.4,12h0A30.63,30.63,0,0,1-60,217L58.3,2.6a30.63,30.63,0,0,1,41.4-12h0A30.6,30.6,0,0,1,111.6,32Z" opacity="0.3"/>
        <path id="路径_1707" data-name="路径 1707" d="M663.2,605.4,545,819.8a30.63,30.63,0,0,1-41.4,12h0a30.63,30.63,0,0,1-12-41.4L609.9,576a30.63,30.63,0,0,1,41.4-12h0A30.6,30.6,0,0,1,663.2,605.4Z" opacity="0.3"/>
        <path id="路径_1708" data-name="路径 1708" d="M265.2,606.6,119,871.6a37.743,37.743,0,0,1-51.1,14.8h0a37.743,37.743,0,0,1-14.8-51.1l146.1-265a37.743,37.743,0,0,1,51.1-14.8h0A37.69,37.69,0,0,1,265.2,606.6Z" opacity="0.3"/>
        <path id="路径_1709" data-name="路径 1709" d="M490.1,292.6,371.9,507a30.63,30.63,0,0,1-41.4,12h0a30.63,30.63,0,0,1-12-41.4L436.7,263.2a30.63,30.63,0,0,1,41.4-12h0A30.542,30.542,0,0,1,490.1,292.6Z" opacity="0.3"/>
        <path id="路径_1710" data-name="路径 1710" d="M795-40.3,676.8,174.1a30.63,30.63,0,0,1-41.4,12h0a30.63,30.63,0,0,1-12-41.4L741.7-69.7a30.63,30.63,0,0,1,41.4-12h0A30.622,30.622,0,0,1,795-40.3Z" opacity="0.3"/>
        <path id="路径_1711" data-name="路径 1711" d="M477.3,14.4,373.9,201.9a26.847,26.847,0,0,1-36.2,10.5h0a26.847,26.847,0,0,1-10.5-36.2L430.6-11.3a26.847,26.847,0,0,1,36.2-10.5h0A26.759,26.759,0,0,1,477.3,14.4Z" opacity="0.3"/>
        <path id="路径_1712" data-name="路径 1712" d="M422,769.3,318.6,956.8a26.847,26.847,0,0,1-36.2,10.5h0a26.847,26.847,0,0,1-10.5-36.2L375.3,743.6a26.847,26.847,0,0,1,36.2-10.5h0A26.821,26.821,0,0,1,422,769.3Z" opacity="0.3"/>
        <path id="路径_1713" data-name="路径 1713" d="M693.4,304.2,590,491.7a26.847,26.847,0,0,1-36.2,10.5h0A26.847,26.847,0,0,1,543.3,466L646.7,278.5A26.847,26.847,0,0,1,682.9,268h0A26.671,26.671,0,0,1,693.4,304.2Z" opacity="0.3"/>
      </g>
    </g>
  </g>
</svg>
