<?xml version="1.0" encoding="utf-8"?>
<!-- Generator: Adobe Illustrator 25.4.1, SVG Export Plug-In . SVG Version: 6.00 Build 0)  -->
<svg version="1.1" id="Layer_1" xmlns="http://www.w3.org/2000/svg" xmlns:xlink="http://www.w3.org/1999/xlink" x="0px" y="0px"
	 viewBox="0 0 1080 1080" style="enable-background:new 0 0 1080 1080;" xml:space="preserve">
<style type="text/css">
	.st0{fill:#32254A;}
	.st1{fill:#E48D7A;}
	.st2{fill:#DB6666;}
	.st3{fill:#F0BB98;}
	.st4{fill:#EEB195;}
	.st5{fill:#040000;}
	.st6{fill:#002438;}
	.st7{fill:#FFFFFF;}
	.st8{fill:#CADAE3;}
	.st9{fill:#DF425A;}
	.st10{fill:#C81A4D;}
	.st11{fill:#E1627D;}
	.st12{fill:#DD214B;}
	.st13{fill:#FAD6BB;}
	.st14{fill:#344D59;}
	.st15{fill:#9EC43E;}
	.st16{fill:#602A85;}
	.st17{fill:#C85294;}
	.st18{fill:#442862;}
</style>
<g>
	<rect x="207.4" y="673.6" class="st0" width="660.5" height="205.9"/>
	<rect x="313" y="577.3" class="st1" width="449.3" height="524.1"/>
	<path class="st2" d="M313,577.3v247c19.4,106.4,112.7,187.3,224.6,187.3c111.9,0,205.2-80.9,224.6-187.3v-247H313z"/>
	<path class="st1" d="M208.1,507.8h659.1c27.7,0,50.2-22.5,50.2-50.2v-1.2c0-27.7-22.5-50.2-50.2-50.2H208.1
		c-27.7,0-50.2,22.5-50.2,50.2v1.2C157.9,485.3,180.4,507.8,208.1,507.8z"/>
	<path class="st2" d="M866.6,471.7H208.7c-21.7,0-40.2-13.6-47.5-32.8c-2.1,5.6-3.3,11.7-3.3,18c0,28.1,22.7,50.8,50.8,50.8h657.9
		c28.1,0,50.8-22.7,50.8-50.8c0-6.4-1.2-12.4-3.3-18C906.8,458.1,888.3,471.7,866.6,471.7z"/>
	<path class="st3" d="M793,573.2H282.3V367.8c0-139.3,113-252.3,252.3-252.3h6.2c139.3,0,252.3,113,252.3,252.3V573.2z"/>
	<path class="st3" d="M760.9,427.5H314.4c-50.2,0-90.9,40.7-90.9,90.9v0c0,50.2,40.7,90.9,90.9,90.9h8.9c28.3,0,51.3,22.9,51.3,51.3
		v122.6c0,90.1,73,163.1,163.1,163.1h0c90.1,0,163.1-73,163.1-163.1V660.6c0-28.3,22.9-51.3,51.3-51.3h8.9
		c50.2,0,90.9-40.7,90.9-90.9v0C851.9,468.2,811.2,427.5,760.9,427.5z"/>
	<g>
		<path class="st4" d="M374.5,620.1c0-28.3-22.9-51.3-51.3-51.3h-8.9c-43.2,0-79.4-30.2-88.6-70.7c-1.5,6.5-2.3,13.3-2.3,20.3v0
			c0,50.2,40.7,90.9,90.9,90.9h8.9c28.3,0,51.3,22.9,51.3,51.3V620.1z"/>
		<path class="st4" d="M760.9,568.9H752c-28.3,0-51.3,22.9-51.3,51.3v40.5c0-28.3,22.9-51.3,51.3-51.3h8.9
			c50.2,0,90.9-40.7,90.9-90.9v0c0-7-0.9-13.7-2.3-20.3C840.3,538.7,804.2,568.9,760.9,568.9z"/>
		<path class="st4" d="M537.6,905.8L537.6,905.8c-90.1,0-163.1-73-163.1-163.1v40.5c0,90.1,73,163.1,163.1,163.1l0,0
			c90.1,0,163.1-73,163.1-163.1v-40.5C700.8,832.8,627.7,905.8,537.6,905.8z"/>
	</g>
	<rect x="255.5" y="374.7" class="st5" width="564.3" height="74.9"/>
	<g>
		<path class="st6" d="M538.9,884.8h-2.5C481,884.8,436,839.9,436,784.4V622.8h203.2v161.7C639.3,839.9,594.3,884.8,538.9,884.8z"/>
		<path class="st7" d="M605.1,657.5v-34.8H436v58.8h145C594.3,681.6,605.1,670.8,605.1,657.5z"/>
		<rect x="436" y="622.8" class="st8" width="169" height="24.4"/>
		<path class="st9" d="M497.4,727.1H436v56.2c0,56.1,45.5,101.6,101.6,101.6h0c0.2,0,0.4,0,0.5,0v-117
			C538.2,745.3,519.9,727.1,497.4,727.1z"/>
		<path class="st10" d="M534.7,843.2L534.7,843.2c-32.9,0-59.5-26.7-59.5-59.5V727H436v56.2c0,56.1,45.5,101.6,101.6,101.6l0,0
			c0.2,0,0.4,0,0.5,0v-41.7H534.7z"/>
		<path class="st11" d="M507.9,804.7h-0.3c-7.4,0-13.3-6-13.3-13.3v-31.2c0-7.4,6-13.3,13.3-13.3h0.3c7.4,0,13.3,6,13.3,13.3v31.2
			C521.2,798.8,515.2,804.7,507.9,804.7z"/>
	</g>
	<rect x="460.1" y="491.7" class="st9" width="155.1" height="85.6"/>
	<rect x="460.1" y="491.7" class="st12" width="155.1" height="47.4"/>
	<rect x="460.1" y="577.3" class="st4" width="155.1" height="24.9"/>
	<path class="st13" d="M803.5,515.1h-24.4c-8.2,0-14.8-6.6-14.8-14.8v-0.4c0-8.2,6.6-14.8,14.8-14.8h24.4c8.2,0,14.8,6.6,14.8,14.8
		v0.4C818.3,508.5,811.7,515.1,803.5,515.1z"/>
	<path class="st13" d="M299.3,515.1h-24.4c-8.2,0-14.8-6.6-14.8-14.8v-0.4c0-8.2,6.6-14.8,14.8-14.8h24.4c8.2,0,14.8,6.6,14.8,14.8
		v0.4C314.1,508.5,307.5,515.1,299.3,515.1z"/>
	<g>
		<path class="st1" d="M480.4,322.7h-86.1c-11.7,0-21.1-9.5-21.1-21.1V301c0-11.7,9.5-21.1,21.1-21.1h86.1
			c11.7,0,21.1,9.5,21.1,21.1v0.5C501.5,313.2,492.1,322.7,480.4,322.7z"/>
		<g>
			<path class="st9" d="M480.4,291.2h-86.1c-11.7,0-21.1-9.5-21.1-21.1v-0.5c0-11.7,9.5-21.1,21.1-21.1h86.1
				c11.7,0,21.1,9.5,21.1,21.1v0.5C501.5,281.7,492.1,291.2,480.4,291.2z"/>
			<path class="st10" d="M480.2,277.6h-85.6c-9.4,0-17.4-6.2-20.2-14.6c-0.7,2.1-1.2,4.4-1.2,6.8c0,11.8,9.6,21.4,21.4,21.4h85.6
				c11.8,0,21.4-9.6,21.4-21.4c0-2.4-0.5-4.6-1.2-6.8C497.5,271.5,489.6,277.6,480.2,277.6z"/>
			<path class="st11" d="M462.8,266.4h-45.2c-4.9,0-8.9-4-8.9-8.9v-0.2c0-4.9,4-8.9,8.9-8.9h45.2c4.9,0,8.9,4,8.9,8.9v0.2
				C471.7,262.4,467.7,266.4,462.8,266.4z"/>
		</g>
	</g>
	<g>
		<path class="st1" d="M678.5,322.7h-86.1c-11.7,0-21.1-9.5-21.1-21.1V301c0-11.7,9.5-21.1,21.1-21.1h86.1
			c11.7,0,21.1,9.5,21.1,21.1v0.5C699.6,313.2,690.2,322.7,678.5,322.7z"/>
		<g>
			<path class="st9" d="M678.5,291.2h-86.1c-11.7,0-21.1-9.5-21.1-21.1v-0.5c0-11.7,9.5-21.1,21.1-21.1h86.1
				c11.7,0,21.1,9.5,21.1,21.1v0.5C699.6,281.7,690.2,291.2,678.5,291.2z"/>
			<path class="st10" d="M678.2,277.6h-85.6c-9.4,0-17.4-6.2-20.2-14.6c-0.7,2.1-1.2,4.4-1.2,6.8c0,11.8,9.6,21.4,21.4,21.4h85.6
				c11.8,0,21.4-9.6,21.4-21.4c0-2.4-0.5-4.6-1.2-6.8C695.6,271.5,687.7,277.6,678.2,277.6z"/>
			<path class="st11" d="M660.9,266.4h-45.2c-4.9,0-8.9-4-8.9-8.9v-0.2c0-4.9,4-8.9,8.9-8.9h45.2c4.9,0,8.9,4,8.9,8.9v0.2
				C669.8,262.4,665.8,266.4,660.9,266.4z"/>
		</g>
	</g>
	<path class="st14" d="M642.9,333.6H471.6c-4.9,0-8.9-4-8.9-8.9v-0.2c0-4.9,4-8.9,8.9-8.9h171.3c4.9,0,8.9,4,8.9,8.9v0.2
		C651.8,329.6,647.8,333.6,642.9,333.6z"/>
	<g>
		<path class="st9" d="M834.5,291.2h-10.7v-16c0-36.9-29.9-66.9-66.9-66.9h-24.1v168.5h34.8h56.2h10.7c23.6,0,42.8-19.2,42.8-42.8v0
			C877.3,310.3,858.1,291.2,834.5,291.2z"/>
		<path class="st10" d="M850.6,345.5h-11.3c-43.9,0-79.5-35.6-79.5-79.5v-42.8c0-5.2,1.2-10.2,3.2-14.7c-2-0.2-4-0.3-6.1-0.3h-24.1
			v168.5h34.8h56.2h10.7c23.6,0,42.8-19.2,42.8-42.8v0c0-0.2,0-0.4,0-0.6C870.8,340.8,861.3,345.5,850.6,345.5z"/>
	</g>
	<g>
		<path class="st9" d="M239.9,291.2h10.7v-16c0-36.9,29.9-66.9,66.9-66.9h24.1v168.5h-34.8h-56.2h-10.7c-23.6,0-42.8-19.2-42.8-42.8
			v0C197.1,310.3,216.3,291.2,239.9,291.2z"/>
		<path class="st10" d="M223.8,345.5H235c43.9,0,79.5-35.6,79.5-79.5v-42.8c0-5.2-1.2-10.2-3.2-14.7c2-0.2,4-0.3,6.1-0.3h24.1v168.5
			h-34.8h-56.2h-10.7c-23.6,0-42.8-19.2-42.8-42.8v0c0-0.2,0-0.4,0-0.6C203.6,340.8,213.1,345.5,223.8,345.5z"/>
	</g>
	<g>
		<path class="st6" d="M682.9,508.7H392.4c-52.7,0-95.4-42.7-95.4-95.4V411c0-52.7,42.7-95.4,95.4-95.4h290.5
			c52.7,0,95.4,42.7,95.4,95.4v2.3C778.3,466,735.6,508.7,682.9,508.7z"/>
		<path class="st5" d="M681.8,459.2H393.5c-44.8,0-82.3-30.5-93.2-71.8c-2.1,7.9-3.3,16.2-3.3,24.8v0c0,53.3,43.2,96.6,96.6,96.6
			h288.2c53.3,0,96.6-43.2,96.6-96.6v0c0-8.6-1.2-16.8-3.3-24.8C764.1,428.7,726.5,459.2,681.8,459.2z"/>
		<g>
			<g>
				<circle class="st15" cx="395.9" cy="411.5" r="72.2"/>
				<path class="st7" d="M395.9,339.3c-39.9,0-72.2,32.3-72.2,72.2c0,16.5,5.6,31.8,14.9,43.9l101.2-101.2
					C427.7,344.9,412.4,339.3,395.9,339.3z"/>
				<path class="st7" d="M450.8,364.6L349,466.4c6.9,5.9,15,10.6,23.9,13.5l91.4-91.4C461.4,379.7,456.8,371.6,450.8,364.6z"/>
			</g>
			<g>
				<circle class="st15" cx="679.4" cy="411.5" r="72.2"/>
				<path class="st7" d="M679.4,339.3c-39.9,0-72.2,32.3-72.2,72.2c0,16.5,5.6,31.8,14.9,43.9l101.2-101.2
					C711.1,344.9,695.9,339.3,679.4,339.3z"/>
				<path class="st7" d="M734.3,364.6L632.5,466.4c6.9,5.9,15,10.6,23.9,13.5l91.4-91.4C744.9,379.7,740.2,371.6,734.3,364.6z"/>
			</g>
		</g>
	</g>
	<rect x="314.1" y="863.3" class="st2" width="76.5" height="216.1"/>
	<rect x="683.3" y="872.3" class="st2" width="76.5" height="216.1"/>
	<g>
		<path class="st16" d="M346.4,1101.4H207.4V673.6h1.7c75.9,0,137.4,61.5,137.4,137.4V1101.4z"/>
		<path class="st16" d="M728.9,1101.4h139.1V673.6h-1.7c-75.9,0-137.4,61.5-137.4,137.4V1101.4z"/>
	</g>
	<path class="st17" d="M818.6,1011.8h-0.4c-9.8,0-17.8-8-17.8-17.8V737c0-9.8,8-17.8,17.8-17.8h0.4c9.8,0,17.8,8,17.8,17.8V994
		C836.3,1003.9,828.4,1011.8,818.6,1011.8z"/>
	<path class="st17" d="M298.6,867.8h-0.5c-11.1,0-20-9-20-20v-86c0-11.1,9-20,20-20h0.5c11.1,0,20,9,20,20v86
		C318.6,858.8,309.6,867.8,298.6,867.8z"/>
	<rect x="207.4" y="1034.3" class="st18" width="139.1" height="67.1"/>
	<rect x="728.9" y="1034.3" class="st18" width="139.1" height="67.1"/>
	<rect x="167.3" y="1077.4" class="st16" width="740.8" height="69.5"/>
	<path class="st13" d="M598,201.5h-45.6c-12.3,0-22.2-10-22.2-22.2v-0.5c0-12.3,10-22.2,22.2-22.2H598c12.3,0,22.2,10,22.2,22.2v0.5
		C620.2,191.5,610.3,201.5,598,201.5z"/>
</g>
</svg>
