<?xml version="1.0" encoding="utf-8"?>
<!-- Generator: Adobe Illustrator 25.4.1, SVG Export Plug-In . SVG Version: 6.00 Build 0)  -->
<svg version="1.1" id="Layer_1" xmlns="http://www.w3.org/2000/svg" xmlns:xlink="http://www.w3.org/1999/xlink" x="0px" y="0px"
	 viewBox="0 0 1080 1080" style="enable-background:new 0 0 1080 1080;" xml:space="preserve">
<style type="text/css">
	.st0{fill:#DA753F;}
	.st1{fill:#C05822;}
	.st2{fill:#040000;}
	.st3{fill:#E99053;}
	.st4{fill:#EDA062;}
	.st5{fill:#002438;}
	.st6{fill:#073341;}
	.st7{fill:#9B2383;}
	.st8{fill:#7D1934;}
	.st9{fill:#4B0614;}
	.st10{fill:#FFFFFF;}
	.st11{fill:#CADAE3;}
</style>
<g>
	<rect x="423.5" y="840.9" class="st0" width="228.2" height="304.3"/>
	<path class="st1" d="M423.5,818.1v175.6c35,19,75.1,29.8,117.7,29.8h0c39.7,0,77.2-9.4,110.5-26.1V818.1H423.5z"/>
	<g>
		<path class="st2" d="M238.7,936h-2.5V551.8h205.4V733C441.7,845.1,350.8,936,238.7,936z"/>
		<path class="st2" d="M836.4,936h2.5V551.8H633.5V733C633.5,845.1,724.3,936,836.4,936z"/>
	</g>
	<g>
		<g>
			<circle class="st3" cx="292.3" cy="639.3" r="49.5"/>
			<circle class="st1" cx="292.3" cy="639.3" r="16.5"/>
		</g>
		<g>
			<circle class="st3" cx="782.8" cy="639.3" r="49.5"/>
			<circle class="st1" cx="782.8" cy="639.3" r="16.5"/>
		</g>
	</g>
	<path class="st4" d="M540.6,958.8h-6c-134.9,0-244.3-109.4-244.3-244.3V468.9c0-134.9,109.4-244.3,244.3-244.3h6
		c134.9,0,244.3,109.4,244.3,244.3v245.6C784.8,849.4,675.5,958.8,540.6,958.8z"/>
	<path class="st3" d="M537.6,844.7L537.6,844.7C401,844.7,290.3,734,290.3,597.4v114.1c0,136.6,110.7,247.3,247.3,247.3h0
		c136.6,0,247.3-110.7,247.3-247.3V597.4C784.8,734,674.1,844.7,537.6,844.7z"/>
	<path class="st3" d="M778.2,414.8H297c-4.3,18.3-6.7,37.4-6.7,57.1v117.9h494.5V471.9C784.8,452.2,782.5,433.2,778.2,414.8z"/>
	<path class="st5" d="M537.6,163.8c-166.4,0-301.3,134.9-301.3,301.3v97.3h168.2V452.9l74.5,74.5v-32.8l67.8,67.8h292.1v-97.3
		C838.9,298.7,704,163.8,537.6,163.8z"/>
	<g>
		<path class="st2" d="M444.2,623.6c-0.3-22.9-18.9-41.3-41.8-41.3c-22.9,0-41.6,18.5-41.8,41.3H444.2z"/>
		<path class="st2" d="M714.6,624.1c-0.3-22.9-18.9-41.3-41.8-41.3c-22.9,0-41.6,18.5-41.8,41.3H714.6z"/>
	</g>
	<g>
		<path class="st3" d="M311.2,654.5h80.1c4.2,0,7.5-3.4,7.5-7.5v-0.2c0-4.2-3.4-7.5-7.5-7.5h-80.1c-4.2,0-7.5,3.4-7.5,7.5v0.2
			C303.6,651.1,307,654.5,311.2,654.5z"/>
		<path class="st3" d="M684,654.5H764c4.2,0,7.5-3.4,7.5-7.5v-0.2c0-4.2-3.4-7.5-7.5-7.5H684c-4.2,0-7.5,3.4-7.5,7.5v0.2
			C676.4,651.1,679.8,654.5,684,654.5z"/>
	</g>
	<g>
		<circle class="st1" cx="499.7" cy="686" r="10.3"/>
		<circle class="st1" cx="575.4" cy="686" r="10.3"/>
	</g>
	<g>
		<path class="st6" d="M730,502.3h-0.6c-13.5,0-24.4-10.9-24.4-24.4V340.4c0-13.5,10.9-24.4,24.4-24.4h0.6
			c13.5,0,24.4,10.9,24.4,24.4v137.5C754.4,491.4,743.5,502.3,730,502.3z"/>
		<path class="st6" d="M596.8,471.9h-0.4c-9.3,0-16.9-7.6-16.9-16.9v-57.5c0-9.3,7.6-16.9,16.9-16.9h0.4c9.3,0,16.9,7.6,16.9,16.9
			V455C613.7,464.3,606.1,471.9,596.8,471.9z"/>
		<path class="st6" d="M490.4,392h-0.7c-15.6,0-28.2-12.6-28.2-28.2v-73c0-15.6,12.6-28.2,28.2-28.2h0.7c15.6,0,28.2,12.6,28.2,28.2
			v73C518.6,379.4,505.9,392,490.4,392z"/>
		<path class="st6" d="M345.8,532.8h-0.6c-13.5,0-24.4-10.9-24.4-24.4v-91.9c0-13.5,10.9-24.4,24.4-24.4h0.6
			c13.5,0,24.4,10.9,24.4,24.4v91.9C370.2,521.8,359.3,532.8,345.8,532.8z"/>
	</g>
	<rect x="360.7" y="1069.1" class="st7" width="353.8" height="76.1"/>
	<g>
		<path class="st8" d="M439.4,723c0,0.4,0,0.8,0,1.2c0,54.2,44,98.2,98.2,98.2s98.2-44,98.2-98.2c0-0.4,0-0.8,0-1.2H439.4z"/>
		<path class="st9" d="M584.1,795h-93c-12.6,0-22.8-10.2-22.8-22.8v-0.6c0-12.6,10.2-22.8,22.8-22.8h93c12.6,0,22.8,10.2,22.8,22.8
			v0.6C606.9,784.8,596.7,795,584.1,795z"/>
		<g>
			<path class="st10" d="M594.5,755H480.6c-14.7,0-26.6-11.9-26.6-26.6V723h167.1v5.4C621.1,743.1,609.2,755,594.5,755z"/>
			<rect x="454" y="723" class="st11" width="167.1" height="14.2"/>
		</g>
		<path class="st10" d="M587.6,808.6c5.7-3.4,11-7.3,15.9-11.7c-2.5-2.7-6-4.4-10-4.4H481.7c-4,0-7.5,1.7-10,4.4
			c4.9,4.4,10.2,8.3,15.9,11.7H587.6z"/>
		<path class="st11" d="M537.6,822.3c18.3,0,35.4-5,50-13.7h-100C502.2,817.3,519.3,822.3,537.6,822.3z"/>
	</g>
	<g>
		<circle class="st7" cx="263.7" cy="688.7" r="19"/>
		<circle class="st7" cx="811.5" cy="688.7" r="19"/>
	</g>
</g>
</svg>
