<svg xmlns="http://www.w3.org/2000/svg" width="41.308" height="41.31" viewBox="0 0 41.308 41.31">
  <g id="组_1265" data-name="组 1265" transform="translate(-48.606 -946.111)">
    <g id="组_1264" data-name="组 1264">
      <path id="路径_2148" data-name="路径 2148" d="M65.1,970.962v-4.519a.806.806,0,0,0-.807-.806h-7.1a.806.806,0,0,0-.806.806v4.519a.806.806,0,0,0,.806.806h7.1A.806.806,0,0,0,65.1,970.962Zm-1.613-.807H58V967.25h5.487Z" fill="#fff"/>
      <path id="路径_2149" data-name="路径 2149" d="M64.742,975.157a.807.807,0,0,0-.807-.807H57.48a.806.806,0,0,0-.806.807v3.55a.806.806,0,0,0,.806.807h6.455a.807.807,0,0,0,.807-.807ZM63.128,977.9H58.287v-1.936h4.841Z" fill="#fff"/>
      <path id="路径_2150" data-name="路径 2150" d="M67.485,979.514h7.1a.807.807,0,0,0,.807-.807v-3.55a.807.807,0,0,0-.807-.807h-7.1a.807.807,0,0,0-.807.807v3.55a.807.807,0,0,0,.807.807Zm.807-3.55h5.486V977.9H68.292Z" fill="#fff"/>
      <path id="路径_2151" data-name="路径 2151" d="M77.328,975.157v3.55a.807.807,0,0,0,.807.807h7.1a.807.807,0,0,0,.807-.807v-3.55a.807.807,0,0,0-.807-.807h-7.1A.807.807,0,0,0,77.328,975.157Zm1.614.807h5.486V977.9H78.942Z" fill="#fff"/>
      <path id="路径_2152" data-name="路径 2152" d="M85.244,965.637H78.789a.806.806,0,1,0,0,1.613h6.455a.806.806,0,0,0,0-1.613Z" fill="#fff"/>
      <path id="路径_2153" data-name="路径 2153" d="M85.244,969.509H82.1a.807.807,0,0,0,0,1.614h3.14a.807.807,0,0,0,0-1.614Z" fill="#fff"/>
      <path id="路径_2154" data-name="路径 2154" d="M63.935,981.45H57.48a.807.807,0,0,0,0,1.614h6.455a.807.807,0,0,0,0-1.614Z" fill="#fff"/>
      <path id="路径_2155" data-name="路径 2155" d="M74.746,982.257a.807.807,0,0,0-.807-.807H67.485a.807.807,0,0,0,0,1.614h6.454A.807.807,0,0,0,74.746,982.257Z" fill="#fff"/>
      <path id="路径_2156" data-name="路径 2156" d="M88.6,962.333l.951-3.551a4.033,4.033,0,0,0-2.852-4.94L58.362,946.25a4.035,4.035,0,0,0-4.941,2.852l-4.677,17.457A4.039,4.039,0,0,0,51.6,971.5l.918.246v11.64a4.039,4.039,0,0,0,4.034,4.035H67.583a.807.807,0,0,0,0-1.614H56.548a2.423,2.423,0,0,1-2.42-2.421V965.314a2.423,2.423,0,0,1,2.42-2.421H85.88a2.424,2.424,0,0,1,2.421,2.421v18.072a2.424,2.424,0,0,1-2.421,2.421H74.845a.807.807,0,0,0,0,1.614H85.88a4.039,4.039,0,0,0,4.034-4.035V965.314a4.028,4.028,0,0,0-1.318-2.981ZM56.108,948.05a2.4,2.4,0,0,1,1.836-.241L86.277,955.4a2.421,2.421,0,0,1,1.712,2.965l-.084.312L54.9,949.832l.084-.312a2.408,2.408,0,0,1,1.128-1.47Zm-3.594,17.264v4.761l-.5-.134a2.419,2.419,0,0,1-1.712-2.964l3-11.188,20.494,5.491H56.548A4.039,4.039,0,0,0,52.514,965.314Zm27.515-4.034-26.311-7.05.761-2.839,33.008,8.844-.335,1.251a4.022,4.022,0,0,0-1.272-.206Z" fill="#fff"/>
      <path id="路径_2157" data-name="路径 2157" d="M71.214,985.807a.808.808,0,1,0,.57.236A.812.812,0,0,0,71.214,985.807Z" fill="#fff"/>
    </g>
  </g>
</svg>
