<svg xmlns="http://www.w3.org/2000/svg" width="41.309" height="41.309" viewBox="0 0 41.309 41.309">
  <g id="组_1273" data-name="组 1273" transform="translate(-48.606 -1055.933)">
    <g id="组_1270" data-name="组 1270">
      <g id="组_1269" data-name="组 1269">
        <path id="路径_2161" data-name="路径 2161" d="M83.866,1061.982a20.657,20.657,0,1,0,6.049,14.6A20.519,20.519,0,0,0,83.866,1061.982Zm-14.6,32.84A18.234,18.234,0,1,1,87.5,1076.587,18.255,18.255,0,0,1,69.261,1094.822Z" fill="#fff"/>
      </g>
    </g>
    <g id="组_1272" data-name="组 1272">
      <g id="组_1271" data-name="组 1271">
        <path id="路径_2162" data-name="路径 2162" d="M70.557,1075.377H67.964a2.678,2.678,0,0,1,0-5.357H73.15a1.211,1.211,0,0,0,0-2.421H70.471v-2.678a1.21,1.21,0,0,0-2.421,0v2.678h-.086a5.1,5.1,0,0,0,0,10.2h2.593a2.679,2.679,0,1,1,0,5.357H65.372a1.211,1.211,0,0,0,0,2.421H68.05v2.678a1.21,1.21,0,1,0,2.421,0v-2.678h.086a5.1,5.1,0,0,0,0-10.2Z" fill="#fff"/>
      </g>
    </g>
  </g>
</svg>
