<svg xmlns="http://www.w3.org/2000/svg" width="37.35" height="36.367" viewBox="0 0 37.35 36.367">
  <g id="组_1268" data-name="组 1268" transform="translate(-377.436 -950.519)">
    <g id="组_1267" data-name="组 1267">
      <g id="组_1266" data-name="组 1266">
        <path id="路径_2158" data-name="路径 2158" d="M389.528,978.8a3.794,3.794,0,1,0,3.793,3.794A3.794,3.794,0,0,0,389.528,978.8Zm0,5.9a2.108,2.108,0,1,1,2.107-2.108A2.108,2.108,0,0,1,389.528,984.7Z" fill="#fff" stroke="#fff" stroke-miterlimit="10" stroke-width="1"/>
        <path id="路径_2159" data-name="路径 2159" d="M405.546,978.8a3.794,3.794,0,1,0,3.793,3.794A3.794,3.794,0,0,0,405.546,978.8Zm0,5.9a2.108,2.108,0,1,1,2.107-2.108A2.108,2.108,0,0,1,405.546,984.7Z" fill="#fff" stroke="#fff" stroke-miterlimit="10" stroke-width="1"/>
        <path id="路径_2160" data-name="路径 2160" d="M414.1,956.668a1.052,1.052,0,0,0-.675-.337l-27.441-.38-.759-2.318a3.879,3.879,0,0,0-3.625-2.614h-2.824a.844.844,0,0,0,0,1.687H381.6a2.189,2.189,0,0,1,2.023,1.475l5.354,16.144-.422.97a4.044,4.044,0,0,0,.38,3.667,3.92,3.92,0,0,0,3.161,1.771h16.4a.843.843,0,1,0,0-1.686H392.1a2.151,2.151,0,0,1-1.77-1.012,2.318,2.318,0,0,1-.211-2.024l.337-.758L408.2,969.4a4.637,4.637,0,0,0,4.005-3.541l2.023-8.473A.717.717,0,0,0,414.1,956.668Zm-3.541,8.81a2.868,2.868,0,0,1-2.571,2.234l-17.536,1.813-3.92-11.887,25.839.379Z" fill="#fff" stroke="#fff" stroke-miterlimit="10" stroke-width="1"/>
      </g>
    </g>
  </g>
</svg>
