<svg xmlns="http://www.w3.org/2000/svg" width="305.3" height="100" viewBox="0 0 305.3 100">
  <g id="bg" transform="translate(-28.9 -32.4)">
    <path id="路径_1309" data-name="路径 1309" d="M119.2,126.7l5.7,5.7H324a10.243,10.243,0,0,0,10.2-10.2V44.4A10.243,10.243,0,0,0,324,34.2H124.9l-5.7,5.7-5.7-5.7H39.1A10.243,10.243,0,0,0,28.9,44.4v77.7a10.243,10.243,0,0,0,10.2,10.2h74.4Z" fill="#c9ceea"/>
    <path id="路径_1310" data-name="路径 1310" d="M119.2,124.8l5.7,5.7H324a10.243,10.243,0,0,0,10.2-10.2V42.6A10.243,10.243,0,0,0,324,32.4H124.9l-5.7,5.7-5.7-5.7H39.1A10.243,10.243,0,0,0,28.9,42.6v77.7a10.243,10.243,0,0,0,10.2,10.2h74.4Z" fill="#fff"/>
    <path id="路径_1311" data-name="路径 1311" d="M324,33.7a8.813,8.813,0,0,1,8.8,8.8v77.7A8.813,8.813,0,0,1,324,129H125.5l-4.9-4.9V38.6l4.9-4.9H324m-198.5,0H324"/>
    <line id="直线_37" data-name="直线 37" y1="86.7" transform="translate(119.2 38.1)" fill="#fff"/>
    <g id="组_583" data-name="组 583">
      <rect id="矩形_366" data-name="矩形 366" width="0.7" height="3.9" transform="translate(119 67.8)" fill="#4b4a4b"/>
      <rect id="矩形_367" data-name="矩形 367" width="0.7" height="3.9" transform="translate(119 60)" fill="#4b4a4b"/>
      <path id="路径_1312" data-name="路径 1312" d="M119.2,124.8l.5.6v-3H119V125Z" fill="#4b4a4b"/>
      <rect id="矩形_368" data-name="矩形 368" width="0.7" height="3.9" transform="translate(119 44.4)" fill="#4b4a4b"/>
      <rect id="矩形_369" data-name="矩形 369" width="0.7" height="3.9" transform="translate(119 52.2)" fill="#4b4a4b"/>
      <rect id="矩形_370" data-name="矩形 370" width="0.7" height="3.9" transform="translate(119 75.6)" fill="#4b4a4b"/>
      <rect id="矩形_371" data-name="矩形 371" width="0.7" height="3.9" transform="translate(119 114.6)" fill="#4b4a4b"/>
      <rect id="矩形_372" data-name="矩形 372" width="0.7" height="3.9" transform="translate(119 83.4)" fill="#4b4a4b"/>
      <path id="路径_1313" data-name="路径 1313" d="M119.2,38.1l-.2-.2v2.6h.7v-3Z" fill="#4b4a4b"/>
      <rect id="矩形_373" data-name="矩形 373" width="0.7" height="3.9" transform="translate(119 106.8)" fill="#4b4a4b"/>
      <rect id="矩形_374" data-name="矩形 374" width="0.7" height="3.9" transform="translate(119 99)" fill="#4b4a4b"/>
      <rect id="矩形_375" data-name="矩形 375" width="0.7" height="3.9" transform="translate(119 91.2)" fill="#4b4a4b"/>
    </g>
    <path id="路径_1314" data-name="路径 1314" d="M120.5,116.5v7.7l4.9,4.9H324a8.813,8.813,0,0,0,8.8-8.8v-3.8H120.5Z" fill="#5b2c81"/>
  </g>
</svg>
