<svg id="组_1629" data-name="组 1629" xmlns="http://www.w3.org/2000/svg" xmlns:xlink="http://www.w3.org/1999/xlink" width="332.912" height="311.911" viewBox="0 0 332.912 311.911">
  <defs>
    <clipPath id="clip-path">
      <rect id="矩形_891" data-name="矩形 891" width="332.912" height="311.911" fill="none"/>
    </clipPath>
    <clipPath id="clip-path-2">
      <path id="路径_3205" data-name="路径 3205" d="M162.4,16.9l-6.04,3.488H137c-9.652,0-10.337,10.337-10.337,10.337v6.806L82.779,62.865A25.54,25.54,0,0,0,70.045,84.92v91.937a25.54,25.54,0,0,0,12.734,22.055l79.62,45.969a25.467,25.467,0,0,0,25.467,0l79.619-45.969a25.538,25.538,0,0,0,12.734-22.055V84.92a25.538,25.538,0,0,0-12.734-22.055L234.908,44.057a73.948,73.948,0,0,0,5.2-5.993c2.925-3.717,3.542-14.675-5.113-20.187s-17.184.743-17.184.743L212.4,23.826c-2.569-3.184-7.686-3.442-7.686-3.442H193.906l-6.04-3.488a25.473,25.473,0,0,0-25.467,0" fill="none"/>
    </clipPath>
    <clipPath id="clip-path-4">
      <path id="路径_3228" data-name="路径 3228" d="M60.007,183.661,24.372,219.3a5.9,5.9,0,0,0,0,8.33L60.007,263.26a5.89,5.89,0,0,0,8.329,0l35.635-35.634a5.9,5.9,0,0,0,0-8.33L68.336,183.661a5.889,5.889,0,0,0-8.329,0" fill="none"/>
    </clipPath>
  </defs>
  <g id="组_1620" data-name="组 1620">
    <g id="组_1619" data-name="组 1619" clip-path="url(#clip-path)">
      <path id="路径_3118" data-name="路径 3118" d="M291.989,191.981V87.241A26.15,26.15,0,0,0,278.915,64.6l-90.708-52.37a26.149,26.149,0,0,0-26.149,0L71.35,64.6A26.15,26.15,0,0,0,58.276,87.241v104.74A26.15,26.15,0,0,0,71.35,214.627L162.058,267a26.149,26.149,0,0,0,26.149,0l90.708-52.37a26.15,26.15,0,0,0,13.074-22.646" fill="#c8d1ff"/>
      <path id="路径_3119" data-name="路径 3119" d="M291.989,183.259V78.519a26.15,26.15,0,0,0-13.074-22.646L188.207,3.5a26.149,26.149,0,0,0-26.149,0L71.35,55.873A26.15,26.15,0,0,0,58.276,78.519v104.74A26.15,26.15,0,0,0,71.35,205.9l90.708,52.37a26.149,26.149,0,0,0,26.149,0l90.708-52.37a26.15,26.15,0,0,0,13.074-22.646" fill="#f7f8f8"/>
    </g>
  </g>
  <g id="组_1622" data-name="组 1622">
    <g id="组_1621" data-name="组 1621" clip-path="url(#clip-path-2)">
      <path id="路径_3120" data-name="路径 3120" d="M175.132,13.485A25.5,25.5,0,0,1,187.866,16.9l79.619,45.968a25.538,25.538,0,0,1,12.734,22.056v91.936a25.538,25.538,0,0,1-12.734,22.056l-79.619,45.968a25.468,25.468,0,0,1-25.468,0L82.779,198.913a25.538,25.538,0,0,1-12.734-22.056V84.921A25.538,25.538,0,0,1,82.779,62.865L162.4,16.9a25.507,25.507,0,0,1,12.734-3.412" fill="#5b2c80"/>
      <path id="路径_3121" data-name="路径 3121" d="M119.373,188.751H6.721A6.721,6.721,0,0,1,0,182.03V171.558a6.722,6.722,0,0,1,6.721-6.722H119.373a6.722,6.722,0,0,1,6.721,6.722V182.03a6.721,6.721,0,0,1-6.721,6.721" fill="#3c1956"/>
      <path id="路径_3122" data-name="路径 3122" d="M326.191,142.846H254.846a6.721,6.721,0,0,1-6.721-6.721V125.653a6.722,6.722,0,0,1,6.721-6.722h71.345a6.722,6.722,0,0,1,6.721,6.722v10.472a6.721,6.721,0,0,1-6.721,6.721" fill="#3c1956"/>
      <path id="路径_3123" data-name="路径 3123" d="M157,52.961H98.7a6.721,6.721,0,0,1-6.721-6.721V35.768A6.722,6.722,0,0,1,98.7,29.046H157a6.722,6.722,0,0,1,6.721,6.722V46.24A6.721,6.721,0,0,1,157,52.961" fill="#3c1956"/>
      <path id="路径_3124" data-name="路径 3124" d="M285.268,205.623H183.486a6.721,6.721,0,0,1-6.721-6.721V188.43a6.722,6.722,0,0,1,6.721-6.722H285.268a6.722,6.722,0,0,1,6.721,6.722V198.9a6.721,6.721,0,0,1-6.721,6.721" fill="#3c1956"/>
      <path id="路径_3125" data-name="路径 3125" d="M170.376,245.415H68.594a6.721,6.721,0,0,1-6.721-6.721V228.222a6.722,6.722,0,0,1,6.721-6.722H170.376a6.722,6.722,0,0,1,6.721,6.722v10.472a6.721,6.721,0,0,1-6.721,6.721" fill="#3c1956"/>
      <path id="路径_3126" data-name="路径 3126" d="M97.7,121.15a11.408,11.408,0,1,1-11.408-11.408A11.408,11.408,0,0,1,97.7,121.15" fill="#3c1956"/>
      <path id="路径_3127" data-name="路径 3127" d="M244.639,67.649a12.791,12.791,0,1,1-12.79-12.79,12.79,12.79,0,0,1,12.79,12.79" fill="#3c1956"/>
      <path id="路径_3128" data-name="路径 3128" d="M97.5,118.522a4.007,4.007,0,1,0-4.007-4.007,4.007,4.007,0,0,0,4.007,4.007" fill="#fff"/>
      <path id="路径_3129" data-name="路径 3129" d="M117.481,202.076a103.108,103.108,0,0,0,8.291,7.42l40.218-40.219L114,117.286,88.347,142.938a101.637,101.637,0,0,0,29.134,59.138" fill="#f6928a"/>
      <path id="路径_3130" data-name="路径 3130" d="M117.481,202.076a102.042,102.042,0,0,0,23.986,17.79l17.861-17.861-71.82-71.82a101.758,101.758,0,0,0,29.973,71.891" fill="#27b4e8"/>
      <path id="路径_3131" data-name="路径 3131" d="M192.485,65.113h0a15.109,15.109,0,0,0,21.367,0l23.772-23.771a15.109,15.109,0,0,0-21.368-21.368L192.485,43.746a15.109,15.109,0,0,0,0,21.367" fill="#f4af9f"/>
      <path id="路径_3132" data-name="路径 3132" d="M222.018,35.58h0a15.112,15.112,0,0,1-2.485-18.09,15.12,15.12,0,0,0-3.277,2.484L192.485,43.745a15.109,15.109,0,1,0,21.367,21.368l23.772-23.772a15.09,15.09,0,0,0,2.484-3.276,15.112,15.112,0,0,1-18.09-2.485" fill="#f48183"/>
      <path id="路径_3133" data-name="路径 3133" d="M108.309,125.309A45.893,45.893,0,1,0,154.2,79.415a45.894,45.894,0,0,0-45.894,45.894" fill="#f6928a"/>
      <path id="路径_3134" data-name="路径 3134" d="M193.341,101.338a45.89,45.89,0,0,1-84.331,16.018,45.89,45.89,0,1,0,84.331-16.018" fill="#f87675"/>
      <path id="路径_3135" data-name="路径 3135" d="M137,165.053h67.713a10.337,10.337,0,0,0,10.337-10.337v-124a10.337,10.337,0,0,0-10.337-10.337H137a10.337,10.337,0,0,0-10.337,10.338V154.716A10.337,10.337,0,0,0,137,165.053" fill="#fbdf63"/>
      <path id="路径_3136" data-name="路径 3136" d="M206,24.262H135.722a5.183,5.183,0,0,0-5.177,5.176V156a5.183,5.183,0,0,0,5.177,5.176H206A5.183,5.183,0,0,0,211.177,156V29.438A5.183,5.183,0,0,0,206,24.262" fill="#003343"/>
      <rect id="矩形_892" data-name="矩形 892" width="5.032" height="5.032" transform="translate(148.216 108.887)" fill="#3c3c8c"/>
      <rect id="矩形_893" data-name="矩形 893" width="5.032" height="5.032" transform="translate(148.216 113.919)" fill="#9b9bcb"/>
      <rect id="矩形_894" data-name="矩形 894" width="5.032" height="5.032" transform="translate(148.216 103.855)" fill="#9b9bcb"/>
      <rect id="矩形_895" data-name="矩形 895" width="5.032" height="5.032" transform="translate(148.216 98.822)" fill="#f4ba1f"/>
      <rect id="矩形_896" data-name="矩形 896" width="5.032" height="5.032" transform="translate(153.248 103.855)" fill="#9b9bcb"/>
      <rect id="矩形_897" data-name="矩形 897" width="5.032" height="5.032" transform="translate(158.28 103.855)" fill="#3c3c8c"/>
      <rect id="矩形_898" data-name="矩形 898" width="5.032" height="5.032" transform="translate(158.28 98.822)" fill="#9b9bcb"/>
      <rect id="矩形_899" data-name="矩形 899" width="5.032" height="5.032" transform="translate(158.28 93.79)" fill="#3c3c8c"/>
      <rect id="矩形_900" data-name="矩形 900" width="5.032" height="5.032" transform="translate(163.312 103.855)" fill="#9b9bcb"/>
      <rect id="矩形_901" data-name="矩形 901" width="5.032" height="5.032" transform="translate(168.345 103.855)" fill="#9b9bcb"/>
      <rect id="矩形_902" data-name="矩形 902" width="5.032" height="5.032" transform="translate(168.345 98.822)" fill="#9b9bcb"/>
      <rect id="矩形_903" data-name="矩形 903" width="5.032" height="5.032" transform="translate(168.345 93.79)" fill="#9b9bcb"/>
      <rect id="矩形_904" data-name="矩形 904" width="5.032" height="5.032" transform="translate(173.377 103.855)" fill="#9b9bcb"/>
      <rect id="矩形_905" data-name="矩形 905" width="5.032" height="5.032" transform="translate(178.409 103.855)" fill="#3c3c8c"/>
      <rect id="矩形_906" data-name="矩形 906" width="5.032" height="5.032" transform="translate(178.409 98.822)" fill="#9b9bcb"/>
      <rect id="矩形_907" data-name="矩形 907" width="5.032" height="5.032" transform="translate(178.409 93.79)" fill="#3c3c8c"/>
      <rect id="矩形_908" data-name="矩形 908" width="5.032" height="5.032" transform="translate(188.473 108.887)" fill="#3c3c8c"/>
      <rect id="矩形_909" data-name="矩形 909" width="5.032" height="5.032" transform="translate(188.473 113.919)" fill="#9b9bcb"/>
      <rect id="矩形_910" data-name="矩形 910" width="5.032" height="5.032" transform="translate(188.473 103.855)" fill="#9b9bcb"/>
      <rect id="矩形_911" data-name="矩形 911" width="5.032" height="5.032" transform="translate(188.473 98.822)" fill="#f4ba1f"/>
      <rect id="矩形_912" data-name="矩形 912" width="5.032" height="5.032" transform="translate(183.441 103.855)" fill="#9b9bcb"/>
      <rect id="矩形_913" data-name="矩形 913" width="5.032" height="5.032" transform="translate(163.312 108.887)" fill="#9b9bcb"/>
      <rect id="矩形_914" data-name="矩形 914" width="5.032" height="5.032" transform="translate(168.345 108.887)" fill="#ed7423"/>
      <rect id="矩形_915" data-name="矩形 915" width="5.032" height="5.032" transform="translate(173.377 108.887)" fill="#9b9bcb"/>
      <rect id="矩形_916" data-name="矩形 916" width="5.032" height="5.032" transform="translate(168.345 113.919)" fill="#f2951f"/>
      <rect id="矩形_917" data-name="矩形 917" width="5.032" height="5.032" transform="translate(168.345 118.951)" fill="#f4ba1f"/>
      <rect id="矩形_918" data-name="矩形 918" width="5.032" height="5.032" transform="translate(163.312 88.758)" fill="#9b9bcb"/>
      <rect id="矩形_919" data-name="矩形 919" width="5.032" height="5.032" transform="translate(173.377 88.758)" fill="#9b9bcb"/>
      <rect id="矩形_920" data-name="矩形 920" width="5.032" height="5.032" transform="translate(168.345 83.726)" fill="#3c3c8c"/>
      <rect id="矩形_921" data-name="矩形 921" width="5.032" height="5.032" transform="translate(168.345 78.694)" fill="#f4ba1f"/>
      <path id="路径_3137" data-name="路径 3137" d="M140.611,120.834V106.692l10.884-10.884a23.345,23.345,0,0,0,0-33.014l-2.682-2.682a5.165,5.165,0,0,0-7.3,0L113.04,88.581a16.1,16.1,0,0,0-4.73,11.447v20.806a16.151,16.151,0,1,0,32.3,0" fill="#f6928a"/>
      <path id="路径_3138" data-name="路径 3138" d="M202.326,85.679h0a15.109,15.109,0,0,0,21.367,0l1.069-1.068a15.109,15.109,0,1,0-21.368-21.368l-1.068,1.069a15.109,15.109,0,0,0,0,21.367" fill="#f6928a"/>
      <path id="路径_3139" data-name="路径 3139" d="M202.326,112.875h0a15.109,15.109,0,0,0,21.367,0l1.069-1.068a15.109,15.109,0,1,0-21.368-21.368l-1.068,1.069a15.109,15.109,0,0,0,0,21.367" fill="#f6928a"/>
      <path id="路径_3140" data-name="路径 3140" d="M202.326,140.071h0a15.109,15.109,0,0,0,21.367,0L224.762,139a15.109,15.109,0,1,0-21.368-21.368l-1.068,1.069a15.109,15.109,0,0,0,0,21.367" fill="#f6928a"/>
      <path id="路径_3141" data-name="路径 3141" d="M207.7,140.071h0a15.109,15.109,0,0,1,0-21.367l1.068-1.069a15.173,15.173,0,0,1,2.582-2.068,15.119,15.119,0,0,1-3.65-24.06l1.068-1.068a15.124,15.124,0,0,1,2.582-2.068,15.121,15.121,0,0,1-3.65-24.06l1.068-1.068a15.037,15.037,0,0,1,8-4.183A15.089,15.089,0,0,0,203.4,63.243l-1.069,1.068a15.121,15.121,0,0,0,3.65,24.06,15.079,15.079,0,0,0-2.581,2.068l-1.069,1.068a15.119,15.119,0,0,0,3.65,24.06,15.127,15.127,0,0,0-2.581,2.068l-1.069,1.069a15.107,15.107,0,0,0,13.369,25.55,15.04,15.04,0,0,1-8-4.183" fill="#fbdfd9"/>
      <path id="路径_3142" data-name="路径 3142" d="M223.345,74.332a8.256,8.256,0,0,0-8.256-8.256V82.588a8.256,8.256,0,0,0,8.256-8.256" fill="#f7c1b5"/>
      <path id="路径_3143" data-name="路径 3143" d="M223.345,101.3a8.256,8.256,0,0,0-8.256-8.256v16.512a8.256,8.256,0,0,0,8.256-8.256" fill="#f7c1b5"/>
      <path id="路径_3144" data-name="路径 3144" d="M223.345,128.272a8.256,8.256,0,0,0-8.256-8.256v16.512a8.256,8.256,0,0,0,8.256-8.256" fill="#f7c1b5"/>
      <path id="路径_3145" data-name="路径 3145" d="M139.41,75.3l-7.3,7.295a2.886,2.886,0,0,1-4.083,0L123.5,78.067,139.41,62.161a9.292,9.292,0,0,1,0,13.14" fill="#f7c1b5"/>
      <path id="路径_3146" data-name="路径 3146" d="M119.134,109.266a36.671,36.671,0,0,0-8.279.941,45.93,45.93,0,0,0,35.333,60.3,36.6,36.6,0,0,0-27.054-61.239" fill="#f6928a"/>
      <path id="路径_3147" data-name="路径 3147" d="M140.611,116.23v-9.538l10.884-10.884a23.345,23.345,0,0,0,0-33.014l-2.682-2.682a5.164,5.164,0,0,0-7.179-.119l2.176,1.953a24.06,24.06,0,0,1,1.835,33.975l-10.6,11.806.53,9.817a37.716,37.716,0,0,1,10.943,52.584,36.591,36.591,0,0,0-5.912-53.9" fill="#fbdfd9"/>
      <path id="路径_3148" data-name="路径 3148" d="M87.508,130.185c-.769.7-21.58,38.4-21.58,38.4L86.745,229.6l28.951,7.762s15.606-6.921,16.323-7.762,14.6-9.271,15-9.736-6.09-14.777-6.09-14.777Z" fill="#27b4e8"/>
      <path id="路径_3149" data-name="路径 3149" d="M258.045,212.289H247.713a2.175,2.175,0,0,1,0-4.35h10.332a2.175,2.175,0,0,1,0,4.35" fill="#fff"/>
      <path id="路径_3150" data-name="路径 3150" d="M194.1,208.023H178.9a3.2,3.2,0,1,1,0-6.4H194.1a3.2,3.2,0,1,1,0,6.4" fill="#fff"/>
      <path id="路径_3151" data-name="路径 3151" d="M100.5,230.654a14.97,14.97,0,0,1-4.151-9.587,21.194,21.194,0,0,0-6.519-3.057l0,.052a114.308,114.308,0,0,0,9.884,13.312c.086-.1.168-.195.26-.287a6.182,6.182,0,0,1,.53-.433" fill="#f89c28"/>
      <path id="路径_3152" data-name="路径 3152" d="M144.8,228.393a14.624,14.624,0,0,1,2.417-3.214l5.5-5.5-6.98-6.981a20.757,20.757,0,0,1-5.065-8.271l-11.2,11.2c-.276.276-.507.579-.763.867-.3-.357-.606-.706-.94-1.041l-5.8-5.8a15.029,15.029,0,0,1-10.627,25.655c-.241,0-.476-.025-.715-.036a6.225,6.225,0,0,1-1.811,4.674c-.151.15-.308.292-.47.424a115.113,115.113,0,0,0,9.667,8.1l16.257-16.257a13.194,13.194,0,0,1,10.521-3.818" fill="#f89c28"/>
      <path id="路径_3153" data-name="路径 3153" d="M244.705,234.07l-.03-.03a10.349,10.349,0,0,1-2.92-5.94l8.021-8.021a20.883,20.883,0,1,1-24.477-33.26q.908-.477,1.853-.86a20.881,20.881,0,0,1,28.529,22.308l4.46-4.459L258.7,202.37a4.23,4.23,0,0,1,3.827-7.138v-7.539a9.64,9.64,0,0,1,2.825-6.819l17.44-17.441a21.336,21.336,0,0,0-17.657,1.549c.046.063.093.125.138.188a11.864,11.864,0,0,1-14.717,17.584,8.332,8.332,0,0,1-6.816-15.173,21.2,21.2,0,0,0-17.25,6.089l-11.8,11.8a21.21,21.21,0,0,0-1.924,2.245,21.313,21.313,0,0,0-28.229,1.688l-1.514,1.513.3.3a20.812,20.812,0,0,1,6.11,14.9,8.039,8.039,0,0,1,3.63,2.743l9.523-9.523a11.475,11.475,0,0,1,11.658-2.8l-2.06,2.06a20.776,20.776,0,0,0-6.063,13.647,12.207,12.207,0,0,1,11.323,15.971,12.246,12.246,0,0,1,.587,4.009,20.715,20.715,0,0,0,3.381,1.26,4.167,4.167,0,1,1,7.244,1.747,26.178,26.178,0,0,1-1.047,15.746c.283.246.568.488.838.758a15.556,15.556,0,0,1,4.5,9.637q3.082-1.368,6.1-2.926a15.624,15.624,0,0,1,5.653-24.38" fill="#f89c28"/>
      <path id="路径_3154" data-name="路径 3154" d="M188.968,259.923c.26-.391.544-.77.777-1.173.478.42.973.809,1.479,1.178a30.245,30.245,0,0,1,10.519,2.3,15.631,15.631,0,0,1,25.87-11.252,26.167,26.167,0,0,0,1.048-15.745c-.078.093-.142.193-.229.281a4.162,4.162,0,0,1-7.016-2.028,20.744,20.744,0,0,1-3.38-1.261,12.222,12.222,0,0,1-20.868,8.4,12.38,12.38,0,0,1-1.58-1.939,11.4,11.4,0,0,1-4.091,2.021,12.195,12.195,0,0,1-22.655,8.357,13.163,13.163,0,0,1-3.835,8.533l-9.377,9.378a114.478,114.478,0,0,0,12.084,2.682l.915-.915a30.138,30.138,0,0,1,20.339-8.817" fill="#e85b30"/>
      <path id="路径_3155" data-name="路径 3155" d="M274.945,212.628a4.23,4.23,0,0,1-5.984,0l-2.137-2.137-2.138,2.137a4.231,4.231,0,0,1-5.984-5.984l2.138-2.137-.7-.7-4.46,4.46a20.857,20.857,0,0,1-1.317,4.9q-.383.943-.86,1.853a20.786,20.786,0,0,1-2.294,3.469,21.1,21.1,0,0,1-1.434,1.586l-8.02,8.021a10.345,10.345,0,0,0,2.919,5.94l.03.031a15.622,15.622,0,0,1,19.824,6.4c1.018-.95,2.027-1.913,3.018-2.907a114.423,114.423,0,0,0,20.493-27.921H276.183a4.211,4.211,0,0,1-1.238,2.981" fill="#f37d35"/>
      <path id="路径_3156" data-name="路径 3156" d="M201.743,262.232a30.249,30.249,0,0,0-10.52-2.3c-.505-.369-1-.758-1.478-1.178-.234.4-.517.782-.777,1.172a30.138,30.138,0,0,0-20.34,8.818l-.914.914a115.131,115.131,0,0,0,35.721.29,15.724,15.724,0,0,1-1.692-7.712" fill="#f37d35"/>
      <path id="路径_3157" data-name="路径 3157" d="M168.842,249.061A12.2,12.2,0,0,0,191.5,240.7a11.388,11.388,0,0,0,4.092-2.02,12.229,12.229,0,0,0,21.861-10.465,12.23,12.23,0,1,1-11.323-15.971,20.776,20.776,0,0,1,6.063-13.647l2.059-2.06a11.473,11.473,0,0,0-11.657,2.8l-9.524,9.523a8.159,8.159,0,1,1-3.63-2.744,20.811,20.811,0,0,0-6.11-14.9l-.3-.3-7.753-7.753A20.882,20.882,0,0,1,145.741,212.7l6.98,6.981-5.5,5.5a14.619,14.619,0,0,0-2.417,3.213,13.36,13.36,0,0,1,2.246.4h0a13.12,13.12,0,0,1,3.045,1.236c.085.048.168.1.252.149q.557.33,1.087.718c.109.08.219.156.327.241a13.133,13.133,0,0,1,5.04,9.154,13.346,13.346,0,0,1,0,2.536,13.166,13.166,0,0,1-3.813,8.084l-11.21,11.211a113.861,113.861,0,0,0,13.857,4.846l9.377-9.377a13.163,13.163,0,0,0,3.835-8.534M179.535,223.5A12.231,12.231,0,1,1,167.3,235.728,12.231,12.231,0,0,1,179.535,223.5" fill="#f37d35"/>
      <path id="路径_3158" data-name="路径 3158" d="M175.273,212.7a20.855,20.855,0,1,0-29.533,0,20.882,20.882,0,0,0,29.533,0m-5.778-27.606a2.724,2.724,0,0,1,3.852,0,18.181,18.181,0,0,1,0,25.681,2.724,2.724,0,0,1-3.852-3.852,12.727,12.727,0,0,0,0-17.977,2.723,2.723,0,0,1,0-3.852m-1.926,5.778a9.946,9.946,0,0,1,2.079,3.057A9.977,9.977,0,0,0,156.5,207.071a9.985,9.985,0,1,1,11.068-16.2M143.2,201.112a2.714,2.714,0,0,1-.788-1.705,18.141,18.141,0,0,1,5.26-14.318,2.723,2.723,0,1,1,3.851,3.852,12.7,12.7,0,0,0-3.68,10.026,2.724,2.724,0,0,1-4.643,2.145" fill="#ffc93e"/>
      <path id="路径_3159" data-name="路径 3159" d="M147.838,198.967a12.7,12.7,0,0,1,3.681-10.026,2.724,2.724,0,0,0-3.852-3.852,18.141,18.141,0,0,0-5.26,14.318,2.724,2.724,0,0,0,5.431-.44" fill="#fff"/>
      <path id="路径_3160" data-name="路径 3160" d="M169.495,206.918a2.724,2.724,0,0,0,3.852,3.852,18.179,18.179,0,0,0,0-25.68,2.724,2.724,0,0,0-3.852,3.852,12.726,12.726,0,0,1,0,17.976" fill="#fce7a9"/>
      <path id="路径_3161" data-name="路径 3161" d="M153.445,204.991a9.934,9.934,0,0,0,3.057,2.079,9.976,9.976,0,0,1,13.146-13.147,9.984,9.984,0,1,0-16.2,11.068" fill="#f37d35"/>
      <path id="路径_3162" data-name="路径 3162" d="M108.825,231.086a6.222,6.222,0,0,1,1.811,4.186c.239.011.474.036.715.036a15.029,15.029,0,0,0,10.627-25.655c-.35-.35-.719-.681-1.1-.995-.172-.141-.356-.267-.535-.4-.213-.161-.423-.326-.645-.475s-.436-.267-.655-.4c-.2-.12-.4-.247-.606-.358s-.453-.221-.682-.328-.429-.21-.651-.3-.447-.165-.672-.246-.473-.176-.717-.25c-.223-.068-.454-.118-.681-.175-.248-.063-.492-.132-.744-.182s-.532-.084-.8-.122c-.218-.031-.433-.073-.654-.094-.489-.048-.983-.075-1.484-.075s-.994.027-1.482.075c-.221.021-.436.063-.654.094-.268.038-.538.07-.8.122s-.492.118-.738.18c-.229.058-.462.109-.687.177-.243.074-.477.165-.715.25s-.453.155-.673.246-.436.2-.653.3-.459.209-.679.327-.406.238-.608.359c-.219.131-.442.255-.654.4s-.433.315-.647.476c-.178.133-.362.258-.534.4a15.112,15.112,0,0,0-2.1,2.1c-.14.171-.265.356-.4.534-.16.214-.326.424-.475.647s-.266.434-.4.653c-.12.2-.247.4-.358.608s-.22.452-.328.679-.211.431-.3.653-.166.449-.246.674-.177.471-.25.714c-.069.225-.119.458-.177.688-.062.245-.131.487-.18.737s-.084.533-.123.8c-.031.218-.072.432-.094.653-.048.488-.075.982-.075,1.483,0,.264.008.526.021.786a14.97,14.97,0,0,0,4.151,9.587,6.243,6.243,0,0,1,8.33.433m2.526-23.874a13.082,13.082,0,0,1,13.068,13.068,1.96,1.96,0,1,1-3.92,0,9.159,9.159,0,0,0-9.148-9.148,1.96,1.96,0,1,1,0-3.92M98.893,222.57a1.951,1.951,0,0,1-.567-1.227,13.054,13.054,0,0,1,3.785-10.3,1.96,1.96,0,0,1,2.772,2.772,9.143,9.143,0,0,0-2.649,7.215,1.96,1.96,0,0,1-3.341,1.544" fill="#ffc93e"/>
      <path id="路径_3163" data-name="路径 3163" d="M102.234,221.027a9.141,9.141,0,0,1,2.649-7.215,1.96,1.96,0,0,0-2.772-2.772,13.054,13.054,0,0,0-3.785,10.3,1.96,1.96,0,0,0,3.908-.317" fill="#fff"/>
      <path id="路径_3164" data-name="路径 3164" d="M111.352,211.133a9.158,9.158,0,0,1,9.148,9.147,1.96,1.96,0,1,0,3.92,0,13.084,13.084,0,0,0-13.068-13.068,1.96,1.96,0,0,0,0,3.921" fill="#ffe26e"/>
      <path id="路径_3165" data-name="路径 3165" d="M86.165,208.441h0v0" fill="#f37d35"/>
      <path id="路径_3166" data-name="路径 3166" d="M89.846,217.327c0-.419-.022-.833-.063-1.242-.017-.182-.052-.359-.078-.539-.032-.226-.058-.453-.1-.675s-.1-.413-.152-.619-.09-.386-.147-.574-.137-.4-.208-.6-.13-.38-.207-.565-.167-.363-.252-.544-.176-.385-.275-.571-.2-.337-.3-.506-.215-.37-.334-.548-.262-.36-.4-.539c-.112-.149-.217-.3-.335-.448q-.393-.48-.831-.92h0c-.293-.293-.6-.57-.921-.832-.145-.119-.3-.224-.449-.336-.178-.133-.353-.272-.539-.4s-.364-.224-.548-.333c-.141-.084-.281-.17-.424-.251q.768,1.6,1.586,3.179c.045.043.091.084.135.128a1.626,1.626,0,0,1,.467,1.014q2.022,3.788,4.348,7.448l0-.053c.012-.226.02-.453.02-.682" fill="#ffc93e"/>
      <path id="路径_3167" data-name="路径 3167" d="M84.871,209.472q.3.571.6,1.142a1.624,1.624,0,0,0-.466-1.014c-.044-.044-.091-.085-.135-.128" fill="#fff"/>
      <path id="路径_3168" data-name="路径 3168" d="M255.8,203.311a21,21,0,0,0-.765-3.944,20.9,20.9,0,0,0-27.88-13.407,20.417,20.417,0,0,0-1.853.859,20.882,20.882,0,1,0,28.2,28.205q.477-.909.86-1.853a20.812,20.812,0,0,0,1.318-4.9,21.029,21.029,0,0,0,.116-4.957M231.827,188a2.722,2.722,0,0,1,1.705-.788,18.141,18.141,0,0,1,14.318,5.26A2.724,2.724,0,1,1,244,196.325a12.7,12.7,0,0,0-10.026-3.681A2.724,2.724,0,0,1,231.827,188m-3.879,10.25a9.987,9.987,0,1,1,11.067,16.2,9.976,9.976,0,0,0-13.147-13.146,9.938,9.938,0,0,1,2.08-3.057m19.9,19.9a18.179,18.179,0,0,1-25.68,0,2.724,2.724,0,0,1,3.852-3.852,12.725,12.725,0,0,0,17.976,0,2.724,2.724,0,1,1,3.852,3.852" fill="#ffc93e"/>
      <path id="路径_3169" data-name="路径 3169" d="M233.972,192.644A12.7,12.7,0,0,1,244,196.325a2.724,2.724,0,1,0,3.852-3.852,18.141,18.141,0,0,0-14.318-5.26,2.724,2.724,0,1,0,.44,5.431" fill="#fff"/>
      <path id="路径_3170" data-name="路径 3170" d="M244,214.3a12.725,12.725,0,0,1-17.976,0,2.724,2.724,0,1,0-3.852,3.852,18.178,18.178,0,0,0,25.68,0A2.724,2.724,0,1,0,244,214.3" fill="#fff"/>
      <path id="路径_3171" data-name="路径 3171" d="M236.935,203.387a9.982,9.982,0,0,1,2.079,11.067,9.987,9.987,0,1,0-13.146-13.146,9.982,9.982,0,0,1,11.067,2.079" fill="#f37d35"/>
      <path id="路径_3172" data-name="路径 3172" d="M197.167,215.816a12.257,12.257,0,1,0,8.959-3.568,12.233,12.233,0,0,0-8.959,3.568m13.914,3.384a1.6,1.6,0,0,1,2.256-2.256,10.647,10.647,0,0,1,0,15.041,1.6,1.6,0,0,1-2.256-2.256,7.454,7.454,0,0,0,0-10.529" fill="#ffc93e"/>
      <path id="路径_3173" data-name="路径 3173" d="M211.081,231.986a1.6,1.6,0,0,0,2.256,0,10.647,10.647,0,0,0,0-15.041,1.6,1.6,0,1,0-2.256,2.256,7.453,7.453,0,0,1,0,10.529,1.6,1.6,0,0,0,0,2.256" fill="#fce7a9"/>
      <path id="路径_3174" data-name="路径 3174" d="M179.535,247.96A12.232,12.232,0,1,0,167.3,235.729a12.231,12.231,0,0,0,12.232,12.231m-9.041-13.827a1.594,1.594,0,0,1,1.6,1.6,7.455,7.455,0,0,0,7.446,7.445,1.6,1.6,0,0,1,0,3.19A10.647,10.647,0,0,1,168.9,235.729a1.6,1.6,0,0,1,1.6-1.6" fill="#ffc93e"/>
      <path id="路径_3175" data-name="路径 3175" d="M179.535,246.364a1.6,1.6,0,0,0,0-3.191,7.454,7.454,0,0,1-7.445-7.445,1.6,1.6,0,0,0-3.191,0,10.648,10.648,0,0,0,10.636,10.636" fill="#fce7a9"/>
      <path id="路径_3176" data-name="路径 3176" d="M178.567,213.63a7.992,7.992,0,1,0,8.048-8.048,8.048,8.048,0,0,0-8.048,8.048" fill="#ffc93e"/>
      <path id="路径_3177" data-name="路径 3177" d="M227.613,250.981a15.658,15.658,0,0,0-24.178,18.963q1.071-.159,2.14-.338a13.641,13.641,0,0,1,2.172-16.423,2.043,2.043,0,0,1,2.889,2.889,9.547,9.547,0,0,0-.694,12.707,114.144,114.144,0,0,0,23.013-7.4,15.559,15.559,0,0,0-4.5-9.637c-.269-.27-.555-.512-.838-.758" fill="#ffc93e"/>
      <path id="路径_3178" data-name="路径 3178" d="M210.636,256.072a2.043,2.043,0,0,0-2.889-2.889,13.641,13.641,0,0,0-2.172,16.423c1.46-.245,2.915-.525,4.367-.827a9.547,9.547,0,0,1,.694-12.707" fill="#fce7a9"/>
      <path id="路径_3179" data-name="路径 3179" d="M251.029,232.729a15.639,15.639,0,0,0-11.978,25.721,114.208,114.208,0,0,0,25.476-17.975,15.632,15.632,0,0,0-13.5-7.746" fill="#ffc93e"/>
      <path id="路径_3180" data-name="路径 3180" d="M147.047,228.8a13.29,13.29,0,0,1,3.044,1.236,13.157,13.157,0,0,0-3.044-1.236" fill="#27b4e8"/>
      <path id="路径_3181" data-name="路径 3181" d="M133.611,242.231a2.834,2.834,0,0,0-4.008,0l-8.483,8.483q2.382,1.662,4.827,3.189l7.664-7.664a2.834,2.834,0,0,0,0-4.008" fill="#fff"/>
      <path id="路径_3182" data-name="路径 3182" d="M147.046,228.8a13.169,13.169,0,0,0-12.767,3.415l-16.257,16.256c1.024.767,2.055,1.52,3.1,2.247l8.483-8.483a2.834,2.834,0,0,1,4.008,4.008l-7.664,7.664c1.105.689,2.222,1.351,3.344,2l14.34-14.34a13.21,13.21,0,0,0,3.415-12.767" fill="#27b4e8"/>
      <path id="路径_3183" data-name="路径 3183" d="M156.8,242.831a13.264,13.264,0,0,0,0-2.536,13.264,13.264,0,0,1,0,2.536" fill="#27b4e8"/>
      <path id="路径_3184" data-name="路径 3184" d="M156.8,242.831a13.063,13.063,0,0,0-5.04-11.69c-.107-.084-.217-.161-.326-.241q-.531-.388-1.088-.718c-.084-.049-.167-.1-.252-.149a13.245,13.245,0,0,0-3.044-1.236h0a13.213,13.213,0,0,1-3.415,12.767l-14.34,14.34a113.527,113.527,0,0,0,12.481,6.223l11.211-11.211a13.166,13.166,0,0,0,3.813-8.084" fill="#1691cf"/>
      <path id="路径_3185" data-name="路径 3185" d="M110.637,235.272a6.391,6.391,0,0,0-10.671-4.186c-.092.092-.174.191-.26.287q2.824,3.277,5.935,6.385c.892.891,1.8,1.757,2.715,2.613.162-.133.319-.274.47-.425a6.229,6.229,0,0,0,1.811-4.674" fill="#fff"/>
      <path id="路径_3186" data-name="路径 3186" d="M228.432,235.516c.087-.087.151-.188.229-.281a3.962,3.962,0,1,0-.229.281" fill="#ffc93e"/>
      <path id="路径_3187" data-name="路径 3187" d="M275.887,200.929a4.209,4.209,0,0,1-.942,1.441l-2.137,2.137,2.137,2.138a4.215,4.215,0,0,1,1.238,3h11.856a114.053,114.053,0,0,0,10.974-31.765l-22.078,22.078c-.339.339-.693.655-1.048.968" fill="#9a216b"/>
      <path id="路径_3188" data-name="路径 3188" d="M283.8,162.431l-1,1-17.44,17.44a9.644,9.644,0,0,0-2.825,6.819v7.539a4.2,4.2,0,0,1,2.157,1.154l2.137,2.137,2.138-2.137a4.23,4.23,0,0,1,6.926,4.543c.355-.313.708-.629,1.048-.969l22.078-22.078q.943-5.037,1.437-10.131a3.13,3.13,0,0,1,.428-6.241c.026-.634.05-1.269.066-1.9H290.618a9.644,9.644,0,0,0-6.82,2.825m6.407,10.106-10.616,10.616a4.17,4.17,0,0,1-5.9-5.9l10.615-10.616a4.171,4.171,0,0,1,5.9,5.9" fill="#d51981"/>
      <path id="路径_3189" data-name="路径 3189" d="M284.307,166.639l-10.616,10.616a4.17,4.17,0,0,0,5.9,5.9L290.2,172.537a4.171,4.171,0,0,0-5.9-5.9" fill="#f49fc4"/>
      <path id="路径_3190" data-name="路径 3190" d="M253.5,169.072a8.455,8.455,0,0,1,.916,1.1,8.315,8.315,0,0,1-3.859,12.581,11.863,11.863,0,0,0,14.716-17.583c-.045-.064-.092-.125-.138-.188a11.446,11.446,0,0,0-1.166-1.379,11.865,11.865,0,0,0-19.223,3.542,8.327,8.327,0,0,1,8.754,1.927" fill="#ffc93e"/>
      <path id="路径_3191" data-name="路径 3191" d="M239.9,171.794a8.353,8.353,0,1,0,1.814-2.721,8.335,8.335,0,0,0-1.814,2.721" fill="#faa31b"/>
      <path id="路径_3192" data-name="路径 3192" d="M221.072,178.9a12,12,0,1,1-12-12,12,12,0,0,1,12,12" fill="#ffc93e"/>
      <path id="路径_3193" data-name="路径 3193" d="M200.138,180.432a1.53,1.53,0,0,1-1.53-1.53,10.468,10.468,0,0,1,16.786-8.345A1.53,1.53,0,0,1,213.545,173a7.335,7.335,0,0,0-4.47-1.5,7.416,7.416,0,0,0-7.407,7.407,1.53,1.53,0,0,1-1.53,1.53" fill="#fff"/>
      <path id="路径_3194" data-name="路径 3194" d="M214.469,178.9a5.395,5.395,0,1,1-5.394-5.394,5.394,5.394,0,0,1,5.394,5.394" fill="#faa31b"/>
      <path id="路径_3195" data-name="路径 3195" d="M209.075,177.211a5.4,5.4,0,0,1,5.068,3.543,5.394,5.394,0,1,0-10.136,0,5.4,5.4,0,0,1,5.068-3.543" fill="#f37d35"/>
      <path id="路径_3196" data-name="路径 3196" d="M279.732,209.648h18.236l1.046-31.765Z" fill="#9a216b"/>
      <path id="路径_3197" data-name="路径 3197" d="M264.528,240.475l28.457-3.736,4.982-27.092H277.639Z" fill="#f37d35"/>
      <path id="路径_3198" data-name="路径 3198" d="M167.714,269.655l1.185,8.687,31.513-1.77,3.023-6.628-10.916-3.859Z" fill="#f37d35"/>
      <path id="路径_3199" data-name="路径 3199" d="M89.825,218.009,78.044,222.24,89,231.374H99.705Z" fill="#f89c28"/>
      <path id="路径_3200" data-name="路径 3200" d="M83.285,206.293l-11.266,4.321,6.025,11.626,11.781-4.231Z" fill="#ffc93e"/>
      <path id="路径_3201" data-name="路径 3201" d="M267.889,209.648h-5.58V190.826l19.331,4.429Z" fill="#d51981"/>
      <path id="路径_3202" data-name="路径 3202" d="M287.42,209.559H267.889l13.751-14.305Z" fill="#9a216b"/>
      <path id="路径_3203" data-name="路径 3203" d="M259.319,205.972l-3.986-8.669,6.975-5.082v10.186Z" fill="#f89c28"/>
      <path id="路径_3204" data-name="路径 3204" d="M282.238,209.648h-19.93v-8.259l-2.168,2.419-2.988,2.987-.723,7.747,15.545,3.388,7.374-2.591Z" fill="#f37d35"/>
    </g>
  </g>
  <g id="组_1624" data-name="组 1624">
    <g id="组_1623" data-name="组 1623" clip-path="url(#clip-path)">
      <path id="路径_3206" data-name="路径 3206" d="M106.94,290.461c4.74,0,7.529,2.76,7.529,7.32,0,4.62-2.789,7.35-7.529,7.35h-4.41v6.329c0,.3-.151.451-.42.451H99.35c-.269,0-.42-.151-.42-.451V290.912c0-.3.151-.451.42-.451Zm-.42,11.31c2.91,0,4.26-1.26,4.26-3.99,0-2.7-1.35-3.959-4.26-3.959h-3.99v7.949Z" fill="#fff"/>
      <path id="路径_3207" data-name="路径 3207" d="M118.309,311.911c-.27,0-.42-.15-.42-.45V290.912c0-.3.15-.45.42-.45H121.1c.27,0,.42.15.42.45v17.669h8.818c.3,0,.451.15.451.42v2.46a.4.4,0,0,1-.451.45Z" fill="#fff"/>
      <path id="路径_3208" data-name="路径 3208" d="M131.719,311.911c-.331,0-.45-.18-.36-.51l7.2-20.579a.479.479,0,0,1,.481-.36h3.42a.478.478,0,0,1,.479.36l7.2,20.579c.09.33-.06.51-.36.51h-2.94a.489.489,0,0,1-.51-.36l-1.47-4.529h-8.22l-1.469,4.529a.515.515,0,0,1-.511.36Zm5.939-8.16h6.18l-3.03-9.329h-.12Z" fill="#fff"/>
      <path id="路径_3209" data-name="路径 3209" d="M156.168,311.911a.41.41,0,0,1-.449-.45v-7.47L148.818,291c-.149-.3-.029-.54.33-.54H152.3a.475.475,0,0,1,.48.33l4.77,9.869,4.74-9.869a.51.51,0,0,1,.51-.33h3.149c.33,0,.45.24.3.54l-6.869,13.05v7.409a.4.4,0,0,1-.45.45Z" fill="#fff"/>
      <path id="路径_3210" data-name="路径 3210" d="M167.959,311.911c-.271,0-.42-.15-.42-.45v-1.8a.683.683,0,0,1,.209-.54l6.09-6.329c2.31-2.4,4.141-4.441,4.141-6.54,0-1.441-.871-2.85-3.151-2.85a6.6,6.6,0,0,0-4.8,2.4.351.351,0,0,1-.6-.031l-1.41-1.92a.426.426,0,0,1,.03-.6,8.9,8.9,0,0,1,6.779-3.151c3.78,0,6.72,2.071,6.72,6.09,0,2.821-1.62,5.01-4.169,7.89-.961,1.11-2.551,2.79-4.471,4.59h8.52a.4.4,0,0,1,.45.45v2.34a.4.4,0,0,1-.45.45Z" fill="#fff"/>
      <path id="路径_3211" data-name="路径 3211" d="M189.379,308.611h9.629c.3,0,.45.15.45.42v2.43a.4.4,0,0,1-.45.45h-12.84c-.269,0-.42-.151-.42-.45V290.912c0-.3.151-.45.42-.45h12.42a.4.4,0,0,1,.45.45v2.429c0,.271-.15.42-.45.42h-9.209v5.611h8.43a.4.4,0,0,1,.449.449v2.4a.4.4,0,0,1-.449.451h-8.43Z" fill="#fff"/>
      <path id="路径_3212" data-name="路径 3212" d="M201.439,311.911c-.331,0-.451-.18-.361-.51l7.2-20.579a.479.479,0,0,1,.48-.36h3.42a.478.478,0,0,1,.48.36l7.2,20.579c.089.33-.06.51-.36.51h-2.939a.49.49,0,0,1-.511-.36l-1.47-4.529h-8.22l-1.469,4.529a.513.513,0,0,1-.51.36Zm5.94-8.16h6.18l-3.031-9.329h-.12Z" fill="#fff"/>
      <path id="路径_3213" data-name="路径 3213" d="M234.559,311.911a.555.555,0,0,1-.51-.3l-5.25-7.53h-2.67v7.38c0,.3-.15.45-.42.45h-2.76c-.27,0-.42-.15-.42-.45V290.912c0-.3.15-.45.42-.45h6.959c4.92,0,7.8,2.55,7.8,6.84a6.221,6.221,0,0,1-4.979,6.389l5.49,7.68c.209.33.059.54-.271.54Zm-8.43-18.119v7.05h3.779c2.79,0,4.11-1.111,4.11-3.51,0-2.431-1.32-3.54-4.11-3.54Z" fill="#fff"/>
      <path id="路径_3214" data-name="路径 3214" d="M242.059,311.911c-.27,0-.42-.15-.42-.45V290.912c0-.3.15-.45.42-.45h3.029a.632.632,0,0,1,.541.3l5.85,10.2c1.019,1.8,2.16,3.809,3,5.429l.09-.03c-.18-2.55-.271-5.609-.271-8.13v-7.319a.4.4,0,0,1,.45-.45h2.7a.4.4,0,0,1,.451.45v20.549a.4.4,0,0,1-.451.45h-3.03a.555.555,0,0,1-.509-.3l-5.67-9.389c-1.11-1.8-2.369-4.14-3.21-5.911l-.09.031c.149,2.58.27,5.7.27,8.25v6.869c0,.3-.15.45-.42.45Z" fill="#fff"/>
      <path id="路径_3215" data-name="路径 3215" d="M64.172,270.5a8.884,8.884,0,0,1-6.321-2.618L22.218,232.248a8.949,8.949,0,0,1,0-12.641l35.633-35.634a8.939,8.939,0,0,1,12.641,0l35.633,35.634a8.949,8.949,0,0,1,0,12.641L70.492,267.882a8.884,8.884,0,0,1-6.32,2.618m0-84.155a3.927,3.927,0,0,0-2.793,1.156L25.746,223.135a3.954,3.954,0,0,0,0,5.584l35.633,35.634a3.948,3.948,0,0,0,5.585,0L102.6,228.719a3.954,3.954,0,0,0,0-5.584L66.964,187.5a3.929,3.929,0,0,0-2.792-1.156" fill="#c8d1ff"/>
      <path id="路径_3216" data-name="路径 3216" d="M64.172,181.937a5.848,5.848,0,0,1,4.164,1.725L103.97,219.3a5.894,5.894,0,0,1,0,8.33L68.336,263.26a5.887,5.887,0,0,1-8.329,0L24.373,227.626a5.9,5.9,0,0,1,0-8.33l35.634-35.634a5.846,5.846,0,0,1,4.165-1.725m0-1.106a6.977,6.977,0,0,0-4.948,2.049L23.59,218.514a7,7,0,0,0,0,9.894l35.634,35.634a7,7,0,0,0,9.894,0l35.635-35.634a7,7,0,0,0,0-9.894L69.118,182.88a6.975,6.975,0,0,0-4.946-2.049" fill="#fff"/>
      <path id="路径_3217" data-name="路径 3217" d="M64.172,268.033a8.885,8.885,0,0,1-6.321-2.618L22.218,229.781a8.949,8.949,0,0,1,0-12.641l35.633-35.634a8.939,8.939,0,0,1,12.641,0l35.633,35.634a8.949,8.949,0,0,1,0,12.641L70.492,265.415a8.884,8.884,0,0,1-6.32,2.618m0-84.155a3.928,3.928,0,0,0-2.793,1.156L25.746,220.668a3.954,3.954,0,0,0,0,5.584l35.633,35.634a3.948,3.948,0,0,0,5.585,0L102.6,226.252a3.954,3.954,0,0,0,0-5.584L66.964,185.034a3.929,3.929,0,0,0-2.792-1.156" fill="#fff"/>
    </g>
  </g>
  <g id="组_1626" data-name="组 1626">
    <g id="组_1625" data-name="组 1625" clip-path="url(#clip-path-4)">
      <path id="路径_3218" data-name="路径 3218" d="M49.95,197.225a1.176,1.176,0,1,1-1.175-1.175,1.175,1.175,0,0,1,1.175,1.175" fill="#fff"/>
      <path id="路径_3219" data-name="路径 3219" d="M108.333,224.291a44.939,44.939,0,1,1-44.94-44.94,44.94,44.94,0,0,1,44.94,44.94" fill="#5b2c80"/>
      <path id="路径_3220" data-name="路径 3220" d="M54,216.371,7.323,199.094a1.2,1.2,0,0,1-.706-1.534l2.605-7.039a1.194,1.194,0,0,1,1.534-.705l46.681,17.277a1.194,1.194,0,0,1,.7,1.534l-2.6,7.039a1.194,1.194,0,0,1-1.534.705" fill="#3c1956"/>
      <path id="路径_3221" data-name="路径 3221" d="M102.99,247.278l-19.3-7.142a1.193,1.193,0,0,1-.705-1.533l1.828-4.94a1.194,1.194,0,0,1,1.534-.705l19.3,7.142a1.194,1.194,0,0,1,.7,1.534l-1.828,4.939a1.194,1.194,0,0,1-1.534.705" fill="#3c1956"/>
      <path id="路径_3222" data-name="路径 3222" d="M40.436,237.393,8.089,225.421a1.194,1.194,0,0,1-.7-1.534l1.828-4.939a1.194,1.194,0,0,1,1.534-.705l32.346,11.972a1.194,1.194,0,0,1,.706,1.534l-1.829,4.939a1.193,1.193,0,0,1-1.533.705" fill="#3c1956"/>
      <path id="路径_3223" data-name="路径 3223" d="M86.172,266.847,47.3,252.461a1.194,1.194,0,0,1-.7-1.534l1.828-4.939a1.193,1.193,0,0,1,1.534-.705l38.87,14.386a1.194,1.194,0,0,1,.7,1.534l-1.828,4.939a1.194,1.194,0,0,1-1.534.7" fill="#3c1956"/>
      <path id="路径_3224" data-name="路径 3224" d="M119.513,224.485,68.157,205.477a1.192,1.192,0,0,1-.7-1.533l3.236-8.744a1.193,1.193,0,0,1,1.533-.705L123.578,213.5a1.194,1.194,0,0,1,.7,1.534l-3.236,8.743a1.194,1.194,0,0,1-1.534.705" fill="#3c1956"/>
      <path id="路径_3225" data-name="路径 3225" d="M61.27,197.225a3.537,3.537,0,1,1-3.536-3.536,3.536,3.536,0,0,1,3.536,3.536" fill="#3c1956"/>
      <path id="路径_3226" data-name="路径 3226" d="M79.428,243.057a3.536,3.536,0,1,1-3.536-3.536,3.536,3.536,0,0,1,3.536,3.536" fill="#3c1956"/>
      <path id="路径_3227" data-name="路径 3227" d="M91.686,226.542a2.129,2.129,0,1,1-2.129-2.129,2.129,2.129,0,0,1,2.129,2.129" fill="#3c1956"/>
    </g>
  </g>
  <g id="组_1628" data-name="组 1628">
    <g id="组_1627" data-name="组 1627" clip-path="url(#clip-path)">
      <path id="路径_3229" data-name="路径 3229" d="M71.236,245.553A4.491,4.491,0,1,1,71.3,239.2a4.492,4.492,0,0,1-.061,6.352" fill="#3c1956"/>
      <path id="路径_3230" data-name="路径 3230" d="M63.844,246.512a5.956,5.956,0,0,1,.082-8.412,5.841,5.841,0,0,1,4.223-1.7,5.947,5.947,0,1,1-4.305,10.113m2.122-6.332a3.035,3.035,0,1,0,4.249,4.334h0a3.039,3.039,0,0,0,.041-4.293,3.007,3.007,0,0,0-2.136-.909H68.09a3.017,3.017,0,0,0-2.124.869" fill="#3c1956"/>
      <path id="路径_3231" data-name="路径 3231" d="M64.938,245.547l-18.509-18.74,6.37-6.339,18.552,18.789Z" fill="#3c1956"/>
      <path id="路径_3232" data-name="路径 3232" d="M44.374,226.8l8.434-8.394,20.608,20.869L64.923,247.6Zm8.417-4.266-4.305,4.284,16.469,16.675,4.334-4.251Z" fill="#3c1956"/>
      <path id="路径_3233" data-name="路径 3233" d="M53.484,221.345a4.491,4.491,0,1,1-6.14-1.627,4.491,4.491,0,0,1,6.14,1.627" fill="#3c1956"/>
      <path id="路径_3234" data-name="路径 3234" d="M44.457,226.59a5.952,5.952,0,1,1,5.153,2.959,5.956,5.956,0,0,1-5.153-2.959m3.618-5.613a3.037,3.037,0,1,0,1.519-.41,3.039,3.039,0,0,0-1.519.41" fill="#3c1956"/>
      <path id="路径_3235" data-name="路径 3235" d="M76.263,208.108a4.491,4.491,0,1,1-6.14-1.627,4.491,4.491,0,0,1,6.14,1.627" fill="#3c1956"/>
      <path id="路径_3236" data-name="路径 3236" d="M70.856,216.115a5.912,5.912,0,1,1,1.533.2,5.914,5.914,0,0,1-1.533-.2m0-8.374a3.022,3.022,0,1,0,1.52-.412,3.039,3.039,0,0,0-1.52.412" fill="#3c1956"/>
      <rect id="矩形_923" data-name="矩形 923" width="26.441" height="8.983" transform="matrix(0.865, -0.502, 0.502, 0.865, 47.329, 219.727)" fill="#3c1956"/>
      <path id="路径_3237" data-name="路径 3237" d="M45.337,219.2l25.381-14.749,5.977,10.287L51.314,229.486Zm24.326-10.766L49.32,220.255l3.049,5.248,20.343-11.821Z" fill="#3c1956"/>
      <path id="路径_3238" data-name="路径 3238" d="M72.558,243.959a4.491,4.491,0,1,1,.061-6.352,4.492,4.492,0,0,1-.061,6.352" fill="#fff"/>
      <path id="路径_3239" data-name="路径 3239" d="M66.26,243.953l-18.509-18.74,6.37-6.339,18.552,18.789Z" fill="#fff"/>
      <path id="路径_3240" data-name="路径 3240" d="M54.806,219.751a4.492,4.492,0,1,1-6.141-1.627,4.493,4.493,0,0,1,6.141,1.627" fill="#fff"/>
      <path id="路径_3241" data-name="路径 3241" d="M77.585,206.514a4.491,4.491,0,1,1-6.14-1.627,4.491,4.491,0,0,1,6.14,1.627" fill="#fff"/>
      <rect id="矩形_924" data-name="矩形 924" width="26.441" height="8.983" transform="matrix(0.865, -0.502, 0.502, 0.865, 48.65, 218.132)" fill="#fff"/>
    </g>
  </g>
</svg>
