<svg id="组_1644" data-name="组 1644" xmlns="http://www.w3.org/2000/svg" xmlns:xlink="http://www.w3.org/1999/xlink" width="372.52" height="409.835" viewBox="0 0 372.52 409.835">
  <defs>
    <clipPath id="clip-path">
      <rect id="矩形_926" data-name="矩形 926" width="372.519" height="409.835" fill="none"/>
    </clipPath>
    <clipPath id="clip-path-2">
      <path id="路径_3244" data-name="路径 3244" d="M120.567,4.989,40.947,50.957A37.238,37.238,0,0,0,22.329,83.206v91.936a37.238,37.238,0,0,0,18.618,32.249l79.62,45.968a37.236,37.236,0,0,0,37.237,0l79.62-45.968a37.238,37.238,0,0,0,18.618-32.249V83.206a37.238,37.238,0,0,0-18.618-32.249L157.8,4.989a37.242,37.242,0,0,0-37.237,0" fill="none"/>
    </clipPath>
    <clipPath id="clip-path-4">
      <path id="路径_3289" data-name="路径 3289" d="M126.452,15.182,46.832,61.151A25.538,25.538,0,0,0,34.1,83.206v91.937A25.54,25.54,0,0,0,46.832,197.2l79.62,45.968a25.467,25.467,0,0,0,25.467,0L231.538,197.2a25.538,25.538,0,0,0,12.735-22.055V83.206a25.537,25.537,0,0,0-12.735-22.055L151.919,15.182a25.467,25.467,0,0,0-25.467,0" fill="none"/>
    </clipPath>
    <clipPath id="clip-path-6">
      <path id="路径_3313" data-name="路径 3313" d="M243.633,180.231,208,215.866a5.9,5.9,0,0,0,0,8.33l35.635,35.634a5.888,5.888,0,0,0,8.33,0L287.6,224.2a5.9,5.9,0,0,0,0-8.33l-35.634-35.635a5.891,5.891,0,0,0-8.33,0" fill="none"/>
    </clipPath>
  </defs>
  <g id="组_1631" data-name="组 1631">
    <g id="组_1630" data-name="组 1630" clip-path="url(#clip-path)">
      <path id="路径_3242" data-name="路径 3242" d="M256.042,183.864V91.928a37.237,37.237,0,0,0-18.619-32.249L157.8,13.711a37.236,37.236,0,0,0-37.237,0L40.947,59.679A37.238,37.238,0,0,0,22.329,91.928v91.936a37.235,37.235,0,0,0,18.618,32.248l79.62,45.969a37.241,37.241,0,0,0,37.237,0l79.619-45.969a37.234,37.234,0,0,0,18.619-32.248" fill="#c8d1ff"/>
    </g>
  </g>
  <g id="组_1633" data-name="组 1633">
    <g id="组_1632" data-name="组 1632" clip-path="url(#clip-path-2)">
      <path id="路径_3243" data-name="路径 3243" d="M372.52,231.711A178.124,178.124,0,1,1,194.4,53.587,178.125,178.125,0,0,1,372.52,231.711" fill="#e6e6e6"/>
    </g>
  </g>
  <g id="组_1635" data-name="组 1635">
    <g id="组_1634" data-name="组 1634" clip-path="url(#clip-path)">
      <path id="路径_3245" data-name="路径 3245" d="M256.042,175.142V83.206a37.237,37.237,0,0,0-18.619-32.249L157.8,4.989a37.236,37.236,0,0,0-37.237,0L40.947,50.957A37.238,37.238,0,0,0,22.329,83.206v91.936A37.235,37.235,0,0,0,40.947,207.39l79.62,45.969a37.241,37.241,0,0,0,37.237,0l79.619-45.969a37.234,37.234,0,0,0,18.619-32.248" fill="#f7f8f8"/>
      <path id="路径_3246" data-name="路径 3246" d="M139.186,11.77a25.5,25.5,0,0,1,12.733,3.412L231.538,61.15a25.538,25.538,0,0,1,12.734,22.056v91.936A25.538,25.538,0,0,1,231.538,197.2l-79.619,45.968a25.468,25.468,0,0,1-25.468,0L46.833,197.2A25.538,25.538,0,0,1,34.1,175.142V83.206A25.538,25.538,0,0,1,46.833,61.15l79.618-45.968a25.508,25.508,0,0,1,12.735-3.412" fill="#5b2c80"/>
      <path id="路径_3247" data-name="路径 3247" d="M158.069,83.143l-.123.124.339-.124Z" fill="#5c6bc0"/>
    </g>
  </g>
  <g id="组_1637" data-name="组 1637">
    <g id="组_1636" data-name="组 1636" clip-path="url(#clip-path-4)">
      <path id="路径_3248" data-name="路径 3248" d="M87.864,190.3H8.752A8.751,8.751,0,0,1,0,181.546a9.572,9.572,0,0,1,9.572-9.572H87.044a9.572,9.572,0,0,1,9.572,9.572,8.751,8.751,0,0,1-8.752,8.752" fill="#3c1956"/>
      <path id="路径_3249" data-name="路径 3249" d="M254.066,135.476H206.6a8.752,8.752,0,0,1-8.752-8.752,9.573,9.573,0,0,1,9.572-9.572h45.822a9.572,9.572,0,0,1,9.572,9.572,8.751,8.751,0,0,1-8.752,8.752" fill="#3c1956"/>
      <path id="路径_3250" data-name="路径 3250" d="M94.527,59.265H57.06a8.751,8.751,0,0,1-8.752-8.752,9.572,9.572,0,0,1,9.572-9.572H93.707a9.572,9.572,0,0,1,9.572,9.572,8.751,8.751,0,0,1-8.752,8.752" fill="#3c1956"/>
      <path id="路径_3251" data-name="路径 3251" d="M216.13,217.752H145.347A8.751,8.751,0,0,1,136.6,209a9.572,9.572,0,0,1,9.572-9.572H215.31A9.572,9.572,0,0,1,224.882,209a8.751,8.751,0,0,1-8.752,8.752" fill="#3c1956"/>
      <path id="路径_3252" data-name="路径 3252" d="M227.12,57.866H156.337a8.751,8.751,0,0,1-8.752-8.752V41.352a9.571,9.571,0,0,1,9.572-9.572H226.3a9.571,9.571,0,0,1,9.572,9.572v7.762a8.751,8.751,0,0,1-8.752,8.752" fill="#3c1956"/>
      <path id="路径_3253" data-name="路径 3253" d="M127.843,241.47H57.06a8.751,8.751,0,0,1-8.752-8.752,9.572,9.572,0,0,1,9.572-9.572h69.143a9.572,9.572,0,0,1,9.572,9.572,8.751,8.751,0,0,1-8.752,8.752" fill="#3c1956"/>
      <path id="路径_3254" data-name="路径 3254" d="M61.755,117.153a9.125,9.125,0,1,1-9.125-9.125,9.125,9.125,0,0,1,9.125,9.125" fill="#3c1956"/>
      <path id="路径_3255" data-name="路径 3255" d="M231.746,97.844a9.125,9.125,0,1,1-9.125-9.125,9.124,9.124,0,0,1,9.125,9.125" fill="#3c1956"/>
      <path id="路径_3256" data-name="路径 3256" d="M170.769,121.587a3.983,3.983,0,0,1-3.983-3.983V77.77a27.884,27.884,0,0,0-55.768,0V117.6a3.983,3.983,0,0,1-7.967,0V77.77a35.85,35.85,0,1,1,71.7,0V117.6a3.983,3.983,0,0,1-3.983,3.983" fill="#3c1956"/>
      <path id="路径_3257" data-name="路径 3257" d="M170.769,121.587a3.983,3.983,0,0,1-3.983-3.983V77.77a27.884,27.884,0,0,0-55.768,0V117.6a3.983,3.983,0,0,1-7.967,0V77.77a35.85,35.85,0,1,1,71.7,0V117.6A3.983,3.983,0,0,1,170.769,121.587Z" fill="none" stroke="#3c1956" stroke-miterlimit="10" stroke-width="11.77"/>
      <path id="路径_3258" data-name="路径 3258" d="M178.735,261.006H43.3L51.266,101.67h119.5Z" fill="#3c1956"/>
      <path id="路径_3259" data-name="路径 3259" d="M178.735,261.006H43.3L51.266,101.67h119.5Z" fill="none" stroke="#3c1956" stroke-miterlimit="10" stroke-width="11.77"/>
      <path id="路径_3260" data-name="路径 3260" d="M210.6,261.006H178.736L170.769,101.67h31.867Z" fill="#3c1956"/>
      <path id="路径_3261" data-name="路径 3261" d="M210.6,261.006H178.736L170.769,101.67h31.867Z" fill="none" stroke="#3c1956" stroke-miterlimit="10" stroke-width="11.77"/>
      <path id="路径_3262" data-name="路径 3262" d="M194.9,241.084c-.08.005-.159.005-.239.005a3.982,3.982,0,0,1-3.973-3.749L182.724,101.9c-.005-.08-.005-.154-.005-.234H190.7l7.951,135.2A3.986,3.986,0,0,1,194.9,241.084Z" fill="#3c1956"/>
      <path id="路径_3263" data-name="路径 3263" d="M194.9,241.084c-.08.005-.159.005-.239.005a3.982,3.982,0,0,1-3.973-3.749L182.724,101.9c-.005-.08-.005-.154-.005-.234H190.7l7.951,135.2A3.986,3.986,0,0,1,194.9,241.084Z" fill="none" stroke="#3c1956" stroke-miterlimit="10" stroke-width="11.77"/>
      <path id="路径_3264" data-name="路径 3264" d="M274.337,261.006H242.47l-.5-6.438v-.005L234.5,157.438H266.37l7.345,95.447v0Z" fill="#3c1956"/>
      <path id="路径_3265" data-name="路径 3265" d="M274.337,261.006H242.47l-.5-6.438v-.005L234.5,157.438H266.37l7.345,95.447v0Z" fill="none" stroke="#3c1956" stroke-miterlimit="10" stroke-width="11.77"/>
      <path id="路径_3266" data-name="路径 3266" d="M258.8,241.069a3.629,3.629,0,0,1-.4.02,3.985,3.985,0,0,1-3.959-3.585l-.144-1.424-7.823-78.244a3.778,3.778,0,0,1-.02-.4h7.987l7.828,78.279.1.991A3.983,3.983,0,0,1,258.8,241.069Z" fill="#3c1956"/>
      <path id="路径_3267" data-name="路径 3267" d="M258.8,241.069a3.629,3.629,0,0,1-.4.02,3.985,3.985,0,0,1-3.959-3.585l-.144-1.424-7.823-78.244a3.778,3.778,0,0,1-.02-.4h7.987l7.828,78.279.1.991A3.983,3.983,0,0,1,258.8,241.069Z" fill="none" stroke="#3c1956" stroke-miterlimit="10" stroke-width="11.77"/>
      <path id="路径_3268" data-name="路径 3268" d="M274.337,261.006h-4.79L258.4,244.286l-11.143,16.72h-4.79l-.5-6.438v0L254.3,236.08l.791-1.185a3.99,3.99,0,0,1,6.633,0l.547.821,11.448,17.169v.005Z" fill="#3c1956"/>
      <path id="路径_3269" data-name="路径 3269" d="M274.337,261.006h-4.79L258.4,244.286l-11.143,16.72h-4.79l-.5-6.438v0L254.3,236.08l.791-1.185a3.99,3.99,0,0,1,6.633,0l.547.821,11.448,17.169v.005Z" fill="none" stroke="#3c1956" stroke-miterlimit="10" stroke-width="11.77"/>
      <path id="路径_3270" data-name="路径 3270" d="M242.47,261.006H138.9l7.966-103.568H234.5Z" fill="#3c1956"/>
      <path id="路径_3271" data-name="路径 3271" d="M242.47,261.006H138.9l7.966-103.568H234.5Z" fill="none" stroke="#3c1956" stroke-miterlimit="10" stroke-width="11.77"/>
      <path id="路径_3272" data-name="路径 3272" d="M194.669,233.122H186.7a19.939,19.939,0,0,1-19.917-19.917V181.338a3.983,3.983,0,1,1,7.967,0v31.867a11.963,11.963,0,0,0,11.95,11.95h7.967a11.963,11.963,0,0,0,11.95-11.95V181.338a3.983,3.983,0,1,1,7.967,0v31.867a19.939,19.939,0,0,1-19.917,19.917" fill="#3c1956"/>
      <path id="路径_3273" data-name="路径 3273" d="M194.669,233.122H186.7a19.939,19.939,0,0,1-19.917-19.917V181.338a3.983,3.983,0,1,1,7.967,0v31.867a11.963,11.963,0,0,0,11.95,11.95h7.967a11.963,11.963,0,0,0,11.95-11.95V181.338a3.983,3.983,0,1,1,7.967,0v31.867A19.939,19.939,0,0,1,194.669,233.122Z" fill="none" stroke="#3c1956" stroke-miterlimit="10" stroke-width="11.77"/>
      <rect id="矩形_928" data-name="矩形 928" width="7.967" height="23.9" transform="translate(79.15 117.603)" fill="#3c1956"/>
      <rect id="矩形_929" data-name="矩形 929" width="7.967" height="23.9" transform="translate(79.15 117.603)" fill="none" stroke="#3c1956" stroke-miterlimit="10" stroke-width="11.77"/>
      <path id="路径_3274" data-name="路径 3274" d="M83.134,121.587a3.983,3.983,0,0,1-3.983-3.983V77.77a35.851,35.851,0,1,1,71.7,0V117.6a3.984,3.984,0,0,1-7.967,0V77.77a27.884,27.884,0,0,0-55.768,0V117.6a3.983,3.983,0,0,1-3.983,3.983" fill="#3c1956"/>
      <path id="路径_3275" data-name="路径 3275" d="M83.134,121.587a3.983,3.983,0,0,1-3.983-3.983V77.77a35.851,35.851,0,1,1,71.7,0V117.6a3.984,3.984,0,0,1-7.967,0V77.77a27.884,27.884,0,0,0-55.768,0V117.6A3.983,3.983,0,0,1,83.134,121.587Z" fill="none" stroke="#3c1956" stroke-miterlimit="10" stroke-width="11.77"/>
      <path id="路径_3276" data-name="路径 3276" d="M95.084,173.371h-23.9V141.5l11.95-7.967,11.95,7.967Z" fill="#3c1956"/>
      <path id="路径_3277" data-name="路径 3277" d="M95.084,173.371h-23.9V141.5l11.95-7.967,11.95,7.967Z" fill="none" stroke="#3c1956" stroke-miterlimit="10" stroke-width="11.77"/>
      <path id="路径_3278" data-name="路径 3278" d="M157.636,108.454a3.983,3.983,0,0,1-3.983-3.983V64.637a27.884,27.884,0,1,0-55.768,0v39.834a3.984,3.984,0,0,1-7.967,0V64.637a35.851,35.851,0,1,1,71.7,0v39.834a3.983,3.983,0,0,1-3.983,3.983" fill="#dadcde"/>
      <path id="路径_3279" data-name="路径 3279" d="M165.6,247.873H30.167L38.134,88.537h119.5Z" fill="#eb423f"/>
      <path id="路径_3280" data-name="路径 3280" d="M197.47,247.873H165.6L157.636,88.537H189.5Z" fill="#d13330"/>
      <path id="路径_3281" data-name="路径 3281" d="M181.77,227.951c-.08,0-.159,0-.239,0a3.982,3.982,0,0,1-3.973-3.749L169.591,88.771c-.005-.08-.005-.154-.005-.234h7.977l7.951,135.2A3.986,3.986,0,0,1,181.77,227.951Z" fill="#a82a27"/>
      <path id="路径_3282" data-name="路径 3282" d="M261.2,247.873H229.337l-.5-6.438v-.005l-7.469-97.125h31.867l7.345,95.447v0Z" fill="#eba72e"/>
      <path id="路径_3283" data-name="路径 3283" d="M245.669,227.936a3.626,3.626,0,0,1-.4.02,3.985,3.985,0,0,1-3.959-3.585l-.144-1.424L233.34,144.7a3.782,3.782,0,0,1-.02-.4h7.987l7.828,78.279.1.991A3.983,3.983,0,0,1,245.669,227.936Z" fill="#e09f2c"/>
      <path id="路径_3284" data-name="路径 3284" d="M261.2,247.873h-4.79l-11.144-16.72-11.143,16.72h-4.79l-.5-6.438v-.005l12.324-18.483.791-1.185a3.988,3.988,0,0,1,6.633,0l.547.821,11.448,17.169v.005Z" fill="#e09f2c"/>
      <path id="路径_3285" data-name="路径 3285" d="M229.337,247.873H125.769l7.966-103.568H221.37Z" fill="#f7b030"/>
      <path id="路径_3286" data-name="路径 3286" d="M181.536,219.989h-7.967a19.939,19.939,0,0,1-19.917-19.917V168.205a3.984,3.984,0,1,1,7.967,0v31.867a11.963,11.963,0,0,0,11.95,11.95h7.967a11.963,11.963,0,0,0,11.95-11.95V168.205a3.984,3.984,0,1,1,7.967,0v31.867a19.939,19.939,0,0,1-19.917,19.917" fill="#e9eef2"/>
      <rect id="矩形_930" data-name="矩形 930" width="7.967" height="23.9" transform="translate(66.018 104.471)" fill="#dadcde"/>
      <path id="路径_3287" data-name="路径 3287" d="M70,108.454a3.983,3.983,0,0,1-3.983-3.983V64.637a35.85,35.85,0,1,1,71.7,0v39.834a3.983,3.983,0,0,1-7.967,0V64.637a27.884,27.884,0,1,0-55.768,0v39.834A3.983,3.983,0,0,1,70,108.454" fill="#e9eef2"/>
      <path id="路径_3288" data-name="路径 3288" d="M81.951,160.238h-23.9V128.372L70,120.4l11.95,7.967Z" fill="#f7b030"/>
    </g>
  </g>
  <g id="组_1639" data-name="组 1639">
    <g id="组_1638" data-name="组 1638" clip-path="url(#clip-path)">
      <path id="路径_3290" data-name="路径 3290" d="M70,108.454a3.983,3.983,0,0,1-3.983-3.983V64.637a35.85,35.85,0,1,1,71.7,0v39.834a3.983,3.983,0,0,1-7.967,0V64.637a27.884,27.884,0,1,0-55.768,0v39.834A3.983,3.983,0,0,1,70,108.454" fill="#e9eef2"/>
      <path id="路径_3291" data-name="路径 3291" d="M61.958,308.052a11.517,11.517,0,0,1-7.649-2.88.441.441,0,0,1-.09-.63l1.5-2.1a.4.4,0,0,1,.6-.09,10.225,10.225,0,0,0,5.788,2.28c2.192,0,4.35-.931,4.35-2.97,0-2.16-2.25-2.7-4.859-3.24-3.151-.66-7.289-2.1-7.289-6.57,0-4.169,3.689-5.97,8.009-5.97a11.735,11.735,0,0,1,7.05,2.37.392.392,0,0,1,.119.6l-1.439,2.069c-.151.24-.389.24-.63.09a10.333,10.333,0,0,0-5.369-1.739c-2.581,0-4.081,1.019-4.081,2.639,0,1.92,1.921,2.43,4.56,3.031,3.509.779,7.65,1.92,7.65,6.659,0,4.5-3.84,6.45-8.22,6.45" fill="#595757"/>
      <path id="路径_3292" data-name="路径 3292" d="M85.838,286.693c0-.3.149-.45.42-.45h2.76c.269,0,.42.15.42.45v20.549c0,.3-.151.45-.42.45h-2.76c-.271,0-.42-.15-.42-.45v-8.73H77.377v8.73c0,.3-.149.45-.42.45H74.2c-.269,0-.42-.15-.42-.45V286.693c0-.3.151-.45.42-.45h2.76c.271,0,.42.15.42.45v8.489h8.461Z" fill="#595757"/>
      <path id="路径_3293" data-name="路径 3293" d="M102.067,308.052c-5.309,0-8.43-3.09-8.43-8.34v-5.519c0-5.25,3.121-8.311,8.43-8.311s8.43,3.061,8.43,8.311v5.519c0,5.25-3.119,8.34-8.43,8.34m0-3.42c3.121,0,4.74-1.71,4.74-4.92v-5.49c0-3.239-1.619-4.949-4.74-4.949s-4.739,1.71-4.739,4.949v5.49c0,3.21,1.62,4.92,4.739,4.92" fill="#595757"/>
      <path id="路径_3294" data-name="路径 3294" d="M122.708,286.242c4.74,0,7.529,2.76,7.529,7.32,0,4.62-2.789,7.35-7.529,7.35H118.3v6.329c0,.3-.151.451-.42.451h-2.76c-.269,0-.42-.151-.42-.451V286.693c0-.3.151-.451.42-.451Zm-.42,11.31c2.91,0,4.26-1.26,4.26-3.99,0-2.7-1.35-3.959-4.26-3.959H118.3v7.949Z" fill="#595757"/>
      <path id="路径_3295" data-name="路径 3295" d="M132.727,307.692c-.27,0-.42-.15-.42-.45v-1.8a.684.684,0,0,1,.21-.54l6.09-6.329c2.309-2.4,4.14-4.441,4.14-6.54,0-1.441-.87-2.85-3.151-2.85a6.6,6.6,0,0,0-4.8,2.4.351.351,0,0,1-.6-.031l-1.41-1.92a.425.425,0,0,1,.029-.6,8.9,8.9,0,0,1,6.779-3.151c3.781,0,6.721,2.071,6.721,6.09,0,2.821-1.62,5.01-4.17,7.89-.96,1.11-2.551,2.79-4.471,4.59H146.2a.4.4,0,0,1,.45.45v2.34a.4.4,0,0,1-.45.45Z" fill="#595757"/>
      <path id="路径_3296" data-name="路径 3296" d="M154.147,304.392h9.629c.3,0,.451.15.451.42v2.43a.4.4,0,0,1-.451.45H150.937c-.27,0-.42-.151-.42-.45V286.693c0-.3.15-.45.42-.45h12.419a.4.4,0,0,1,.451.45v2.429c0,.271-.15.42-.451.42h-9.209v5.611h8.43a.4.4,0,0,1,.449.449V298a.4.4,0,0,1-.449.451h-8.43Z" fill="#595757"/>
      <path id="路径_3297" data-name="路径 3297" d="M166.208,307.692c-.331,0-.451-.18-.361-.51l7.2-20.579a.479.479,0,0,1,.48-.36h3.42a.478.478,0,0,1,.479.36l7.2,20.579c.09.33-.059.51-.36.51h-2.939a.488.488,0,0,1-.51-.36l-1.471-4.529h-8.219l-1.47,4.529a.513.513,0,0,1-.51.36Zm5.939-8.16h6.18L175.3,290.2h-.121Z" fill="#595757"/>
      <path id="路径_3298" data-name="路径 3298" d="M199.327,307.692a.557.557,0,0,1-.51-.3l-5.25-7.53H190.9v7.38c0,.3-.15.45-.42.45h-2.76c-.269,0-.42-.15-.42-.45V286.693c0-.3.151-.45.42-.45h6.959c4.92,0,7.8,2.55,7.8,6.84a6.221,6.221,0,0,1-4.98,6.389l5.49,7.68c.21.33.06.54-.27.54Zm-8.43-18.119v7.05h3.779c2.791,0,4.111-1.111,4.111-3.51,0-2.431-1.32-3.54-4.111-3.54Z" fill="#595757"/>
      <path id="路径_3299" data-name="路径 3299" d="M206.827,307.692c-.27,0-.42-.15-.42-.45V286.693c0-.3.15-.45.42-.45h3.03a.629.629,0,0,1,.54.3l5.85,10.2c1.019,1.8,2.16,3.809,3,5.429l.09-.03c-.18-2.55-.27-5.609-.27-8.13v-7.319a.4.4,0,0,1,.449-.45h2.7a.4.4,0,0,1,.45.45v20.549a.4.4,0,0,1-.45.45h-3.031a.557.557,0,0,1-.509-.3L213.007,298c-1.11-1.8-2.369-4.14-3.209-5.911l-.09.031c.149,2.58.269,5.7.269,8.25v6.869c0,.3-.15.45-.42.45Z" fill="#595757"/>
      <path id="路径_3300" data-name="路径 3300" d="M247.8,267.07a8.88,8.88,0,0,1-6.32-2.618l-35.634-35.634a8.949,8.949,0,0,1,0-12.641l35.634-35.634a8.937,8.937,0,0,1,12.64,0l35.634,35.634a8.949,8.949,0,0,1,0,12.641l-35.634,35.634a8.88,8.88,0,0,1-6.32,2.618m0-84.155a3.925,3.925,0,0,0-2.792,1.156l-35.634,35.634a3.954,3.954,0,0,0,0,5.584l35.634,35.634a3.947,3.947,0,0,0,5.584,0l35.634-35.634a3.954,3.954,0,0,0,0-5.584L250.59,184.071a3.925,3.925,0,0,0-2.792-1.156" fill="#c8d1ff"/>
      <path id="路径_3301" data-name="路径 3301" d="M247.8,178.507a5.849,5.849,0,0,1,4.165,1.725L287.6,215.866a5.9,5.9,0,0,1,0,8.33L251.963,259.83a5.888,5.888,0,0,1-8.33,0L208,224.2a5.9,5.9,0,0,1,0-8.33l35.634-35.634a5.849,5.849,0,0,1,4.165-1.725m0-1.106a6.975,6.975,0,0,0-4.947,2.049l-35.634,35.634a7,7,0,0,0,0,9.894l35.634,35.634a7,7,0,0,0,9.894,0l35.634-35.634a7,7,0,0,0,0-9.894L252.745,179.45A6.975,6.975,0,0,0,247.8,177.4" fill="#fff"/>
      <path id="路径_3302" data-name="路径 3302" d="M247.8,264.6a8.88,8.88,0,0,1-6.32-2.618l-35.634-35.634a8.949,8.949,0,0,1,0-12.641l35.634-35.634a8.937,8.937,0,0,1,12.64,0l35.634,35.634a8.949,8.949,0,0,1,0,12.641l-35.634,35.634a8.88,8.88,0,0,1-6.32,2.618m0-84.155a3.925,3.925,0,0,0-2.792,1.156l-35.634,35.634a3.954,3.954,0,0,0,0,5.584l35.634,35.634a3.947,3.947,0,0,0,5.584,0l35.634-35.634a3.954,3.954,0,0,0,0-5.584L250.59,181.6a3.925,3.925,0,0,0-2.792-1.156" fill="#fff"/>
    </g>
  </g>
  <g id="组_1641" data-name="组 1641">
    <g id="组_1640" data-name="组 1640" clip-path="url(#clip-path-6)">
      <path id="路径_3303" data-name="路径 3303" d="M233.576,193.795a1.175,1.175,0,1,1-1.175-1.175,1.175,1.175,0,0,1,1.175,1.175" fill="#fff"/>
      <path id="路径_3304" data-name="路径 3304" d="M291.959,220.861a44.94,44.94,0,1,1-44.94-44.94,44.94,44.94,0,0,1,44.94,44.94" fill="#5b2c80"/>
      <path id="路径_3305" data-name="路径 3305" d="M237.629,212.941l-46.68-17.277a1.2,1.2,0,0,1-.706-1.534l2.605-7.039a1.194,1.194,0,0,1,1.534-.705l46.681,17.277a1.194,1.194,0,0,1,.705,1.534l-2.605,7.039a1.194,1.194,0,0,1-1.534.705" fill="#3c1956"/>
      <path id="路径_3306" data-name="路径 3306" d="M286.616,243.848l-19.3-7.142a1.193,1.193,0,0,1-.705-1.533l1.828-4.94a1.194,1.194,0,0,1,1.534-.705l19.3,7.142a1.194,1.194,0,0,1,.7,1.534l-1.828,4.939a1.194,1.194,0,0,1-1.534.705" fill="#3c1956"/>
      <path id="路径_3307" data-name="路径 3307" d="M224.062,233.963l-32.347-11.972a1.194,1.194,0,0,1-.705-1.534l1.828-4.939a1.194,1.194,0,0,1,1.534-.705l32.347,11.972a1.194,1.194,0,0,1,.705,1.534l-1.828,4.939a1.194,1.194,0,0,1-1.534.705" fill="#3c1956"/>
      <path id="路径_3308" data-name="路径 3308" d="M269.8,263.417l-38.87-14.386a1.194,1.194,0,0,1-.7-1.534l1.828-4.939a1.193,1.193,0,0,1,1.534-.705l38.87,14.386a1.194,1.194,0,0,1,.705,1.534l-1.828,4.939a1.194,1.194,0,0,1-1.534.7" fill="#3c1956"/>
      <path id="路径_3309" data-name="路径 3309" d="M303.139,221.055l-51.356-19.008a1.192,1.192,0,0,1-.705-1.533l3.236-8.744a1.193,1.193,0,0,1,1.533-.705L307.2,210.073a1.194,1.194,0,0,1,.7,1.534l-3.236,8.743a1.194,1.194,0,0,1-1.534.7" fill="#3c1956"/>
      <path id="路径_3310" data-name="路径 3310" d="M244.9,193.795a3.536,3.536,0,1,1-3.536-3.536,3.536,3.536,0,0,1,3.536,3.536" fill="#3c1956"/>
      <path id="路径_3311" data-name="路径 3311" d="M263.054,239.627a3.536,3.536,0,1,1-3.536-3.536,3.536,3.536,0,0,1,3.536,3.536" fill="#3c1956"/>
      <path id="路径_3312" data-name="路径 3312" d="M275.312,223.112a2.129,2.129,0,1,1-2.129-2.129,2.129,2.129,0,0,1,2.129,2.129" fill="#3c1956"/>
    </g>
  </g>
  <g id="组_1643" data-name="组 1643">
    <g id="组_1642" data-name="组 1642" clip-path="url(#clip-path)">
      <path id="路径_3314" data-name="路径 3314" d="M242.37,242.124a4.491,4.491,0,1,0-.061-6.352,4.492,4.492,0,0,0,.061,6.352" fill="#3c1956"/>
      <path id="路径_3315" data-name="路径 3315" d="M245.515,244.862a5.947,5.947,0,0,1-.058-11.894,5.842,5.842,0,0,1,4.223,1.7,5.945,5.945,0,0,1-4.165,10.192m0-8.981h-.03a3.036,3.036,0,0,0-2.1,5.2h0a3.034,3.034,0,1,0,2.125-5.2" fill="#3c1956"/>
      <path id="路径_3316" data-name="路径 3316" d="M248.668,242.117l18.509-18.74-6.37-6.339-18.552,18.789Z" fill="#3c1956"/>
      <path id="路径_3317" data-name="路径 3317" d="M248.684,244.174l-8.494-8.331L260.8,214.974l8.434,8.394Zm-4.366-8.364,4.334,4.251,16.468-16.675-4.3-4.284Z" fill="#3c1956"/>
      <path id="路径_3318" data-name="路径 3318" d="M260.122,217.915a4.491,4.491,0,1,0,6.14-1.627,4.491,4.491,0,0,0-6.14,1.627" fill="#3c1956"/>
      <path id="路径_3319" data-name="路径 3319" d="M264,226.119a5.948,5.948,0,1,1,5.153-2.958A5.916,5.916,0,0,1,264,226.119m.016-8.982a3.034,3.034,0,1,0,1.519.41,3.037,3.037,0,0,0-1.519-.41" fill="#3c1956"/>
      <path id="路径_3320" data-name="路径 3320" d="M237.343,204.678a4.491,4.491,0,1,0,6.14-1.627,4.491,4.491,0,0,0-6.14,1.627" fill="#3c1956"/>
      <path id="路径_3321" data-name="路径 3321" d="M241.217,212.886a5.968,5.968,0,1,1,1.533-.2,5.908,5.908,0,0,1-1.533.2m.014-8.987a3.075,3.075,0,0,0-.782.1,3.022,3.022,0,1,0,.782-.1" fill="#3c1956"/>
      <rect id="矩形_932" data-name="矩形 932" width="8.983" height="26.441" transform="translate(238.903 210.78) rotate(-59.841)" fill="#3c1956"/>
      <path id="路径_3322" data-name="路径 3322" d="M262.292,226.055l-25.381-14.748,5.977-10.286,25.381,14.748Zm-21.4-15.8,20.343,11.821,3.049-5.248L243.943,205Z" fill="#3c1956"/>
      <path id="路径_3323" data-name="路径 3323" d="M241.048,240.529a4.491,4.491,0,1,0-.061-6.352,4.492,4.492,0,0,0,.061,6.352" fill="#fff"/>
      <path id="路径_3324" data-name="路径 3324" d="M247.346,240.523l18.509-18.74-6.37-6.339-18.552,18.789Z" fill="#fff"/>
      <path id="路径_3325" data-name="路径 3325" d="M258.8,216.321a4.491,4.491,0,1,0,6.14-1.627,4.491,4.491,0,0,0-6.14,1.627" fill="#fff"/>
      <path id="路径_3326" data-name="路径 3326" d="M236.021,203.084a4.491,4.491,0,1,0,6.14-1.627,4.491,4.491,0,0,0-6.14,1.627" fill="#fff"/>
      <rect id="矩形_933" data-name="矩形 933" width="8.983" height="26.441" transform="translate(237.581 209.185) rotate(-59.841)" fill="#fff"/>
    </g>
  </g>
</svg>
