<svg xmlns="http://www.w3.org/2000/svg" width="213.104" height="66.076" viewBox="0 0 213.104 66.076">
  <g id="组_1326" data-name="组 1326" transform="translate(146.374 -1863.167)">
    <path id="路径_2329" data-name="路径 2329" d="M66.024,1895.2l-12.6-26.148a5.266,5.266,0,0,0-4.56-2.633H-128.508a5.267,5.267,0,0,0-4.56,2.633l-12.6,26.148a5.264,5.264,0,0,0,0,5.266l12.6,26.148a5.266,5.266,0,0,0,4.56,2.632H48.864a5.265,5.265,0,0,0,4.56-2.632l12.6-26.148A5.264,5.264,0,0,0,66.024,1895.2Z" fill="#c8d1ff"/>
    <path id="路径_2330" data-name="路径 2330" d="M66.024,1891.948l-12.6-26.148a5.265,5.265,0,0,0-4.56-2.633H-128.508a5.267,5.267,0,0,0-4.56,2.633l-12.6,26.148a5.264,5.264,0,0,0,0,5.266l12.6,26.148a5.266,5.266,0,0,0,4.56,2.632H48.864a5.265,5.265,0,0,0,4.56-2.632l12.6-26.148A5.264,5.264,0,0,0,66.024,1891.948Z" fill="#00b8e0"/>
    <g id="组_1322" data-name="组 1322">
      <path id="路径_2331" data-name="路径 2331" d="M48.864,1867.167a1.27,1.27,0,0,1,1.044.55l12.513,25.967.065.135.074.129a1.267,1.267,0,0,1,0,1.266l-.074.129-.065.134-12.513,25.967a1.269,1.269,0,0,1-1.044.55H-128.508a1.271,1.271,0,0,1-1.044-.549l-12.512-25.968-.065-.134-.075-.129a1.272,1.272,0,0,1,0-1.266l.075-.129.065-.135,12.512-25.967a1.272,1.272,0,0,1,1.044-.55H48.864m0-4H-128.508a5.267,5.267,0,0,0-4.56,2.633l-12.6,26.148a5.264,5.264,0,0,0,0,5.266l12.6,26.148a5.266,5.266,0,0,0,4.56,2.632H48.864a5.265,5.265,0,0,0,4.56-2.632l12.6-26.148a5.264,5.264,0,0,0,0-5.266l-12.6-26.148a5.265,5.265,0,0,0-4.56-2.633Z" fill="#fff"/>
    </g>
    <g id="组_1325" data-name="组 1325">
      <g id="组_1323" data-name="组 1323">
        <path id="路径_2332" data-name="路径 2332" d="M-92.78,1908.125a.614.614,0,0,1-.677-.678v-4.1h-11.482c-.451,0-.677-.226-.677-.64v-3.275a2.2,2.2,0,0,1,.188-.828l8.771-16.9a.768.768,0,0,1,.752-.489h5.045c.527,0,.715.339.49.79l-8.282,16.187h5.195l.489-4.819a.645.645,0,0,1,.715-.6H-88.3c.451,0,.678.226.678.64v4.781h2.182a.577.577,0,0,1,.641.64v3.877a.577.577,0,0,1-.641.64h-2.182v4.1a.6.6,0,0,1-.678.678Z" fill="#fff"/>
        <path id="路径_2333" data-name="路径 2333" d="M-79.108,1905.6a.527.527,0,0,1-.56.364h-3.226c-.364,0-.505-.224-.364-.561l7.852-19.127a.528.528,0,0,1,.562-.364h3.169c.364,0,.533.224.364.561Z" fill="#fff"/>
        <path id="路径_2334" data-name="路径 2334" d="M-59.619,1908.576a13.171,13.171,0,0,1-9.223-3.275.658.658,0,0,1,0-.94l2.334-3.087c.264-.339.6-.3.941-.038a10.252,10.252,0,0,0,5.8,1.92c2.862,0,4.254-1.506,4.254-4.141,0-2.447-1.431-3.614-4.1-3.614a7.66,7.66,0,0,0-4.442,1.242.915.915,0,0,1-.9.189l-2.9-.941a.729.729,0,0,1-.565-.753l.49-13.251a.652.652,0,0,1,.677-.677h15.208a.6.6,0,0,1,.678.677v4.066c0,.414-.226.639-.678.639H-62.48l-.188,5.045a7.939,7.939,0,0,1,4.216-1.092c5.383,0,8.771,3.313,8.771,8.621C-49.681,1904.963-53.521,1908.576-59.619,1908.576Z" fill="#fff"/>
      </g>
      <g id="组_1324" data-name="组 1324">
        <path id="路径_2335" data-name="路径 2335" d="M-38.4,1891.869a.266.266,0,0,1-.272-.345l2.184-12.379a.307.307,0,0,1,.327-.291h4.279c2.657,0,4.732,1.6,4.113,5.206l-.527,3c-.619,3.586-2.695,4.805-5.753,4.805Zm3-2.639h1.8c1.274,0,2.075-.674,2.367-2.294l.565-3.24c.272-1.565-.255-2.2-1.548-2.2h-1.821Z" fill="#fff"/>
        <path id="路径_2336" data-name="路径 2336" d="M-23.382,1892.106a3.345,3.345,0,0,1-3.5-4.132l.382-2.258c.4-2.2,2.184-3.567,4.714-3.567a3.363,3.363,0,0,1,3.569,4.059l-.419,2.294C-19.05,1890.8-20.706,1892.106-23.382,1892.106Zm.309-2.385a1.549,1.549,0,0,0,1.675-1.365l.418-2.33c.147-.819-.236-1.493-1.11-1.493a1.59,1.59,0,0,0-1.638,1.366l-.419,2.348C-24.311,1889.139-23.928,1889.721-23.073,1889.721Z" fill="#fff"/>
        <path id="路径_2337" data-name="路径 2337" d="M-8.259,1882.4a.248.248,0,0,1,.273.328l-1.474,8.319a.425.425,0,0,1-.274.328,10.368,10.368,0,0,1-3.659.71c-2.712,0-3.95-1.729-3.5-4.3l.91-5.116a.3.3,0,0,1,.328-.273h2.112a.254.254,0,0,1,.273.328l-.91,5.334c-.2,1.129.2,1.656,1.11,1.656a3.143,3.143,0,0,0,1.129-.2l1.219-6.845a.294.294,0,0,1,.328-.273Z" fill="#fff"/>
        <path id="路径_2338" data-name="路径 2338" d="M-1.564,1882.149c2.038,0,3.4,1.711,2.986,4.132l-.329,1.893a4.471,4.471,0,0,1-4.841,3.932,7.882,7.882,0,0,1-3.605-.892.323.323,0,0,1-.181-.4l2.092-11.669a.308.308,0,0,1,.328-.291H-3c.219,0,.309.127.291.345l-.6,3.35A3.753,3.753,0,0,1-1.564,1882.149Zm.255,3.822c.2-1-.273-1.51-1.11-1.51a2.574,2.574,0,0,0-1.312.363l-.818,4.679a2.53,2.53,0,0,0,1.092.218c.946,0,1.584-.509,1.8-1.747Z" fill="#fff"/>
        <path id="路径_2339" data-name="路径 2339" d="M5.259,1892.106c-1.966,0-2.986-1.547-2.585-3.914l1.6-9.047a.319.319,0,0,1,.328-.291H6.715a.267.267,0,0,1,.273.345l-1.6,9.139c-.164.874.055,1.365.71,1.365H6.46c.218-.018.328.073.291.291l-.291,1.73c-.036.182-.11.273-.237.291A4.67,4.67,0,0,1,5.259,1892.106Z" fill="#fff"/>
        <path id="路径_2340" data-name="路径 2340" d="M12.9,1882.149c2.33,0,3.987,1.237,3.495,3.913l-.309,1.766a.3.3,0,0,1-.328.273H10.7l-.055.255c-.181.965.255,1.438,1.256,1.438a4.729,4.729,0,0,0,2.366-.728c.183-.127.328-.109.419.091l.746,1.4a.314.314,0,0,1-.108.436,6.545,6.545,0,0,1-3.805,1.111c-2.384,0-4.042-1.456-3.623-3.823l.474-2.639A4.236,4.236,0,0,1,12.9,1882.149Zm.874,3.677a1.046,1.046,0,0,0-1.11-1.365,1.513,1.513,0,0,0-1.547,1.328l-.092.492h2.658Z" fill="#fff"/>
        <path id="路径_2341" data-name="路径 2341" d="M-38.377,1907.857a.271.271,0,0,1-.291-.346l2.184-12.379a.318.318,0,0,1,.327-.291h4.479c2.548,0,3.822,1.638,3.458,3.768a3.175,3.175,0,0,1-1.656,2.367,2.582,2.582,0,0,1,1.256,2.967c-.418,2.512-2.093,3.914-5.17,3.914Zm2.967-2.567h1.929a1.83,1.83,0,0,0,1.966-1.62c.128-.856-.255-1.4-1.383-1.4h-1.984Zm.964-5.37h1.675a1.53,1.53,0,0,0,1.657-1.347c.146-.765-.182-1.238-1.2-1.238h-1.675Z" fill="#fff"/>
        <path id="路径_2342" data-name="路径 2342" d="M-23.82,1908.093a3.346,3.346,0,0,1-3.5-4.132l.383-2.257c.4-2.2,2.185-3.568,4.715-3.568a3.362,3.362,0,0,1,3.567,4.059l-.418,2.294C-19.487,1906.782-21.143,1908.093-23.82,1908.093Zm.31-2.384a1.55,1.55,0,0,0,1.675-1.366l.419-2.33c.145-.819-.237-1.492-1.111-1.492a1.588,1.588,0,0,0-1.638,1.365l-.419,2.348C-24.747,1905.126-24.366,1905.709-23.51,1905.709Z" fill="#fff"/>
        <path id="路径_2343" data-name="路径 2343" d="M-17.634,1907.857a.271.271,0,0,1-.291-.346l1.493-8.319a.445.445,0,0,1,.273-.328,10.931,10.931,0,0,1,3.7-.728c2.749,0,3.987,1.747,3.532,4.332l-.91,5.1a.327.327,0,0,1-.347.291h-2.093a.286.286,0,0,1-.291-.346l.911-5.316c.217-1.146-.183-1.674-1.148-1.674a3.016,3.016,0,0,0-1.165.218l-1.2,6.827a.312.312,0,0,1-.346.291Z" fill="#fff"/>
        <path id="路径_2344" data-name="路径 2344" d="M1.239,1898.391a.247.247,0,0,1,.273.327l-1.474,8.319a.421.421,0,0,1-.273.328,10.372,10.372,0,0,1-3.659.71c-2.713,0-3.95-1.729-3.495-4.3l.91-5.115a.3.3,0,0,1,.327-.273h2.113a.253.253,0,0,1,.272.327l-.91,5.334c-.2,1.129.2,1.657,1.11,1.657a3.139,3.139,0,0,0,1.129-.2l1.22-6.844a.294.294,0,0,1,.328-.273Z" fill="#fff"/>
        <path id="路径_2345" data-name="路径 2345" d="M5.367,1908.093a5.549,5.549,0,0,1-3.7-1.219.288.288,0,0,1-.055-.437l1.038-1.42a.289.289,0,0,1,.437-.073,3.885,3.885,0,0,0,2.367.783c.873,0,1.31-.273,1.4-.692.127-.564-.51-.71-1.238-.874-1.784-.364-3.2-1.438-2.8-3.4.382-1.838,1.911-2.621,4.113-2.621a6.053,6.053,0,0,1,3.2.837.267.267,0,0,1,.074.437l-1.075,1.438a.3.3,0,0,1-.436.091,4.006,4.006,0,0,0-2.022-.491c-.672,0-1.091.145-1.165.6-.108.545.474.709,1.348.91,1.4.309,3.149,1.183,2.767,3.313C9.262,1907.2,7.642,1908.093,5.367,1908.093Z" fill="#fff"/>
      </g>
    </g>
  </g>
</svg>
