<svg xmlns="http://www.w3.org/2000/svg" width="33" height="18" viewBox="0 0 33 18">
  <path id="Icon_material-videogame-asset" data-name="Icon material-videogame-asset" d="M31.5,9H4.5a3.009,3.009,0,0,0-3,3V24a3.009,3.009,0,0,0,3,3h27a3.009,3.009,0,0,0,3-3V12A3.009,3.009,0,0,0,31.5,9Zm-15,10.5H12V24H9V19.5H4.5v-3H9V12h3v4.5h4.5Zm6.75,3a2.25,2.25,0,1,1,2.25-2.25A2.247,2.247,0,0,1,23.25,22.5Zm6-4.5a2.25,2.25,0,1,1,2.25-2.25A2.247,2.247,0,0,1,29.25,18Z" transform="translate(-1.5 -9)" fill="#8e8b91"/>
</svg>
