<svg xmlns="http://www.w3.org/2000/svg" width="69.612" height="49.722" viewBox="0 0 69.612 49.722">
  <g id="icon_6" transform="translate(-23.704 -32.475)">
    <path id="路径_1121" data-name="路径 1121" d="M58.7,32.5h9.8A22.379,22.379,0,0,1,90,48.3a52.243,52.243,0,0,1,1.4,7.9c.6,3.9,1,7.9,1.7,11.8,1.2,7-2.7,12.8-9.6,14a11.2,11.2,0,0,1-12.2-6.1c-1.3-2.6-2.6-5.3-3.9-7.9a1.132,1.132,0,0,0-1.2-.7H50.9a1.213,1.213,0,0,0-1.2.7c-1.3,2.7-2.6,5.4-4,8a10.642,10.642,0,0,1-10.2,6.1A11.531,11.531,0,0,1,25,75.9a11.192,11.192,0,0,1-1.2-6.7c.8-6,1.4-12,2.5-17.9,1.8-9.4,7.6-15.5,16.8-18.1a17.12,17.12,0,0,1,5-.6C51.7,32.4,55.2,32.5,58.7,32.5Zm23,44.8c.4-.1,1.2-.2,1.8-.4a6.356,6.356,0,0,0,4.7-6.7c-.8-6-1.7-12.1-2.7-18.1A17.344,17.344,0,0,0,68.2,37.4c-6.5,0-13.1-.1-19.6,0-7,.1-12.1,3.4-15.6,9.4-1.6,2.8-1.9,5.9-2.3,9-.5,4-1.1,8-1.6,12.1a11.893,11.893,0,0,0-.2,4.2,6.85,6.85,0,0,0,5.9,5,6.061,6.061,0,0,0,6.6-3.7l4.8-9.6a2.627,2.627,0,0,1,2.6-1.6H68a2.891,2.891,0,0,1,2.8,1.7l4.8,9.6A6.719,6.719,0,0,0,81.7,77.3Z" fill="#fff"/>
    <path id="路径_1122" data-name="路径 1122" d="M43.7,52.4H41.1a2.337,2.337,0,0,1-2.4-2.5,2.285,2.285,0,0,1,2.4-2.5h2.6V45a2.454,2.454,0,1,1,4.9,0v2.4h2.5a2.237,2.237,0,0,1,2.4,2.5A2.312,2.312,0,0,1,51,52.4H48.5v2.4A2.341,2.341,0,0,1,46,57.4a2.317,2.317,0,0,1-2.4-2.6A19.269,19.269,0,0,0,43.7,52.4Z" fill="#fff"/>
    <path id="路径_1123" data-name="路径 1123" d="M73.5,44.9A2.5,2.5,0,1,1,71,42.4,2.362,2.362,0,0,1,73.5,44.9Z" fill="#fff"/>
    <path id="路径_1124" data-name="路径 1124" d="M66,47.4a2.362,2.362,0,0,1,2.5,2.5A2.285,2.285,0,0,1,66,52.3a2.362,2.362,0,0,1-2.5-2.5A2.285,2.285,0,0,1,66,47.4Z" fill="#fff"/>
    <path id="路径_1125" data-name="路径 1125" d="M78.4,49.9a2.5,2.5,0,1,1-2.5-2.5A2.312,2.312,0,0,1,78.4,49.9Z" fill="#fff"/>
    <path id="路径_1126" data-name="路径 1126" d="M71,52.4a2.285,2.285,0,0,1,2.4,2.5,2.362,2.362,0,0,1-2.5,2.5,2.5,2.5,0,0,1,.1-5Z" fill="#fff"/>
  </g>
</svg>
