<svg xmlns="http://www.w3.org/2000/svg" width="61.8" height="61.8" viewBox="0 0 61.8 61.8">
  <g id="icon_3" transform="translate(-26.8 -27.7)">
    <circle id="椭圆_174" data-name="椭圆 174" cx="29.9" cy="29.9" r="29.9" transform="translate(27.8 28.7)" fill="none" stroke="#fff" stroke-miterlimit="10" stroke-width="2"/>
    <path id="路径_1118" data-name="路径 1118" d="M57.7,79.5a2.271,2.271,0,0,1-1.6-.6c-1.7-1.5-3.4-2.9-4.8-4.2h0c-4.3-3.6-8-6.8-10.5-9.9-2.9-3.5-4.2-6.8-4.2-10.3A13.315,13.315,0,0,1,40,45.4a11.347,11.347,0,0,1,8.5-3.7A11.09,11.09,0,0,1,55.2,44a14.382,14.382,0,0,1,2.7,2.8A14.382,14.382,0,0,1,60.6,44a10.876,10.876,0,0,1,6.7-2.3,11.347,11.347,0,0,1,8.5,3.7,13.315,13.315,0,0,1,3.4,9.1c0,3.6-1.3,6.9-4.2,10.3-2.6,3.1-6.3,6.2-10.5,9.9-1.5,1.2-3.1,2.7-4.8,4.2A4.471,4.471,0,0,1,57.7,79.5ZM48.3,44.2a9.005,9.005,0,0,0-6.7,2.9A10.946,10.946,0,0,0,39,54.5c0,3,1.1,5.7,3.6,8.8,2.4,2.9,6,6,10.2,9.6h0c1.5,1.2,3.1,2.7,4.9,4.2,1.7-1.5,3.4-2.9,4.9-4.2,4.2-3.6,7.8-6.6,10.2-9.6,2.5-3,3.6-5.7,3.6-8.8a11.015,11.015,0,0,0-2.7-7.4A8.849,8.849,0,0,0,67,44.2,7.946,7.946,0,0,0,61.9,46,13.626,13.626,0,0,0,59,49.3a1.561,1.561,0,0,1-1.3.8,1.441,1.441,0,0,1-1.3-.8A12,12,0,0,0,53.5,46,8.421,8.421,0,0,0,48.3,44.2Z" fill="#fff"/>
  </g>
</svg>
