<svg xmlns="http://www.w3.org/2000/svg" width="60.9" height="61" viewBox="0 0 60.9 61">
  <g id="icon_2" transform="translate(-28.9 -28.2)">
    <path id="路径_1116" data-name="路径 1116" d="M81.6,89.2H28.9V36.5l8.2-8.3H89.8V80.9Zm-50.7-2H80.8l7.1-7.1V30.2H38l-7.1,7.1Z" fill="#fff"/>
    <g id="组_550" data-name="组 550">
      <g id="组_549" data-name="组 549">
        <path id="路径_1117" data-name="路径 1117" d="M44.4,78.4c-.5,0-.8-.4-.8-1.1V40.1c0-.7.3-1.1.8-1.1h7.2a1.053,1.053,0,0,1,1,.8l2.7,7.1c1.4,3.7,3.2,9.3,3.9,11.7h.2c.7-2.4,2.5-8,3.9-11.7L66,39.8a1.053,1.053,0,0,1,1-.8h7.2c.5,0,.8.4.8,1.1V77.2c0,.7-.3,1.1-.8,1.1H67.8c-.5,0-.8-.4-.8-1.1v-4c0-4.9.2-11.8.5-17.9l-.2-.1c-.6,2.3-2.6,8.2-3.8,11.8l-.7,2c-.2.6-.5.8-1,.8H57c-.5,0-.8-.2-1-.8l-.7-2c-1.3-3.6-3.2-9.6-3.8-11.8l-.2.1c.3,6,.5,13,.5,17.9v4c0,.7-.3,1.1-.8,1.1H44.4Z" fill="#fff"/>
      </g>
    </g>
  </g>
</svg>
