<svg xmlns="http://www.w3.org/2000/svg" width="54.2" height="72.8" viewBox="0 0 54.2 72.8">
  <g id="icon_1" transform="translate(-30.7 -21.1)">
    <g id="组_548" data-name="组 548">
      <path id="路径_1111" data-name="路径 1111" d="M60.1,72.6a1.129,1.129,0,0,0-1.5.4,1.079,1.079,0,0,0,0,1.1.781.781,0,0,0,.4.4l2.8,1.6a1.063,1.063,0,0,0,.8.1,1.024,1.024,0,0,0,.6-.5l3.5-6,.8.4a5.764,5.764,0,0,0,7.4-2.2,5.6,5.6,0,0,0,0-5.6,4.9,4.9,0,0,0-1.7-1.8l-.7-.5L76,54a1.079,1.079,0,0,0,0-1.1h0a.781.781,0,0,0-.4-.4l-6-3.5.4-.8a5.54,5.54,0,0,0-.2-5.3,5.3,5.3,0,0,0-2.1-2.1,5.4,5.4,0,0,0-4.3-.6,5.807,5.807,0,0,0-3.2,2.3l-.5.7-6-3.5a1.063,1.063,0,0,0-.8-.1,1.024,1.024,0,0,0-.6.5L48,47.3a.908.908,0,0,0,0,1v.1c.2.3.4.5.7.5a3.582,3.582,0,0,1,1.1.4,3.25,3.25,0,0,1,1.3,1.3,3.628,3.628,0,0,1,0,3.5A3.363,3.363,0,0,1,49,55.7a4.236,4.236,0,0,1-2.7-.3,3.24,3.24,0,0,1-.9-.8,1.086,1.086,0,0,0-.9-.4.891.891,0,0,0-.8.5L39.6,62a1.079,1.079,0,0,0,0,1.1.781.781,0,0,0,.4.4l12.4,7.2a1.063,1.063,0,0,0,.8.1,1.024,1.024,0,0,0,.6-.5,1.079,1.079,0,0,0,0-1.1.781.781,0,0,0-.4-.4L41.9,62.1,44.8,57l.8.4a5.828,5.828,0,0,0,3.9.4,5.309,5.309,0,0,0,3.4-2.6,5.6,5.6,0,0,0,0-5.6,4.9,4.9,0,0,0-1.7-1.8l-.7-.5,2.9-5.1,6.3,3.6a.908.908,0,0,0,1,0,1.037,1.037,0,0,0,.6-.8,3.5,3.5,0,0,1,5.2-2.4,3.25,3.25,0,0,1,1.3,1.3,3.628,3.628,0,0,1,0,3.5,3.24,3.24,0,0,1-.8.9,1.086,1.086,0,0,0-.4.9c0,.2.1.3.1.4a.781.781,0,0,0,.4.4l6.3,3.6-3.6,6.3a.908.908,0,0,0,0,1V61c.2.3.4.5.7.5a3.582,3.582,0,0,1,1.1.4,3.25,3.25,0,0,1,1.3,1.3,3.628,3.628,0,0,1,0,3.5,3.363,3.363,0,0,1-2.1,1.6,4.236,4.236,0,0,1-2.7-.3,3.24,3.24,0,0,1-.9-.8,1.086,1.086,0,0,0-.9-.4.891.891,0,0,0-.8.5L62,73.7Z" fill="#fff"/>
      <path id="路径_1112" data-name="路径 1112" d="M56.8,70.7a1.129,1.129,0,0,0-1.5.4,1.079,1.079,0,0,0,0,1.1.781.781,0,0,0,.4.4,1.063,1.063,0,0,0,.8.1c.3-.1.5-.2.6-.5a1.079,1.079,0,0,0,0-1.1C57.1,70.9,56.9,70.8,56.8,70.7Z" fill="#fff"/>
      <path id="路径_1113" data-name="路径 1113" d="M60.1,72.6a1.129,1.129,0,0,0-1.5.4,1.079,1.079,0,0,0,0,1.1.781.781,0,0,0,.4.4l2.8,1.6a1.063,1.063,0,0,0,.8.1,1.024,1.024,0,0,0,.6-.5l3.5-6,.8.4a5.764,5.764,0,0,0,7.4-2.2,5.6,5.6,0,0,0,0-5.6,4.9,4.9,0,0,0-1.7-1.8l-.7-.5L76,54a1.079,1.079,0,0,0,0-1.1h0a.781.781,0,0,0-.4-.4l-6-3.5.4-.8a5.54,5.54,0,0,0-.2-5.3,5.3,5.3,0,0,0-2.1-2.1,5.4,5.4,0,0,0-4.3-.6,5.807,5.807,0,0,0-3.2,2.3l-.5.7-6-3.5a1.063,1.063,0,0,0-.8-.1,1.024,1.024,0,0,0-.6.5L48,47.3a.908.908,0,0,0,0,1v.1c.2.3.4.5.7.5a3.582,3.582,0,0,1,1.1.4,3.25,3.25,0,0,1,1.3,1.3,3.628,3.628,0,0,1,0,3.5A3.363,3.363,0,0,1,49,55.7a4.236,4.236,0,0,1-2.7-.3,3.24,3.24,0,0,1-.9-.8,1.086,1.086,0,0,0-.9-.4.891.891,0,0,0-.8.5L39.6,62a1.079,1.079,0,0,0,0,1.1.781.781,0,0,0,.4.4l12.4,7.2a1.063,1.063,0,0,0,.8.1,1.024,1.024,0,0,0,.6-.5,1.079,1.079,0,0,0,0-1.1.781.781,0,0,0-.4-.4L41.9,62.1,44.8,57l.8.4a5.828,5.828,0,0,0,3.9.4,5.309,5.309,0,0,0,3.4-2.6,5.6,5.6,0,0,0,0-5.6,4.9,4.9,0,0,0-1.7-1.8l-.7-.5,2.9-5.1,6.3,3.6a.908.908,0,0,0,1,0,1.037,1.037,0,0,0,.6-.8,3.5,3.5,0,0,1,5.2-2.4,3.25,3.25,0,0,1,1.3,1.3,3.628,3.628,0,0,1,0,3.5,3.24,3.24,0,0,1-.8.9,1.086,1.086,0,0,0-.4.9c0,.2.1.3.1.4a.781.781,0,0,0,.4.4l6.3,3.6-3.6,6.3a.908.908,0,0,0,0,1V61c.2.3.4.5.7.5a3.582,3.582,0,0,1,1.1.4,3.25,3.25,0,0,1,1.3,1.3,3.628,3.628,0,0,1,0,3.5,3.363,3.363,0,0,1-2.1,1.6,4.236,4.236,0,0,1-2.7-.3,3.24,3.24,0,0,1-.9-.8,1.086,1.086,0,0,0-.9-.4.891.891,0,0,0-.8.5L62,73.7Z" fill="#fff"/>
      <path id="路径_1114" data-name="路径 1114" d="M56.8,70.7a1.129,1.129,0,0,0-1.5.4,1.079,1.079,0,0,0,0,1.1.781.781,0,0,0,.4.4,1.063,1.063,0,0,0,.8.1c.3-.1.5-.2.6-.5a1.079,1.079,0,0,0,0-1.1C57.1,70.9,56.9,70.8,56.8,70.7Z" fill="#fff"/>
    </g>
    <path id="路径_1115" data-name="路径 1115" d="M57.8,22.1a7.216,7.216,0,0,1,3.2.8L80.7,34.3a6.43,6.43,0,0,1,3.2,5.5V75.2a6.465,6.465,0,0,1-3.2,5.5L60.9,92.1a5.869,5.869,0,0,1-3.2.8,6.9,6.9,0,0,1-3.2-.8L34.9,80.7a6.43,6.43,0,0,1-3.2-5.5V39.8a6.465,6.465,0,0,1,3.2-5.5L54.6,22.9a6.9,6.9,0,0,1,3.2-.8" fill="none" stroke="#fff" stroke-miterlimit="10" stroke-width="2"/>
  </g>
</svg>
