<svg xmlns="http://www.w3.org/2000/svg" width="46.524" height="46.531" viewBox="0 0 46.524 46.531">
  <g id="TUTORIAL_Button" data-name="TUTORIAL Button" transform="translate(0)">
    <g id="矩形_47" data-name="矩形 47" transform="matrix(0.695, 0.719, -0.719, 0.695, 23.57, 0)" fill="#8e8b91" stroke="#707070" stroke-width="1">
      <rect width="33.044" height="32.766" rx="11" stroke="none"/>
      <rect x="0.5" y="0.5" width="32.044" height="31.766" rx="10.5" fill="none"/>
    </g>
    <path id="Icon_awesome-chalkboard-teacher" data-name="Icon awesome-chalkboard-teacher" d="M4.875,10.313a.439.439,0,0,0-.165.032,2.54,2.54,0,0,1-.96.2,2.542,2.542,0,0,1-.96-.2.438.438,0,0,0-.165-.032c-1.455,0-2.633,1.479-2.625,3.3A1.282,1.282,0,0,0,1.125,15h5.25A1.282,1.282,0,0,0,7.5,13.612C7.508,11.791,6.329,10.313,4.875,10.313ZM3.75,9.375A2.579,2.579,0,0,0,6,6.563,2.579,2.579,0,0,0,3.75,3.75,2.579,2.579,0,0,0,1.5,6.563,2.579,2.579,0,0,0,3.75,9.375ZM13.875,0h-9A1.322,1.322,0,0,0,3.75,1.453v1.36a2.538,2.538,0,0,1,1.5.521V1.875H13.5v8.438H12V8.438H9v1.875H7.213a3.962,3.962,0,0,1,.93,1.875h5.732A1.322,1.322,0,0,0,15,10.735V1.453A1.322,1.322,0,0,0,13.875,0Z" transform="translate(16.441 16.015)" fill="#fff"/>
  </g>
</svg>
