<svg id="组_1598" data-name="组 1598" xmlns="http://www.w3.org/2000/svg" xmlns:xlink="http://www.w3.org/1999/xlink" width="343.325" height="63.437" viewBox="0 0 343.325 63.437">
  <defs>
    <clipPath id="clip-path">
      <rect id="矩形_834" data-name="矩形 834" width="343.325" height="63.437" transform="translate(0 0)" fill="none"/>
    </clipPath>
  </defs>
  <rect id="矩形_831" data-name="矩形 831" width="334.325" height="54.437" transform="translate(9 9)"/>
  <rect id="矩形_832" data-name="矩形 832" width="334.325" height="54.437" transform="translate(1 1)" fill="#f0f"/>
  <g id="组_1597" data-name="组 1597">
    <g id="组_1596" data-name="组 1596" clip-path="url(#clip-path)">
      <rect id="矩形_833" data-name="矩形 833" width="334.325" height="54.437" transform="translate(1 1)" fill="none" stroke="#000" stroke-miterlimit="10" stroke-width="2"/>
      <path id="路径_3075" data-name="路径 3075" d="M84.25,42.133h-.091A5.089,5.089,0,0,1,79.108,45.5c-3.139,0-5.05-1.911-5.05-5.324V36.308c0-6.825,10.192-6,10.192-10.829,0-1.047-.318-1.911-1.5-1.911s-1.5.864-1.5,1.911v2.867H74.058V25.934c0-5.233,4.368-7.1,8.69-7.1s8.691,1.865,8.691,7.1V45.181H84.25Zm-3-3.641a1.277,1.277,0,0,0,1.319,1.365c1.5,0,1.684-1,1.684-3.321V32.031c-1.41,1-3,1.593-3,3.641Z"/>
      <path id="路径_3076" data-name="路径 3076" d="M103.631,41.906h-.092c-.364,2.593-2.32,3.594-4.96,3.594-3.959,0-5.141-3.367-5.141-6.506V24.615c0-3.322,1.365-5.779,5-5.779a4.988,4.988,0,0,1,5.1,3.868h.092V12.785h7.188v32.4h-7.188Zm-3-4.095c0,1.137.636,1.774,1.5,1.774s1.5-.637,1.5-1.774V26.526c0-1.138-.638-1.775-1.5-1.775s-1.5.637-1.5,1.775Z"/>
      <path id="路径_3077" data-name="路径 3077" d="M123.011,41.906h-.091c-.364,2.593-2.32,3.594-4.96,3.594-3.959,0-5.141-3.367-5.141-6.506V24.615c0-3.322,1.365-5.779,5-5.779a4.988,4.988,0,0,1,5.1,3.868h.091V12.785H130.2v32.4h-7.189Zm-3-4.095c0,1.137.637,1.774,1.5,1.774s1.5-.637,1.5-1.774V26.526c0-1.138-.637-1.775-1.5-1.775s-1.5.637-1.5,1.775Z"/>
      <path id="路径_3078" data-name="路径 3078" d="M142.118,23.887V19.155h2.411V14.468h7.19v4.687h3.139v4.732h-3.139v14.2c0,1.547.045,2.366,1.729,2.366h1.41v4.733h-5.87c-3.594,0-4.459-2-4.459-5.415V23.887Z"/>
      <path id="路径_3079" data-name="路径 3079" d="M173.6,38.584c0,4.823-4.1,6.916-8.691,6.916s-8.69-2.093-8.69-6.916V26.162c0-4.688,3.093-7.326,8.69-7.326s8.691,2.638,8.691,7.326Zm-10.192.363c0,.956.364,1.82,1.5,1.82s1.5-.864,1.5-1.82V25.387c0-.955-.364-1.819-1.5-1.819s-1.5.864-1.5,1.819Z"/>
      <path id="路径_3080" data-name="路径 3080" d="M196.348,25.388c0-.955-.364-1.819-1.5-1.819s-1.5.864-1.5,1.819v13.56c0,.956.364,1.82,1.5,1.82s1.5-.864,1.5-1.82V34.9h7.189V38.72c0,4.915-3.64,6.78-8.736,6.78-5.369,0-8.645-2.229-8.645-7.234V26.117c0-4.278,3.185-7.281,8.645-7.281,4.641,0,8.736,1.73,8.736,7.326v2.184h-7.189Z"/>
      <path id="路径_3081" data-name="路径 3081" d="M215.729,42.133h-.091a5.089,5.089,0,0,1-5.051,3.367c-3.139,0-5.05-1.911-5.05-5.324V36.308c0-6.825,10.192-6,10.192-10.829,0-1.047-.318-1.911-1.5-1.911s-1.5.864-1.5,1.911v2.867h-7.189V25.934c0-5.233,4.368-7.1,8.69-7.1s8.691,1.865,8.691,7.1V45.181h-7.189Zm-3-3.641a1.277,1.277,0,0,0,1.319,1.365c1.5,0,1.684-1,1.684-3.321V32.031c-1.41,1-3,1.593-3,3.641Z"/>
      <path id="路径_3082" data-name="路径 3082" d="M232.107,22.567h.137c.955-2.275,2.548-3.731,5.186-3.731,3.641,0,4.869,2.411,4.869,5.095v9.283H235.11V26.889c0-1.047-.318-2.138-1.5-2.138s-1.5,1.091-1.5,2.138V45.181h-7.189V19.154h7.189Z"/>
      <path id="路径_3083" data-name="路径 3083" d="M243.662,23.887V19.155h2.411V14.468h7.19v4.687H256.4v4.732h-3.139v14.2c0,1.547.045,2.366,1.729,2.366h1.41v4.733h-5.87c-3.6,0-4.459-2-4.459-5.415V23.887Z"/>
    </g>
  </g>
</svg>
