<svg id="组_1606" data-name="组 1606" xmlns="http://www.w3.org/2000/svg" xmlns:xlink="http://www.w3.org/1999/xlink" width="343.325" height="63.437" viewBox="0 0 343.325 63.437">
  <defs>
    <clipPath id="clip-path">
      <rect id="矩形_872" data-name="矩形 872" width="343.325" height="63.437" transform="translate(0 0)" fill="none"/>
    </clipPath>
  </defs>
  <rect id="矩形_869" data-name="矩形 869" width="334.325" height="54.437" transform="translate(9 9)"/>
  <rect id="矩形_870" data-name="矩形 870" width="334.325" height="54.437" transform="translate(1 1)" fill="#f0f"/>
  <g id="组_1603" data-name="组 1603">
    <g id="组_1602" data-name="组 1602" clip-path="url(#clip-path)">
      <rect id="矩形_871" data-name="矩形 871" width="334.325" height="54.437" transform="translate(1 1)" fill="none" stroke="#000" stroke-miterlimit="10" stroke-width="2"/>
    </g>
  </g>
  <path id="路径_3101" data-name="路径 3101" d="M145.285,12.784l4.186,32.4h-7.508l-.864-7.963H137l-1.228,7.963h-6.37l5.5-32.4Zm-4.732,19.521-1.319-14.424h-.091l-1.32,14.424Z"/>
  <g id="组_1605" data-name="组 1605">
    <g id="组_1604" data-name="组 1604" clip-path="url(#clip-path)">
      <path id="路径_3102" data-name="路径 3102" d="M158.205,22.568h.091c.364-2.73,2.32-3.732,4.96-3.732,3.958,0,5.141,3.368,5.141,6.644V39.858c0,3.185-1.365,5.642-5.005,5.642a4.877,4.877,0,0,1-5.1-3.731h-.091v9.237h-7.189V19.155h7.189Zm0,15.243c0,1.137.637,1.774,1.5,1.774s1.5-.637,1.5-1.774V26.526c0-1.137-.637-1.774-1.5-1.774s-1.5.637-1.5,1.774Z"/>
      <path id="路径_3103" data-name="路径 3103" d="M177.585,22.568h.091c.364-2.73,2.32-3.732,4.96-3.732,3.958,0,5.141,3.368,5.141,6.644V39.858c0,3.185-1.365,5.642-5,5.642a4.877,4.877,0,0,1-5.1-3.731h-.091v9.237H170.4V19.155h7.189Zm0,15.243c0,1.137.637,1.774,1.5,1.774s1.5-.637,1.5-1.774V26.526c0-1.137-.637-1.774-1.5-1.774s-1.5.637-1.5,1.774Z"/>
      <rect id="矩形_873" data-name="矩形 873" width="7.188" height="32.397" transform="translate(189.822 12.784)"/>
      <path id="路径_3104" data-name="路径 3104" d="M205.882,19.155l2.411,17.973h.091l2.411-17.973h6.052l-5.824,27.437c-.591,2.958-2.685,4.414-5.825,4.414H199.42V46.274h3.731c.956,0,1.274-.227,1.274-.728a5.852,5.852,0,0,0-.182-1.138L198.6,19.155Z"/>
    </g>
  </g>
</svg>
