<svg xmlns="http://www.w3.org/2000/svg" xmlns:xlink="http://www.w3.org/1999/xlink" width="698.73" height="126.161" viewBox="0 0 698.73 126.161">
  <defs>
    <clipPath id="clip-path">
      <rect id="矩形_794" data-name="矩形 794" width="698.73" height="126.16" fill="none"/>
    </clipPath>
  </defs>
  <g id="组_1574" data-name="组 1574" transform="translate(0 0.001)">
    <rect id="矩形_790" data-name="矩形 790" width="653.324" height="81.999" transform="translate(27.964 26.014)"/>
    <rect id="矩形_791" data-name="矩形 791" width="687.36" height="81.999" transform="translate(8 44.273) rotate(-3.025)"/>
    <rect id="矩形_792" data-name="矩形 792" width="653.324" height="81.999" transform="translate(19.964 18.014)" fill="#f0f"/>
    <rect id="矩形_793" data-name="矩形 793" width="687.36" height="82" transform="translate(0 36.275) rotate(-3.025)" fill="#f0f"/>
    <g id="组_1573" data-name="组 1573">
      <g id="组_1572" data-name="组 1572" clip-path="url(#clip-path)">
        <path id="路径_2972" data-name="路径 2972" d="M275.53,65.25v5.467c0,7.734-4.129,11.455-12.271,11.455-6.4,0-12.153-2.616-12.153-12.095V51.236c0-9.478,5.757-12.1,12.153-12.1,7.037,0,12.271,2.093,12.271,11.048v4.536h-9.653v-5.7c0-1.686-.524-3.256-2.618-3.256-1.976,0-2.5,1.57-2.5,3.256V72.287c0,1.686.524,3.256,2.5,3.256,2.094,0,2.618-1.57,2.618-3.256l.057-7.037Z" fill="#fff"/>
        <path id="路径_2973" data-name="路径 2973" d="M297.741,39.956l5.349,41.4H293.5l-1.105-10.177h-5.234l-1.569,10.177h-8.142l7.036-41.4ZM291.693,64.9l-1.687-18.434h-.116L288.2,64.9Z" fill="#fff"/>
        <path id="路径_2974" data-name="路径 2974" d="M300.3,46.235V39.956h23.144v6.279H316.7V81.359h-9.653V46.235Z" fill="#fff"/>
        <path id="路径_2975" data-name="路径 2975" d="M325.417,81.359v-41.4h20v6.279H335.07v9.072h10v6.281h-10V75.079h10.351v6.28Z" fill="#fff"/>
        <path id="路径_2976" data-name="路径 2976" d="M365.306,79.266a8.077,8.077,0,0,1-3.954,2.325,14.66,14.66,0,0,1-4.42.581c-6.339,0-9.886-2.616-9.886-12.094V51.237c0-9.479,5.816-12.1,12.212-12.1,7.792,0,12.153,3.141,12.27,11.281l-.058,4.362h-9.653V49.027c0-1.687-.524-3.257-2.559-3.257s-2.558,1.57-2.558,3.257v23.26c0,1.686.464,3.256,2.558,3.256,2.035,0,2.559-1.57,2.559-3.256V66.762h-3.664V60.483H371.47V81.359h-5.641Z" fill="#fff"/>
        <path id="路径_2977" data-name="路径 2977" d="M398.451,70.077c0,9.479-5.817,12.095-12.213,12.095s-12.212-2.616-12.212-12.095V51.236c0-9.478,5.815-12.1,12.212-12.1s12.213,2.617,12.213,12.1Zm-14.771,2.21c0,1.686.522,3.256,2.558,3.256s2.558-1.57,2.558-3.256V49.026c0-1.686-.523-3.257-2.558-3.257s-2.558,1.571-2.558,3.257Z" fill="#fff"/>
        <path id="路径_2978" data-name="路径 2978" d="M400.89,81.359v-41.4H410.6c9.188,0,14.654.929,14.654,9.652,0,5.176-2.151,8.549-7.385,9.421v.116c4.652.116,7.385,1.862,7.385,7.793V75.6a10.745,10.745,0,0,0,1.454,5.757H417a10.667,10.667,0,0,1-1.4-5.757V66.821c0-2.907-1.745-4.361-3.49-4.361h-1.569v18.9Zm9.653-24.831c4.361,0,5.059-1.453,5.059-5.35,0-3.838-.64-5.291-5.059-5.291Z" fill="#fff"/>
        <path id="路径_2979" data-name="路径 2979" d="M434.324,66.123l-8.2-26.168h9.421l3.547,16.457h.116l3.548-16.457h9.42l-8.2,26.168V81.358h-9.653Z" fill="#fff"/>
      </g>
    </g>
  </g>
</svg>
