<svg id="组_1615" data-name="组 1615" xmlns="http://www.w3.org/2000/svg" xmlns:xlink="http://www.w3.org/1999/xlink" width="343.432" height="63.545" viewBox="0 0 343.432 63.545">
  <defs>
    <clipPath id="clip-path">
      <rect id="矩形_886" data-name="矩形 886" width="343.432" height="63.545" transform="translate(0 0)" fill="none"/>
    </clipPath>
  </defs>
  <rect id="矩形_883" data-name="矩形 883" width="334.325" height="54.437" transform="translate(9.107 9.108)"/>
  <rect id="矩形_884" data-name="矩形 884" width="334.325" height="54.437" transform="translate(1.107 1.108)" fill="#009ee7"/>
  <g id="组_1614" data-name="组 1614">
    <g id="组_1613" data-name="组 1613" clip-path="url(#clip-path)">
      <rect id="矩形_885" data-name="矩形 885" width="334.325" height="54.437" transform="translate(1.107 1.108)" fill="none" stroke="#000" stroke-miterlimit="10" stroke-width="2.215"/>
    </g>
  </g>
  <path id="路径_3109" data-name="路径 3109" d="M115.493,30.431V41.482H87.381V30.431H84.646l5.327-9.215H97.1l-4.571,8.207h17.925L106.1,21.216h7.055l4.859,9.215ZM104.947,20.208v8.279H97.964V20.208H85.654V16.86h12.31V14.413h6.983V16.86h12.094v3.348ZM85.725,42.814h31.353v3.275H85.725ZM108.618,32.7H94.292v1.368h14.326Zm0,4.247H94.292v1.4h14.326Z"/>
  <path id="路径_3110" data-name="路径 3110" d="M151.566,18.912H139.939l-.972,1.368h12.994v2.952H136.879l-1.115,1.656h17.565v3.095H133.6l-1.224,1.656h19.581V46.017H124.245V34.57h-3.059l4.642-6.587h-4.174V24.888h6.407l1.151-1.656h-6.191V20.28h8.315l.972-1.368h-10.15v-3.1h23.073l.683-1.4h7.631Zm-6.444,13.822H131.084v1.44h14.038Zm0,4.212H131.084v1.548h14.038Zm0,4.355H131.084v1.584h14.038Z"/>
  <path id="路径_3111" data-name="路径 3111" d="M161.685,46.125h-4.9l1.476-6.695h4.9Zm-3.96-31.352H168.92V38.386H157.725Zm6.479,3.419H162.62v3.275H164.2Zm0,6.8H162.62v3.239H164.2Zm0,6.731H162.62v3.24H164.2Zm.649,14.4-1.26-6.695h4.715l1.368,6.695ZM188.5,41.553v4.572h-7.7l-1.4-3.1h3.851V41.553h-7.523v4.572h-5.255V41.553h-.936V38.278h.936V29.855H176.7V28.487h-7.163V25.248h3.2V23.916h-2.088V20.892h2.088V19.6h-2.844V16.429h2.844V14.305h5.831v2.124h2.051V14.305h5.832v2.124h2.591V19.6H186.45v1.3h2.015v3.024H186.45v1.332h2.988v3.239h-7.056v1.368H188.5v8.423h1.008v3.275Zm-10.654-8.746h-2.124v1.476h2.124Zm0,4.031h-2.124v1.44h2.124ZM180.618,19.6h-2.052v1.3h2.052Zm0,4.32h-2.052v1.332h2.052Zm2.628,8.891h-2.16v1.476h2.16Zm0,4.031h-2.124v1.44h2.124Z"/>
  <path id="路径_3112" data-name="路径 3112" d="M217.086,45.945l-1.512-3.527h3.384V26.183l-4.535,19.078h-4.752L214.71,24.24h4.248V21.648h-6.552l-.9,2.592h1.836L208.3,45.261H203.66v.684h-6.191V36.838L193.4,38.1V34.57l4.068-1.3v-9.4h-1.3l-.288,5.075h-2.808l.756-12.742h2.772l-.216,4.211h1.08V14.413h6.191v6.011h1.4V23.88h-1.4v7.379l1.8-.54v3.6l-1.8.575v9.323l4.356-17.565h-3.6l4.1-12.239h6.371l-1.224,3.564h11.374V45.945Z"/>
  <path id="路径_3113" data-name="路径 3113" d="M248.947,41.841v4.212h-7.091V41.841H229.438V38.314h12.418v-1.8H231.129V22.08h10.727v-1.8H229.725V16.753h12.131V14.341h7.091v2.412h11.987V20.28H248.947v1.8h10.762V36.514H248.947v1.8h12.346v3.527Zm-7.091-16.414h-4v2.268h4Zm0,5.436h-4v2.268h4Zm11.087-5.436h-4v2.268h4Zm0,5.436h-4v2.268h4Z"/>
</svg>
