<svg id="组_1601" data-name="组 1601" xmlns="http://www.w3.org/2000/svg" xmlns:xlink="http://www.w3.org/1999/xlink" width="343.325" height="63.437" viewBox="0 0 343.325 63.437">
  <defs>
    <clipPath id="clip-path">
      <rect id="矩形_838" data-name="矩形 838" width="343.325" height="63.437" transform="translate(0 0)" fill="none"/>
    </clipPath>
  </defs>
  <rect id="矩形_835" data-name="矩形 835" width="334.325" height="54.437" transform="translate(9 9)"/>
  <rect id="矩形_836" data-name="矩形 836" width="334.325" height="54.437" transform="translate(1 1)" fill="#f0f"/>
  <g id="组_1600" data-name="组 1600">
    <g id="组_1599" data-name="组 1599" clip-path="url(#clip-path)">
      <rect id="矩形_837" data-name="矩形 837" width="334.325" height="54.437" transform="translate(1 1)" fill="none" stroke="#000" stroke-miterlimit="10" stroke-width="2"/>
      <path id="路径_3084" data-name="路径 3084" d="M116.891,32.578v4.277c0,6.052-3.23,8.964-9.6,8.964-5,0-9.509-2.048-9.509-9.464V21.612c0-7.417,4.505-9.464,9.509-9.464,5.506,0,9.6,1.638,9.6,8.645v3.549h-7.553V19.883c0-1.32-.409-2.548-2.048-2.548-1.546,0-1.956,1.228-1.956,2.548v18.2c0,1.319.41,2.548,1.956,2.548,1.639,0,2.048-1.229,2.048-2.548l.045-5.506Z"/>
      <path id="路径_3085" data-name="路径 3085" d="M118.89,45.182v-32.4h7.189v9.6h.091a4.9,4.9,0,0,1,5.1-3.55c3.64,0,5.005,2.412,5.005,6.189V45.182h-7.19V27.573c0-1.411-.046-2.821-1.5-2.821s-1.5,1.41-1.5,2.821V45.182Z"/>
      <path id="路径_3086" data-name="路径 3086" d="M145.46,32.988v5.278c0,1.547.546,2.5,1.5,2.5,1.138,0,1.5-.956,1.5-2.5V34.9h7.189v3.822c0,4.914-3.64,6.779-8.691,6.779-4.6,0-8.69-2.092-8.69-6.916V26.163c0-4.687,3.093-7.327,8.69-7.327,4.6,0,8.691,1.73,8.691,7.327v6.825Zm3-4.323V25.116a1.5,1.5,0,1,0-3,0v3.549Z"/>
      <path id="路径_3087" data-name="路径 3087" d="M167.844,25.388c0-.956-.364-1.82-1.5-1.82s-1.5.864-1.5,1.82v13.56c0,.955.364,1.82,1.5,1.82s1.5-.865,1.5-1.82V34.9h7.189V38.72c0,4.915-3.64,6.78-8.736,6.78-5.369,0-8.645-2.23-8.645-7.235V26.116c0-4.277,3.185-7.28,8.645-7.28,4.641,0,8.736,1.729,8.736,7.326v2.184h-7.189Z"/>
      <path id="路径_3088" data-name="路径 3088" d="M177.032,45.182v-32.4h7.189V31.031h.091L188,19.155h6.962L190.819,30.8l4.505,14.378H188l-3.686-13.6h-.091v13.6Z"/>
      <path id="路径_3089" data-name="路径 3089" d="M213.795,38.584c0,4.823-4.1,6.916-8.691,6.916s-8.69-2.093-8.69-6.916V26.162c0-4.687,3.093-7.326,8.69-7.326s8.691,2.639,8.691,7.326Zm-10.192.364c0,.956.364,1.82,1.5,1.82s1.5-.864,1.5-1.82V25.388c0-.955-.364-1.819-1.5-1.819s-1.5.864-1.5,1.819Z"/>
      <path id="路径_3090" data-name="路径 3090" d="M225.986,41.951H225.9c-.682,2.275-2.412,3.549-5.232,3.549-3.232,0-4.869-2.23-4.869-5.961V19.155h7.189V37.219c0,1.137.091,2.366,1.456,2.366s1.547-1.229,1.547-2.366V19.155h7.189V45.181h-7.189Z"/>
      <path id="路径_3091" data-name="路径 3091" d="M234.538,23.887V19.155h2.411V14.468h7.19v4.687h3.139v4.732h-3.139v14.2c0,1.547.045,2.365,1.729,2.365h1.41v4.733h-5.87c-3.594,0-4.459-2-4.459-5.415V23.887Z"/>
    </g>
  </g>
</svg>
