<svg id="组_1618" data-name="组 1618" xmlns="http://www.w3.org/2000/svg" xmlns:xlink="http://www.w3.org/1999/xlink" width="343.432" height="63.545" viewBox="0 0 343.432 63.545">
  <defs>
    <clipPath id="clip-path">
      <rect id="矩形_890" data-name="矩形 890" width="343.432" height="63.545" transform="translate(0 0)" fill="none"/>
    </clipPath>
  </defs>
  <rect id="矩形_887" data-name="矩形 887" width="334.325" height="54.437" transform="translate(9.107 9.108)"/>
  <rect id="矩形_888" data-name="矩形 888" width="334.325" height="54.437" transform="translate(1.107 1.108)" fill="#fff"/>
  <g id="组_1617" data-name="组 1617">
    <g id="组_1616" data-name="组 1616" clip-path="url(#clip-path)">
      <rect id="矩形_889" data-name="矩形 889" width="334.325" height="54.437" transform="translate(1.107 1.108)" fill="none" stroke="#000" stroke-miterlimit="10" stroke-width="2.215"/>
    </g>
  </g>
  <path id="路径_3114" data-name="路径 3114" d="M110.061,20.684h4.067v3.635L112,27.631h2.161v6.335h-10.4V30.3l4.1-6.12h-4.14V20.468l4.428-7.091H114.6Zm-6.3,14.362h3.1V45.089h-3.1Zm3.924,0h2.951V45.089h-2.951Zm4.176-7.163-1.764,2.7h1.764Zm-.4,7.163h2.771V45.089h-2.771ZM134.61,45.089H114.957V13.377h5.722V25.435h14.759v3.384H120.679V41.705h15.334ZM121.364,24.5V21.836l1.511-2.232h-1.511v-2.88l2.411-3.347h4.067l-2.051,3.275h2.124v1.764l-1.26,1.656h1.26V24.5Zm.071,16.342V38.07l1.44-2.232H121.4V32.706l2.088-3.024h4.283l-1.979,3.1h2.16v1.8l-1.224,1.584h1.224v4.679Zm5.111-20.625-1.151,1.476h1.151Zm.073,16.09-1.224,1.547h1.224ZM128.562,24.5V21.727l1.513-2.123h-1.513V16.688l2.3-3.311h4.175l-2.051,3.275h2.16v1.8l-1.225,1.62h1.225V24.5Zm.108,16.342V38.034l1.476-2.2H128.67V32.6l1.98-2.916H134.9l-1.872,3.1h2.16v1.8L134,36.162h1.188v4.679Zm5.112-20.589-1.152,1.44h1.152Zm.072,16.054-1.224,1.547h1.224Z"/>
  <path id="路径_3115" data-name="路径 3115" d="M146.529,20.648H150.7v3.275l-2.52,3.708h2.592v6.3H139.761V30.691l4.607-6.551H139.69V20.828l5.182-7.487h6.7Zm-6.768,14.434h3.384v9.971h-3.384Zm4.176,0h2.916v9.971h-2.916Zm3.743-6.731L146.2,30.583h1.476Zm17.242,16.7-2.412-3.239h-1.943l-2.88,3.239h-9.9V35.082h2.952v9.755l2.736-3.023h-1.368V29.5h18.214V41.814h-1.08l2.519,3.239Zm-.756-27.428V18.6h5.976v2.376H152V18.6h6.048v-.971h-7.163V14.853h7.163V13.341h6.119v1.512h7.307v2.772Zm6.66,10.906h-19.4V21.8h19.4Zm-13.1-4.1h-1.187v1.62h1.187Zm6.659,7.667h-6.335v1.044h6.335Zm0,3.1h-6.335v1.044h6.335Zm0,2.952h-6.335v1.116h6.335ZM161.79,24.427h-1.224v1.62h1.224Zm4.14,0h-1.224v1.62h1.224Z"/>
  <path id="路径_3116" data-name="路径 3116" d="M206.249,45.053H187.495l-4.39-2.232-1.225,2.232h-6.839l3.528-6.551V34h-3.131V30.691L178.5,24.86h-3.059V21.3h9.286v3.923L182.1,30.511h2.556v9.323l.863.467,3.311-3.419h7.127l-3.922,4.1H186.92l1.367.685h19.655Zm-28-24.981-2.736-6.839h7.163l2.7,6.839Zm7.2,15.91V32.815h3.06V31.123h-2.412V27.991H188.5v-1.4h6.263v1.4h3.1v-1.4h6.262v1.4h2.628v3.132h-2.628v1.692h3.025v3.167Zm9.9-10.186h-9.5V13.557h10.079V21.08h-4.931v1.872H196.6Zm-2.7-9.4h-1.655v2.052h1.655Zm5.22,14.722h-3.1v1.692h3.1Zm8.674-5.327h-9.61V13.557h9.935v7.6H202v1.8h5.759Zm-5.363,15.189-4.247-4.1h6.694l4.1,4.1ZM203.658,16.4H202v2.052h1.655Z"/>
  <path id="路径_3117" data-name="路径 3117" d="M215.685,45.125h-4.9l1.476-6.695h4.9Zm-3.96-31.352H222.92V37.386H211.725Zm6.479,3.42H216.62v3.275H218.2Zm0,6.8H216.62v3.239H218.2Zm0,6.731H216.62v3.24H218.2Zm.649,14.4-1.26-6.695h4.715l1.368,6.695ZM242.5,40.553v4.572h-7.7l-1.4-3.1h3.851V40.553h-7.523v4.572h-5.255V40.553h-.936V37.278h.936V28.855H230.7V27.487h-7.163V24.248h3.2V22.916h-2.088V19.892h2.088V18.6h-2.844V15.429h2.844V13.305h5.831v2.124h2.051V13.305h5.832v2.124h2.591V18.6H240.45v1.3h2.015v3.024H240.45v1.332h2.988v3.239h-7.056v1.368H242.5v8.423h1.008v3.275Zm-10.654-8.746h-2.124v1.476h2.124Zm0,4.031h-2.124v1.44h2.124ZM234.618,18.6h-2.052v1.3h2.052Zm0,4.32h-2.052v1.332h2.052Zm2.628,8.891h-2.16v1.476h2.16Zm0,4.031h-2.124v1.44h2.124Z"/>
</svg>
