<svg id="组_1507" data-name="组 1507" xmlns="http://www.w3.org/2000/svg" xmlns:xlink="http://www.w3.org/1999/xlink" width="542.299" height="133.421" viewBox="0 0 542.299 133.421">
  <defs>
    <clipPath id="clip-path">
      <rect id="矩形_712" data-name="矩形 712" width="542.299" height="133.421" fill="none"/>
    </clipPath>
  </defs>
  <path id="路径_2711" data-name="路径 2711" d="M7.5,62.343V7.5H34v8.319H20.287V27.835H33.535v8.319H20.287v17.87H34v8.319Z"/>
  <g id="组_1506" data-name="组 1506">
    <g id="组_1505" data-name="组 1505" clip-path="url(#clip-path)">
      <path id="路径_2712" data-name="路径 2712" d="M55.334,57.182H55.18c-1.463,3.158-3.7,5.7-8.55,5.7-5.315,0-8.55-3.235-8.55-9.012V47.323c0-11.554,17.254-10.168,17.254-18.333,0-1.771-.539-3.235-2.542-3.235S50.25,27.219,50.25,28.99v4.853H38.08V29.761c0-8.859,7.395-12.016,14.712-12.016S67.5,20.9,67.5,29.761V62.343H55.334ZM50.25,51.02a2.162,2.162,0,0,0,2.234,2.311c2.542,0,2.85-1.695,2.85-5.623V40.082c-2.388,1.695-5.084,2.7-5.084,6.162Z"/>
      <path id="路径_2713" data-name="路径 2713" d="M84.99,24.061h.23c1.618-3.851,4.314-6.316,8.782-6.316,6.162,0,8.242,4.083,8.242,8.627V42.085H90.073V31.378c0-1.771-.539-3.62-2.542-3.62s-2.541,1.849-2.541,3.62V62.343H72.819V18.284H84.99Z"/>
      <path id="路径_2714" data-name="路径 2714" d="M119.729,23.753h.153c1.156-3.851,4.083-6.008,8.859-6.008,5.468,0,8.241,3.774,8.241,10.091V62.343H124.813V31.764c0-1.926-.155-4.006-2.466-4.006s-2.618,2.08-2.618,4.006V62.343H107.558V18.284h12.171Z"/>
      <path id="路径_2715" data-name="路径 2715" d="M162.094,62.343V7.5h15.637c10.167,0,16.714,2.311,16.714,11.785V29.3c0,8.241-7.317,11.862-14.866,11.862h-4.7V62.343ZM174.881,33.3h2c4.468,0,4.775-2.465,4.775-8.935s-.307-9.012-4.775-9.012h-2Z"/>
      <path id="路径_2716" data-name="路径 2716" d="M217.014,56.874h-.154c-1.156,3.851-4.082,6.008-8.858,6.008-5.468,0-8.242-3.775-8.242-10.091V18.284h12.17V48.863c0,1.926.154,4.006,2.465,4.006s2.619-2.08,2.619-4.006V18.284h12.17V62.343h-12.17Z"/>
      <path id="路径_2717" data-name="路径 2717" d="M233.035,62.343V54.332l11.322-28.037H233.035V18.284h24.8v6.778l-11.784,29.27h12.169v8.011Z"/>
      <path id="路径_2718" data-name="路径 2718" d="M260.61,62.343V54.332l11.322-28.037H260.61V18.284h24.8v6.778l-11.785,29.27H285.8v8.011Z"/>
      <rect id="矩形_709" data-name="矩形 709" width="12.17" height="54.843" transform="translate(289.726 7.5)"/>
      <path id="路径_2719" data-name="路径 2719" d="M319.459,41.7v8.935c0,2.62.924,4.237,2.541,4.237,1.926,0,2.542-1.617,2.542-4.237v-5.7h12.171V51.4c0,8.318-6.162,11.477-14.713,11.477-7.779,0-14.712-3.543-14.712-11.708V30.145c0-7.933,5.238-12.4,14.712-12.4,7.78,0,14.713,2.927,14.713,12.4V41.7Zm5.083-7.317V28.374a2.543,2.543,0,1,0-5.083,0v6.008Z"/>
      <path id="路径_2720" data-name="路径 2720" d="M359.281,33.843V29.068c0-1.849-.616-3.312-2.542-3.312s-2.542,1.463-2.542,3.312c0,7.548,17.023,6.162,17.023,20.489,0,8.7-5.238,13.325-15.4,13.325-7.78,0-13.788-3-13.788-10.937v-7.01H354.2v6.624c0,1.849.617,3.312,2.542,3.312s2.542-1.463,2.542-3.312c0-10.475-17.254-7.24-17.254-21.567,0-8.781,6.239-12.247,14.25-12.247,9.243,0,15.174,3.62,15.174,11.015v5.083Z"/>
      <path id="路径_2721" data-name="路径 2721" d="M145.608,85.819V77.5h30.657v8.319H167.33v46.524H154.544V85.819Z"/>
      <path id="路径_2722" data-name="路径 2722" d="M203.3,121.174c0,8.165-6.933,11.708-14.713,11.708s-14.712-3.543-14.712-11.708V100.145c0-7.933,5.238-12.4,14.712-12.4s14.713,4.467,14.713,12.4Zm-17.254.616c0,1.618.615,3.081,2.541,3.081s2.542-1.463,2.542-3.081V98.836c0-1.617-.616-3.081-2.542-3.081s-2.541,1.464-2.541,3.081Z"/>
      <path id="路径_2723" data-name="路径 2723" d="M247.979,97.142v-7.7c0-2.695-.849-4.236-3.391-4.236-2.772,0-3.389,1.541-3.389,4.236,0,9.244,19.565,11.939,19.565,28.886,0,10.321-5.546,15.1-16.253,15.1-8.165,0-16.1-2.772-16.1-12.247V111.007H241.2v9.474c0,3.235,1,4.16,3.389,4.16,2.08,0,3.391-.925,3.391-4.16,0-12.4-19.566-12.632-19.566-30.348,0-9.937,6.547-13.711,16.407-13.711,8.627,0,15.944,2.927,15.944,12.093v8.627Z"/>
      <path id="路径_2724" data-name="路径 2724" d="M283.333,127.182h-.153c-1.464,3.158-3.7,5.7-8.551,5.7-5.315,0-8.55-3.235-8.55-9.012v-6.547c0-11.554,17.254-10.168,17.254-18.333,0-1.771-.539-3.235-2.542-3.235s-2.541,1.464-2.541,3.235v4.853H266.079V99.761c0-8.859,7.395-12.016,14.712-12.016S295.5,90.9,295.5,99.761v32.582H283.333Zm-5.083-6.162a2.161,2.161,0,0,0,2.233,2.311c2.542,0,2.85-1.695,2.85-5.623v-7.626c-2.388,1.695-5.083,2.7-5.083,6.162Z"/>
      <path id="路径_2725" data-name="路径 2725" d="M299.972,88.284H312.3l4.082,34.2h.155l4.082-34.2H331.09l-7.933,44.059H308.368Z"/>
      <path id="路径_2726" data-name="路径 2726" d="M347.728,111.7v8.935c0,2.62.924,4.237,2.541,4.237,1.926,0,2.542-1.617,2.542-4.237v-5.7h12.171V121.4c0,8.318-6.162,11.477-14.713,11.477-7.779,0-14.712-3.543-14.712-11.708V100.145c0-7.933,5.238-12.4,14.712-12.4,7.78,0,14.713,2.927,14.713,12.4V111.7Zm5.083-7.317V98.374a2.543,2.543,0,1,0-5.083,0v6.008Z"/>
      <path id="路径_2727" data-name="路径 2727" d="M400.261,132.343H390.016V77.5h18.8l5.391,38.976h.155L419.748,77.5h18.409v54.843H426.6V85.511h-.155l-7.394,46.832H407.809l-7.395-46.832h-.153Z"/>
      <path id="路径_2728" data-name="路径 2728" d="M472.82,121.174c0,8.165-6.933,11.708-14.713,11.708s-14.712-3.543-14.712-11.708V100.145c0-7.933,5.238-12.4,14.712-12.4s14.713,4.467,14.713,12.4Zm-17.254.616c0,1.618.615,3.081,2.541,3.081s2.542-1.463,2.542-3.081V98.836c0-1.617-.616-3.081-2.542-3.081s-2.541,1.464-2.541,3.081Z"/>
      <path id="路径_2729" data-name="路径 2729" d="M490.3,94.061h.231c1.619-3.851,4.314-6.316,8.782-6.316,6.162,0,8.241,4.083,8.241,8.627v15.713h-12.17V101.378c0-1.771-.539-3.62-2.542-3.62s-2.542,1.849-2.542,3.62v30.965h-12.17V88.284H490.3Z"/>
      <path id="路径_2730" data-name="路径 2730" d="M525.045,111.7v8.935c0,2.62.924,4.237,2.541,4.237,1.926,0,2.542-1.617,2.542-4.237v-5.7H542.3V121.4c0,8.318-6.162,11.477-14.713,11.477-7.779,0-14.712-3.543-14.712-11.708V100.145c0-7.933,5.238-12.4,14.712-12.4,7.78,0,14.713,2.927,14.713,12.4V111.7Zm5.083-7.317V98.374a2.543,2.543,0,1,0-5.083,0v6.008Z"/>
      <path id="路径_2731" data-name="路径 2731" d="M.5,55.343V.5H27V8.819H13.287V20.835H26.535v8.319H13.287v17.87H27v8.319Z" fill="#f0f"/>
      <path id="路径_2732" data-name="路径 2732" d="M.5,55.343V.5H27V8.819H13.287V20.835H26.535v8.319H13.287v17.87H27v8.319Z" fill="none" stroke="#000" stroke-miterlimit="10" stroke-width="1"/>
      <path id="路径_2733" data-name="路径 2733" d="M48.334,50.182H48.18c-1.463,3.158-3.7,5.7-8.55,5.7-5.315,0-8.55-3.235-8.55-9.012V40.323c0-11.554,17.254-10.168,17.254-18.333,0-1.771-.539-3.235-2.542-3.235S43.25,20.219,43.25,21.99v4.853H31.08V22.761c0-8.859,7.395-12.016,14.712-12.016S60.5,13.9,60.5,22.761V55.343H48.334ZM43.25,44.02a2.162,2.162,0,0,0,2.234,2.311c2.542,0,2.85-1.695,2.85-5.623V33.082c-2.388,1.695-5.084,2.7-5.084,6.162Z" fill="#f0f"/>
      <path id="路径_2734" data-name="路径 2734" d="M48.334,50.182H48.18c-1.463,3.158-3.7,5.7-8.55,5.7-5.315,0-8.55-3.235-8.55-9.012V40.323c0-11.554,17.254-10.168,17.254-18.333,0-1.771-.539-3.235-2.542-3.235S43.25,20.219,43.25,21.99v4.853H31.08V22.761c0-8.859,7.395-12.016,14.712-12.016S60.5,13.9,60.5,22.761V55.343H48.334ZM43.25,44.02a2.162,2.162,0,0,0,2.234,2.311c2.542,0,2.85-1.695,2.85-5.623V33.082c-2.388,1.695-5.084,2.7-5.084,6.162Z" fill="none" stroke="#000" stroke-miterlimit="10" stroke-width="1"/>
      <path id="路径_2735" data-name="路径 2735" d="M77.99,17.061h.23c1.618-3.851,4.314-6.316,8.782-6.316,6.162,0,8.242,4.083,8.242,8.627V35.085H83.073V24.378c0-1.771-.539-3.62-2.542-3.62s-2.541,1.849-2.541,3.62V55.343H65.819V11.284H77.99Z" fill="#f0f"/>
      <path id="路径_2736" data-name="路径 2736" d="M77.99,17.061h.23c1.618-3.851,4.314-6.316,8.782-6.316,6.162,0,8.242,4.083,8.242,8.627V35.085H83.073V24.378c0-1.771-.539-3.62-2.542-3.62s-2.541,1.849-2.541,3.62V55.343H65.819V11.284H77.99Z" fill="none" stroke="#000" stroke-miterlimit="10" stroke-width="1"/>
      <path id="路径_2737" data-name="路径 2737" d="M112.729,16.753h.153c1.156-3.851,4.083-6.008,8.859-6.008,5.468,0,8.241,3.774,8.241,10.091V55.343H117.813V24.764c0-1.926-.155-4.006-2.466-4.006s-2.618,2.08-2.618,4.006V55.343H100.558V11.284h12.171Z" fill="#f0f"/>
      <path id="路径_2738" data-name="路径 2738" d="M112.729,16.753h.153c1.156-3.851,4.083-6.008,8.859-6.008,5.468,0,8.241,3.774,8.241,10.091V55.343H117.813V24.764c0-1.926-.155-4.006-2.466-4.006s-2.618,2.08-2.618,4.006V55.343H100.558V11.284h12.171Z" fill="none" stroke="#000" stroke-miterlimit="10" stroke-width="1"/>
      <path id="路径_2739" data-name="路径 2739" d="M155.094,55.343V.5h15.637c10.167,0,16.714,2.311,16.714,11.785V22.3c0,8.241-7.317,11.862-14.866,11.862h-4.7V55.343ZM167.881,26.3h2c4.468,0,4.775-2.465,4.775-8.935s-.307-9.012-4.775-9.012h-2Z" fill="#f0f"/>
      <path id="路径_2740" data-name="路径 2740" d="M155.094,55.343V.5h15.637c10.167,0,16.714,2.311,16.714,11.785V22.3c0,8.241-7.317,11.862-14.866,11.862h-4.7V55.343ZM167.881,26.3h2c4.468,0,4.775-2.465,4.775-8.935s-.307-9.012-4.775-9.012h-2Z" fill="none" stroke="#000" stroke-miterlimit="10" stroke-width="1"/>
      <path id="路径_2741" data-name="路径 2741" d="M210.014,49.874h-.154c-1.156,3.851-4.082,6.008-8.858,6.008-5.468,0-8.242-3.775-8.242-10.091V11.284h12.17V41.863c0,1.926.154,4.006,2.465,4.006s2.619-2.08,2.619-4.006V11.284h12.17V55.343h-12.17Z" fill="#f0f"/>
      <path id="路径_2742" data-name="路径 2742" d="M210.014,49.874h-.154c-1.156,3.851-4.082,6.008-8.858,6.008-5.468,0-8.242-3.775-8.242-10.091V11.284h12.17V41.863c0,1.926.154,4.006,2.465,4.006s2.619-2.08,2.619-4.006V11.284h12.17V55.343h-12.17Z" fill="none" stroke="#000" stroke-miterlimit="10" stroke-width="1"/>
      <path id="路径_2743" data-name="路径 2743" d="M226.035,55.343V47.332l11.322-28.037H226.035V11.284h24.8v6.778l-11.784,29.27h12.169v8.011Z" fill="#f0f"/>
      <path id="路径_2744" data-name="路径 2744" d="M226.035,55.343V47.332l11.322-28.037H226.035V11.284h24.8v6.778l-11.784,29.27h12.169v8.011Z" fill="none" stroke="#000" stroke-miterlimit="10" stroke-width="1"/>
      <path id="路径_2745" data-name="路径 2745" d="M253.61,55.343V47.332l11.322-28.037H253.61V11.284h24.8v6.778l-11.785,29.27H278.8v8.011Z" fill="#f0f"/>
      <path id="路径_2746" data-name="路径 2746" d="M253.61,55.343V47.332l11.322-28.037H253.61V11.284h24.8v6.778l-11.785,29.27H278.8v8.011Z" fill="none" stroke="#000" stroke-miterlimit="10" stroke-width="1"/>
      <rect id="矩形_710" data-name="矩形 710" width="12.17" height="54.843" transform="translate(282.726 0.5)" fill="#f0f"/>
      <rect id="矩形_711" data-name="矩形 711" width="12.17" height="54.843" transform="translate(282.726 0.5)" fill="none" stroke="#000" stroke-miterlimit="10" stroke-width="1"/>
      <path id="路径_2747" data-name="路径 2747" d="M312.459,34.7v8.935c0,2.62.924,4.237,2.541,4.237,1.926,0,2.542-1.617,2.542-4.237v-5.7h12.171V44.4c0,8.318-6.162,11.477-14.713,11.477-7.779,0-14.712-3.543-14.712-11.708V23.145c0-7.933,5.238-12.4,14.712-12.4,7.78,0,14.713,2.927,14.713,12.4V34.7Zm5.083-7.317V21.374a2.543,2.543,0,1,0-5.083,0v6.008Z" fill="#f0f"/>
      <path id="路径_2748" data-name="路径 2748" d="M312.459,34.7v8.935c0,2.62.924,4.237,2.541,4.237,1.926,0,2.542-1.617,2.542-4.237v-5.7h12.171V44.4c0,8.318-6.162,11.477-14.713,11.477-7.779,0-14.712-3.543-14.712-11.708V23.145c0-7.933,5.238-12.4,14.712-12.4,7.78,0,14.713,2.927,14.713,12.4V34.7Zm5.083-7.317V21.374a2.543,2.543,0,1,0-5.083,0v6.008Z" fill="none" stroke="#000" stroke-miterlimit="10" stroke-width="1"/>
      <path id="路径_2749" data-name="路径 2749" d="M352.281,26.843V22.068c0-1.849-.616-3.312-2.542-3.312s-2.542,1.463-2.542,3.312c0,7.548,17.023,6.162,17.023,20.489,0,8.7-5.238,13.325-15.4,13.325-7.78,0-13.788-3-13.788-10.937v-7.01H347.2v6.624c0,1.849.617,3.312,2.542,3.312s2.542-1.463,2.542-3.312c0-10.475-17.254-7.24-17.254-21.567,0-8.781,6.239-12.247,14.25-12.247,9.243,0,15.174,3.62,15.174,11.015v5.083Z" fill="#f0f"/>
      <path id="路径_2750" data-name="路径 2750" d="M352.281,26.843V22.068c0-1.849-.616-3.312-2.542-3.312s-2.542,1.463-2.542,3.312c0,7.548,17.023,6.162,17.023,20.489,0,8.7-5.238,13.325-15.4,13.325-7.78,0-13.788-3-13.788-10.937v-7.01H347.2v6.624c0,1.849.617,3.312,2.542,3.312s2.542-1.463,2.542-3.312c0-10.475-17.254-7.24-17.254-21.567,0-8.781,6.239-12.247,14.25-12.247,9.243,0,15.174,3.62,15.174,11.015v5.083Z" fill="none" stroke="#000" stroke-miterlimit="10" stroke-width="1"/>
      <path id="路径_2751" data-name="路径 2751" d="M138.608,78.819V70.5h30.657v8.319H160.33v46.524H147.544V78.819Z" fill="#f0f"/>
      <path id="路径_2752" data-name="路径 2752" d="M138.608,78.819V70.5h30.657v8.319H160.33v46.524H147.544V78.819Z" fill="none" stroke="#000" stroke-miterlimit="10" stroke-width="1"/>
      <path id="路径_2753" data-name="路径 2753" d="M196.3,114.174c0,8.165-6.933,11.708-14.713,11.708s-14.712-3.543-14.712-11.708V93.145c0-7.933,5.238-12.4,14.712-12.4s14.713,4.467,14.713,12.4Zm-17.254.616c0,1.618.615,3.081,2.541,3.081s2.542-1.463,2.542-3.081V91.836c0-1.617-.616-3.081-2.542-3.081s-2.541,1.464-2.541,3.081Z" fill="#f0f"/>
      <path id="路径_2754" data-name="路径 2754" d="M196.3,114.174c0,8.165-6.933,11.708-14.713,11.708s-14.712-3.543-14.712-11.708V93.145c0-7.933,5.238-12.4,14.712-12.4s14.713,4.467,14.713,12.4Zm-17.254.616c0,1.618.615,3.081,2.541,3.081s2.542-1.463,2.542-3.081V91.836c0-1.617-.616-3.081-2.542-3.081s-2.541,1.464-2.541,3.081Z" fill="none" stroke="#000" stroke-miterlimit="10" stroke-width="1"/>
      <path id="路径_2755" data-name="路径 2755" d="M240.979,90.142v-7.7c0-2.695-.849-4.236-3.391-4.236-2.772,0-3.389,1.541-3.389,4.236,0,9.244,19.565,11.939,19.565,28.886,0,10.321-5.546,15.1-16.253,15.1-8.165,0-16.1-2.772-16.1-12.247V104.007H234.2v9.474c0,3.235,1,4.16,3.389,4.16,2.08,0,3.391-.925,3.391-4.16,0-12.4-19.566-12.632-19.566-30.348,0-9.937,6.547-13.711,16.407-13.711,8.627,0,15.944,2.927,15.944,12.093v8.627Z" fill="#f0f"/>
      <path id="路径_2756" data-name="路径 2756" d="M240.979,90.142v-7.7c0-2.695-.849-4.236-3.391-4.236-2.772,0-3.389,1.541-3.389,4.236,0,9.244,19.565,11.939,19.565,28.886,0,10.321-5.546,15.1-16.253,15.1-8.165,0-16.1-2.772-16.1-12.247V104.007H234.2v9.474c0,3.235,1,4.16,3.389,4.16,2.08,0,3.391-.925,3.391-4.16,0-12.4-19.566-12.632-19.566-30.348,0-9.937,6.547-13.711,16.407-13.711,8.627,0,15.944,2.927,15.944,12.093v8.627Z" fill="none" stroke="#000" stroke-miterlimit="10" stroke-width="1"/>
      <path id="路径_2757" data-name="路径 2757" d="M276.333,120.182h-.153c-1.464,3.158-3.7,5.7-8.551,5.7-5.315,0-8.55-3.235-8.55-9.012v-6.547c0-11.554,17.254-10.168,17.254-18.333,0-1.771-.539-3.235-2.542-3.235s-2.541,1.464-2.541,3.235v4.853H259.079V92.761c0-8.859,7.395-12.016,14.712-12.016S288.5,83.9,288.5,92.761v32.582H276.333Zm-5.083-6.162a2.161,2.161,0,0,0,2.233,2.311c2.542,0,2.85-1.695,2.85-5.623v-7.626c-2.388,1.695-5.083,2.7-5.083,6.162Z" fill="#f0f"/>
      <path id="路径_2758" data-name="路径 2758" d="M276.333,120.182h-.153c-1.464,3.158-3.7,5.7-8.551,5.7-5.315,0-8.55-3.235-8.55-9.012v-6.547c0-11.554,17.254-10.168,17.254-18.333,0-1.771-.539-3.235-2.542-3.235s-2.541,1.464-2.541,3.235v4.853H259.079V92.761c0-8.859,7.395-12.016,14.712-12.016S288.5,83.9,288.5,92.761v32.582H276.333Zm-5.083-6.162a2.161,2.161,0,0,0,2.233,2.311c2.542,0,2.85-1.695,2.85-5.623v-7.626c-2.388,1.695-5.083,2.7-5.083,6.162Z" fill="none" stroke="#000" stroke-miterlimit="10" stroke-width="1"/>
      <path id="路径_2759" data-name="路径 2759" d="M292.972,81.284H305.3l4.082,34.2h.155l4.082-34.2H324.09l-7.933,44.059H301.368Z" fill="#f0f"/>
      <path id="路径_2760" data-name="路径 2760" d="M292.972,81.284H305.3l4.082,34.2h.155l4.082-34.2H324.09l-7.933,44.059H301.368Z" fill="none" stroke="#000" stroke-miterlimit="10" stroke-width="1"/>
      <path id="路径_2761" data-name="路径 2761" d="M340.728,104.7v8.935c0,2.62.924,4.237,2.541,4.237,1.926,0,2.542-1.617,2.542-4.237v-5.7h12.171V114.4c0,8.318-6.162,11.477-14.713,11.477-7.779,0-14.712-3.543-14.712-11.708V93.145c0-7.933,5.238-12.4,14.712-12.4,7.78,0,14.713,2.927,14.713,12.4V104.7Zm5.083-7.317V91.374a2.543,2.543,0,1,0-5.083,0v6.008Z" fill="#f0f"/>
      <path id="路径_2762" data-name="路径 2762" d="M340.728,104.7v8.935c0,2.62.924,4.237,2.541,4.237,1.926,0,2.542-1.617,2.542-4.237v-5.7h12.171V114.4c0,8.318-6.162,11.477-14.713,11.477-7.779,0-14.712-3.543-14.712-11.708V93.145c0-7.933,5.238-12.4,14.712-12.4,7.78,0,14.713,2.927,14.713,12.4V104.7Zm5.083-7.317V91.374a2.543,2.543,0,1,0-5.083,0v6.008Z" fill="none" stroke="#000" stroke-miterlimit="10" stroke-width="1"/>
      <path id="路径_2763" data-name="路径 2763" d="M393.261,125.343H383.016V70.5h18.8l5.391,38.976h.155L412.748,70.5h18.409v54.843H419.6V78.511h-.155l-7.394,46.832H400.809l-7.395-46.832h-.153Z" fill="#f0f"/>
      <path id="路径_2764" data-name="路径 2764" d="M393.261,125.343H383.016V70.5h18.8l5.391,38.976h.155L412.748,70.5h18.409v54.843H419.6V78.511h-.155l-7.394,46.832H400.809l-7.395-46.832h-.153Z" fill="none" stroke="#000" stroke-miterlimit="10" stroke-width="1"/>
      <path id="路径_2765" data-name="路径 2765" d="M465.82,114.174c0,8.165-6.933,11.708-14.713,11.708s-14.712-3.543-14.712-11.708V93.145c0-7.933,5.238-12.4,14.712-12.4s14.713,4.467,14.713,12.4Zm-17.254.616c0,1.618.615,3.081,2.541,3.081s2.542-1.463,2.542-3.081V91.836c0-1.617-.616-3.081-2.542-3.081s-2.541,1.464-2.541,3.081Z" fill="#f0f"/>
      <path id="路径_2766" data-name="路径 2766" d="M465.82,114.174c0,8.165-6.933,11.708-14.713,11.708s-14.712-3.543-14.712-11.708V93.145c0-7.933,5.238-12.4,14.712-12.4s14.713,4.467,14.713,12.4Zm-17.254.616c0,1.618.615,3.081,2.541,3.081s2.542-1.463,2.542-3.081V91.836c0-1.617-.616-3.081-2.542-3.081s-2.541,1.464-2.541,3.081Z" fill="none" stroke="#000" stroke-miterlimit="10" stroke-width="1"/>
      <path id="路径_2767" data-name="路径 2767" d="M483.3,87.061h.231c1.619-3.851,4.314-6.316,8.782-6.316,6.162,0,8.241,4.083,8.241,8.627v15.713h-12.17V94.378c0-1.771-.539-3.62-2.542-3.62s-2.542,1.849-2.542,3.62v30.965h-12.17V81.284H483.3Z" fill="#f0f"/>
      <path id="路径_2768" data-name="路径 2768" d="M483.3,87.061h.231c1.619-3.851,4.314-6.316,8.782-6.316,6.162,0,8.241,4.083,8.241,8.627v15.713h-12.17V94.378c0-1.771-.539-3.62-2.542-3.62s-2.542,1.849-2.542,3.62v30.965h-12.17V81.284H483.3Z" fill="none" stroke="#000" stroke-miterlimit="10" stroke-width="1"/>
      <path id="路径_2769" data-name="路径 2769" d="M518.045,104.7v8.935c0,2.62.924,4.237,2.541,4.237,1.926,0,2.542-1.617,2.542-4.237v-5.7H535.3V114.4c0,8.318-6.162,11.477-14.713,11.477-7.779,0-14.712-3.543-14.712-11.708V93.145c0-7.933,5.238-12.4,14.712-12.4,7.78,0,14.713,2.927,14.713,12.4V104.7Zm5.083-7.317V91.374a2.543,2.543,0,1,0-5.083,0v6.008Z" fill="#f0f"/>
      <path id="路径_2770" data-name="路径 2770" d="M518.045,104.7v8.935c0,2.62.924,4.237,2.541,4.237,1.926,0,2.542-1.617,2.542-4.237v-5.7H535.3V114.4c0,8.318-6.162,11.477-14.713,11.477-7.779,0-14.712-3.543-14.712-11.708V93.145c0-7.933,5.238-12.4,14.712-12.4,7.78,0,14.713,2.927,14.713,12.4V104.7Zm5.083-7.317V91.374a2.543,2.543,0,1,0-5.083,0v6.008Z" fill="none" stroke="#000" stroke-miterlimit="10" stroke-width="1"/>
    </g>
  </g>
</svg>
