<svg xmlns="http://www.w3.org/2000/svg" xmlns:xlink="http://www.w3.org/1999/xlink" width="698.729" height="126.161" viewBox="0 0 698.729 126.161">
  <defs>
    <clipPath id="clip-path">
      <rect id="矩形_774" data-name="矩形 774" width="698.73" height="126.16" fill="none"/>
    </clipPath>
  </defs>
  <g id="组_1562" data-name="组 1562" transform="translate(0 0.001)">
    <rect id="矩形_770" data-name="矩形 770" width="653.324" height="81.999" transform="translate(27.964 26.014)"/>
    <rect id="矩形_771" data-name="矩形 771" width="687.36" height="81.999" transform="translate(8 44.273) rotate(-3.025)"/>
    <rect id="矩形_772" data-name="矩形 772" width="653.324" height="81.999" transform="translate(19.964 18.014)" fill="#ff4e36"/>
    <rect id="矩形_773" data-name="矩形 773" width="687.36" height="82" transform="translate(0 36.275) rotate(-3.025)" fill="#ff4e36"/>
    <g id="组_1561" data-name="组 1561">
      <g id="组_1560" data-name="组 1560" clip-path="url(#clip-path)">
        <path id="路径_2920" data-name="路径 2920" d="M192.524,54.144V48.1h2.035V45.945a5.785,5.785,0,0,1,5.932-5.99h5.873V46c-2.268,0-2.617.756-2.617,2.093h2.617v6.048h-2.617V81.359h-9.188V54.144Z" fill="#fff"/>
        <path id="路径_2921" data-name="路径 2921" d="M217.643,65.774V72.52c0,1.977.7,3.2,1.919,3.2,1.454,0,1.92-1.221,1.92-3.2v-4.3h9.188V73.1c0,6.28-4.653,8.664-11.108,8.664-5.873,0-11.106-2.675-11.106-8.839V57.052c0-5.99,3.954-9.363,11.106-9.363,5.874,0,11.108,2.21,11.108,9.363v8.722Zm3.839-5.524V55.714a1.92,1.92,0,1,0-3.839,0V60.25Z" fill="#fff"/>
        <path id="路径_2922" data-name="路径 2922" d="M246.252,77.463h-.117c-1.1,2.385-2.791,4.3-6.454,4.3-4.013,0-6.456-2.443-6.456-6.8V70.02c0-8.723,13.027-7.676,13.027-13.84,0-1.338-.407-2.443-1.92-2.443s-1.919,1.1-1.919,2.443v3.663h-9.188V56.761c0-6.687,5.584-9.071,11.107-9.071s11.107,2.384,11.107,9.071v24.6h-9.187Zm-3.839-4.652a1.632,1.632,0,0,0,1.687,1.745c1.918,0,2.152-1.28,2.152-4.245V64.554c-1.8,1.279-3.839,2.035-3.839,4.652Z" fill="#fff"/>
        <path id="路径_2923" data-name="路径 2923" d="M257.182,54.144V48.1h3.082V42.107h9.189V48.1h4.012v6.048h-4.012V72.287c0,1.978.057,3.024,2.209,3.024h1.8v6.048h-7.5c-4.594,0-5.7-2.559-5.7-6.92v-20.3Z" fill="#fff"/>
        <path id="路径_2924" data-name="路径 2924" d="M288.234,77.23h-.117c-.872,2.908-3.082,4.536-6.687,4.536-4.129,0-6.222-2.849-6.222-7.618V48.1h9.187V71.183c0,1.453.117,3.023,1.861,3.023s1.978-1.57,1.978-3.023V48.1h9.188V81.359h-9.188Z" fill="#fff"/>
        <path id="路径_2925" data-name="路径 2925" d="M309.165,52.458h.175c1.221-2.907,3.257-4.768,6.629-4.768,4.652,0,6.222,3.082,6.222,6.513V66.065H313V57.982c0-1.337-.407-2.732-1.92-2.732s-1.919,1.4-1.919,2.732V81.359h-9.188V48.1h9.188Z" fill="#fff"/>
        <path id="路径_2926" data-name="路径 2926" d="M333.936,65.774V72.52c0,1.977.7,3.2,1.919,3.2,1.454,0,1.92-1.221,1.92-3.2v-4.3h9.188V73.1c0,6.28-4.653,8.664-11.108,8.664-5.873,0-11.106-2.675-11.106-8.839V57.052c0-5.99,3.954-9.363,11.106-9.363,5.874,0,11.108,2.21,11.108,9.363v8.722Zm3.839-5.524V55.714a1.92,1.92,0,1,0-3.839,0V60.25Z" fill="#fff"/>
        <path id="路径_2927" data-name="路径 2927" d="M376.035,56.063c0-1.221-.466-2.326-1.92-2.326s-1.919,1.1-1.919,2.326V73.392c0,1.221.466,2.326,1.919,2.326s1.92-1.105,1.92-2.326V68.217h9.188V73.1c0,6.28-4.653,8.664-11.166,8.664-6.862,0-11.048-2.849-11.048-9.246V56.994c0-5.467,4.07-9.305,11.048-9.305,5.932,0,11.166,2.21,11.166,9.363v2.791h-9.188Z" fill="#fff"/>
        <path id="路径_2928" data-name="路径 2928" d="M409.992,72.927c0,6.164-5.233,8.839-11.107,8.839s-11.107-2.675-11.107-8.839V57.052c0-5.99,3.955-9.363,11.107-9.363s11.107,3.373,11.107,9.363Zm-13.026.465c0,1.221.466,2.326,1.919,2.326s1.92-1.105,1.92-2.326V56.063c0-1.221-.466-2.326-1.92-2.326s-1.919,1.1-1.919,2.326Z" fill="#fff"/>
        <path id="路径_2929" data-name="路径 2929" d="M425.576,77.23h-.117c-.872,2.908-3.082,4.536-6.687,4.536-4.129,0-6.222-2.849-6.222-7.618V48.1h9.187V71.183c0,1.453.117,3.023,1.861,3.023s1.978-1.57,1.978-3.023V48.1h9.188V81.359h-9.188Z" fill="#fff"/>
        <path id="路径_2930" data-name="路径 2930" d="M446.507,52.458h.175c1.221-2.907,3.257-4.768,6.629-4.768,4.652,0,6.222,3.082,6.222,6.513V66.065h-9.187V57.982c0-1.337-.407-2.732-1.92-2.732s-1.919,1.4-1.919,2.732V81.359h-9.188V48.1h9.188Z" fill="#fff"/>
        <path id="路径_2931" data-name="路径 2931" d="M475.117,59.843v-3.6c0-1.4-.466-2.5-1.92-2.5s-1.919,1.1-1.919,2.5c0,5.7,12.852,4.652,12.852,15.468,0,6.571-3.954,10.06-11.63,10.06-5.873,0-10.409-2.268-10.409-8.257V68.217h9.187v5c0,1.4.466,2.5,1.919,2.5s1.92-1.1,1.92-2.5c0-7.909-13.026-5.466-13.026-16.282,0-6.63,4.71-9.246,10.757-9.246,6.979,0,11.457,2.733,11.457,8.315v3.838Z" fill="#fff"/>
        <path id="路径_2932" data-name="路径 2932" d="M496.048,65.774V72.52c0,1.977.7,3.2,1.919,3.2,1.454,0,1.92-1.221,1.92-3.2v-4.3h9.188V73.1c0,6.28-4.653,8.664-11.108,8.664-5.873,0-11.106-2.675-11.106-8.839V57.052c0-5.99,3.954-9.363,11.106-9.363,5.874,0,11.108,2.21,11.108,9.363v8.722Zm3.839-5.524V55.714a1.92,1.92,0,1,0-3.839,0V60.25Z" fill="#fff"/>
      </g>
    </g>
  </g>
</svg>
