<svg xmlns="http://www.w3.org/2000/svg" width="587.555" height="72.78" viewBox="0 0 587.555 72.78">
  <g id="组_1365" data-name="组 1365" transform="translate(525.454 -719.529)">
    <g id="组_1362" data-name="组 1362">
      <g id="组_1361" data-name="组 1361">
        <path id="路径_2391" data-name="路径 2391" d="M-494.768,779.177a10.685,10.685,0,0,1-5.237,3.081,19.424,19.424,0,0,1-5.854.771c-8.4,0-13.095-3.466-13.095-16.022V742.05c0-12.555,7.7-16.021,16.176-16.021,10.321,0,16.1,4.16,16.253,14.943l-.077,5.777H-499.39v-7.625c0-2.234-.692-4.314-3.388-4.314s-3.389,2.08-3.389,4.314v30.81c0,2.234.615,4.314,3.389,4.314,2.7,0,3.388-2.08,3.388-4.314v-7.317h-4.852V754.3h17.64V781.95h-7.472Z" stroke="#000" stroke-miterlimit="10" stroke-width="1"/>
        <path id="路径_2392" data-name="路径 2392" d="M-465.96,776.79h-.154c-1.463,3.158-3.7,5.7-8.55,5.7-5.314,0-8.55-3.234-8.55-9.012V766.93c0-11.554,17.254-10.167,17.254-18.332,0-1.772-.539-3.235-2.542-3.235s-2.542,1.463-2.542,3.235v4.853h-12.17v-4.083c0-8.858,7.395-12.016,14.712-12.016s14.712,3.158,14.712,12.016V781.95h-12.17Zm-5.084-6.162a2.161,2.161,0,0,0,2.234,2.31c2.542,0,2.85-1.694,2.85-5.623V759.69c-2.388,1.694-5.084,2.7-5.084,6.162Z" stroke="#000" stroke-miterlimit="10" stroke-width="1"/>
        <path id="路径_2393" data-name="路径 2393" d="M-438.538,743.745h.154a8.914,8.914,0,0,1,3-4.7,8.432,8.432,0,0,1,5.469-1.7c4.391,0,7.086,2.157,7.934,6.393h.154a7.65,7.65,0,0,1,2.849-4.7,9.3,9.3,0,0,1,5.546-1.7c6.085,0,8.011,3.928,8.011,9.321V781.95h-11.708V751.371c0-1.926-.153-4.006-2.465-4.006s-2.387,2.08-2.387,4.006V781.95h-11.709V751.371c0-1.926-.154-4.006-2.464-4.006s-2.388,2.08-2.388,4.006V781.95h-11.708V737.891h11.708Z" stroke="#000" stroke-miterlimit="10" stroke-width="1"/>
        <path id="路径_2394" data-name="路径 2394" d="M-389.7,761.307v8.935c0,2.619.924,4.237,2.541,4.237,1.926,0,2.542-1.618,2.542-4.237v-5.7h12.171v6.469c0,8.32-6.162,11.477-14.713,11.477-7.779,0-14.712-3.543-14.712-11.708V749.754c0-7.934,5.238-12.4,14.712-12.4,7.78,0,14.713,2.927,14.713,12.4v11.553Zm5.083-7.317v-6.008a2.3,2.3,0,0,0-2.542-2.619,2.3,2.3,0,0,0-2.541,2.619v6.008Z" stroke="#000" stroke-miterlimit="10" stroke-width="1"/>
        <path id="路径_2395" data-name="路径 2395" d="M-351.651,727.108h17.715l8.166,39.9h.154v-39.9H-315.6V781.95H-332.01l-9.473-45.83h-.155v45.83h-10.013Z" stroke="#000" stroke-miterlimit="10" stroke-width="1"/>
        <path id="路径_2396" data-name="路径 2396" d="M-283.251,770.781c0,8.165-6.932,11.708-14.712,11.708s-14.712-3.543-14.712-11.708V749.754c0-7.934,5.239-12.4,14.712-12.4s14.712,4.468,14.712,12.4Zm-17.254.617c0,1.617.617,3.081,2.542,3.081s2.542-1.464,2.542-3.081V748.444c0-1.618-.616-3.081-2.542-3.081s-2.542,1.463-2.542,3.081Z" stroke="#000" stroke-miterlimit="10" stroke-width="1"/>
        <path id="路径_2397" data-name="路径 2397" d="M-281.171,737.891H-269l3.234,34.046h.155l3.851-34.046h13.48l4.082,34.046h.154l2.7-34.046h10.706l-6.315,44.059h-14.866l-4.006-35.124h-.154l-4.005,35.124h-14.4Z" stroke="#000" stroke-miterlimit="10" stroke-width="1"/>
        <path id="路径_2398" data-name="路径 2398" d="M-210.613,781.95V727.108h15.636c10.167,0,16.715,2.311,16.715,11.785v10.013c0,8.242-7.317,11.862-14.866,11.862h-4.7V781.95Zm12.786-29.039h2c4.468,0,4.776-2.465,4.776-8.935s-.308-9.011-4.776-9.011h-2Z" stroke="#000" stroke-miterlimit="10" stroke-width="1"/>
        <path id="路径_2399" data-name="路径 2399" d="M-157.619,776.79h-.153c-1.464,3.158-3.7,5.7-8.551,5.7-5.315,0-8.55-3.234-8.55-9.012V766.93c0-11.554,17.254-10.167,17.254-18.332,0-1.772-.539-3.235-2.542-3.235s-2.541,1.463-2.541,3.235v4.853h-12.171v-4.083c0-8.858,7.4-12.016,14.712-12.016s14.713,3.158,14.713,12.016V781.95h-12.171Zm-5.083-6.162a2.16,2.16,0,0,0,2.233,2.31c2.542,0,2.85-1.694,2.85-5.623V759.69c-2.388,1.694-5.083,2.7-5.083,6.162Z" stroke="#000" stroke-miterlimit="10" stroke-width="1"/>
        <path id="路径_2400" data-name="路径 2400" d="M-130.505,737.891l4.082,30.426h.154l4.083-30.426h10.244l-9.86,46.447c-1,5.007-4.544,7.472-9.859,7.472h-9.782V783.8h6.316c1.617,0,2.157-.385,2.157-1.232a9.893,9.893,0,0,0-.308-1.926l-9.551-42.75Z" stroke="#000" stroke-miterlimit="10" stroke-width="1"/>
        <path id="路径_2401" data-name="路径 2401" d="M-91.53,781.95V727.108h12.787v46.524h13.864v8.318Z" stroke="#000" stroke-miterlimit="10" stroke-width="1"/>
        <path id="路径_2402" data-name="路径 2402" d="M-45.621,776.79h-.153c-1.464,3.158-3.7,5.7-8.551,5.7-5.315,0-8.55-3.234-8.55-9.012V766.93c0-11.554,17.254-10.167,17.254-18.332,0-1.772-.539-3.235-2.542-3.235S-50.7,746.826-50.7,748.6v4.853H-62.875v-4.083c0-8.858,7.4-12.016,14.712-12.016s14.713,3.158,14.713,12.016V781.95H-45.621Zm-5.083-6.162a2.16,2.16,0,0,0,2.233,2.31c2.542,0,2.85-1.694,2.85-5.623V759.69c-2.388,1.694-5.083,2.7-5.083,6.162Z" stroke="#000" stroke-miterlimit="10" stroke-width="1"/>
        <path id="路径_2403" data-name="路径 2403" d="M-31.14,745.9v-8.011h4.082v-7.933h12.171v7.933h5.315V745.9h-5.315v24.032c0,2.619.077,4.006,2.927,4.006h2.388v8.01h-9.937c-6.085,0-7.549-3.389-7.549-9.166V745.9Z" stroke="#000" stroke-miterlimit="10" stroke-width="1"/>
        <path id="路径_2404" data-name="路径 2404" d="M4.909,761.307v8.935c0,2.619.924,4.237,2.541,4.237,1.926,0,2.542-1.618,2.542-4.237v-5.7H22.163v6.469c0,8.32-6.162,11.477-14.713,11.477-7.779,0-14.712-3.543-14.712-11.708V749.754c0-7.934,5.239-12.4,14.712-12.4,7.781,0,14.713,2.927,14.713,12.4v11.553Zm5.083-7.317v-6.008a2.3,2.3,0,0,0-2.542-2.619,2.3,2.3,0,0,0-2.541,2.619v6.008Z" stroke="#000" stroke-miterlimit="10" stroke-width="1"/>
        <path id="路径_2405" data-name="路径 2405" d="M37.722,743.668h.231c1.618-3.851,4.314-6.316,8.781-6.316,6.163,0,8.242,4.082,8.242,8.627v15.714H42.806V750.986c0-1.772-.539-3.621-2.542-3.621s-2.542,1.849-2.542,3.621V781.95H25.552V737.891h12.17Z" stroke="#000" stroke-miterlimit="10" stroke-width="1"/>
        <path id="路径_2406" data-name="路径 2406" d="M49.661,781.95V769.01H61.6v12.94Z" stroke="#000" stroke-miterlimit="10" stroke-width="1"/>
      </g>
    </g>
    <g id="组_1364" data-name="组 1364">
      <g id="组_1363" data-name="组 1363">
        <path id="路径_2407" data-name="路径 2407" d="M-500.768,773.177a10.685,10.685,0,0,1-5.237,3.081,19.424,19.424,0,0,1-5.854.771c-8.4,0-13.095-3.466-13.095-16.022V736.05c0-12.555,7.7-16.021,16.176-16.021,10.321,0,16.1,4.16,16.253,14.943l-.077,5.777H-505.39v-7.625c0-2.234-.692-4.314-3.388-4.314s-3.389,2.08-3.389,4.314v30.81c0,2.234.615,4.314,3.389,4.314,2.7,0,3.388-2.08,3.388-4.314v-7.317h-4.852V748.3h17.64V775.95h-7.472Z" fill="#f0f" stroke="#000" stroke-miterlimit="10" stroke-width="1"/>
        <path id="路径_2408" data-name="路径 2408" d="M-471.96,770.79h-.154c-1.463,3.158-3.7,5.7-8.55,5.7-5.314,0-8.55-3.234-8.55-9.012V760.93c0-11.554,17.254-10.167,17.254-18.332,0-1.772-.539-3.235-2.542-3.235s-2.542,1.463-2.542,3.235v4.853h-12.17v-4.083c0-8.858,7.395-12.016,14.712-12.016s14.712,3.158,14.712,12.016V775.95h-12.17Zm-5.084-6.162a2.161,2.161,0,0,0,2.234,2.31c2.542,0,2.85-1.694,2.85-5.623V753.69c-2.388,1.694-5.084,2.7-5.084,6.162Z" fill="#f0f" stroke="#000" stroke-miterlimit="10" stroke-width="1"/>
        <path id="路径_2409" data-name="路径 2409" d="M-444.538,737.745h.154a8.914,8.914,0,0,1,3-4.7,8.432,8.432,0,0,1,5.469-1.7c4.391,0,7.086,2.157,7.934,6.393h.154a7.65,7.65,0,0,1,2.849-4.7,9.3,9.3,0,0,1,5.546-1.7c6.085,0,8.011,3.928,8.011,9.321V775.95h-11.708V745.371c0-1.926-.153-4.006-2.465-4.006s-2.387,2.08-2.387,4.006V775.95h-11.709V745.371c0-1.926-.154-4.006-2.464-4.006s-2.388,2.08-2.388,4.006V775.95h-11.708V731.891h11.708Z" fill="#f0f" stroke="#000" stroke-miterlimit="10" stroke-width="1"/>
        <path id="路径_2410" data-name="路径 2410" d="M-395.7,755.307v8.935c0,2.619.924,4.237,2.541,4.237,1.926,0,2.542-1.618,2.542-4.237v-5.7h12.171v6.469c0,8.32-6.162,11.477-14.713,11.477-7.779,0-14.712-3.543-14.712-11.708V743.754c0-7.934,5.238-12.4,14.712-12.4,7.78,0,14.713,2.927,14.713,12.4v11.553Zm5.083-7.317v-6.008a2.3,2.3,0,0,0-2.542-2.619,2.3,2.3,0,0,0-2.541,2.619v6.008Z" fill="#f0f" stroke="#000" stroke-miterlimit="10" stroke-width="1"/>
        <path id="路径_2411" data-name="路径 2411" d="M-357.651,721.108h17.715l8.166,39.9h.154v-39.9H-321.6V775.95H-338.01l-9.473-45.83h-.155v45.83h-10.013Z" fill="#f0f" stroke="#000" stroke-miterlimit="10" stroke-width="1"/>
        <path id="路径_2412" data-name="路径 2412" d="M-289.251,764.781c0,8.165-6.932,11.708-14.712,11.708s-14.712-3.543-14.712-11.708V743.754c0-7.934,5.239-12.4,14.712-12.4s14.712,4.468,14.712,12.4Zm-17.254.617c0,1.617.617,3.081,2.542,3.081s2.542-1.464,2.542-3.081V742.444c0-1.618-.616-3.081-2.542-3.081s-2.542,1.463-2.542,3.081Z" fill="#f0f" stroke="#000" stroke-miterlimit="10" stroke-width="1"/>
        <path id="路径_2413" data-name="路径 2413" d="M-287.171,731.891H-275l3.234,34.046h.155l3.851-34.046h13.48l4.082,34.046h.154l2.7-34.046h10.706l-6.315,44.059h-14.866l-4.006-35.124h-.154l-4.005,35.124h-14.4Z" fill="#f0f" stroke="#000" stroke-miterlimit="10" stroke-width="1"/>
        <path id="路径_2414" data-name="路径 2414" d="M-216.613,775.95V721.108h15.636c10.167,0,16.715,2.311,16.715,11.785v10.013c0,8.242-7.317,11.862-14.866,11.862h-4.7V775.95Zm12.786-29.039h2c4.468,0,4.776-2.465,4.776-8.935s-.308-9.011-4.776-9.011h-2Z" fill="#f0f" stroke="#000" stroke-miterlimit="10" stroke-width="1"/>
        <path id="路径_2415" data-name="路径 2415" d="M-163.619,770.79h-.153c-1.464,3.158-3.7,5.7-8.551,5.7-5.315,0-8.55-3.234-8.55-9.012V760.93c0-11.554,17.254-10.167,17.254-18.332,0-1.772-.539-3.235-2.542-3.235s-2.541,1.463-2.541,3.235v4.853h-12.171v-4.083c0-8.858,7.4-12.016,14.712-12.016s14.713,3.158,14.713,12.016V775.95h-12.171Zm-5.083-6.162a2.16,2.16,0,0,0,2.233,2.31c2.542,0,2.85-1.694,2.85-5.623V753.69c-2.388,1.694-5.083,2.7-5.083,6.162Z" fill="#f0f" stroke="#000" stroke-miterlimit="10" stroke-width="1"/>
        <path id="路径_2416" data-name="路径 2416" d="M-136.505,731.891l4.082,30.426h.154l4.083-30.426h10.244l-9.86,46.447c-1,5.007-4.544,7.472-9.859,7.472h-9.782V777.8h6.316c1.617,0,2.157-.385,2.157-1.232a9.893,9.893,0,0,0-.308-1.926l-9.551-42.75Z" fill="#f0f" stroke="#000" stroke-miterlimit="10" stroke-width="1"/>
        <path id="路径_2417" data-name="路径 2417" d="M-97.53,775.95V721.108h12.787v46.524h13.864v8.318Z" fill="#f0f" stroke="#000" stroke-miterlimit="10" stroke-width="1"/>
        <path id="路径_2418" data-name="路径 2418" d="M-51.621,770.79h-.153c-1.464,3.158-3.7,5.7-8.551,5.7-5.315,0-8.55-3.234-8.55-9.012V760.93c0-11.554,17.254-10.167,17.254-18.332,0-1.772-.539-3.235-2.542-3.235S-56.7,740.826-56.7,742.6v4.853H-68.875v-4.083c0-8.858,7.4-12.016,14.712-12.016s14.713,3.158,14.713,12.016V775.95H-51.621Zm-5.083-6.162a2.16,2.16,0,0,0,2.233,2.31c2.542,0,2.85-1.694,2.85-5.623V753.69c-2.388,1.694-5.083,2.7-5.083,6.162Z" fill="#f0f" stroke="#000" stroke-miterlimit="10" stroke-width="1"/>
        <path id="路径_2419" data-name="路径 2419" d="M-37.14,739.9v-8.011h4.082v-7.933h12.171v7.933h5.315V739.9h-5.315v24.032c0,2.619.077,4.006,2.927,4.006h2.388v8.01h-9.937c-6.085,0-7.549-3.389-7.549-9.166V739.9Z" fill="#f0f" stroke="#000" stroke-miterlimit="10" stroke-width="1"/>
        <path id="路径_2420" data-name="路径 2420" d="M-1.091,755.307v8.935c0,2.619.924,4.237,2.541,4.237,1.926,0,2.542-1.618,2.542-4.237v-5.7H16.163v6.469c0,8.32-6.162,11.477-14.713,11.477-7.779,0-14.712-3.543-14.712-11.708V743.754c0-7.934,5.239-12.4,14.712-12.4,7.781,0,14.713,2.927,14.713,12.4v11.553Zm5.083-7.317v-6.008a2.3,2.3,0,0,0-2.542-2.619,2.3,2.3,0,0,0-2.541,2.619v6.008Z" fill="#f0f" stroke="#000" stroke-miterlimit="10" stroke-width="1"/>
        <path id="路径_2421" data-name="路径 2421" d="M31.722,737.668h.231c1.618-3.851,4.314-6.316,8.781-6.316,6.163,0,8.242,4.082,8.242,8.627v15.714H36.806V744.986c0-1.772-.539-3.621-2.542-3.621s-2.542,1.849-2.542,3.621V775.95H19.552V731.891h12.17Z" fill="#f0f" stroke="#000" stroke-miterlimit="10" stroke-width="1"/>
        <path id="路径_2422" data-name="路径 2422" d="M43.661,775.95V763.01H55.6v12.94Z" fill="#f0f" stroke="#000" stroke-miterlimit="10" stroke-width="1"/>
      </g>
    </g>
  </g>
</svg>
