<svg id="组_1565" data-name="组 1565" xmlns="http://www.w3.org/2000/svg" xmlns:xlink="http://www.w3.org/1999/xlink" width="696.73" height="124.16" viewBox="0 0 696.73 124.16">
  <defs>
    <clipPath id="clip-path">
      <rect id="矩形_780" data-name="矩形 780" width="696.73" height="124.16" fill="none"/>
    </clipPath>
  </defs>
  <rect id="矩形_775" data-name="矩形 775" width="653.324" height="81.999" transform="translate(25.964 24.014)"/>
  <rect id="矩形_776" data-name="矩形 776" width="687.36" height="81.999" transform="translate(6 42.273) rotate(-3.025)"/>
  <rect id="矩形_777" data-name="矩形 777" width="653.324" height="81.999" transform="translate(19.964 18.014)" fill="#f0f"/>
  <rect id="矩形_778" data-name="矩形 778" width="687.36" height="81.999" transform="translate(0 36.275) rotate(-3.025)" fill="#f0f"/>
  <g id="组_1564" data-name="组 1564">
    <g id="组_1563" data-name="组 1563" clip-path="url(#clip-path)">
      <path id="路径_2933" data-name="路径 2933" d="M154.292,81.36v-41.4h9.188V52.225h.117c.929-2.907,3.139-4.535,6.512-4.535,4.653,0,6.4,3.082,6.4,7.908V81.36h-9.188V58.855c0-1.8-.058-3.6-1.92-3.6s-1.918,1.8-1.918,3.6V81.36Z" fill="#fff"/>
      <path id="路径_2934" data-name="路径 2934" d="M179.121,39.955h9.188v5.873h-9.188Zm0,8.141h9.188V81.36h-9.188Z" fill="#fff"/>
      <path id="路径_2935" data-name="路径 2935" d="M213.138,78.16c0,9.246-7.268,10.643-11.339,10.643-7.037,0-10.875-3.491-10.875-7.038V78.51h9.188v2.209c0,1.164.466,2.035,1.919,2.035s1.92-.871,1.92-2.035V72.462h-.175a5.429,5.429,0,0,1-5.583,4.885c-5.407,0-7.269-3.548-7.269-8.374V55.365c0-5.291,2.85-7.676,5.99-7.676,3.721,0,5.583,1.686,6.862,4.71h.116V48.1h9.246ZM200.112,67.286c0,1.222.407,2.5,1.919,2.5s1.92-1.279,1.92-2.5V57.75c0-1.222-.407-2.5-1.92-2.5s-1.919,1.279-1.919,2.5Z" fill="#fff"/>
      <path id="路径_2936" data-name="路径 2936" d="M215.7,81.36v-41.4h9.188V52.225H225c.929-2.907,3.139-4.535,6.512-4.535,4.653,0,6.4,3.082,6.4,7.908V81.36h-9.188V58.855c0-1.8-.058-3.6-1.92-3.6s-1.918,1.8-1.918,3.6V81.36Z" fill="#fff"/>
      <rect id="矩形_779" data-name="矩形 779" width="9.188" height="41.404" transform="translate(240.524 39.955)" fill="#fff"/>
      <path id="路径_2937" data-name="路径 2937" d="M261.049,48.1l3.082,22.971h.116L267.329,48.1h7.735L267.62,83.162c-.756,3.78-3.43,5.641-7.443,5.641h-7.386V82.754h4.769c1.221,0,1.629-.29,1.629-.929a7.514,7.514,0,0,0-.234-1.455L251.745,48.1Z" fill="#fff"/>
      <path id="路径_2938" data-name="路径 2938" d="M299.774,52.457h.175c1.221-2.906,3.257-4.768,6.629-4.768,4.652,0,6.222,3.082,6.222,6.513V66.064h-9.187V57.982c0-1.338-.407-2.733-1.92-2.733s-1.919,1.4-1.919,2.733V81.359h-9.188V48.1h9.188Z" fill="#fff"/>
      <path id="路径_2939" data-name="路径 2939" d="M324.544,65.774V72.52c0,1.977.7,3.2,1.919,3.2,1.454,0,1.92-1.222,1.92-3.2v-4.3h9.188V73.1c0,6.28-4.653,8.664-11.108,8.664-5.873,0-11.106-2.675-11.106-8.839V57.052c0-5.99,3.954-9.363,11.106-9.363,5.874,0,11.108,2.209,11.108,9.363v8.722Zm3.839-5.524V55.715a1.92,1.92,0,1,0-3.839,0V60.25Z" fill="#fff"/>
      <path id="路径_2940" data-name="路径 2940" d="M353.154,56.063c0-1.221-.466-2.326-1.92-2.326s-1.919,1.1-1.919,2.326v17.33c0,1.221.466,2.326,1.919,2.326s1.92-1.105,1.92-2.326V68.217h9.188V73.1c0,6.28-4.653,8.664-11.166,8.664-6.862,0-11.048-2.849-11.048-9.246V56.995c0-5.467,4.07-9.305,11.048-9.305,5.932,0,11.166,2.209,11.166,9.362v2.791h-9.188Z" fill="#fff"/>
      <path id="路径_2941" data-name="路径 2941" d="M387.111,72.927c0,6.164-5.233,8.839-11.107,8.839S364.9,79.091,364.9,72.927V57.052c0-5.989,3.955-9.362,11.107-9.362s11.107,3.373,11.107,9.362Zm-13.026.466c0,1.221.466,2.326,1.919,2.326s1.92-1.105,1.92-2.326V56.063c0-1.221-.466-2.326-1.92-2.326s-1.919,1.1-1.919,2.326Z" fill="#fff"/>
      <path id="路径_2942" data-name="路径 2942" d="M398.623,52.516h.116a6.741,6.741,0,0,1,2.269-3.547,6.362,6.362,0,0,1,4.129-1.279c3.314,0,5.349,1.628,5.989,4.826h.116a5.772,5.772,0,0,1,2.152-3.547,7.02,7.02,0,0,1,4.187-1.279c4.594,0,6.047,2.965,6.047,7.036V81.36h-8.839V58.274c0-1.455-.116-3.025-1.86-3.025s-1.8,1.57-1.8,3.025V81.36h-8.839V58.274c0-1.455-.116-3.025-1.861-3.025s-1.8,1.57-1.8,3.025V81.36h-8.839V48.1h8.839Z" fill="#fff"/>
      <path id="路径_2943" data-name="路径 2943" d="M435.255,52.516h.116a6.741,6.741,0,0,1,2.269-3.547,6.36,6.36,0,0,1,4.128-1.279c3.315,0,5.35,1.628,5.99,4.826h.116a5.772,5.772,0,0,1,2.152-3.547,7.02,7.02,0,0,1,4.187-1.279c4.594,0,6.047,2.965,6.047,7.036V81.36h-8.839V58.274c0-1.455-.116-3.025-1.86-3.025s-1.8,1.57-1.8,3.025V81.36h-8.839V58.274c0-1.455-.116-3.025-1.861-3.025s-1.8,1.57-1.8,3.025V81.36h-8.839V48.1h8.839Z" fill="#fff"/>
      <path id="路径_2944" data-name="路径 2944" d="M472.119,65.774V72.52c0,1.977.7,3.2,1.919,3.2,1.454,0,1.92-1.222,1.92-3.2v-4.3h9.188V73.1c0,6.28-4.653,8.664-11.108,8.664-5.873,0-11.106-2.675-11.106-8.839V57.052c0-5.99,3.954-9.363,11.106-9.363,5.874,0,11.108,2.209,11.108,9.363v8.722Zm3.839-5.524V55.715a1.92,1.92,0,1,0-3.839,0V60.25Z" fill="#fff"/>
      <path id="路径_2945" data-name="路径 2945" d="M496.89,52.225h.117c.872-2.907,3.082-4.535,6.687-4.535,4.129,0,6.222,2.849,6.222,7.617V81.36h-9.187V58.274c0-1.455-.117-3.025-1.861-3.025s-1.978,1.57-1.978,3.025V81.36H487.7V48.1h9.188Z" fill="#fff"/>
      <path id="路径_2946" data-name="路径 2946" d="M525.5,77.172h-.117c-.466,3.315-2.966,4.594-6.339,4.594-5.06,0-6.572-4.3-6.572-8.315V55.075c0-4.244,1.745-7.385,6.4-7.385a6.375,6.375,0,0,1,6.513,4.943h.117V39.956h9.186v41.4H525.5Zm-3.839-5.233c0,1.454.813,2.268,1.918,2.268s1.921-.814,1.921-2.268V57.518c0-1.455-.815-2.268-1.921-2.268s-1.918.813-1.918,2.268Z" fill="#fff"/>
    </g>
  </g>
</svg>
