<svg id="组_1556" data-name="组 1556" xmlns="http://www.w3.org/2000/svg" xmlns:xlink="http://www.w3.org/1999/xlink" width="698.729" height="126.16" viewBox="0 0 698.729 126.16">
  <defs>
    <clipPath id="clip-path">
      <rect id="矩形_765" data-name="矩形 765" width="698.73" height="126.16" fill="none"/>
    </clipPath>
  </defs>
  <rect id="矩形_759" data-name="矩形 759" width="653.324" height="81.999" transform="translate(27.964 26.014)"/>
  <rect id="矩形_760" data-name="矩形 760" width="687.36" height="81.999" transform="translate(8 44.273) rotate(-3.025)"/>
  <path id="路径_2908" data-name="路径 2908" d="M268,89.359v-41.4h9.653V63.307h5.118V47.955h9.653v41.4h-9.653V69.588h-5.118V89.359Z"/>
  <g id="组_1555" data-name="组 1555">
    <g id="组_1554" data-name="组 1554" clip-path="url(#clip-path)">
      <path id="路径_2909" data-name="路径 2909" d="M319.406,78.078c0,9.478-5.816,12.095-12.212,12.095s-12.212-2.617-12.212-12.095V59.236c0-9.478,5.815-12.1,12.212-12.1s12.212,2.617,12.212,12.1Zm-14.771,2.209c0,1.687.523,3.257,2.559,3.257s2.558-1.57,2.558-3.257V57.027c0-1.687-.523-3.257-2.558-3.257s-2.559,1.57-2.559,3.257Z"/>
      <path id="路径_2910" data-name="路径 2910" d="M321.5,54.235v-6.28H344.64v6.28h-6.746V89.359h-9.653V54.235Z"/>
      <path id="路径_2911" data-name="路径 2911" d="M360.221,89.359v-41.4h11.8c7.677,0,12.621,1.745,12.621,8.9v7.559c0,6.222-5.526,8.955-11.224,8.955h-3.547V89.359Zm9.654-21.923h1.512c3.372,0,3.6-1.861,3.6-6.746s-.232-6.8-3.6-6.8h-1.512Z"/>
      <rect id="矩形_761" data-name="矩形 761" width="9.653" height="41.404" transform="translate(387.026 47.955)"/>
      <path id="路径_2912" data-name="路径 2912" d="M423.486,73.251v5.466c0,7.734-4.129,11.456-12.271,11.456-6.4,0-12.153-2.617-12.153-12.095V59.236c0-9.478,5.757-12.1,12.153-12.1,7.038,0,12.271,2.093,12.271,11.049v4.536h-9.653v-5.7c0-1.687-.524-3.256-2.618-3.256-1.976,0-2.5,1.569-2.5,3.256v23.26c0,1.687.524,3.257,2.5,3.257,2.094,0,2.618-1.57,2.618-3.257l.057-7.036Z"/>
      <path id="路径_2913" data-name="路径 2913" d="M426.041,89.359v-41.4h9.653V66.738h.117l6.105-18.783H451.1l-6.455,18.26,6.513,23.144h-9.536l-5.815-20.993h-.117V89.359Z"/>
      <rect id="矩形_762" data-name="矩形 762" width="653.324" height="81.999" transform="translate(19.964 18.014)" fill="#85a6fc"/>
      <rect id="矩形_763" data-name="矩形 763" width="687.36" height="81.999" transform="translate(0 36.275) rotate(-3.025)" fill="#85a6fc"/>
      <path id="路径_2914" data-name="路径 2914" d="M260,81.359v-41.4h9.653V55.307h5.118V39.955h9.653v41.4h-9.653V61.588h-5.118V81.359Z" fill="#fff"/>
      <path id="路径_2915" data-name="路径 2915" d="M311.406,70.078c0,9.478-5.816,12.095-12.212,12.095s-12.212-2.617-12.212-12.095V51.236c0-9.478,5.815-12.1,12.212-12.1s12.212,2.617,12.212,12.1Zm-14.771,2.209c0,1.687.523,3.257,2.559,3.257s2.558-1.57,2.558-3.257V49.027c0-1.687-.523-3.257-2.558-3.257s-2.559,1.57-2.559,3.257Z" fill="#fff"/>
      <path id="路径_2916" data-name="路径 2916" d="M313.5,46.235v-6.28H336.64v6.28h-6.746V81.359h-9.653V46.235Z" fill="#fff"/>
      <path id="路径_2917" data-name="路径 2917" d="M352.221,81.359v-41.4h11.8c7.677,0,12.621,1.745,12.621,8.9v7.559c0,6.222-5.526,8.955-11.224,8.955h-3.547V81.359Zm9.654-21.923h1.512c3.372,0,3.6-1.861,3.6-6.746s-.232-6.8-3.6-6.8h-1.512Z" fill="#fff"/>
      <rect id="矩形_764" data-name="矩形 764" width="9.653" height="41.404" transform="translate(379.026 39.955)" fill="#fff"/>
      <path id="路径_2918" data-name="路径 2918" d="M415.486,65.251v5.466c0,7.734-4.129,11.456-12.271,11.456-6.4,0-12.153-2.617-12.153-12.095V51.236c0-9.478,5.757-12.1,12.153-12.1,7.038,0,12.271,2.093,12.271,11.049v4.536h-9.653v-5.7c0-1.687-.524-3.256-2.618-3.256-1.976,0-2.5,1.569-2.5,3.256v23.26c0,1.687.524,3.257,2.5,3.257,2.094,0,2.618-1.57,2.618-3.257l.057-7.036Z" fill="#fff"/>
      <path id="路径_2919" data-name="路径 2919" d="M418.041,81.359v-41.4h9.653V58.738h.117l6.105-18.783H443.1l-6.455,18.26,6.513,23.144h-9.536l-5.815-20.993h-.117V81.359Z" fill="#fff"/>
    </g>
  </g>
</svg>
