<svg id="组_1514" data-name="组 1514" xmlns="http://www.w3.org/2000/svg" xmlns:xlink="http://www.w3.org/1999/xlink" width="410.276" height="63.533" viewBox="0 0 410.276 63.533">
  <defs>
    <clipPath id="clip-path">
      <rect id="矩形_720" data-name="矩形 720" width="410.276" height="63.533" transform="translate(0 0)" fill="none"/>
    </clipPath>
  </defs>
  <rect id="矩形_717" data-name="矩形 717" width="401.18" height="54.437" transform="translate(9.095 9.096)"/>
  <rect id="矩形_718" data-name="矩形 718" width="401.18" height="54.437" transform="translate(1.096 1.096)" fill="#fffc00"/>
  <g id="组_1511" data-name="组 1511">
    <g id="组_1510" data-name="组 1510" clip-path="url(#clip-path)">
      <rect id="矩形_719" data-name="矩形 719" width="401.18" height="54.437" transform="translate(1.096 1.096)" fill="none" stroke="#000" stroke-miterlimit="10" stroke-width="2.191"/>
    </g>
  </g>
  <path id="路径_2813" data-name="路径 2813" d="M27.006,45.277V12.88H34.56V24.892h4V12.88h7.552v32.4H38.564V29.806h-4V45.277Z"/>
  <g id="组_1513" data-name="组 1513">
    <g id="组_1512" data-name="组 1512" clip-path="url(#clip-path)">
      <path id="路径_2814" data-name="路径 2814" d="M65.5,38.679c0,4.823-4.1,6.916-8.691,6.916s-8.69-2.093-8.69-6.916V26.257c0-4.687,3.093-7.326,8.69-7.326S65.5,21.57,65.5,26.257Zm-10.192.364c0,.956.364,1.82,1.5,1.82s1.5-.864,1.5-1.82V25.483c0-.955-.364-1.819-1.5-1.819s-1.5.864-1.5,1.819Z"/>
      <path id="路径_2815" data-name="路径 2815" d="M66.723,19.25h7.189l1.912,20.112h.09L78.19,19.25h7.962l2.412,20.112h.091L90.247,19.25h6.325L92.841,45.277H84.059L81.693,24.528H81.6L79.236,45.277H70.727Z"/>
      <path id="路径_2816" data-name="路径 2816" d="M108.032,17.794V12.879h18.11v4.915h-5.278V45.277H113.31V17.794Z"/>
      <path id="路径_2817" data-name="路径 2817" d="M140.973,38.679c0,4.823-4.1,6.916-8.691,6.916s-8.69-2.093-8.69-6.916V26.257c0-4.687,3.093-7.326,8.69-7.326s8.691,2.639,8.691,7.326Zm-10.192.364c0,.956.364,1.82,1.5,1.82s1.5-.864,1.5-1.82V25.483c0-.955-.364-1.819-1.5-1.819s-1.5.864-1.5,1.819Z"/>
      <path id="路径_2818" data-name="路径 2818" d="M153.526,45.277V12.88h9.238c6,0,9.873,1.365,9.873,6.962v5.915c0,4.869-4.323,7.007-8.782,7.007H161.08V45.277Zm7.554-17.154h1.183c2.638,0,2.821-1.456,2.821-5.278s-.183-5.324-2.821-5.324H161.08Z"/>
      <rect id="矩形_721" data-name="矩形 721" width="7.188" height="32.397" transform="translate(174.682 12.88)"/>
      <path id="路径_2819" data-name="路径 2819" d="M194.109,42.228h-.091a5.088,5.088,0,0,1-5.051,3.367c-3.139,0-5.05-1.911-5.05-5.323V36.4c0-6.825,10.192-6.006,10.192-10.829,0-1.047-.318-1.911-1.5-1.911s-1.5.864-1.5,1.911v2.867h-7.189V26.03c0-5.233,4.368-7.1,8.69-7.1s8.691,1.866,8.691,7.1V45.277h-7.189Zm-3-3.64a1.277,1.277,0,0,0,1.319,1.365c1.5,0,1.684-1,1.684-3.322v-4.5c-1.41,1-3,1.592-3,3.64Z"/>
      <path id="路径_2820" data-name="路径 2820" d="M210.122,19.25l2.412,17.973h.091l2.411-17.973h6.052l-5.824,27.437c-.591,2.958-2.685,4.414-5.825,4.414h-5.778V46.369h3.731c.956,0,1.274-.227,1.274-.728a5.852,5.852,0,0,0-.182-1.138L202.842,19.25Z"/>
      <path id="路径_2821" data-name="路径 2821" d="M257.849,27.077v5.414c0,1.729-.182,4.687-1.547,6.052h2.776v6.734h-3.14c-1.364,0-3.412-.045-4.322-1.274a14.434,14.434,0,0,1-7.782,1.911c-4.914,0-10.647-2.138-10.647-8.873v-2.32c0-3.322.5-6.052,3.55-7.281a8.7,8.7,0,0,1-2.731-6.87c0-7.144,5.142-8.327,9.828-8.327,2.868,0,8.964.637,8.964,6.643v2.776c0,2.957-3.093,5.415-6.507,5.915,1.548,1.684,2.5,3.14,3.55,4.368h.455V27.077ZM240.741,31.9v4c.227,2.776.91,4.823,3.594,4.823,1.092,0,2.594-.228,2.958-1.274Zm.819-11.239a5.451,5.451,0,0,0,1.729,4c1.411,0,1.957-1.82,1.957-4.186,0-1.547-.046-3.049-1.73-3.049-1.911,0-1.956,1.593-1.956,3.231"/>
      <path id="路径_2822" data-name="路径 2822" d="M270.674,45.277V12.88h15.652v4.914h-8.1v7.1h7.827v4.914h-7.827V40.363h8.1v4.914Z"/>
      <path id="路径_2823" data-name="路径 2823" d="M297.79,42.228H297.7a5.088,5.088,0,0,1-5.051,3.367c-3.139,0-5.05-1.911-5.05-5.323V36.4c0-6.825,10.192-6.006,10.192-10.829,0-1.047-.318-1.911-1.5-1.911s-1.5.864-1.5,1.911v2.867H287.6V26.03c0-5.233,4.368-7.1,8.69-7.1s8.691,1.866,8.691,7.1V45.277H297.79Zm-3-3.64a1.277,1.277,0,0,0,1.319,1.365c1.5,0,1.684-1,1.684-3.322v-4.5c-1.41,1-3,1.592-3,3.64Z"/>
      <path id="路径_2824" data-name="路径 2824" d="M314.168,22.663h.137c.955-2.275,2.548-3.731,5.186-3.731,3.641,0,4.869,2.411,4.869,5.1V33.31h-7.189V26.986c0-1.047-.318-2.139-1.5-2.139s-1.5,1.092-1.5,2.139V45.277h-7.189V19.25h7.189Z"/>
      <path id="路径_2825" data-name="路径 2825" d="M333.549,22.481h.091c.682-2.275,2.412-3.549,5.232-3.549,3.231,0,4.869,2.23,4.869,5.961V45.277h-7.189V27.213c0-1.137-.091-2.366-1.456-2.366s-1.547,1.229-1.547,2.366V45.277H326.36V19.251h7.189Z"/>
      <path id="路径_2826" data-name="路径 2826" d="M356.6,43.387a3.57,3.57,0,1,0-.049-5.049,3.57,3.57,0,0,0,.049,5.049"/>
      <path id="路径_2827" data-name="路径 2827" d="M361.6,43.382l14.711-14.9-5.062-5.039L356.505,38.382Z"/>
      <path id="路径_2828" data-name="路径 2828" d="M370.708,24.146a3.57,3.57,0,1,0,4.88-1.293,3.57,3.57,0,0,0-4.88,1.293"/>
      <path id="路径_2829" data-name="路径 2829" d="M352.6,13.625a3.57,3.57,0,1,0,4.88-1.293,3.57,3.57,0,0,0-4.88,1.293"/>
      <rect id="矩形_722" data-name="矩形 722" width="7.14" height="21.016" transform="translate(353.841 18.474) rotate(-59.84)"/>
    </g>
  </g>
</svg>
