<svg id="组_1522" data-name="组 1522" xmlns="http://www.w3.org/2000/svg" xmlns:xlink="http://www.w3.org/1999/xlink" width="256.743" height="61.342" viewBox="0 0 256.743 61.342">
  <defs>
    <clipPath id="clip-path">
      <rect id="矩形_737" data-name="矩形 737" width="256.743" height="61.342" transform="translate(0 0)" fill="none"/>
    </clipPath>
  </defs>
  <rect id="矩形_733" data-name="矩形 733" width="249.838" height="54.437" transform="translate(6.905 6.905)"/>
  <rect id="矩形_734" data-name="矩形 734" width="249.838" height="54.437" transform="translate(0.904 0.905)" fill="#fffc00"/>
  <g id="组_1521" data-name="组 1521">
    <g id="组_1520" data-name="组 1520" clip-path="url(#clip-path)">
      <rect id="矩形_735" data-name="矩形 735" width="249.839" height="54.437" transform="translate(0.904 0.905)" fill="none" stroke="#000" stroke-miterlimit="10" stroke-width="1.809"/>
      <path id="路径_2858" data-name="路径 2858" d="M54.721,12.689V36.851c0,4.459-1.456,8.873-9.555,8.873-2.958,0-9.465-.956-9.465-7.918V32.573h7.554V37.26c0,1.411-.046,3.276,1.956,3.276s1.957-1.865,1.957-3.276V12.689Z"/>
      <path id="路径_2859" data-name="路径 2859" d="M74.419,38.488c0,4.823-4.094,6.916-8.69,6.916s-8.691-2.093-8.691-6.916V26.066c0-4.687,3.094-7.326,8.691-7.326s8.69,2.639,8.69,7.326Zm-10.191.364c0,.956.363,1.82,1.5,1.82s1.5-.864,1.5-1.82V25.292c0-.955-.363-1.819-1.5-1.819s-1.5.864-1.5,1.819Z"/>
      <path id="路径_2860" data-name="路径 2860" d="M76.465,12.689h7.188v4.6H76.465Zm0,6.37h7.188V45.086H76.465Z"/>
      <path id="路径_2861" data-name="路径 2861" d="M92.889,22.29h.091c.682-2.275,2.412-3.549,5.232-3.549,3.232,0,4.869,2.23,4.869,5.961V45.086H95.892V27.022c0-1.137-.091-2.366-1.456-2.366s-1.547,1.229-1.547,2.366V45.086H85.7V19.06h7.189Z"/>
      <path id="路径_2862" data-name="路径 2862" d="M115.361,12.689h10.466l4.823,23.57h.091V12.689h5.915v32.4h-9.691l-5.6-27.073h-.091V45.086h-5.916Z"/>
      <path id="路径_2863" data-name="路径 2863" d="M155.763,38.488c0,4.823-4.1,6.916-8.691,6.916s-8.69-2.093-8.69-6.916V26.066c0-4.687,3.093-7.326,8.69-7.326s8.691,2.639,8.691,7.326Zm-10.192.364c0,.956.364,1.82,1.5,1.82s1.5-.864,1.5-1.82V25.292c0-.955-.364-1.819-1.5-1.819s-1.5.864-1.5,1.819Z"/>
      <path id="路径_2864" data-name="路径 2864" d="M156.989,19.059h7.189l1.912,20.112h.09l2.276-20.112h7.962l2.412,20.112h.091l1.592-20.112h6.325l-3.731,26.027h-8.782l-2.366-20.749h-.091L169.5,45.086h-8.509Z"/>
      <path id="路径_2865" data-name="路径 2865" d="M195.952,42.948A3.57,3.57,0,1,0,195.9,37.9a3.57,3.57,0,0,0,.049,5.049"/>
      <path id="路径_2866" data-name="路径 2866" d="M200.958,42.943l14.711-14.9-5.062-5.039L195.86,37.943Z"/>
      <path id="路径_2867" data-name="路径 2867" d="M210.062,23.706a3.57,3.57,0,1,0,4.88-1.293,3.57,3.57,0,0,0-4.88,1.293"/>
      <path id="路径_2868" data-name="路径 2868" d="M191.956,13.185a3.57,3.57,0,1,0,4.88-1.293,3.57,3.57,0,0,0-4.88,1.293"/>
      <rect id="矩形_736" data-name="矩形 736" width="7.14" height="21.016" transform="translate(193.196 18.035) rotate(-59.84)"/>
    </g>
  </g>
</svg>
