<svg id="组_1593" data-name="组 1593" xmlns="http://www.w3.org/2000/svg" xmlns:xlink="http://www.w3.org/1999/xlink" width="272.619" height="63.545" viewBox="0 0 272.619 63.545">
  <defs>
    <clipPath id="clip-path">
      <rect id="矩形_829" data-name="矩形 829" width="272.619" height="63.545" transform="translate(0 0)" fill="none"/>
    </clipPath>
  </defs>
  <rect id="矩形_824" data-name="矩形 824" width="263.512" height="54.437" transform="translate(9.107 9.108)"/>
  <rect id="矩形_825" data-name="矩形 825" width="263.511" height="54.437" transform="translate(1.108 1.108)" fill="#f6b42c"/>
  <g id="组_1592" data-name="组 1592">
    <g id="组_1591" data-name="组 1591" clip-path="url(#clip-path)">
      <rect id="矩形_826" data-name="矩形 826" width="263.511" height="54.437" transform="translate(1.108 1.108)" fill="none" stroke="#000" stroke-miterlimit="10" stroke-width="2.215"/>
      <path id="路径_3054" data-name="路径 3054" d="M27.756,33.938c0,4.4-2.7,5.615-5.669,5.615s-5.668-1.215-5.668-5.615V25.193c0-4.4,2.7-5.615,5.668-5.615s5.669,1.215,5.669,5.615ZM20.9,34.964c0,.783.243,1.512,1.187,1.512s1.188-.729,1.188-1.512v-10.8c0-.783-.243-1.512-1.188-1.512s-1.187.729-1.187,1.512Z"/>
      <path id="路径_3055" data-name="路径 3055" d="M28.785,19.956h6.208l2.862,13.982h.054V19.956h3.509V39.175h-5.75l-3.32-16.061h-.054V39.175H28.785Z"/>
      <path id="路径_3056" data-name="路径 3056" d="M42.394,39.175V19.956h4.48v16.3h4.859v2.915Z"/>
      <rect id="矩形_827" data-name="矩形 827" width="4.481" height="19.219" transform="translate(52.356 19.956)"/>
      <path id="路径_3057" data-name="路径 3057" d="M57.783,19.956h6.208l2.861,13.982h.055V19.956h3.508V39.175H64.666l-3.32-16.061h-.054V39.175H57.783Z"/>
      <path id="路径_3058" data-name="路径 3058" d="M71.391,39.175V19.956h9.285v2.915H75.871v4.211h4.644V30H75.871V36.26h4.805v2.915Z"/>
      <path id="路径_3059" data-name="路径 3059" d="M94.042,19.578,89.265,39.553H87.159l4.778-19.975Z"/>
      <path id="路径_3060" data-name="路径 3060" d="M112.292,33.938c0,4.4-2.7,5.615-5.669,5.615s-5.668-1.215-5.668-5.615V25.193c0-4.4,2.7-5.615,5.668-5.615s5.669,1.215,5.669,5.615Zm-6.856,1.026c0,.783.243,1.512,1.187,1.512s1.188-.729,1.188-1.512v-10.8c0-.783-.243-1.512-1.188-1.512s-1.187.729-1.187,1.512Z"/>
      <path id="路径_3061" data-name="路径 3061" d="M113.429,39.175V19.956h9.285v2.915h-4.805v4.211h4.644V30h-4.644v9.178Z"/>
      <path id="路径_3062" data-name="路径 3062" d="M123.419,39.175V19.956H132.7v2.915H127.9v4.211h4.644V30H127.9v9.178Z"/>
      <path id="路径_3063" data-name="路径 3063" d="M133.409,39.175V19.956h4.48v16.3h4.859v2.915Z"/>
      <rect id="矩形_828" data-name="矩形 828" width="4.481" height="19.219" transform="translate(143.372 19.956)"/>
      <path id="路径_3064" data-name="路径 3064" d="M148.8,19.956h6.208l2.861,13.982h.055V19.956h3.508V39.175h-5.749l-3.32-16.061h-.054V39.175H148.8Z"/>
      <path id="路径_3065" data-name="路径 3065" d="M162.407,39.175V19.956h9.285v2.915h-4.8v4.211h4.644V30h-4.644V36.26h4.8v2.915Z"/>
      <path id="路径_3066" data-name="路径 3066" d="M178.661,39.175V19.956h4.507c4.265,0,6.8.432,6.8,4.481,0,2.4-1,3.968-3.428,4.373v.054c2.16.054,3.428.864,3.428,3.617V36.5a4.988,4.988,0,0,0,.675,2.672h-4.507a4.952,4.952,0,0,1-.648-2.672V32.427c0-1.35-.81-2.025-1.62-2.025h-.729v8.773Zm4.48-11.526c2.024,0,2.349-.675,2.349-2.483,0-1.782-.3-2.457-2.349-2.457Z"/>
      <path id="路径_3067" data-name="路径 3067" d="M191.188,39.175V19.956h9.285v2.915h-4.8v4.211h4.644V30h-4.644V36.26h4.8v2.915Z"/>
      <path id="路径_3068" data-name="路径 3068" d="M201.231,19.956h4.616c5.021,0,6.721.809,6.721,6.559v6.856c0,3.644-1.08,5.8-6.721,5.8h-4.616Zm4.481,16.465c2.187,0,2.375-.836,2.375-2.672V25.84c0-2.565-.108-3.131-2.375-3.131Z"/>
      <path id="路径_3069" data-name="路径 3069" d="M213.706,39.175V19.956h9.285v2.915h-4.8v4.211h4.644V30h-4.644V36.26h4.8v2.915Z"/>
      <path id="路径_3070" data-name="路径 3070" d="M223.7,39.175V19.956h9.285v2.915h-4.8v4.211h4.644V30h-4.644V36.26h4.8v2.915Z"/>
      <path id="路径_3071" data-name="路径 3071" d="M237.3,39.175h-3.59V19.956H240.3l1.889,13.658h.054l1.889-13.658h6.452V39.175h-4.049V22.763h-.054l-2.592,16.412h-3.94l-2.592-16.412H237.3Z"/>
    </g>
  </g>
</svg>
