<svg id="组_1509" data-name="组 1509" xmlns="http://www.w3.org/2000/svg" xmlns:xlink="http://www.w3.org/1999/xlink" width="589.747" height="73.28" viewBox="0 0 589.747 73.28">
  <defs>
    <clipPath id="clip-path">
      <rect id="矩形_716" data-name="矩形 716" width="589.747" height="73.28" transform="translate(0 0)" fill="none"/>
    </clipPath>
  </defs>
  <g id="组_1508" data-name="组 1508" clip-path="url(#clip-path)">
    <path id="路径_2771" data-name="路径 2771" d="M7.5,63.421V8.578H23.137c10.167,0,16.714,2.311,16.714,11.785V30.377c0,8.241-7.317,11.862-14.866,11.862h-4.7V63.421ZM20.286,34.382h2c4.468,0,4.776-2.465,4.776-8.935s-.308-9.012-4.776-9.012h-2Z"/>
    <rect id="矩形_713" data-name="矩形 713" width="12.17" height="54.843" transform="translate(45.243 8.578)"/>
    <path id="路径_2772" data-name="路径 2772" d="M80.06,58.26h-.154c-1.463,3.158-3.7,5.7-8.55,5.7-5.315,0-8.55-3.235-8.55-9.012V48.4c0-11.554,17.254-10.168,17.254-18.333,0-1.771-.539-3.235-2.542-3.235s-2.542,1.464-2.542,3.235v4.853H62.806V30.839c0-8.859,7.395-12.016,14.712-12.016S92.23,21.98,92.23,30.839V63.421H80.06ZM74.976,52.1a2.162,2.162,0,0,0,2.234,2.311c2.542,0,2.85-1.695,2.85-5.623V41.16c-2.388,1.695-5.084,2.7-5.084,6.162Z"/>
    <path id="路径_2773" data-name="路径 2773" d="M109.1,19.362l4.083,30.425h.154l4.082-30.425h10.244L117.8,65.809c-1,5.007-4.544,7.471-9.859,7.471H98.161V65.27h6.317c1.617,0,2.156-.386,2.156-1.233a9.888,9.888,0,0,0-.307-1.925l-9.552-42.75Z"/>
    <path id="路径_2774" data-name="路径 2774" d="M193.752,32.611v9.166c0,2.927-.308,7.933-2.619,10.244h4.7v11.4h-5.314c-2.311,0-5.778-.077-7.318-2.156-3.62,2.311-8.242,3.235-13.171,3.235C161.709,64.5,152,60.879,152,49.479V45.551c0-5.623.848-10.244,6.009-12.324-2.7-2.542-4.622-5.931-4.622-11.631,0-12.093,8.7-14.1,16.638-14.1,4.852,0,15.174,1.079,15.174,11.246v4.7c0,5.007-5.238,9.166-11.015,10.013,2.619,2.85,4.236,5.315,6.009,7.4h.769V32.611ZM164.79,40.776v6.778c.385,4.7,1.54,8.165,6.085,8.165,1.849,0,4.391-.386,5.007-2.157Zm1.386-19.026a9.219,9.219,0,0,0,2.928,6.778c2.387,0,3.311-3.081,3.311-7.086,0-2.619-.077-5.161-2.926-5.161-3.236,0-3.313,2.7-3.313,5.469"/>
    <path id="路径_2775" data-name="路径 2775" d="M239.042,28.22v-7.7c0-2.695-.847-4.236-3.389-4.236-2.773,0-3.388,1.541-3.388,4.236,0,9.244,19.564,11.939,19.564,28.886,0,10.321-5.546,15.1-16.253,15.1-8.165,0-16.1-2.772-16.1-12.247V42.085h12.787v9.474c0,3.235,1,4.16,3.388,4.16,2.08,0,3.389-.925,3.389-4.16,0-12.4-19.564-12.632-19.564-30.348,0-9.937,6.547-13.711,16.407-13.711,8.627,0,15.944,2.927,15.944,12.093V28.22Z"/>
    <path id="路径_2776" data-name="路径 2776" d="M257.144,63.421V8.578h12.17V24.831h.154c1.233-3.851,4.16-6.008,8.627-6.008,6.162,0,8.473,4.082,8.473,10.475V63.421H274.4V33.612c0-2.388-.077-4.776-2.542-4.776s-2.542,2.388-2.542,4.776V63.421Z"/>
    <path id="路径_2777" data-name="路径 2777" d="M321.308,52.252c0,8.165-6.933,11.708-14.713,11.708s-14.712-3.543-14.712-11.708V31.223c0-7.933,5.238-12.4,14.712-12.4s14.713,4.467,14.713,12.4Zm-17.254.616c0,1.618.615,3.081,2.541,3.081s2.542-1.463,2.542-3.081V29.914c0-1.617-.616-3.081-2.542-3.081s-2.541,1.464-2.541,3.081Z"/>
    <path id="路径_2778" data-name="路径 2778" d="M338.792,25.138h.154c.617-4.621,3.929-6.316,8.4-6.316,6.7,0,8.7,5.7,8.7,11.246v24.34c0,5.392-2.311,9.552-8.473,9.552-4.467,0-7.549-2.311-8.627-6.316h-.154V73.28h-12.17V19.361h12.17Zm0,25.8c0,1.926,1.079,3,2.542,3s2.542-1.078,2.542-3v-19.1c0-1.925-1.078-3-2.542-3s-2.542,1.078-2.542,3Z"/>
    <path id="路径_2779" data-name="路径 2779" d="M380.079,27.373V19.362h4.082V11.429h12.171v7.933h5.314v8.011h-5.314V51.4c0,2.619.077,4.006,2.927,4.006h2.387v8.01H391.71c-6.085,0-7.549-3.389-7.549-9.166V27.373Z"/>
    <path id="路径_2780" data-name="路径 2780" d="M435.308,52.252c0,8.165-6.933,11.708-14.713,11.708s-14.712-3.543-14.712-11.708V31.223c0-7.933,5.238-12.4,14.712-12.4s14.713,4.467,14.713,12.4Zm-17.254.616c0,1.618.615,3.081,2.541,3.081s2.542-1.463,2.542-3.081V29.914c0-1.617-.616-3.081-2.542-3.081s-2.541,1.464-2.541,3.081Z"/>
    <path id="路径_2781" data-name="路径 2781" d="M460.265,63.421V8.578h26.5V16.9h-13.71V28.913H486.3v8.319H473.051V55.1h13.71v8.319Z"/>
    <path id="路径_2782" data-name="路径 2782" d="M508.1,58.26h-.153c-1.464,3.158-3.7,5.7-8.551,5.7-5.315,0-8.55-3.235-8.55-9.012V48.4c0-11.554,17.254-10.168,17.254-18.333,0-1.771-.539-3.235-2.542-3.235s-2.541,1.464-2.541,3.235v4.853H490.844V30.839c0-8.859,7.4-12.016,14.712-12.016s14.713,3.157,14.713,12.016V63.421H508.1ZM503.015,52.1a2.161,2.161,0,0,0,2.233,2.311c2.542,0,2.85-1.695,2.85-5.623V41.16c-2.388,1.695-5.083,2.7-5.083,6.162Z"/>
    <path id="路径_2783" data-name="路径 2783" d="M537.753,25.139h.231c1.619-3.851,4.314-6.316,8.782-6.316,6.162,0,8.241,4.083,8.241,8.627V43.163h-12.17V32.456c0-1.771-.539-3.62-2.542-3.62s-2.542,1.849-2.542,3.62V63.421h-12.17V19.362h12.17Z"/>
    <path id="路径_2784" data-name="路径 2784" d="M572.493,24.831h.153c1.156-3.851,4.083-6.008,8.859-6.008,5.468,0,8.242,3.774,8.242,10.091V63.421H577.576V32.842c0-1.926-.153-4.006-2.465-4.006s-2.618,2.08-2.618,4.006V63.421H560.322V19.362h12.171Z"/>
    <path id="路径_2785" data-name="路径 2785" d="M.5,56.421V1.578H16.137c10.167,0,16.714,2.311,16.714,11.785V23.377c0,8.241-7.317,11.862-14.866,11.862h-4.7V56.421ZM13.286,27.382h2c4.468,0,4.776-2.465,4.776-8.935s-.308-9.012-4.776-9.012h-2Z" fill="#f0f"/>
    <path id="路径_2786" data-name="路径 2786" d="M.5,56.421V1.578H16.137c10.167,0,16.714,2.311,16.714,11.785V23.377c0,8.241-7.317,11.862-14.866,11.862h-4.7V56.421ZM13.286,27.382h2c4.468,0,4.776-2.465,4.776-8.935s-.308-9.012-4.776-9.012h-2Z" fill="none" stroke="#000" stroke-miterlimit="10" stroke-width="1"/>
    <rect id="矩形_714" data-name="矩形 714" width="12.17" height="54.843" transform="translate(38.243 1.578)" fill="#f0f"/>
    <rect id="矩形_715" data-name="矩形 715" width="12.17" height="54.843" transform="translate(38.243 1.578)" fill="none" stroke="#000" stroke-miterlimit="10" stroke-width="1"/>
    <path id="路径_2787" data-name="路径 2787" d="M73.06,51.26h-.154c-1.463,3.158-3.7,5.7-8.55,5.7-5.315,0-8.55-3.235-8.55-9.012V41.4c0-11.554,17.254-10.168,17.254-18.333,0-1.771-.539-3.235-2.542-3.235s-2.542,1.464-2.542,3.235v4.853H55.806V23.839c0-8.859,7.4-12.016,14.712-12.016S85.23,14.98,85.23,23.839V56.421H73.06ZM67.976,45.1a2.162,2.162,0,0,0,2.234,2.311c2.542,0,2.85-1.695,2.85-5.623V34.16c-2.388,1.695-5.084,2.7-5.084,6.162Z" fill="#f0f"/>
    <path id="路径_2788" data-name="路径 2788" d="M73.06,51.26h-.154c-1.463,3.158-3.7,5.7-8.55,5.7-5.315,0-8.55-3.235-8.55-9.012V41.4c0-11.554,17.254-10.168,17.254-18.333,0-1.771-.539-3.235-2.542-3.235s-2.542,1.464-2.542,3.235v4.853H55.806V23.839c0-8.859,7.4-12.016,14.712-12.016S85.23,14.98,85.23,23.839V56.421H73.06ZM67.976,45.1a2.162,2.162,0,0,0,2.234,2.311c2.542,0,2.85-1.695,2.85-5.623V34.16c-2.388,1.695-5.084,2.7-5.084,6.162Z" fill="none" stroke="#000" stroke-miterlimit="10" stroke-width="1"/>
    <path id="路径_2789" data-name="路径 2789" d="M102.1,12.362l4.083,30.425h.154l4.082-30.425h10.244L110.8,58.809c-1,5.007-4.544,7.471-9.859,7.471H91.161V58.27h6.317c1.617,0,2.156-.386,2.156-1.233a9.888,9.888,0,0,0-.307-1.925l-9.552-42.75Z" fill="#f0f"/>
    <path id="路径_2790" data-name="路径 2790" d="M102.1,12.362l4.083,30.425h.154l4.082-30.425h10.244L110.8,58.809c-1,5.007-4.544,7.471-9.859,7.471H91.161V58.27h6.317c1.617,0,2.156-.386,2.156-1.233a9.888,9.888,0,0,0-.307-1.925l-9.552-42.75Z" fill="none" stroke="#000" stroke-miterlimit="10" stroke-width="1"/>
    <path id="路径_2791" data-name="路径 2791" d="M186.752,25.611v9.166c0,2.927-.308,7.933-2.619,10.244h4.7v11.4h-5.314c-2.311,0-5.778-.077-7.318-2.156-3.62,2.311-8.242,3.235-13.171,3.235C154.709,57.5,145,53.879,145,42.479V38.551c0-5.623.848-10.244,6.009-12.324-2.7-2.542-4.622-5.931-4.622-11.631,0-12.093,8.7-14.1,16.638-14.1C167.88.5,178.2,1.579,178.2,11.746v4.7c0,5.007-5.238,9.166-11.015,10.013,2.619,2.85,4.236,5.315,6.009,7.4h.769V25.611ZM157.79,33.776v6.778c.385,4.7,1.54,8.165,6.085,8.165,1.849,0,4.391-.386,5.007-2.157Zm1.386-19.026a9.219,9.219,0,0,0,2.928,6.778c2.387,0,3.311-3.081,3.311-7.086,0-2.619-.077-5.161-2.926-5.161-3.236,0-3.313,2.7-3.313,5.469" fill="#f0f"/>
    <path id="路径_2792" data-name="路径 2792" d="M186.752,25.611v9.166c0,2.927-.308,7.933-2.619,10.244h4.7v11.4h-5.314c-2.311,0-5.778-.077-7.318-2.156-3.62,2.311-8.242,3.235-13.171,3.235C154.709,57.5,145,53.879,145,42.479V38.551c0-5.623.848-10.244,6.009-12.324-2.7-2.542-4.622-5.931-4.622-11.631,0-12.093,8.7-14.1,16.638-14.1C167.88.5,178.2,1.579,178.2,11.746v4.7c0,5.007-5.238,9.166-11.015,10.013,2.619,2.85,4.236,5.315,6.009,7.4h.769V25.611ZM157.79,33.776v6.778c.385,4.7,1.54,8.165,6.085,8.165,1.849,0,4.391-.386,5.007-2.157Zm1.386-19.026a9.219,9.219,0,0,0,2.928,6.778c2.387,0,3.311-3.081,3.311-7.086,0-2.619-.077-5.161-2.926-5.161C159.253,9.281,159.176,11.977,159.176,14.75Z" fill="none" stroke="#000" stroke-miterlimit="10" stroke-width="1"/>
    <path id="路径_2793" data-name="路径 2793" d="M232.042,21.22v-7.7c0-2.7-.847-4.236-3.389-4.236-2.773,0-3.388,1.541-3.388,4.236,0,9.244,19.564,11.939,19.564,28.886,0,10.321-5.546,15.1-16.253,15.1-8.165,0-16.1-2.772-16.1-12.247V35.085h12.787v9.474c0,3.235,1,4.16,3.388,4.16,2.08,0,3.389-.925,3.389-4.16,0-12.4-19.564-12.632-19.564-30.348C212.478,4.274,219.025.5,228.885.5c8.627,0,15.944,2.927,15.944,12.093V21.22Z" fill="#f0f"/>
    <path id="路径_2794" data-name="路径 2794" d="M232.042,21.22v-7.7c0-2.7-.847-4.236-3.389-4.236-2.773,0-3.388,1.541-3.388,4.236,0,9.244,19.564,11.939,19.564,28.886,0,10.321-5.546,15.1-16.253,15.1-8.165,0-16.1-2.772-16.1-12.247V35.085h12.787v9.474c0,3.235,1,4.16,3.388,4.16,2.08,0,3.389-.925,3.389-4.16,0-12.4-19.564-12.632-19.564-30.348C212.478,4.274,219.025.5,228.885.5c8.627,0,15.944,2.927,15.944,12.093V21.22Z" fill="none" stroke="#000" stroke-miterlimit="10" stroke-width="1"/>
    <path id="路径_2795" data-name="路径 2795" d="M250.144,56.421V1.578h12.17V17.831h.154c1.233-3.851,4.16-6.008,8.627-6.008,6.162,0,8.473,4.082,8.473,10.475V56.421H267.4V26.612c0-2.388-.077-4.776-2.542-4.776s-2.542,2.388-2.542,4.776V56.421Z" fill="#f0f"/>
    <path id="路径_2796" data-name="路径 2796" d="M250.144,56.421V1.578h12.17V17.831h.154c1.233-3.851,4.16-6.008,8.627-6.008,6.162,0,8.473,4.082,8.473,10.475V56.421H267.4V26.612c0-2.388-.077-4.776-2.542-4.776s-2.542,2.388-2.542,4.776V56.421Z" fill="none" stroke="#000" stroke-miterlimit="10" stroke-width="1"/>
    <path id="路径_2797" data-name="路径 2797" d="M314.308,45.252c0,8.165-6.933,11.708-14.713,11.708s-14.712-3.543-14.712-11.708V24.223c0-7.933,5.238-12.4,14.712-12.4s14.713,4.467,14.713,12.4Zm-17.254.616c0,1.618.615,3.081,2.541,3.081s2.542-1.463,2.542-3.081V22.914c0-1.617-.616-3.081-2.542-3.081s-2.541,1.464-2.541,3.081Z" fill="#f0f"/>
    <path id="路径_2798" data-name="路径 2798" d="M314.308,45.252c0,8.165-6.933,11.708-14.713,11.708s-14.712-3.543-14.712-11.708V24.223c0-7.933,5.238-12.4,14.712-12.4s14.713,4.467,14.713,12.4Zm-17.254.616c0,1.618.615,3.081,2.541,3.081s2.542-1.463,2.542-3.081V22.914c0-1.617-.616-3.081-2.542-3.081s-2.541,1.464-2.541,3.081Z" fill="none" stroke="#000" stroke-miterlimit="10" stroke-width="1"/>
    <path id="路径_2799" data-name="路径 2799" d="M331.792,18.138h.154c.617-4.621,3.929-6.316,8.4-6.316,6.7,0,8.7,5.7,8.7,11.246v24.34c0,5.392-2.311,9.552-8.473,9.552-4.467,0-7.549-2.311-8.627-6.316h-.154V66.28h-12.17V12.361h12.17Zm0,25.8c0,1.926,1.079,3,2.542,3s2.542-1.078,2.542-3v-19.1c0-1.925-1.078-3-2.542-3s-2.542,1.078-2.542,3Z" fill="#f0f"/>
    <path id="路径_2800" data-name="路径 2800" d="M331.792,18.138h.154c.617-4.621,3.929-6.316,8.4-6.316,6.7,0,8.7,5.7,8.7,11.246v24.34c0,5.392-2.311,9.552-8.473,9.552-4.467,0-7.549-2.311-8.627-6.316h-.154V66.28h-12.17V12.361h12.17Zm0,25.8c0,1.926,1.079,3,2.542,3s2.542-1.078,2.542-3v-19.1c0-1.925-1.078-3-2.542-3s-2.542,1.078-2.542,3Z" fill="none" stroke="#000" stroke-miterlimit="10" stroke-width="1"/>
    <path id="路径_2801" data-name="路径 2801" d="M373.079,20.373V12.362h4.082V4.429h12.171v7.933h5.314v8.011h-5.314V44.4c0,2.619.077,4.006,2.927,4.006h2.387v8.01H384.71c-6.085,0-7.549-3.389-7.549-9.166V20.373Z" fill="#f0f"/>
    <path id="路径_2802" data-name="路径 2802" d="M373.079,20.373V12.362h4.082V4.429h12.171v7.933h5.314v8.011h-5.314V44.4c0,2.619.077,4.006,2.927,4.006h2.387v8.01H384.71c-6.085,0-7.549-3.389-7.549-9.166V20.373Z" fill="none" stroke="#000" stroke-miterlimit="10" stroke-width="1"/>
    <path id="路径_2803" data-name="路径 2803" d="M428.308,45.252c0,8.165-6.933,11.708-14.713,11.708s-14.712-3.543-14.712-11.708V24.223c0-7.933,5.238-12.4,14.712-12.4s14.713,4.467,14.713,12.4Zm-17.254.616c0,1.618.615,3.081,2.541,3.081s2.542-1.463,2.542-3.081V22.914c0-1.617-.616-3.081-2.542-3.081s-2.541,1.464-2.541,3.081Z" fill="#f0f"/>
    <path id="路径_2804" data-name="路径 2804" d="M428.308,45.252c0,8.165-6.933,11.708-14.713,11.708s-14.712-3.543-14.712-11.708V24.223c0-7.933,5.238-12.4,14.712-12.4s14.713,4.467,14.713,12.4Zm-17.254.616c0,1.618.615,3.081,2.541,3.081s2.542-1.463,2.542-3.081V22.914c0-1.617-.616-3.081-2.542-3.081s-2.541,1.464-2.541,3.081Z" fill="none" stroke="#000" stroke-miterlimit="10" stroke-width="1"/>
    <path id="路径_2805" data-name="路径 2805" d="M453.265,56.421V1.578h26.5V9.9h-13.71V21.913H479.3v8.319H466.051V48.1h13.71v8.319Z" fill="#f0f"/>
    <path id="路径_2806" data-name="路径 2806" d="M453.265,56.421V1.578h26.5V9.9h-13.71V21.913H479.3v8.319H466.051V48.1h13.71v8.319Z" fill="none" stroke="#000" stroke-miterlimit="10" stroke-width="1"/>
    <path id="路径_2807" data-name="路径 2807" d="M501.1,51.26h-.153c-1.464,3.158-3.7,5.7-8.551,5.7-5.315,0-8.55-3.235-8.55-9.012V41.4c0-11.554,17.254-10.168,17.254-18.333,0-1.771-.539-3.235-2.542-3.235s-2.541,1.464-2.541,3.235v4.853H483.844V23.839c0-8.859,7.4-12.016,14.712-12.016s14.713,3.157,14.713,12.016V56.421H501.1ZM496.015,45.1a2.161,2.161,0,0,0,2.233,2.311c2.542,0,2.85-1.695,2.85-5.623V34.16c-2.388,1.695-5.083,2.7-5.083,6.162Z" fill="#f0f"/>
    <path id="路径_2808" data-name="路径 2808" d="M501.1,51.26h-.153c-1.464,3.158-3.7,5.7-8.551,5.7-5.315,0-8.55-3.235-8.55-9.012V41.4c0-11.554,17.254-10.168,17.254-18.333,0-1.771-.539-3.235-2.542-3.235s-2.541,1.464-2.541,3.235v4.853H483.844V23.839c0-8.859,7.4-12.016,14.712-12.016s14.713,3.157,14.713,12.016V56.421H501.1ZM496.015,45.1a2.161,2.161,0,0,0,2.233,2.311c2.542,0,2.85-1.695,2.85-5.623V34.16c-2.388,1.695-5.083,2.7-5.083,6.162Z" fill="none" stroke="#000" stroke-miterlimit="10" stroke-width="1"/>
    <path id="路径_2809" data-name="路径 2809" d="M530.753,18.139h.231c1.619-3.851,4.314-6.316,8.782-6.316,6.162,0,8.241,4.083,8.241,8.627V36.163h-12.17V25.456c0-1.771-.539-3.62-2.542-3.62s-2.542,1.849-2.542,3.62V56.421h-12.17V12.362h12.17Z" fill="#f0f"/>
    <path id="路径_2810" data-name="路径 2810" d="M530.753,18.139h.231c1.619-3.851,4.314-6.316,8.782-6.316,6.162,0,8.241,4.083,8.241,8.627V36.163h-12.17V25.456c0-1.771-.539-3.62-2.542-3.62s-2.542,1.849-2.542,3.62V56.421h-12.17V12.362h12.17Z" fill="none" stroke="#000" stroke-miterlimit="10" stroke-width="1"/>
    <path id="路径_2811" data-name="路径 2811" d="M565.493,17.831h.153c1.156-3.851,4.083-6.008,8.859-6.008,5.468,0,8.242,3.774,8.242,10.091V56.421H570.576V25.842c0-1.926-.153-4.006-2.465-4.006s-2.618,2.08-2.618,4.006V56.421H553.322V12.362h12.171Z" fill="#f0f"/>
    <path id="路径_2812" data-name="路径 2812" d="M565.493,17.831h.153c1.156-3.851,4.083-6.008,8.859-6.008,5.468,0,8.242,3.774,8.242,10.091V56.421H570.576V25.842c0-1.926-.153-4.006-2.465-4.006s-2.618,2.08-2.618,4.006V56.421H553.322V12.362h12.171Z" fill="none" stroke="#000" stroke-miterlimit="10" stroke-width="1"/>
  </g>
</svg>
