<svg id="组_1590" data-name="组 1590" xmlns="http://www.w3.org/2000/svg" xmlns:xlink="http://www.w3.org/1999/xlink" width="272.619" height="63.545" viewBox="0 0 272.619 63.545">
  <defs>
    <clipPath id="clip-path">
      <rect id="矩形_823" data-name="矩形 823" width="272.619" height="63.545" transform="translate(0 0)" fill="none"/>
    </clipPath>
  </defs>
  <rect id="矩形_819" data-name="矩形 819" width="263.512" height="54.437" transform="translate(9.107 9.108)"/>
  <rect id="矩形_820" data-name="矩形 820" width="263.511" height="54.437" transform="translate(1.108 1.108)" fill="#009ee7"/>
  <g id="组_1589" data-name="组 1589">
    <g id="组_1588" data-name="组 1588" clip-path="url(#clip-path)">
      <rect id="矩形_821" data-name="矩形 821" width="263.511" height="54.437" transform="translate(1.108 1.108)" fill="none" stroke="#000" stroke-miterlimit="10" stroke-width="2.215"/>
      <path id="路径_3041" data-name="路径 3041" d="M51.573,39.175V19.957h5.48c3.563,0,5.857.809,5.857,4.129v3.509c0,2.888-2.564,4.157-5.21,4.157H56.054v7.423ZM56.054,29h.7c1.565,0,1.673-.864,1.673-3.131s-.108-3.159-1.673-3.159h-.7Z"/>
      <path id="路径_3042" data-name="路径 3042" d="M64.048,39.175V19.956h4.507c4.265,0,6.8.432,6.8,4.481,0,2.4-1,3.968-3.428,4.373v.054c2.16.054,3.428.864,3.428,3.617V36.5a4.988,4.988,0,0,0,.675,2.672H71.525a4.952,4.952,0,0,1-.648-2.672V32.427c0-1.35-.81-2.025-1.62-2.025h-.729v8.773Zm4.48-11.526c2.024,0,2.349-.675,2.349-2.483,0-1.782-.3-2.457-2.349-2.457Z"/>
      <path id="路径_3043" data-name="路径 3043" d="M87.966,33.938c0,4.4-2.7,5.615-5.669,5.615s-5.668-1.215-5.668-5.615V25.193c0-4.4,2.7-5.615,5.668-5.615s5.669,1.215,5.669,5.615ZM81.11,34.964c0,.783.243,1.512,1.187,1.512s1.188-.729,1.188-1.512v-10.8c0-.783-.243-1.512-1.188-1.512s-1.187.729-1.187,1.512Z"/>
      <path id="路径_3044" data-name="路径 3044" d="M89.156,19.956h4.616c5.021,0,6.721.809,6.721,6.559v6.856c0,3.644-1.08,5.8-6.721,5.8H89.156Zm4.481,16.465c2.187,0,2.375-.836,2.375-2.672V25.84c0-2.565-.108-3.131-2.375-3.131Z"/>
      <path id="路径_3045" data-name="路径 3045" d="M113.021,33.695c-.108,4.076-1.511,5.857-5.7,5.857-5.534,0-5.642-3.859-5.642-6.289V19.956h4.481V33.8c0,1.538,0,2.672,1.161,2.672,1.215,0,1.215-1.134,1.215-2.672V19.956h4.48Z"/>
      <path id="路径_3046" data-name="路径 3046" d="M125.549,31.7v2.538c0,3.589-1.917,5.317-5.7,5.317-2.97,0-5.642-1.215-5.642-5.615V25.193c0-4.4,2.672-5.615,5.642-5.615,3.266,0,5.7.972,5.7,5.129v2.1h-4.48V24.167c0-.783-.244-1.511-1.215-1.511-.918,0-1.161.728-1.161,1.511v10.8c0,.783.243,1.512,1.161,1.512.971,0,1.215-.729,1.215-1.512L121.1,31.7Z"/>
      <path id="路径_3047" data-name="路径 3047" d="M126.523,22.871V19.956h10.743v2.915h-3.131v16.3h-4.481v-16.3Z"/>
      <path id="路径_3048" data-name="路径 3048" d="M144.505,19.956h4.616c5.021,0,6.721.809,6.721,6.559v6.856c0,3.644-1.08,5.8-6.721,5.8h-4.616Zm4.481,16.465c2.187,0,2.375-.836,2.375-2.672V25.84c0-2.565-.107-3.131-2.375-3.131Z"/>
      <path id="路径_3049" data-name="路径 3049" d="M156.979,39.175V19.956h9.285v2.915h-4.8v4.211H166.1V30h-4.644V36.26h4.8v2.915Z"/>
      <path id="路径_3050" data-name="路径 3050" d="M166.807,22.871V19.956H177.55v2.915h-3.131v16.3h-4.481v-16.3Z"/>
      <path id="路径_3051" data-name="路径 3051" d="M185.164,19.956l2.484,19.219h-4.454l-.513-4.723h-2.429l-.729,4.723h-3.779l3.266-19.219Zm-2.807,11.58-.783-8.557h-.054l-.783,8.557Z"/>
      <rect id="矩形_822" data-name="矩形 822" width="4.481" height="19.219" transform="translate(188.487 19.956)"/>
      <path id="路径_3052" data-name="路径 3052" d="M194.023,39.175V19.956h4.48v16.3h4.859v2.915Z"/>
      <path id="路径_3053" data-name="路径 3053" d="M210.923,26.839v-2.7c0-.945-.3-1.485-1.188-1.485-.972,0-1.187.54-1.187,1.485,0,3.239,6.855,4.184,6.855,10.122,0,3.618-1.943,5.291-5.7,5.291-2.861,0-5.641-.972-5.641-4.292V31.7h4.481v3.32c0,1.134.351,1.458,1.187,1.458.729,0,1.188-.324,1.188-1.458,0-4.346-6.856-4.427-6.856-10.635,0-3.482,2.294-4.805,5.749-4.805,3.024,0,5.587,1.026,5.587,4.238v3.023Z"/>
    </g>
  </g>
</svg>
