<svg id="组_1653" data-name="组 1653" xmlns="http://www.w3.org/2000/svg" xmlns:xlink="http://www.w3.org/1999/xlink" width="427.262" height="75.614" viewBox="0 0 427.262 75.614">
  <defs>
    <clipPath id="clip-path">
      <rect id="矩形_935" data-name="矩形 935" width="427.262" height="75.614" fill="none"/>
    </clipPath>
    <clipPath id="clip-path-2">
      <rect id="矩形_936" data-name="矩形 936" width="418.191" height="66.676" rx="11.253" transform="translate(8.938 8.938)" fill="none"/>
    </clipPath>
    <clipPath id="clip-path-3">
      <path id="矩形_938" data-name="矩形 938" d="M11.253,0H406.938a11.253,11.253,0,0,1,11.253,11.253V55.424a11.253,11.253,0,0,1-11.253,11.253H11.254A11.254,11.254,0,0,1,0,55.423V11.253A11.253,11.253,0,0,1,11.253,0Z" transform="translate(0.938 0.937)" fill="none"/>
    </clipPath>
  </defs>
  <g id="组_1646" data-name="组 1646">
    <g id="组_1645" data-name="组 1645" clip-path="url(#clip-path)">
      <path id="路径_3327" data-name="路径 3327" d="M415.876,75.614H20.191A11.286,11.286,0,0,1,8.938,64.361V20.191A11.286,11.286,0,0,1,20.191,8.938H415.876a11.286,11.286,0,0,1,11.253,11.253v44.17a11.286,11.286,0,0,1-11.253,11.253"/>
    </g>
  </g>
  <g id="组_1648" data-name="组 1648">
    <g id="组_1647" data-name="组 1647" clip-path="url(#clip-path-2)">
      <path id="路径_3328" data-name="路径 3328" d="M416.008,75.614H20.191A11.286,11.286,0,0,1,8.937,64.361V20.191A11.286,11.286,0,0,1,20.191,8.938H416.008a11.286,11.286,0,0,1,11.253,11.253v44.17a11.286,11.286,0,0,1-11.253,11.253"/>
    </g>
  </g>
  <g id="组_1650" data-name="组 1650">
    <g id="组_1649" data-name="组 1649" clip-path="url(#clip-path-3)">
      <path id="路径_3329" data-name="路径 3329" d="M408.008,67.614H12.191A11.286,11.286,0,0,1,.937,56.361V12.191A11.286,11.286,0,0,1,12.191.938H408.008a11.286,11.286,0,0,1,11.253,11.253v44.17a11.286,11.286,0,0,1-11.253,11.253" fill="#fff"/>
      <path id="矩形_937" data-name="矩形 937" d="M11.253,0H407.07a11.254,11.254,0,0,1,11.254,11.254V55.422A11.254,11.254,0,0,1,407.07,66.676H11.253A11.253,11.253,0,0,1,0,55.423V11.253A11.253,11.253,0,0,1,11.253,0Z" transform="translate(0.937 0.938)" fill="none" stroke="#231815" stroke-miterlimit="10" stroke-width="1.876"/>
    </g>
  </g>
  <g id="组_1652" data-name="组 1652">
    <g id="组_1651" data-name="组 1651" clip-path="url(#clip-path)">
      <path id="路径_3330" data-name="路径 3330" d="M35.427,10.614c.63.112,1.263.209,1.89.338a17.3,17.3,0,0,1,9.366,5.234,17.342,17.342,0,0,1,2.145,20.886c-.111.185-.223.369-.378.625a3.688,3.688,0,0,1,.375.292q5.055,5.048,10.107,10.1a6.832,6.832,0,0,1,2.2,3.033v1.306c-.112.258-.215.52-.339.772a3.472,3.472,0,0,1-5.747.854q-4.29-4.27-8.564-8.559c-.965-.965-1.928-1.932-2.9-2.906-.677.373-1.326.779-2.014,1.1a16.835,16.835,0,0,1-14.479.328A16.992,16.992,0,0,1,16.964,31.863a16.619,16.619,0,0,1,.5-9.424,17.453,17.453,0,0,1,14.18-11.665c.276-.037.548-.106.822-.16ZM49.62,27.746A15.674,15.674,0,1,0,34.543,43.7,15.68,15.68,0,0,0,49.62,27.746M48.785,45.33a.771.771,0,0,0,.076.084q3.711,3.709,7.422,7.416a3.066,3.066,0,0,0,.326.288,1.7,1.7,0,0,0,2.131-.047,1.731,1.731,0,0,0,.036-2.671q-3.716-3.734-7.449-7.451c-.056-.057-.121-.1-.085-.075L48.785,45.33m-3.636-3.7,2.39,2.382,2.372-2.353-2.4-2.4-2.365,2.375" fill="#020202"/>
      <path id="路径_3331" data-name="路径 3331" d="M49.62,27.747A15.674,15.674,0,1,1,33.655,12.372,15.688,15.688,0,0,1,49.62,27.747m-1.735.29a13.94,13.94,0,1,0-13.93,13.936,13.989,13.989,0,0,0,13.93-13.936" fill="#4cb8e7"/>
      <path id="路径_3332" data-name="路径 3332" d="M48.785,45.33l2.456-2.456c-.035-.03.029.018.086.075q3.726,3.723,7.449,7.451a1.732,1.732,0,0,1-.036,2.671,1.7,1.7,0,0,1-2.132.047,3.161,3.161,0,0,1-.325-.287q-3.713-3.708-7.422-7.417a.612.612,0,0,1-.076-.084" fill="#4cb8e8"/>
      <path id="路径_3333" data-name="路径 3333" d="M45.149,41.626l2.365-2.375,2.4,2.4-2.372,2.353-2.39-2.382" fill="#faf0c9"/>
      <path id="路径_3334" data-name="路径 3334" d="M47.885,28.037A13.94,13.94,0,1,1,33.957,14.1,13.991,13.991,0,0,1,47.885,28.037M33.96,40.23A12.194,12.194,0,1,0,21.749,28.061,12.239,12.239,0,0,0,33.96,40.23" fill="#010203"/>
      <path id="路径_3335" data-name="路径 3335" d="M33.96,40.23a12.195,12.195,0,1,1,12.182-12.2A12.24,12.24,0,0,1,33.96,40.23M34.3,17.6a3.022,3.022,0,0,0-.476,0A.856.856,0,0,0,33.8,19.3c.14.028.29.01.432.035a17.026,17.026,0,0,1,2.505.48,8.593,8.593,0,0,1,5.3,4.988.882.882,0,0,0,1.2.6.9.9,0,0,0,.4-1.25A10.459,10.459,0,0,0,34.3,17.6m9.235,9.569a.867.867,0,1,0,.857.865.894.894,0,0,0-.857-.865" fill="#bde5f2"/>
      <path id="路径_3336" data-name="路径 3336" d="M34.305,17.6a10.463,10.463,0,0,1,9.34,6.55.9.9,0,0,1-.4,1.25.882.882,0,0,1-1.2-.6,8.591,8.591,0,0,0-5.3-4.988,17.013,17.013,0,0,0-2.5-.48c-.142-.025-.292-.007-.433-.035a.857.857,0,0,1,.03-1.695,3.047,3.047,0,0,1,.478,0" fill="#020303"/>
      <path id="路径_3337" data-name="路径 3337" d="M43.539,27.169a.867.867,0,1,1-.876.846.894.894,0,0,1,.876-.846" fill="#060707"/>
      <path id="路径_3338" data-name="路径 3338" d="M78.817,41.713a.373.373,0,0,1-.409-.332l-4.827-17.5a.309.309,0,0,1,.332-.434h2.5a.356.356,0,0,1,.409.332l2.12,8.48c.434,1.737.868,3.883,1.226,5.773h.076c.409-1.916,1.022-4.317,1.558-6.207L84,24.037a.372.372,0,0,1,.409-.332h2.5a.373.373,0,0,1,.409.332l2.222,7.791c.537,1.89,1.124,4.291,1.533,6.207h.076c.332-1.89.792-4.036,1.226-5.773l2.121-8.48a.344.344,0,0,1,.382-.332h2.53a.317.317,0,0,1,.332.434l-4.828,17.5a.372.372,0,0,1-.409.332H89.826a.386.386,0,0,1-.408-.332l-2.376-8.046a54.333,54.333,0,0,1-1.329-5.722h-.1c-.28,1.609-.74,3.729-1.3,5.722l-2.4,8.046a.388.388,0,0,1-.409.332Z" fill="#717071"/>
      <path id="路径_3339" data-name="路径 3339" d="M106.508,28.175c3.116,0,5.568,1.661,5.568,5.773V41.33c0,.255-.128.383-.357.383H109.5a.35.35,0,0,1-.383-.383V34.025c0-2.453-1.021-3.193-2.912-3.193a5.826,5.826,0,0,0-2.452.46V41.33a.339.339,0,0,1-.383.383h-2.2a.339.339,0,0,1-.383-.383v-17.5a.338.338,0,0,1,.383-.383h2.2a.338.338,0,0,1,.383.383V28.61a8.425,8.425,0,0,1,2.759-.435" fill="#717071"/>
      <path id="路径_3340" data-name="路径 3340" d="M121.2,28.175c3.167,0,5.312,1.584,5.312,5.186v7.458a.446.446,0,0,1-.28.434,18.428,18.428,0,0,1-5.135.767c-2.963,0-5.7-1.073-5.7-4.266,0-2.784,2.325-4.086,5.594-4.086a20.294,20.294,0,0,1,2.554.2v-.486c0-1.813-.664-2.579-2.554-2.579a6.578,6.578,0,0,0-3.269.817.334.334,0,0,1-.512-.1l-1.021-1.559c-.128-.2-.128-.332,0-.434a8.813,8.813,0,0,1,5.007-1.354m-.1,11.265a11.424,11.424,0,0,0,2.452-.307V36.247a18.7,18.7,0,0,0-2.477-.2c-1.916,0-2.682.638-2.682,1.686,0,1.2,1.149,1.711,2.707,1.711" fill="#717071"/>
      <path id="路径_3341" data-name="路径 3341" d="M135.606,39.312c.229,0,.639-.026,1.047-.051.256,0,.409.128.409.357V41.56a.374.374,0,0,1-.357.408c-.435.026-.971.052-1.355.052-2.656,0-4.725-1.354-4.725-4.726V25.621c0-.23.127-.358.383-.358h1.942a.367.367,0,0,1,.383.332l.229,3.065h2.733a.343.343,0,0,1,.383.358v1.864a.343.343,0,0,1-.383.358h-2.707v5.849c0,1.406.715,2.223,2.018,2.223" fill="#717071"/>
      <path id="路径_3342" data-name="路径 3342" d="M151.879,28.175c3.167,0,5.312,1.584,5.312,5.186v7.458a.446.446,0,0,1-.28.434,18.422,18.422,0,0,1-5.135.767c-2.963,0-5.7-1.073-5.7-4.266,0-2.784,2.325-4.086,5.594-4.086a20.294,20.294,0,0,1,2.554.2v-.486c0-1.813-.664-2.579-2.554-2.579a6.578,6.578,0,0,0-3.269.817.333.333,0,0,1-.512-.1l-1.021-1.559c-.128-.2-.128-.332,0-.434a8.813,8.813,0,0,1,5.007-1.354m-.1,11.265a11.424,11.424,0,0,0,2.452-.307V36.247a18.7,18.7,0,0,0-2.477-.2c-1.916,0-2.682.638-2.682,1.686,0,1.2,1.149,1.711,2.707,1.711" fill="#717071"/>
      <path id="路径_3343" data-name="路径 3343" d="M161.739,41.713a.338.338,0,0,1-.383-.383V29.58a.414.414,0,0,1,.28-.434,10.407,10.407,0,0,1,4.471-.971,16.307,16.307,0,0,1,2.606.2.349.349,0,0,1,.332.383V30.6c0,.23-.154.357-.41.306a13.7,13.7,0,0,0-2.068-.1,6.32,6.32,0,0,0-2.248.358V41.33a.339.339,0,0,1-.384.383Z" fill="#717071"/>
      <path id="路径_3344" data-name="路径 3344" d="M182.609,35.992c0,.23-.127.357-.383.357h-7.765v.716c0,1.558,1.072,2.35,2.707,2.35a6.056,6.056,0,0,0,3.6-1.176.344.344,0,0,1,.51.077l1.048,1.4a.34.34,0,0,1-.077.537,8.032,8.032,0,0,1-5.184,1.762c-2.887,0-5.6-1.584-5.6-4.981V33.412c0-3.755,2.81-5.236,5.62-5.236,2.784,0,5.517,1.481,5.517,5.236Zm-5.517-5.211a2.348,2.348,0,0,0-2.631,2.605v.665h5.262v-.665a2.393,2.393,0,0,0-2.631-2.605" fill="#717071"/>
      <path id="路径_3345" data-name="路径 3345" d="M201.079,28.84c0-.23.128-.358.383-.358h2.2c.255,0,.383.128.383.358V40.871c0,3.933-1.788,5.951-5.7,5.951a7.287,7.287,0,0,1-5.006-1.609.327.327,0,0,1-.077-.511l1.1-1.558a.314.314,0,0,1,.486-.128,6.031,6.031,0,0,0,3.473,1.175c1.763,0,2.887-.766,2.784-3.32a9.434,9.434,0,0,1-2.732.459c-2.657,0-5.467-1.685-5.467-5.21V28.84a.343.343,0,0,1,.383-.358h2.223a.323.323,0,0,1,.357.358v7.152c0,1.967,1.38,2.657,2.912,2.657a4.784,4.784,0,0,0,2.3-.512Z" fill="#717071"/>
      <path id="路径_3346" data-name="路径 3346" d="M213.8,42.02c-3.525,0-5.824-1.993-5.824-5.16V33.437c0-3.219,2.3-5.262,5.824-5.262s5.823,2.043,5.823,5.262V36.86c0,3.167-2.3,5.16-5.823,5.16m0-2.657c1.813,0,2.835-.868,2.835-2.5V33.437c0-1.686-1.022-2.6-2.835-2.6-1.839,0-2.836.919-2.836,2.6V36.86c0,1.635,1,2.5,2.836,2.5" fill="#717071"/>
      <path id="路径_3347" data-name="路径 3347" d="M234.162,28.482a.343.343,0,0,1,.383.358v11.7a.459.459,0,0,1-.281.459,12.685,12.685,0,0,1-5.006,1.022c-3.474,0-5.85-1.661-5.85-5.747V28.84c0-.23.128-.358.383-.358h2.223a.323.323,0,0,1,.357.358v7.382c0,2.4,1.073,3.141,2.887,3.141a7.784,7.784,0,0,0,2.324-.306V28.84a.323.323,0,0,1,.357-.358Z" fill="#717071"/>
      <path id="路径_3348" data-name="路径 3348" d="M249.693,42.02c-2.758,0-4.266-1.839-4.266-4.956V23.833a.339.339,0,0,1,.384-.383h2.2a.339.339,0,0,1,.384.383V36.962c0,1.686.536,2.35,1.686,2.35.306,0,.638-.025.97-.051a.339.339,0,0,1,.383.384v1.89c0,.2-.076.383-.281.408a12.864,12.864,0,0,1-1.456.077" fill="#717071"/>
      <path id="路径_3349" data-name="路径 3349" d="M259.759,42.02c-3.525,0-5.824-1.993-5.824-5.16V33.437c0-3.219,2.3-5.262,5.824-5.262s5.823,2.043,5.823,5.262V36.86c0,3.167-2.3,5.16-5.823,5.16m0-2.657c1.813,0,2.835-.868,2.835-2.5V33.437c0-1.686-1.022-2.6-2.835-2.6-1.839,0-2.836.919-2.836,2.6V36.86c0,1.635,1,2.5,2.836,2.5" fill="#717071"/>
      <path id="路径_3350" data-name="路径 3350" d="M274.882,42.02c-3.525,0-5.824-1.993-5.824-5.16V33.437c0-3.219,2.3-5.262,5.824-5.262s5.823,2.043,5.823,5.262V36.86c0,3.167-2.3,5.16-5.823,5.16m0-2.657c1.813,0,2.835-.868,2.835-2.5V33.437c0-1.686-1.022-2.6-2.835-2.6-1.839,0-2.836.919-2.836,2.6V36.86c0,1.635,1,2.5,2.836,2.5" fill="#717071"/>
      <path id="路径_3351" data-name="路径 3351" d="M292.994,41.713a.506.506,0,0,1-.485-.23l-4.01-5.262-.895.92V41.33a.338.338,0,0,1-.382.383h-2.2a.339.339,0,0,1-.383-.383v-17.5a.338.338,0,0,1,.383-.383h2.2a.338.338,0,0,1,.382.383v9.706l4.5-4.879a.506.506,0,0,1,.459-.178h2.632c.332,0,.408.2.2.434l-4.929,5.236,5.466,7.1c.178.255.1.46-.23.46Z" fill="#717071"/>
      <path id="路径_3352" data-name="路径 3352" d="M300.249,26.693a1.668,1.668,0,0,1-1.686-1.685,1.632,1.632,0,0,1,1.686-1.661,1.6,1.6,0,0,1,1.66,1.661,1.63,1.63,0,0,1-1.66,1.685m-1.124,15.02a.35.35,0,0,1-.383-.383V28.839a.342.342,0,0,1,.383-.357h2.223a.323.323,0,0,1,.357.357V41.33c0,.255-.128.383-.357.383Z" fill="#717071"/>
      <path id="路径_3353" data-name="路径 3353" d="M306.406,41.713a.338.338,0,0,1-.383-.383v-11.7a.469.469,0,0,1,.28-.46,13.085,13.085,0,0,1,5.084-1c3.525,0,5.926,1.635,5.926,5.722V41.33c0,.255-.128.383-.357.383h-2.223a.35.35,0,0,1-.383-.383V33.948c0-2.4-1.1-3.116-2.963-3.116a10.514,10.514,0,0,0-2.4.28V41.33a.339.339,0,0,1-.384.383Z" fill="#717071"/>
      <path id="路径_3354" data-name="路径 3354" d="M326.689,46.822a7.657,7.657,0,0,1-4.98-1.584c-.2-.127-.2-.281-.077-.511l1.073-1.583a.316.316,0,0,1,.511-.1,5.824,5.824,0,0,0,3.448,1.149c1.916,0,2.836-.843,2.759-3.423a7.6,7.6,0,0,1-2.835.562c-3.015,0-5.518-1.685-5.518-5.288v-2.4c0-4.009,2.656-5.466,5.9-5.466a13.442,13.442,0,0,1,5.108,1,.414.414,0,0,1,.281.433V40.87c0,3.78-1.635,5.952-5.671,5.952m.179-8.1a4.448,4.448,0,0,0,2.529-.637V31.112a9.36,9.36,0,0,0-2.376-.28c-1.761,0-2.963.612-2.963,2.809v2.4c0,2.019,1.252,2.682,2.81,2.682" fill="#717071"/>
      <path id="路径_3355" data-name="路径 3355" d="M348.377,25.723c-1.354,0-2.069.894-2.069,2.35v.588h2.937a.349.349,0,0,1,.383.383v1.839a.349.349,0,0,1-.383.383h-2.937V41.33a.339.339,0,0,1-.383.383h-2.2a.339.339,0,0,1-.383-.383V28.073c0-3.3,2.069-4.93,4.572-4.93a9.236,9.236,0,0,1,1.558.1.362.362,0,0,1,.358.409v1.763q0,.383-.307.383a7.4,7.4,0,0,0-1.149-.077" fill="#717071"/>
      <path id="路径_3356" data-name="路径 3356" d="M357.983,42.02c-3.525,0-5.824-1.993-5.824-5.16V33.437c0-3.219,2.3-5.262,5.824-5.262s5.823,2.043,5.823,5.262V36.86c0,3.167-2.3,5.16-5.823,5.16m0-2.657c1.813,0,2.835-.868,2.835-2.5V33.437c0-1.686-1.022-2.6-2.835-2.6-1.839,0-2.836.919-2.836,2.6V36.86c0,1.635,1,2.5,2.836,2.5" fill="#717071"/>
      <path id="路径_3357" data-name="路径 3357" d="M368.074,41.713a.338.338,0,0,1-.383-.383V29.58a.414.414,0,0,1,.28-.434,10.407,10.407,0,0,1,4.471-.971,16.307,16.307,0,0,1,2.606.2.349.349,0,0,1,.332.383V30.6c0,.23-.154.357-.41.306a13.7,13.7,0,0,0-2.068-.1,6.32,6.32,0,0,0-2.248.358V41.33a.339.339,0,0,1-.384.383Z" fill="#717071"/>
      <path id="路径_3358" data-name="路径 3358" d="M387.616,36.732a.342.342,0,0,1-.382-.357V35.046c0-3.576,4.6-3.448,4.6-6.539a2.625,2.625,0,0,0-2.963-2.733,4.785,4.785,0,0,0-3.473,1.456.313.313,0,0,1-.537-.051l-1.123-1.609a.366.366,0,0,1,.05-.511,7.7,7.7,0,0,1,5.159-1.916c3.015,0,5.825,1.762,5.825,5.339,0,4.444-4.6,3.959-4.6,7.126v.767c0,.255-.128.357-.383.357Zm1.1,5.109a1.878,1.878,0,0,1,0-3.755,1.878,1.878,0,1,1,0,3.755" fill="#717071"/>
    </g>
  </g>
</svg>
