<svg id="组_1584" data-name="组 1584" xmlns="http://www.w3.org/2000/svg" xmlns:xlink="http://www.w3.org/1999/xlink" width="410.275" height="63.533" viewBox="0 0 410.275 63.533">
  <defs>
    <clipPath id="clip-path">
      <rect id="矩形_812" data-name="矩形 812" width="410.276" height="63.533" transform="translate(0 0)" fill="none"/>
    </clipPath>
  </defs>
  <rect id="矩形_808" data-name="矩形 808" width="401.18" height="54.437" transform="translate(9.095 9.096)"/>
  <rect id="矩形_809" data-name="矩形 809" width="401.18" height="54.437" transform="translate(1.096 1.096)" fill="#009ee7"/>
  <g id="组_1583" data-name="组 1583">
    <g id="组_1582" data-name="组 1582" clip-path="url(#clip-path)">
      <rect id="矩形_810" data-name="矩形 810" width="401.18" height="54.437" transform="translate(1.096 1.096)" fill="none" stroke="#000" stroke-miterlimit="10" stroke-width="2.191"/>
      <path id="路径_3014" data-name="路径 3014" d="M26.565,24.483v-4.55c0-1.593-.5-2.5-2-2.5-1.638,0-2,.91-2,2.5,0,5.46,11.558,7.053,11.558,17.063,0,6.1-3.277,8.919-9.6,8.919-4.823,0-9.51-1.639-9.51-7.235V32.673H22.56v5.6c0,1.911.592,2.457,2,2.457,1.23,0,2-.546,2-2.457,0-7.326-11.558-7.462-11.558-17.928,0-5.869,3.868-8.1,9.692-8.1,5.1,0,9.419,1.729,9.419,7.144v5.1Z"/>
      <path id="路径_3015" data-name="路径 3015" d="M36.116,45.277V12.88H43.67V24.892h4V12.88h7.553v32.4H47.674V29.806h-4V45.277Z"/>
      <path id="路径_3016" data-name="路径 3016" d="M76.336,36.45c0,7.416-4.55,9.464-9.556,9.464s-9.555-2.048-9.555-9.464V21.707c0-7.417,4.55-9.464,9.555-9.464s9.556,2.047,9.556,9.464ZM64.778,38.179c0,1.319.41,2.548,2,2.548s2-1.229,2-2.548v-18.2c0-1.32-.41-2.548-2-2.548s-2,1.228-2,2.548Z"/>
      <path id="路径_3017" data-name="路径 3017" d="M78.334,45.277V12.88h9.237c6.006,0,9.874,1.365,9.874,6.962v5.915c0,4.869-4.323,7.007-8.782,7.007H85.887V45.277Zm7.553-17.154h1.184c2.638,0,2.821-1.456,2.821-5.278s-.183-5.324-2.821-5.324H85.887Z"/>
      <path id="路径_3018" data-name="路径 3018" d="M109.633,17.794V12.88h18.109v4.914h-5.278V45.277h-7.553V17.794Z"/>
      <path id="路径_3019" data-name="路径 3019" d="M148.489,36.45c0,7.416-4.55,9.464-9.556,9.464s-9.555-2.048-9.555-9.464V21.707c0-7.417,4.55-9.464,9.555-9.464s9.556,2.047,9.556,9.464Zm-11.558,1.729c0,1.319.41,2.548,2,2.548s2-1.229,2-2.548v-18.2c0-1.32-.41-2.548-2-2.548s-2,1.228-2,2.548Z"/>
      <path id="路径_3020" data-name="路径 3020" d="M160.677,17.794V12.88h18.109v4.914h-5.278V45.277h-7.553V17.794Z"/>
      <path id="路径_3021" data-name="路径 3021" d="M180.422,45.277V12.88h7.553V24.892h4.005V12.88h7.552v32.4H191.98V29.806h-4.005V45.277Z"/>
      <rect id="矩形_811" data-name="矩形 811" width="7.553" height="32.397" transform="translate(201.395 12.88)"/>
      <path id="路径_3022" data-name="路径 3022" d="M222.37,24.483v-4.55c0-1.593-.5-2.5-2-2.5-1.638,0-2,.91-2,2.5,0,5.46,11.558,7.053,11.558,17.063,0,6.1-3.278,8.919-9.6,8.919-4.823,0-9.511-1.639-9.511-7.235V32.673h7.554v5.6c0,1.911.591,2.457,2,2.457,1.229,0,2-.546,2-2.457,0-7.326-11.559-7.462-11.559-17.928,0-5.869,3.869-8.1,9.692-8.1,5.1,0,9.42,1.729,9.42,7.144v5.1Z"/>
      <path id="路径_3023" data-name="路径 3023" d="M257.853,12.88l4.187,32.4h-7.508l-.864-7.963h-4.1l-1.228,7.963h-6.37l5.505-32.4ZM253.122,32.4,251.8,17.976h-.092L250.392,32.4Z"/>
      <path id="路径_3024" data-name="路径 3024" d="M263.584,12.88h7.781c8.463,0,11.33,1.365,11.33,11.057V35.494c0,6.143-1.821,9.783-11.33,9.783h-7.781Zm7.553,27.756c3.686,0,4.005-1.411,4.005-4.505V22.8c0-4.322-.183-5.278-4.005-5.278Z"/>
      <path id="路径_3025" data-name="路径 3025" d="M284.692,12.88h7.782c8.462,0,11.33,1.365,11.33,11.057V35.494c0,6.143-1.821,9.783-11.33,9.783h-7.782Zm7.554,27.756c3.686,0,4-1.411,4-4.505V22.8c0-4.322-.182-5.278-4-5.278Z"/>
      <path id="路径_3026" data-name="路径 3026" d="M305.711,45.277V12.88h7.6c7.189,0,11.466.728,11.466,7.553,0,4.05-1.684,6.689-5.779,7.372v.09c3.64.092,5.779,1.456,5.779,6.1v6.779a8.4,8.4,0,0,0,1.137,4.505h-7.6a8.345,8.345,0,0,1-1.092-4.505V33.9c0-2.275-1.365-3.413-2.73-3.413h-1.229V45.277Zm7.553-19.429c3.413,0,3.959-1.138,3.959-4.186,0-3-.5-4.141-3.959-4.141Z"/>
      <path id="路径_3027" data-name="路径 3027" d="M326.82,45.277V12.88h15.652v4.914h-8.1v7.1H342.2v4.914h-7.826V40.363h8.1v4.914Z"/>
      <path id="路径_3028" data-name="路径 3028" d="M355.3,24.483v-4.55c0-1.593-.5-2.5-2-2.5-1.638,0-2,.91-2,2.5,0,5.46,11.558,7.053,11.558,17.063,0,6.1-3.277,8.919-9.6,8.919-4.823,0-9.51-1.639-9.51-7.235V32.673H351.3v5.6c0,1.911.592,2.457,2,2.457,1.229,0,2-.546,2-2.457,0-7.326-11.558-7.462-11.558-17.928,0-5.869,3.869-8.1,9.693-8.1,5.1,0,9.419,1.729,9.419,7.144v5.1Z"/>
      <path id="路径_3029" data-name="路径 3029" d="M376.411,24.483v-4.55c0-1.593-.5-2.5-2-2.5-1.638,0-2,.91-2,2.5,0,5.46,11.558,7.053,11.558,17.063,0,6.1-3.277,8.919-9.6,8.919-4.823,0-9.51-1.639-9.51-7.235V32.673h7.553v5.6c0,1.911.592,2.457,2,2.457,1.23,0,2-.546,2-2.457,0-7.326-11.558-7.462-11.558-17.928,0-5.869,3.868-8.1,9.692-8.1,5.1,0,9.419,1.729,9.419,7.144v5.1Z"/>
    </g>
  </g>
</svg>
