<svg id="组_1587" data-name="组 1587" xmlns="http://www.w3.org/2000/svg" xmlns:xlink="http://www.w3.org/1999/xlink" width="402.107" height="63.545" viewBox="0 0 402.107 63.545">
  <defs>
    <clipPath id="clip-path">
      <rect id="矩形_818" data-name="矩形 818" width="402.107" height="63.545" transform="translate(0 0)" fill="none"/>
    </clipPath>
  </defs>
  <rect id="矩形_813" data-name="矩形 813" width="393" height="54.437" transform="translate(9.107 9.108)"/>
  <rect id="矩形_814" data-name="矩形 814" width="393" height="54.437" transform="translate(1.107 1.108)" fill="#fff"/>
  <g id="组_1586" data-name="组 1586">
    <g id="组_1585" data-name="组 1585" clip-path="url(#clip-path)">
      <rect id="矩形_815" data-name="矩形 815" width="393" height="54.437" transform="translate(1.107 1.108)" fill="none" stroke="#000" stroke-miterlimit="10" stroke-width="2.215"/>
      <path id="路径_3030" data-name="路径 3030" d="M74.806,24.494V19.945c0-1.594-.5-2.5-2-2.5-1.639,0-2,.91-2,2.5C70.8,25.4,82.359,27,82.359,37.008c0,6.1-3.276,8.918-9.6,8.918-4.823,0-9.51-1.638-9.51-7.235V32.685H70.8v5.6c0,1.912.591,2.457,2,2.457,1.229,0,2-.545,2-2.457,0-7.325-11.558-7.462-11.558-17.928,0-5.869,3.869-8.1,9.693-8.1,5.1,0,9.418,1.729,9.418,7.143v5.1Z"/>
      <path id="路径_3031" data-name="路径 3031" d="M84.358,45.289v-32.4h7.554V24.9h4V12.892h7.552v32.4H95.916V29.818h-4V45.289Z"/>
      <path id="路径_3032" data-name="路径 3032" d="M124.577,36.462c0,7.416-4.55,9.463-9.555,9.463s-9.556-2.047-9.556-9.463V21.718c0-7.416,4.55-9.464,9.556-9.464s9.555,2.048,9.555,9.464ZM113.02,38.191c0,1.318.409,2.547,2,2.547s2-1.229,2-2.547V19.99c0-1.32-.409-2.549-2-2.549s-2,1.229-2,2.549Z"/>
      <path id="路径_3033" data-name="路径 3033" d="M126.575,45.288v-32.4h9.238c6,0,9.873,1.365,9.873,6.962v5.916c0,4.868-4.323,7.006-8.782,7.006h-2.775V45.288Zm7.554-17.154h1.183c2.639,0,2.821-1.456,2.821-5.277s-.182-5.325-2.821-5.325h-1.183Z"/>
      <rect id="矩形_816" data-name="矩形 816" width="7.554" height="32.397" transform="translate(158.102 12.891)"/>
      <path id="路径_3034" data-name="路径 3034" d="M167.246,12.891h10.466l4.823,23.57h.091V12.891h5.915v32.4H178.85l-5.6-27.074h-.091V45.288h-5.916Z"/>
      <path id="路径_3035" data-name="路径 3035" d="M200.821,12.891H208.6c8.462,0,11.329,1.365,11.329,11.058V35.505c0,6.143-1.82,9.784-11.329,9.784h-7.782Zm7.554,27.757c3.686,0,4-1.411,4-4.506V22.81c0-4.322-.182-5.277-4-5.277Z"/>
      <path id="路径_3036" data-name="路径 3036" d="M221.839,45.289v-32.4h15.652v4.915h-8.1v7.1h7.827v4.914h-7.827V40.375h8.1v4.914Z"/>
      <path id="路径_3037" data-name="路径 3037" d="M238.4,17.806V12.891h18.11v4.915h-5.278V45.288h-7.554V17.806Z"/>
      <path id="路径_3038" data-name="路径 3038" d="M269.338,12.891l4.186,32.4h-7.508l-.864-7.963h-4.1l-1.228,7.963h-6.37l5.5-32.4Zm-4.732,19.521-1.319-14.424H263.2l-1.32,14.424Z"/>
      <rect id="矩形_817" data-name="矩形 817" width="7.554" height="32.397" transform="translate(274.93 12.891)"/>
      <path id="路径_3039" data-name="路径 3039" d="M284.257,45.289v-32.4h7.553V40.375H300v4.914Z"/>
      <path id="路径_3040" data-name="路径 3040" d="M312.738,24.494V19.945c0-1.594-.5-2.5-2-2.5-1.639,0-2,.91-2,2.5,0,5.459,11.557,7.053,11.557,17.063,0,6.1-3.276,8.918-9.6,8.918-4.823,0-9.51-1.638-9.51-7.235V32.685h7.554v5.6c0,1.912.591,2.457,2,2.457,1.229,0,2-.545,2-2.457,0-7.325-11.558-7.462-11.558-17.928,0-5.869,3.869-8.1,9.693-8.1,5.1,0,9.418,1.729,9.418,7.143v5.1Z"/>
    </g>
  </g>
</svg>
