<svg id="组_1504" data-name="组 1504" xmlns="http://www.w3.org/2000/svg" xmlns:xlink="http://www.w3.org/1999/xlink" width="498.895" height="72.781" viewBox="0 0 498.895 72.781">
  <defs>
    <clipPath id="clip-path">
      <rect id="矩形_708" data-name="矩形 708" width="498.895" height="72.781" transform="translate(0 0)" fill="none"/>
    </clipPath>
  </defs>
  <g id="组_1503" data-name="组 1503" clip-path="url(#clip-path)">
    <path id="路径_2655" data-name="路径 2655" d="M26.065,27.22v-7.7c0-2.695-.847-4.236-3.389-4.236-2.773,0-3.388,1.541-3.388,4.236,0,9.244,19.563,11.94,19.563,28.885,0,10.322-5.545,15.1-16.253,15.1-8.164,0-16.1-2.774-16.1-12.248V41.085H19.288v9.474c0,3.235,1,4.16,3.388,4.16,2.08,0,3.389-.925,3.389-4.16,0-12.4-19.564-12.632-19.564-30.348C6.5,10.274,13.048,6.5,22.907,6.5c8.628,0,15.944,2.927,15.944,12.093V27.22Z"/>
    <path id="路径_2656" data-name="路径 2656" d="M26.065,27.22v-7.7c0-2.695-.847-4.236-3.389-4.236-2.773,0-3.388,1.541-3.388,4.236,0,9.244,19.563,11.94,19.563,28.885,0,10.322-5.545,15.1-16.253,15.1-8.164,0-16.1-2.774-16.1-12.248V41.085H19.288v9.474c0,3.235,1,4.16,3.388,4.16,2.08,0,3.389-.925,3.389-4.16,0-12.4-19.564-12.632-19.564-30.348C6.5,10.274,13.048,6.5,22.907,6.5c8.628,0,15.944,2.927,15.944,12.093V27.22Z" fill="none" stroke="#000" stroke-miterlimit="10" stroke-width="1"/>
    <path id="路径_2657" data-name="路径 2657" d="M42.24,62.421V7.578H54.41V23.831h.154c1.233-3.851,4.16-6.008,8.627-6.008,6.162,0,8.473,4.082,8.473,10.475V62.421H59.494V32.612c0-2.388-.077-4.776-2.542-4.776s-2.542,2.388-2.542,4.776V62.421Z"/>
    <path id="路径_2658" data-name="路径 2658" d="M42.24,62.421V7.578H54.41V23.831h.154c1.233-3.851,4.16-6.008,8.627-6.008,6.162,0,8.473,4.082,8.473,10.475V62.421H59.494V32.612c0-2.388-.077-4.776-2.542-4.776s-2.542,2.388-2.542,4.776V62.421Z" fill="none" stroke="#000" stroke-miterlimit="10" stroke-width="1"/>
    <path id="路径_2659" data-name="路径 2659" d="M104.479,51.253c0,8.165-6.933,11.708-14.713,11.708S75.054,59.418,75.054,51.253V30.225c0-7.934,5.238-12.4,14.712-12.4s14.713,4.467,14.713,12.4Zm-17.254.616c0,1.618.615,3.081,2.541,3.081s2.542-1.463,2.542-3.081V28.915c0-1.617-.616-3.081-2.542-3.081s-2.541,1.464-2.541,3.081Z"/>
    <path id="路径_2660" data-name="路径 2660" d="M104.479,51.253c0,8.165-6.933,11.708-14.713,11.708S75.054,59.418,75.054,51.253V30.225c0-7.934,5.238-12.4,14.712-12.4s14.713,4.467,14.713,12.4Zm-17.254.616c0,1.618.615,3.081,2.541,3.081s2.542-1.463,2.542-3.081V28.915c0-1.617-.616-3.081-2.542-3.081s-2.541,1.464-2.541,3.081Z" fill="none" stroke="#000" stroke-miterlimit="10" stroke-width="1"/>
    <path id="路径_2661" data-name="路径 2661" d="M120.037,24.139h.154c.617-4.622,3.929-6.316,8.4-6.316,6.7,0,8.7,5.7,8.7,11.245V53.409c0,5.392-2.311,9.551-8.473,9.551-4.467,0-7.549-2.31-8.627-6.316h-.154V72.28h-12.17V18.362h12.17Zm0,25.8c0,1.925,1.079,3,2.542,3s2.542-1.079,2.542-3V30.84c0-1.925-1.078-3-2.542-3s-2.542,1.079-2.542,3Z"/>
    <path id="路径_2662" data-name="路径 2662" d="M120.037,24.139h.154c.617-4.622,3.929-6.316,8.4-6.316,6.7,0,8.7,5.7,8.7,11.245V53.409c0,5.392-2.311,9.551-8.473,9.551-4.467,0-7.549-2.31-8.627-6.316h-.154V72.28h-12.17V18.362h12.17Zm0,25.8c0,1.925,1.079,3,2.542,3s2.542-1.079,2.542-3V30.84c0-1.925-1.078-3-2.542-3s-2.542,1.079-2.542,3Z" fill="none" stroke="#000" stroke-miterlimit="10" stroke-width="1"/>
    <path id="路径_2663" data-name="路径 2663" d="M157.088,7.579h13.094l2.7,39.052h.154l4.93-39.052h13.864l3.467,39.052h.153l4.006-39.052h11.324l-7.165,54.843H188.668l-4.93-42.288h-.153L179.04,62.422H164.328Z"/>
    <path id="路径_2664" data-name="路径 2664" d="M157.088,7.579h13.094l2.7,39.052h.154l4.93-39.052h13.864l3.467,39.052h.153l4.006-39.052h11.324l-7.165,54.843H188.668l-4.93-42.288h-.153L179.04,62.422H164.328Z" fill="none" stroke="#000" stroke-miterlimit="10" stroke-width="1"/>
    <path id="路径_2665" data-name="路径 2665" d="M211.47,7.579h12.17v7.78H211.47Zm0,10.784h12.17V62.422H211.47Z"/>
    <path id="路径_2666" data-name="路径 2666" d="M211.47,7.579h12.17v7.78H211.47Zm0,10.784h12.17V62.422H211.47Z" fill="none" stroke="#000" stroke-miterlimit="10" stroke-width="1"/>
    <path id="路径_2667" data-name="路径 2667" d="M226.028,26.373V18.362h4.082V10.429h12.171v7.933H247.6v8.011h-5.314V50.4c0,2.619.076,4.006,2.927,4.006H247.6v8.01h-9.936c-6.085,0-7.549-3.389-7.549-9.166V26.373Z"/>
    <path id="路径_2668" data-name="路径 2668" d="M226.028,26.373V18.362h4.082V10.429h12.171v7.933H247.6v8.011h-5.314V50.4c0,2.619.076,4.006,2.927,4.006H247.6v8.01h-9.936c-6.085,0-7.549-3.389-7.549-9.166V26.373Z" fill="none" stroke="#000" stroke-miterlimit="10" stroke-width="1"/>
    <path id="路径_2669" data-name="路径 2669" d="M249.906,62.421V7.578h12.17V23.831h.154c1.233-3.851,4.16-6.008,8.627-6.008,6.162,0,8.473,4.082,8.473,10.475V62.421H267.16V32.612c0-2.388-.077-4.776-2.542-4.776s-2.542,2.388-2.542,4.776V62.421Z"/>
    <path id="路径_2670" data-name="路径 2670" d="M249.906,62.421V7.578h12.17V23.831h.154c1.233-3.851,4.16-6.008,8.627-6.008,6.162,0,8.473,4.082,8.473,10.475V62.421H267.16V32.612c0-2.388-.077-4.776-2.542-4.776s-2.542,2.388-2.542,4.776V62.421Z" fill="none" stroke="#000" stroke-miterlimit="10" stroke-width="1"/>
    <path id="路径_2671" data-name="路径 2671" d="M300.59,62.421V7.578h15.637c10.167,0,16.714,2.311,16.714,11.785V29.377c0,8.242-7.317,11.862-14.866,11.862h-4.7V62.421Zm12.787-29.039h2c4.468,0,4.775-2.465,4.775-8.935s-.307-9.012-4.775-9.012h-2Z"/>
    <path id="路径_2672" data-name="路径 2672" d="M300.59,62.421V7.578h15.637c10.167,0,16.714,2.311,16.714,11.785V29.377c0,8.242-7.317,11.862-14.866,11.862h-4.7V62.421Zm12.787-29.039h2c4.468,0,4.775-2.465,4.775-8.935s-.307-9.012-4.775-9.012h-2Z" fill="none" stroke="#000" stroke-miterlimit="10" stroke-width="1"/>
    <path id="路径_2673" data-name="路径 2673" d="M353.584,56.953h-.154c-1.156,3.851-4.082,6.008-8.858,6.008-5.468,0-8.242-3.774-8.242-10.091V18.363H348.5V48.942c0,1.926.154,4.006,2.465,4.006s2.619-2.08,2.619-4.006V18.363h12.17V62.422h-12.17Z"/>
    <path id="路径_2674" data-name="路径 2674" d="M353.584,56.953h-.154c-1.156,3.851-4.082,6.008-8.858,6.008-5.468,0-8.242-3.774-8.242-10.091V18.363H348.5V48.942c0,1.926.154,4.006,2.465,4.006s2.619-2.08,2.619-4.006V18.363h12.17V62.422h-12.17Z" fill="none" stroke="#000" stroke-miterlimit="10" stroke-width="1"/>
    <path id="路径_2675" data-name="路径 2675" d="M367.681,62.421V54.41L379,26.373H367.681V18.362h24.8V25.14L380.7,54.41h12.17v8.011Z"/>
    <path id="路径_2676" data-name="路径 2676" d="M367.681,62.421V54.41L379,26.373H367.681V18.362h24.8V25.14L380.7,54.41h12.17v8.011Z" fill="none" stroke="#000" stroke-miterlimit="10" stroke-width="1"/>
    <path id="路径_2677" data-name="路径 2677" d="M393.33,62.421V54.41l11.322-28.037H393.33V18.362h24.8V25.14L406.348,54.41h12.169v8.011Z"/>
    <path id="路径_2678" data-name="路径 2678" d="M393.33,62.421V54.41l11.322-28.037H393.33V18.362h24.8V25.14L406.348,54.41h12.169v8.011Z" fill="none" stroke="#000" stroke-miterlimit="10" stroke-width="1"/>
    <rect id="矩形_704" data-name="矩形 704" width="12.17" height="54.843" transform="translate(420.52 7.579)"/>
    <rect id="矩形_705" data-name="矩形 705" width="12.17" height="54.843" transform="translate(420.52 7.579)" fill="none" stroke="#000" stroke-miterlimit="10" stroke-width="1"/>
    <path id="路径_2679" data-name="路径 2679" d="M448.326,41.778v8.935c0,2.619.925,4.237,2.542,4.237,1.926,0,2.542-1.618,2.542-4.237v-5.7h12.17v6.469c0,8.32-6.162,11.478-14.712,11.478-7.779,0-14.712-3.543-14.712-11.708V30.225c0-7.934,5.238-12.4,14.712-12.4,7.78,0,14.712,2.927,14.712,12.4V41.778Zm5.084-7.317V28.453a2.543,2.543,0,1,0-5.084,0v6.008Z"/>
    <path id="路径_2680" data-name="路径 2680" d="M448.326,41.778v8.935c0,2.619.925,4.237,2.542,4.237,1.926,0,2.542-1.618,2.542-4.237v-5.7h12.17v6.469c0,8.32-6.162,11.478-14.712,11.478-7.779,0-14.712-3.543-14.712-11.708V30.225c0-7.934,5.238-12.4,14.712-12.4,7.78,0,14.712,2.927,14.712,12.4V41.778Zm5.084-7.317V28.453a2.543,2.543,0,1,0-5.084,0v6.008Z" fill="none" stroke="#000" stroke-miterlimit="10" stroke-width="1"/>
    <path id="路径_2681" data-name="路径 2681" d="M486.224,33.922V29.146c0-1.849-.616-3.312-2.542-3.312s-2.541,1.463-2.541,3.312c0,7.548,17.022,6.162,17.022,20.489,0,8.7-5.238,13.326-15.4,13.326-7.779,0-13.788-3-13.788-10.938V45.014h12.171v6.624c0,1.848.615,3.312,2.541,3.312s2.542-1.464,2.542-3.312c0-10.476-17.254-7.24-17.254-21.568,0-8.781,6.239-12.247,14.25-12.247,9.243,0,15.175,3.62,15.175,11.015v5.084Z"/>
    <path id="路径_2682" data-name="路径 2682" d="M486.224,33.922V29.146c0-1.849-.616-3.312-2.542-3.312s-2.541,1.463-2.541,3.312c0,7.548,17.022,6.162,17.022,20.489,0,8.7-5.238,13.326-15.4,13.326-7.779,0-13.788-3-13.788-10.938V45.014h12.171v6.624c0,1.848.615,3.312,2.541,3.312s2.542-1.464,2.542-3.312c0-10.476-17.254-7.24-17.254-21.568,0-8.781,6.239-12.247,14.25-12.247,9.243,0,15.175,3.62,15.175,11.015v5.084Z" fill="none" stroke="#000" stroke-miterlimit="10" stroke-width="1"/>
    <path id="路径_2683" data-name="路径 2683" d="M20.065,21.22v-7.7c0-2.7-.847-4.236-3.389-4.236-2.773,0-3.388,1.541-3.388,4.236,0,9.244,19.563,11.94,19.563,28.885,0,10.322-5.545,15.1-16.253,15.1C8.434,57.5.5,54.726.5,45.252V35.085H13.288v9.474c0,3.235,1,4.16,3.388,4.16,2.08,0,3.389-.925,3.389-4.16C20.065,32.158.5,31.927.5,14.211.5,4.274,7.048.5,16.907.5c8.628,0,15.944,2.927,15.944,12.093V21.22Z" fill="#f0f"/>
    <path id="路径_2684" data-name="路径 2684" d="M20.065,21.22v-7.7c0-2.7-.847-4.236-3.389-4.236-2.773,0-3.388,1.541-3.388,4.236,0,9.244,19.563,11.94,19.563,28.885,0,10.322-5.545,15.1-16.253,15.1C8.434,57.5.5,54.726.5,45.252V35.085H13.288v9.474c0,3.235,1,4.16,3.388,4.16,2.08,0,3.389-.925,3.389-4.16C20.065,32.158.5,31.927.5,14.211.5,4.274,7.048.5,16.907.5c8.628,0,15.944,2.927,15.944,12.093V21.22Z" fill="none" stroke="#000" stroke-miterlimit="10" stroke-width="1"/>
    <path id="路径_2685" data-name="路径 2685" d="M36.24,56.421V1.578H48.41V17.831h.154c1.233-3.851,4.16-6.008,8.627-6.008,6.162,0,8.473,4.082,8.473,10.475V56.421H53.494V26.612c0-2.388-.077-4.776-2.542-4.776s-2.542,2.388-2.542,4.776V56.421Z" fill="#f0f"/>
    <path id="路径_2686" data-name="路径 2686" d="M36.24,56.421V1.578H48.41V17.831h.154c1.233-3.851,4.16-6.008,8.627-6.008,6.162,0,8.473,4.082,8.473,10.475V56.421H53.494V26.612c0-2.388-.077-4.776-2.542-4.776s-2.542,2.388-2.542,4.776V56.421Z" fill="none" stroke="#000" stroke-miterlimit="10" stroke-width="1"/>
    <path id="路径_2687" data-name="路径 2687" d="M98.479,45.253c0,8.165-6.933,11.708-14.713,11.708S69.054,53.418,69.054,45.253V24.225c0-7.934,5.238-12.4,14.712-12.4s14.713,4.467,14.713,12.4Zm-17.254.616c0,1.618.615,3.081,2.541,3.081s2.542-1.463,2.542-3.081V22.915c0-1.617-.616-3.081-2.542-3.081s-2.541,1.464-2.541,3.081Z" fill="#f0f"/>
    <path id="路径_2688" data-name="路径 2688" d="M98.479,45.253c0,8.165-6.933,11.708-14.713,11.708S69.054,53.418,69.054,45.253V24.225c0-7.934,5.238-12.4,14.712-12.4s14.713,4.467,14.713,12.4Zm-17.254.616c0,1.618.615,3.081,2.541,3.081s2.542-1.463,2.542-3.081V22.915c0-1.617-.616-3.081-2.542-3.081s-2.541,1.464-2.541,3.081Z" fill="none" stroke="#000" stroke-miterlimit="10" stroke-width="1"/>
    <path id="路径_2689" data-name="路径 2689" d="M114.037,18.139h.154c.617-4.622,3.929-6.316,8.4-6.316,6.7,0,8.7,5.7,8.7,11.245V47.409c0,5.392-2.311,9.551-8.473,9.551-4.467,0-7.549-2.31-8.627-6.316h-.154V66.28h-12.17V12.362h12.17Zm0,25.8c0,1.925,1.079,3,2.542,3s2.542-1.079,2.542-3V24.84c0-1.925-1.078-3-2.542-3s-2.542,1.079-2.542,3Z" fill="#f0f"/>
    <path id="路径_2690" data-name="路径 2690" d="M114.037,18.139h.154c.617-4.622,3.929-6.316,8.4-6.316,6.7,0,8.7,5.7,8.7,11.245V47.409c0,5.392-2.311,9.551-8.473,9.551-4.467,0-7.549-2.31-8.627-6.316h-.154V66.28h-12.17V12.362h12.17Zm0,25.8c0,1.925,1.079,3,2.542,3s2.542-1.079,2.542-3V24.84c0-1.925-1.078-3-2.542-3s-2.542,1.079-2.542,3Z" fill="none" stroke="#000" stroke-miterlimit="10" stroke-width="1"/>
    <path id="路径_2691" data-name="路径 2691" d="M151.088,1.579h13.094l2.7,39.052h.154l4.93-39.052h13.864l3.467,39.052h.153l4.006-39.052h11.324l-7.165,54.843H182.668l-4.93-42.288h-.153L173.04,56.422H158.328Z" fill="#f0f"/>
    <path id="路径_2692" data-name="路径 2692" d="M151.088,1.579h13.094l2.7,39.052h.154l4.93-39.052h13.864l3.467,39.052h.153l4.006-39.052h11.324l-7.165,54.843H182.668l-4.93-42.288h-.153L173.04,56.422H158.328Z" fill="none" stroke="#000" stroke-miterlimit="10" stroke-width="1"/>
    <path id="路径_2693" data-name="路径 2693" d="M205.47,1.579h12.17v7.78H205.47Zm0,10.784h12.17V56.422H205.47Z" fill="#f0f"/>
    <path id="路径_2694" data-name="路径 2694" d="M205.47,1.579h12.17v7.78H205.47Zm0,10.784h12.17V56.422H205.47Z" fill="none" stroke="#000" stroke-miterlimit="10" stroke-width="1"/>
    <path id="路径_2695" data-name="路径 2695" d="M220.028,20.373V12.362h4.082V4.429h12.171v7.933H241.6v8.011h-5.314V44.4c0,2.619.076,4.006,2.927,4.006H241.6v8.01h-9.936c-6.085,0-7.549-3.389-7.549-9.166V20.373Z" fill="#f0f"/>
    <path id="路径_2696" data-name="路径 2696" d="M220.028,20.373V12.362h4.082V4.429h12.171v7.933H241.6v8.011h-5.314V44.4c0,2.619.076,4.006,2.927,4.006H241.6v8.01h-9.936c-6.085,0-7.549-3.389-7.549-9.166V20.373Z" fill="none" stroke="#000" stroke-miterlimit="10" stroke-width="1"/>
    <path id="路径_2697" data-name="路径 2697" d="M243.906,56.421V1.578h12.17V17.831h.154c1.233-3.851,4.16-6.008,8.627-6.008,6.162,0,8.473,4.082,8.473,10.475V56.421H261.16V26.612c0-2.388-.077-4.776-2.542-4.776s-2.542,2.388-2.542,4.776V56.421Z" fill="#f0f"/>
    <path id="路径_2698" data-name="路径 2698" d="M243.906,56.421V1.578h12.17V17.831h.154c1.233-3.851,4.16-6.008,8.627-6.008,6.162,0,8.473,4.082,8.473,10.475V56.421H261.16V26.612c0-2.388-.077-4.776-2.542-4.776s-2.542,2.388-2.542,4.776V56.421Z" fill="none" stroke="#000" stroke-miterlimit="10" stroke-width="1"/>
    <path id="路径_2699" data-name="路径 2699" d="M294.59,56.421V1.578h15.637c10.167,0,16.714,2.311,16.714,11.785V23.377c0,8.242-7.317,11.862-14.866,11.862h-4.7V56.421Zm12.787-29.039h2c4.468,0,4.775-2.465,4.775-8.935s-.307-9.012-4.775-9.012h-2Z" fill="#f0f"/>
    <path id="路径_2700" data-name="路径 2700" d="M294.59,56.421V1.578h15.637c10.167,0,16.714,2.311,16.714,11.785V23.377c0,8.242-7.317,11.862-14.866,11.862h-4.7V56.421Zm12.787-29.039h2c4.468,0,4.775-2.465,4.775-8.935s-.307-9.012-4.775-9.012h-2Z" fill="none" stroke="#000" stroke-miterlimit="10" stroke-width="1"/>
    <path id="路径_2701" data-name="路径 2701" d="M347.584,50.953h-.154c-1.156,3.851-4.082,6.008-8.858,6.008-5.468,0-8.242-3.774-8.242-10.091V12.363H342.5V42.942c0,1.926.154,4.006,2.465,4.006s2.619-2.08,2.619-4.006V12.363h12.17V56.422h-12.17Z" fill="#f0f"/>
    <path id="路径_2702" data-name="路径 2702" d="M347.584,50.953h-.154c-1.156,3.851-4.082,6.008-8.858,6.008-5.468,0-8.242-3.774-8.242-10.091V12.363H342.5V42.942c0,1.926.154,4.006,2.465,4.006s2.619-2.08,2.619-4.006V12.363h12.17V56.422h-12.17Z" fill="none" stroke="#000" stroke-miterlimit="10" stroke-width="1"/>
    <path id="路径_2703" data-name="路径 2703" d="M361.681,56.421V48.41L373,20.373H361.681V12.362h24.8V19.14L374.7,48.41h12.17v8.011Z" fill="#f0f"/>
    <path id="路径_2704" data-name="路径 2704" d="M361.681,56.421V48.41L373,20.373H361.681V12.362h24.8V19.14L374.7,48.41h12.17v8.011Z" fill="none" stroke="#000" stroke-miterlimit="10" stroke-width="1"/>
    <path id="路径_2705" data-name="路径 2705" d="M387.33,56.421V48.41l11.322-28.037H387.33V12.362h24.8V19.14L400.348,48.41h12.169v8.011Z" fill="#f0f"/>
    <path id="路径_2706" data-name="路径 2706" d="M387.33,56.421V48.41l11.322-28.037H387.33V12.362h24.8V19.14L400.348,48.41h12.169v8.011Z" fill="none" stroke="#000" stroke-miterlimit="10" stroke-width="1"/>
    <rect id="矩形_706" data-name="矩形 706" width="12.17" height="54.843" transform="translate(414.52 1.579)" fill="#f0f"/>
    <rect id="矩形_707" data-name="矩形 707" width="12.17" height="54.843" transform="translate(414.52 1.579)" fill="none" stroke="#000" stroke-miterlimit="10" stroke-width="1"/>
    <path id="路径_2707" data-name="路径 2707" d="M442.326,35.778v8.935c0,2.619.925,4.237,2.542,4.237,1.926,0,2.542-1.618,2.542-4.237v-5.7h12.17v6.469c0,8.32-6.162,11.478-14.712,11.478-7.779,0-14.712-3.543-14.712-11.708V24.225c0-7.934,5.238-12.4,14.712-12.4,7.78,0,14.712,2.927,14.712,12.4V35.778Zm5.084-7.317V22.453a2.543,2.543,0,1,0-5.084,0v6.008Z" fill="#f0f"/>
    <path id="路径_2708" data-name="路径 2708" d="M442.326,35.778v8.935c0,2.619.925,4.237,2.542,4.237,1.926,0,2.542-1.618,2.542-4.237v-5.7h12.17v6.469c0,8.32-6.162,11.478-14.712,11.478-7.779,0-14.712-3.543-14.712-11.708V24.225c0-7.934,5.238-12.4,14.712-12.4,7.78,0,14.712,2.927,14.712,12.4V35.778Zm5.084-7.317V22.453a2.543,2.543,0,1,0-5.084,0v6.008Z" fill="none" stroke="#000" stroke-miterlimit="10" stroke-width="1"/>
    <path id="路径_2709" data-name="路径 2709" d="M480.224,27.922V23.146c0-1.849-.616-3.312-2.542-3.312s-2.541,1.463-2.541,3.312c0,7.548,17.022,6.162,17.022,20.489,0,8.7-5.238,13.326-15.4,13.326-7.779,0-13.788-3-13.788-10.938V39.014h12.171v6.624c0,1.848.615,3.312,2.541,3.312s2.542-1.464,2.542-3.312c0-10.476-17.254-7.24-17.254-21.568,0-8.781,6.239-12.247,14.25-12.247,9.243,0,15.175,3.62,15.175,11.015v5.084Z" fill="#f0f"/>
    <path id="路径_2710" data-name="路径 2710" d="M480.224,27.922V23.146c0-1.849-.616-3.312-2.542-3.312s-2.541,1.463-2.541,3.312c0,7.548,17.022,6.162,17.022,20.489,0,8.7-5.238,13.326-15.4,13.326-7.779,0-13.788-3-13.788-10.938V39.014h12.171v6.624c0,1.848.615,3.312,2.541,3.312s2.542-1.464,2.542-3.312c0-10.476-17.254-7.24-17.254-21.568,0-8.781,6.239-12.247,14.25-12.247,9.243,0,15.175,3.62,15.175,11.015v5.084Z" fill="none" stroke="#000" stroke-miterlimit="10" stroke-width="1"/>
  </g>
</svg>
