<svg id="组_1500" data-name="组 1500" xmlns="http://www.w3.org/2000/svg" xmlns:xlink="http://www.w3.org/1999/xlink" width="343.325" height="63.437" viewBox="0 0 343.325 63.437">
  <defs>
    <clipPath id="clip-path">
      <rect id="矩形_698" data-name="矩形 698" width="343.325" height="63.437" transform="translate(0 0)" fill="none"/>
    </clipPath>
  </defs>
  <rect id="矩形_694" data-name="矩形 694" width="334.325" height="54.437" transform="translate(9 9)"/>
  <rect id="矩形_695" data-name="矩形 695" width="334.325" height="54.437" transform="translate(1 1)" fill="#f0f"/>
  <g id="组_1499" data-name="组 1499">
    <g id="组_1498" data-name="组 1498" clip-path="url(#clip-path)">
      <rect id="矩形_696" data-name="矩形 696" width="334.325" height="54.437" transform="translate(1 1)" fill="none" stroke="#000" stroke-miterlimit="10" stroke-width="2"/>
      <path id="路径_2585" data-name="路径 2585" d="M85.614,24.387v-4.55c0-1.593-.5-2.5-2-2.5-1.639,0-2,.91-2,2.5,0,5.46,11.557,7.053,11.557,17.063,0,6.1-3.276,8.919-9.6,8.919-4.823,0-9.51-1.639-9.51-7.235V32.577H81.61v5.6c0,1.911.591,2.457,2,2.457,1.229,0,2-.546,2-2.457,0-7.326-11.558-7.462-11.558-17.928,0-5.869,3.869-8.1,9.693-8.1,5.1,0,9.418,1.729,9.418,7.144v5.1Z"/>
      <path id="路径_2586" data-name="路径 2586" d="M95.166,45.182v-32.4h7.189v9.6h.091a4.9,4.9,0,0,1,5.1-3.55c3.64,0,5,2.412,5,6.189V45.182h-7.19V27.573c0-1.411-.046-2.821-1.5-2.821s-1.5,1.41-1.5,2.821V45.182Z"/>
      <path id="路径_2587" data-name="路径 2587" d="M131.928,38.584c0,4.823-4.095,6.916-8.691,6.916s-8.69-2.093-8.69-6.916V26.162c0-4.687,3.093-7.326,8.69-7.326s8.691,2.639,8.691,7.326Zm-10.192.364c0,.956.364,1.82,1.5,1.82s1.5-.864,1.5-1.82V25.388c0-.955-.364-1.819-1.5-1.819s-1.5.864-1.5,1.819Z"/>
      <path id="路径_2588" data-name="路径 2588" d="M133.154,19.155h7.189l1.912,20.112h.09l2.276-20.112h7.962L155,39.267h.091l1.592-20.112H163l-3.731,26.027H150.49l-2.366-20.749h-.091l-2.366,20.749h-8.509Z"/>
      <path id="路径_2589" data-name="路径 2589" d="M181.835,22.613h.091a5.255,5.255,0,0,1,1.774-2.775,4.98,4.98,0,0,1,3.231-1,4.314,4.314,0,0,1,4.686,3.777h.091a4.515,4.515,0,0,1,1.684-2.775,5.488,5.488,0,0,1,3.276-1c3.6,0,4.732,2.321,4.732,5.506v20.84h-6.916V27.118c0-1.138-.091-2.366-1.456-2.366s-1.411,1.228-1.411,2.366V45.182H184.7V27.118c0-1.138-.091-2.366-1.456-2.366s-1.41,1.228-1.41,2.366V45.182h-6.917V19.155h6.917Z"/>
      <path id="路径_2590" data-name="路径 2590" d="M210.678,32.988v5.278c0,1.547.546,2.5,1.5,2.5,1.138,0,1.5-.956,1.5-2.5V34.9h7.189v3.822c0,4.914-3.64,6.779-8.691,6.779-4.6,0-8.69-2.092-8.69-6.916V26.163c0-4.687,3.093-7.327,8.69-7.327,4.6,0,8.691,1.73,8.691,7.327v6.825Zm3-4.323V25.116a1.5,1.5,0,1,0-3,0v3.549Z"/>
      <path id="路径_2591" data-name="路径 2591" d="M242.5,44.16a3.57,3.57,0,1,0-.049-5.049,3.57,3.57,0,0,0,.049,5.049"/>
      <path id="路径_2592" data-name="路径 2592" d="M247.507,44.156l14.711-14.9-5.062-5.039L242.409,39.156Z"/>
      <path id="路径_2593" data-name="路径 2593" d="M256.611,24.919a3.57,3.57,0,1,0,4.88-1.293,3.57,3.57,0,0,0-4.88,1.293"/>
      <path id="路径_2594" data-name="路径 2594" d="M238.505,14.4a3.57,3.57,0,1,0,4.88-1.293,3.57,3.57,0,0,0-4.88,1.293"/>
      <rect id="矩形_697" data-name="矩形 697" width="7.14" height="21.016" transform="matrix(0.502, -0.865, 0.865, 0.502, 239.745, 19.247)"/>
    </g>
  </g>
</svg>
