<svg id="组_1576" data-name="组 1576" xmlns="http://www.w3.org/2000/svg" xmlns:xlink="http://www.w3.org/1999/xlink" width="170.652" height="57.502" viewBox="0 0 170.652 57.502">
  <defs>
    <clipPath id="clip-path">
      <rect id="矩形_796" data-name="矩形 796" width="170.652" height="57.502" transform="translate(0 0)" fill="none"/>
    </clipPath>
  </defs>
  <g id="组_1575" data-name="组 1575" clip-path="url(#clip-path)">
    <rect id="矩形_795" data-name="矩形 795" width="166.652" height="53.502" rx="10" transform="translate(2 2)" fill="#5b2c80"/>
    <path id="路径_2980" data-name="路径 2980" d="M158.652,4a8.009,8.009,0,0,1,8,8V45.5a8.009,8.009,0,0,1-8,8H12a8.009,8.009,0,0,1-8-8V12a8.009,8.009,0,0,1,8-8Zm0-4H12A12.035,12.035,0,0,0,0,12V45.5a12.035,12.035,0,0,0,12,12H158.652a12.035,12.035,0,0,0,12-12V12a12.035,12.035,0,0,0-12-12"/>
    <path id="路径_2981" data-name="路径 2981" d="M41.4,40.293a12.555,12.555,0,0,1-8.468-3.155.512.512,0,0,1-.129-.773l2.19-3.123a.5.5,0,0,1,.772-.1,10.743,10.743,0,0,0,5.988,2.221c2.093,0,3.574-.708,3.574-2.125,0-1.642-1.932-2.157-4.153-2.608-3.252-.676-8.082-2.286-8.082-7.5,0-4.476,3.832-6.665,8.726-6.665a13.147,13.147,0,0,1,7.792,2.479.478.478,0,0,1,.16.773l-2.06,3.091a.544.544,0,0,1-.805.161,10.035,10.035,0,0,0-5.345-1.61c-2.285,0-3.186.773-3.186,1.931,0,1.417,1.351,1.8,4.087,2.447,4.476,1.095,8.178,2.576,8.178,7.341,0,4.508-3.6,7.212-9.239,7.212" fill="#fff"/>
    <path id="路径_2982" data-name="路径 2982" d="M55.951,20.847a2.668,2.668,0,0,1-2.737-2.7,2.631,2.631,0,0,1,2.737-2.7,2.586,2.586,0,0,1,2.7,2.7,2.622,2.622,0,0,1-2.7,2.7m-1.9,19.06a.526.526,0,0,1-.58-.58V23.712a.517.517,0,0,1,.58-.547h3.8a.493.493,0,0,1,.547.547V39.327c0,.387-.194.58-.547.58Z" fill="#fff"/>
    <path id="路径_2983" data-name="路径 2983" d="M68.638,46.41a10.785,10.785,0,0,1-6.375-1.739.561.561,0,0,1-.129-.805l1.707-2.608a.476.476,0,0,1,.74-.16,7.663,7.663,0,0,0,3.863,1.062c2.029,0,3.059-.773,3.027-3.155a10.437,10.437,0,0,1-3,.483c-4.153,0-7.018-2.511-7.018-6.89v-2.64c0-5.023,3.348-7.245,7.726-7.245A19.093,19.093,0,0,1,75.882,24a.672.672,0,0,1,.418.677V38.3c0,5.506-2.254,8.114-7.662,8.114m.482-11.14a3.944,3.944,0,0,0,2.254-.547V27.414a6.778,6.778,0,0,0-2.156-.322c-1.74,0-2.77.708-2.77,2.737v2.833c0,1.9,1.063,2.608,2.672,2.608" fill="#fff"/>
    <path id="路径_2984" data-name="路径 2984" d="M80.358,39.939a.525.525,0,0,1-.578-.58V24.71a.67.67,0,0,1,.418-.676,18.721,18.721,0,0,1,6.762-1.32c4.892,0,7.662,2.64,7.662,7.47v9.175a.527.527,0,0,1-.58.58h-3.8a.526.526,0,0,1-.58-.58V30.184c0-2.351-1-3.091-2.7-3.091a8.189,8.189,0,0,0-2.254.289V39.359a.518.518,0,0,1-.548.58Z" fill="#fff"/>
    <path id="路径_2985" data-name="路径 2985" d="M114.007,40.293c-5.666,0-8.95-3.22-8.95-8.854V17.466a.511.511,0,0,1,.579-.579h4.09a.526.526,0,0,1,.579.579V31.439c0,2.608,1.319,3.96,3.7,3.96s3.768-1.352,3.768-3.96V17.466c0-.386.193-.579.546-.579h4.122c.353,0,.546.193.546.579V31.439c0,5.634-3.316,8.854-8.982,8.854" fill="#fff"/>
    <path id="路径_2986" data-name="路径 2986" d="M133.842,22.714c4.508,0,7.631,2.7,7.631,7.309V33.21c0,4.379-2.865,7.116-6.986,7.116a8.374,8.374,0,0,1-2.963-.548v5.667c0,.386-.193.579-.547.579h-3.8a.512.512,0,0,1-.58-.579V24.55a.568.568,0,0,1,.419-.612,20.98,20.98,0,0,1,6.825-1.224m2.641,10.593V29.926c0-2-1-2.833-2.736-2.833a6.713,6.713,0,0,0-2.223.354V35.5a4.5,4.5,0,0,0,2.254.547,2.413,2.413,0,0,0,2.705-2.736" fill="#fff"/>
  </g>
</svg>
