<svg id="组_1578" data-name="组 1578" xmlns="http://www.w3.org/2000/svg" xmlns:xlink="http://www.w3.org/1999/xlink" width="170.652" height="57.502" viewBox="0 0 170.652 57.502">
  <defs>
    <clipPath id="clip-path">
      <rect id="矩形_799" data-name="矩形 799" width="170.652" height="57.502" transform="translate(0 0)" fill="none"/>
    </clipPath>
  </defs>
  <g id="组_1577" data-name="组 1577" clip-path="url(#clip-path)">
    <rect id="矩形_797" data-name="矩形 797" width="166.652" height="53.502" rx="10" transform="translate(2 2)" fill="#5b2c80"/>
    <path id="路径_2987" data-name="路径 2987" d="M158.652,4a8.009,8.009,0,0,1,8,8V45.5a8.009,8.009,0,0,1-8,8H12a8.009,8.009,0,0,1-8-8V12a8.009,8.009,0,0,1,8-8Zm0-4H12A12.035,12.035,0,0,0,0,12V45.5a12.035,12.035,0,0,0,12,12H158.652a12.035,12.035,0,0,0,12-12V12a12.035,12.035,0,0,0-12-12"/>
    <path id="路径_2988" data-name="路径 2988" d="M47.369,40.293A12.555,12.555,0,0,1,38.9,37.138a.512.512,0,0,1-.129-.773l2.19-3.123a.5.5,0,0,1,.773-.1,10.74,10.74,0,0,0,5.988,2.221c2.092,0,3.574-.708,3.574-2.125,0-1.642-1.932-2.157-4.154-2.608-3.252-.676-8.081-2.286-8.081-7.5,0-4.476,3.831-6.665,8.726-6.665a13.144,13.144,0,0,1,7.791,2.479.477.477,0,0,1,.16.773l-2.06,3.091a.544.544,0,0,1-.805.161,10.034,10.034,0,0,0-5.344-1.61c-2.286,0-3.187.773-3.187,1.931,0,1.417,1.351,1.8,4.088,2.447,4.476,1.095,8.178,2.576,8.178,7.341,0,4.508-3.606,7.212-9.24,7.212" fill="#fff"/>
    <path id="路径_2989" data-name="路径 2989" d="M61.924,20.847a2.668,2.668,0,0,1-2.737-2.7,2.63,2.63,0,0,1,2.737-2.7,2.586,2.586,0,0,1,2.7,2.7,2.621,2.621,0,0,1-2.7,2.7m-1.9,19.06a.526.526,0,0,1-.58-.58V23.712a.517.517,0,0,1,.58-.547h3.8a.493.493,0,0,1,.548.547V39.327c0,.387-.194.58-.548.58Z" fill="#fff"/>
    <path id="路径_2990" data-name="路径 2990" d="M74.611,46.41a10.785,10.785,0,0,1-6.375-1.739.562.562,0,0,1-.129-.805l1.707-2.608a.476.476,0,0,1,.74-.16,7.669,7.669,0,0,0,3.863,1.062c2.03,0,3.059-.773,3.028-3.155a10.448,10.448,0,0,1-3,.483c-4.154,0-7.019-2.511-7.019-6.89v-2.64c0-5.023,3.349-7.245,7.727-7.245A19.087,19.087,0,0,1,81.855,24a.671.671,0,0,1,.419.677V38.3c0,5.506-2.254,8.114-7.663,8.114m.483-11.14a3.938,3.938,0,0,0,2.253-.547V27.414a6.768,6.768,0,0,0-2.156-.322c-1.739,0-2.77.708-2.77,2.737v2.833c0,1.9,1.063,2.608,2.673,2.608" fill="#fff"/>
    <path id="路径_2991" data-name="路径 2991" d="M86.333,39.939a.526.526,0,0,1-.58-.58V24.71a.671.671,0,0,1,.418-.676,18.73,18.73,0,0,1,6.762-1.32c4.893,0,7.662,2.64,7.662,7.47v9.175a.526.526,0,0,1-.579.58h-3.8a.526.526,0,0,1-.579-.58V30.184c0-2.351-1-3.091-2.7-3.091a8.194,8.194,0,0,0-2.254.289V39.359a.518.518,0,0,1-.547.58Z" fill="#fff"/>
    <path id="矩形_798" data-name="矩形 798" d="M.58,0H4.6a.58.58,0,0,1,.58.58V22.441a.579.579,0,0,1-.579.579H.579A.579.579,0,0,1,0,22.441V.58A.58.58,0,0,1,.58,0Z" transform="translate(111.222 16.887)" fill="#fff"/>
    <path id="路径_2992" data-name="路径 2992" d="M120.884,39.939a.526.526,0,0,1-.58-.58V24.71a.671.671,0,0,1,.418-.676,18.73,18.73,0,0,1,6.762-1.32c4.893,0,7.662,2.64,7.662,7.47v9.175a.526.526,0,0,1-.579.58h-3.8a.526.526,0,0,1-.579-.58V30.184c0-2.351-1-3.091-2.7-3.091a8.194,8.194,0,0,0-2.254.289V39.359a.518.518,0,0,1-.547.58Z" fill="#fff"/>
  </g>
</svg>
