<svg id="组_1595" data-name="组 1595" xmlns="http://www.w3.org/2000/svg" xmlns:xlink="http://www.w3.org/1999/xlink" width="37.642" height="37.642" viewBox="0 0 37.642 37.642">
  <defs>
    <clipPath id="clip-path">
      <rect id="矩形_830" data-name="矩形 830" width="37.642" height="37.642" transform="translate(0 0)" fill="none"/>
    </clipPath>
  </defs>
  <g id="组_1594" data-name="组 1594" clip-path="url(#clip-path)">
    <path id="路径_3072" data-name="路径 3072" d="M37.642,18.821A18.821,18.821,0,1,1,18.821,0,18.82,18.82,0,0,1,37.642,18.821" fill="#f0f"/>
    <path id="路径_3073" data-name="路径 3073" d="M23.4,23.443q0,4.095,0,8.192c0,.879-.324,1.2-1.2,1.2q-3.147,0-6.294,0c-.846,0-1.191-.336-1.191-1.17q0-8.215,0-16.431c0-.842.339-1.179,1.179-1.18q3.148,0,6.3,0c.9,0,1.211.315,1.211,1.237q0,4.074,0,8.147m-6.8,7.518h4.912V15.938H16.6Z" fill="#fff"/>
    <path id="路径_3074" data-name="路径 3074" d="M19.083,12.4A4.27,4.27,0,1,1,23.4,8.134a4.284,4.284,0,0,1-4.32,4.262m0-1.853A2.418,2.418,0,1,0,16.574,8.13a2.42,2.42,0,0,0,2.513,2.413" fill="#fff"/>
  </g>
</svg>
