<svg xmlns="http://www.w3.org/2000/svg" xmlns:xlink="http://www.w3.org/1999/xlink" width="698.729" height="126.161" viewBox="0 0 698.729 126.161">
  <defs>
    <clipPath id="clip-path">
      <rect id="矩形_789" data-name="矩形 789" width="698.73" height="126.16" fill="none"/>
    </clipPath>
  </defs>
  <g id="组_1571" data-name="组 1571" transform="translate(0 0.001)">
    <rect id="矩形_785" data-name="矩形 785" width="653.324" height="81.999" transform="translate(27.964 26.014)"/>
    <rect id="矩形_786" data-name="矩形 786" width="687.36" height="81.999" transform="translate(8 44.273) rotate(-3.025)"/>
    <rect id="矩形_787" data-name="矩形 787" width="653.324" height="81.999" transform="translate(19.964 18.014)" fill="#0bd18b"/>
    <rect id="矩形_788" data-name="矩形 788" width="687.36" height="82" transform="translate(0 36.275) rotate(-3.025)" fill="#0bd18b"/>
    <path id="路径_2960" data-name="路径 2960" d="M190.053,46.235V39.956H213.2v6.279h-6.746V81.359H196.8V46.235Z"/>
    <g id="组_1570" data-name="组 1570">
      <g id="组_1569" data-name="组 1569" clip-path="url(#clip-path)">
        <path id="路径_2961" data-name="路径 2961" d="M215.173,81.359v-41.4h9.71c9.188,0,14.654.929,14.654,9.652,0,5.176-2.151,8.549-7.385,9.421v.116c4.652.116,7.385,1.862,7.385,7.793V75.6a10.738,10.738,0,0,0,1.455,5.757h-9.713a10.666,10.666,0,0,1-1.4-5.757V66.821c0-2.907-1.745-4.361-3.49-4.361h-1.568v18.9Zm9.653-24.831c4.36,0,5.058-1.453,5.058-5.35,0-3.838-.64-5.291-5.058-5.291Z"/>
        <path id="路径_2962" data-name="路径 2962" d="M242.152,81.359v-41.4h20v6.279H251.8v9.072h10v6.281h-10V75.079h10.351v6.28Z"/>
        <path id="路径_2963" data-name="路径 2963" d="M283.437,39.956l5.349,41.4h-9.594l-1.1-10.177h-5.234l-1.569,10.177h-8.142l7.036-41.4ZM277.389,64.9,275.7,46.468h-.116L273.9,64.9Z"/>
        <path id="路径_2964" data-name="路径 2964" d="M305.531,54.783V48.969c0-2.037-.64-3.2-2.559-3.2-2.093,0-2.558,1.163-2.558,3.2,0,6.977,14.77,9.012,14.77,21.806,0,7.792-4.187,11.4-12.27,11.4-6.164,0-12.154-2.093-12.154-9.246V65.25h9.654V72.4c0,2.442.756,3.14,2.558,3.14,1.571,0,2.559-.7,2.559-3.14,0-9.362-14.771-9.537-14.771-22.911,0-7.5,4.944-10.352,12.387-10.352,6.513,0,12.037,2.21,12.037,9.13v6.513Z"/>
        <path id="路径_2965" data-name="路径 2965" d="M342.164,69.554c-.232,8.78-3.257,12.618-12.271,12.618-11.92,0-12.153-8.314-12.153-13.549V39.955h9.653V69.786c0,3.316,0,5.757,2.5,5.757,2.618,0,2.618-2.441,2.618-5.757V39.955h9.653Z"/>
        <path id="路径_2966" data-name="路径 2966" d="M344.6,81.359v-41.4h9.711c9.188,0,14.654.929,14.654,9.652,0,5.176-2.151,8.549-7.385,9.421v.116c4.652.116,7.385,1.862,7.385,7.793V75.6a10.746,10.746,0,0,0,1.454,5.757h-9.712a10.667,10.667,0,0,1-1.395-5.757V66.821c0-2.907-1.745-4.361-3.49-4.361h-1.569v18.9Zm9.653-24.831c4.361,0,5.059-1.453,5.059-5.35,0-3.838-.64-5.291-5.059-5.291Z"/>
        <path id="路径_2967" data-name="路径 2967" d="M371.583,81.359v-41.4h20v6.279H381.236v9.072h10v6.281h-10V75.079h10.351v6.28Z"/>
        <path id="路径_2968" data-name="路径 2968" d="M406.7,81.359v-41.4h9.653V55.307h5.118V39.956h9.653v41.4h-9.653V61.588h-5.118V81.359Z"/>
        <path id="路径_2969" data-name="路径 2969" d="M458.107,69.554c-.232,8.78-3.257,12.618-12.271,12.618-11.92,0-12.153-8.314-12.153-13.549V39.955h9.653V69.786c0,3.316,0,5.757,2.5,5.757,2.618,0,2.618-2.441,2.618-5.757V39.955h9.653Z"/>
        <path id="路径_2970" data-name="路径 2970" d="M460.314,39.955h13.375l6.163,30.122h.117V39.955h7.56v41.4H475.142l-7.152-34.6h-.116v34.6h-7.56Z"/>
        <path id="路径_2971" data-name="路径 2971" d="M489.271,46.235V39.956h23.144v6.279h-6.746V81.359h-9.653V46.235Z"/>
      </g>
    </g>
  </g>
</svg>
