<svg id="组_1545" data-name="组 1545" xmlns="http://www.w3.org/2000/svg" xmlns:xlink="http://www.w3.org/1999/xlink" width="309.691" height="63.432" viewBox="0 0 309.691 63.432">
  <defs>
    <clipPath id="clip-path">
      <rect id="矩形_750" data-name="矩形 750" width="309.691" height="63.431" fill="none"/>
    </clipPath>
    <clipPath id="clip-path-2">
      <rect id="矩形_741" data-name="矩形 741" width="309.691" height="63.431" transform="translate(0 0)" fill="none"/>
    </clipPath>
    <clipPath id="clip-path-4">
      <path id="路径_2881" data-name="路径 2881" d="M268.692,18.128l.073,2.539-1.892-.613L261.178,18.2a.226.226,0,0,0-.282.144l-1.265,3.827-1.021,3.214-1.387-.4a4.712,4.712,0,0,0-4.777,7.69,4.634,4.634,0,0,0,1.872,1.259l1.356.493-.372,1.138-1.915,5.9a.226.226,0,0,0,.049.221.208.208,0,0,0,.1.061l7.587,2.464a.447.447,0,0,0,.586-.439,3.945,3.945,0,0,1,.178-1.355,4.032,4.032,0,0,1,6.832-1.456,4.03,4.03,0,0,1,.843,3.946,3.978,3.978,0,0,1-.651,1.2.447.447,0,0,0-.083.367c0,.012.006.027.01.039a.442.442,0,0,0,.1.167.454.454,0,0,0,.194.126l4.1,1.331,3.177,1.036a.227.227,0,0,0,.283-.144l1.915-5.9L278.969,42l1.386.4a4.7,4.7,0,0,0,5.48-6.665,4.823,4.823,0,0,0-.7-1.025,4.62,4.62,0,0,0-1.873-1.259l-1.356-.493.446-1.372,1.841-5.669a.208.208,0,0,0-.013-.171.284.284,0,0,0-.034-.051.216.216,0,0,0-.1-.06l-5.384-1.753-1.892-.614.68-1.53-.2-3.021-1.907-2.043-3.362-1.053Z" fill="none"/>
    </clipPath>
    <linearGradient id="linear-gradient" x1="-6.38" y1="1.328" x2="-6.354" y2="1.328" gradientUnits="objectBoundingBox">
      <stop offset="0" stop-color="#fff"/>
      <stop offset="0.037" stop-color="#f0f0f0"/>
      <stop offset="0.136" stop-color="#cecdcd"/>
      <stop offset="0.229" stop-color="#b5b5b5"/>
      <stop offset="0.315" stop-color="#a7a6a6"/>
      <stop offset="0.385" stop-color="#a2a1a1"/>
      <stop offset="0.774" stop-color="#dbdbdb"/>
      <stop offset="1" stop-color="#fff"/>
    </linearGradient>
    <clipPath id="clip-path-6">
      <rect id="矩形_744" data-name="矩形 744" width="14.372" height="25.004" transform="translate(271.981 24.192)" fill="none"/>
    </clipPath>
    <clipPath id="clip-path-7">
      <rect id="矩形_745" data-name="矩形 745" width="0.472" height="1.998" transform="translate(247.871 9.499)" fill="none"/>
    </clipPath>
    <clipPath id="clip-path-8">
      <path id="路径_2890" data-name="路径 2890" d="M243,7.258a4.362,4.362,0,0,0-3.24,5.242,4.247,4.247,0,0,0,.594,1.351.073.073,0,0,1,.006.067.072.072,0,0,1-.052.045l-7.81,1.844,1.751,7.422.019.08L235.8,23a4.463,4.463,0,0,1,2.049,8.682l-1.512.414.019.08,1.732,7.343L245.9,37.68a.074.074,0,0,1,.09.08,4.27,4.27,0,0,0,.074,1.475,4.323,4.323,0,0,0,1.95,2.7,4.378,4.378,0,0,0,3.291.536,4.361,4.361,0,0,0,3.239-5.241,4.284,4.284,0,0,0-.593-1.352.075.075,0,0,1-.007-.068A.077.077,0,0,1,254,35.77l7.81-1.843h0L260.059,26.5l-.019-.08-1.537.305a4.463,4.463,0,0,1-2.05-8.682l1.512-.414-.019-.08h0l-1.733-7.343-7.81,1.843a.074.074,0,0,1-.067-.017.072.072,0,0,1-.024-.063A4.264,4.264,0,0,0,246.29,7.8a4.384,4.384,0,0,0-2.3-.651,4.312,4.312,0,0,0-.991.114" fill="none"/>
    </clipPath>
    <linearGradient id="linear-gradient-2" x1="-5.038" y1="1.336" x2="-5.016" y2="1.336" gradientUnits="objectBoundingBox">
      <stop offset="0" stop-color="#b5d680"/>
      <stop offset="0.005" stop-color="#b0d47f"/>
      <stop offset="0.077" stop-color="#7bc67a"/>
      <stop offset="0.148" stop-color="#4fb976"/>
      <stop offset="0.215" stop-color="#2cb073"/>
      <stop offset="0.279" stop-color="#14a971"/>
      <stop offset="0.337" stop-color="#05a570"/>
      <stop offset="0.385" stop-color="#00a470"/>
      <stop offset="0.605" stop-color="#3db575"/>
      <stop offset="1" stop-color="#b5d680"/>
    </linearGradient>
    <clipPath id="clip-path-10">
      <rect id="矩形_748" data-name="矩形 748" width="13.939" height="26.256" transform="translate(247.871 9.499)" fill="none"/>
    </clipPath>
  </defs>
  <g id="组_1544" data-name="组 1544" clip-path="url(#clip-path)">
    <rect id="矩形_738" data-name="矩形 738" width="300.697" height="54.437" transform="translate(8.994 8.994)"/>
    <rect id="矩形_739" data-name="矩形 739" width="300.697" height="54.437" transform="translate(0.994 0.994)" fill="#f0f"/>
    <g id="组_1524" data-name="组 1524">
      <g id="组_1523" data-name="组 1523" clip-path="url(#clip-path-2)">
        <rect id="矩形_740" data-name="矩形 740" width="300.697" height="54.437" transform="translate(0.994 0.994)" fill="none" stroke="#000" stroke-miterlimit="10" stroke-width="1.988"/>
      </g>
    </g>
    <path id="路径_2869" data-name="路径 2869" d="M28.092,14.879h6.63l1.365,19.774h.078l2.5-19.774h7.021l1.755,19.774h.078l2.027-19.774h5.734L51.649,42.648H44.082l-2.5-21.412h-.078l-2.3,21.412H31.758Z"/>
    <g id="组_1526" data-name="组 1526">
      <g id="组_1525" data-name="组 1525" clip-path="url(#clip-path-2)">
        <path id="路径_2870" data-name="路径 2870" d="M63.583,40.035h-.078a4.362,4.362,0,0,1-4.329,2.886c-2.691,0-4.329-1.638-4.329-4.563V35.043c0-5.85,8.736-5.148,8.736-9.282,0-.9-.273-1.638-1.287-1.638s-1.287.741-1.287,1.638v2.457H54.847V26.151c0-4.486,3.744-6.085,7.449-6.085s7.449,1.6,7.449,6.085v16.5H63.583Zm-2.574-3.12a1.094,1.094,0,0,0,1.131,1.17c1.287,0,1.443-.858,1.443-2.847V31.377c-1.209.858-2.574,1.365-2.574,3.12Z"/>
        <path id="路径_2871" data-name="路径 2871" d="M77.31,20.339l2.067,15.4h.079l2.067-15.4h5.186L81.717,43.857c-.507,2.535-2.3,3.783-4.992,3.783H71.772V43.584h3.2c.819,0,1.092-.195,1.092-.624a5.012,5.012,0,0,0-.156-.975L71.07,20.339Z"/>
        <path id="路径_2872" data-name="路径 2872" d="M96.811,28.217V25.8c0-.936-.312-1.676-1.287-1.676s-1.287.74-1.287,1.676c0,3.823,8.619,3.121,8.619,10.375,0,4.407-2.652,6.747-7.8,6.747-3.938,0-6.98-1.521-6.98-5.538v-3.55h6.162v3.355c0,.935.311,1.677,1.287,1.677s1.287-.742,1.287-1.677c0-5.305-8.736-3.667-8.736-10.92,0-4.447,3.159-6.2,7.215-6.2,4.68,0,7.683,1.833,7.683,5.577v2.573Z"/>
        <path id="路径_2873" data-name="路径 2873" d="M113.191,24.4V20.339h2.066V16.322h6.163v4.017h2.691V24.4H121.42V36.564c0,1.326.039,2.028,1.482,2.028h1.209v4.056H119.08c-3.081,0-3.823-1.716-3.823-4.641V24.4Z"/>
        <path id="路径_2874" data-name="路径 2874" d="M140.179,36.993c0,4.134-3.51,5.928-7.449,5.928s-7.449-1.794-7.449-5.928V26.346c0-4.018,2.651-6.28,7.449-6.28s7.449,2.262,7.449,6.28Zm-8.736.312c0,.819.312,1.56,1.287,1.56s1.287-.741,1.287-1.56V25.682c0-.818-.312-1.56-1.287-1.56s-1.287.742-1.287,1.56Z"/>
        <path id="路径_2875" data-name="路径 2875" d="M150.865,42.648V14.879h13.416v4.212h-6.942v6.084h6.709v4.212h-6.709v9.049h6.942v4.212Z"/>
        <path id="路径_2876" data-name="路径 2876" d="M178.555,14.879l3.589,27.769h-6.436l-.741-6.826h-3.51L170.4,42.648h-5.461l4.72-27.769ZM174.5,31.61l-1.131-12.362h-.078L172.159,31.61Z"/>
        <path id="路径_2877" data-name="路径 2877" d="M183.39,42.648V14.879H189.9c6.162,0,9.829.624,9.829,6.474,0,3.471-1.443,5.733-4.953,6.318v.078c3.119.078,4.953,1.248,4.953,5.226v5.811a7.208,7.208,0,0,0,.975,3.862h-6.514a7.163,7.163,0,0,1-.935-3.862V32.9c0-1.949-1.17-2.924-2.34-2.924h-1.054V42.648Zm6.474-16.654c2.926,0,3.394-.975,3.394-3.588,0-2.574-.429-3.549-3.394-3.549Z"/>
        <path id="路径_2878" data-name="路径 2878" d="M201.33,14.879H210.3l4.133,20.2h.079v-20.2h5.07V42.648h-8.308l-4.8-23.206H206.4V42.648h-5.07Z"/>
        <path id="路径_2879" data-name="路径 2879" d="M275.6,47.9a.972.972,0,0,0-.6,1.849Z" fill="#060001"/>
        <path id="路径_2880" data-name="路径 2880" d="M269.865,48.08a.972.972,0,0,0,.6-1.849Z" fill="#060001"/>
      </g>
    </g>
    <g id="组_1528" data-name="组 1528">
      <g id="组_1527" data-name="组 1527" clip-path="url(#clip-path-4)">
        <rect id="矩形_743" data-name="矩形 743" width="39.069" height="37.457" transform="translate(247.231 16.062) rotate(-6.602)" fill="url(#linear-gradient)"/>
      </g>
    </g>
    <g id="组_1536" data-name="组 1536">
      <g id="组_1535" data-name="组 1535" clip-path="url(#clip-path-2)">
        <g id="组_1531" data-name="组 1531" opacity="0.3">
          <g id="组_1530" data-name="组 1530">
            <g id="组_1529" data-name="组 1529" clip-path="url(#clip-path-6)">
              <path id="路径_2882" data-name="路径 2882" d="M285.835,35.732a4.763,4.763,0,0,0-.7-1.025,4.62,4.62,0,0,0-1.873-1.259l-1.355-.493.445-1.372,1.842-5.669a.213.213,0,0,0-.014-.171.216.216,0,0,0-.034-.051.2.2,0,0,0-.1-.06l-4.42-1.44-7.647,23.554,1.242.4,3.176,1.036a.227.227,0,0,0,.283-.144l1.915-5.9L278.969,42l1.387.4a4.7,4.7,0,0,0,5.479-6.665" fill="#060001"/>
            </g>
          </g>
        </g>
        <path id="路径_2883" data-name="路径 2883" d="M272.982,47.052a.972.972,0,1,0,.421.273.973.973,0,0,0-.421-.273"/>
        <path id="路径_2884" data-name="路径 2884" d="M275.6,47.9a.972.972,0,0,0-.6,1.849Z"/>
        <path id="路径_2885" data-name="路径 2885" d="M269.865,48.08a.972.972,0,0,0,.6-1.849Z"/>
        <path id="路径_2886" data-name="路径 2886" d="M277.13,24.4l5.906,1.922-2.056,6.33a.971.971,0,0,0,.591,1.213l1.356.493a3.675,3.675,0,0,1,1.483,1,3.793,3.793,0,0,1,.559.816,3.736,3.736,0,0,1-4.347,5.289l-1.387-.4a.97.97,0,0,0-1.19.634l-2.057,6.33-.383-.124-.6,1.848,1.094.354a1.2,1.2,0,0,0,1.506-.768l2-6.149.485.139a5.676,5.676,0,0,0,6.612-8.04,5.748,5.748,0,0,0-.847-1.234,5.586,5.586,0,0,0-2.262-1.521l-.474-.173,2-6.149a1.183,1.183,0,0,0-.07-.908,1.2,1.2,0,0,0-.179-.263,1.185,1.185,0,0,0-.518-.335l-7.277-2.367Z"/>
        <path id="路径_2887" data-name="路径 2887" d="M267.807,21.378l-6.217-2.019-2.056,6.33a.973.973,0,0,1-1.191.634l-1.387-.4a3.733,3.733,0,0,0-4.347,5.29,3.793,3.793,0,0,0,.559.816,3.675,3.675,0,0,0,1.483,1l1.356.493a.971.971,0,0,1,.591,1.212l-2.056,6.331,6.217,2.019a4.555,4.555,0,0,1,.2-.957,5,5,0,0,1,8.477-1.806,5,5,0,0,1,1.046,4.9,4.649,4.649,0,0,1-.4.891l.392.127-.6,1.848-1.052-.341a1.425,1.425,0,0,1-.917-.929q-.021-.067-.033-.126a1.419,1.419,0,0,1,.264-1.162,3,3,0,0,0,.5-.908,3.063,3.063,0,0,0-5.827-1.891,2.993,2.993,0,0,0-.132,1.028,1.419,1.419,0,0,1-1.855,1.391l-7.588-2.464a1.2,1.2,0,0,1-.768-1.506l2-6.149-.474-.173a5.593,5.593,0,0,1-2.262-1.521,5.754,5.754,0,0,1-.847-1.235,5.678,5.678,0,0,1,6.612-8.039l.485.138,2-6.149a1.2,1.2,0,0,1,1.506-.768l7.587,2.464Z"/>
        <path id="路径_2888" data-name="路径 2888" d="M267.658,21.331a.971.971,0,0,0,1.212-.592l.494-1.355a3.65,3.65,0,0,1,1-1.483,3.822,3.822,0,0,1,.816-.56,3.736,3.736,0,0,1,5.29,4.348l-.4,1.386a.971.971,0,0,0,.634,1.191l.913.286.578-1.844.139-.486a5.675,5.675,0,0,0-8.04-6.611,5.748,5.748,0,0,0-1.234.847,5.572,5.572,0,0,0-1.522,2.262l-.172.474-.584,1.863Z"/>
        <g id="组_1534" data-name="组 1534" opacity="0.3">
          <g id="组_1533" data-name="组 1533">
            <g id="组_1532" data-name="组 1532" clip-path="url(#clip-path-7)">
              <path id="路径_2889" data-name="路径 2889" d="M247.871,9.5l.472,2a4.082,4.082,0,0,0-.1-1,4.392,4.392,0,0,0-.368-1" fill="#060001"/>
            </g>
          </g>
        </g>
      </g>
    </g>
    <g id="组_1538" data-name="组 1538">
      <g id="组_1537" data-name="组 1537" clip-path="url(#clip-path-8)">
        <rect id="矩形_747" data-name="矩形 747" width="44.629" height="46.024" transform="matrix(0.809, -0.587, 0.587, 0.809, 215.579, 19.417)" fill="url(#linear-gradient-2)"/>
      </g>
    </g>
    <g id="组_1543" data-name="组 1543">
      <g id="组_1542" data-name="组 1542" clip-path="url(#clip-path-2)">
        <g id="组_1541" data-name="组 1541" opacity="0.3">
          <g id="组_1540" data-name="组 1540">
            <g id="组_1539" data-name="组 1539" clip-path="url(#clip-path-10)">
              <path id="路径_2891" data-name="路径 2891" d="M258.521,26.81a4.5,4.5,0,0,1-2.068-8.762l1.512-.415-1.751-7.423-7.744,1.828,5.6,23.717,7.743-1.827L260.059,26.5Z" fill="#060001"/>
              <path id="路径_2892" data-name="路径 2892" d="M247.871,9.5l.472,2a4.082,4.082,0,0,0-.1-1,4.392,4.392,0,0,0-.368-1" fill="#060001"/>
            </g>
          </g>
        </g>
        <path id="路径_2893" data-name="路径 2893" d="M260.772,29.332a1.063,1.063,0,1,0,.549.016,1.064,1.064,0,0,0-.549-.016" fill="#060001"/>
        <path id="路径_2894" data-name="路径 2894" d="M257.789,33.906a1.031,1.031,0,1,0,.532.023,1.034,1.034,0,0,0-.532-.023"/>
        <path id="路径_2895" data-name="路径 2895" d="M262.684,32.857l-1.318-5.692-.012,0-.308-1.306a1.177,1.177,0,0,0-.658-.764c-.028-.011-.057-.022-.086-.031a1.039,1.039,0,0,0-.862.118,3.3,3.3,0,0,1-1.052.461,3.4,3.4,0,0,1-3.761-1.706,3.319,3.319,0,0,1-.286-.769,3.4,3.4,0,0,1,2.526-4.086,3.349,3.349,0,0,1,1.148-.054,1.032,1.032,0,0,0,1.136-1.173,1.082,1.082,0,0,0-.021-.139l-1.808-7.81a1.039,1.039,0,0,0-.606-.718,1,1,0,0,0-.152-.06,1.032,1.032,0,0,0-.532-.016l-6.524,1.539a.073.073,0,0,1-.088-.052l-.151-.55a5.467,5.467,0,0,0-6.524-3.871h0a5.471,5.471,0,0,0-4.1,6.38l.111.559a.074.074,0,0,1-.055.086l-4.523,1.067a1.046,1.046,0,0,0-.382.015l-1.593.376a1.142,1.142,0,0,0-.8,1.325l1.879,7.963a1.038,1.038,0,0,0,.621.722c.027.011.057.021.086.03a1.037,1.037,0,0,0,.861-.122,3.33,3.33,0,0,1,1.05-.465,3.4,3.4,0,0,1,3.987,2.184q.031.1.057.213a3.4,3.4,0,0,1-2.544,4.075,3.356,3.356,0,0,1-1.148.049,1.033,1.033,0,0,0-1.126,1.26l1.827,7.89a1.035,1.035,0,0,0,.433.624l.017.012.01.007a1.021,1.021,0,0,0,.864.188l6.5-1.561a.068.068,0,0,1,.038.046l.149.55a5.464,5.464,0,0,0,10.64-2.463l-.109-.56a.074.074,0,0,1,.056-.086l.045-.01.042-.01a1.034,1.034,0,1,0-.446-2.019l-1.467.34a1.034,1.034,0,0,0-.638,1.565A3.38,3.38,0,0,1,251,41.539a3.394,3.394,0,0,1-1.75-.058,3.429,3.429,0,0,1-.813-.371,3.309,3.309,0,0,1-1.561-3.263,1.03,1.03,0,0,0-.338-.889,1.014,1.014,0,0,0-.386-.218,1.037,1.037,0,0,0-.536-.018L238.8,38.3h-.014v0l-1.266-5.366a.073.073,0,0,1,.053-.088l.55-.151A5.469,5.469,0,0,0,242,26.168c-.036-.152-.08-.3-.128-.446a5.466,5.466,0,0,0-6.276-3.807l-.559.109a.074.074,0,0,1-.086-.056l-1.26-5.443a.07.07,0,0,1,.035-.022l6.8-1.605h0a1.035,1.035,0,0,0,.63-1.568,3.38,3.38,0,0,1,2.06-5.137,3.4,3.4,0,0,1,4.087,2.526,3.352,3.352,0,0,1,.053,1.148,1.032,1.032,0,0,0,.342.888,1.014,1.014,0,0,0,.387.216,1.037,1.037,0,0,0,.536.016l.952-.224,5.893-1.364a.06.06,0,0,1,.023,0,.065.065,0,0,1,.025.039l1.281,5.427a.072.072,0,0,1-.05.049l-.551.148a5.494,5.494,0,0,0,2.511,10.69l.56-.111a.069.069,0,0,1,.035,0l1.28,5.526c0,.023.005.045.009.068a.068.068,0,0,1-.007.02l-.122.029-.069.017a1.033,1.033,0,1,0,.445,2.017l.072-.017,1.166-.27a1.122,1.122,0,0,0,.829-1.288Z"/>
      </g>
    </g>
  </g>
</svg>
