<svg id="组_1517" data-name="组 1517" xmlns="http://www.w3.org/2000/svg" xmlns:xlink="http://www.w3.org/1999/xlink" width="698.73" height="192.16" viewBox="0 0 698.73 192.16">
  <defs>
    <clipPath id="clip-path">
      <rect id="矩形_731" data-name="矩形 731" width="698.73" height="192.16" fill="none"/>
    </clipPath>
  </defs>
  <rect id="矩形_724" data-name="矩形 724" width="653.324" height="147.999" transform="translate(27.964 26.014)"/>
  <path id="路径_2830" data-name="路径 2830" d="M8,44.275,12.327,192.16l686.4-36.274L694.4,8Z"/>
  <rect id="矩形_725" data-name="矩形 725" width="653.324" height="147.999" transform="translate(19.964 18.014)" fill="#f0f"/>
  <path id="路径_2831" data-name="路径 2831" d="M686.4,0,0,36.275,4.327,184.16l686.4-36.275Z" fill="#f0f"/>
  <path id="路径_2832" data-name="路径 2832" d="M250.484,42.955h9.886L262.4,72.438h.116l3.722-29.483H276.71l2.617,29.483h.116l3.023-29.483h8.549l-5.408,41.4H274.326L270.6,52.434h-.116l-3.431,31.925H255.95Z" fill="#fff"/>
  <g id="组_1516" data-name="组 1516">
    <g id="组_1515" data-name="组 1515" clip-path="url(#clip-path)">
      <path id="路径_2833" data-name="路径 2833" d="M299.56,68.774V75.52c0,1.977.7,3.2,1.919,3.2,1.454,0,1.92-1.221,1.92-3.2v-4.3h9.188V76.1c0,6.28-4.653,8.664-11.108,8.664-5.873,0-11.106-2.675-11.106-8.839V60.052c0-5.99,3.954-9.363,11.106-9.363,5.874,0,11.108,2.21,11.108,9.363v8.722ZM303.4,63.25V58.714a1.92,1.92,0,1,0-3.839,0V63.25Z" fill="#fff"/>
      <rect id="矩形_726" data-name="矩形 726" width="9.188" height="41.404" transform="translate(315.202 42.955)" fill="#fff"/>
      <path id="路径_2834" data-name="路径 2834" d="M340.031,59.063c0-1.221-.466-2.326-1.92-2.326s-1.919,1.1-1.919,2.326V76.392c0,1.221.466,2.326,1.919,2.326s1.92-1.105,1.92-2.326V71.217h9.188V76.1c0,6.28-4.653,8.664-11.166,8.664-6.862,0-11.048-2.849-11.048-9.246V59.994c0-5.467,4.07-9.305,11.048-9.305,5.932,0,11.166,2.21,11.166,9.363v2.791h-9.188Z" fill="#fff"/>
      <path id="路径_2835" data-name="路径 2835" d="M373.988,75.927c0,6.164-5.233,8.839-11.107,8.839s-11.107-2.675-11.107-8.839V60.052c0-5.99,3.955-9.363,11.107-9.363s11.107,3.373,11.107,9.363Zm-13.026.465c0,1.221.466,2.326,1.919,2.326s1.92-1.105,1.92-2.326V59.063c0-1.221-.466-2.326-1.92-2.326s-1.919,1.1-1.919,2.326Z" fill="#fff"/>
      <path id="路径_2836" data-name="路径 2836" d="M385.5,55.516h.116a6.737,6.737,0,0,1,2.269-3.547,6.362,6.362,0,0,1,4.129-1.28c3.314,0,5.349,1.628,5.989,4.827h.116a5.772,5.772,0,0,1,2.152-3.547,7.013,7.013,0,0,1,4.187-1.28c4.594,0,6.047,2.966,6.047,7.036V84.359h-8.839V61.273c0-1.454-.116-3.024-1.86-3.024s-1.8,1.57-1.8,3.024V84.359h-8.839V61.273c0-1.454-.116-3.024-1.861-3.024s-1.8,1.57-1.8,3.024V84.359h-8.839V51.1H385.5Z" fill="#fff"/>
      <path id="路径_2837" data-name="路径 2837" d="M422.365,68.774V75.52c0,1.977.7,3.2,1.919,3.2,1.454,0,1.92-1.221,1.92-3.2v-4.3h9.188V76.1c0,6.28-4.653,8.664-11.108,8.664-5.873,0-11.106-2.675-11.106-8.839V60.052c0-5.99,3.954-9.363,11.106-9.363,5.874,0,11.108,2.21,11.108,9.363v8.722ZM426.2,63.25V58.714a1.92,1.92,0,1,0-3.839,0V63.25Z" fill="#fff"/>
      <path id="路径_2838" data-name="路径 2838" d="M96.34,111.784v-5.815c0-2.036-.64-3.2-2.559-3.2-2.093,0-2.558,1.162-2.558,3.2,0,6.978,14.77,9.013,14.77,21.807,0,7.792-4.187,11.4-12.27,11.4-6.164,0-12.154-2.093-12.154-9.246v-7.676h9.654V129.4c0,2.442.756,3.14,2.558,3.14,1.571,0,2.559-.7,2.559-3.14,0-9.363-14.771-9.537-14.771-22.912,0-7.5,4.944-10.351,12.387-10.351,6.513,0,12.037,2.21,12.037,9.13v6.513Z" fill="#fff"/>
      <path id="路径_2839" data-name="路径 2839" d="M108.549,138.359v-41.4h9.188v12.27h.117c.929-2.908,3.139-4.535,6.512-4.535,4.653,0,6.4,3.082,6.4,7.908v25.761h-9.188v-22.5c0-1.8-.058-3.606-1.92-3.606s-1.918,1.8-1.918,3.606v22.5Z" fill="#fff"/>
      <path id="路径_2840" data-name="路径 2840" d="M155.533,129.927c0,6.164-5.233,8.839-11.107,8.839s-11.107-2.675-11.107-8.839V114.052c0-5.99,3.955-9.363,11.107-9.363s11.107,3.373,11.107,9.363Zm-13.026.465c0,1.221.466,2.326,1.919,2.326s1.92-1.1,1.92-2.326V113.063c0-1.221-.466-2.326-1.92-2.326s-1.919,1.105-1.919,2.326Z" fill="#fff"/>
      <path id="路径_2841" data-name="路径 2841" d="M167.278,109.457h.117c.465-3.489,2.965-4.768,6.338-4.768,5.06,0,6.571,4.3,6.571,8.49v18.376c0,4.07-1.744,7.211-6.4,7.211-3.373,0-5.7-1.745-6.513-4.769h-.117V145.8H158.09V105.1h9.188Zm0,19.481c0,1.454.814,2.268,1.919,2.268s1.92-.814,1.92-2.268V114.517c0-1.454-.815-2.268-1.92-2.268s-1.919.814-1.919,2.268Z" fill="#fff"/>
      <rect id="矩形_727" data-name="矩形 727" width="9.014" height="9.77" transform="translate(183.791 128.589)" fill="#fff"/>
      <path id="路径_2842" data-name="路径 2842" d="M209.841,138.359v-41.4h11.8c7.676,0,12.62,1.745,12.62,8.9v7.559c0,6.222-5.525,8.955-11.224,8.955h-3.547v15.992Zm9.653-21.923h1.512c3.373,0,3.6-1.861,3.6-6.746s-.232-6.8-3.6-6.8h-1.512Z" fill="#fff"/>
      <rect id="矩形_728" data-name="矩形 728" width="9.188" height="41.404" transform="translate(236.878 96.955)" fill="#fff"/>
      <path id="路径_2843" data-name="路径 2843" d="M261.708,134.462h-.117c-1.105,2.385-2.791,4.3-6.454,4.3-4.013,0-6.456-2.443-6.456-6.8v-4.943c0-8.723,13.027-7.676,13.027-13.84,0-1.338-.407-2.443-1.92-2.443s-1.919,1.105-1.919,2.443v3.663h-9.188V113.76c0-6.687,5.583-9.071,11.107-9.071s11.107,2.384,11.107,9.071v24.6h-9.187Zm-3.839-4.652a1.632,1.632,0,0,0,1.687,1.745c1.918,0,2.152-1.28,2.152-4.245v-5.757c-1.8,1.279-3.839,2.035-3.839,4.652Z" fill="#fff"/>
      <path id="路径_2844" data-name="路径 2844" d="M282.174,105.1l3.082,22.97h.116l3.082-22.97h7.735l-7.444,35.065c-.756,3.78-3.43,5.641-7.443,5.641h-7.386v-6.048h4.769c1.221,0,1.629-.29,1.629-.93a7.505,7.505,0,0,0-.234-1.454L272.87,105.1Z" fill="#fff"/>
      <rect id="矩形_729" data-name="矩形 729" width="9.014" height="9.77" transform="translate(292.699 128.589)" fill="#fff"/>
      <path id="路径_2845" data-name="路径 2845" d="M343.171,122.251v5.466c0,7.734-4.129,11.456-12.271,11.456-6.4,0-12.153-2.617-12.153-12.1V108.236c0-9.478,5.757-12.1,12.153-12.1,7.038,0,12.271,2.093,12.271,11.049v4.536h-9.653v-5.7c0-1.687-.524-3.256-2.618-3.256-1.976,0-2.5,1.569-2.5,3.256v23.26c0,1.687.524,3.257,2.5,3.257,2.094,0,2.618-1.57,2.618-3.257l.057-7.036Z" fill="#fff"/>
      <path id="路径_2846" data-name="路径 2846" d="M367.94,129.927c0,6.164-5.233,8.839-11.107,8.839s-11.107-2.675-11.107-8.839V114.052c0-5.99,3.955-9.363,11.107-9.363s11.107,3.373,11.107,9.363Zm-13.026.465c0,1.221.466,2.326,1.919,2.326s1.92-1.1,1.92-2.326V113.063c0-1.221-.466-2.326-1.92-2.326s-1.919,1.105-1.919,2.326Z" fill="#fff"/>
      <path id="路径_2847" data-name="路径 2847" d="M379.453,109.516h.116a6.737,6.737,0,0,1,2.269-3.547,6.361,6.361,0,0,1,4.128-1.28c3.315,0,5.35,1.628,5.99,4.827h.116a5.772,5.772,0,0,1,2.152-3.547,7.013,7.013,0,0,1,4.187-1.28c4.594,0,6.047,2.966,6.047,7.036v26.634h-8.839V115.273c0-1.454-.116-3.024-1.86-3.024s-1.8,1.57-1.8,3.024v23.086h-8.839V115.273c0-1.454-.116-3.024-1.861-3.024s-1.8,1.57-1.8,3.024v23.086h-8.839V105.1h8.839Z" fill="#fff"/>
      <path id="路径_2848" data-name="路径 2848" d="M416.317,109.457h.117c.465-3.489,2.965-4.768,6.338-4.768,5.06,0,6.571,4.3,6.571,8.49v18.376c0,4.07-1.744,7.211-6.4,7.211-3.373,0-5.7-1.745-6.513-4.769h-.117V145.8h-9.188V105.1h9.188Zm0,19.481c0,1.454.814,2.268,1.919,2.268s1.92-.814,1.92-2.268V114.517c0-1.454-.815-2.268-1.92-2.268s-1.919.814-1.919,2.268Z" fill="#fff"/>
      <path id="路径_2849" data-name="路径 2849" d="M441.087,122.774v6.746c0,1.977.7,3.2,1.919,3.2,1.454,0,1.92-1.221,1.92-3.2v-4.3h9.188V130.1c0,6.28-4.653,8.664-11.108,8.664-5.873,0-11.106-2.675-11.106-8.839V114.052c0-5.99,3.954-9.363,11.106-9.363,5.874,0,11.108,2.21,11.108,9.363v8.722Zm3.839-5.524v-4.536a1.92,1.92,0,1,0-3.839,0v4.536Z" fill="#fff"/>
      <path id="路径_2850" data-name="路径 2850" d="M455.856,111.144V105.1h3.082V99.107h9.189V105.1h4.012v6.048h-4.012v18.143c0,1.978.057,3.024,2.209,3.024h1.8v6.048h-7.5c-4.594,0-5.7-2.559-5.7-6.92V111.144Z" fill="#fff"/>
      <path id="路径_2851" data-name="路径 2851" d="M483.069,122.774v6.746c0,1.977.7,3.2,1.919,3.2,1.454,0,1.92-1.221,1.92-3.2v-4.3H496.1V130.1c0,6.28-4.653,8.664-11.108,8.664-5.873,0-11.106-2.675-11.106-8.839V114.052c0-5.99,3.954-9.363,11.106-9.363,5.874,0,11.108,2.21,11.108,9.363v8.722Zm3.839-5.524v-4.536a1.92,1.92,0,1,0-3.839,0v4.536Z" fill="#fff"/>
      <rect id="矩形_730" data-name="矩形 730" width="9.014" height="9.77" transform="translate(499.582 128.589)" fill="#fff"/>
      <path id="路径_2852" data-name="路径 2852" d="M525.516,138.359v-41.4h20v6.28H535.169v9.072h10v6.281h-10v13.491H545.52v6.28Z" fill="#fff"/>
      <path id="路径_2853" data-name="路径 2853" d="M560.172,134.462h-.117c-1.1,2.385-2.791,4.3-6.454,4.3-4.013,0-6.456-2.443-6.456-6.8v-4.943c0-8.723,13.027-7.676,13.027-13.84,0-1.338-.407-2.443-1.92-2.443s-1.919,1.105-1.919,2.443v3.663h-9.188V113.76c0-6.687,5.584-9.071,11.107-9.071s11.107,2.384,11.107,9.071v24.6h-9.187Zm-3.839-4.652a1.632,1.632,0,0,0,1.687,1.745c1.918,0,2.152-1.28,2.152-4.245v-5.757c-1.8,1.279-3.839,2.035-3.839,4.652Z" fill="#fff"/>
      <path id="路径_2854" data-name="路径 2854" d="M581.1,109.457h.175c1.221-2.907,3.257-4.768,6.629-4.768,4.652,0,6.222,3.082,6.222,6.513v11.862h-9.187v-8.083c0-1.337-.407-2.732-1.92-2.732s-1.919,1.395-1.919,2.732v23.377h-9.188V105.1H581.1Z" fill="#fff"/>
      <path id="路径_2855" data-name="路径 2855" d="M605.875,109.225h.116c.872-2.908,3.082-4.536,6.687-4.536,4.129,0,6.222,2.849,6.222,7.618v26.052h-9.186V115.273c0-1.454-.118-3.024-1.862-3.024s-1.977,1.57-1.977,3.024v23.086h-9.189V105.1h9.189Z" fill="#fff"/>
    </g>
  </g>
</svg>
