<svg xmlns="http://www.w3.org/2000/svg" width="213.104" height="66.076" viewBox="0 0 213.104 66.076">
  <g id="组_1321" data-name="组 1321" transform="translate(-141.247 -1863.167)">
    <path id="路径_2312" data-name="路径 2312" d="M353.645,1895.2l-12.6-26.148a5.266,5.266,0,0,0-4.56-2.633H159.113a5.267,5.267,0,0,0-4.56,2.633l-12.6,26.148a5.264,5.264,0,0,0,0,5.266l12.6,26.148a5.266,5.266,0,0,0,4.56,2.632H336.485a5.265,5.265,0,0,0,4.56-2.632l12.6-26.148A5.264,5.264,0,0,0,353.645,1895.2Z" fill="#c8d1ff"/>
    <path id="路径_2313" data-name="路径 2313" d="M353.645,1891.948l-12.6-26.148a5.265,5.265,0,0,0-4.56-2.633H159.113a5.267,5.267,0,0,0-4.56,2.633l-12.6,26.148a5.264,5.264,0,0,0,0,5.266l12.6,26.148a5.266,5.266,0,0,0,4.56,2.632H336.485a5.265,5.265,0,0,0,4.56-2.632l12.6-26.148A5.264,5.264,0,0,0,353.645,1891.948Z" fill="#00b8e0"/>
    <g id="组_1317" data-name="组 1317">
      <path id="路径_2314" data-name="路径 2314" d="M336.485,1867.167a1.27,1.27,0,0,1,1.044.55l12.513,25.967.065.135.074.129a1.267,1.267,0,0,1,0,1.266l-.074.129-.065.134-12.513,25.967a1.268,1.268,0,0,1-1.044.55H159.113a1.269,1.269,0,0,1-1.043-.549l-12.513-25.968-.065-.134-.075-.129a1.272,1.272,0,0,1,0-1.266l.075-.129.065-.135,12.513-25.967a1.27,1.27,0,0,1,1.043-.55H336.485m0-4H159.113a5.267,5.267,0,0,0-4.56,2.633l-12.6,26.148a5.264,5.264,0,0,0,0,5.266l12.6,26.148a5.266,5.266,0,0,0,4.56,2.632H336.485a5.265,5.265,0,0,0,4.56-2.632l12.6-26.148a5.264,5.264,0,0,0,0-5.266l-12.6-26.148a5.265,5.265,0,0,0-4.56-2.633Z" fill="#fff"/>
    </g>
    <g id="组_1320" data-name="组 1320">
      <g id="组_1318" data-name="组 1318">
        <path id="路径_2315" data-name="路径 2315" d="M191.416,1908.576a13.24,13.24,0,0,1-9.223-3.237.628.628,0,0,1,0-.941l2.221-3.124a.626.626,0,0,1,.941,0,9.939,9.939,0,0,0,6.061,1.882c2.522,0,4.065-1.318,4.065-3.953,0-2.409-1.468-3.613-4.366-3.613a10.8,10.8,0,0,0-2.484.338.645.645,0,0,1-.829-.414l-.9-2.07a.765.765,0,0,1,.189-.9l5.985-6.023h-9a.575.575,0,0,1-.64-.639v-3.991c0-.451.226-.677.64-.677h15.7c.414,0,.641.226.641.677v3.124a1.108,1.108,0,0,1-.339.829l-6.1,6.1v.075a7.151,7.151,0,0,1,7.454,7.453C201.429,1905.339,197.551,1908.576,191.416,1908.576Z" fill="#fff"/>
        <path id="路径_2316" data-name="路径 2316" d="M207.61,1905.6a.527.527,0,0,1-.56.364h-3.226c-.364,0-.505-.224-.364-.561l7.852-19.127a.528.528,0,0,1,.561-.364h3.169c.365,0,.533.224.365.561Z" fill="#fff"/>
        <path id="路径_2317" data-name="路径 2317" d="M227.1,1908.576a13.168,13.168,0,0,1-9.222-3.275.658.658,0,0,1,0-.94l2.334-3.087c.263-.339.6-.3.941-.038a10.252,10.252,0,0,0,5.8,1.92c2.861,0,4.254-1.506,4.254-4.141,0-2.447-1.431-3.614-4.1-3.614a7.659,7.659,0,0,0-4.441,1.242.915.915,0,0,1-.9.189l-2.9-.941a.729.729,0,0,1-.565-.753l.49-13.251a.652.652,0,0,1,.677-.677h15.208a.6.6,0,0,1,.678.677v4.066c0,.414-.226.639-.678.639H224.238l-.188,5.045a7.938,7.938,0,0,1,4.215-1.092c5.384,0,8.772,3.313,8.772,8.621C237.037,1904.963,233.2,1908.576,227.1,1908.576Z" fill="#fff"/>
      </g>
      <g id="组_1319" data-name="组 1319">
        <path id="路径_2318" data-name="路径 2318" d="M249.225,1891.869a.266.266,0,0,1-.272-.345l2.184-12.379a.308.308,0,0,1,.328-.291h4.278c2.657,0,4.732,1.6,4.113,5.206l-.527,3c-.619,3.586-2.7,4.805-5.753,4.805Zm3-2.639h1.8c1.274,0,2.075-.674,2.367-2.294l.565-3.24c.272-1.565-.255-2.2-1.548-2.2h-1.821Z" fill="#fff"/>
        <path id="路径_2319" data-name="路径 2319" d="M264.239,1892.106a3.345,3.345,0,0,1-3.5-4.132l.382-2.258c.4-2.2,2.184-3.567,4.715-3.567a3.363,3.363,0,0,1,3.568,4.059l-.419,2.294C268.571,1890.8,266.915,1892.106,264.239,1892.106Zm.31-2.385a1.548,1.548,0,0,0,1.674-1.365l.418-2.33c.147-.819-.236-1.493-1.11-1.493a1.59,1.59,0,0,0-1.638,1.366l-.419,2.348C263.31,1889.139,263.693,1889.721,264.549,1889.721Z" fill="#fff"/>
        <path id="路径_2320" data-name="路径 2320" d="M279.362,1882.4a.248.248,0,0,1,.273.328l-1.474,8.319a.425.425,0,0,1-.274.328,10.363,10.363,0,0,1-3.659.71c-2.712,0-3.95-1.729-3.495-4.3l.91-5.116a.3.3,0,0,1,.328-.273h2.112a.254.254,0,0,1,.273.328l-.91,5.334c-.2,1.129.2,1.656,1.11,1.656a3.143,3.143,0,0,0,1.129-.2l1.219-6.845a.3.3,0,0,1,.328-.273Z" fill="#fff"/>
        <path id="路径_2321" data-name="路径 2321" d="M286.057,1882.149c2.038,0,3.4,1.711,2.986,4.132l-.328,1.893a4.472,4.472,0,0,1-4.842,3.932,7.882,7.882,0,0,1-3.6-.892.324.324,0,0,1-.181-.4l2.092-11.669a.308.308,0,0,1,.329-.291h2.111c.219,0,.309.127.291.345l-.6,3.35A3.753,3.753,0,0,1,286.057,1882.149Zm.255,3.822c.2-1-.273-1.51-1.11-1.51a2.574,2.574,0,0,0-1.312.363l-.818,4.679a2.534,2.534,0,0,0,1.092.218c.946,0,1.584-.509,1.8-1.747Z" fill="#fff"/>
        <path id="路径_2322" data-name="路径 2322" d="M292.88,1892.106c-1.966,0-2.986-1.547-2.585-3.914l1.6-9.047a.319.319,0,0,1,.328-.291h2.112a.267.267,0,0,1,.273.345l-1.6,9.139c-.164.874.054,1.365.71,1.365h.364c.219-.018.328.073.291.291l-.291,1.73c-.036.182-.11.273-.237.291A4.663,4.663,0,0,1,292.88,1892.106Z" fill="#fff"/>
        <path id="路径_2323" data-name="路径 2323" d="M300.522,1882.149c2.33,0,3.987,1.237,3.495,3.913l-.309,1.766a.3.3,0,0,1-.327.273H298.32l-.055.255c-.181.965.255,1.438,1.256,1.438a4.729,4.729,0,0,0,2.366-.728c.183-.127.329-.109.419.091l.746,1.4a.314.314,0,0,1-.108.436,6.545,6.545,0,0,1-3.8,1.111c-2.384,0-4.042-1.456-3.623-3.823l.474-2.639A4.236,4.236,0,0,1,300.522,1882.149Zm.874,3.677a1.045,1.045,0,0,0-1.11-1.365,1.513,1.513,0,0,0-1.547,1.328l-.092.492H301.3Z" fill="#fff"/>
        <path id="路径_2324" data-name="路径 2324" d="M249.244,1907.857a.271.271,0,0,1-.291-.346l2.184-12.379a.319.319,0,0,1,.328-.291h4.478c2.548,0,3.822,1.638,3.458,3.768a3.175,3.175,0,0,1-1.656,2.367,2.582,2.582,0,0,1,1.256,2.967c-.418,2.512-2.093,3.914-5.17,3.914Zm2.967-2.567h1.929a1.83,1.83,0,0,0,1.966-1.62c.128-.856-.255-1.4-1.383-1.4h-1.984Zm.965-5.37h1.674a1.531,1.531,0,0,0,1.658-1.347c.145-.765-.183-1.238-1.2-1.238h-1.674Z" fill="#fff"/>
        <path id="路径_2325" data-name="路径 2325" d="M263.8,1908.093a3.346,3.346,0,0,1-3.495-4.132l.383-2.257c.4-2.2,2.185-3.568,4.715-3.568a3.362,3.362,0,0,1,3.567,4.059l-.418,2.294C268.134,1906.782,266.478,1908.093,263.8,1908.093Zm.31-2.384a1.55,1.55,0,0,0,1.675-1.366l.419-2.33c.145-.819-.237-1.492-1.111-1.492a1.588,1.588,0,0,0-1.638,1.365l-.419,2.348C262.874,1905.126,263.256,1905.709,264.111,1905.709Z" fill="#fff"/>
        <path id="路径_2326" data-name="路径 2326" d="M269.987,1907.857a.271.271,0,0,1-.291-.346l1.493-8.319a.447.447,0,0,1,.273-.328,10.931,10.931,0,0,1,3.7-.728c2.749,0,3.987,1.747,3.532,4.332l-.91,5.1a.326.326,0,0,1-.347.291H275.34a.285.285,0,0,1-.291-.346l.91-5.316c.217-1.146-.183-1.674-1.148-1.674a3.016,3.016,0,0,0-1.165.218l-1.2,6.827a.311.311,0,0,1-.346.291Z" fill="#fff"/>
        <path id="路径_2327" data-name="路径 2327" d="M288.86,1898.391a.248.248,0,0,1,.274.327l-1.475,8.319a.421.421,0,0,1-.273.328,10.367,10.367,0,0,1-3.659.71c-2.713,0-3.95-1.729-3.495-4.3l.91-5.115a.3.3,0,0,1,.327-.273h2.113a.253.253,0,0,1,.272.327l-.91,5.334c-.2,1.129.2,1.657,1.11,1.657a3.139,3.139,0,0,0,1.129-.2l1.22-6.844a.294.294,0,0,1,.328-.273Z" fill="#fff"/>
        <path id="路径_2328" data-name="路径 2328" d="M292.988,1908.093a5.549,5.549,0,0,1-3.7-1.219.288.288,0,0,1-.055-.437l1.038-1.42a.289.289,0,0,1,.437-.073,3.887,3.887,0,0,0,2.367.783c.873,0,1.31-.273,1.4-.692.127-.564-.51-.71-1.238-.874-1.784-.364-3.2-1.438-2.8-3.4.382-1.838,1.911-2.621,4.113-2.621a6.059,6.059,0,0,1,3.2.837.267.267,0,0,1,.073.437l-1.074,1.438a.3.3,0,0,1-.437.091,4,4,0,0,0-2.021-.491c-.673,0-1.092.145-1.165.6-.109.545.473.709,1.347.91,1.4.309,3.15,1.183,2.767,3.313C296.884,1907.2,295.263,1908.093,292.988,1908.093Z" fill="#fff"/>
      </g>
    </g>
  </g>
</svg>
