<svg xmlns="http://www.w3.org/2000/svg" width="213.103" height="66.076" viewBox="0 0 213.103 66.076">
  <g id="组_1351" data-name="组 1351" transform="translate(-435.209 -1785.407)">
    <path id="路径_2357" data-name="路径 2357" d="M647.607,1817.437l-12.6-26.148a5.267,5.267,0,0,0-4.56-2.633H453.075a5.264,5.264,0,0,0-4.56,2.633l-12.6,26.148a5.267,5.267,0,0,0,0,5.265l12.6,26.148a5.264,5.264,0,0,0,4.56,2.633H630.447a5.267,5.267,0,0,0,4.56-2.633l12.6-26.148A5.267,5.267,0,0,0,647.607,1817.437Z" fill="#c8d1ff"/>
    <path id="路径_2358" data-name="路径 2358" d="M647.607,1814.188l-12.6-26.148a5.267,5.267,0,0,0-4.56-2.633H453.075a5.264,5.264,0,0,0-4.56,2.633l-12.6,26.148a5.267,5.267,0,0,0,0,5.265l12.6,26.148a5.264,5.264,0,0,0,4.56,2.633H630.447a5.267,5.267,0,0,0,4.56-2.633l12.6-26.148A5.267,5.267,0,0,0,647.607,1814.188Z" fill="#00b8e0"/>
    <g id="组_1348" data-name="组 1348">
      <path id="路径_2359" data-name="路径 2359" d="M630.447,1789.407a1.266,1.266,0,0,1,1.043.55L644,1815.924l.065.134.075.129a1.272,1.272,0,0,1,0,1.266l-.075.13-.065.134-12.513,25.967a1.266,1.266,0,0,1-1.043.55H453.075a1.269,1.269,0,0,1-1.044-.55l-12.513-25.967-.065-.135-.074-.129a1.265,1.265,0,0,1,0-1.265l.074-.13.065-.134,12.513-25.967a1.268,1.268,0,0,1,1.044-.55H630.447m0-4H453.075a5.265,5.265,0,0,0-4.56,2.633l-12.6,26.148a5.267,5.267,0,0,0,0,5.265l12.6,26.148a5.265,5.265,0,0,0,4.56,2.633H630.447a5.267,5.267,0,0,0,4.56-2.633l12.6-26.148a5.267,5.267,0,0,0,0-5.265l-12.6-26.148a5.267,5.267,0,0,0-4.56-2.633Z" fill="#fff"/>
    </g>
    <g id="组_1350" data-name="组 1350">
      <g id="组_1349" data-name="组 1349">
        <path id="路径_2360" data-name="路径 2360" d="M485.613,1814.327c-2.876,0-4.587-2.148-4.1-5.006l.656-3.9a5.366,5.366,0,0,1,5.679-4.569,6.616,6.616,0,0,1,4.077,1.311.307.307,0,0,1,.038.455l-1.4,1.584a.3.3,0,0,1-.436.072,4.307,4.307,0,0,0-2.567-.782,2.4,2.4,0,0,0-2.476,2.2l-.656,3.823c-.2,1.22.365,2.148,1.621,2.148a4.616,4.616,0,0,0,2.039-.491l.419-2.275h-1.93a.268.268,0,0,1-.274-.347l.31-1.729a.308.308,0,0,1,.328-.291h4.4a.266.266,0,0,1,.273.346l-.946,5.37a.587.587,0,0,1-.182.346A7.616,7.616,0,0,1,485.613,1814.327Z" fill="#fff"/>
        <path id="路径_2361" data-name="路径 2361" d="M497.132,1814.345c-3.114,0-4.7-2.257-4.133-5.5l.564-3.222a5.534,5.534,0,0,1,5.88-4.77c3.113,0,4.751,2.112,4.205,5.388l-.564,3.222C502.556,1812.579,500.408,1814.345,497.132,1814.345Zm.418-2.657a2.555,2.555,0,0,0,2.6-2.385l.582-3.332c.255-1.456-.291-2.457-1.674-2.457a2.505,2.505,0,0,0-2.567,2.367l-.6,3.294C495.638,1810.668,496.2,1811.688,497.55,1811.688Z" fill="#fff"/>
        <path id="路径_2362" data-name="路径 2362" d="M511.2,1814.345c-2.549,0-3.842-1.456-3.478-3.441.31-1.765,1.8-2.548,4.133-2.548a8.128,8.128,0,0,1,1.547.146l.036-.291c.164-.892-.091-1.384-1.237-1.384a5.461,5.461,0,0,0-2.166.419c-.2.091-.347.054-.419-.146l-.564-1.492c-.055-.164-.055-.292.054-.365a7.529,7.529,0,0,1,3.714-.855c2.476,0,3.75,1.638,3.258,4.369l-.819,4.605a.419.419,0,0,1-.273.346A11.76,11.76,0,0,1,511.2,1814.345Zm.346-2.275a6.43,6.43,0,0,0,1.256-.146l.254-1.583a5.829,5.829,0,0,0-1.165-.128c-.891,0-1.365.291-1.456.837C510.3,1811.742,510.742,1812.07,511.543,1812.07Z" fill="#fff"/>
        <path id="路径_2363" data-name="路径 2363" d="M520.841,1814.345c-2.457,0-3.951-1.638-3.5-4.223l.4-2.257c.4-2.294,2.221-3.477,4.533-3.477a4.568,4.568,0,0,1,2.767.873.3.3,0,0,1,.054.437l-1.074,1.384a.3.3,0,0,1-.436.054,2.8,2.8,0,0,0-1.4-.382,1.587,1.587,0,0,0-1.712,1.4l-.382,2.148c-.218,1.11.273,1.675,1.165,1.675a3.5,3.5,0,0,0,1.711-.528.279.279,0,0,1,.437.109l.71,1.566a.291.291,0,0,1-.146.437A6.34,6.34,0,0,1,520.841,1814.345Z" fill="#fff"/>
        <path id="路径_2364" data-name="路径 2364" d="M528.9,1814.345c-2.457,0-3.95-1.638-3.495-4.223l.4-2.257c.4-2.294,2.221-3.477,4.534-3.477a4.565,4.565,0,0,1,2.766.873.3.3,0,0,1,.055.437l-1.074,1.384a.3.3,0,0,1-.437.054,2.789,2.789,0,0,0-1.4-.382,1.587,1.587,0,0,0-1.712,1.4l-.382,2.148c-.219,1.11.272,1.675,1.165,1.675a3.5,3.5,0,0,0,1.711-.528.279.279,0,0,1,.437.109l.709,1.566a.292.292,0,0,1-.145.437A6.341,6.341,0,0,1,528.9,1814.345Z" fill="#fff"/>
        <path id="路径_2365" data-name="路径 2365" d="M538.419,1804.388c2.33,0,3.986,1.238,3.495,3.913l-.31,1.767a.3.3,0,0,1-.328.273h-5.06l-.055.254c-.182.965.255,1.438,1.257,1.438a4.739,4.739,0,0,0,2.366-.728c.182-.127.327-.109.419.091l.746,1.4c.072.182.055.346-.109.437a6.552,6.552,0,0,1-3.805,1.11c-2.385,0-4.041-1.456-3.622-3.822l.472-2.64A4.239,4.239,0,0,1,538.419,1804.388Zm.874,3.677a1.047,1.047,0,0,0-1.111-1.365,1.515,1.515,0,0,0-1.548,1.328l-.09.492H539.2Z" fill="#fff"/>
        <path id="路径_2366" data-name="路径 2366" d="M547.935,1804.406c2.621,0,4.077,1.784,3.659,4.223l-.364,2.094a4.188,4.188,0,0,1-4.2,3.622,3.685,3.685,0,0,1-1.766-.4l-.6,3.331a.309.309,0,0,1-.328.291h-2.112c-.218,0-.309-.145-.273-.346L544,1805.48a.456.456,0,0,1,.255-.327A9.526,9.526,0,0,1,547.935,1804.406Zm.91,4.023c.219-1.183-.181-1.638-1.165-1.638a2.721,2.721,0,0,0-1.2.273l-.819,4.624a2.049,2.049,0,0,0,1.165.345c.929,0,1.492-.546,1.692-1.674Z" fill="#fff"/>
        <path id="路径_2367" data-name="路径 2367" d="M556.177,1807.173l-.619,3.513c-.145.82.146,1.257.892,1.257h.492c.218-.019.346.072.291.309l-.291,1.693a.333.333,0,0,1-.309.309,5.009,5.009,0,0,1-.929.091c-2.021,0-3.313-1.219-2.84-3.877l1.365-7.81a.325.325,0,0,1,.346-.291h1.784a.277.277,0,0,1,.31.328l-.11,2.166h1.457a.271.271,0,0,1,.291.346l-.291,1.675a.312.312,0,0,1-.346.291Z" fill="#fff"/>
        <path id="路径_2368" data-name="路径 2368" d="M565.766,1814.345a3.346,3.346,0,0,1-3.495-4.132l.383-2.257c.4-2.2,2.185-3.568,4.715-3.568a3.362,3.362,0,0,1,3.567,4.059l-.418,2.294C570.1,1813.034,568.443,1814.345,565.766,1814.345Zm.31-2.384a1.55,1.55,0,0,0,1.675-1.366l.419-2.33c.145-.819-.237-1.492-1.111-1.492a1.588,1.588,0,0,0-1.638,1.365l-.419,2.348C564.839,1811.378,565.22,1811.961,566.076,1811.961Z" fill="#fff"/>
        <path id="路径_2369" data-name="路径 2369" d="M575.5,1807.173l-.619,3.513c-.146.82.145,1.257.891,1.257h.492c.218-.019.346.072.291.309l-.291,1.693a.333.333,0,0,1-.309.309,5,5,0,0,1-.929.091c-2.02,0-3.312-1.219-2.84-3.877l1.365-7.81a.325.325,0,0,1,.346-.291h1.784a.277.277,0,0,1,.31.328l-.109,2.166h1.457a.272.272,0,0,1,.291.346l-.291,1.675a.314.314,0,0,1-.347.291Z" fill="#fff"/>
        <path id="路径_2370" data-name="路径 2370" d="M583.745,1804.388c2.13,0,3.332,1.62,2.858,4.314l-.91,5.116a.308.308,0,0,1-.328.291h-2.093a.271.271,0,0,1-.291-.346l.928-5.389c.2-1.055-.146-1.6-1.129-1.6a2.864,2.864,0,0,0-1.219.309l-1.183,6.736a.325.325,0,0,1-.346.291h-2.094a.286.286,0,0,1-.291-.346l2.2-12.379a.3.3,0,0,1,.328-.291h2.094a.267.267,0,0,1,.273.346l-.582,3.331A4.026,4.026,0,0,1,583.745,1804.388Z" fill="#fff"/>
        <path id="路径_2371" data-name="路径 2371" d="M592.88,1804.388c2.33,0,3.986,1.238,3.495,3.913l-.31,1.767a.3.3,0,0,1-.328.273h-5.061l-.054.254c-.182.965.255,1.438,1.257,1.438a4.739,4.739,0,0,0,2.366-.728c.181-.127.327-.109.419.091l.746,1.4c.072.182.055.346-.109.437a6.552,6.552,0,0,1-3.805,1.11c-2.385,0-4.041-1.456-3.622-3.822l.472-2.64A4.238,4.238,0,0,1,592.88,1804.388Zm.874,3.677a1.047,1.047,0,0,0-1.111-1.365,1.514,1.514,0,0,0-1.548,1.328l-.09.492h2.657Z" fill="#fff"/>
        <path id="路径_2372" data-name="路径 2372" d="M597.3,1814.109a.271.271,0,0,1-.292-.346l1.438-8.265a.477.477,0,0,1,.273-.345,8.048,8.048,0,0,1,3.368-.765,7.441,7.441,0,0,1,1.51.163.29.29,0,0,1,.255.365l-.327,1.784a.3.3,0,0,1-.364.273,6.133,6.133,0,0,0-1.056-.091,3.127,3.127,0,0,0-1.183.218l-1.184,6.718a.318.318,0,0,1-.327.291Z" fill="#fff"/>
        <path id="路径_2373" data-name="路径 2373" d="M479.6,1820.393c2.621,0,4.077,1.784,3.66,4.223l-.365,2.094a4.189,4.189,0,0,1-4.205,3.623,3.667,3.667,0,0,1-1.765-.4l-.6,3.331a.309.309,0,0,1-.328.291h-2.111c-.219,0-.31-.145-.274-.345l2.058-11.742a.458.458,0,0,1,.255-.327A9.526,9.526,0,0,1,479.6,1820.393Zm.91,4.023c.219-1.183-.181-1.638-1.165-1.638a2.719,2.719,0,0,0-1.2.273l-.819,4.624a2.05,2.05,0,0,0,1.165.346c.929,0,1.492-.546,1.692-1.675Z" fill="#fff"/>
        <path id="路径_2374" data-name="路径 2374" d="M487.113,1830.333c-1.966,0-2.985-1.548-2.585-3.914l1.6-9.048a.318.318,0,0,1,.327-.291h2.111a.268.268,0,0,1,.274.346l-1.6,9.138c-.164.874.055,1.366.71,1.366h.363c.219-.019.328.073.292.291l-.292,1.729c-.036.182-.108.273-.236.291A4.649,4.649,0,0,1,487.113,1830.333Z" fill="#fff"/>
        <path id="路径_2375" data-name="路径 2375" d="M492.845,1830.333c-2.548,0-3.841-1.457-3.477-3.441.309-1.766,1.8-2.549,4.133-2.549a8.118,8.118,0,0,1,1.547.146l.036-.291c.164-.892-.091-1.383-1.238-1.383a5.465,5.465,0,0,0-2.166.418c-.2.091-.346.055-.419-.145l-.564-1.493c-.055-.164-.055-.292.055-.364a7.517,7.517,0,0,1,3.714-.856c2.475,0,3.75,1.638,3.257,4.369l-.819,4.6a.414.414,0,0,1-.272.346A11.765,11.765,0,0,1,492.845,1830.333Zm.346-2.276a6.42,6.42,0,0,0,1.256-.146l.255-1.583a5.845,5.845,0,0,0-1.165-.128c-.892,0-1.365.291-1.456.838C491.953,1827.729,492.39,1828.057,493.191,1828.057Z" fill="#fff"/>
        <path id="路径_2376" data-name="路径 2376" d="M505.293,1820.9a.31.31,0,0,1,.345-.273h2.094a.271.271,0,0,1,.291.328l-1.456,8.246c-.583,3.259-1.948,4.569-4.933,4.569a4.722,4.722,0,0,1-3.277-1.056.3.3,0,0,1-.037-.437l1.129-1.438c.128-.182.273-.182.455-.073a3.341,3.341,0,0,0,1.948.583c1.147,0,1.747-.51,1.948-1.784a4.843,4.843,0,0,1-1.547.273c-2.24,0-3.459-1.657-3.04-4.114l.874-4.824a.283.283,0,0,1,.327-.273h2.094c.217,0,.327.127.291.328l-.911,5.024c-.2,1.074.255,1.529,1.075,1.529a2.5,2.5,0,0,0,1.219-.31Z" fill="#fff"/>
        <path id="路径_2377" data-name="路径 2377" d="M513.753,1820.375c2.33,0,3.987,1.238,3.495,3.914l-.31,1.766a.3.3,0,0,1-.327.273h-5.06l-.055.255c-.182.965.255,1.438,1.256,1.438a4.745,4.745,0,0,0,2.366-.728c.183-.128.328-.11.419.09l.746,1.4a.316.316,0,0,1-.108.437,6.548,6.548,0,0,1-3.8,1.111c-2.385,0-4.042-1.457-3.623-3.823l.473-2.64A4.238,4.238,0,0,1,513.753,1820.375Zm.874,3.677a1.046,1.046,0,0,0-1.111-1.365,1.513,1.513,0,0,0-1.547,1.329l-.091.491h2.658Z" fill="#fff"/>
        <path id="路径_2378" data-name="路径 2378" d="M518.173,1830.1a.271.271,0,0,1-.291-.346l1.437-8.264a.482.482,0,0,1,.274-.346,8.039,8.039,0,0,1,3.368-.765,7.391,7.391,0,0,1,1.51.164.289.289,0,0,1,.255.364l-.328,1.784a.3.3,0,0,1-.364.273,6.136,6.136,0,0,0-1.056-.091,3.1,3.1,0,0,0-1.182.219l-1.184,6.717a.319.319,0,0,1-.328.291Z" fill="#fff"/>
        <path id="路径_2379" data-name="路径 2379" d="M527.909,1830.333a5.549,5.549,0,0,1-3.7-1.22.288.288,0,0,1-.055-.437l1.037-1.42a.29.29,0,0,1,.438-.073,3.884,3.884,0,0,0,2.366.783c.874,0,1.31-.273,1.4-.692.128-.564-.51-.71-1.237-.873-1.784-.365-3.2-1.438-2.8-3.405.383-1.838,1.911-2.621,4.114-2.621a6.048,6.048,0,0,1,3.2.838.267.267,0,0,1,.073.437l-1.075,1.438a.3.3,0,0,1-.436.09,4.009,4.009,0,0,0-2.021-.491c-.673,0-1.092.146-1.165.6-.109.546.474.71,1.347.91,1.4.309,3.15,1.183,2.768,3.313C531.8,1829.441,530.184,1830.333,527.909,1830.333Z" fill="#fff"/>
        <path id="路径_2380" data-name="路径 2380" d="M536.443,1821.977a.319.319,0,0,1-.346.255h-1.365c-.219,0-.328-.127-.273-.346l.892-4.533a.321.321,0,0,1,.346-.273h1.711c.236,0,.327.146.273.346Z" fill="#fff"/>
        <path id="路径_2381" data-name="路径 2381" d="M540.81,1830.333c-2.457,0-3.95-1.639-3.495-4.224l.4-2.257c.4-2.294,2.22-3.477,4.533-3.477a4.558,4.558,0,0,1,2.766.874.3.3,0,0,1,.055.437L544,1823.069a.3.3,0,0,1-.437.055,2.779,2.779,0,0,0-1.4-.383,1.587,1.587,0,0,0-1.712,1.4l-.382,2.148c-.219,1.111.273,1.675,1.165,1.675a3.5,3.5,0,0,0,1.711-.528.279.279,0,0,1,.437.11l.71,1.565a.292.292,0,0,1-.146.437A6.343,6.343,0,0,1,540.81,1830.333Z" fill="#fff"/>
        <path id="路径_2382" data-name="路径 2382" d="M551.256,1820.375c2.129,0,3.332,1.62,2.858,4.314l-.91,5.116a.309.309,0,0,1-.328.291h-2.093a.271.271,0,0,1-.291-.346l.928-5.389c.2-1.055-.146-1.6-1.129-1.6a2.865,2.865,0,0,0-1.219.309l-1.184,6.736a.324.324,0,0,1-.345.291h-2.094a.285.285,0,0,1-.291-.346l2.2-12.379a.3.3,0,0,1,.328-.291h2.094a.266.266,0,0,1,.272.346l-.582,3.331A4.049,4.049,0,0,1,551.256,1820.375Z" fill="#fff"/>
        <path id="路径_2383" data-name="路径 2383" d="M558.479,1830.333c-2.549,0-3.842-1.457-3.477-3.441.309-1.766,1.8-2.549,4.132-2.549a8.119,8.119,0,0,1,1.547.146l.037-.291c.164-.892-.091-1.383-1.238-1.383a5.461,5.461,0,0,0-2.166.418c-.2.091-.346.055-.419-.145l-.564-1.493c-.055-.164-.055-.292.054-.364a7.519,7.519,0,0,1,3.714-.856c2.476,0,3.75,1.638,3.258,4.369l-.819,4.6a.416.416,0,0,1-.273.346A11.754,11.754,0,0,1,558.479,1830.333Zm.346-2.276a6.42,6.42,0,0,0,1.256-.146l.255-1.583a5.846,5.846,0,0,0-1.165-.128c-.892,0-1.366.291-1.456.838C557.587,1827.729,558.024,1828.057,558.825,1828.057Z" fill="#fff"/>
        <path id="路径_2384" data-name="路径 2384" d="M567.358,1830.333c-1.966,0-2.985-1.548-2.585-3.914l1.6-9.048a.318.318,0,0,1,.327-.291h2.111a.268.268,0,0,1,.274.346l-1.6,9.138c-.164.874.055,1.366.71,1.366h.363c.219-.019.328.073.292.291l-.292,1.729c-.036.182-.108.273-.236.291A4.649,4.649,0,0,1,567.358,1830.333Z" fill="#fff"/>
        <path id="路径_2385" data-name="路径 2385" d="M572.781,1830.333c-1.966,0-2.985-1.548-2.585-3.914l1.6-9.048a.319.319,0,0,1,.328-.291h2.111a.267.267,0,0,1,.273.346l-1.6,9.138c-.164.874.055,1.366.71,1.366h.364c.219-.019.328.073.291.291l-.291,1.729c-.036.182-.109.273-.236.291A4.655,4.655,0,0,1,572.781,1830.333Z" fill="#fff"/>
        <path id="路径_2386" data-name="路径 2386" d="M580.424,1820.375c2.33,0,3.987,1.238,3.495,3.914l-.31,1.766a.3.3,0,0,1-.327.273h-5.061l-.054.255c-.182.965.255,1.438,1.256,1.438a4.745,4.745,0,0,0,2.366-.728c.182-.128.328-.11.419.09l.746,1.4a.315.315,0,0,1-.109.437,6.542,6.542,0,0,1-3.8,1.111c-2.385,0-4.042-1.457-3.623-3.823l.473-2.64A4.238,4.238,0,0,1,580.424,1820.375Zm.874,3.677a1.046,1.046,0,0,0-1.111-1.365,1.513,1.513,0,0,0-1.547,1.329l-.091.491h2.658Z" fill="#fff"/>
        <path id="路径_2387" data-name="路径 2387" d="M584.825,1830.1a.271.271,0,0,1-.291-.346l1.493-8.319a.445.445,0,0,1,.273-.328,10.931,10.931,0,0,1,3.7-.728c2.749,0,3.987,1.748,3.532,4.333l-.91,5.1a.326.326,0,0,1-.347.291h-2.093a.286.286,0,0,1-.291-.346l.911-5.315c.217-1.147-.183-1.675-1.148-1.675a3.034,3.034,0,0,0-1.165.218l-1.2,6.827a.312.312,0,0,1-.346.291Z" fill="#fff"/>
        <path id="路径_2388" data-name="路径 2388" d="M597.472,1833.773a4.678,4.678,0,0,1-3.295-1.092.274.274,0,0,1-.036-.437l1.111-1.42a.276.276,0,0,1,.437-.055,3.73,3.73,0,0,0,2.021.565,1.852,1.852,0,0,0,1.984-1.766,5.6,5.6,0,0,1-1.62.273c-2.367,0-3.623-1.638-3.187-4.041l.31-1.73c.455-2.566,2.385-3.695,4.733-3.695a8.934,8.934,0,0,1,3.66.765.346.346,0,0,1,.2.4l-1.329,7.664C601.9,1832.463,600.64,1833.773,597.472,1833.773Zm1.275-6.28a2.462,2.462,0,0,0,1.329-.346l.71-4.151a2.335,2.335,0,0,0-1.092-.218,1.581,1.581,0,0,0-1.729,1.383l-.329,1.875C597.455,1827.056,597.855,1827.493,598.747,1827.493Z" fill="#fff"/>
        <path id="路径_2389" data-name="路径 2389" d="M609.61,1820.375c2.33,0,3.987,1.238,3.495,3.914l-.309,1.766a.305.305,0,0,1-.328.273h-5.06l-.055.255c-.181.965.255,1.438,1.256,1.438a4.739,4.739,0,0,0,2.366-.728c.183-.128.328-.11.419.09l.746,1.4a.315.315,0,0,1-.108.437,6.545,6.545,0,0,1-3.8,1.111c-2.384,0-4.042-1.457-3.623-3.823l.474-2.64A4.237,4.237,0,0,1,609.61,1820.375Zm.874,3.677a1.046,1.046,0,0,0-1.11-1.365,1.513,1.513,0,0,0-1.547,1.329l-.092.491h2.658Z" fill="#fff"/>
      </g>
    </g>
  </g>
</svg>
