<svg xmlns="http://www.w3.org/2000/svg" width="690.727" height="384.635" viewBox="0 0 690.727 384.635">
  <g id="组_1283" data-name="组 1283" transform="translate(867.804 -376.927)">
    <g id="组_1281" data-name="组 1281">
      <path id="路径_2202" data-name="路径 2202" d="M-202.039,379.927H-867.8V736.341a25.25,25.25,0,0,0,25.222,25.221H-202.3a25.249,25.249,0,0,0,25.221-25.221V405.148a25.319,25.319,0,0,0-23.213-25.129l-.079-.078-1.67-.014Z" fill="#c8d1ff"/>
    </g>
    <path id="路径_2203" data-name="路径 2203" d="M-202.025,380.941l-.014-.014H-863.8V733.341a21.222,21.222,0,0,0,21.222,21.221H-202.3a21.221,21.221,0,0,0,21.221-21.221V402.148A21.212,21.212,0,0,0-202.025,380.941Z" fill="#1a1a1a"/>
    <g id="组_1282" data-name="组 1282">
      <path id="路径_2204" data-name="路径 2204" d="M-202.039,380.927l.014.014a21.212,21.212,0,0,1,20.948,21.207V733.341A21.221,21.221,0,0,1-202.3,754.562H-842.582A21.222,21.222,0,0,1-863.8,733.341V380.927h661.765m0-4H-867.8V733.341a25.25,25.25,0,0,0,25.222,25.221H-202.3a25.249,25.249,0,0,0,25.221-25.221V402.148a25.319,25.319,0,0,0-23.213-25.129l-.079-.078-1.67-.014Z" fill="#fff"/>
    </g>
  </g>
</svg>
