<svg xmlns="http://www.w3.org/2000/svg" width="498.902" height="55.037" viewBox="0 0 498.902 55.037">
  <g id="组_1294" data-name="组 1294" transform="translate(1667.247 -92.38)">
    <path id="路径_2220" data-name="路径 2220" d="M-1180.772,92.38h-453.25l-33.225,55.037h498.9v-42.61A12.427,12.427,0,0,0-1180.772,92.38Z" fill="#fff"/>
    <g id="组_1293" data-name="组 1293">
      <g id="组_1292" data-name="组 1292">
        <g id="组_1291" data-name="组 1291">
          <path id="路径_2221" data-name="路径 2221" d="M-1610.761,134.357c-6.495,0-9.954-3.362-9.954-8.976v-6.332c0-5.581,3.655-8.943,9.954-8.943a12.678,12.678,0,0,1,6.985,1.991.561.561,0,0,1,.163.881l-2.513,3.884a.592.592,0,0,1-.914.2,6.956,6.956,0,0,0-3.492-.914c-2.383,0-3.688,1.4-3.688,3.264v5.581c0,2.154,1.338,3.33,3.557,3.33a7.667,7.667,0,0,0,3.982-1.11.557.557,0,0,1,.881.163l2.546,3.884c.229.326.261.62.033.783A12.618,12.618,0,0,1-1610.761,134.357Z"/>
          <path id="路径_2222" data-name="路径 2222" d="M-1587.324,116.862a.586.586,0,0,1,.653.653v14.753a.745.745,0,0,1-.49.75,20.154,20.154,0,0,1-7.017,1.339c-5.353,0-7.866-3.1-7.866-7.768v-9.074a.587.587,0,0,1,.653-.653h4.765a.587.587,0,0,1,.653.653v9.172c0,1.795.62,2.349,1.8,2.349a3.916,3.916,0,0,0,1.469-.228V117.515a.586.586,0,0,1,.652-.653Z"/>
          <path id="路径_2223" data-name="路径 2223" d="M-1582.883,133.9a.586.586,0,0,1-.652-.653V118.592a.82.82,0,0,1,.456-.783,13.939,13.939,0,0,1,6.3-1.4,17.5,17.5,0,0,1,3,.327.678.678,0,0,1,.587.718v3.622a.541.541,0,0,1-.686.588,11.628,11.628,0,0,0-1.5-.1,5.358,5.358,0,0,0-2.121.359v11.326a.587.587,0,0,1-.653.653Z"/>
          <path id="路径_2224" data-name="路径 2224" d="M-1570.511,133.9a.586.586,0,0,1-.653-.653V118.592a.821.821,0,0,1,.457-.783,13.938,13.938,0,0,1,6.3-1.4,17.5,17.5,0,0,1,3,.327.678.678,0,0,1,.588.718v3.622a.541.541,0,0,1-.686.588,11.638,11.638,0,0,0-1.5-.1,5.367,5.367,0,0,0-2.122.359v11.326a.586.586,0,0,1-.652.653Z"/>
          <path id="路径_2225" data-name="路径 2225" d="M-1544.17,126.523a.586.586,0,0,1-.653.653h-8.616v.163a1.933,1.933,0,0,0,2.219,2.089,7.663,7.663,0,0,0,3.721-.914.577.577,0,0,1,.881.163l1.958,2.677a.609.609,0,0,1-.1.914,10.547,10.547,0,0,1-6.691,2.089c-4.7,0-8.062-2.481-8.062-7.181v-3.655c0-4.929,3.264-7.116,7.866-7.116,4.439,0,7.474,2.089,7.474,7.116Zm-7.539-5.32c-1.143,0-1.73.686-1.73,1.958v.523h3.492v-.523C-1549.947,121.889-1550.567,121.2-1551.709,121.2Z"/>
          <path id="路径_2226" data-name="路径 2226" d="M-1540.937,133.9a.586.586,0,0,1-.652-.653V118.494a.748.748,0,0,1,.489-.751,20.713,20.713,0,0,1,7.116-1.338c5.385,0,7.931,3.1,7.931,7.769v9.073a.587.587,0,0,1-.653.653h-4.765a.586.586,0,0,1-.653-.653v-9.172c0-1.795-.653-2.35-1.86-2.35a5.728,5.728,0,0,0-1.567.2v11.326a.586.586,0,0,1-.653.653Z"/>
          <path id="路径_2227" data-name="路径 2227" d="M-1515.313,129.036a6.293,6.293,0,0,0,.816-.065c.457-.065.718.1.718.555v3.819a.71.71,0,0,1-.522.75,8.278,8.278,0,0,1-2.285.262c-4.145,0-6.593-2.383-6.593-6.463V113.468a.586.586,0,0,1,.653-.653h4.211a.617.617,0,0,1,.685.62l.424,3.917h2.48a.586.586,0,0,1,.653.653v3.753a.586.586,0,0,1-.653.653h-2.415v4.536C-1517.141,128.383-1516.553,129.036-1515.313,129.036Z"/>
          <path id="路径_2228" data-name="路径 2228" d="M-1494.651,110.563c5.092,0,8.454,3.394,8.454,8.519s-3.4,8.518-8.454,8.518h-3.3v5.647a.586.586,0,0,1-.653.653h-5.059a.586.586,0,0,1-.653-.653V111.216a.586.586,0,0,1,.653-.653Zm-.979,11.162c1.893,0,2.905-.913,2.905-2.643s-1.012-2.644-2.905-2.644h-2.317v5.287Z"/>
          <path id="路径_2229" data-name="路径 2229" d="M-1469.353,116.862a.587.587,0,0,1,.653.653v14.753a.747.747,0,0,1-.49.75,20.155,20.155,0,0,1-7.017,1.339c-5.353,0-7.866-3.1-7.866-7.768v-9.074a.586.586,0,0,1,.653-.653h4.765a.587.587,0,0,1,.653.653v9.172c0,1.795.62,2.349,1.795,2.349a3.919,3.919,0,0,0,1.469-.228V117.515a.586.586,0,0,1,.652-.653Z"/>
          <path id="路径_2230" data-name="路径 2230" d="M-1465.532,133.9a.586.586,0,0,1-.653-.653V130.6a1.253,1.253,0,0,1,.294-.816l5.973-7.637h-5.124a.586.586,0,0,1-.653-.653v-3.982a.586.586,0,0,1,.653-.653h12.631a.586.586,0,0,1,.652.653v2.513a1.222,1.222,0,0,1-.261.816l-5.777,7.768h5.614a.587.587,0,0,1,.653.653v3.982a.586.586,0,0,1-.653.653Z"/>
          <path id="路径_2231" data-name="路径 2231" d="M-1448.885,133.9a.586.586,0,0,1-.653-.653V130.6a1.259,1.259,0,0,1,.294-.816l5.973-7.637h-5.124a.587.587,0,0,1-.653-.653v-3.982a.587.587,0,0,1,.653-.653h12.631a.587.587,0,0,1,.653.653v2.513a1.222,1.222,0,0,1-.261.816l-5.777,7.768h5.613a.586.586,0,0,1,.653.653v3.982a.586.586,0,0,1-.653.653Z"/>
          <path id="路径_2232" data-name="路径 2232" d="M-1425.872,134.357c-4.08,0-6.495-2.35-6.495-6.365V111.216a.586.586,0,0,1,.653-.653h4.732a.587.587,0,0,1,.653.653v15.731c0,1.241.587,1.894,1.7,1.894a7.025,7.025,0,0,0,.849-.033.574.574,0,0,1,.685.62v3.982c0,.359-.1.62-.294.685A10.969,10.969,0,0,1-1425.872,134.357Z"/>
          <path id="路径_2233" data-name="路径 2233" d="M-1406.386,126.523a.586.586,0,0,1-.653.653h-8.616v.163a1.933,1.933,0,0,0,2.219,2.089,7.663,7.663,0,0,0,3.721-.914.577.577,0,0,1,.881.163l1.958,2.677a.609.609,0,0,1-.1.914,10.547,10.547,0,0,1-6.691,2.089c-4.7,0-8.062-2.481-8.062-7.181v-3.655c0-4.929,3.264-7.116,7.866-7.116,4.439,0,7.474,2.089,7.474,7.116Zm-7.539-5.32c-1.142,0-1.73.686-1.73,1.958v.523h3.492v-.523C-1412.163,121.889-1412.783,121.2-1413.925,121.2Z"/>
          <path id="路径_2234" data-name="路径 2234" d="M-1387.518,134.357c-6.495,0-9.954-3.362-9.954-8.976v-6.332c0-5.581,3.655-8.943,9.954-8.943a12.678,12.678,0,0,1,6.985,1.991.561.561,0,0,1,.163.881l-2.513,3.884a.592.592,0,0,1-.914.2,6.956,6.956,0,0,0-3.492-.914c-2.383,0-3.688,1.4-3.688,3.264v5.581c0,2.154,1.338,3.33,3.558,3.33a7.664,7.664,0,0,0,3.981-1.11.557.557,0,0,1,.881.163l2.546,3.884c.229.326.261.62.033.783A12.618,12.618,0,0,1-1387.518,134.357Z"/>
          <path id="路径_2235" data-name="路径 2235" d="M-1368.813,116.4c4.112,0,6.43,3.068,6.43,7.638v9.2a.586.586,0,0,1-.653.653h-4.765a.586.586,0,0,1-.653-.653v-9.3c0-1.436-.457-2.252-1.959-2.252a4.712,4.712,0,0,0-1.468.261v11.293a.586.586,0,0,1-.653.653h-4.733a.586.586,0,0,1-.652-.653V111.216a.586.586,0,0,1,.652-.653h4.733a.586.586,0,0,1,.653.653v5.614A8.643,8.643,0,0,1-1368.813,116.4Z"/>
          <path id="路径_2236" data-name="路径 2236" d="M-1352.394,116.4c4.929,0,7.442,2.579,7.442,7.866v8.486a.672.672,0,0,1-.555.718,26.523,26.523,0,0,1-6.854.882c-5.516,0-8.029-2.089-8.029-5.778,0-3.263,2.448-4.961,7.082-4.961a14.9,14.9,0,0,1,2.318.163v-.065c0-1.24-.392-2.154-2.285-2.154a9.627,9.627,0,0,0-3.688.751.586.586,0,0,1-.881-.228l-1.5-3.166c-.228-.36-.228-.62,0-.784A13.994,13.994,0,0,1-1352.394,116.4Zm0,13.284a8.979,8.979,0,0,0,1.4-.13v-2.22a6.913,6.913,0,0,0-1.436-.163c-1.208,0-1.828.424-1.828,1.175C-1354.254,129.2-1353.6,129.689-1352.394,129.689Z"/>
          <path id="路径_2237" data-name="路径 2237" d="M-1335.583,134.357a12.43,12.43,0,0,1-6.919-2.155.618.618,0,0,1-.2-.914l1.828-3.068a.555.555,0,0,1,.881-.228,8.068,8.068,0,0,0,4.406,1.306c1.11,0,1.7-.294,1.7-.816,0-.425-.588-.719-1.73-.882-4.5-.685-6.626-2.611-6.626-5.614,0-3.524,2.546-5.581,7.474-5.581a12.836,12.836,0,0,1,6.006,1.469.577.577,0,0,1,.228.914l-1.86,2.97a.591.591,0,0,1-.881.228,8.12,8.12,0,0,0-3.525-.815c-.914,0-1.436.13-1.436.718,0,.522.294.718,2.284,1.012,4.048.652,6.169,2.545,6.169,5.482C-1327.782,132.333-1330.263,134.357-1335.583,134.357Z"/>
          <path id="路径_2238" data-name="路径 2238" d="M-1310.515,126.523a.586.586,0,0,1-.652.653h-8.617v.163a1.933,1.933,0,0,0,2.22,2.089,7.662,7.662,0,0,0,3.72-.914.578.578,0,0,1,.882.163l1.958,2.677a.61.61,0,0,1-.1.914,10.546,10.546,0,0,1-6.691,2.089c-4.7,0-8.062-2.481-8.062-7.181v-3.655c0-4.929,3.264-7.116,7.866-7.116,4.439,0,7.474,2.089,7.474,7.116Zm-7.539-5.32c-1.142,0-1.73.686-1.73,1.958v.523h3.492v-.523C-1316.292,121.889-1316.912,121.2-1318.054,121.2Z"/>
          <path id="路径_2239" data-name="路径 2239" d="M-1288.872,133.9a.75.75,0,0,1-.751-.457l-3.525-6.756h-1.4v6.56a.586.586,0,0,1-.653.653h-5.059a.586.586,0,0,1-.653-.653V111.216a.586.586,0,0,1,.653-.653h8.29c5.68,0,8.845,3.264,8.845,8.225a7.064,7.064,0,0,1-4.112,6.854l4.569,7.474c.261.457.1.784-.424.784Zm-5.679-17.462v4.8h2.252c1.86,0,2.611-.718,2.611-2.416,0-1.6-.751-2.382-2.611-2.382Z"/>
          <path id="路径_2240" data-name="路径 2240" d="M-1273.5,116.4c4.929,0,7.442,2.579,7.442,7.866v8.486a.672.672,0,0,1-.555.718,26.522,26.522,0,0,1-6.854.882c-5.516,0-8.029-2.089-8.029-5.778,0-3.263,2.448-4.961,7.082-4.961a14.9,14.9,0,0,1,2.318.163v-.065c0-1.24-.392-2.154-2.285-2.154a9.627,9.627,0,0,0-3.688.751.586.586,0,0,1-.881-.228l-1.5-3.166c-.228-.36-.228-.62,0-.784A13.994,13.994,0,0,1-1273.5,116.4Zm0,13.284a8.979,8.979,0,0,0,1.4-.13v-2.22a6.913,6.913,0,0,0-1.436-.163c-1.208,0-1.828.424-1.828,1.175C-1275.357,129.2-1274.7,129.689-1273.5,129.689Z"/>
          <path id="路径_2241" data-name="路径 2241" d="M-1262.43,133.9a.586.586,0,0,1-.653-.653V118.494a.749.749,0,0,1,.49-.751,20.707,20.707,0,0,1,7.115-1.338c5.385,0,7.931,3.1,7.931,7.769v9.073a.586.586,0,0,1-.653.653h-4.765a.587.587,0,0,1-.653-.653v-9.172c0-1.795-.653-2.35-1.86-2.35a5.719,5.719,0,0,0-1.566.2v11.326a.587.587,0,0,1-.653.653Z"/>
          <path id="路径_2242" data-name="路径 2242" d="M-1234.424,133.9a.792.792,0,0,1-.783-.457l-2.677-5.124-.718.75v4.178a.586.586,0,0,1-.652.653h-4.635a.586.586,0,0,1-.653-.653V111.216a.586.586,0,0,1,.653-.653h4.635a.586.586,0,0,1,.652.653v10.77l2.807-4.667a.846.846,0,0,1,.784-.457h5.483c.555,0,.718.359.392.784l-4.864,6.266,5.582,9.2c.261.457.1.784-.425.784Z"/>
          <path id="路径_2243" data-name="路径 2243" d="M-1223.847,114.9a3.189,3.189,0,0,1-3.329-3.264,3.136,3.136,0,0,1,3.329-3.264,3.118,3.118,0,0,1,3.263,3.264A3.172,3.172,0,0,1-1223.847,114.9Zm-2.383,19a.587.587,0,0,1-.653-.653V117.515a.587.587,0,0,1,.653-.653h4.733a.586.586,0,0,1,.652.653v15.732a.586.586,0,0,1-.652.653Z"/>
          <path id="路径_2244" data-name="路径 2244" d="M-1217.025,133.9a.586.586,0,0,1-.653-.653V118.494a.749.749,0,0,1,.49-.751,20.707,20.707,0,0,1,7.115-1.338c5.385,0,7.931,3.1,7.931,7.769v9.073a.586.586,0,0,1-.652.653h-4.766a.586.586,0,0,1-.652-.653v-9.172c0-1.795-.653-2.35-1.861-2.35a5.726,5.726,0,0,0-1.566.2v11.326a.586.586,0,0,1-.653.653Z"/>
          <path id="路径_2245" data-name="路径 2245" d="M-1192.315,140.558a11.612,11.612,0,0,1-6.528-1.567.617.617,0,0,1-.2-.914l2.023-3.2a.587.587,0,0,1,.882-.229,8.2,8.2,0,0,0,3.459.784c1.73,0,2.644-.555,2.644-2.22a10.389,10.389,0,0,1-2.513.294c-4.5,0-7.115-2.872-7.115-7.148v-2.382c0-5.027,3.362-7.573,8.029-7.573a20.448,20.448,0,0,1,7.017,1.306.735.735,0,0,1,.522.751v13.349C-1184.091,138.012-1186.539,140.558-1192.315,140.558Zm.685-12.109a2.6,2.6,0,0,0,1.5-.359v-6.1a3.647,3.647,0,0,0-1.5-.261c-1.306,0-1.926.653-1.926,2.056v2.677C-1193.556,127.8-1192.936,128.449-1191.63,128.449Z"/>
        </g>
      </g>
    </g>
  </g>
</svg>
