<svg xmlns="http://www.w3.org/2000/svg" width="213.15" height="66" viewBox="0 0 213.15 66">
  <g id="free" transform="translate(-204.725 -354.9)">
    <path id="路径_1454" data-name="路径 1454" d="M417.2,386.9l-12.6-26.1a5.29,5.29,0,0,0-4.6-2.6H222.6a5.414,5.414,0,0,0-4.6,2.6l-12.6,26.1a5.538,5.538,0,0,0,0,5.3L218,418.3a5.29,5.29,0,0,0,4.6,2.6H400a5.414,5.414,0,0,0,4.6-2.6l12.6-26.1A5.538,5.538,0,0,0,417.2,386.9Z" fill="#c8d1ff"/>
    <path id="路径_1455" data-name="路径 1455" d="M417.2,383.6l-12.6-26.1a5.29,5.29,0,0,0-4.6-2.6H222.6a5.414,5.414,0,0,0-4.6,2.6l-12.6,26.1a5.538,5.538,0,0,0,0,5.3L218,415a5.29,5.29,0,0,0,4.6,2.6H400a5.414,5.414,0,0,0,4.6-2.6l12.6-26.1A5.538,5.538,0,0,0,417.2,383.6Z" fill="#32ed7d"/>
    <g id="组_738" data-name="组 738">
      <path id="路径_1456" data-name="路径 1456" d="M400,358.9a1.1,1.1,0,0,1,1,.6l12.5,26,.1.1.1.1a1.483,1.483,0,0,1,0,1.3l-.1.1-.1.1-12.5,26a1.231,1.231,0,0,1-1,.5H222.6a1.231,1.231,0,0,1-1-.5l-12.5-26-.1-.2-.1-.1a1.483,1.483,0,0,1,0-1.3l.1-.1.1-.1,12.5-26a1.231,1.231,0,0,1,1-.5H400m0-4H222.6a5.414,5.414,0,0,0-4.6,2.6l-12.6,26.1a5.538,5.538,0,0,0,0,5.3L218,415a5.29,5.29,0,0,0,4.6,2.6H400a5.414,5.414,0,0,0,4.6-2.6l12.6-26.1a5.538,5.538,0,0,0,0-5.3l-12.6-26.1a5.414,5.414,0,0,0-4.6-2.6Z" fill="#fff"/>
    </g>
    <g id="组_754" data-name="组 754">
      <text id="FREE_" data-name="FREE!" transform="translate(243.852 407.444)" fill="#fff" font-size="37.64" font-family="Helvetica"><tspan x="0" y="0">FREE!</tspan></text>
      <text id="SHARE" transform="translate(243.852 377.514)" fill="#fff" font-size="18.19" font-family="Helvetica"><tspan x="0" y="0">SHARE</tspan></text>
      <g id="组_753" data-name="组 753">
        <g id="组_751" data-name="组 751">
          <g id="组_739" data-name="组 739">
            <circle id="椭圆_184" data-name="椭圆 184" cx="16.7" cy="16.7" r="16.7" transform="translate(346.7 377.6)" fill="#32ed7d"/>
            <path id="路径_1457" data-name="路径 1457" d="M363.4,411.5a17.2,17.2,0,1,1,17.2-17.2A17.2,17.2,0,0,1,363.4,411.5Zm0-33.4a16.2,16.2,0,1,0,16.2,16.2A16.2,16.2,0,0,0,363.4,378.1Z" fill="#32ed7d"/>
          </g>
          <g id="组_740" data-name="组 740">
            <circle id="椭圆_185" data-name="椭圆 185" cx="16.3" cy="16.3" r="16.3" transform="translate(347.1 378)" fill="#32ed7d"/>
            <path id="路径_1458" data-name="路径 1458" d="M363.4,411.1a16.8,16.8,0,1,1,16.8-16.8A16.772,16.772,0,0,1,363.4,411.1Zm0-32.6a15.8,15.8,0,1,0,15.8,15.8A15.834,15.834,0,0,0,363.4,378.5Z" fill="#32ed7d"/>
          </g>
          <g id="组_741" data-name="组 741">
            <path id="路径_1459" data-name="路径 1459" d="M374.9,382.8l-23.1,23.1a15.922,15.922,0,0,0,5.5,3.6l21.2-21.2A14.619,14.619,0,0,0,374.9,382.8Z" fill="#32ed7d"/>
            <path id="路径_1460" data-name="路径 1460" d="M357.4,410l-.3-.1a16.1,16.1,0,0,1-5.6-3.7l-.4-.4L374.9,382l.4.4A17.629,17.629,0,0,1,379,388l.1.3Zm-4.8-4.1a15.209,15.209,0,0,0,4.6,3l20.7-20.7a14.078,14.078,0,0,0-3-4.6Z" fill="#32ed7d"/>
          </g>
          <g id="组_742" data-name="组 742">
            <path id="路径_1461" data-name="路径 1461" d="M379.3,397.9,367,410.2A16.421,16.421,0,0,0,379.3,397.9Z" fill="#32ed7d"/>
            <path id="路径_1462" data-name="路径 1462" d="M365.4,411.1l14.7-14.7-.4,1.7a16.717,16.717,0,0,1-12.6,12.6Zm12.8-11.4-9.5,9.5A15.937,15.937,0,0,0,378.2,399.7Z" fill="#32ed7d"/>
          </g>
          <g id="组_743" data-name="组 743">
            <path id="路径_1463" data-name="路径 1463" d="M355.4,380.1l-6.2,6.2a16.821,16.821,0,0,0-1.6,3.9l11.7-11.7A16.821,16.821,0,0,0,355.4,380.1Z" fill="#32ed7d"/>
            <path id="路径_1464" data-name="路径 1464" d="M346.6,391.8l.5-1.8a19.656,19.656,0,0,1,1.6-4l.1-.1,6.3-6.3a15.219,15.219,0,0,1,4-1.6l1.8-.5Zm3-5.2a13.017,13.017,0,0,0-.8,1.7l8.7-8.7a8.866,8.866,0,0,0-1.7.8Z" fill="#32ed7d"/>
          </g>
          <g id="组_744" data-name="组 744">
            <path id="路径_1465" data-name="路径 1465" d="M372.8,381l-22.7,22.7c.3.4.5.7.8,1.1l23-23A7.628,7.628,0,0,0,372.8,381Z" fill="#32ed7d"/>
            <path id="路径_1466" data-name="路径 1466" d="M350.9,405.5l-.4-.4c-.3-.4-.6-.7-.9-1.1l-.2-.3,23.3-23.3.3.2a10.63,10.63,0,0,1,1.1.9l.4.4Zm-.2-1.7c.1.1.1.2.2.3l22.2-22.2c-.1-.1-.2-.1-.3-.2Z" fill="#32ed7d"/>
          </g>
          <g id="组_745" data-name="组 745">
            <circle id="椭圆_186" data-name="椭圆 186" cx="11.8" cy="11.8" r="11.8" transform="translate(351.9 382.8)" fill="#32ed7d"/>
            <path id="路径_1467" data-name="路径 1467" d="M363.7,406.9A12.3,12.3,0,1,1,376,394.6,12.291,12.291,0,0,1,363.7,406.9Zm0-23.6A11.3,11.3,0,1,0,375,394.6,11.353,11.353,0,0,0,363.7,383.3Z" fill="#32ed7d"/>
          </g>
          <g id="组_746" data-name="组 746">
            <circle id="椭圆_187" data-name="椭圆 187" cx="14.2" cy="14.2" r="14.2" transform="translate(349.2 380.1)" fill="#32ed7d"/>
            <path id="路径_1468" data-name="路径 1468" d="M363.4,409a14.7,14.7,0,1,1,14.7-14.7A14.724,14.724,0,0,1,363.4,409Zm0-28.4a13.7,13.7,0,1,0,13.7,13.7A13.721,13.721,0,0,0,363.4,380.6Z" fill="#32ed7d"/>
          </g>
          <g id="组_747" data-name="组 747">
            <path id="路径_1469" data-name="路径 1469" d="M350,395.1a14.19,14.19,0,0,1,14.2-14.2,13.79,13.79,0,0,1,9.6,3.8,14.22,14.22,0,0,0-24.6,9.7,14.5,14.5,0,0,0,4.5,10.4A14.612,14.612,0,0,1,350,395.1Z" fill="#32ed7d"/>
            <path id="路径_1470" data-name="路径 1470" d="M353.4,405.1a14.718,14.718,0,1,1,20.8-20.8l-.7.7a13.241,13.241,0,0,0-9.3-3.6,13.731,13.731,0,0,0-10.1,23Zm5.1-23.6a13.727,13.727,0,0,0-8,8A15.26,15.26,0,0,1,358.5,381.5Z" fill="#32ed7d"/>
          </g>
          <g id="组_748" data-name="组 748">
            <path id="路径_1471" data-name="路径 1471" d="M363.4,378.2a16.668,16.668,0,0,1,16.7,16.4v-.3a16.7,16.7,0,0,0-33.4,0v.3A16.6,16.6,0,0,1,363.4,378.2Z" fill="#32ed7d"/>
            <path id="路径_1472" data-name="路径 1472" d="M379.6,394.6a16.2,16.2,0,0,0-32.4,0h-1v-.3a17.2,17.2,0,0,1,34.4,0v.3Z" fill="#32ed7d"/>
          </g>
          <g id="组_749" data-name="组 749">
            <path id="路径_1473" data-name="路径 1473" d="M367.4,398.8a5.966,5.966,0,0,0,3-1.9,6.706,6.706,0,0,0,1.5-4.4,6.627,6.627,0,0,0-1.5-4.3,6.117,6.117,0,0,0-4.7-2.1H354.6l4,4.1h7.1a1.755,1.755,0,0,1,1.5.6,2.908,2.908,0,0,1-.1,3.4,1.955,1.955,0,0,1-1.5.7h-8.3l8.6,8.8h6.2Z" fill="#32ed7d"/>
            <path id="路径_1474" data-name="路径 1474" d="M373.4,404.2h-7.6l-9.6-9.8h9.6a1.173,1.173,0,0,0,1.1-.5,2.456,2.456,0,0,0,.5-1.5,2.5,2.5,0,0,0-.4-1.3,1.265,1.265,0,0,0-1.1-.4h-7.3l-5-5.1h12.3a6.5,6.5,0,0,1,5,2.2,7.336,7.336,0,0,1,1.6,4.6,7.621,7.621,0,0,1-1.6,4.7,6.422,6.422,0,0,1-2.5,1.8Zm-7.3-1h4.8l-4.6-4.7.8-.2a5,5,0,0,0,2.7-1.8,6.359,6.359,0,0,0,1.4-4.1,6.282,6.282,0,0,0-1.4-4,5.443,5.443,0,0,0-4.3-1.9h-10l3.1,3.1h6.9a2.407,2.407,0,0,1,1.9.8,3.173,3.173,0,0,1,.6,2,3.523,3.523,0,0,1-.7,2.1,2.241,2.241,0,0,1-1.9.8h-7.2Z" fill="#32ed7d"/>
          </g>
          <g id="组_750" data-name="组 750">
            <path id="路径_1475" data-name="路径 1475" d="M366.6,398.5a5.966,5.966,0,0,0,3-1.9,6.706,6.706,0,0,0,1.5-4.4,6.627,6.627,0,0,0-1.5-4.3,6.117,6.117,0,0,0-4.7-2.1H353.8l4,4.1h7.1a1.755,1.755,0,0,1,1.5.6,2.908,2.908,0,0,1-.1,3.4,1.955,1.955,0,0,1-1.5.7h-8.3l8.6,8.8h6.2Z" fill="#32ed7d"/>
            <path id="路径_1476" data-name="路径 1476" d="M372.6,404H365l-9.6-9.8H365a1.173,1.173,0,0,0,1.1-.5,2.456,2.456,0,0,0,.5-1.5,2.5,2.5,0,0,0-.4-1.3,1.265,1.265,0,0,0-1.1-.4h-7.3l-5-5.1h12.3a6.5,6.5,0,0,1,5,2.2,7.336,7.336,0,0,1,1.6,4.6,7.621,7.621,0,0,1-1.6,4.7,6.422,6.422,0,0,1-2.5,1.8Zm-7.2-1h4.8l-4.6-4.7.8-.2a5,5,0,0,0,2.7-1.8,6.359,6.359,0,0,0,1.4-4.1,6.282,6.282,0,0,0-1.4-4,5.443,5.443,0,0,0-4.3-1.9h-10l3.1,3.1h6.9a2.407,2.407,0,0,1,1.9.8,3.173,3.173,0,0,1,.6,2,3.523,3.523,0,0,1-.7,2.1,2.241,2.241,0,0,1-1.9.8h-7.2Z" fill="#32ed7d"/>
          </g>
        </g>
        <g id="组_752" data-name="组 752">
          <circle id="椭圆_188" data-name="椭圆 188" cx="16.7" cy="16.7" r="16.7" transform="translate(345.7 376.6)" fill="#fee475"/>
          <circle id="椭圆_189" data-name="椭圆 189" cx="16.3" cy="16.3" r="16.3" transform="translate(346.1 377)" fill="#f6f1c7"/>
          <path id="路径_1477" data-name="路径 1477" d="M373.9,381.8l-23.1,23.1a15.922,15.922,0,0,0,5.5,3.6l21.2-21.2A14.619,14.619,0,0,0,373.9,381.8Z" fill="#fff"/>
          <path id="路径_1478" data-name="路径 1478" d="M378.3,396.9,366,409.2A16.421,16.421,0,0,0,378.3,396.9Z" fill="#fff"/>
          <path id="路径_1479" data-name="路径 1479" d="M354.4,379.1l-6.2,6.2a16.821,16.821,0,0,0-1.6,3.9l11.7-11.7A16.821,16.821,0,0,0,354.4,379.1Z" fill="#fff"/>
          <path id="路径_1480" data-name="路径 1480" d="M371.8,380l-22.7,22.7c.3.4.5.7.8,1.1l23-23A7.628,7.628,0,0,0,371.8,380Z" fill="#fff"/>
          <circle id="椭圆_190" data-name="椭圆 190" cx="11.8" cy="11.8" r="11.8" transform="translate(350.9 381.8)" fill="#fff"/>
          <circle id="椭圆_191" data-name="椭圆 191" cx="14.2" cy="14.2" r="14.2" transform="translate(348.2 379.1)" fill="#bc9e55"/>
          <path id="路径_1481" data-name="路径 1481" d="M349,394.1a14.19,14.19,0,0,1,14.2-14.2,13.79,13.79,0,0,1,9.6,3.8,14.22,14.22,0,0,0-24.6,9.7,14.5,14.5,0,0,0,4.5,10.4A14.612,14.612,0,0,1,349,394.1Z" fill="#bc9e55"/>
          <path id="路径_1482" data-name="路径 1482" d="M362.4,377.2a16.668,16.668,0,0,1,16.7,16.4v-.3a16.7,16.7,0,0,0-33.4,0v.3A16.6,16.6,0,0,1,362.4,377.2Z" fill="#fff"/>
          <path id="路径_1483" data-name="路径 1483" d="M366.3,398.2a5.966,5.966,0,0,0,3-1.9,6.706,6.706,0,0,0,1.5-4.4,6.627,6.627,0,0,0-1.5-4.3,6.117,6.117,0,0,0-4.7-2.1H353.5l4,4.1h7.1a1.755,1.755,0,0,1,1.5.6,2.908,2.908,0,0,1-.1,3.4,1.955,1.955,0,0,1-1.5.7h-8.3l8.6,8.8H371Z" fill="#bc9e55"/>
          <path id="路径_1484" data-name="路径 1484" d="M365.6,397.5a5.966,5.966,0,0,0,3-1.9,6.706,6.706,0,0,0,1.5-4.4,6.627,6.627,0,0,0-1.5-4.3,6.117,6.117,0,0,0-4.7-2.1H352.8l4,4.1h7.1a1.755,1.755,0,0,1,1.5.6,2.908,2.908,0,0,1-.1,3.4,1.955,1.955,0,0,1-1.5.7h-8.3l8.6,8.8h6.2Z" fill="#f6f1c7"/>
        </g>
      </g>
    </g>
  </g>
</svg>
