<svg xmlns="http://www.w3.org/2000/svg" xmlns:xlink="http://www.w3.org/1999/xlink" width="57.7" height="93.925" viewBox="0 0 57.7 93.925">
  <defs>
    <clipPath id="clip-path">
      <path id="路径_1170" data-name="路径 1170" d="M78.6,62.6V43.9a12.8,12.8,0,0,0-6.3-11L56.1,23.5a12.55,12.55,0,0,0-12.7,0L27.2,32.9a12.68,12.68,0,0,0-6.3,11V62.6a12.8,12.8,0,0,0,6.3,11L43.4,83a12.55,12.55,0,0,0,12.7,0l16.2-9.4A12.8,12.8,0,0,0,78.6,62.6Z" transform="translate(-19.4 -34.6)"/>
    </clipPath>
    <clipPath id="clip-path-2">
      <path id="路径_1175" data-name="路径 1175" d="M49.8,24.2a6.5,6.5,0,0,1,3.1.8L72.6,36.4a6.34,6.34,0,0,1,3.1,5.5V64.6a6.593,6.593,0,0,1-3.1,5.5L52.9,81.4a5.751,5.751,0,0,1-3.1.8,6.5,6.5,0,0,1-3.1-.8L26.9,70.1a6.34,6.34,0,0,1-3.1-5.5V41.9a6.593,6.593,0,0,1,3.1-5.5L46.6,25a6.9,6.9,0,0,1,3.2-.8"/>
    </clipPath>
    <clipPath id="clip-path-7">
      <path id="路径_1184" data-name="路径 1184" d="M49.8,24.2a6.5,6.5,0,0,1,3.1.8L72.6,36.4a6.34,6.34,0,0,1,3.1,5.5V64.6a6.593,6.593,0,0,1-3.1,5.5L52.9,81.4a5.751,5.751,0,0,1-3.1.8,6.5,6.5,0,0,1-3.1-.8L26.9,70.1a6.34,6.34,0,0,1-3.1-5.5V41.9a6.593,6.593,0,0,1,3.1-5.5L46.6,25a6.9,6.9,0,0,1,3.2-.8" transform="translate(-25 -48)"/>
    </clipPath>
    <clipPath id="clip-path-8">
      <path id="路径_1185" data-name="路径 1185" d="M49.8,24.2a6.5,6.5,0,0,1,3.1.8L72.6,36.4a6.34,6.34,0,0,1,3.1,5.5V64.6a6.593,6.593,0,0,1-3.1,5.5L52.9,81.4a5.751,5.751,0,0,1-3.1.8,6.5,6.5,0,0,1-3.1-.8L26.9,70.1a6.34,6.34,0,0,1-3.1-5.5V41.9a6.593,6.593,0,0,1,3.1-5.5L46.6,25a6.9,6.9,0,0,1,3.2-.8" transform="translate(-60.6 -34.4)"/>
    </clipPath>
  </defs>
  <g id="game" transform="translate(-20.9 -21.775)">
    <path id="路径_1169" data-name="路径 1169" d="M78.6,66.5V47.8a12.8,12.8,0,0,0-6.3-11L56.1,27.4a12.55,12.55,0,0,0-12.7,0L27.2,36.8a12.68,12.68,0,0,0-6.3,11V66.5a12.8,12.8,0,0,0,6.3,11l16.2,9.4a12.55,12.55,0,0,0,12.7,0l16.2-9.4A12.8,12.8,0,0,0,78.6,66.5Z" fill="#5a5858"/>
    <g id="组_567" data-name="组 567">
      <g id="组_566" data-name="组 566" transform="translate(19.4 34.6)" clip-path="url(#clip-path)">
        <circle id="椭圆_179" data-name="椭圆 179" cx="44" cy="44" r="44" fill="#e7e6e6"/>
      </g>
    </g>
    <path id="路径_1171" data-name="路径 1171" d="M78.6,62.6V43.9a12.8,12.8,0,0,0-6.3-11L56.1,23.5a12.55,12.55,0,0,0-12.7,0L27.2,32.9a12.68,12.68,0,0,0-6.3,11V62.6a12.8,12.8,0,0,0,6.3,11L43.4,83a12.55,12.55,0,0,0,12.7,0l16.2-9.4A12.8,12.8,0,0,0,78.6,62.6Z" fill="#f8f9f9"/>
    <path id="路径_1172" data-name="路径 1172" d="M49.8,24.2a6.5,6.5,0,0,1,3.1.8L72.6,36.4a6.34,6.34,0,0,1,3.1,5.5V64.6a6.593,6.593,0,0,1-3.1,5.5L52.9,81.4a5.751,5.751,0,0,1-3.1.8,6.5,6.5,0,0,1-3.1-.8L26.9,70.1a6.34,6.34,0,0,1-3.1-5.5V41.9a6.593,6.593,0,0,1,3.1-5.5L46.6,25a6.9,6.9,0,0,1,3.2-.8" fill="#5b2c81"/>
    <path id="路径_1173" data-name="路径 1173" d="M54.4,41.9Z" fill="#5c6bb0"/>
    <g id="组_575" data-name="组 575">
      <g id="组_568" data-name="组 568" clip-path="url(#clip-path-2)">
        <path id="路径_1174" data-name="路径 1174" d="M34.7,67.6H9.4a3.009,3.009,0,0,1-3-3h0a3.009,3.009,0,0,1,3-3H34.7a3.009,3.009,0,0,1,3,3h0A3.148,3.148,0,0,1,34.7,67.6Z" fill="#3b2256"/>
      </g>
      <g id="组_569" data-name="组 569" clip-path="url(#clip-path-2)">
        <path id="路径_1176" data-name="路径 1176" d="M85.8,56.2h-15a3.009,3.009,0,0,1-3-3h0a3.009,3.009,0,0,1,3-3h15a3.009,3.009,0,0,1,3,3h0A3.009,3.009,0,0,1,85.8,56.2Z" fill="#3b2256"/>
      </g>
      <g id="组_570" data-name="组 570" clip-path="url(#clip-path-2)">
        <path id="路径_1178" data-name="路径 1178" d="M44,34H32.2a3.009,3.009,0,0,1-3-3h0a3.009,3.009,0,0,1,3-3H44a3.009,3.009,0,0,1,3,3h0A3.075,3.075,0,0,1,44,34Z" fill="#3b2256"/>
      </g>
      <g id="组_571" data-name="组 571" clip-path="url(#clip-path-2)">
        <path id="路径_1180" data-name="路径 1180" d="M75.7,71.7H53.1a3.009,3.009,0,0,1-3-3h0a3.009,3.009,0,0,1,3-3H75.7a3.009,3.009,0,0,1,3,3h0A3.075,3.075,0,0,1,75.7,71.7Z" fill="#3b2256"/>
      </g>
      <g id="组_572" data-name="组 572" clip-path="url(#clip-path-2)">
        <path id="路径_1182" data-name="路径 1182" d="M47.3,81.6H24.7a3.009,3.009,0,0,1-3-3h0a3.009,3.009,0,0,1,3-3H47.3a3.009,3.009,0,0,1,3,3h0A3.148,3.148,0,0,1,47.3,81.6Z" fill="#3b2256"/>
      </g>
      <g id="组_573" data-name="组 573" transform="translate(25 48)" clip-path="url(#clip-path-7)">
        <circle id="椭圆_180" data-name="椭圆 180" cx="2.8" cy="2.8" r="2.8" fill="#3b2256"/>
      </g>
      <g id="组_574" data-name="组 574" transform="translate(60.6 34.4)" clip-path="url(#clip-path-8)">
        <circle id="椭圆_181" data-name="椭圆 181" cx="3.2" cy="3.2" r="3.2" fill="#3b2256"/>
      </g>
    </g>
    <g id="组_576" data-name="组 576">
      <path id="路径_1186" data-name="路径 1186" d="M39.5,98.2a10.437,10.437,0,0,1-3.1.5,5.167,5.167,0,0,1-3.8-1.3,5.852,5.852,0,0,1-1.5-4.1,5.221,5.221,0,0,1,5.5-5.6,7.166,7.166,0,0,1,2.5.4l-.4,1.7a5.177,5.177,0,0,0-2.1-.4c-1.9,0-3.4,1.2-3.4,3.8,0,2.5,1.3,3.8,3.1,3.8a2.676,2.676,0,0,0,1.1-.2V94.2H36V92.6h3.5Z" fill="#fff"/>
      <path id="路径_1187" data-name="路径 1187" d="M47.1,96.8a9.184,9.184,0,0,0,.1,1.8H45.3l-.1-.8h0a2.517,2.517,0,0,1-2.1,1,2.262,2.262,0,0,1-2.3-2.3c0-2,1.8-2.9,4.3-2.9,0-.8-.3-1.4-1.4-1.4a3.83,3.83,0,0,0-1.9.5l-.4-1.3a5.51,5.51,0,0,1,2.7-.7c2.4,0,3.1,1.5,3.1,3.2v2.9Zm-2-1.9c-1.1,0-2.3.3-2.3,1.4a1.029,1.029,0,0,0,1,1.1,1.246,1.246,0,0,0,1.3-1.3Z" fill="#fff"/>
      <path id="路径_1188" data-name="路径 1188" d="M59.8,98.7h-2V94.3c0-1.1-.3-1.9-1.1-1.9-.6,0-1.2.4-1.2,1.5v4.7h-2V94c0-.9-.3-1.7-1.1-1.7-.6,0-1.2.5-1.2,1.6v4.7h-2V93.2a15.52,15.52,0,0,0-.1-2.3h1.8l.1,1h0a2.57,2.57,0,0,1,2.2-1.2,2,2,0,0,1,2,1.3h0a2.468,2.468,0,0,1,2.3-1.3c1.4,0,2.4,1,2.4,3.2v4.8Z" fill="#fff"/>
      <path id="路径_1189" data-name="路径 1189" d="M67.5,98.4a6.249,6.249,0,0,1-2.5.4,3.548,3.548,0,0,1-3.8-3.9c0-2.2,1.3-4.2,3.6-4.2,1.9,0,3.1,1.3,3.1,3.9a1.95,1.95,0,0,1-.1.8H63.1a1.94,1.94,0,0,0,2.1,1.9,5.04,5.04,0,0,0,1.9-.3Zm-1.6-4.5c0-.8-.3-1.8-1.3-1.8s-1.4,1-1.5,1.8Z" fill="#fff"/>
      <path id="路径_1190" data-name="路径 1190" d="M31.8,106.5H29.1v9H27v-9H24.4v-1.8h7.4v1.8Z" fill="#fff"/>
      <path id="路径_1191" data-name="路径 1191" d="M39.2,113.1a17.724,17.724,0,0,0,.1,2.4H37.5l-.1-1h0a2.513,2.513,0,0,1-2.2,1.2c-1.5,0-2.5-1-2.5-3.3v-4.7h2.1V112c0,1.2.3,1.9,1.2,1.9a1.378,1.378,0,0,0,1.3-1.5v-4.8h2.1v5.5Z" fill="#fff"/>
      <path id="路径_1192" data-name="路径 1192" d="M41.4,106.2l2-.6v2h1.7v1.5H43.4v3.4c0,.9.3,1.3.9,1.3a1.483,1.483,0,0,0,.7-.1v1.6a4.636,4.636,0,0,1-1.4.2c-2.2,0-2.3-1.9-2.3-2.8v-3.6h-1v-1.5h1v-1.4Z" fill="#fff"/>
      <path id="路径_1193" data-name="路径 1193" d="M53.3,111.5c0,3-1.9,4.1-3.6,4.1-2.1,0-3.6-1.5-3.6-4,0-2.6,1.6-4.1,3.7-4.1S53.3,109.1,53.3,111.5ZM49.7,109c-1.1,0-1.6,1.3-1.6,2.5,0,1.4.5,2.5,1.5,2.5s1.5-1.2,1.5-2.5C51.2,110.3,50.8,109,49.7,109Z" fill="#fff"/>
      <path id="路径_1194" data-name="路径 1194" d="M59.1,109.5h-.5c-.9,0-1.7.6-1.7,2v4H54.8v-5.4a16.987,16.987,0,0,0-.1-2.4h1.8l.1,1.4h.1a2.17,2.17,0,0,1,1.9-1.5h.5Z" fill="#fff"/>
      <path id="路径_1195" data-name="路径 1195" d="M61.2,106.6a1.049,1.049,0,0,1-1.1-1.1,1.11,1.11,0,0,1,1.1-1.1,1.049,1.049,0,0,1,1.1,1.1A1,1,0,0,1,61.2,106.6Zm1.1,8.9H60.2v-7.8h2.1Z" fill="#fff"/>
      <path id="路径_1196" data-name="路径 1196" d="M70,113.6a9.184,9.184,0,0,0,.1,1.8H68.2l-.1-.8h0a2.517,2.517,0,0,1-2.1,1,2.262,2.262,0,0,1-2.3-2.3c0-2,1.8-2.9,4.3-2.9,0-.8-.3-1.4-1.4-1.4a3.83,3.83,0,0,0-1.9.5l-.4-1.3a5.51,5.51,0,0,1,2.7-.7c2.4,0,3.1,1.5,3.1,3.2v2.9Zm-2.1-1.9c-1.1,0-2.3.3-2.3,1.4a1.029,1.029,0,0,0,1,1.1,1.246,1.246,0,0,0,1.3-1.3Z" fill="#fff"/>
      <path id="路径_1197" data-name="路径 1197" d="M73.9,115.5H71.8V104.2h2.1Z" fill="#fff"/>
    </g>
    <g id="组_577" data-name="组 577">
      <path id="路径_1198" data-name="路径 1198" d="M35.6,67.8A3.218,3.218,0,0,1,36.8,66c2.2-2,4.3-4,6.5-6,.1-.1.2-.2.3-.2a.471.471,0,0,1,.6.1.375.375,0,0,1,0,.6c-.1.1-.1.2-.2.2-2.3,2.1-4.6,4.2-6.8,6.3a1.47,1.47,0,0,0-.5,1.4,1.369,1.369,0,0,0,2.3.8l.4-.4c2.8-3.1,5.7-6.2,8.5-9.3l.1-.1-1.2-1.2L46,59a.52.52,0,0,1-.4.2.365.365,0,0,1-.5-.2.471.471,0,0,1,.1-.6l.9-.9c.1-.1.1-.2.1-.4a1.654,1.654,0,0,1,2-2h.3c.8-.9,1.5-1.8,2.3-2.8a2.509,2.509,0,0,1-1.2-2.2,1.8,1.8,0,0,1,.4-.9l.3-.3a6.47,6.47,0,0,0-.9-.8A1.787,1.787,0,0,1,46.6,47a1.6,1.6,0,0,1,.4-1.5c2-2.1,4.1-4.1,6.1-6.1a1.677,1.677,0,0,1,2.2-.1,1.747,1.747,0,0,1,.5,2.3c0,.1-.1.1-.1.2.3.3.6.5.9.8l.1-.1a1.4,1.4,0,0,1,1.8-.4c.2.1.5.2.7.3a2.181,2.181,0,0,1,.5.4,5.5,5.5,0,0,0,.7.9c.3.3.3.6.1.8s-.5.2-.8-.1l-.1-.1L52,51.9l2.2,2.2,7.6-7.6-.2-.2c-.2-.3-.3-.5,0-.7a.428.428,0,0,1,.7.1l.3.3a1.756,1.756,0,0,1,.5.4c.1.1.3.2.4.3.2.6.5,1.2.7,1.8a1.008,1.008,0,0,1-.3.9l-.3.3c.3.3.6.5.9.8a3.178,3.178,0,0,1,.9-.3,1.92,1.92,0,0,1,1.8,1.1,1.536,1.536,0,0,1-.4,1.9l-5.2,5.2c-.1.1-.2.1-.3.2l.1.1h6a1.6,1.6,0,0,1,1.4.8,1.542,1.542,0,0,1-.1,1.6,1.457,1.457,0,0,1-1.3.7.462.462,0,0,0-.5.3,4.645,4.645,0,0,0-.6,2.3v.3c-.3.1-.4.3-.7.3s-.4-.2-.5-.5v-.6H58.8c-.3,0-.4-.2-.4-.5s.1-.4.4-.5h6.5c.2-.4.3-.8.5-1.2H47.5a.864.864,0,0,0-.6.3,9.016,9.016,0,0,0-.9,1h8.9c.3.1.4.2.4.5s-.2.4-.4.5H45.6a6.646,6.646,0,0,0,.6,3.4c0,.1.1.1.2.1H65.8c-.1-.2-.1-.3-.2-.5a.419.419,0,0,1,.3-.6.481.481,0,0,1,.6.2l.1.1c.2.4.4.7.9.7a1.415,1.415,0,0,1,1.3,1.4,1.621,1.621,0,0,1-1.2,1.6c-.2,0-.3.1-.5.1H46.7a1.541,1.541,0,0,1-1.6-1.2,1.268,1.268,0,0,0-.1-.6h-.6a1.306,1.306,0,0,1-1.2-.7c-.2-.5-.5-.9-.7-1.4l-.2.2c-.8.9-1.7,1.8-2.5,2.7a2.659,2.659,0,0,1-2.5.9,2.235,2.235,0,0,1-1.8-1.8v-.1A1.953,1.953,0,0,0,35.6,67.8Zm21.4.5H46.6a.56.56,0,0,0-.5.6.634.634,0,0,0,.5.6H67.1q.9,0,.9-.6c0-.4-.3-.6-.8-.6Zm-9-7.6H67.1c.4,0,.7-.2.7-.6s-.3-.6-.7-.6H50.7a.6.6,0,0,0-.4.1,1.907,1.907,0,0,1-1.3.2.367.367,0,0,0-.3.1C48.5,60.1,48.3,60.4,48,60.7Zm5.9-5.5c-1,.8-1.9,1.6-2.8,2.3a.349.349,0,0,0-.1.2c0,.3.1.5.1.8h6.8a1.854,1.854,0,0,1,.2-1.9c-.3-.3-.5-.6-.8-.9l-.2.2a1.384,1.384,0,0,1-1.7.3,1.421,1.421,0,0,0-.6-.2A1.063,1.063,0,0,1,53.9,55.2Zm1.2-14.5a.792.792,0,0,0-.5-.8c-.3-.2-.6,0-.9.2L47.8,46c-.4.4-.4.8,0,1.1a.654.654,0,0,0,1.1,0l6-6A.758.758,0,0,0,55.1,40.7Zm3.6,16.9a.937.937,0,0,0,.5.9.54.54,0,0,0,.8-.2l6-6a.782.782,0,0,0,0-1.1.706.706,0,0,0-1.1,0l-6,6A.758.758,0,0,0,58.7,57.6Zm4.1-10.5c-2.6,2.7-5.3,5.3-7.9,7.9a6.89,6.89,0,0,0,.8.3.783.783,0,0,0,.8-.1l2.6-2.6L63,48.7c.1-.1.3-.3.2-.5C63.1,47.8,62.9,47.4,62.8,47.1ZM59,43.3c-.4-.1-.7-.3-1.1-.4a.758.758,0,0,0-.4.2l-6.7,6.7a.758.758,0,0,0-.2.4c.1.4.3.8.4,1.2C53.7,48.6,56.3,45.9,59,43.3Zm-.2,12.6,4.8-4.8-.8-.8L58,55.1A6.034,6.034,0,0,1,58.8,55.9ZM51,48l4.8-4.8c-.2-.3-.5-.5-.7-.8l-4.8,4.8A2.7,2.7,0,0,0,51,48Zm.6,4.9c-.8.9-1.5,1.8-2.3,2.7l1.1,1.1c.9-.8,1.8-1.5,2.7-2.3C52.6,54,52.1,53.4,51.6,52.9Zm-1.5,5.4c-.1-.2-.1-.4-.2-.5-.6-.6-1.1-1.2-1.7-1.7a.677.677,0,0,0-.9,1L49,58.8a.616.616,0,0,0,.7.1A2.092,2.092,0,0,0,50.1,58.3Zm-4.8,9.4a7.245,7.245,0,0,1-.7-3.3,11.986,11.986,0,0,0-1.1,1.2.139.139,0,0,0,0,.2c.2.6.5,1.2.7,1.8,0,.1.1.1.2.1Z" fill="#3b2256" stroke="#3b2256" stroke-linecap="round" stroke-linejoin="round" stroke-miterlimit="10" stroke-width="1.259"/>
      <path id="路径_1199" data-name="路径 1199" d="M54.9,66.1H49.4a.764.764,0,0,1-.5-.2.749.749,0,0,1-.1-.5c0-.1.2-.2.4-.3H60.7a.5.5,0,0,1,0,1H54.9Z" fill="#3b2256" stroke="#3b2256" stroke-linecap="round" stroke-linejoin="round" stroke-miterlimit="10" stroke-width="1.259"/>
    </g>
    <g id="组_578" data-name="组 578">
      <path id="路径_1200" data-name="路径 1200" d="M33.6,65.8A3.218,3.218,0,0,1,34.8,64c2.2-2,4.3-4,6.5-6,.1-.1.2-.2.3-.2a.471.471,0,0,1,.6.1.375.375,0,0,1,0,.6c-.1.1-.1.2-.2.2-2.3,2.1-4.6,4.2-6.8,6.3a1.47,1.47,0,0,0-.5,1.4,1.369,1.369,0,0,0,2.3.8l.4-.4c2.8-3.1,5.7-6.2,8.5-9.3l.1-.1-1.2-1.2L44,57a.52.52,0,0,1-.4.2.365.365,0,0,1-.5-.2.471.471,0,0,1,.1-.6l.9-.9c.1-.1.1-.2.1-.4a1.654,1.654,0,0,1,2-2h.3c.8-.9,1.5-1.8,2.3-2.8a2.509,2.509,0,0,1-1.2-2.2,1.8,1.8,0,0,1,.4-.9l.3-.3a6.47,6.47,0,0,0-.9-.8A1.787,1.787,0,0,1,44.6,45a1.6,1.6,0,0,1,.4-1.5c2-2.1,4.1-4.1,6.1-6.1a1.677,1.677,0,0,1,2.2-.1,1.747,1.747,0,0,1,.5,2.3c0,.1-.1.1-.1.2.3.3.6.5.9.8l.1-.1a1.4,1.4,0,0,1,1.8-.4c.2.1.5.2.7.3a2.181,2.181,0,0,1,.5.4,5.5,5.5,0,0,0,.7.9c.3.3.3.6.1.8s-.5.2-.8-.1l-.1-.1L50,49.9l2.2,2.2,7.6-7.6-.2-.2c-.2-.3-.3-.5,0-.7a.428.428,0,0,1,.7.1l.3.3a1.756,1.756,0,0,1,.5.4c.1.1.3.2.4.3.2.6.5,1.2.7,1.8a1.008,1.008,0,0,1-.3.9l-.3.3c.3.3.6.5.9.8a3.178,3.178,0,0,1,.9-.3,1.92,1.92,0,0,1,1.8,1.1,1.536,1.536,0,0,1-.4,1.9l-5.2,5.2c-.1.1-.2.1-.3.2l.1.1h6a1.6,1.6,0,0,1,1.4.8,1.542,1.542,0,0,1-.1,1.6,1.457,1.457,0,0,1-1.3.7.462.462,0,0,0-.5.3,4.645,4.645,0,0,0-.6,2.3v.3c-.3.1-.4.3-.7.3s-.4-.2-.5-.5v-.6H56.8c-.3,0-.4-.2-.4-.5s.1-.4.4-.5h6.5c.2-.4.3-.8.5-1.2H45.5a.864.864,0,0,0-.6.3,9.016,9.016,0,0,0-.9,1h8.9c.3.1.4.2.4.5s-.2.4-.4.5H43.6a6.646,6.646,0,0,0,.6,3.4c0,.1.1.1.2.1H63.8c-.1-.2-.1-.3-.2-.5a.419.419,0,0,1,.3-.6.481.481,0,0,1,.6.2l.1.1c.2.4.4.7.9.7a1.415,1.415,0,0,1,1.3,1.4,1.621,1.621,0,0,1-1.2,1.6c-.2,0-.3.1-.5.1H44.7a1.541,1.541,0,0,1-1.6-1.2,1.268,1.268,0,0,0-.1-.6h-.6a1.306,1.306,0,0,1-1.2-.7c-.2-.5-.5-.9-.7-1.4l-.2.2c-.8.9-1.7,1.8-2.5,2.7a2.659,2.659,0,0,1-2.5.9,2.235,2.235,0,0,1-1.8-1.8v-.1A1.952,1.952,0,0,0,33.6,65.8Zm21.4.5H44.6a.56.56,0,0,0-.5.6.634.634,0,0,0,.5.6H65.1q.9,0,.9-.6c0-.4-.3-.6-.8-.6Zm-9-7.6H65.1c.4,0,.7-.2.7-.6s-.3-.6-.7-.6H48.7a.6.6,0,0,0-.4.1,1.907,1.907,0,0,1-1.3.2.367.367,0,0,0-.3.1C46.5,58.1,46.3,58.4,46,58.7Zm5.9-5.5c-1,.8-1.9,1.6-2.8,2.3a.349.349,0,0,0-.1.2c0,.3.1.5.1.8h6.8a1.854,1.854,0,0,1,.2-1.9c-.3-.3-.5-.6-.8-.9l-.2.2a1.384,1.384,0,0,1-1.7.3,1.421,1.421,0,0,0-.6-.2A1.063,1.063,0,0,1,51.9,53.2Zm1.2-14.5a.792.792,0,0,0-.5-.8c-.3-.2-.6,0-.9.2L45.8,44c-.4.4-.4.8,0,1.1a.654.654,0,0,0,1.1,0l6-6A.758.758,0,0,0,53.1,38.7Zm3.6,16.9a.937.937,0,0,0,.5.9.54.54,0,0,0,.8-.2l6-6a.782.782,0,0,0,0-1.1.706.706,0,0,0-1.1,0l-6,6A.758.758,0,0,0,56.7,55.6Zm4.1-10.5c-2.6,2.7-5.3,5.3-7.9,7.9a6.89,6.89,0,0,0,.8.3.783.783,0,0,0,.8-.1l2.6-2.6L61,46.7c.1-.1.3-.3.2-.5C61.1,45.8,60.9,45.4,60.8,45.1ZM57,41.3c-.4-.1-.7-.3-1.1-.4a.758.758,0,0,0-.4.2l-6.7,6.7a.758.758,0,0,0-.2.4c.1.4.3.8.4,1.2C51.7,46.6,54.3,43.9,57,41.3Zm-.2,12.6,4.8-4.8-.8-.8L56,53.1A6.034,6.034,0,0,1,56.8,53.9ZM49,46l4.8-4.8c-.2-.3-.5-.5-.7-.8l-4.8,4.8A2.7,2.7,0,0,0,49,46Zm.6,4.9c-.8.9-1.5,1.8-2.3,2.7l1.1,1.1c.9-.8,1.8-1.5,2.7-2.3C50.6,52,50.1,51.4,49.6,50.9Zm-1.5,5.4c-.1-.2-.1-.4-.2-.5-.6-.6-1.1-1.2-1.7-1.7a.677.677,0,0,0-.9,1L47,56.8a.616.616,0,0,0,.7.1A2.092,2.092,0,0,0,48.1,56.3Zm-4.8,9.4a7.245,7.245,0,0,1-.7-3.3,11.985,11.985,0,0,0-1.1,1.2.139.139,0,0,0,0,.2c.2.6.5,1.2.7,1.8,0,.1.1.1.2.1Z" fill="#fff"/>
      <path id="路径_1201" data-name="路径 1201" d="M52.9,64.1H47.4a.764.764,0,0,1-.5-.2.749.749,0,0,1-.1-.5c0-.1.2-.2.4-.3H58.7a.5.5,0,0,1,0,1H52.9Z" fill="#fff"/>
    </g>
  </g>
</svg>
