<svg xmlns="http://www.w3.org/2000/svg" width="213.15" height="66" viewBox="0 0 213.15 66">
  <g id="icon_13" transform="translate(-191.425 -387.5)">
    <path id="路径_1485" data-name="路径 1485" d="M403.8,419.5l-12.6-26.1a5.29,5.29,0,0,0-4.6-2.6H209.3a5.414,5.414,0,0,0-4.6,2.6l-12.6,26.1a5.538,5.538,0,0,0,0,5.3l12.6,26.1a5.29,5.29,0,0,0,4.6,2.6H386.7a5.414,5.414,0,0,0,4.6-2.6l12.6-26.1A5.282,5.282,0,0,0,403.8,419.5Z" fill="#c8d1ff"/>
    <path id="路径_1486" data-name="路径 1486" d="M403.8,416.2l-12.6-26.1a5.29,5.29,0,0,0-4.6-2.6H209.3a5.414,5.414,0,0,0-4.6,2.6l-12.6,26.1a5.538,5.538,0,0,0,0,5.3l12.6,26.1a5.29,5.29,0,0,0,4.6,2.6H386.7a5.414,5.414,0,0,0,4.6-2.6l12.6-26.1A5.29,5.29,0,0,0,403.8,416.2Z" fill="#00b8e0"/>
    <g id="组_755" data-name="组 755">
      <path id="路径_1487" data-name="路径 1487" d="M386.7,391.5a1.1,1.1,0,0,1,1,.6l12.5,26,.1.1.1.1a1.483,1.483,0,0,1,0,1.3l-.1.1-.1.1-12.5,26a1.231,1.231,0,0,1-1,.5H209.3a1.231,1.231,0,0,1-1-.5l-12.5-26-.1-.1-.1-.1a1.483,1.483,0,0,1,0-1.3l.1-.1.1-.1,12.5-26a1.231,1.231,0,0,1,1-.5H386.7m0-4.1H209.3a5.414,5.414,0,0,0-4.6,2.6l-12.6,26.1a5.538,5.538,0,0,0,0,5.3l12.6,26.1a5.29,5.29,0,0,0,4.6,2.6H386.7a5.414,5.414,0,0,0,4.6-2.6l12.6-26.1a5.538,5.538,0,0,0,0-5.3l-12.6-26.1a5.414,5.414,0,0,0-4.6-2.6Z" fill="#fff"/>
    </g>
  </g>
</svg>
