<svg xmlns="http://www.w3.org/2000/svg" xmlns:xlink="http://www.w3.org/1999/xlink" width="338.3" height="152.8" viewBox="0 0 338.3 152.8">
  <defs>
    <clipPath id="clip-path">
      <path id="路径_1353" data-name="路径 1353" d="M337.4,19.7H32.2A12.078,12.078,0,0,0,20.1,31.8V147.1a12.078,12.078,0,0,0,12.1,12.1H337.5a12.078,12.078,0,0,0,12.1-12.1V31.8A12.294,12.294,0,0,0,337.4,19.7Z"/>
    </clipPath>
  </defs>
  <g id="icon_10" transform="translate(-15.7 -15.4)">
    <g id="组_620" data-name="组 620">
      <g id="组_605" data-name="组 605">
        <path id="路径_1334" data-name="路径 1334" d="M337.4,19.9H32.2A16.516,16.516,0,0,0,15.7,36.4V151.7a16.516,16.516,0,0,0,16.5,16.5H337.5A16.516,16.516,0,0,0,354,151.7V36.4a16.667,16.667,0,0,0-16.6-16.5Z" fill="#c9ceea"/>
      </g>
      <g id="组_606" data-name="组 606">
        <path id="路径_1335" data-name="路径 1335" d="M337.4,15.4H32.2A16.516,16.516,0,0,0,15.7,31.9V147.2a16.516,16.516,0,0,0,16.5,16.5H337.5A16.516,16.516,0,0,0,354,147.2V31.8a16.647,16.647,0,0,0-16.6-16.4Z" fill="#fff"/>
      </g>
      <path id="路径_1336" data-name="路径 1336" d="M337.4,19.7H32.2A12.078,12.078,0,0,0,20.1,31.8V147.1a12.078,12.078,0,0,0,12.1,12.1H337.5a12.078,12.078,0,0,0,12.1-12.1V31.8A12.294,12.294,0,0,0,337.4,19.7Z" fill="#d83a8d"/>
      <g id="组_619" data-name="组 619">
        <g id="组_618" data-name="组 618" clip-path="url(#clip-path)">
          <g id="组_617" data-name="组 617">
            <g id="组_607" data-name="组 607">
              <path id="路径_1337" data-name="路径 1337" d="M74.1,138.6,20.9,235A7.923,7.923,0,0,1,10,238.1l-8-4.4a7.923,7.923,0,0,1-3.1-10.9L52,126.5a7.923,7.923,0,0,1,10.9-3.1l8,4.4A7.951,7.951,0,0,1,74.1,138.6Z" fill="#a41b6e"/>
            </g>
            <g id="组_608" data-name="组 608">
              <path id="路径_1338" data-name="路径 1338" d="M-.9,81.4l-72.8,132a8.184,8.184,0,0,1-11,3.2l-8.1-4.4a8.184,8.184,0,0,1-3.2-11l72.8-132a8.184,8.184,0,0,1,11-3.2l8.1,4.4A8.071,8.071,0,0,1-.9,81.4Z" fill="#a41b6e"/>
            </g>
            <g id="组_609" data-name="组 609">
              <path id="路径_1339" data-name="路径 1339" d="M-9.6,9l-43,77.9a6.43,6.43,0,0,1-8.8,2.5l-6.4-3.6A6.43,6.43,0,0,1-70.3,77l43-77.9a6.43,6.43,0,0,1,8.8-2.5L-12.1.2A6.542,6.542,0,0,1-9.6,9Z" fill="#a41b6e"/>
            </g>
            <g id="组_610" data-name="组 610">
              <path id="路径_1340" data-name="路径 1340" d="M174.9,116.4l-53.1,96.3a7.923,7.923,0,0,1-10.9,3.1l-8-4.4a7.923,7.923,0,0,1-3.1-10.9l53.1-96.3a7.923,7.923,0,0,1,10.9-3.1l8,4.4A8.008,8.008,0,0,1,174.9,116.4Z" fill="#a41b6e"/>
            </g>
            <g id="组_611" data-name="组 611">
              <path id="路径_1341" data-name="路径 1341" d="M157.8,31.6l-43,77.9A6.43,6.43,0,0,1,106,112l-6.4-3.6a6.43,6.43,0,0,1-2.5-8.8l43-77.9a6.43,6.43,0,0,1,8.8-2.5l6.4,3.6A6.517,6.517,0,0,1,157.8,31.6Z" fill="#a41b6e"/>
            </g>
            <g id="组_612" data-name="组 612">
              <path id="路径_1342" data-name="路径 1342" d="M101.9-13.2,64.4,55a5.713,5.713,0,0,1-7.7,2.2L51,54.1a5.713,5.713,0,0,1-2.2-7.7L86.4-21.8A5.713,5.713,0,0,1,94.1-24l5.6,3.1A5.713,5.713,0,0,1,101.9-13.2Z" fill="#a41b6e"/>
            </g>
            <g id="组_613" data-name="组 613">
              <path id="路径_1343" data-name="路径 1343" d="M357.8,104.1l-53.1,96.3a7.923,7.923,0,0,1-10.9,3.1l-8-4.4a7.923,7.923,0,0,1-3.1-10.9L335.8,92a7.923,7.923,0,0,1,10.9-3.1l8,4.4A8.005,8.005,0,0,1,357.8,104.1Z" fill="#a41b6e"/>
            </g>
            <g id="组_614" data-name="组 614">
              <path id="路径_1344" data-name="路径 1344" d="M272.3-79.6l-72.8,132a8.184,8.184,0,0,1-11,3.2l-8.1-4.4a8.184,8.184,0,0,1-3.2-11L250-91.8A8.184,8.184,0,0,1,261-95l8.1,4.4A8.158,8.158,0,0,1,272.3-79.6Z" fill="#a41b6e"/>
            </g>
            <g id="组_615" data-name="组 615">
              <path id="路径_1345" data-name="路径 1345" d="M336.7-14.1l-43,77.9a6.43,6.43,0,0,1-8.8,2.5l-6.4-3.6a6.43,6.43,0,0,1-2.5-8.8L319-24a6.43,6.43,0,0,1,8.8-2.5l6.4,3.6A6.517,6.517,0,0,1,336.7-14.1Z" fill="#a41b6e"/>
            </g>
            <g id="组_616" data-name="组 616">
              <path id="路径_1346" data-name="路径 1346" d="M258.4,118.9l-37.6,68.2a5.713,5.713,0,0,1-7.7,2.2l-5.6-3.1a5.713,5.713,0,0,1-2.2-7.7l37.6-68.2a5.713,5.713,0,0,1,7.7-2.2l5.6,3.1A5.713,5.713,0,0,1,258.4,118.9Z" fill="#a41b6e"/>
            </g>
            <path id="路径_1347" data-name="路径 1347" d="M51.8,80.6h-.9A11.4,11.4,0,1,0,62.2,93.4a7.569,7.569,0,0,0,.1-1.5A11.416,11.416,0,0,0,51.8,80.6Z" fill="#a41b6e"/>
            <path id="路径_1348" data-name="路径 1348" d="M-9.9,133.8a7.383,7.383,0,0,0-7.4,7.4,7.338,7.338,0,0,0,6.3,7.3h0a4.1,4.1,0,0,0,1.1.1,7.383,7.383,0,0,0,7.4-7.4,7.592,7.592,0,0,0-4.3-6.8h0A10.045,10.045,0,0,0-9.9,133.8Z" fill="#a41b6e"/>
            <path id="路径_1349" data-name="路径 1349" d="M34,21a5.378,5.378,0,0,0-.8,10.7h0c.3,0,.5.1.8.1a5.378,5.378,0,0,0,5.4-5.4,5.286,5.286,0,0,0-3.2-4.9h0A5.091,5.091,0,0,0,34,21Z" fill="#a41b6e"/>
            <path id="路径_1350" data-name="路径 1350" d="M219.7,103.4h.9a11.4,11.4,0,1,0-11.3-12.8,7.568,7.568,0,0,0-.1,1.5A11.416,11.416,0,0,0,219.7,103.4Z" fill="#a41b6e"/>
            <path id="路径_1351" data-name="路径 1351" d="M320.3,54.3a7.39,7.39,0,0,0,1.1-14.7h0a4.1,4.1,0,0,0-1.1-.1,7.383,7.383,0,0,0-7.4,7.4,7.592,7.592,0,0,0,4.3,6.8h0A7.455,7.455,0,0,0,320.3,54.3Z" fill="#a41b6e"/>
            <path id="路径_1352" data-name="路径 1352" d="M278.5,138a5.378,5.378,0,0,0,.8-10.7h0c-.3,0-.5-.1-.8-.1a5.378,5.378,0,0,0-5.4,5.4,5.286,5.286,0,0,0,3.2,4.9h0A5.091,5.091,0,0,0,278.5,138Z" fill="#a41b6e"/>
          </g>
        </g>
      </g>
    </g>
  </g>
</svg>
