<svg xmlns="http://www.w3.org/2000/svg" xmlns:xlink="http://www.w3.org/1999/xlink" width="255.738" height="79.4" viewBox="0 0 255.738 79.4">
  <defs>
    <linearGradient id="linear-gradient" x1="0.213" y1="-0.471" x2="0.787" y2="1.472" gradientUnits="objectBoundingBox">
      <stop offset="0.001" stop-color="#ff2cdf"/>
      <stop offset="0.122" stop-color="#e72ae2"/>
      <stop offset="0.38" stop-color="#a924ea"/>
      <stop offset="0.749" stop-color="#471bf6"/>
      <stop offset="1" stop-color="#0014ff"/>
    </linearGradient>
  </defs>
  <g id="icon_14" transform="translate(-169.775 -381.2)">
    <path id="路径_1488" data-name="路径 1488" d="M424.7,419.7l-15.1-31.4a6.224,6.224,0,0,0-5.5-3.2H191.2a6.342,6.342,0,0,0-5.5,3.2l-15.1,31.4a6.425,6.425,0,0,0,0,6.3l15.1,31.4a6.224,6.224,0,0,0,5.5,3.2H404a6.342,6.342,0,0,0,5.5-3.2L424.6,426A6.182,6.182,0,0,0,424.7,419.7Z" fill="#c8d1ff"/>
    <path id="路径_1489" data-name="路径 1489" d="M424.7,415.8l-15.1-31.4a6.224,6.224,0,0,0-5.5-3.2H191.2a6.342,6.342,0,0,0-5.5,3.2l-15.1,31.4a6.425,6.425,0,0,0,0,6.3l15.1,31.4a6.224,6.224,0,0,0,5.5,3.2H404a6.342,6.342,0,0,0,5.5-3.2l15.1-31.4A6.182,6.182,0,0,0,424.7,415.8Z" fill="url(#linear-gradient)"/>
    <g id="组_756" data-name="组 756">
      <path id="路径_1490" data-name="路径 1490" d="M404.1,386.1a1.709,1.709,0,0,1,1.3.7l15,31.2.1.2.1.2a1.36,1.36,0,0,1,0,1.5l-.1.2-.1.2-15,31.2a1.709,1.709,0,0,1-1.3.7H191.2a1.709,1.709,0,0,1-1.3-.7l-15-31.2-.1-.2-.1-.2a1.36,1.36,0,0,1,0-1.5l.1-.2.1-.2,15-31.2a1.709,1.709,0,0,1,1.3-.7H404.1m0-4.8H191.2a6.342,6.342,0,0,0-5.5,3.2l-15.1,31.4a6.425,6.425,0,0,0,0,6.3l15.1,31.4a6.224,6.224,0,0,0,5.5,3.2H404a6.342,6.342,0,0,0,5.5-3.2l15.1-31.4a6.425,6.425,0,0,0,0-6.3l-15.1-31.4a6.184,6.184,0,0,0-5.4-3.2Z" fill="#fff"/>
    </g>
    <text id="PLAY_AGAIN" data-name="PLAY AGAIN" transform="translate(206.527 430.718)" fill="#fff" font-size="32.2" font-family="Helvetica"><tspan x="0" y="0">PLAY AGAIN</tspan></text>
  </g>
</svg>
