<svg xmlns="http://www.w3.org/2000/svg" width="191.938" height="48" viewBox="0 0 191.938 48">
  <g id="share" transform="translate(-202.075 -396.5)">
    <path id="路径_1425" data-name="路径 1425" d="M393.5,419.8l-9.1-19a3.74,3.74,0,0,0-3.3-1.9H215a3.74,3.74,0,0,0-3.3,1.9l-9.1,19a3.7,3.7,0,0,0,0,3.8l9.1,19a3.74,3.74,0,0,0,3.3,1.9H381a3.74,3.74,0,0,0,3.3-1.9l9.1-19A3.493,3.493,0,0,0,393.5,419.8Z" fill="#c8d1ff"/>
    <path id="路径_1426" data-name="路径 1426" d="M393.5,417.4l-9.1-19a3.74,3.74,0,0,0-3.3-1.9H215a3.74,3.74,0,0,0-3.3,1.9l-9.1,19a3.7,3.7,0,0,0,0,3.8l9.1,19a3.74,3.74,0,0,0,3.3,1.9H381a3.74,3.74,0,0,0,3.3-1.9l9.1-19A3.493,3.493,0,0,0,393.5,417.4Z" fill="#32ed7d"/>
    <g id="组_685" data-name="组 685">
      <path id="路径_1427" data-name="路径 1427" d="M381,399.5a.755.755,0,0,1,.7.4l9.1,18.8v.1l.1.1a1.1,1.1,0,0,1,0,.8l-.1.1v.1l-9.1,18.8a1.012,1.012,0,0,1-.7.4H215a.755.755,0,0,1-.7-.4l-9.1-18.8v-.1l-.1-.1a1.1,1.1,0,0,1,0-.8l.1-.1v-.1l9.1-18.8a1.012,1.012,0,0,1,.7-.4H381m0-3H215a3.74,3.74,0,0,0-3.3,1.9l-9.1,19a3.7,3.7,0,0,0,0,3.8l9.1,19a3.74,3.74,0,0,0,3.3,1.9H381a3.74,3.74,0,0,0,3.3-1.9l9.1-19a3.7,3.7,0,0,0,0-3.8l-9.1-19a3.74,3.74,0,0,0-3.3-1.9Z" fill="#fff"/>
    </g>
    <text id="SHARE-2" data-name="SHARE" transform="translate(258.701 428.644)" fill="#fff" font-size="24" font-family="Helvetica"><tspan x="0" y="0">SHARE</tspan></text>
  </g>
</svg>
