<svg xmlns="http://www.w3.org/2000/svg" xmlns:xlink="http://www.w3.org/1999/xlink" width="1080" height="1080" viewBox="0 0 1080 1080">
  <defs>
    <clipPath id="clip-path">
      <circle id="椭圆_147" data-name="椭圆 147" cx="540" cy="540" r="540" transform="translate(1 -2.3)"/>
    </clipPath>
    <clipPath id="clip-path-2">
      <circle id="椭圆_150" data-name="椭圆 150" cx="540" cy="540" r="540" transform="translate(-2.3 1.1)"/>
    </clipPath>
  </defs>
  <g id="face_5" transform="translate(2.3 -1.1)">
    <g id="组_410" data-name="组 410" transform="translate(-3.3 3.4)" clip-path="url(#clip-path)">
      <rect id="矩形_303" data-name="矩形 303" width="1084.6" height="1082.3" fill="#fff"/>
    </g>
    <g id="组_429" data-name="组 429" clip-path="url(#clip-path-2)">
      <path id="路径_889" data-name="路径 889" d="M835.7,871.6V459.8c0-162.6-131.8-294.4-294.4-294.4h0c-162.6,0-294.4,131.8-294.4,294.4V871.6c0,162.6,131.8,294.4,294.4,294.4h0C703.8,1166.1,835.7,1034.2,835.7,871.6Z" fill="#002539"/>
      <path id="路径_890" data-name="路径 890" d="M770.3,840.8V577.3c0-126.5-102.5-229.1-229.1-229.1h0c-126.5,0-229.1,102.5-229.1,229.1V839a164.317,164.317,0,0,0,48.1,116.2l65.6,65.6c64.2,64.2,168.2,64.2,232.3,0L722,956.9A163.615,163.615,0,0,0,770.3,840.8Z"/>
      <g id="组_428" data-name="组 428">
        <g id="组_414" data-name="组 414">
          <g id="组_411" data-name="组 411">
            <rect id="矩形_304" data-name="矩形 304" width="263.2" height="312.9" transform="translate(412.8 822.9)" fill="#ee927e"/>
            <path id="路径_891" data-name="路径 891" d="M412.8,822.9V941.1l17.8,17.8c64.2,64.2,168.2,64.2,232.3,0L676,945.8V822.9Z" fill="#ec7f77"/>
          </g>
          <g id="组_413" data-name="组 413">
            <g id="组_412" data-name="组 412">
              <path id="路径_892" data-name="路径 892" d="M581.2,981.7H686.8v123.8H457.3Z" fill="#c5c9e6"/>
              <path id="路径_893" data-name="路径 893" d="M505.3,981.7H399.7v123.8H629.2Z" fill="#d9dbee"/>
            </g>
            <rect id="矩形_305" data-name="矩形 305" width="315.2" height="135.1" transform="translate(385.6 1077.3)" fill="#b7184a"/>
            <path id="路径_894" data-name="路径 894" d="M560.1,1144.9a16.9,16.9,0,1,1-16.9-16.9A16.943,16.943,0,0,1,560.1,1144.9Z" fill="#d9dbee"/>
          </g>
        </g>
        <g id="组_419" data-name="组 419">
          <g id="组_417" data-name="组 417">
            <g id="组_415" data-name="组 415">
              <path id="路径_895" data-name="路径 895" d="M355.3,631.4a46.7,46.7,0,1,1-46.7-46.7A46.689,46.689,0,0,1,355.3,631.4Z" fill="#f4b497"/>
              <circle id="椭圆_148" data-name="椭圆 148" cx="18.7" cy="18.7" r="18.7" transform="translate(289.9 612.7)" fill="#e9686a"/>
            </g>
            <g id="组_416" data-name="组 416">
              <path id="路径_896" data-name="路径 896" d="M822.3,631.4a46.7,46.7,0,1,1-46.7-46.7A46.689,46.689,0,0,1,822.3,631.4Z" fill="#f4b497"/>
              <circle id="椭圆_149" data-name="椭圆 149" cx="18.7" cy="18.7" r="18.7" transform="translate(756.9 612.7)" fill="#e9686a"/>
            </g>
          </g>
          <g id="组_418" data-name="组 418">
            <path id="路径_897" data-name="路径 897" d="M308.6,675.8a11.7,11.7,0,1,1-11.7-11.7A11.651,11.651,0,0,1,308.6,675.8Z" fill="#d9dbee"/>
            <path id="路径_898" data-name="路径 898" d="M798.9,675.8a11.7,11.7,0,1,1-11.7-11.7A11.651,11.651,0,0,1,798.9,675.8Z" fill="#d9dbee"/>
          </g>
        </g>
        <path id="路径_899" data-name="路径 899" d="M770.3,732.1V468.7c0-126.5-102.5-229.1-229.1-229.1h0c-126.5,0-229.1,102.5-229.1,229.1V730.4a164.491,164.491,0,0,0,48.1,116.2l65.6,65.6c64.2,64.2,168.2,64.2,232.3,0L722,848.3A163.673,163.673,0,0,0,770.3,732.1Z" fill="#f6c09c"/>
        <path id="路径_900" data-name="路径 900" d="M770.3,468.7c0-126.2-102.1-228.6-228.2-229h-1.8c-126.1.5-228.2,102.8-228.2,229v51.2h77A152.984,152.984,0,0,0,541.2,383.1,152.984,152.984,0,0,0,693.3,519.9h77V468.7Z" fill="#f4b497"/>
        <path id="路径_901" data-name="路径 901" d="M658.2,837.5c-64.2,64.2-168.2,64.2-232.3,0l-65.6-65.6a164.317,164.317,0,0,1-48.1-116.2v74.7a164.317,164.317,0,0,0,48.1,116.2l65.6,65.6c64.2,64.2,168.2,64.2,232.3,0l63.9-63.9a164.317,164.317,0,0,0,48.1-116.2V657.4a164.492,164.492,0,0,1-48.1,116.2Z" fill="#f4b497"/>
        <g id="组_421" data-name="组 421">
          <g id="组_420" data-name="组 420">
            <path id="路径_902" data-name="路径 902" d="M595,775.5v-.2h0a32.053,32.053,0,0,0-32.1-31.7,31.667,31.667,0,0,0-21.5,8.3,31.667,31.667,0,0,0-21.5-8.3,32.053,32.053,0,0,0-32.1,31.7h0v.3h0a53.651,53.651,0,0,0,107.3,0h0Z" fill="#ee2761"/>
          </g>
          <path id="路径_903" data-name="路径 903" d="M579.6,776.8a7.277,7.277,0,0,1-7.3,7.3h-62a7.277,7.277,0,0,1-7.3-7.3h0a7.341,7.341,0,0,1,7.3-7.3h62a7.277,7.277,0,0,1,7.3,7.3Z" fill="#b7184a"/>
        </g>
        <g id="组_426" data-name="组 426">
          <g id="组_423" data-name="组 423">
            <g id="组_422" data-name="组 422">
              <path id="路径_904" data-name="路径 904" d="M426.1,648.8h0a20.677,20.677,0,0,1-20.7-20.7V600.5a20.677,20.677,0,0,1,20.7-20.7h0a20.677,20.677,0,0,1,20.7,20.7v27.6A20.677,20.677,0,0,1,426.1,648.8Z"/>
            </g>
            <path id="路径_905" data-name="路径 905" d="M460.6,558.5H391.5a15.983,15.983,0,0,1-16-16h0a15.983,15.983,0,0,1,16-16h69.1a15.983,15.983,0,0,1,16,16h0A16.047,16.047,0,0,1,460.6,558.5Z" fill="#ee927e"/>
            <path id="路径_906" data-name="路径 906" d="M460.6,537.2H391.5a15.983,15.983,0,0,1-16-16h0a15.983,15.983,0,0,1,16-16h69.1a15.983,15.983,0,0,1,16,16h0A15.983,15.983,0,0,1,460.6,537.2Z" fill="#002539"/>
            <path id="路径_907" data-name="路径 907" d="M444.7,521.3H407.5a5.335,5.335,0,0,1-5.3-5.3h0a5.335,5.335,0,0,1,5.3-5.3h37.2A5.335,5.335,0,0,1,450,516h0A5.335,5.335,0,0,1,444.7,521.3Z" fill="#354e5a"/>
            <path id="路径_908" data-name="路径 908" d="M489.8,670.1H362.3a5.335,5.335,0,0,1-5.3-5.3h0a5.335,5.335,0,0,1,5.3-5.3H489.9a5.335,5.335,0,0,1,5.3,5.3h0A5.357,5.357,0,0,1,489.8,670.1Z" fill="#f4b497"/>
          </g>
          <g id="组_425" data-name="组 425">
            <g id="组_424" data-name="组 424">
              <path id="路径_909" data-name="路径 909" d="M659.8,648.8h0a20.677,20.677,0,0,1-20.7-20.7V600.5a20.677,20.677,0,0,1,20.7-20.7h0a20.677,20.677,0,0,1,20.7,20.7v27.6A20.677,20.677,0,0,1,659.8,648.8Z"/>
            </g>
            <path id="路径_910" data-name="路径 910" d="M694.3,558.5H625.2a15.983,15.983,0,0,1-16-16h0a15.983,15.983,0,0,1,16-16h69.1a15.983,15.983,0,0,1,16,16h0A16.047,16.047,0,0,1,694.3,558.5Z" fill="#ee927e"/>
            <path id="路径_911" data-name="路径 911" d="M694.3,537.2H625.2a15.983,15.983,0,0,1-16-16h0a15.983,15.983,0,0,1,16-16h69.1a15.983,15.983,0,0,1,16,16h0A15.983,15.983,0,0,1,694.3,537.2Z" fill="#002539"/>
            <path id="路径_912" data-name="路径 912" d="M678.4,521.3H641.2a5.335,5.335,0,0,1-5.3-5.3h0a5.335,5.335,0,0,1,5.3-5.3h37.2a5.335,5.335,0,0,1,5.3,5.3h0A5.335,5.335,0,0,1,678.4,521.3Z" fill="#354e5a"/>
            <path id="路径_913" data-name="路径 913" d="M723.6,670.1H596a5.335,5.335,0,0,1-5.3-5.3h0a5.335,5.335,0,0,1,5.3-5.3H723.6a5.335,5.335,0,0,1,5.3,5.3h0A5.335,5.335,0,0,1,723.6,670.1Z" fill="#f4b497"/>
          </g>
        </g>
        <g id="组_427" data-name="组 427">
          <path id="路径_914" data-name="路径 914" d="M523.4,696.8a9.3,9.3,0,1,1-9.3-9.3A9.282,9.282,0,0,1,523.4,696.8Z" fill="#e9686a"/>
          <path id="路径_915" data-name="路径 915" d="M579.4,696.8a9.3,9.3,0,1,1-9.3-9.3A9.282,9.282,0,0,1,579.4,696.8Z" fill="#e9686a"/>
        </g>
        <path id="路径_916" data-name="路径 916" d="M467.4,727.2a49,49,0,1,1-49-49A49.015,49.015,0,0,1,467.4,727.2Z" fill="#f3b29e"/>
        <path id="路径_917" data-name="路径 917" d="M714.9,727.2a49,49,0,1,1-49-49A49.015,49.015,0,0,1,714.9,727.2Z" fill="#f3b29e"/>
      </g>
      <path id="路径_918" data-name="路径 918" d="M542.1,325.7V235.1h-.9c-131.3,0-237.8,106.4-237.8,237.8v11.6h79.9C471,484.4,542.1,413.3,542.1,325.7Z" fill="#002539"/>
      <path id="路径_919" data-name="路径 919" d="M540.3,325.7V235.1h.9C672.5,235.1,779,341.5,779,472.9v11.6H699.1C611.4,484.4,540.3,413.3,540.3,325.7Z" fill="#002539"/>
      <path id="路径_920" data-name="路径 920" d="M636.4,371.2h0a20.059,20.059,0,0,1-20-20V305.4a20.059,20.059,0,0,1,20-20h0a20.059,20.059,0,0,1,20,20v45.8A19.931,19.931,0,0,1,636.4,371.2Z" fill="#133c4b"/>
      <path id="路径_921" data-name="路径 921" d="M719.3,439.8h0a17.178,17.178,0,0,1-17.2-17.1V376.9a17.114,17.114,0,0,1,17.2-17.1h0a17.178,17.178,0,0,1,17.2,17.1v45.8A17.114,17.114,0,0,1,719.3,439.8Z" fill="#133c4b"/>
      <path id="路径_922" data-name="路径 922" d="M444.9,342.6h0a17.092,17.092,0,0,1-17.1-17.1V274a17.092,17.092,0,0,1,17.1-17.1h0A17.092,17.092,0,0,1,462,274v51.5A17.092,17.092,0,0,1,444.9,342.6Z" fill="#133c4b"/>
      <path id="路径_923" data-name="路径 923" d="M370.5,439.8h0a22.9,22.9,0,0,1-22.9-22.9V405.5a22.9,22.9,0,0,1,22.9-22.9h0a22.9,22.9,0,0,1,22.9,22.9V417A22.811,22.811,0,0,1,370.5,439.8Z" fill="#133c4b"/>
    </g>
  </g>
</svg>
