<?xml version="1.0" encoding="utf-8"?>
<!-- Generator: Adobe Illustrator 25.4.1, SVG Export Plug-In . SVG Version: 6.00 Build 0)  -->
<svg version="1.1" id="Layer_1" xmlns="http://www.w3.org/2000/svg" xmlns:xlink="http://www.w3.org/1999/xlink" x="0px" y="0px"
	 viewBox="0 0 1080 1080" style="enable-background:new 0 0 1080 1080;" xml:space="preserve">
<style type="text/css">
	.st0{fill:#E87765;}
	.st1{fill:#D96456;}
	.st2{fill:#D53E41;}
	.st3{fill:#EC9476;}
	.st4{fill:#073341;}
	.st5{fill:#040000;}
	.st6{fill:#344D59;}
	.st7{fill:#002438;}
	.st8{fill:#D65447;}
	.st9{fill:#5E1513;}
	.st10{fill:#24A3A2;}
	.st11{fill:#64BEB9;}
</style>
<g>
	<g>
		<rect x="307.7" y="740" class="st0" width="437.2" height="342.2"/>
		<path class="st1" d="M637.2,792H415.4c-59.5,0-107.7-48.2-107.7-107.7V806c0,59.5,48.2,107.7,107.7,107.7h221.8
			c59.5,0,107.7-48.2,107.7-107.7V684.3C744.9,743.8,696.7,792,637.2,792z"/>
		<g>
			<g>
				<circle class="st0" cx="253.9" cy="422.6" r="69.8"/>
				<circle class="st2" cx="253.9" cy="422.6" r="29.9"/>
			</g>
			<g>
				<circle class="st0" cx="798.7" cy="422.6" r="69.8"/>
				<circle class="st2" cx="798.7" cy="422.6" r="29.9"/>
			</g>
		</g>
		<path class="st3" d="M785.2,274.1c0-143-115.9-258.9-258.9-258.9h0c-143,0-258.9,115.9-258.9,258.9v186.8h517.7V274.1z"/>
		<g>
			<g>
				<g>
					<path class="st0" d="M466.9,375.4H324.6c-1.7,0-3.2-1.4-3.2-3.2V320c0-1.7,1.4-3.2,3.2-3.2h142.2c1.7,0,3.2,1.4,3.2,3.2v52.2
						C470,373.9,468.6,375.4,466.9,375.4z"/>
					<g>
						<path class="st4" d="M466.9,334.8H324.6c-1.7,0-3.2-1.4-3.2-3.2v-52.2c0-1.7,1.4-3.2,3.2-3.2h142.2c1.7,0,3.2,1.4,3.2,3.2
							v52.2C470,333.4,468.6,334.8,466.9,334.8z"/>
						<path class="st5" d="M440.8,307.8h-90c-11.3,0-21.1-6.4-25.9-15.8c-2.1,4-3.3,8.6-3.3,13.5c0,16.2,13.1,29.3,29.3,29.3h90
							c16.2,0,29.3-13.1,29.3-29.3c0-4.9-1.2-9.5-3.3-13.5C461.8,301.4,452.1,307.8,440.8,307.8z"/>
					</g>
					<path class="st5" d="M413.8,429.4h-36.1c-1.2,0-2.2-1-2.2-2.2V355c0-1.2,1-2.2,2.2-2.2h36.1c1.2,0,2.2,1,2.2,2.2v72.2
						C416,428.4,415,429.4,413.8,429.4z"/>
				</g>
				<path class="st6" d="M440,298.8h-88.6c-0.4,0-0.7-0.3-0.7-0.7v-12c0-0.4,0.3-0.7,0.7-0.7H440c0.4,0,0.7,0.3,0.7,0.7v12
					C440.8,298.5,440.4,298.8,440,298.8z"/>
			</g>
			<g>
				<g>
					<path class="st0" d="M728,375.4H585.8c-1.7,0-3.2-1.4-3.2-3.2V320c0-1.7,1.4-3.2,3.2-3.2H728c1.7,0,3.2,1.4,3.2,3.2v52.2
						C731.2,373.9,729.7,375.4,728,375.4z"/>
					<g>
						<path class="st4" d="M728,334.8H585.8c-1.7,0-3.2-1.4-3.2-3.2v-52.2c0-1.7,1.4-3.2,3.2-3.2H728c1.7,0,3.2,1.4,3.2,3.2v52.2
							C731.2,333.4,729.7,334.8,728,334.8z"/>
						<path class="st5" d="M701.9,307.8h-90c-11.3,0-21.1-6.4-25.9-15.8c-2.1,4-3.3,8.6-3.3,13.5c0,16.2,13.1,29.3,29.3,29.3h90
							c16.2,0,29.3-13.1,29.3-29.3c0-4.9-1.2-9.5-3.3-13.5C723,301.4,713.2,307.8,701.9,307.8z"/>
					</g>
					<path class="st5" d="M674.9,429.4h-36.1c-1.2,0-2.2-1-2.2-2.2V355c0-1.2,1-2.2,2.2-2.2h36.1c1.2,0,2.2,1,2.2,2.2v72.2
						C677.1,428.4,676.1,429.4,674.9,429.4z"/>
				</g>
				<path class="st6" d="M701.2,298.8h-88.6c-0.4,0-0.7-0.3-0.7-0.7v-12c0-0.4,0.3-0.7,0.7-0.7h88.6c0.4,0,0.7,0.3,0.7,0.7v12
					C701.9,298.5,701.6,298.8,701.2,298.8z"/>
			</g>
		</g>
		<path class="st7" d="M766.5,387.2v29.2c0,16-13,29-29,29H315.2c-16,0-29-13-29-29v-29.2c0-1.1,0-2.1-0.1-3.2
			c-2-24.3-38.7-22-38.7,2.3v324.3c0,75.9,61.5,137.5,137.5,137.5h283c75.9,0,137.5-61.5,137.5-137.5V386.3
			c0-24.4-36.7-26.6-38.7-2.3C766.5,385,766.5,386.1,766.5,387.2z"/>
		<path class="st5" d="M667.8,692.8h-283c-75.9,0-137.5-61.5-137.5-137.5v155.3c0,75.9,61.5,137.5,137.5,137.5h283
			c75.9,0,137.5-61.5,137.5-137.5V555.3C805.3,631.3,743.7,692.8,667.8,692.8z"/>
		<g>
			<path class="st2" d="M615.7,496.9H436.9c-1.6,0-2.9-1.3-2.9-2.9v-48.2c0-1.6,1.3-2.9,2.9-2.9h178.7c1.6,0,2.9,1.3,2.9,2.9V494
				C618.6,495.6,617.3,496.9,615.7,496.9z"/>
			<path class="st1" d="M581.5,519.4H469.8c-1.5,0-2.7-1.2-2.7-2.7V341.2c0-3.5,2.8-6.3,6.3-6.3h104.4c3.5,0,6.3,2.8,6.3,6.3v175.6
				C584.2,518.2,583,519.4,581.5,519.4z"/>
			<path class="st8" d="M559.5,492.4h-67.5c-13.7,0-24.8-11.1-24.8-24.8v27c0,13.7,11.1,24.8,24.8,24.8h67.5
				c13.7,0,24.8-11.1,24.8-24.8v-27C584.2,481.3,573.1,492.4,559.5,492.4z"/>
			<path class="st0" d="M563.4,478.9h-20.1c-0.7,0-1.2-0.5-1.2-1.2V372.1c0-0.7,0.5-1.2,1.2-1.2h20.1c0.7,0,1.2,0.5,1.2,1.2v105.6
				C564.6,478.4,564,478.9,563.4,478.9z"/>
		</g>
		<path class="st0" d="M685.6,244.8H367c-0.3,0-0.5-0.2-0.5-0.5v-8c0-0.3,0.2-0.5,0.5-0.5h318.7c0.3,0,0.5,0.2,0.5,0.5v8
			C686.1,244.6,685.9,244.8,685.6,244.8z"/>
		<path class="st0" d="M606.9,208.8H445.8c-0.3,0-0.5-0.2-0.5-0.5v-8c0-0.3,0.2-0.5,0.5-0.5h161.1c0.3,0,0.5,0.2,0.5,0.5v8
			C607.3,208.6,607.1,208.8,606.9,208.8z"/>
		<path class="st5" d="M679.7,609.5H372.9c-1.1,0-1.9-0.9-1.9-1.9v-32.1c0-1.1,0.9-1.9,1.9-1.9h306.7c1.1,0,1.9,0.9,1.9,1.9v32.1
			C681.6,608.6,680.8,609.5,679.7,609.5z"/>
		<g>
			<path class="st0" d="M679.7,586.9H372.9c-1.1,0-1.9-0.9-1.9-1.9v-32.1c0-1.1,0.9-1.9,1.9-1.9h306.7c1.1,0,1.9,0.9,1.9,1.9V585
				C681.6,586.1,680.8,586.9,679.7,586.9z"/>
			<path class="st1" d="M663.6,573.4H389c-7.6,0-14-4.7-16.7-11.3c-0.8,2.1-1.3,4.4-1.3,6.8c0,9.9,8.1,18,18,18h274.6
				c9.9,0,18-8.1,18-18c0-2.4-0.5-4.7-1.3-6.8C677.6,568.8,671.2,573.4,663.6,573.4z"/>
		</g>
		<g>
			<path class="st6" d="M320,537.4h-24.1c-0.8,0-1.5-0.7-1.5-1.5v-55.6c0-0.8,0.7-1.5,1.5-1.5H320c0.8,0,1.5,0.7,1.5,1.5V536
				C321.5,536.8,320.8,537.4,320,537.4z"/>
			<path class="st6" d="M693.7,519.4h-24.1c-0.8,0-1.5-0.7-1.5-1.5v-37.6c0-0.8,0.7-1.5,1.5-1.5h24.1c0.8,0,1.5,0.7,1.5,1.5V518
				C695.1,518.8,694.5,519.4,693.7,519.4z"/>
			<path class="st6" d="M756.7,591.4h-24.1c-0.8,0-1.5-0.7-1.5-1.5v-78.1c0-0.8,0.7-1.5,1.5-1.5h24.1c0.8,0,1.5,0.7,1.5,1.5V590
				C758.2,590.8,757.5,591.4,756.7,591.4z"/>
			<path class="st6" d="M581.4,672.5h-20.1c-0.7,0-1.2-0.5-1.2-1.2v-38.1c0-0.7,0.5-1.2,1.2-1.2h20.1c0.7,0,1.2,0.5,1.2,1.2v38.1
				C582.6,671.9,582,672.5,581.4,672.5z"/>
		</g>
		<g>
			
				<rect x="632.3" y="896" transform="matrix(0.7071 0.7071 -0.7071 0.7071 841.9617 -194.2401)" class="st9" width="46.4" height="46.4"/>
			<polygon class="st9" points="702,933 669.6,965.4 655.4,979.6 641.3,965.4 608.9,933 563,933 506.9,933 539.3,965.4 595.4,965.4 
				655.4,1025.5 715.5,965.4 745.5,965.4 745.5,933 			"/>
			<polygon class="st9" points="702,1002.4 669.6,1034.8 655.4,1049 641.3,1034.8 608.9,1002.4 563,1002.4 506.9,1002.4 
				539.3,1034.8 595.4,1034.8 655.4,1094.9 715.5,1034.8 745.5,1034.8 745.5,1002.4 			"/>
		</g>
		<g>
			<rect x="262.7" y="1059.7" class="st10" width="527.3" height="85.5"/>
		</g>
	</g>
	<path class="st11" d="M433.1,1118.2H310.5c-0.9,0-1.7-0.8-1.7-1.7v-28.1c0-0.9,0.8-1.7,1.7-1.7h122.6c0.9,0,1.7,0.8,1.7,1.7v28.1
		C434.8,1117.4,434.1,1118.2,433.1,1118.2z"/>
	<path class="st11" d="M699,1113.7H598.4c-0.8,0-1.5-0.7-1.5-1.5v-24.1c0-0.8,0.7-1.5,1.5-1.5H699c0.8,0,1.5,0.7,1.5,1.5v24.1
		C700.5,1113,699.8,1113.7,699,1113.7z"/>
</g>
</svg>
