<?xml version="1.0" encoding="utf-8"?>
<!-- Generator: Adobe Illustrator 25.4.1, SVG Export Plug-In . SVG Version: 6.00 Build 0)  -->
<svg version="1.1" id="Layer_1" xmlns="http://www.w3.org/2000/svg" xmlns:xlink="http://www.w3.org/1999/xlink" x="0px" y="0px"
	 viewBox="0 0 1080 1080" style="enable-background:new 0 0 1080 1080;" xml:space="preserve">
<style type="text/css">
	.st0{fill:#5E1513;}
	.st1{fill:#18080B;}
	.st2{fill:#040000;}
	.st3{fill:#073341;}
	.st4{fill:#380A04;}
	.st5{fill:#82231F;}
	.st6{fill:#4C150D;}
	.st7{fill:#FFFFFF;}
	.st8{fill:#CADAE3;}
	.st9{fill:#F4C344;}
	.st10{fill:#EE982D;}
	.st11{fill:#F8F5C5;}
	.st12{fill:#C5207A;}
	.st13{fill:#AE1A5E;}
	.st14{fill:#E87227;}
</style>
<g>
	<g>
		<g>
			<g>
				<g>
					<circle class="st0" cx="779.1" cy="489.8" r="64.7"/>
				</g>
				<g>
					<circle class="st1" cx="779.1" cy="489.8" r="27.7"/>
				</g>
			</g>
			<g>
				<g>
					<circle class="st0" cx="284.9" cy="489.8" r="64.7"/>
				</g>
				<g>
					<circle class="st1" cx="284.9" cy="489.8" r="27.7"/>
				</g>
			</g>
		</g>
		<path class="st2" d="M779.9,512.9H284c-5.2,0-9.4-4.2-9.4-9.4v-519h514.8v519C789.4,508.7,785.2,512.9,779.9,512.9z"/>
		<path class="st3" d="M378.8,158h-35.2c-1.2,0-2.1-1-2.1-2.1V-15.6h39.5v171.4C380.9,157,380,158,378.8,158z"/>
		<path class="st3" d="M499.3,92.2L499.3,92.2c-9.7,0-17.5-7.9-17.5-17.5v-92.1c0-9.7,7.9,54.5,17.5,54.5h0
			c9.7,0,17.5-64.2,17.5-54.5v92.1C516.9,84.4,509,92.2,499.3,92.2z"/>
		<path class="st3" d="M716.2,158h-39.1c-1.3,0-2.4-1.1-2.4-2.4V-15.6h43.9v171.2C718.6,156.9,717.6,158,716.2,158z"/>
		<rect x="355.5" y="600" class="st0" width="353" height="474.9"/>
		<g>
			<path class="st4" d="M355.5,579v274.6c39.3,55.1,103.7,91.1,176.5,91.1h0c72.8,0,137.2-36,176.5-91.1V579H355.5z"/>
		</g>
		<g>
			<path class="st5" d="M540.4,887L540.4,887c-136.2,0-246.6-110.4-246.6-246.6V327.5c0-78.7,63.8-142.6,142.6-142.6h191.2
				c78.7,0,142.6,63.8,142.6,142.6v329.8C770.1,784.2,667.3,887,540.4,887z"/>
		</g>
		<g>
			<path class="st0" d="M649.9,184.9H414c-66.4,0-120.2,53.8-120.2,120.2v41.6c0-66.4,53.8-120.2,120.2-120.2h235.9
				c66.4,0,120.2,53.8,120.2,120.2v-41.6C770.1,238.7,716.3,184.9,649.9,184.9z"/>
		</g>
		<g>
			<path class="st0" d="M532,785.4L532,785.4c-131.5,0-238.2-106.6-238.2-238.2v101.6C293.8,780.4,400.4,887,532,887l0,0
				c131.5,0,238.2-106.6,238.2-238.2V547.2C770.1,678.8,663.5,785.4,532,785.4z"/>
		</g>
		<g>
			<g>
				<circle class="st6" cx="488.1" cy="554.9" r="18.5"/>
			</g>
			<g>
				<circle class="st6" cx="575.9" cy="554.9" r="18.5"/>
			</g>
		</g>
		<g>
			<path class="st6" d="M532,735.8c78.9,0,142.8-63.9,142.8-142.8H389.2C389.2,671.9,453.1,735.8,532,735.8z"/>
			<g>
				<path class="st1" d="M617.2,685.6H446.8c-2,0-3.5-1.6-3.5-3.5v-58.5c0-2,1.6-3.5,3.5-3.5h170.4c2,0,3.5,1.6,3.5,3.5v58.5
					C620.7,684,619.1,685.6,617.2,685.6z"/>
			</g>
			<g>
				<path class="st7" d="M648,635.5H416c-2,0-3.6-1.6-3.6-3.6V593h239.3v38.8C651.6,633.8,650,635.5,648,635.5z"/>
				<rect x="412.3" y="593" class="st8" width="239.3" height="15.4"/>
				<rect x="572.5" y="593" class="st9" width="42.5" height="42.5"/>
				<rect x="572.5" y="593" class="st10" width="42.5" height="15.4"/>
			</g>
			<path class="st7" d="M532,735.8c39.7,0,75.7-16.2,101.6-42.5H430.4C456.3,719.6,492.2,735.8,532,735.8z"/>
			<path class="st8" d="M603.6,716.5H460.3c21.1,12.2,45.5,19.3,71.7,19.3C558.1,735.8,582.6,728.8,603.6,716.5z"/>
			<rect x="477" y="693.3" class="st9" width="38.6" height="23.2"/>
			<path class="st10" d="M477,724.8c2.6,1.1,5.2,2.1,7.8,3c0.4,0.2,0.9,0.3,1.3,0.4c2.4,0.8,4.8,1.6,7.3,2.3
				c0.4,0.1,0.8,0.2,1.3,0.4c2.9,0.8,5.8,1.5,8.7,2.1c0,0,0,0,0,0c2.8,0.6,5.6,1,8.4,1.4c0.8,0.1,1.6,0.2,2.4,0.3
				c0.5,0.1,0.9,0.1,1.4,0.1v-18.3H477V724.8z"/>
		</g>
		<g>
			<g>
				<circle class="st9" cx="795.3" cy="556.8" r="16.2"/>
				<circle class="st11" cx="799.9" cy="556.8" r="6.9"/>
			</g>
			<g>
				<circle class="st9" cx="268.7" cy="556.8" r="16.2"/>
				<circle class="st11" cx="264.1" cy="556.8" r="6.9"/>
			</g>
		</g>
		<path class="st12" d="M769.9,1144.8H294.1V969.2c0-5.1,4.1-9.2,9.2-9.2h457.3c5.1,0,9.2,4.1,9.2,9.2V1144.8z"/>
		<g>
			<path class="st13" d="M348,1121.7h-24.7c-0.8,0-1.5-0.7-1.5-1.5V993.8c0-0.8,0.7-1.5,1.5-1.5H348c0.8,0,1.5,0.7,1.5,1.5v126.3
				C349.5,1121,348.8,1121.7,348,1121.7z"/>
			<path class="st13" d="M684.6,1121.7h-24.7c-0.8,0-1.5-0.7-1.5-1.5V993.8c0-0.8,0.7-1.5,1.5-1.5h24.7c0.8,0,1.5,0.7,1.5,1.5v126.3
				C686.1,1121,685.4,1121.7,684.6,1121.7z"/>
			<path class="st13" d="M628.5,1121.7h-24.7c-0.8,0-1.5-0.7-1.5-1.5V993.8c0-0.8,0.7-1.5,1.5-1.5h24.7c0.8,0,1.5,0.7,1.5,1.5v126.3
				C630,1121,629.3,1121.7,628.5,1121.7z"/>
			<path class="st13" d="M572.4,1121.7h-24.7c-0.8,0-1.5-0.7-1.5-1.5V993.8c0-0.8,0.7-1.5,1.5-1.5h24.7c0.8,0,1.5,0.7,1.5,1.5v126.3
				C573.9,1121,573.2,1121.7,572.4,1121.7z"/>
			<path class="st13" d="M516.3,1121.7h-24.7c-0.8,0-1.5-0.7-1.5-1.5V993.8c0-0.8,0.7-1.5,1.5-1.5h24.7c0.8,0,1.5,0.7,1.5,1.5v126.3
				C517.8,1121,517.1,1121.7,516.3,1121.7z"/>
			<path class="st13" d="M460.2,1121.7h-24.7c-0.8,0-1.5-0.7-1.5-1.5V993.8c0-0.8,0.7-1.5,1.5-1.5h24.7c0.8,0,1.5,0.7,1.5,1.5v126.3
				C461.7,1121,461,1121.7,460.2,1121.7z"/>
			<path class="st13" d="M404.1,1121.7h-24.7c-0.8,0-1.5-0.7-1.5-1.5V993.8c0-0.8,0.7-1.5,1.5-1.5h24.7c0.8,0,1.5,0.7,1.5,1.5v126.3
				C405.6,1121,404.9,1121.7,404.1,1121.7z"/>
			<path class="st13" d="M740.6,1121.7h-24.7c-0.8,0-1.5-0.7-1.5-1.5V993.8c0-0.8,0.7-1.5,1.5-1.5h24.7c0.8,0,1.5,0.7,1.5,1.5v126.3
				C742.1,1121,741.5,1121.7,740.6,1121.7z"/>
		</g>
		<g>
			<g>
				
					<ellipse transform="matrix(0.982 -0.1891 0.1891 0.982 -73.1466 129.2095)" class="st0" cx="640.5" cy="447.9" rx="91.2" ry="91.2"/>
			</g>
			<g>
				<circle class="st0" cx="423.4" cy="447.9" r="91.2"/>
			</g>
		</g>
		<g>
			<g>
				<g>
					<g>
						<g>
							<path class="st10" d="M556.7,417.3h-54.4v18.5h54.4c0.6,0,1-0.4,1-1v-16.5C557.7,417.8,557.3,417.3,556.7,417.3z"/>
							<rect x="502.3" y="417.3" class="st14" width="18.9" height="18.5"/>
						</g>
						<g>
							<path class="st10" d="M780.4,417.3H726v18.5h54.4c0.6,0,1-0.4,1-1v-16.5C781.4,417.8,781,417.3,780.4,417.3z"/>
							<rect x="726" y="417.3" class="st14" width="18.9" height="18.5"/>
						</g>
						<g>
							<path class="st10" d="M283.5,435.8H338v-18.5h-54.4c-0.6,0-1,0.4-1,1v16.5C282.5,435.4,283,435.8,283.5,435.8z"/>
							<rect x="319.1" y="417.3" class="st14" width="18.9" height="18.5"/>
						</g>
						<rect x="542.7" y="417.3" class="st14" width="18.9" height="18.5"/>
					</g>
					<g>
						<g>
							<g>
								<circle class="st9" cx="640.5" cy="426" r="91.2"/>
								<circle class="st10" cx="640.5" cy="426" r="74.5"/>
								<path class="st11" d="M640.5,351.5c-41.1,0-74.5,33.3-74.5,74.5c0,18.7,6.9,35.9,18.4,49l105.1-105.1
									C676.4,358.5,659.3,351.5,640.5,351.5z"/>
								<path class="st11" d="M698.4,379.1L593.7,483.9c10.3,8.4,22.9,14,36.8,15.9l83.9-83.9C712.4,402.1,706.8,389.5,698.4,379.1z
									"/>
							</g>
						</g>
						<g>
							<g>
								<circle class="st9" cx="423.4" cy="426" r="91.2"/>
								<circle class="st10" cx="423.4" cy="426" r="74.5"/>
								<path class="st11" d="M423.4,351.5c-41.1,0-74.5,33.3-74.5,74.5c0,18.7,6.9,35.9,18.4,49l105.1-105.1
									C459.3,358.5,442.2,351.5,423.4,351.5z"/>
								<path class="st11" d="M481.3,379.1L376.6,483.9c10.3,8.4,22.9,14,36.8,15.9l83.9-83.9C495.3,402.1,489.7,389.5,481.3,379.1z
									"/>
							</g>
						</g>
					</g>
				</g>
			</g>
		</g>
	</g>
</g>
</svg>
