<?xml version="1.0" encoding="utf-8"?>
<!-- Generator: Adobe Illustrator 25.4.1, SVG Export Plug-In . SVG Version: 6.00 Build 0)  -->
<svg version="1.1" id="Layer_1" xmlns="http://www.w3.org/2000/svg" xmlns:xlink="http://www.w3.org/1999/xlink" x="0px" y="0px"
	 viewBox="0 0 1080 1080" style="enable-background:new 0 0 1080 1080;" xml:space="preserve">
<style type="text/css">
	.st0{fill:#E48D7A;}
	.st1{fill:#DE7472;}
	.st2{fill:#002438;}
	.st3{fill:#040000;}
	.st4{fill:#D84946;}
	.st5{fill:#F0BB98;}
	.st6{fill:#7D1934;}
	.st7{fill:#4B0614;}
	.st8{fill:#FFFFFF;}
	.st9{fill:#CADAE3;}
	.st10{fill:#DC2E5C;}
	.st11{fill:#E1627D;}
	.st12{opacity:0.35;fill:#FFFFFF;}
	.st13{opacity:0.45;}
	.st14{fill:#344D59;}
	.st15{fill:#EEB195;}
	.st16{fill:#33A94E;}
</style>
<rect x="345.1" y="765.6" class="st0" width="384.1" height="357"/>
<path class="st1" d="M696.2,850.8c-44.2,31.2-99.2,49.7-158.9,49.7c-59.7,0-114.7-18.5-158.9-49.7h-33.1v146.3
	c48.1,47.7,116.3,77.5,192.1,77.5c75.7,0,144-29.8,192.1-77.5V850.8H696.2z"/>
<path class="st2" d="M1064.6,314.5c-1.8-29.9-28-52.4-57.9-52.4h-74.4c-22.3,0-41.5-15.3-47.2-36.9c-0.1-0.3-0.1-0.5-0.2-0.8
	c-5.8-21.6,3-44.5,22.4-55.7l64.4-37.2c25.9-15,37.3-47.6,24-74.4c-14.5-29-50.2-39.5-77.9-23.5l-66.4,38.4
	c-19.4,11.2-43.6,7.5-59.4-8.4c-0.2-0.2-0.4-0.4-0.5-0.5c-15.8-15.8-19.5-40-8.4-59.4l37.3-64.5c15-25.9,8.5-59.9-16.4-76.4
	c-27.1-17.9-63.2-9.1-79.2,18.6l-38.3,66.3c-11.2,19.4-34.1,28.3-55.7,22.4c-0.2-0.1-0.5-0.1-0.7-0.2c-21.6-5.8-36.9-24.9-36.9-47.2
	v-74.4c0-29.9-22.6-56.1-52.4-57.9c-32.4-1.9-59.3,23.8-59.3,55.8v76.6c0,22.3-15.3,41.5-36.9,47.2c-0.2,0.1-0.5,0.1-0.7,0.2
	c-21.6,5.8-44.5-3-55.7-22.4l-37.2-64.4c-15-25.9-47.6-37.3-74.4-24C247.4-126,237-90.3,253-62.6l38.3,66.4
	c11.2,19.4,7.5,43.6-8.4,59.4c-0.2,0.2-0.4,0.4-0.5,0.5c-15.8,15.8-40,19.5-59.4,8.4l-64.5-37.3c-25.9-15-59.9-8.5-76.4,16.4
	c-17.9,27.1-9.1,63.2,18.6,79.2l66.3,38.3c19.4,11.2,28.3,34.1,22.4,55.7c-0.1,0.3-0.1,0.5-0.2,0.8c-5.8,21.6-24.9,36.9-47.2,36.9
	H67.7c-29.9,0-56.1,22.6-57.9,52.4c-1.9,32.4,23.8,59.3,55.8,59.3h76.6c22.3,0,41.5,15.3,47.2,36.9c0.1,0.3,0.1,0.5,0.2,0.8
	c5.8,21.6-3,44.5-22.4,55.7l-64.4,37.2c-25.9,15-37.3,47.6-24,74.4c14.5,29,50.2,39.5,77.9,23.5l66.4-38.4
	c19.4-11.2,43.6-7.5,59.4,8.4c0.2,0.2,0.4,0.4,0.5,0.5c9.1,9.1,14.1,20.9,14.7,33h479c0.6-12.1,5.6-23.9,14.7-33
	c0.2-0.2,0.4-0.4,0.5-0.5c15.8-15.8,40-19.5,59.4-8.4l64.5,37.3c25.9,15,59.9,8.5,76.4-16.4c17.9-27.1,9.1-63.2-18.6-79.2
	l-66.3-38.3c-19.4-11.2-28.3-34.1-22.4-55.7c0.1-0.3,0.1-0.5,0.2-0.8c5.8-21.6,24.9-36.9,47.2-36.9h76.6
	C1040.9,373.8,1066.6,346.9,1064.6,314.5z"/>
<path class="st3" d="M1064.6,314.5c-1.8-29.9-28-52.4-57.9-52.4h-37.8c-90.8,142.5-250.2,237-431.7,237s-340.9-94.5-431.7-237H67.7
	c-29.9,0-56.1,22.6-57.9,52.4c-1.9,32.4,23.8,59.3,55.8,59.3h76.6c22.3,0,41.5,15.3,47.2,36.9c0.1,0.3,0.1,0.5,0.2,0.8
	c5.8,21.6-3,44.5-22.4,55.7l-64.4,37.2c-25.9,15-37.3,47.6-24,74.4c14.5,29,50.2,39.5,77.9,23.5l66.4-38.4
	c19.4-11.2,43.6-7.5,59.4,8.4c0.2,0.2,0.4,0.4,0.5,0.5c9.1,9.1,14.1,20.9,14.7,33h479c0.6-12.1,5.6-23.9,14.7-33
	c0.2-0.2,0.4-0.4,0.5-0.5c15.8-15.8,40-19.5,59.4-8.4l64.5,37.3c25.9,15,59.9,8.5,76.4-16.4c17.9-27.1,9.1-63.2-18.6-79.2
	l-66.3-38.3c-19.4-11.2-28.3-34.1-22.4-55.7c0.1-0.3,0.1-0.5,0.2-0.8c5.8-21.6,24.9-36.9,47.2-36.9h76.6
	C1040.9,373.8,1066.6,346.9,1064.6,314.5z"/>
<g>
	<g>
		<g>
			<circle class="st0" cx="806.3" cy="459.2" r="61.3"/>
		</g>
		<g>
			<circle class="st4" cx="806.3" cy="459.2" r="21.9"/>
		</g>
	</g>
	<g>
		<g>
			<circle class="st0" cx="268.1" cy="459.2" r="61.3"/>
		</g>
		<g>
			<circle class="st4" cx="268.1" cy="459.2" r="21.9"/>
		</g>
	</g>
</g>
<g>
	<path class="st5" d="M652.4,893.5H422c-82.1,0-148.6-66.5-148.6-148.6V226.8c0-82.1,66.5-148.6,148.6-148.6h230.4
		c82.1,0,148.6,66.5,148.6,148.6v518.1C801,826.9,734.5,893.5,652.4,893.5z"/>
</g>
<path class="st0" d="M817,387.2h-42.4c-12.2-46.5-54.4-81-104.7-81c-33.3,0-63.1,15.1-83,38.9c-14.9-7.8-31.8-12.2-49.7-12.2
	c-17.9,0-34.8,4.5-49.7,12.2c-19.9-23.7-49.7-38.9-83-38.9c-50.3,0-92.5,34.5-104.7,81h-42.4v26.6h38.8c0,0.2,0,0.4,0,0.7
	c0,59.7,48.6,108.3,108.3,108.3c59.7,0,108.3-48.6,108.3-108.3c0-20.6-5.9-39.8-15.9-56.2c12.2-6,25.9-9.4,40.4-9.4
	c14.5,0,28.2,3.4,40.4,9.4c-10,16.4-15.9,35.6-15.9,56.2c0,59.7,48.6,108.3,108.3,108.3c59.7,0,108.3-48.6,108.3-108.3
	c0-0.2,0-0.4,0-0.7H817V387.2z M404.5,506.9c-50.9,0-92.3-41.4-92.3-92.3s41.4-92.3,92.3-92.3c32,0,60.2,16.4,76.8,41.2v2.5h1.5
	c8.8,14.1,14,30.8,14,48.6C496.8,465.4,455.4,506.9,404.5,506.9z M670,506.9c-50.9,0-92.3-41.4-92.3-92.3c0-17.9,5.2-34.5,14-48.6
	h1.5v-2.5c16.6-24.8,44.8-41.2,76.8-41.2c50.9,0,92.3,41.4,92.3,92.3S720.8,506.9,670,506.9z"/>
<g>
	<path class="st2" d="M273.4,461.8v279.8c0,145.7,118.1,263.8,263.8,263.8S801,887.3,801,741.6V461.8H273.4z"/>
</g>
<path class="st3" d="M591.8,536.4H482.6c-3.7,0-6.7-3-6.7-6.7v-67.9h122.6v67.9C598.5,533.4,595.5,536.4,591.8,536.4z"/>
<g>
	<path class="st3" d="M537.2,818.9L537.2,818.9c-145.7,0-263.8-118.1-263.8-263.8v186.5c0,145.7,118.1,263.8,263.8,263.8l0,0
		c145.7,0,263.8-118.1,263.8-263.8V555.1C801,700.8,682.9,818.9,537.2,818.9z"/>
</g>
<g>
	<path class="st3" d="M423.4,435.9h-38c-1.3,0-2.3-1-2.3-2.3v-69.9c0-1.3,1-2.3,2.3-2.3l38,0c1.3,0,2.3,1,2.3,2.3v69.9
		C425.8,434.8,424.7,435.9,423.4,435.9z"/>
	<path class="st3" d="M688.9,435.9h-38c-1.3,0-2.3-1-2.3-2.3v-69.9c0-1.3,1-2.3,2.3-2.3h38c1.3,0,2.3,1,2.3,2.3v69.9
		C691.3,434.8,690.2,435.9,688.9,435.9z"/>
</g>
<g>
	<path class="st6" d="M380.8,578.2c0,0.6,0,1.3,0,1.9c0,86.4,70,156.4,156.4,156.4s156.4-70,156.4-156.4c0-0.6,0-1.3,0-1.9H380.8z"
		/>
	<path class="st7" d="M643.6,680.1H430.8c-2.2,0-4-1.8-4-4v-65.6c0-2.2,1.8-4,4-4h212.8c2.2,0,4,1.8,4,4l0,65.6
		C647.7,678.3,645.9,680.1,643.6,680.1z"/>
	<g>
		<path class="st8" d="M666.2,629.2h-258c-2.3,0-4.1-1.8-4.1-4.1v-46.9h266.2v46.9C670.3,627.3,668.5,629.2,666.2,629.2z"/>
		<rect x="404.1" y="578.2" class="st9" width="266.2" height="22.7"/>
	</g>
	<path class="st10" d="M676.2,651.8H525.8c-30.7,0-55.6,24.9-55.6,55.6v14c20.3,9.7,43,15.1,67,15.1
		C597.7,736.5,650.2,702.1,676.2,651.8z"/>
	<path class="st11" d="M610.9,685.8H510.8c-0.5,0-0.9-0.4-0.9-0.9v-15.1c0-0.5,0.4-0.9,0.9-0.9h100.1c0.5,0,0.9,0.4,0.9,0.9v15.1
		C611.8,685.4,611.4,685.8,610.9,685.8z"/>
</g>
<path class="st5" d="M591.8,493.8H482.6c-3.7,0-6.7-3-6.7-6.7v-78.6h122.6v78.6C598.5,490.8,595.5,493.8,591.8,493.8z"/>
<path class="st0" d="M537.2,461.8L537.2,461.8c-31.1,0-56.8-23.2-60.7-53.3h-0.6v24c0,33.8,27.4,61.3,61.3,61.3l0,0
	c33.8,0,61.3-27.4,61.3-61.3v-24h-0.6C594,438.6,568.3,461.8,537.2,461.8z"/>
<g>
	<g>
		<circle class="st12" cx="669.9" cy="398.6" r="100.3"/>
		<g class="st13">
			<path class="st8" d="M669.9,298.3c-55.4,0-100.3,44.9-100.3,100.3c0,23.6,8.2,45.2,21.8,62.3L732.3,320
				C715.2,306.4,693.5,298.3,669.9,298.3z"/>
			<path class="st8" d="M770.2,398.6c0-4.2-0.3-8.3-0.8-12.3L657.7,498.1c4,0.5,8.1,0.8,12.3,0.8C725.3,498.9,770.2,454,770.2,398.6
				z"/>
		</g>
	</g>
	<g>
		<circle class="st12" cx="404.5" cy="398.6" r="100.3"/>
		<g class="st13">
			<path class="st8" d="M404.5,298.3c-55.4,0-100.3,44.9-100.3,100.3c0,23.6,8.2,45.2,21.8,62.3L466.8,320
				C449.7,306.4,428,298.3,404.5,298.3z"/>
			<path class="st8" d="M504.8,398.6c0-4.2-0.3-8.3-0.8-12.3L392.2,498.1c4,0.5,8.1,0.8,12.3,0.8C459.9,498.9,504.8,454,504.8,398.6
				z"/>
		</g>
	</g>
</g>
<g>
	<g>
		<path class="st8" d="M670,506.9c-59.7,0-108.3-48.6-108.3-108.3S610.2,290.3,670,290.3c59.7,0,108.3,48.6,108.3,108.3
			S729.7,506.9,670,506.9z M670,306.3c-50.9,0-92.3,41.4-92.3,92.3s41.4,92.3,92.3,92.3c50.9,0,92.3-41.4,92.3-92.3
			S720.8,306.3,670,306.3z"/>
		<path class="st8" d="M404.5,506.9c-59.7,0-108.3-48.6-108.3-108.3s48.6-108.3,108.3-108.3c59.7,0,108.3,48.6,108.3,108.3
			S464.2,506.9,404.5,506.9z M404.5,306.3c-50.9,0-92.3,41.4-92.3,92.3s41.4,92.3,92.3,92.3c50.9,0,92.3-41.4,92.3-92.3
			S455.4,306.3,404.5,306.3z"/>
	</g>
	<g>
		<rect x="257.4" y="371.3" class="st8" width="48" height="26.6"/>
		<rect x="769" y="371.3" class="st8" width="48" height="26.6"/>
	</g>
	<path class="st8" d="M484.8,348.9h2.5c14.1-10,31.3-16,49.9-16c18.6,0,35.8,5.9,49.9,16h2.5v-16.2c-15.3-9.3-33.2-14.8-52.4-14.8
		c-19.2,0-37.1,5.5-52.4,14.8V348.9z"/>
</g>
<g>
	<g>
		<path class="st0" d="M464.4,280.7H343.6c-1.4,0-2.6-1.2-2.6-2.6v-42.7c0-1.4,1.2-2.6,2.6-2.6h120.9c1.4,0,2.6,1.2,2.6,2.6l0,42.7
			C467,279.5,465.9,280.7,464.4,280.7z"/>
		<path class="st2" d="M464.4,243.4H343.6c-1.4,0-2.6-1.2-2.6-2.6V198c0-1.4,1.2-2.6,2.6-2.6h120.9c1.4,0,2.6,1.2,2.6,2.6v42.7
			C467,242.2,465.9,243.4,464.4,243.4z"/>
		<path class="st3" d="M443.1,222h-78.2c-9.4,0-17.4-5.5-21.4-13.3c-1.6,3.2-2.6,6.8-2.6,10.7v0c0,13.2,10.7,24,24,24h78.2
			c13.2,0,24-10.7,24-24v0c0-3.8-1-7.4-2.6-10.7C460.5,216.6,452.5,222,443.1,222z"/>
		<path class="st14" d="M432.4,216.7h-56.9c-0.5,0-0.9-0.4-0.9-0.9v-14.2c0-0.5,0.4-0.9,0.9-0.9h56.9c0.5,0,0.9,0.4,0.9,0.9v14.2
			C433.3,216.3,432.9,216.7,432.4,216.7z"/>
	</g>
	<g>
		<path class="st0" d="M730.9,280.7H610c-1.4,0-2.6-1.2-2.6-2.6v-42.7c0-1.4,1.2-2.6,2.6-2.6h120.9c1.4,0,2.6,1.2,2.6,2.6V278
			C733.5,279.5,732.3,280.7,730.9,280.7z"/>
		<path class="st2" d="M730.9,243.4H610c-1.4,0-2.6-1.2-2.6-2.6V198c0-1.4,1.2-2.6,2.6-2.6h120.9c1.4,0,2.6,1.2,2.6,2.6v42.7
			C733.5,242.2,732.3,243.4,730.9,243.4z"/>
		<path class="st3" d="M709.5,222h-78.2c-9.4,0-17.4-5.5-21.4-13.3c-1.6,3.2-2.6,6.8-2.6,10.7v0c0,13.2,10.7,24,24,24h78.2
			c13.2,0,24-10.7,24-24v0c0-3.8-1-7.4-2.6-10.7C726.9,216.6,718.9,222,709.5,222z"/>
		<path class="st14" d="M698.9,216.7H642c-0.5,0-0.9-0.4-0.9-0.9v-14.2c0-0.5,0.4-0.9,0.9-0.9h56.9c0.5,0,0.9,0.4,0.9,0.9v14.2
			C699.7,216.3,699.3,216.7,698.9,216.7z"/>
	</g>
</g>
<path class="st15" d="M648.5,168.8H425.9c-0.3,0-0.6-0.3-0.6-0.6v-9.5c0-0.3,0.3-0.6,0.6-0.6h222.6c0.3,0,0.6,0.3,0.6,0.6l0,9.5
	C649.1,168.5,648.8,168.8,648.5,168.8z"/>
<path class="st15" d="M600.6,136.8H473.8c-0.3,0-0.6-0.3-0.6-0.6v-9.5c0-0.3,0.3-0.6,0.6-0.6h126.7c0.3,0,0.6,0.3,0.6,0.6v9.5
	C601.2,136.5,600.9,136.8,600.6,136.8z"/>
<path class="st14" d="M562.2,46.2h-28.5c-1,0-1.8-0.8-1.8-1.8v-199c0-1,0.8-1.8,1.8-1.8h28.5c1,0,1.8,0.8,1.8,1.8v199
	C563.9,45.4,563.2,46.2,562.2,46.2z"/>
<path class="st14" d="M248.4,116.1L228,148.1c-0.7,1.1-2.1,1.4-3.2,0.7l-90.6-57.4c-1.1-0.7-1.4-2.1-0.7-3.2l20.3-32.1
	c0.7-1.1,2.1-1.4,3.2-0.7l90.6,57.4C248.7,113.5,249,115,248.4,116.1z"/>
<path class="st14" d="M886.6,114.5l-14.2-24.7c-0.5-0.8-0.2-1.9,0.6-2.4l80-46.2c0.8-0.5,1.9-0.2,2.4,0.6l14.2,24.7
	c0.5,0.8,0.2,1.9-0.6,2.4l-80,46.2C888.1,115.6,887,115.3,886.6,114.5z"/>
<path class="st14" d="M760.2,643H746c-0.5,0-0.9-0.4-0.9-0.9V548c0-0.5,0.4-0.9,0.9-0.9h14.2c0.5,0,0.9,0.4,0.9,0.9v94.2
	C761.1,642.6,760.7,643,760.2,643z"/>
<path class="st14" d="M339,637.7h-19c-0.6,0-1.2-0.5-1.2-1.2v-56.3c0-0.6,0.5-1.2,1.2-1.2h19c0.6,0,1.2,0.5,1.2,1.2v56.3
	C340.1,637.2,339.6,637.7,339,637.7z"/>
<rect x="233.5" y="1048" class="st16" width="159.9" height="74.6"/>
<rect x="675.8" y="1048" class="st16" width="159.9" height="74.6"/>
<g>
	<path class="st3" d="M537.2,818.9L537.2,818.9c-145.7,0-263.8-118.1-263.8-263.8v186.5c0,145.7,118.1,263.8,263.8,263.8l0,0
		c145.7,0,263.8-118.1,263.8-263.8V555.1C801,700.8,682.9,818.9,537.2,818.9z"/>
</g>
</svg>
