<?xml version="1.0" encoding="utf-8"?>
<!-- Generator: Adobe Illustrator 25.4.1, SVG Export Plug-In . SVG Version: 6.00 Build 0)  -->
<svg version="1.1" id="Layer_1" xmlns="http://www.w3.org/2000/svg" xmlns:xlink="http://www.w3.org/1999/xlink" x="0px" y="0px"
	 viewBox="0 0 1080 1080" style="enable-background:new 0 0 1080 1080;" xml:space="preserve">
<style type="text/css">
	.st0{fill:#E48D7A;}
	.st1{fill:#DB6666;}
	.st2{fill:#E08075;}
	.st3{fill:#DA5755;}
	.st4{fill:#C52528;}
	.st5{fill:#981E23;}
	.st6{fill:#D74427;}
	.st7{fill:#F1BD9A;}
	.st8{fill:#EEB195;}
	.st9{fill:#040000;}
	.st10{fill:#E5653B;}
	.st11{fill:#E58E7B;}
	.st12{fill:#002438;}
	.st13{opacity:0.25;fill:#FFFFFF;}
	.st14{opacity:0.55;}
	.st15{fill:#FFFFFF;}
	.st16{fill:#344D59;}
	.st17{fill:#7D1934;}
	.st18{fill:#4B0614;}
	.st19{fill:#CADAE3;}
	.st20{fill:#DC2E5C;}
	.st21{fill:#E1627D;}
	.st22{fill:#EC9476;}
	.st23{fill:#2D5592;}
	.st24{fill:#1479AB;}
</style>
<g>
	<g>
		<rect x="410" y="786" class="st0" width="266.3" height="326.5"/>
		<path class="st1" d="M410,786v201.8c37.5,27.1,83.4,43.1,133.2,43.1h0c49.7,0,95.7-16,133.2-43.1V786H410z"/>
	</g>
	<g>
		<g>
			<g>
				<circle class="st0" cx="302.6" cy="618.5" r="60.1"/>
				<path class="st2" d="M310.3,655.4c-33.2,0-60.1-26.9-60.1-60.1c0-2.3,0.2-4.6,0.4-6.9c-5.2,8.9-8.2,19.2-8.2,30.2
					c0,33.2,26.9,60.1,60.1,60.1c30.9,0,56.3-23.3,59.7-53.2C351.9,643.3,332.5,655.4,310.3,655.4z"/>
				<circle class="st3" cx="302.6" cy="618.5" r="21.3"/>
			</g>
			<g>
				<circle class="st0" cx="783.7" cy="618.5" r="60.1"/>
				<path class="st2" d="M775.9,655.4c33.2,0,60.1-26.9,60.1-60.1c0-2.3-0.2-4.6-0.4-6.9c5.2,8.9,8.2,19.2,8.2,30.2
					c0,33.2-26.9,60.1-60.1,60.1c-30.9,0-56.3-23.3-59.7-53.2C734.4,643.3,753.7,655.4,775.9,655.4z"/>
				<circle class="st3" cx="783.7" cy="618.5" r="21.3"/>
			</g>
		</g>
		<g>
			<g>
				<path class="st4" d="M431.4,588.4h349.9c3.7,0,6.7-3,6.7-6.7V219H431.4V588.4z"/>
				<path class="st5" d="M682.6,304.9c49.7,0,90.7-37.6,96-85.9H431.4v369.4h137.3V304.9H682.6z"/>
			</g>
			<path class="st6" d="M521.7,296.3h113.8c53.4,0,96.7-43.3,96.7-96.7v-83.8H495.9c-109.1,0-197.6,88.5-197.6,197.6v238.4
				c0,20.2,16.3,36.5,36.5,36.5h186.9V296.3z"/>
		</g>
		<path class="st7" d="M543.1,975L543.1,975c-125.7,0-227.7-101.9-227.7-227.7V513.3c0-119.8,97.1-217,217-217h21.4
			c119.8,0,217,97.1,217,217v234.1C770.8,873.1,668.9,975,543.1,975z"/>
		<path class="st8" d="M543.1,859.1L543.1,859.1c-125.7,0-227.7-101.9-227.7-227.7v116c0,125.7,101.9,227.7,227.7,227.7h0
			c125.7,0,227.7-101.9,227.7-227.7v-116C770.8,757.1,668.9,859.1,543.1,859.1z"/>
		<g>
			<path class="st9" d="M449.2,584.1h-26.8c-0.9,0-1.6-0.7-1.6-1.6v-56.9c0-0.9,0.7-1.6,1.6-1.6h26.8c0.9,0,1.6,0.7,1.6,1.6v56.9
				C450.8,583.4,450,584.1,449.2,584.1z"/>
			<path class="st9" d="M663.9,584.1h-26.8c-0.9,0-1.6-0.7-1.6-1.6v-56.9c0-0.9,0.7-1.6,1.6-1.6h26.8c0.9,0,1.6,0.7,1.6,1.6v56.9
				C665.6,583.4,664.8,584.1,663.9,584.1z"/>
		</g>
		<g>
			<path class="st0" d="M497.2,459.6H374.3c-1.7,0-3-1.4-3-3v-49.8c0-1.7,1.4-3,3-3h122.8c1.7,0,3,1.4,3,3v49.8
				C500.2,458.2,498.8,459.6,497.2,459.6z"/>
			<path class="st6" d="M497.2,433.8H374.3c-1.7,0-3-1.4-3-3V381c0-1.7,1.4-3,3-3h122.8c1.7,0,3,1.4,3,3v49.8
				C500.2,432.4,498.8,433.8,497.2,433.8z"/>
			<path class="st4" d="M472.3,412.3h-73c-11.6,0-21.6-7.1-25.8-17.2c-1.4,3.3-2.1,6.9-2.1,10.7c0,15.4,12.5,27.9,27.9,27.9h73
				c15.4,0,27.9-12.5,27.9-27.9c0-3.8-0.8-7.4-2.1-10.7C493.8,405.2,483.9,412.3,472.3,412.3z"/>
			<path class="st10" d="M460.8,399.4h-50.2c-0.4,0-0.7-0.3-0.7-0.7v-11.5c0-0.4,0.3-0.7,0.7-0.7h50.2c0.4,0,0.7,0.3,0.7,0.7v11.5
				C461.5,399.1,461.2,399.4,460.8,399.4z"/>
			<path class="st0" d="M711.9,459.6H589.1c-1.7,0-3-1.4-3-3v-49.8c0-1.7,1.4-3,3-3h122.8c1.7,0,3,1.4,3,3v49.8
				C715,458.2,713.6,459.6,711.9,459.6z"/>
			<path class="st6" d="M711.9,433.8H589.1c-1.7,0-3-1.4-3-3V381c0-1.7,1.4-3,3-3h122.8c1.7,0,3,1.4,3,3v49.8
				C715,432.4,713.6,433.8,711.9,433.8z"/>
			<path class="st4" d="M687,412.3h-73c-11.6,0-21.6-7.1-25.8-17.2c-1.4,3.3-2.1,6.9-2.1,10.7c0,15.4,12.5,27.9,27.9,27.9h73
				c15.4,0,27.9-12.5,27.9-27.9c0-3.8-0.8-7.4-2.1-10.7C708.6,405.2,698.7,412.3,687,412.3z"/>
			<path class="st10" d="M675.6,399.4h-50.2c-0.4,0-0.7-0.3-0.7-0.7v-11.5c0-0.4,0.3-0.7,0.7-0.7h50.2c0.4,0,0.7,0.3,0.7,0.7v11.5
				C676.3,399.1,676,399.4,675.6,399.4z"/>
		</g>
		<g>
			<rect x="528.1" y="562.7" class="st0" width="30.1" height="17.2"/>
			<g>
				<path class="st11" d="M435.7,463.9c-55.8,0-100.9,45.2-100.9,100.9c0,55.8,45.2,100.9,100.9,100.9s100.9-45.2,100.9-100.9
					C536.7,509.1,491.5,463.9,435.7,463.9z M435.7,652.5c-48.4,0-87.7-39.2-87.7-87.7c0-48.4,39.2-87.7,87.7-87.7
					s87.7,39.2,87.7,87.7C523.4,613.2,484.2,652.5,435.7,652.5z"/>
				<path class="st12" d="M435.7,451c-55.8,0-100.9,45.2-100.9,100.9S380,652.9,435.7,652.9s100.9-45.2,100.9-100.9
					S491.5,451,435.7,451z M435.7,639.6c-48.4,0-87.7-39.2-87.7-87.7s39.2-87.7,87.7-87.7s87.7,39.2,87.7,87.7
					S484.2,639.6,435.7,639.6z"/>
				<circle class="st13" cx="435.7" cy="551.9" r="87.7"/>
				<g class="st14">
					<path class="st15" d="M350.8,530.1l106.7,106.7c28.4-7.3,51.2-28.3,60.8-55.6L406.4,469.3C379.1,479,358.1,501.8,350.8,530.1z"
						/>
					<path class="st15" d="M523.4,551.9c0-48.4-39.2-87.7-87.7-87.7c-4.9,0-9.7,0.4-14.4,1.2l100.8,100.8
						C523,561.6,523.4,556.8,523.4,551.9z"/>
				</g>
			</g>
			<g>
				<path class="st11" d="M650.5,463.9c-55.8,0-100.9,45.2-100.9,100.9c0,55.8,45.2,100.9,100.9,100.9
					c55.8,0,100.9-45.2,100.9-100.9C751.5,509.1,706.3,463.9,650.5,463.9z M650.5,652.5c-48.4,0-87.7-39.2-87.7-87.7
					c0-48.4,39.2-87.7,87.7-87.7c48.4,0,87.7,39.2,87.7,87.7C738.2,613.2,698.9,652.5,650.5,652.5z"/>
				<path class="st12" d="M650.5,451c-55.8,0-100.9,45.2-100.9,100.9s45.2,100.9,100.9,100.9c55.8,0,100.9-45.2,100.9-100.9
					S706.3,451,650.5,451z M650.5,639.6c-48.4,0-87.7-39.2-87.7-87.7s39.2-87.7,87.7-87.7c48.4,0,87.7,39.2,87.7,87.7
					S698.9,639.6,650.5,639.6z"/>
				<circle class="st13" cx="650.5" cy="551.9" r="87.7"/>
				<g class="st14">
					<path class="st15" d="M565.6,530.1l106.7,106.7c28.4-7.3,51.2-28.3,60.8-55.6L621.2,469.3C593.9,479,572.8,501.8,565.6,530.1z"
						/>
					<path class="st15" d="M738.2,551.9c0-48.4-39.2-87.7-87.7-87.7c-4.9,0-9.7,0.4-14.4,1.2L737,566.3
						C737.8,561.6,738.2,556.8,738.2,551.9z"/>
				</g>
			</g>
			<g>
				<g>
					<path class="st12" d="M290.6,562.7h50.6v-17.2h-50.6c-0.5,0-0.9,0.4-0.9,0.9v15.3C289.7,562.2,290.1,562.7,290.6,562.7z"/>
					<path class="st16" d="M327.9,558.4h-29.1c-0.3,0-0.5-0.2-0.5-0.5v-7.7c0-0.3,0.2-0.5,0.5-0.5h29.1c0.3,0,0.5,0.2,0.5,0.5v7.7
						C328.3,558.2,328.1,558.4,327.9,558.4z"/>
				</g>
				<g>
					<path class="st12" d="M795.7,545.5H745v17.2h50.6c0.5,0,0.9-0.4,0.9-0.9v-15.3C796.6,545.9,796.2,545.5,795.7,545.5z"/>
					<path class="st16" d="M758.4,549.8h29.1c0.3,0,0.5,0.2,0.5,0.5v7.7c0,0.3-0.2,0.5-0.5,0.5h-29.1c-0.3,0-0.5-0.2-0.5-0.5v-7.7
						C757.9,550,758.1,549.8,758.4,549.8z"/>
				</g>
			</g>
			<rect x="528.1" y="545.5" class="st12" width="30.1" height="17.2"/>
		</g>
		<g>
			<circle class="st3" cx="504.5" cy="693.7" r="15"/>
			<circle class="st3" cx="581.8" cy="693.7" r="15"/>
		</g>
		<g>
			<path class="st10" d="M670.4,193.2H454.6c-0.9,0-1.6-0.7-1.6-1.6v-26.8c0-0.9,0.7-1.6,1.6-1.6h215.8c0.9,0,1.6,0.7,1.6,1.6v26.8
				C672,192.5,671.3,193.2,670.4,193.2z"/>
			<path class="st10" d="M696.2,253.4h-82.7c-0.9,0-1.6-0.7-1.6-1.6v-26.8c0-0.9,0.7-1.6,1.6-1.6h82.7c0.9,0,1.6,0.7,1.6,1.6v26.8
				C697.8,252.6,697.1,253.4,696.2,253.4z"/>
			<path class="st10" d="M390.1,266.3h104.1c0.9,0,1.6-0.7,1.6-1.6v-26.8c0-0.9-0.7-1.6-1.6-1.6H390.1c-0.9,0-1.6,0.7-1.6,1.6v26.8
				C388.5,265.5,389.2,266.3,390.1,266.3z"/>
		</g>
		<g>
			<path class="st17" d="M424.5,738.8c0,0.5,0,0.9,0,1.4c0,65.5,53.1,118.6,118.6,118.6s118.6-53.1,118.6-118.6c0-0.5,0-1,0-1.4
				H424.5z"/>
			<path class="st18" d="M623.9,816.1H462.4c-1.7,0-3-1.4-3-3v-49.8c0-1.7,1.4-3,3-3h161.5c1.7,0,3,1.4,3,3v49.8
				C626.9,814.8,625.6,816.1,623.9,816.1z"/>
			<g>
				<path class="st15" d="M640.6,777.4H445.7c-1.9,0-3.5-1.6-3.5-3.5v-35.1h201.9v35.1C644.1,775.9,642.5,777.4,640.6,777.4z"/>
				<rect x="442.2" y="738.8" class="st19" width="201.9" height="17.2"/>
			</g>
			<path class="st20" d="M648.6,794.6H534.5c-23.3,0-42.2,18.9-42.2,42.2v10.7c15.4,7.3,32.6,11.4,50.8,11.4
				C589,858.9,628.8,832.8,648.6,794.6z"/>
			<path class="st21" d="M599,820.4h-75.9c-0.4,0-0.7-0.3-0.7-0.7v-11.5c0-0.4,0.3-0.7,0.7-0.7H599c0.4,0,0.7,0.3,0.7,0.7v11.5
				C599.7,820.1,599.4,820.4,599,820.4z"/>
		</g>
		<g>
			<g>
				<circle class="st22" cx="375.6" cy="698" r="6.4"/>
				<circle class="st22" cx="410" cy="693.7" r="6.4"/>
				<circle class="st22" cx="360.6" cy="670.1" r="4.3"/>
				<circle class="st22" cx="364.9" cy="747.4" r="8.6"/>
				<circle class="st22" cx="390.6" cy="730.2" r="4.3"/>
				<circle class="st22" cx="450.8" cy="682.9" r="4.3"/>
			</g>
			<g>
				<circle class="st22" cx="710.7" cy="698" r="6.4"/>
				<circle class="st22" cx="676.3" cy="693.7" r="6.4"/>
				<circle class="st22" cx="725.7" cy="670.1" r="4.3"/>
				<circle class="st22" cx="721.4" cy="747.4" r="8.6"/>
				<circle class="st22" cx="695.6" cy="730.2" r="4.3"/>
				<circle class="st22" cx="635.5" cy="682.9" r="4.3"/>
			</g>
		</g>
	</g>
	<rect x="360.6" y="1078.1" class="st23" width="365.1" height="68.7"/>
	<g>
		<path class="st24" d="M384.1,1129.7h-7.7c-0.3,0-0.5-0.2-0.5-0.5v-33.4c0-0.3,0.2-0.5,0.5-0.5h7.7c0.3,0,0.5,0.2,0.5,0.5v33.4
			C384.6,1129.5,384.4,1129.7,384.1,1129.7z"/>
		<path class="st24" d="M670.5,1129.7h-7.7c-0.3,0-0.5-0.2-0.5-0.5v-33.4c0-0.3,0.2-0.5,0.5-0.5h7.7c0.3,0,0.5,0.2,0.5,0.5v33.4
			C671,1129.5,670.8,1129.7,670.5,1129.7z"/>
		<path class="st24" d="M634.7,1129.7H627c-0.3,0-0.5-0.2-0.5-0.5v-33.4c0-0.3,0.2-0.5,0.5-0.5h7.7c0.3,0,0.5,0.2,0.5,0.5v33.4
			C635.2,1129.5,635,1129.7,634.7,1129.7z"/>
		<path class="st24" d="M598.9,1129.7h-7.7c-0.3,0-0.5-0.2-0.5-0.5v-33.4c0-0.3,0.2-0.5,0.5-0.5h7.7c0.3,0,0.5,0.2,0.5,0.5v33.4
			C599.4,1129.5,599.2,1129.7,598.9,1129.7z"/>
		<path class="st24" d="M563.1,1129.7h-7.7c-0.3,0-0.5-0.2-0.5-0.5v-33.4c0-0.3,0.2-0.5,0.5-0.5h7.7c0.3,0,0.5,0.2,0.5,0.5v33.4
			C563.6,1129.5,563.4,1129.7,563.1,1129.7z"/>
		<path class="st24" d="M527.3,1129.7h-7.7c-0.3,0-0.5-0.2-0.5-0.5v-33.4c0-0.3,0.2-0.5,0.5-0.5h7.7c0.3,0,0.5,0.2,0.5,0.5v33.4
			C527.8,1129.5,527.6,1129.7,527.3,1129.7z"/>
		<path class="st24" d="M491.5,1129.7h-7.7c-0.3,0-0.5-0.2-0.5-0.5v-33.4c0-0.3,0.2-0.5,0.5-0.5h7.7c0.3,0,0.5,0.2,0.5,0.5v33.4
			C492,1129.5,491.8,1129.7,491.5,1129.7z"/>
		<path class="st24" d="M455.7,1129.7h-7.7c-0.3,0-0.5-0.2-0.5-0.5v-33.4c0-0.3,0.2-0.5,0.5-0.5h7.7c0.3,0,0.5,0.2,0.5,0.5v33.4
			C456.2,1129.5,456,1129.7,455.7,1129.7z"/>
		<path class="st24" d="M419.9,1129.7h-7.7c-0.3,0-0.5-0.2-0.5-0.5v-33.4c0-0.3,0.2-0.5,0.5-0.5h7.7c0.3,0,0.5,0.2,0.5,0.5v33.4
			C420.4,1129.5,420.2,1129.7,419.9,1129.7z"/>
		<path class="st24" d="M706.3,1129.7h-7.7c-0.3,0-0.5-0.2-0.5-0.5v-33.4c0-0.3,0.2-0.5,0.5-0.5h7.7c0.3,0,0.5,0.2,0.5,0.5v33.4
			C706.8,1129.5,706.6,1129.7,706.3,1129.7z"/>
	</g>
</g>
</svg>
