<svg xmlns="http://www.w3.org/2000/svg" xmlns:xlink="http://www.w3.org/1999/xlink" width="1080" height="1080" viewBox="0 0 1080 1080">
  <defs>
    <clipPath id="clip-path">
      <circle id="椭圆_151" data-name="椭圆 151" cx="540" cy="540" r="540" transform="translate(1 -2.3)"/>
    </clipPath>
    <clipPath id="clip-path-2">
      <circle id="椭圆_157" data-name="椭圆 157" cx="540" cy="540" r="540" transform="translate(-2.3 1.1)"/>
    </clipPath>
  </defs>
  <g id="face_6" transform="translate(2.3 -1.1)">
    <g id="组_430" data-name="组 430" transform="translate(-3.3 3.4)" clip-path="url(#clip-path)">
      <rect id="矩形_306" data-name="矩形 306" width="1084.6" height="1082.3" fill="#fff"/>
    </g>
    <g id="组_450" data-name="组 450" clip-path="url(#clip-path-2)">
      <g id="组_449" data-name="组 449">
        <g id="组_435" data-name="组 435">
          <g id="组_433" data-name="组 433">
            <g id="组_431" data-name="组 431">
              <circle id="椭圆_152" data-name="椭圆 152" cx="46.9" cy="46.9" r="46.9" transform="translate(265.4 581.7)" fill="#f4b497"/>
              <circle id="椭圆_153" data-name="椭圆 153" cx="18.8" cy="18.8" r="18.8" transform="translate(293.5 609.8)" fill="#e9686a"/>
            </g>
            <g id="组_432" data-name="组 432">
              <circle id="椭圆_154" data-name="椭圆 154" cx="46.9" cy="46.9" r="46.9" transform="translate(734.6 581.7)" fill="#f4b497"/>
              <circle id="椭圆_155" data-name="椭圆 155" cx="18.8" cy="18.8" r="18.8" transform="translate(762.7 609.8)" fill="#e9686a"/>
            </g>
          </g>
          <g id="组_434" data-name="组 434">
            <path id="路径_924" data-name="路径 924" d="M312.3,673.2a11.7,11.7,0,1,1-11.7-11.7A11.651,11.651,0,0,1,312.3,673.2Z" fill="#d9dbee"/>
            <path id="路径_925" data-name="路径 925" d="M805,673.2a11.7,11.7,0,1,1-11.7-11.7A11.651,11.651,0,0,1,805,673.2Z" fill="#d9dbee"/>
          </g>
        </g>
        <circle id="椭圆_156" data-name="椭圆 156" cx="316" cy="316" r="316" transform="translate(230.9 108.6)"/>
        <g id="组_439" data-name="组 439">
          <g id="组_436" data-name="组 436">
            <rect id="矩形_307" data-name="矩形 307" width="264.5" height="314.4" transform="translate(417 821)" fill="#ee927e"/>
            <path id="路径_926" data-name="路径 926" d="M417,821V939.8l17.9,17.9a165.072,165.072,0,0,0,233.5,0l13.2-13.2V821Z" fill="#ec7f77"/>
          </g>
          <g id="组_438" data-name="组 438">
            <g id="组_437" data-name="组 437">
              <path id="路径_927" data-name="路径 927" d="M586.2,980.5H692.3V1105H461.7Z" fill="#c5c9e6"/>
              <path id="路径_928" data-name="路径 928" d="M510,980.5H403.8V1105H634.4Z" fill="#d9dbee"/>
            </g>
            <rect id="矩形_308" data-name="矩形 308" width="316.8" height="135.8" transform="translate(389.7 1076.7)" fill="#b7184a"/>
            <path id="路径_929" data-name="路径 929" d="M565,1144.6a17,17,0,1,1-17-17A16.986,16.986,0,0,1,565,1144.6Z" fill="#d9dbee"/>
          </g>
        </g>
        <path id="路径_930" data-name="路径 930" d="M776.2,729.8V465c0-127.1-103-230.2-230.2-230.2h0c-127.1,0-230.2,103-230.2,230.2V728a164.752,164.752,0,0,0,48.4,116.7l65.9,66a165.072,165.072,0,0,0,233.5,0l64.2-64.2A165.1,165.1,0,0,0,776.2,729.8Z" fill="#f6c09c"/>
        <path id="路径_931" data-name="路径 931" d="M776.2,729.8V465c0-127.1-103-230.2-230.2-230.2h0c-98.3,0-182.2,61.7-215.2,148.4a403.3,403.3,0,0,0,227.5,97V585.3c0,116.5,65.5,217.7,161.6,268.9l7.9-7.9A164.289,164.289,0,0,0,776.2,729.8Z" fill="#f4b497"/>
        <path id="路径_932" data-name="路径 932" d="M663.6,835.6a165.072,165.072,0,0,1-233.5,0l-66-66a165.1,165.1,0,0,1-48.4-116.7V728a164.752,164.752,0,0,0,48.4,116.7l66,66a165.072,165.072,0,0,0,233.5,0l64.2-64.2a165,165,0,0,0,48.3-116.7V654.7a165.076,165.076,0,0,1-48.3,116.7Z" fill="#f4b497"/>
        <g id="组_441" data-name="组 441">
          <g id="组_440" data-name="组 440">
            <path id="路径_933" data-name="路径 933" d="M600,773.3v-.2h0a32.209,32.209,0,0,0-53.9-23.5,32.209,32.209,0,0,0-53.9,23.5h0v.3h0a53.9,53.9,0,0,0,107.8,0h0Z" fill="#ee2761"/>
          </g>
          <path id="路径_934" data-name="路径 934" d="M584.7,774.7a7.3,7.3,0,0,1-7.4,7.3H515a7.362,7.362,0,0,1-7.4-7.3h0a7.383,7.383,0,0,1,7.4-7.4h62.3a7.383,7.383,0,0,1,7.4,7.4Z" fill="#b7184a"/>
        </g>
        <g id="组_446" data-name="组 446">
          <g id="组_443" data-name="组 443">
            <g id="组_442" data-name="组 442">
              <path id="路径_935" data-name="路径 935" d="M430.3,646.1h0a20.784,20.784,0,0,1-20.8-20.8V597.5a20.784,20.784,0,0,1,20.8-20.8h0a20.784,20.784,0,0,1,20.8,20.8v27.8A20.784,20.784,0,0,1,430.3,646.1Z"/>
            </g>
            <path id="路径_936" data-name="路径 936" d="M465,555.3H395.6a15.983,15.983,0,0,1-16-16h0a16.047,16.047,0,0,1,16-16H465a15.983,15.983,0,0,1,16,16h0A15.919,15.919,0,0,1,465,555.3Z" fill="#ee927e"/>
            <path id="路径_937" data-name="路径 937" d="M465,533.9H395.6a15.983,15.983,0,0,1-16-16h0a15.983,15.983,0,0,1,16-16H465a15.983,15.983,0,0,1,16,16h0A15.919,15.919,0,0,1,465,533.9Z" fill="#002539"/>
            <path id="路径_938" data-name="路径 938" d="M449,517.9H411.6a5.271,5.271,0,0,1-5.3-5.3h0a5.271,5.271,0,0,1,5.3-5.3H449a5.271,5.271,0,0,1,5.3,5.3h0A5.209,5.209,0,0,1,449,517.9Z" fill="#354e5a"/>
            <path id="路径_939" data-name="路径 939" d="M494.4,667.5H366.2a5.271,5.271,0,0,1-5.3-5.3h0a5.271,5.271,0,0,1,5.3-5.3H494.4a5.271,5.271,0,0,1,5.3,5.3h0A5.209,5.209,0,0,1,494.4,667.5Z" fill="#f4b497"/>
          </g>
          <g id="组_445" data-name="组 445">
            <g id="组_444" data-name="组 444">
              <path id="路径_940" data-name="路径 940" d="M665.2,646.1h0a20.784,20.784,0,0,1-20.8-20.8V597.5a20.784,20.784,0,0,1,20.8-20.8h0A20.784,20.784,0,0,1,686,597.5v27.8A20.784,20.784,0,0,1,665.2,646.1Z"/>
            </g>
            <path id="路径_941" data-name="路径 941" d="M699.9,555.3H630.5a16.047,16.047,0,0,1-16-16h0a16.047,16.047,0,0,1,16-16h69.4a16.047,16.047,0,0,1,16,16h0A15.983,15.983,0,0,1,699.9,555.3Z" fill="#ee927e"/>
            <path id="路径_942" data-name="路径 942" d="M699.9,533.9H630.5a16.047,16.047,0,0,1-16-16h0a15.983,15.983,0,0,1,16-16h69.4a16.047,16.047,0,0,1,16,16h0A15.983,15.983,0,0,1,699.9,533.9Z" fill="#002539"/>
            <path id="路径_943" data-name="路径 943" d="M683.9,517.9H646.5a5.271,5.271,0,0,1-5.3-5.3h0a5.271,5.271,0,0,1,5.3-5.3h37.4a5.271,5.271,0,0,1,5.3,5.3h0A5.335,5.335,0,0,1,683.9,517.9Z" fill="#354e5a"/>
            <path id="路径_944" data-name="路径 944" d="M729.3,667.5H601.1a5.271,5.271,0,0,1-5.3-5.3h0a5.271,5.271,0,0,1,5.3-5.3H729.3a5.271,5.271,0,0,1,5.3,5.3h0A5.335,5.335,0,0,1,729.3,667.5Z" fill="#f4b497"/>
          </g>
        </g>
        <g id="组_447" data-name="组 447">
          <path id="路径_945" data-name="路径 945" d="M528.1,694.3a9.4,9.4,0,1,1-9.4-9.4A9.389,9.389,0,0,1,528.1,694.3Z" fill="#e9686a"/>
          <path id="路径_946" data-name="路径 946" d="M584.5,694.3a9.4,9.4,0,1,1-9.4-9.4A9.389,9.389,0,0,1,584.5,694.3Z" fill="#e9686a"/>
        </g>
        <g id="组_448" data-name="组 448">
          <path id="路径_947" data-name="路径 947" d="M471.8,724.8a49.3,49.3,0,1,1-49.3-49.3A49.335,49.335,0,0,1,471.8,724.8Z" fill="#f3b29e"/>
          <path id="路径_948" data-name="路径 948" d="M720.5,724.8a49.25,49.25,0,1,1-49.2-49.3A49.335,49.335,0,0,1,720.5,724.8Z" fill="#f3b29e"/>
        </g>
        <path id="路径_949" data-name="路径 949" d="M678.5,137.2H558.4V470.5C558.4,638.7,694.7,775,862.9,775h0V424.6C863,297,787.3,187.2,678.5,137.2Z" fill="#002539"/>
        <path id="路径_950" data-name="路径 950" d="M558.4,390.1v80.4C558.4,638.7,694.7,775,862.9,775h0V694.5h0C694.8,694.6,558.4,558.3,558.4,390.1Z"/>
        <path id="路径_951" data-name="路径 951" d="M546.9,108.5C429,108.5,326.3,173.1,272,268.7c73.9,98.1,191.4,161.6,323.7,161.6a403.515,403.515,0,0,0,255.5-90.8C814.1,206.3,692,108.5,546.9,108.5Z" fill="#002539"/>
      </g>
      <path id="路径_952" data-name="路径 952" d="M748,562.5h0a46.006,46.006,0,0,1-46-46V344.1a46.007,46.007,0,0,1,46-46h0a46.007,46.007,0,0,1,46,46V516.5A46.006,46.006,0,0,1,748,562.5Z" fill="#133c4b"/>
    </g>
  </g>
</svg>
