<?xml version="1.0" encoding="utf-8"?>
<!-- Generator: Adobe Illustrator 25.4.1, SVG Export Plug-In . SVG Version: 6.00 Build 0)  -->
<svg version="1.1" id="Layer_1" xmlns="http://www.w3.org/2000/svg" xmlns:xlink="http://www.w3.org/1999/xlink" x="0px" y="0px"
	 viewBox="0 0 1080 1080" style="enable-background:new 0 0 1080 1080;" xml:space="preserve">
<style type="text/css">
	.st0{fill:#E48D7A;}
	.st1{fill:#DB6666;}
	.st2{fill:#9C2426;}
	.st3{fill:#871C21;}
	.st4{fill:#59245B;}
	.st5{fill:#411E43;}
	.st6{fill:#D74427;}
	.st7{fill:#C52528;}
	.st8{fill:#AF2023;}
	.st9{fill:#E08075;}
	.st10{fill:#DA5755;}
	.st11{fill:#F1BD9A;}
	.st12{fill:#EEB195;}
	.st13{fill:#E5653B;}
	.st14{fill:#040000;}
	.st15{fill:#B13D38;}
	.st16{fill:#E46526;}
	.st17{fill:#E97F26;}
	.st18{fill:#EC9476;}
	.st19{fill:#D6D9EB;}
</style>
<g>
	<g>
		<g>
			<g>
				<rect x="444.4" y="867.3" class="st0" width="175.1" height="198.7"/>
				<path class="st1" d="M444.4,867.3v98.5c27.1,12.7,57.4,19.8,89.3,19.8l0,0c30.5,0,59.6-6.5,85.8-18.2V867.3H444.4z"/>
			</g>
			<g>
				<g>
					<g>
						<path class="st2" d="M1045.4,727.7c0-19.9-10.7-37.3-26.7-46.7c9.1-16.2,9.7-36.6-0.3-53.8c-9.9-17.2-27.9-26.9-46.5-27.2
							c-0.2-18.6-9.9-36.5-27.2-46.5c-17.2-9.9-37.6-9.3-53.8-0.3c-9.5-15.9-26.8-26.7-46.7-26.7s-37.3,10.7-46.7,26.7
							c-16.2-9.1-36.6-9.7-53.8,0.3c-17.2,9.9-26.9,27.9-27.2,46.5c-18.6,0.2-36.5,9.9-46.5,27.2c-9.9,17.2-9.3,37.6-0.3,53.8
							c-15.9,9.5-26.7,26.8-26.7,46.7s10.7,37.3,26.7,46.7c-9.1,16.2-9.7,36.6,0.3,53.8c9.9,17.2,27.9,26.9,46.5,27.2
							c0.2,18.6,9.9,36.5,27.2,46.5c17.2,9.9,37.6,9.3,53.8,0.3c9.5,15.9,26.8,26.7,46.7,26.7s37.3-10.7,46.7-26.7
							c16.2,9.1,36.6,9.7,53.8-0.3c17.2-9.9,26.9-27.9,27.2-46.5c18.6-0.2,36.5-9.9,46.5-27.2c9.9-17.2,9.3-37.6,0.3-53.8
							C1034.7,765,1045.4,747.6,1045.4,727.7z"/>
						<path class="st3" d="M1037.4,724.2c-9.9,17.2-27.9,26.9-46.5,27.2c-0.2,18.6-9.9,36.5-27.2,46.5c-17.2,9.9-37.6,9.3-53.8,0.3
							c-9.5,15.9-26.8,26.7-46.7,26.7s-37.3-10.7-46.7-26.7c-16.2,9.1-36.6,9.7-53.8-0.3c-17.2-9.9-26.9-27.9-27.2-46.5
							c-18.6-0.2-36.5-9.9-46.5-27.2c-9.9-17.2-9.3-37.6-0.3-53.8c-11.3-6.7-19.9-17.5-24-30.3c-3.8,13.9-1.8,28.6,5.1,40.9
							c-15.9,9.5-26.7,26.8-26.7,46.7s10.7,37.3,26.7,46.7c-9.1,16.2-9.7,36.6,0.3,53.8c9.9,17.2,27.9,26.9,46.5,27.2
							c0.2,18.6,9.9,36.5,27.2,46.5c17.2,9.9,37.6,9.3,53.8,0.3c9.5,15.9,26.8,26.7,46.7,26.7s37.3-10.7,46.7-26.7
							c16.2,9.1,36.6,9.7,53.8-0.3c17.2-9.9,26.9-27.9,27.2-46.5c18.6-0.2,36.5-9.9,46.5-27.2c9.9-17.2,9.3-37.6,0.3-53.8
							c15.9-9.5,26.7-26.8,26.7-46.7c0-5.8-1-11.3-2.7-16.5C1041.5,715.7,1039.8,720,1037.4,724.2z"/>
						<circle class="st4" cx="763.8" cy="689.9" r="101.7"/>
						<path class="st5" d="M792.2,739.6c-56.2,0-101.7-45.5-101.7-101.7c0-7,0.7-13.9,2.1-20.5c-18.8,18.5-30.5,44.1-30.5,72.5
							c0,56.2,45.5,101.7,101.7,101.7c49.2,0,90.2-34.9,99.7-81.2C845.1,728.4,820,739.6,792.2,739.6z"/>
					</g>
					<g>
						<path class="st2" d="M18.6,727.7c0-19.9,10.7-37.3,26.7-46.7c-9.1-16.2-9.7-36.6,0.3-53.8C55.5,610,73.4,600.3,92,600
							c0.2-18.6,9.9-36.5,27.2-46.5s37.6-9.3,53.8-0.3c9.5-15.9,26.8-26.7,46.7-26.7s37.3,10.7,46.7,26.7
							c16.2-9.1,36.6-9.7,53.8,0.3c17.2,9.9,26.9,27.9,27.2,46.5c18.6,0.2,36.5,9.9,46.5,27.2c9.9,17.2,9.3,37.6,0.3,53.8
							c15.9,9.5,26.7,26.8,26.7,46.7s-10.7,37.3-26.7,46.7c9.1,16.2,9.7,36.6-0.3,53.8c-9.9,17.2-27.9,26.9-46.5,27.2
							c-0.2,18.6-9.9,36.5-27.2,46.5c-17.2,9.9-37.6,9.3-53.8,0.3c-9.5,15.9-26.8,26.7-46.7,26.7s-37.3-10.7-46.7-26.7
							c-16.2,9.1-36.6,9.7-53.8-0.3S92.2,874,92,855.4c-18.6-0.2-36.5-9.9-46.5-27.2c-9.9-17.2-9.3-37.6-0.3-53.8
							C29.3,765,18.6,747.6,18.6,727.7z"/>
						<path class="st3" d="M26.6,724.2c9.9,17.2,27.9,26.9,46.5,27.2c0.2,18.6,9.9,36.5,27.2,46.5s37.6,9.3,53.8,0.3
							c9.5,15.9,26.8,26.7,46.7,26.7s37.3-10.7,46.7-26.7c16.2,9.1,36.6,9.7,53.8-0.3c17.2-9.9,26.9-27.9,27.2-46.5
							c18.6-0.2,36.5-9.9,46.5-27.2c9.9-17.2,9.3-37.6,0.3-53.8c11.3-6.7,19.9-17.5,24-30.3c3.8,13.9,1.8,28.6-5.1,40.9
							c15.9,9.5,26.7,26.8,26.7,46.7s-10.7,37.3-26.7,46.7c9.1,16.2,9.7,36.6-0.3,53.8c-9.9,17.2-27.9,26.9-46.5,27.2
							c-0.2,18.6-9.9,36.5-27.2,46.5c-17.2,9.9-37.6,9.3-53.8,0.3c-9.5,15.9-26.8,26.7-46.7,26.7s-37.3-10.7-46.7-26.7
							c-16.2,9.1-36.6,9.7-53.8-0.3S92.2,874,92,855.4c-18.6-0.2-36.5-9.9-46.5-27.2c-9.9-17.2-9.3-37.6-0.3-53.8
							c-15.9-9.5-26.7-26.8-26.7-46.7c0-5.8,1-11.3,2.7-16.5C22.4,715.7,24.2,720,26.6,724.2z"/>
						<circle class="st4" cx="300.1" cy="689.9" r="101.7"/>
						<path class="st5" d="M271.7,739.6c56.2,0,101.7-45.5,101.7-101.7c0-7-0.7-13.9-2.1-20.5c18.8,18.5,30.5,44.1,30.5,72.5
							c0,56.2-45.5,101.7-101.7,101.7c-49.2,0-90.2-34.9-99.7-81.2C218.8,728.4,244,739.6,271.7,739.6z"/>
					</g>
				</g>
				<circle class="st3" cx="148.9" cy="697" r="37.9"/>
				<circle class="st3" cx="182.1" cy="602.4" r="9.5"/>
				<circle class="st3" cx="962.8" cy="720.6" r="23.7"/>
				<circle class="st3" cx="924.9" cy="644.9" r="33.1"/>
			</g>
			<path class="st6" d="M833.3,570.4c14.6-7.3,24.6-22.3,24.6-39.7c0-17.4-10-32.4-24.6-39.7c12.2-10.8,18-27.9,13.5-44.7
				c-4.5-16.8-18.1-28.7-34-31.9c9-13.6,10.2-31.6,1.5-46.6c-8.7-15.1-24.9-23-41.1-22.1c5.2-15.4,1.6-33.1-10.7-45.4
				c-12.3-12.3-30-15.8-45.4-10.7c1-16.3-7-32.4-22.1-41.1s-33.1-7.5-46.6,1.5c-3.3-16-15.2-29.5-31.9-34
				c-16.8-4.5-33.9,1.3-44.7,13.5c-7.3-14.6-22.3-24.6-39.7-24.6c-17.4,0-32.4,10-39.7,24.6c-10.8-12.2-27.9-18-44.7-13.5
				c-16.8,4.5-28.7,18.1-31.9,34c-13.6-9-31.6-10.2-46.6-1.5c-15.1,8.7-23,24.9-22.1,41.1c-15.4-5.2-33.1-1.6-45.4,10.7
				c-12.3,12.3-15.8,30-10.7,45.4c-16.3-1-32.4,7-41.1,22.1c-8.7,15.1-7.5,33.1,1.5,46.6c-16,3.3-29.5,15.2-34,31.9
				c-4.5,16.8,1.3,33.9,13.5,44.7c-14.6,7.3-24.6,22.3-24.6,39.7c0,17.4,10,32.4,24.6,39.7c-12.2,10.8-18,27.9-13.5,44.7
				c4.5,16.8,18.1,28.7,34,31.9c-9,13.6-10.2,31.6-1.5,46.6c8.7,15.1,24.9,23,41.1,22.1c-5.2,15.4-1.6,33.1,10.7,45.4
				c12.3,12.3,30,15.8,45.4,10.7c-1,16.3,7,32.4,22.1,41.1c15.1,8.7,33.1,7.5,46.6-1.5c3.3,16,15.2,29.5,31.9,34
				c16.8,4.5,33.9-1.3,44.7-13.5c7.3,14.6,22.3,24.6,39.7,24.6c17.4,0,32.4-10,39.7-24.6c10.8,12.2,27.9,18,44.7,13.5
				c16.8-4.5,28.7-18.1,31.9-34c13.6,9,31.6,10.2,46.6,1.5c15.1-8.7,23-24.9,22.1-41.1c15.4,5.2,33.1,1.6,45.4-10.7
				c12.3-12.3,15.8-30,10.7-45.4c16.3,1,32.4-7,41.1-22.1c8.7-15.1,7.5-33.1-1.5-46.6c16-3.3,29.5-15.2,34-31.9
				C851.3,598.3,845.5,581.2,833.3,570.4z"/>
			<path class="st7" d="M833.3,570.4c14.6-7.3,24.6-22.3,24.6-39.7c0-17.4-10-32.4-24.6-39.7c12.2-10.8,18-27.9,13.5-44.7
				c-4.5-16.8-18.1-28.7-34-31.9c9-13.6,10.2-31.6,1.5-46.6c-8.7-15.1-24.9-23-41.1-22.1c5.2-15.4,1.6-33.1-10.7-45.4
				c-12.3-12.3-30-15.8-45.4-10.7c1-16.3-7-32.4-22.1-41.1s-33.1-7.5-46.6,1.5c-3.3-16-15.2-29.5-31.9-34
				c-16.8-4.5-33.9,1.3-44.7,13.5c-7.3-14.6-22.3-24.6-39.7-24.6c-17.4,0-32.4,10-39.7,24.6c-10.8-12.2-27.9-18-44.7-13.5
				c-16.8,4.5-28.7,18.1-31.9,34c-13.6-9-31.6-10.2-46.6-1.5c-15.1,8.7-23,24.9-22.1,41.1c-15.4-5.2-33.1-1.6-45.4,10.7
				c-12.3,12.3-15.8,30-10.7,45.4c-16.3-1-32.4,7-41.1,22.1c-8.7,15.1-7.5,33.1,1.5,46.6c-16,3.3-29.5,15.2-34,31.9
				c-4.5,16.8,1.3,33.9,13.5,44.7c-14.6,7.3-24.6,22.3-24.6,39.7c0,17.4,10,32.4,24.6,39.7c-12.2,10.8-18,27.9-13.5,44.7
				c4.5,16.8,18.1,28.7,34,31.9c-9,13.6-10.2,31.6-1.5,46.6c8.7,15.1,24.9,23,41.1,22.1c-5.2,15.4-1.6,33.1,10.7,45.4
				c12.3,12.3,30,15.8,45.4,10.7c-1,16.3,7,32.4,22.1,41.1c15.1,8.7,33.1,7.5,46.6-1.5c3.3,16,15.2,29.5,31.9,34
				c16.8,4.5,33.9-1.3,44.7-13.5c7.3,14.6,22.3,24.6,39.7,24.6c17.4,0,32.4-10,39.7-24.6c10.8,12.2,27.9,18,44.7,13.5
				c16.8-4.5,28.7-18.1,31.9-34c13.6,9,31.6,10.2,46.6,1.5c15.1-8.7,23-24.9,22.1-41.1c15.4,5.2,33.1,1.6,45.4-10.7
				c12.3-12.3,15.8-30,10.7-45.4c16.3,1,32.4-7,41.1-22.1c8.7-15.1,7.5-33.1-1.5-46.6c16-3.3,29.5-15.2,34-31.9
				C851.3,598.3,845.5,581.2,833.3,570.4z"/>
			<path class="st8" d="M789.5,564.7c12.5-6.2,21-19,21-33.9c0-14.9-8.6-27.7-21-33.9c10.4-9.2,15.4-23.8,11.5-38.2
				c-3.8-14.4-15.4-24.5-29.1-27.3c7.7-11.6,8.7-27,1.3-39.9c-7.4-12.9-21.3-19.7-35.2-18.9c4.4-13.2,1.4-28.3-9.1-38.8
				c-10.5-10.5-25.6-13.5-38.8-9.1c0.8-13.9-6-27.7-18.9-35.2s-28.3-6.4-39.9,1.3c-2.8-13.6-13-25.2-27.3-29.1
				c-14.4-3.8-29,1.1-38.2,11.5c-6.2-12.5-19-21-33.9-21s-27.7,8.6-33.9,21c-9.2-10.4-23.8-15.4-38.2-11.5
				c-14.4,3.8-24.5,15.4-27.3,29.1c-11.6-7.7-27-8.7-39.9-1.3c-12.9,7.4-19.7,21.3-18.9,35.2c-13.2-4.4-28.3-1.4-38.8,9.1
				c-10.5,10.5-13.5,25.6-9.1,38.8c-13.9-0.8-27.7,6-35.2,18.9s-6.4,28.3,1.3,39.9c-13.6,2.8-25.2,13-29.1,27.3
				c-3.8,14.4,1.1,29,11.5,38.2c-12.5,6.2-21,19-21,33.9c0,14.9,8.6,27.7,21,33.9c-10.4,9.2-15.4,23.8-11.5,38.2
				c3.8,14.4,15.4,24.5,29.1,27.3c-7.7,11.6-8.7,27-1.3,39.9s21.3,19.7,35.2,18.9c-4.4,13.2-1.4,28.3,9.1,38.8
				c10.5,10.5,25.6,13.5,38.8,9.1c-0.8,13.9,6,27.7,18.9,35.2c12.9,7.4,28.3,6.4,39.9-1.3c2.8,13.6,13,25.2,27.3,29.1
				c14.4,3.8,29-1.1,38.2-11.5c6.2,12.5,19,21,33.9,21s27.7-8.6,33.9-21c9.2,10.4,23.8,15.4,38.2,11.5c14.4-3.8,24.5-15.4,27.3-29.1
				c11.6,7.7,27,8.7,39.9,1.3s19.7-21.3,18.9-35.2c13.2,4.4,28.3,1.4,38.8-9.1c10.5-10.5,13.5-25.6,9.1-38.8
				c13.9,0.8,27.7-6,35.2-18.9c7.4-12.9,6.4-28.3-1.3-39.9c13.6-2.8,25.2-13,29.1-27.3C804.9,588.5,799.9,573.9,789.5,564.7z"/>
			<g>
				<g>
					<circle class="st0" cx="748.6" cy="700.1" r="45.1"/>
					<path class="st9" d="M742.7,727.7c24.9,0,45.1-20.2,45.1-45.1c0-1.8-0.1-3.5-0.3-5.2c3.9,6.7,6.1,14.4,6.1,22.6
						c0,24.9-20.2,45.1-45.1,45.1c-23.1,0-42.2-17.4-44.8-39.9C711.6,718.7,726.1,727.7,742.7,727.7z"/>
					<circle class="st10" cx="748.6" cy="700.1" r="16"/>
				</g>
				<g>
					<circle class="st0" cx="315.4" cy="700.1" r="45.1"/>
					<path class="st9" d="M321.2,727.7c-24.9,0-45.1-20.2-45.1-45.1c0-1.8,0.1-3.5,0.3-5.2c-3.9,6.7-6.1,14.4-6.1,22.6
						c0,24.9,20.2,45.1,45.1,45.1c23.1,0,42.2-17.4,44.8-39.9C352.3,718.7,337.8,727.7,321.2,727.7z"/>
					<circle class="st10" cx="315.4" cy="700.1" r="16"/>
				</g>
			</g>
			<g>
				<path class="st11" d="M532,933.6L532,933.6c-116.6,0-211.1-94.5-211.1-211.1V598.1c0-116.6,94.5-211.1,211.1-211.1h0
					c116.6,0,211.1,94.5,211.1,211.1v124.4C743,839.1,648.5,933.6,532,933.6z"/>
				<path class="st0" d="M364.7,547.3c10.8,12.2,27.9,18,44.7,13.5c16.8-4.5,28.7-18.1,31.9-34c13.6,9,31.6,10.2,46.6,1.5
					c15.1-8.7,23-24.9,22.1-41.1c15.4,5.2,33.1,1.6,45.4-10.7c12.3-12.3,15.8-30,10.7-45.4c16.3,1,32.4-7,41.1-22.1
					c1.3-2.2,2.3-4.5,3.1-6.8c-24.2-9.7-50.7-15.1-78.4-15.1h0c-107.6,0-196.4,80.6-209.4,184.7c0.8,0,1.6,0.1,2.4,0.1
					C342.4,571.9,357.4,561.8,364.7,547.3z"/>
				<path class="st12" d="M532,824.3L532,824.3c-116.6,0-211.1-94.5-211.1-211.1v109.3c0,116.6,94.5,211.1,211.1,211.1l0,0
					c116.6,0,211.1-94.5,211.1-211.1V613.2C743,729.8,648.5,824.3,532,824.3z"/>
			</g>
			<g>
				<g>
					<g>
						<path class="st0" d="M696.7,644.3H598c-1.5,0-2.7-1.2-2.7-2.7v-45c0-1.5,1.2-2.7,2.7-2.7h98.8c1.5,0,2.7,1.2,2.7,2.7v45
							C699.5,643.1,698.2,644.3,696.7,644.3z"/>
						<path class="st6" d="M696.7,623H598c-1.5,0-2.7-1.2-2.7-2.7v-45c0-1.5,1.2-2.7,2.7-2.7h98.8c1.5,0,2.7,1.2,2.7,2.7v45
							C699.5,621.8,698.2,623,696.7,623z"/>
						<path class="st7" d="M674.2,606.2h-53.8c-11,0-20.3-7-23.7-16.8c-0.9,2.6-1.5,5.5-1.5,8.4c0,13.9,11.3,25.2,25.2,25.2h53.8
							c13.9,0,25.2-11.3,25.2-25.2c0-3-0.5-5.8-1.5-8.4C694.5,599.2,685.2,606.2,674.2,606.2z"/>
						<path class="st13" d="M667.9,593.9h-41.2c-0.4,0-0.7-0.3-0.7-0.7v-11.4c0-0.4,0.3-0.7,0.7-0.7h41.2c0.4,0,0.7,0.3,0.7,0.7
							v11.4C668.6,593.6,668.3,593.9,667.9,593.9z"/>
					</g>
					<path class="st14" d="M667.2,702.1h-39.7c-1.3,0-2.4-1.1-2.4-2.4v-64c0-1.3,1.1-2.4,2.4-2.4h39.7c1.3,0,2.4,1.1,2.4,2.4v64
						C669.6,701.1,668.5,702.1,667.2,702.1z"/>
				</g>
				<g>
					<g>
						<path class="st0" d="M466,644.3h-98.8c-1.5,0-2.7-1.2-2.7-2.7v-45c0-1.5,1.2-2.7,2.7-2.7H466c1.5,0,2.7,1.2,2.7,2.7v45
							C468.7,643.1,467.5,644.3,466,644.3z"/>
						<path class="st6" d="M466,623h-98.8c-1.5,0-2.7-1.2-2.7-2.7v-45c0-1.5,1.2-2.7,2.7-2.7H466c1.5,0,2.7,1.2,2.7,2.7v45
							C468.7,621.8,467.5,623,466,623z"/>
						<path class="st7" d="M443.5,606.2h-53.8c-11,0-20.3-7-23.7-16.8c-0.9,2.6-1.5,5.5-1.5,8.4c0,13.9,11.3,25.2,25.2,25.2h53.8
							c13.9,0,25.2-11.3,25.2-25.2c0-3-0.5-5.8-1.5-8.4C463.8,599.2,454.5,606.2,443.5,606.2z"/>
						<path class="st13" d="M437.2,593.9H396c-0.4,0-0.7-0.3-0.7-0.7v-11.4c0-0.4,0.3-0.7,0.7-0.7h41.2c0.4,0,0.7,0.3,0.7,0.7v11.4
							C437.9,593.6,437.6,593.9,437.2,593.9z"/>
					</g>
					<path class="st14" d="M436.5,702.1h-39.7c-1.3,0-2.4-1.1-2.4-2.4v-64c0-1.3,1.1-2.4,2.4-2.4h39.7c1.3,0,2.4,1.1,2.4,2.4v64
						C438.9,701.1,437.8,702.1,436.5,702.1z"/>
				</g>
			</g>
			<g>
				<g>
					<path class="st1" d="M576.1,786.9c0-0.1,0-0.1,0-0.2h0c-0.2-14.5-11.9-26.1-26.4-26.1c-6.8,0-13,2.6-17.7,6.8
						c-4.7-4.3-10.9-6.8-17.7-6.8c-14.5,0-26.2,11.6-26.4,26.1h0c0,0.1,0,0.1,0,0.2c0,0,0,0.1,0,0.1l0,0
						c0.1,24.2,19.8,43.8,44.1,43.8C556.2,830.8,575.9,811.2,576.1,786.9L576.1,786.9C576.1,786.9,576.1,786.9,576.1,786.9z"/>
				</g>
				<path class="st15" d="M563.5,788c0,3.3-2.7,6-6,6h-51c-3.3,0-6-2.7-6-6l0,0c0-3.3,2.7-6,6-6h51
					C560.8,781.9,563.5,784.6,563.5,788L563.5,788z"/>
			</g>
			<g>
				<circle class="st10" cx="503.6" cy="725.4" r="9.5"/>
				<circle class="st10" cx="560.4" cy="725.4" r="9.5"/>
			</g>
			<g>
				<g>
					<path class="st6" d="M270,585.1c10.8,12.2,27.9,18,44.7,13.5c16.8-4.5,28.7-18.1,31.9-34c13.6,9,31.6,10.2,46.7,1.5
						s23-24.9,22.1-41.1c15.4,5.2,33.1,1.6,45.4-10.7c12.3-12.3,15.8-30,10.7-45.4c16.3,1,32.4-7,41.1-22.1
						c8.7-15.1,7.5-33.1-1.5-46.6c16-3.3,29.5-15.2,34-31.9c4.5-16.8-1.3-33.9-13.5-44.7c14.6-7.3,24.6-22.3,24.6-39.7
						c0-17.4-10-32.4-24.6-39.7c10.3-9.1,16-22.7,14.8-36.8c-4.6-1.6-9.4-2.5-14.5-2.5c-17.4,0-32.4,10-39.7,24.6
						c-10.8-12.2-27.9-18-44.7-13.5c-16.8,4.5-28.7,18.1-31.9,34c-13.6-9-31.6-10.2-46.7-1.5c-15.1,8.7-23,24.9-22.1,41.1
						c-15.4-5.2-33.1-1.6-45.4,10.7c-12.3,12.3-15.8,30-10.7,45.4c-16.3-1-32.4,7-41.1,22.1c-8.7,15.1-7.5,33.1,1.5,46.6
						c-16,3.3-29.5,15.2-34,31.9c-4.5,16.8,1.3,33.9,13.5,44.7c-14.6,7.3-24.6,22.3-24.6,39.7c0,17.4,10,32.4,24.6,39.7
						c-10.3,9.1-16,22.7-14.8,36.8c4.6,1.6,9.4,2.5,14.5,2.5C247.8,609.7,262.8,599.7,270,585.1z"/>
					<g>
						<path class="st16" d="M833.3,570.4c14.6-7.3,24.6-22.3,24.6-39.7c0-17.4-10-32.4-24.6-39.7c12.2-10.8,18-27.9,13.5-44.7
							c-4.5-16.8-18.1-28.7-34-31.9c9-13.6,10.2-31.6,1.5-46.6c-8.7-15.1-24.9-23-41.1-22.1c5.2-15.4,1.6-33.1-10.7-45.4
							c-12.3-12.3-30-15.8-45.4-10.7c1-16.3-7-32.4-22.1-41.1c-15.1-8.7-33.1-7.5-46.7,1.5c-3.3-16-15.2-29.5-31.9-34
							c-16.8-4.5-33.9,1.3-44.7,13.5c-7.3-14.6-22.3-24.6-39.7-24.6c-5.1,0-10,0.9-14.5,2.5c-1.2,14.1,4.5,27.7,14.8,36.8
							c-14.6,7.3-24.6,22.3-24.6,39.7c0,17.4,10,32.4,24.6,39.7c-12.2,10.8-18,27.9-13.5,44.7c4.5,16.8,18.1,28.7,34,31.9
							c-9,13.6-10.2,31.6-1.5,46.6s24.9,23,41.1,22.1c-5.2,15.4-1.6,33.1,10.7,45.4c12.3,12.3,30,15.8,45.4,10.7
							c-1,16.3,7,32.4,22.1,41.1c15.1,8.7,33.1,7.5,46.7-1.5c3.3,16,15.2,29.5,31.9,34c16.8,4.5,33.9-1.3,44.7-13.5
							c7.3,14.6,22.3,24.6,39.7,24.6c5.1,0,10-0.9,14.5-2.5C849.3,593.1,843.5,579.5,833.3,570.4z"/>
						<path class="st17" d="M811.9,522.1c-12.4,14-31.9,20.6-51.2,15.5c-19.2-5.2-32.9-20.7-36.6-39c-15.6,10.3-36.2,11.6-53.4,1.7
							c-17.2-10-26.4-28.5-25.3-47.1c-17.7,5.9-38,1.9-52.1-12.2c-14.1-14.1-18.1-34.4-12.2-52c-18.6,1.1-37.2-8-47.1-25.3
							c-6.6-11.5-8.1-24.4-5.5-36.4c-9.6,10.8-13.8,26-9.8,40.9c4.5,16.8,18.1,28.7,34,31.9c-9,13.6-10.2,31.6-1.5,46.6
							c8.7,15.1,24.9,23,41.1,22.1c-5.2,15.4-1.6,33.1,10.7,45.4c12.3,12.3,30,15.8,45.4,10.7c-1,16.3,7,32.4,22.1,41.1
							c15.1,8.7,33.1,7.5,46.6-1.5c3.3,16,15.2,29.5,31.9,34c16.8,4.5,33.9-1.3,44.7-13.5c7.3,14.6,22.3,24.6,39.7,24.6
							c5.1,0,10-0.9,14.5-2.5c1.2-14.1-4.5-27.7-14.8-36.8c8.7-4.4,15.8-11.5,20.1-20.3C835.1,548.7,819.6,537.7,811.9,522.1z"/>
					</g>
				</g>
				<circle class="st17" cx="624.5" cy="316.1" r="21.3"/>
				<circle class="st17" cx="738" cy="424.9" r="35.5"/>
				<circle class="st17" cx="650.5" cy="389.4" r="9.5"/>
				<circle class="st16" cx="321.6" cy="467.5" r="35.5"/>
				<circle class="st16" cx="428.1" cy="422.5" r="9.5"/>
				<circle class="st16" cx="428.1" cy="356.3" r="28.4"/>
			</g>
			<g>
				<g>
					<circle class="st18" cx="416.2" cy="742.9" r="4.5"/>
					<circle class="st18" cx="440" cy="739.9" r="4.5"/>
					<circle class="st18" cx="405.8" cy="723.6" r="3"/>
					<circle class="st18" cx="426.6" cy="765.2" r="3"/>
					<circle class="st18" cx="468.2" cy="732.5" r="3"/>
				</g>
				<g>
					<circle class="st18" cx="647.7" cy="742.9" r="4.5"/>
					<circle class="st18" cx="624" cy="739.9" r="4.5"/>
					<circle class="st18" cx="658.1" cy="723.6" r="3"/>
					<circle class="st18" cx="637.3" cy="765.2" r="3"/>
					<circle class="st18" cx="595.8" cy="732.5" r="3"/>
				</g>
			</g>
		</g>
		<path class="st19" d="M640.8,999.8c-6.5,0-12.1,3.2-15.5,8.2c-3.4-4.9-9.1-8.2-15.5-8.2c-6.5,0-12.1,3.2-15.5,8.2
			c-3.4-4.9-9.1-8.2-15.5-8.2c-6.4,0-12.1,3.2-15.5,8.2c-3.4-4.9-9.1-8.2-15.5-8.2c-6.5,0-12.1,3.2-15.5,8.2
			c-3.4-4.9-9.1-8.2-15.5-8.2l0,0c-6.4,0-12.1,3.2-15.5,8.2c-3.4-4.9-9.1-8.2-15.5-8.2s-12.1,3.2-15.5,8.2
			c-3.4-4.9-9.1-8.2-15.5-8.2c-6.4,0-12.1,3.2-15.5,8.2c-3.4-4.9-9.1-8.2-15.5-8.2c-10.5,0-18.9,8.5-18.9,18.9v47.3
			c0,10.5,8.5,18.9,18.9,18.9c6.5,0,12.1-3.2,15.5-8.2c3.4,4.9,9.1,8.2,15.5,8.2c6.4,0,12.1-3.2,15.5-8.2c3.4,4.9,9.1,8.2,15.5,8.2
			s12.1-3.2,15.5-8.2c3.4,4.9,9.1,8.2,15.5,8.2l0,0c6.5,0,12.1-3.2,15.5-8.2c3.4,4.9,9.1,8.2,15.5,8.2c6.4,0,12.1-3.2,15.5-8.2
			c3.4,4.9,9.1,8.2,15.5,8.2c6.5,0,12.1-3.2,15.5-8.2c3.4,4.9,9.1,8.2,15.5,8.2c6.4,0,12.1-3.2,15.5-8.2c3.4,4.9,9.1,8.2,15.5,8.2
			c10.5,0,18.9-8.5,18.9-18.9v-47.3C659.7,1008.3,651.3,999.8,640.8,999.8z"/>
		<rect x="404.2" y="1037.7" class="st4" width="255.5" height="94.6"/>
	</g>
</g>
</svg>
