<?xml version="1.0" encoding="utf-8"?>
<!-- Generator: Adobe Illustrator 25.4.1, SVG Export Plug-In . SVG Version: 6.00 Build 0)  -->
<svg version="1.1" id="Layer_1" xmlns="http://www.w3.org/2000/svg" xmlns:xlink="http://www.w3.org/1999/xlink" x="0px" y="0px"
	 viewBox="0 0 1080 1080" style="enable-background:new 0 0 1080 1080;" xml:space="preserve">
<style type="text/css">
	.st0{fill:#CF2E27;}
	.st1{fill:#AE2823;}
	.st2{fill:#E48D7A;}
	.st3{fill:#E07B73;}
	.st4{fill:#602A85;}
	.st5{fill:#32254A;}
	.st6{fill:#852583;}
	.st7{fill:#9B2383;}
	.st8{fill:#EEB195;}
	.st9{fill:#DC6566;}
	.st10{fill:#D6D9EB;}
	.st11{fill:#F1BD9A;}
	.st12{fill:#DC2E5C;}
	.st13{fill:#AB1B47;}
	.st14{fill:#040000;}
	.st15{fill:#D74427;}
	.st16{fill:#EBAE9A;}
</style>
<g>
	<g>
		<path class="st0" d="M824.1,759V462.9c0-158.2-128.2-286.4-286.4-286.4h0c-158.2,0-286.4,128.2-286.4,286.4v301
			c-40.2,29.3-66.2,76.8-65.8,130.4v0c0.7,88.3,72.7,159.3,161,158.6l387.7-2.9c88.3-0.7,159.3-72.7,158.6-161v0
			C892.3,835.1,865.2,787.6,824.1,759z"/>
	</g>
	<g>
		<path class="st1" d="M747.5,799l-1.8-241.4c-0.9-115.9-95.5-209.2-211.4-208.3h0c-115.9,0.9-209.2,95.5-208.3,211.4l1.8,239.8
			c0.3,39.9,16.4,78.1,44.9,106.1l60.6,59.7c59.2,58.3,154.5,57.6,212.9-1.6l58.1-59C732.2,877.3,747.8,838.9,747.5,799z"/>
	</g>
	<g>
		<g>
			<g>
				<rect x="419.2" y="789.4" class="st2" width="241.2" height="286.7"/>
				<path class="st3" d="M419.2,789.4v108.3l16.3,16.3c58.8,58.8,154.1,58.8,212.9,0l12-12V789.4H419.2z"/>
			</g>
			<g>
				<rect x="394.3" y="1022.6" class="st4" width="288.8" height="123.8"/>
				<rect x="394.3" y="985.2" class="st5" width="288.8" height="53.1"/>
				<path class="st4" d="M715.6,934.2H357.8c-1.9,0-3.4,1.5-3.4,3.4v55.9c0,1.9,1.5,3.4,3.4,3.4h357.8c1.9,0,3.4-1.5,3.4-3.4v-55.9
					C719,935.7,717.5,934.2,715.6,934.2z"/>
				<rect x="394.3" y="1098.9" class="st6" width="288.8" height="47.5"/>
				<path class="st7" d="M619.7,973.4H390.9c-0.7,0-1.3-0.6-1.3-1.3v-21c0-0.7,0.6-1.3,1.3-1.3h228.7c0.7,0,1.3,0.6,1.3,1.3v21
					C621,972.8,620.4,973.4,619.7,973.4z"/>
			</g>
		</g>
		<g>
			<g>
				<g>
					<circle class="st8" cx="323.7" cy="614" r="42.8"/>
					<circle class="st9" cx="323.7" cy="614" r="17.1"/>
				</g>
				<g>
					<circle class="st8" cx="751.6" cy="614" r="42.8"/>
					<circle class="st9" cx="751.6" cy="614" r="17.1"/>
				</g>
			</g>
			<g>
				<circle class="st10" cx="313" cy="654.6" r="10.7"/>
				<circle class="st10" cx="762.3" cy="654.6" r="10.7"/>
			</g>
		</g>
		<path class="st11" d="M746.7,706.2V464.9c0-115.9-94-209.9-209.9-209.9h0c-115.9,0-209.9,94-209.9,209.9v239.8
			c0,39.9,15.9,78.2,44.1,106.4l60.1,60.1c58.8,58.8,154.1,58.8,212.9,0l58.6-58.6C730.9,784.4,746.7,746.1,746.7,706.2z"/>
		<path class="st8" d="M683.7,374.2v-40.2c0.9-5.6,1.6-11.4,2-17.2c-38-38.2-90.7-61.9-148.8-61.9h0c-115.9,0-209.9,94-209.9,209.9
			v78.4h187.8C608.1,543.2,683.7,467.6,683.7,374.2z"/>
		<path class="st8" d="M644.1,802.8c-58.8,58.8-154.1,58.8-212.9,0l-60.1-60.1c-28.2-28.2-44.1-66.5-44.1-106.4v68.5
			c0,39.9,15.9,78.2,44.1,106.4l60.1,60.1c58.8,58.8,154.1,58.8,212.9,0l58.6-58.6c28.2-28.2,44.1-66.5,44.1-106.4v-68.5
			c0,39.9-15.9,78.2-44.1,106.4L644.1,802.8z"/>
		<g>
			<g>
				<path class="st12" d="M586.1,745.9c0-0.1,0-0.1,0-0.2h0c-0.2-16.1-13.3-29.1-29.4-29.1c-7.6,0-14.5,2.9-19.7,7.6
					c-5.2-4.7-12.1-7.6-19.7-7.6c-16.1,0-29.2,13-29.4,29.1h0c0,0.1,0,0.1,0,0.2c0,0,0,0.1,0,0.1l0,0c0.2,27,22.1,48.8,49.1,48.8
					c27,0,49-21.8,49.2-48.8l0,0C586.1,746,586.1,746,586.1,745.9z"/>
			</g>
			<path class="st13" d="M572,747.2c0,3.7-3,6.7-6.7,6.7h-56.8c-3.7,0-6.7-3-6.7-6.7l0,0c0-3.7,3-6.7,6.7-6.7h56.8
				C569,740.4,572,743.5,572,747.2L572,747.2z"/>
		</g>
		<g>
			<g>
				<g>
					<path class="st14" d="M448.3,629.9h-33.9c-1.1,0-2.1-0.9-2.1-2.1v-59.2c0-1.1,0.9-2.1,2.1-2.1h33.9c1.1,0,2.1,0.9,2.1,2.1v59.2
						C450.3,629,449.4,629.9,448.3,629.9z"/>
				</g>
				<path class="st2" d="M476,547.1h-89.4c-0.9,0-1.6-0.7-1.6-1.6v-26.1c0-0.9,0.7-1.6,1.6-1.6H476c0.9,0,1.6,0.7,1.6,1.6v26.1
					C477.6,546.4,476.9,547.1,476,547.1z"/>
				<g>
					<path class="st0" d="M476,527.6h-89.4c-0.9,0-1.6-0.7-1.6-1.6V500c0-0.9,0.7-1.6,1.6-1.6H476c0.9,0,1.6,0.7,1.6,1.6v26.1
						C477.6,526.9,476.9,527.6,476,527.6z"/>
				</g>
				<path class="st15" d="M452.7,513h-42.8c-0.3,0-0.5-0.2-0.5-0.5v-8.7c0-0.3,0.2-0.5,0.5-0.5h42.8c0.3,0,0.5,0.2,0.5,0.5v8.7
					C453.2,512.8,453,513,452.7,513z"/>
				<path class="st8" d="M494.1,649.4H368.5c-0.3,0-0.5-0.2-0.5-0.5v-8.7c0-0.3,0.2-0.5,0.5-0.5h125.6c0.3,0,0.5,0.2,0.5,0.5v8.7
					C494.6,649.2,494.4,649.4,494.1,649.4z"/>
			</g>
			<g>
				<g>
					<path class="st14" d="M662.4,629.9h-33.9c-1.1,0-2.1-0.9-2.1-2.1v-59.2c0-1.1,0.9-2.1,2.1-2.1h33.9c1.1,0,2.1,0.9,2.1,2.1v59.2
						C664.5,629,663.6,629.9,662.4,629.9z"/>
				</g>
				<path class="st2" d="M690.2,547.1h-89.4c-0.9,0-1.6-0.7-1.6-1.6v-26.1c0-0.9,0.7-1.6,1.6-1.6h89.4c0.9,0,1.6,0.7,1.6,1.6v26.1
					C691.7,546.4,691,547.1,690.2,547.1z"/>
				<g>
					<path class="st0" d="M690.2,527.6h-89.4c-0.9,0-1.6-0.7-1.6-1.6V500c0-0.9,0.7-1.6,1.6-1.6h89.4c0.9,0,1.6,0.7,1.6,1.6v26.1
						C691.7,526.9,691,527.6,690.2,527.6z"/>
				</g>
				<path class="st15" d="M666.9,513h-42.8c-0.3,0-0.5-0.2-0.5-0.5v-8.7c0-0.3,0.2-0.5,0.5-0.5h42.8c0.3,0,0.5,0.2,0.5,0.5v8.7
					C667.4,512.8,667.2,513,666.9,513z"/>
				<path class="st8" d="M708.3,649.4H582.7c-0.3,0-0.5-0.2-0.5-0.5v-8.7c0-0.3,0.2-0.5,0.5-0.5h125.6c0.3,0,0.5,0.2,0.5,0.5v8.7
					C708.8,649.2,708.6,649.4,708.3,649.4z"/>
			</g>
		</g>
		<g>
			<circle class="st9" cx="512" cy="673.9" r="8.6"/>
			<circle class="st9" cx="563.3" cy="673.9" r="8.6"/>
		</g>
		<circle class="st16" cx="424.2" cy="701.7" r="44.9"/>
		<circle class="st16" cx="651" cy="701.7" r="44.9"/>
	</g>
	<g>
		<path class="st0" d="M677.6,118.8H289.7c-21.3,0-38.5,17.3-38.5,38.5v317.7h405.3c16.3,0,29.6-13.2,29.6-29.6V127.3
			C686.1,122.6,682.3,118.8,677.6,118.8z"/>
	</g>
	<g>
		<path class="st1" d="M517.1,389.6H413.3c-47.2,0-85.5,38.3-85.5,85.5l-4.5,0h193.9c93.3,0,169-75.7,169-169v-85.5
			C686.1,313.9,610.4,389.6,517.1,389.6z"/>
	</g>
	<g>
		<circle class="st15" cx="801.6" cy="860.2" r="28.8"/>
		<circle class="st15" cx="314.3" cy="959.7" r="34.1"/>
		<circle class="st15" cx="749.2" cy="970.2" r="13.1"/>
	</g>
	<path class="st15" d="M540,340.2H397.8c-1.3,0-2.3-1-2.3-2.3v-37.4c0-1.3,1-2.3,2.3-2.3H540c1.3,0,2.3,1,2.3,2.3v37.4
		C542.3,339.2,541.2,340.2,540,340.2z"/>
	<path class="st15" d="M503.8,250.5h-94.5c-1.4,0-2.6-1.1-2.6-2.6v-42.1c0-1.4,1.1-2.6,2.6-2.6h94.5c1.4,0,2.6,1.1,2.6,2.6V248
		C506.3,249.4,505.2,250.5,503.8,250.5z"/>
</g>
</svg>
