<?xml version="1.0" encoding="utf-8"?>
<!-- Generator: Adobe Illustrator 25.4.1, SVG Export Plug-In . SVG Version: 6.00 Build 0)  -->
<svg version="1.1" id="Layer_1" xmlns="http://www.w3.org/2000/svg" xmlns:xlink="http://www.w3.org/1999/xlink" x="0px" y="0px"
	 viewBox="0 0 1080 1080" style="enable-background:new 0 0 1080 1080;" xml:space="preserve">
<style type="text/css">
	.st0{fill:#E87765;}
	.st1{fill:#D96456;}
	.st2{fill:#D53E41;}
	.st3{fill:#4C150D;}
	.st4{fill:#6E1819;}
	.st5{fill:#EC9476;}
	.st6{fill:#002438;}
	.st7{fill:#240305;}
	.st8{fill:#81231F;}
	.st9{fill:#E98670;}
	.st10{fill:#D65252;}
	.st11{fill:#040000;}
	.st12{opacity:0.2;fill:#FFFFFF;}
	.st13{opacity:0.55;}
	.st14{fill:#FFFFFF;}
	.st15{opacity:0.3;}
	.st16{fill:#A61D38;}
	.st17{fill:#641019;}
	.st18{fill:#CADAE3;}
	.st19{fill:#DC2E5C;}
	.st20{fill:#DF4D74;}
	.st21{fill:#898FC1;}
	.st22{fill:#C1C6E2;}
</style>
<g>
	<rect x="338.9" y="761.5" class="st0" width="394.3" height="342.3"/>
	<path class="st1" d="M338.9,761.5V888c1.4,1.4,2.7,2.9,4.1,4.3l93.4,93.4c55,55,144.3,55,199.3,0l93.4-93.4
		c1.4-1.4,2.7-2.9,4.1-4.3V761.5H338.9z"/>
	<g>
		<g>
			<circle class="st0" cx="273.9" cy="548.4" r="55.6"/>
			<circle class="st2" cx="273.9" cy="548.4" r="20"/>
		</g>
		<g>
			<circle class="st0" cx="798.2" cy="548.4" r="55.6"/>
			<circle class="st2" cx="798.2" cy="548.4" r="20"/>
		</g>
	</g>
	<g>
		<path class="st3" d="M736,557.3H336.1c-40,0-72.4-32.4-72.4-72.4v-90.7c0-148.6,120.5-269.1,269.1-269.1h6.6
			c148.6,0,269.1,120.5,269.1,269.1v90.7C808.4,524.9,776,557.3,736,557.3z"/>
		<g>
			<path class="st4" d="M531,219.9h-0.2c-4.6,0-8.4-3.8-8.4-8.4v-43.9c0-4.6,3.8-8.4,8.4-8.4h0.2c4.6,0,8.4,3.8,8.4,8.4v43.9
				C539.4,216.1,535.6,219.9,531,219.9z"/>
			<path class="st4" d="M355.7,258.9h-0.3c-5.9,0-10.7-4.8-10.7-10.7v-65.3c0-5.9,4.8-10.7,10.7-10.7h0.3c5.9,0,10.7,4.8,10.7,10.7
				v65.3C366.4,254.1,361.6,258.9,355.7,258.9z"/>
			<path class="st4" d="M669.9,258.9h-0.4c-9.5,0-17.1-7.7-17.1-17.1v-61.1c0-9.5,7.7-17.1,17.1-17.1h0.4c9.5,0,17.1,7.7,17.1,17.1
				v61.1C687.1,251.2,679.4,258.9,669.9,258.9z"/>
		</g>
		<g>
			<path class="st4" d="M414.1,241.5c-9.6,0-17.3,7.8-17.3,17.3v22.5h34.7v-22.5C431.4,249.3,423.7,241.5,414.1,241.5z"/>
			<path class="st4" d="M490.9,224.2c-11.3,0-20.5,9.2-20.5,20.5v36.7h41v-36.7C511.4,233.4,502.2,224.2,490.9,224.2z"/>
			<path class="st4" d="M635.1,250.2c-4.8,0-8.7,3.9-8.7,8.7v22.5h17.3v-22.5C643.7,254.1,639.9,250.2,635.1,250.2z"/>
			<path class="st4" d="M715,237.2c-8.3,0-15,6.7-15,15v29.6c10.6,0.9,20.7,3.6,29.9,7.8v-37.4C730,243.9,723.3,237.2,715,237.2z"/>
			<path class="st4" d="M294.7,297.9c-8.3,0-15,6.7-15,15v52.4c0,5.4,2.8,10,7.1,12.7v-3.1c0-23.4,8.6-44.7,22.8-61.1v-0.9
				C309.7,304.6,303,297.9,294.7,297.9z"/>
			<path class="st4" d="M799.3,395.5v-82.7c0-13.1-10.6-23.6-23.6-23.6c-10.2,0-18.9,6.5-22.2,15.6c19.4,17.1,31.7,42.1,31.7,70
				v42.4C793.5,413.5,799.3,405.2,799.3,395.5z"/>
		</g>
	</g>
	<path class="st5" d="M785.2,678.9V374.8c0-51.6-41.8-93.4-93.4-93.4H380.3c-51.6,0-93.4,41.8-93.4,93.4v304.1
		c0,50.8,20.2,99.6,56.1,135.5l93.4,93.4c55,55,144.3,55,199.3,0l93.4-93.4C765,778.4,785.2,729.7,785.2,678.9z"/>
	<path class="st0" d="M635.7,799.4c-55,55-144.3,55-199.3,0L343,706c-35.9-35.9-56.1-84.7-56.1-135.5v108.3
		c0,50.8,20.2,99.6,56.1,135.5l93.4,93.4c55,55,144.3,55,199.3,0l93.4-93.4c35.9-35.9,56.1-84.7,56.1-135.5V570.5
		c0,50.8-20.2,99.6-56.1,135.5L635.7,799.4z"/>
	<g>
		<path class="st6" d="M411.6,547.3h-0.4c-8.2,0-14.9-6.7-14.9-14.9v-15.5c0-8.2,6.7-14.9,14.9-14.9h0.4c8.2,0,14.9,6.7,14.9,14.9
			v15.5C426.6,540.6,419.9,547.3,411.6,547.3z"/>
		<path class="st6" d="M660.8,547.3h-0.4c-8.2,0-14.9-6.7-14.9-14.9v-15.5c0-8.2,6.7-14.9,14.9-14.9h0.4c8.2,0,14.9,6.7,14.9,14.9
			v15.5C675.7,540.6,669,547.3,660.8,547.3z"/>
	</g>
	<g>
		<g>
			<path class="st1" d="M456.6,459.9h-90.3c-13.5,0-24.6-11.1-24.6-24.6v-0.6c0-13.5,11.1-24.6,24.6-24.6h90.3
				c13.5,0,24.6,11.1,24.6,24.6v0.6C481.2,448.8,470.1,459.9,456.6,459.9z"/>
			<g>
				<path class="st3" d="M456.6,444.9h-90.3c-13.5,0-24.6-11.1-24.6-24.6v-0.6c0-13.5,11.1-24.6,24.6-24.6h90.3
					c13.5,0,24.6,11.1,24.6,24.6v0.6C481.2,433.9,470.1,444.9,456.6,444.9z"/>
				<path class="st7" d="M456.3,425h-89.7c-10.2,0-18.9-6.2-22.8-14.9c-1.3,3.1-2.1,6.4-2.1,10c0,13.7,11.2,24.9,24.9,24.9h89.7
					c13.7,0,24.9-11.2,24.9-24.9c0-3.5-0.8-6.9-2.1-10C475.2,418.8,466.5,425,456.3,425z"/>
				<path class="st8" d="M443.9,415h-65c-4.1,0-7.4-3.3-7.4-7.4v-0.2c0-4.1,3.3-7.4,7.4-7.4h65c4.1,0,7.4,3.3,7.4,7.4v0.2
					C451.3,411.7,448,415,443.9,415z"/>
			</g>
		</g>
		<g>
			<path class="st1" d="M705.8,459.9h-90.3c-13.5,0-24.6-11.1-24.6-24.6v-0.6c0-13.5,11.1-24.6,24.6-24.6h90.3
				c13.5,0,24.6,11.1,24.6,24.6v0.6C730.4,448.8,719.3,459.9,705.8,459.9z"/>
			<g>
				<path class="st3" d="M705.8,444.9h-90.3c-13.5,0-24.6-11.1-24.6-24.6v-0.6c0-13.5,11.1-24.6,24.6-24.6h90.3
					c13.5,0,24.6,11.1,24.6,24.6v0.6C730.4,433.9,719.3,444.9,705.8,444.9z"/>
				<path class="st7" d="M705.5,425h-89.7c-10.2,0-18.9-6.2-22.8-14.9c-1.3,3.1-2.1,6.4-2.1,10c0,13.7,11.2,24.9,24.9,24.9h89.7
					c13.7,0,24.9-11.2,24.9-24.9c0-3.5-0.8-6.9-2.1-10C724.4,418.8,715.6,425,705.5,425z"/>
				<path class="st8" d="M693.1,415h-65c-4.1,0-7.4-3.3-7.4-7.4v-0.2c0-4.1,3.3-7.4,7.4-7.4h65c4.1,0,7.4,3.3,7.4,7.4v0.2
					C700.5,411.7,697.2,415,693.1,415z"/>
			</g>
		</g>
	</g>
	<g>
		<path class="st9" d="M696.4,367.2H375.7c-1.2,0-2.1-1-2.1-2.1V365c0-1.2,1-2.1,2.1-2.1h320.7c1.2,0,2.1,1,2.1,2.1v0.1
			C698.5,366.2,697.6,367.2,696.4,367.2z"/>
		<path class="st9" d="M696.4,345.5H375.7c-1.2,0-2.1-1-2.1-2.1v-0.1c0-1.2,1-2.1,2.1-2.1h320.7c1.2,0,2.1,1,2.1,2.1v0.1
			C698.5,344.6,697.6,345.5,696.4,345.5z"/>
		<path class="st9" d="M696.4,323.9H375.7c-1.2,0-2.1-1-2.1-2.1v-0.1c0-1.2,1-2.1,2.1-2.1h320.7c1.2,0,2.1,1,2.1,2.1v0.1
			C698.5,322.9,697.6,323.9,696.4,323.9z"/>
	</g>
	<g>
		<path class="st10" d="M583.9,627.2h-95.7c-9.5,0-17.1-7.7-17.1-17.1v-0.4c0-9.5,7.7-17.1,17.1-17.1h95.7c9.5,0,17.1,7.7,17.1,17.1
			v0.4C601,619.5,593.4,627.2,583.9,627.2z"/>
		<path class="st1" d="M536.6,644.5h-1.1c-25.1,0-45.4-20.3-45.4-45.4v-60.8c0-25.1,20.3-45.4,45.4-45.4h1.1
			c25.1,0,45.4,20.3,45.4,45.4v60.8C582,624.2,561.7,644.5,536.6,644.5z"/>
	</g>
	<g>
		<path class="st1" d="M740.4,479.8H578.5c-13.9,0-25.8,8.3-31.3,20.1h-22.4c-5.4-11.9-17.4-20.1-31.3-20.1H331.6
			c-19,0-34.4,15.4-34.4,34.4V558c0,19,15.4,34.4,34.4,34.4h161.9c19,0,34.4-15.4,34.4-34.4v-42h16.1v42c0,19,15.4,34.4,34.4,34.4
			h161.9c19,0,34.4-15.4,34.4-34.4v-43.8C774.9,495.2,759.4,479.8,740.4,479.8z M514.6,558c0,11.6-9.4,21-21,21H331.6
			c-11.6,0-21-9.4-21-21v-43.8c0-11.6,9.4-21,21-21h161.9c11.6,0,21,9.4,21,21V558z M761.4,558c0,11.6-9.4,21-21,21H578.5
			c-11.6,0-21-9.4-21-21v-43.8c0-11.6,9.4-21,21-21h161.9c11.6,0,21,9.4,21,21V558z"/>
		<g>
			<path class="st11" d="M800.5,503h-32.3v-16.1h32.3c4.4,0,8,3.6,8,8v0.2C808.4,499.4,804.8,503,800.5,503z"/>
			<path class="st11" d="M271.6,486.9h32.3V503h-32.3c-4.4,0-8-3.6-8-8v-0.2C263.7,490.5,267.2,486.9,271.6,486.9z"/>
		</g>
		<path class="st12" d="M493.6,480.2H331.6c-11.6,0-21,9.4-21,21V545c0,11.6,9.4,21,21,21h161.9c11.6,0,21-9.4,21-21v-43.8
			C514.6,489.6,505.1,480.2,493.6,480.2z"/>
		<path class="st6" d="M493.6,466.8H331.6c-19,0-34.4,15.4-34.4,34.4V545c0,19,15.4,34.4,34.4,34.4h161.9c19,0,34.4-15.4,34.4-34.4
			v-43.8C528,482.2,512.5,466.8,493.6,466.8z M514.6,545c0,11.6-9.4,21-21,21H331.6c-11.6,0-21-9.4-21-21v-43.8c0-11.6,9.4-21,21-21
			h161.9c11.6,0,21,9.4,21,21V545z"/>
		<path class="st12" d="M740.4,480.2H578.5c-11.6,0-21,9.4-21,21V545c0,11.6,9.4,21,21,21h161.9c11.6,0,21-9.4,21-21v-43.8
			C761.4,489.6,752,480.2,740.4,480.2z"/>
		<path class="st6" d="M740.4,466.8H578.5c-19,0-34.4,15.4-34.4,34.4V545c0,19,15.4,34.4,34.4,34.4h161.9c19,0,34.4-15.4,34.4-34.4
			v-43.8C774.9,482.2,759.4,466.8,740.4,466.8z M761.4,545c0,11.6-9.4,21-21,21H578.5c-11.6,0-21-9.4-21-21v-43.8
			c0-11.6,9.4-21,21-21h161.9c11.6,0,21,9.4,21,21V545z"/>
		<g class="st13">
			<path class="st14" d="M331.6,480.2c-11.6,0-21,9.4-21,21V545c0,6.4,2.9,12.2,7.5,16.1l80.9-80.9H331.6z"/>
			<path class="st14" d="M578.5,480.2c-11.6,0-21,9.4-21,21V545c0,6.4,2.9,12.2,7.5,16.1l80.9-80.9H578.5z"/>
		</g>
		<g class="st15">
			<path class="st14" d="M493.6,480.2h-71.8l-85.9,85.9h98.7l76.5-76.5C507.3,483.9,500.8,480.2,493.6,480.2z"/>
			<path class="st14" d="M740.4,480.2h-71.8l-85.9,85.9h98.7l76.5-76.5C754.2,483.9,747.7,480.2,740.4,480.2z"/>
		</g>
		<rect x="521.3" y="486.9" class="st6" width="29.5" height="16.1"/>
	</g>
	<g>
		<path class="st16" d="M578.6,764h-85.1c-45.3,0-82.1-36.8-82.1-82.1v-1h249.3v1C660.7,727.3,623.9,764,578.6,764z"/>
		<path class="st17" d="M602.8,739.1H469.3c-11.3,0-20.5-9.2-20.5-20.5v-0.5c0-11.3,9.2-20.5,20.5-20.5h133.4
			c11.3,0,20.5,9.2,20.5,20.5v0.5C623.3,729.9,614.1,739.1,602.8,739.1z"/>
		<g>
			<path class="st14" d="M632.1,710H440c-7.8,0-14-6.3-14-14v-15h220.2v15C646.1,703.7,639.8,710,632.1,710z"/>
			<rect x="425.9" y="680.9" class="st18" width="220.2" height="12.5"/>
		</g>
		<path class="st19" d="M654.8,730.8H515.1c-16.4,0-29.8,13.3-29.8,29.8v3.5H602C625.3,764,645.3,750.4,654.8,730.8z"/>
		<path class="st20" d="M605.8,747.4h-87.3c-2.3,0-4.1-1.8-4.1-4.1v-0.1c0-2.3,1.8-4.1,4.1-4.1h87.3c2.3,0,4.1,1.8,4.1,4.1v0.1
			C609.9,745.6,608.1,747.4,605.8,747.4z"/>
	</g>
	<g>
		<polygon class="st21" points="585,1038.8 787.3,1038.8 787.3,1147.1 476.7,1147.1 		"/>
		<polygon class="st22" points="487.1,1038.8 284.7,1038.8 284.7,1147.1 595.4,1147.1 		"/>
	</g>
</g>
</svg>
