<?xml version="1.0" encoding="utf-8"?>
<!-- Generator: Adobe Illustrator 25.4.1, SVG Export Plug-In . SVG Version: 6.00 Build 0)  -->
<svg version="1.1" id="Layer_1" xmlns="http://www.w3.org/2000/svg" xmlns:xlink="http://www.w3.org/1999/xlink" x="0px" y="0px"
	 viewBox="0 0 1080 1080" style="enable-background:new 0 0 1080 1080;" xml:space="preserve">
<style type="text/css">
	.st0{fill:#EABA96;}
	.st1{fill:#D66166;}
	.st2{fill:#DF8D78;}
	.st3{fill:#5B74AF;}
	.st4{fill:#062135;}
	.st5{fill:#0D323F;}
	.st6{fill:#FFFFFF;}
	.st7{fill:#58626E;}
	.st8{fill:#71162B;}
	.st9{fill:#CC2047;}
</style>
<path class="st0" d="M871,555.6c0,36.4-29.5,65.9-65.9,65.9c-36.4,0-65.9-29.5-65.9-65.9c0-36.4,29.5-65.9,65.9-65.9
	C841.5,489.7,871,519.2,871,555.6z"/>
<path class="st1" d="M834,555.6c0,15.9-12.9,28.9-28.9,28.9c-15.9,0-28.9-12.9-28.9-28.9c0-15.9,12.9-28.9,28.9-28.9
	C821.1,526.7,834,539.7,834,555.6z"/>
<path class="st0" d="M333.8,555.6c0,36.4-29.5,65.9-65.9,65.9c-36.4,0-65.9-29.5-65.9-65.9c0-36.4,29.5-65.9,65.9-65.9
	C304.3,489.7,333.8,519.2,333.8,555.6z"/>
<path class="st1" d="M296.8,555.6c0,15.9-12.9,28.9-28.9,28.9c-15.9,0-28.9-12.9-28.9-28.9c0-15.9,12.9-28.9,28.9-28.9
	C283.8,526.7,296.8,539.7,296.8,555.6z"/>
<rect x="370.3" y="714.1" class="st2" width="332.5" height="386.9"/>
<path class="st0" d="M805.1,649.8c0,148.4-120.3,268.6-268.6,268.6l0,0c-148.4,0-268.6-120.3-268.6-268.6V389.2
	c0-148.4,120.3-268.6,268.6-268.6l0,0c148.3,0,268.6,120.3,268.6,268.6V649.8z"/>
<path class="st3" d="M770.7,1081.3c0,22.9-18.6,41.5-41.5,41.5H343.8c-22.9,0-41.5-18.6-41.5-41.5l0,0c0-22.9,18.6-41.5,41.5-41.5
	h385.4C752.1,1039.8,770.7,1058.4,770.7,1081.3L770.7,1081.3z"/>
<path class="st0" d="M805.1,649.8c0,148.4-120.3,268.6-268.6,268.6l0,0c-148.4,0-268.6-120.3-268.6-268.6V389.2
	c0-148.4,120.3-268.6,268.6-268.6l0,0c148.4,0,268.6,120.3,268.6,268.6V649.8z"/>
<path class="st2" d="M307.7,467.6V248.4c-25.2,40.9-39.8,89.1-39.8,140.8V527C291.3,517.4,307.7,494.4,307.7,467.6z"/>
<path class="st2" d="M765.3,467.6V248.4c25.2,40.9,39.8,89.1,39.8,140.8V527C781.8,517.4,765.3,494.4,765.3,467.6z"/>
<path class="st4" d="M804.9,234.1c-4.4-94.4-82.3-169.5-177.8-169.5H573L536.5,101V64.5H330.1h-178v178c0,98.3,79.7,178,178,178
	l18.2,0v-93.3l68.6,68.6v-28l52.4,52.4l335.8-0.6V234.1H804.9z"/>
<path class="st5" d="M665.9,168.9c0,13.4-10.8,24.2-24.2,24.2H263.2c-13.3,0-24.2-10.8-24.2-24.2l0,0c0-13.4,10.8-24.2,24.2-24.2
	h378.5C655.1,144.7,665.9,155.6,665.9,168.9L665.9,168.9z"/>
<path class="st6" d="M741.5,528.3c0,41.7-33.8,75.6-75.6,75.6c-41.7,0-75.6-33.8-75.6-75.6c0-41.7,33.8-75.6,75.6-75.6
	C707.6,452.7,741.5,486.5,741.5,528.3z"/>
<path class="st4" d="M681.8,528.3c0,8.8-7.1,15.9-15.9,15.9c-8.8,0-15.9-7.1-15.9-15.9c0-8.8,7.1-15.9,15.9-15.9
	C674.7,512.4,681.8,519.5,681.8,528.3z"/>
<path class="st7" d="M757.9,248.4c0,18.7-15.1,33.8-33.8,33.8H607.7c-18.7,0-33.8-15.1-33.8-33.8l0,0c0-18.7,15.1-33.8,33.8-33.8
	h116.3C742.7,214.6,757.9,229.7,757.9,248.4L757.9,248.4z"/>
<path class="st6" d="M477.9,528.3c0,41.7-33.8,75.6-75.6,75.6c-41.7,0-75.6-33.8-75.6-75.6c0-41.7,33.8-75.6,75.6-75.6
	C444,452.7,477.9,486.5,477.9,528.3z"/>
<path class="st4" d="M418.2,528.3c0,8.8-7.1,15.9-15.9,15.9c-8.8,0-15.9-7.1-15.9-15.9c0-8.8,7.1-15.9,15.9-15.9
	C411.1,512.4,418.2,519.5,418.2,528.3z"/>
<path class="st7" d="M494.3,248.4c0,18.7-15.1,33.8-33.8,33.8H344.2c-18.7,0-33.8-15.1-33.8-33.8l0,0c0-18.7,15.1-33.8,33.8-33.8
	h116.3C479.1,214.6,494.3,229.7,494.3,248.4L494.3,248.4z"/>
<path class="st2" d="M515.3,621.5c0,6.5-5.2,11.7-11.7,11.7c-6.4,0-11.7-5.2-11.7-11.7c0-6.5,5.2-11.7,11.7-11.7
	C510.1,609.8,515.3,615.1,515.3,621.5z"/>
<path class="st2" d="M581.1,621.5c0,6.5-5.2,11.7-11.7,11.7s-11.7-5.2-11.7-11.7c0-6.5,5.2-11.7,11.7-11.7S581.1,615.1,581.1,621.5z
	"/>
<path class="st8" d="M524.8,718.6c0,28.1-22.7,50.8-50.8,50.8c-28.1,0-50.8-22.7-50.8-50.8s22.7-50.8,50.8-50.8
	C502.1,667.8,524.8,690.6,524.8,718.6z"/>
<path class="st9" d="M523.7,729.2c-7.2-6.5-16.8-10.5-27.4-10.5c-22.6,0-40.9,18.3-40.9,40.9c0,2.2,0.2,4.4,0.6,6.6
	c5.6,2.1,11.7,3.3,18,3.3C498.5,769.4,518.9,752.1,523.7,729.2z"/>
</svg>
