<svg xmlns="http://www.w3.org/2000/svg" xmlns:xlink="http://www.w3.org/1999/xlink" width="1080" height="1080" viewBox="0 0 1080 1080">
  <defs>
    <clipPath id="clip-path">
      <circle id="椭圆_129" data-name="椭圆 129" cx="540" cy="540" r="540" transform="translate(1 -2.3)"/>
    </clipPath>
    <clipPath id="clip-path-2">
      <circle id="椭圆_130" data-name="椭圆 130" cx="540" cy="540" r="540" transform="translate(-2.3 1.1)"/>
    </clipPath>
  </defs>
  <g id="face_2" transform="translate(2.3 -1.1)">
    <g id="组_372" data-name="组 372" transform="translate(-3.3 3.4)" clip-path="url(#clip-path)">
      <rect id="矩形_294" data-name="矩形 294" width="1084.6" height="1082.3" fill="#fff"/>
    </g>
    <g id="组_377" data-name="组 377" clip-path="url(#clip-path-2)">
      <g id="组_373" data-name="组 373">
        <path id="路径_835" data-name="路径 835" d="M832.3,642.1H247.8A51.128,51.128,0,0,1,196.7,591h0a51.128,51.128,0,0,1,51.1-51.1H832.3A51.128,51.128,0,0,1,883.4,591h0A51.128,51.128,0,0,1,832.3,642.1Z" fill="#f4b497"/>
        <path id="路径_836" data-name="路径 836" d="M832.3,590.2H247.8a51.167,51.167,0,0,1-44-25.1,50.812,50.812,0,0,0-7.1,25.9h0a51.128,51.128,0,0,0,51.1,51.1H832.3A51.128,51.128,0,0,0,883.4,591h0a50.541,50.541,0,0,0-7.1-25.9A50.919,50.919,0,0,1,832.3,590.2Z" fill="#ee927e"/>
      </g>
      <path id="路径_837" data-name="路径 837" d="M735.9,749.2H344.3A101.189,101.189,0,0,1,243.1,648V488.7h594V648A101.189,101.189,0,0,1,735.9,749.2Z"/>
      <rect id="矩形_295" data-name="矩形 295" width="337.8" height="441.5" transform="translate(371.2 720.6)" fill="#ee927e"/>
      <path id="路径_838" data-name="路径 838" d="M550.8,1066.3H529.3A158.163,158.163,0,0,1,371.1,908.1V755.2H709V908.1A158.163,158.163,0,0,1,550.8,1066.3Z" fill="#ec8178"/>
      <path id="路径_839" data-name="路径 839" d="M540.1,976.8h0c-146.2,0-264.8-118.5-264.8-264.8V430.7c0-146.2,118.5-264.8,264.8-264.8h0c146.2,0,264.8,118.5,264.8,264.8V712C804.8,858.2,686.3,976.8,540.1,976.8Z" fill="#f6c09c"/>
      <path id="路径_840" data-name="路径 840" d="M804.8,575.5V430.7c0-146.2-118.5-264.8-264.8-264.8h0c-146.2,0-264.8,118.5-264.8,264.8V575.5Z" fill="#f4b497"/>
      <path id="路径_841" data-name="路径 841" d="M540.1,877.8h0c-146.2,0-264.8-118.5-264.8-264.8v99c0,146.2,118.5,264.8,264.8,264.8h0c146.2,0,264.8-118.5,264.8-264.8V613C804.8,759.2,686.3,877.8,540.1,877.8Z" fill="#f4b497"/>
      <rect id="矩形_296" data-name="矩形 296" width="443.1" height="103.7" transform="translate(318.5 1108.7)" fill="#0980b7"/>
      <g id="组_376" data-name="组 376">
        <g id="组_374" data-name="组 374">
          <path id="路径_842" data-name="路径 842" d="M445.8,575.4a17.3,17.3,0,1,1-17.3-17.3A17.306,17.306,0,0,1,445.8,575.4Z" fill="#002539"/>
        </g>
        <g id="组_375" data-name="组 375">
          <path id="路径_843" data-name="路径 843" d="M668.9,575.4a17.3,17.3,0,1,1-17.3-17.3A17.306,17.306,0,0,1,668.9,575.4Z" fill="#002539"/>
        </g>
      </g>
      <path id="路径_844" data-name="路径 844" d="M419.9,642.1v.8a120.2,120.2,0,1,0,240.4,0v-.8Z" fill="#fff"/>
      <path id="路径_845" data-name="路径 845" d="M540.1,127.4h0C358.9,127.4,212,274.3,212,455.5v83.6H469.3V442.6l68.6,68.6V476.9l62.2,62.2h268V455.5C868.2,274.3,721.3,127.4,540.1,127.4Z" fill="#002539"/>
    </g>
  </g>
</svg>
