<svg xmlns="http://www.w3.org/2000/svg" xmlns:xlink="http://www.w3.org/1999/xlink" width="1080" height="1080" viewBox="0 0 1080 1080">
  <defs>
    <clipPath id="clip-path">
      <circle id="椭圆_131" data-name="椭圆 131" cx="540" cy="540" r="540" transform="translate(1 -2.3)"/>
    </clipPath>
    <clipPath id="clip-path-2">
      <circle id="椭圆_137" data-name="椭圆 137" cx="540" cy="540" r="540" transform="translate(-2.3 1.1)"/>
    </clipPath>
  </defs>
  <g id="face_3" transform="translate(2.3 -1.1)">
    <g id="组_378" data-name="组 378" transform="translate(-3.3 3.4)" clip-path="url(#clip-path)">
      <rect id="矩形_297" data-name="矩形 297" width="1084.6" height="1082.3" fill="#fff"/>
    </g>
    <g id="组_386" data-name="组 386" clip-path="url(#clip-path-2)">
      <g id="组_379" data-name="组 379">
        <path id="路径_846" data-name="路径 846" d="M833.4,640H246.8a51.256,51.256,0,0,1-51.2-51.3h0a51.171,51.171,0,0,1,51.2-51.2H833.5a51.235,51.235,0,0,1,51.2,51.2h0A51.341,51.341,0,0,1,833.4,640Z" fill="#f4b497"/>
        <path id="路径_847" data-name="路径 847" d="M833.4,587.9H246.8a51.084,51.084,0,0,1-44.1-25.2,50.9,50.9,0,0,0-7.1,26h0A51.256,51.256,0,0,0,246.8,640H833.5a51.256,51.256,0,0,0,51.2-51.3h0a50.9,50.9,0,0,0-7.1-26A51.25,51.25,0,0,1,833.4,587.9Z" fill="#ee927e"/>
      </g>
      <g id="组_381" data-name="组 381">
        <g id="组_380" data-name="组 380">
          <path id="路径_848" data-name="路径 848" d="M1111.9,184.5a76.324,76.324,0,0,0-29.6-48.1,76.836,76.836,0,0,0-52.5-90.9,76.738,76.738,0,0,0-80.4-67.4,76.616,76.616,0,0,0-42.2-37.5,76.147,76.147,0,0,0-56.4,1.6,76.375,76.375,0,0,0-52.5-20.8,76.56,76.56,0,0,0-52.5,20.8,76.64,76.64,0,0,0-56.4-1.6,76.25,76.25,0,0,0-42.2,37.5,76.738,76.738,0,0,0-80.4,67.4,76.836,76.836,0,0,0-52.5,90.9,76.872,76.872,0,0,0-18.2,103.4,76.872,76.872,0,0,0,18.2,103.4,76.836,76.836,0,0,0,52.5,90.9,76.738,76.738,0,0,0,80.4,67.4,76.655,76.655,0,0,0,98.6,35.8,76.656,76.656,0,0,0,105,0,76.572,76.572,0,0,0,98.6-35.9,76.738,76.738,0,0,0,80.4-67.4,76.836,76.836,0,0,0,52.5-90.9,76.76,76.76,0,0,0,18.3-103.4A76.738,76.738,0,0,0,1111.9,184.5Z" fill="#002539"/>
        </g>
        <path id="路径_849" data-name="路径 849" d="M595.3,184.5a76.616,76.616,0,0,0-29.5-48.1,76.658,76.658,0,0,0-52.5-90.8A76.792,76.792,0,0,0,486.4-4.1a76,76,0,0,0-53.5-17.8,76.616,76.616,0,0,0-42.2-37.5,76.147,76.147,0,0,0-56.4,1.6,76.375,76.375,0,0,0-52.5-20.8,76.56,76.56,0,0,0-52.5,20.8,76.64,76.64,0,0,0-56.4-1.6,76.25,76.25,0,0,0-42.2,37.5A76.738,76.738,0,0,0,50.3,45.5,76.836,76.836,0,0,0-2.2,136.4,76.872,76.872,0,0,0-20.4,239.8a76.132,76.132,0,0,0-11.3,55.3A77.04,77.04,0,0,0-2.2,343.2a76.836,76.836,0,0,0,52.5,90.9,76.738,76.738,0,0,0,80.4,67.4,76.655,76.655,0,0,0,98.6,35.8,76.656,76.656,0,0,0,105,0,76.572,76.572,0,0,0,98.6-35.9A76.738,76.738,0,0,0,513.3,434a76.836,76.836,0,0,0,52.5-90.9A76.872,76.872,0,0,0,584,239.7,76.253,76.253,0,0,0,595.3,184.5Z" fill="#002539"/>
      </g>
      <path id="路径_850" data-name="路径 850" d="M1111.9,184.5a76.324,76.324,0,0,0-29.6-48.1,76.836,76.836,0,0,0-52.5-90.9,76.738,76.738,0,0,0-80.4-67.4,76.616,76.616,0,0,0-42.2-37.5,76.147,76.147,0,0,0-56.4,1.6,76.375,76.375,0,0,0-52.5-20.8,76.56,76.56,0,0,0-52.5,20.8,76.64,76.64,0,0,0-56.4-1.6,76.25,76.25,0,0,0-42.2,37.5,76.738,76.738,0,0,0-80.4,67.4A76.679,76.679,0,0,0,540,59.9a76.679,76.679,0,0,0-26.8-14.4,76.554,76.554,0,0,0-80.3-67.4,76.616,76.616,0,0,0-42.2-37.5,76.147,76.147,0,0,0-56.4,1.6,76.29,76.29,0,0,0-52.5-20.7,76.56,76.56,0,0,0-52.5,20.8,76.64,76.64,0,0,0-56.4-1.6,76.25,76.25,0,0,0-42.2,37.5A76.76,76.76,0,0,0,50.3,45.5,76.836,76.836,0,0,0-2.2,136.4,76.872,76.872,0,0,0-20.4,239.8a76.132,76.132,0,0,0-11.3,55.3A77.04,77.04,0,0,0-2.2,343.2a76.836,76.836,0,0,0,52.5,90.9,76.738,76.738,0,0,0,80.4,67.4,76.655,76.655,0,0,0,98.6,35.8,76.656,76.656,0,0,0,105,0,76.572,76.572,0,0,0,98.6-35.9A76.738,76.738,0,0,0,513.3,434a76.678,76.678,0,0,0,26.8-14.4A76.678,76.678,0,0,0,566.9,434a76.738,76.738,0,0,0,80.4,67.4,76.572,76.572,0,0,0,98.6,35.9,76.656,76.656,0,0,0,105,0,76.572,76.572,0,0,0,98.6-35.9,76.738,76.738,0,0,0,80.4-67.4,76.836,76.836,0,0,0,52.5-90.9,76.76,76.76,0,0,0,18.3-103.4A77.189,77.189,0,0,0,1111.9,184.5Z" fill="#002539"/>
      <path id="路径_851" data-name="路径 851" d="M1111.9,184.5a75.226,75.226,0,0,0-6-19,76.412,76.412,0,0,1-23.6,29.1,76.836,76.836,0,0,1-52.5,90.9,76.738,76.738,0,0,1-80.4,67.4,76.572,76.572,0,0,1-98.6,35.9,76.656,76.656,0,0,1-105,0,76.572,76.572,0,0,1-98.6-35.9,76.738,76.738,0,0,1-80.4-67.4A76.678,76.678,0,0,1,540,271.1a76.678,76.678,0,0,1-26.8,14.4,76.738,76.738,0,0,1-80.4,67.4,76.572,76.572,0,0,1-98.6,35.9,76.656,76.656,0,0,1-105,0,76.572,76.572,0,0,1-98.6-35.9,76.738,76.738,0,0,1-80.4-67.4A76.476,76.476,0,0,1-2.1,194.6a76.412,76.412,0,0,1-23.6-29.1,79.483,79.483,0,0,0-6,19,76.613,76.613,0,0,0,11.3,55.3,76.132,76.132,0,0,0-11.3,55.3A77.04,77.04,0,0,0-2.2,343.2a76.836,76.836,0,0,0,52.5,90.9,76.738,76.738,0,0,0,80.4,67.4,76.572,76.572,0,0,0,98.6,35.9,76.656,76.656,0,0,0,105,0,76.572,76.572,0,0,0,98.6-35.9,76.738,76.738,0,0,0,80.4-67.4,76.678,76.678,0,0,0,26.8-14.4,76.678,76.678,0,0,0,26.8,14.4,76.738,76.738,0,0,0,80.4,67.4,76.572,76.572,0,0,0,98.6,35.9,76.656,76.656,0,0,0,105,0,76.572,76.572,0,0,0,98.6-35.9,76.738,76.738,0,0,0,80.4-67.4,76.836,76.836,0,0,0,52.5-90.9,76.76,76.76,0,0,0,18.3-103.4A77.556,77.556,0,0,0,1111.9,184.5Z"/>
      <rect id="矩形_298" data-name="矩形 298" width="339.1" height="443.2" transform="translate(370.5 718.8)" fill="#ee927e"/>
      <path id="路径_852" data-name="路径 852" d="M550.9,1065.8H529.4A158.8,158.8,0,0,1,370.6,907V753.5H709.7V907C709.6,994.7,638.5,1065.8,550.9,1065.8Z" fill="#ec8178"/>
      <path id="路径_853" data-name="路径 853" d="M540.1,975.9h0c-146.8,0-265.7-119-265.7-265.7V470.9c0-146.8,119-265.7,265.7-265.7h0c146.8,0,265.7,119,265.7,265.7V710.1C805.8,856.9,686.8,975.9,540.1,975.9Z" fill="#f6c09c"/>
      <path id="路径_854" data-name="路径 854" d="M540.1,876.5h0c-146.8,0-265.7-119-265.7-265.7v99.4c0,146.8,119,265.7,265.7,265.7h0c146.8,0,265.7-119,265.7-265.7V610.8C805.8,757.5,686.8,876.5,540.1,876.5Z" fill="#f4b497"/>
      <rect id="矩形_299" data-name="矩形 299" width="444.7" height="104.1" transform="translate(317.7 1108.4)" fill="#0980b7"/>
      <g id="组_385" data-name="组 385">
        <path id="路径_855" data-name="路径 855" d="M419.5,640v.8a120.7,120.7,0,0,0,241.4,0V640Z" fill="#fff"/>
        <path id="路径_856" data-name="路径 856" d="M590.3,509.8h0a71.159,71.159,0,0,0-100.5,0h0L240.3,759.4l22.1,22.1a110.873,110.873,0,0,0,156.8,0l121-121,121,121a110.873,110.873,0,0,0,156.8,0l22.1-22.1Z" fill="#0b3442"/>
        <path id="路径_857" data-name="路径 857" d="M540.2,620.6a80.684,80.684,0,0,0,80.7-80.2l-30.6-30.6h0a71.159,71.159,0,0,0-100.5,0l-30.4,30.4A80.876,80.876,0,0,0,540.2,620.6Z"/>
        <path id="路径_858" data-name="路径 858" d="M661.1,714.7l-121-121-121,121a110.816,110.816,0,0,1-144.6,10.5l-34.2,34.2,22.1,22.1a110.873,110.873,0,0,0,156.8,0l121-121,121,121a110.873,110.873,0,0,0,156.8,0l22.1-22.1-34.2-34.2A110.944,110.944,0,0,1,661.1,714.7Z"/>
        <circle id="椭圆_132" data-name="椭圆 132" cx="80.7" cy="80.7" r="80.7" transform="translate(425.937 490.313) rotate(-45)" fill="#f6c09c"/>
        <g id="组_384" data-name="组 384">
          <g id="组_382" data-name="组 382">
            <circle id="椭圆_133" data-name="椭圆 133" cx="17.3" cy="17.3" r="17.3" transform="translate(410.8 491.2)" fill="#002539"/>
            <path id="路径_859" data-name="路径 859" d="M458.9,488H397.4a22.107,22.107,0,0,1-22.1-22.1h0a22.107,22.107,0,0,1,22.1-22.1h61.5A22.107,22.107,0,0,1,481,465.9h0A22.171,22.171,0,0,1,458.9,488Z" fill="#f2a491"/>
            <path id="路径_860" data-name="路径 860" d="M458.9,461.1H397.4A22.107,22.107,0,0,1,375.3,439h0a22.107,22.107,0,0,1,22.1-22.1h61.5A22.107,22.107,0,0,1,481,439h0A22.107,22.107,0,0,1,458.9,461.1Z" fill="#002539"/>
          </g>
          <g id="组_383" data-name="组 383">
            <path id="路径_861" data-name="路径 861" d="M669.4,508.5A17.3,17.3,0,1,1,652.1,491,17.543,17.543,0,0,1,669.4,508.5Z" fill="#002539"/>
            <path id="路径_862" data-name="路径 862" d="M682.8,488H621.3a22.107,22.107,0,0,1-22.1-22.1h0a22.107,22.107,0,0,1,22.1-22.1h61.5a22.107,22.107,0,0,1,22.1,22.1h0A22.107,22.107,0,0,1,682.8,488Z" fill="#f2a491"/>
            <path id="路径_863" data-name="路径 863" d="M682.8,461.1H621.3A22.107,22.107,0,0,1,599.2,439h0a22.107,22.107,0,0,1,22.1-22.1h61.5A22.107,22.107,0,0,1,704.9,439h0A22.043,22.043,0,0,1,682.8,461.1Z" fill="#002539"/>
          </g>
        </g>
      </g>
      <circle id="椭圆_134" data-name="椭圆 134" cx="58.1" cy="58.1" r="58.1" transform="translate(782.4 48.1)" fill="#0b3442"/>
      <circle id="椭圆_135" data-name="椭圆 135" cx="49.5" cy="49.5" r="49.5" transform="translate(175.4 63.1)" fill="#0b3442"/>
      <circle id="椭圆_136" data-name="椭圆 136" cx="23.7" cy="23.7" r="23.7" transform="translate(310.9 48)" fill="#0b3442"/>
    </g>
  </g>
</svg>
