<svg xmlns="http://www.w3.org/2000/svg" width="30.849" height="26.442" viewBox="0 0 30.849 26.442">
  <path id="Icon_metro-heartbeat" data-name="Icon metro-heartbeat" d="M29.856,19.831a1.747,1.747,0,0,1-.172.181q-.086.077-.155.129l-.052.069L18.752,30.539a1.081,1.081,0,0,1-1.515,0L6.5,20.176a1.625,1.625,0,0,1-.362-.344h6.352a1.085,1.085,0,0,0,.68-.232A1.034,1.034,0,0,0,13.554,19l1.205-4.837L18.029,25.65a1.1,1.1,0,0,0,.4.568,1.075,1.075,0,0,0,.671.224,1.05,1.05,0,0,0,.654-.224,1.1,1.1,0,0,0,.4-.568L22.66,17.3l.964,1.928Zm3.563-7.368a9.358,9.358,0,0,1-1.773,5.164H25.294l-1.911-3.8a1.038,1.038,0,0,0-.439-.465,1.1,1.1,0,0,0-1.592.654l-2.221,7.4L15.757,9.606a1.081,1.081,0,0,0-.4-.568,1.112,1.112,0,0,0-.68-.224,1.076,1.076,0,0,0-1.05.826l-2,7.988H4.344a9.358,9.358,0,0,1-1.773-5.164A7.9,7.9,0,0,1,4.757,6.542,8.281,8.281,0,0,1,10.8,4.407a6.861,6.861,0,0,1,2.178.37,8.815,8.815,0,0,1,2.066,1Q16,6.4,16.687,6.955a15.876,15.876,0,0,1,1.308,1.171A15.856,15.856,0,0,1,19.3,6.955q.689-.551,1.644-1.179a8.813,8.813,0,0,1,2.066-1,6.862,6.862,0,0,1,2.178-.37,8.281,8.281,0,0,1,6.042,2.135,7.9,7.9,0,0,1,2.186,5.922Z" transform="translate(-2.571 -4.407)" fill="#8e8b91"/>
</svg>
