<svg xmlns="http://www.w3.org/2000/svg" xmlns:xlink="http://www.w3.org/1999/xlink" width="360.621" height="360.621" viewBox="0 0 360.621 360.621">
  <defs>
    <linearGradient id="linear-gradient" x1="0.458" y1="0.002" x2="0.541" y2="0.998" gradientUnits="objectBoundingBox">
      <stop offset="0" stop-color="#ff0a6c"/>
      <stop offset="1" stop-color="#2d27ff"/>
    </linearGradient>
  </defs>
  <g id="key" transform="translate(-10.364 0.323)">
    <g id="组_974" data-name="组 974">
      <path id="路径_1847" data-name="路径 1847" d="M190.8,49.3c-76.7,0-139.2,62.4-139.2,139.2,0,76.7,62.4,139.2,139.2,139.2,76.7,0,139.2-62.4,139.2-139.2S267.5,49.3,190.8,49.3Z" fill="#c8d1ff"/>
      <path id="路径_1848" data-name="路径 1848" d="M190.8,40.8C114.1,40.8,51.6,103.2,51.6,180c0,76.7,62.4,139.2,139.2,139.2C267.5,319.2,330,256.8,330,180S267.5,40.8,190.8,40.8Z" fill="url(#linear-gradient)"/>
      <path id="路径_1849" data-name="路径 1849" d="M318.1,180a127.227,127.227,0,0,1-13,56.2q-1.95,4.05-4.2,7.8a122.674,122.674,0,0,1-12.5,17.7c-.9,1-1.7,2-2.6,3-.8.9-1.7,1.9-2.5,2.8a29.488,29.488,0,0,1-2.5,2.5l-2.4,2.4c-.8.8-1.7,1.6-2.5,2.3A127.5,127.5,0,0,1,103,272.3l-2.4-2.4-.1-.1c-1.7-1.7-3.3-3.4-4.9-5.2-.9-1-1.7-1.9-2.5-2.9l-.1-.1A127.5,127.5,0,0,1,93,98l.1-.1c.8-1,1.7-2,2.5-2.9,1.6-1.8,3.2-3.5,4.9-5.2l.1-.1,2.4-2.4a127.5,127.5,0,0,1,172.9-2.4c.9.8,1.7,1.6,2.5,2.3l2.4,2.4c.8.8,1.6,1.7,2.5,2.5a33.289,33.289,0,0,1,2.5,2.8c.9,1,1.8,2,2.6,3A128.253,128.253,0,0,1,318.1,180Z" fill="#fff"/>
    </g>
    <g id="组_976" data-name="组 976">
      <circle id="椭圆_223" data-name="椭圆 223" cx="127.5" cy="127.5" r="127.5" transform="translate(10.365 179.988) rotate(-45)" fill="#eeeceb"/>
      <g id="组_975" data-name="组 975">
        <path id="路径_1850" data-name="路径 1850" d="M256.4,137l54.3-.1a126.339,126.339,0,0,0-10.6-22.3l-43.8.1Z" fill="#ded8d4"/>
        <path id="路径_1851" data-name="路径 1851" d="M131.3,129.9l-57.9.1a127.078,127.078,0,0,0-7.2,22.4l65.1-.1Z" fill="#ded8d4"/>
        <path id="路径_1852" data-name="路径 1852" d="M144.1,241.1l-65.3.1a133.047,133.047,0,0,0,15.5,22.3l49.8-.1Z" fill="#ded8d4"/>
        <path id="路径_1853" data-name="路径 1853" d="M216.7,288.1h41.7a127.6,127.6,0,0,0,22.6-18c1.4-1.4,2.8-2.9,4.1-4.4l-68.4.1Z" fill="#ded8d4"/>
        <path id="路径_1854" data-name="路径 1854" d="M231.7,184.2l86.4-.1a138.341,138.341,0,0,0-1.2-22.3l-85.2.1Z" fill="#ded8d4"/>
        <path id="路径_1855" data-name="路径 1855" d="M194.7,77.9l-80.5.1a128.858,128.858,0,0,0-13.8,12,130.343,130.343,0,0,0-9.3,10.4l103.6-.1Z" fill="#ded8d4"/>
      </g>
      <path id="路径_1856" data-name="路径 1856" d="M283,218.8l-12.4-12.4,5.5-5.6L260.3,185l-10.7,10.7-5.1-5.1-14-13.9a38.089,38.089,0,0,0-11.1-22.1,39.023,39.023,0,0,0-3.8-3.3V111.1A12.163,12.163,0,0,0,203.4,99h0a12.163,12.163,0,0,0-12.1,12.2v6.3l-6.4-19.7a12.144,12.144,0,1,0-23.1,7.5l5.5,16.8L148,102.7a12.253,12.253,0,0,0-17.2,0h0a12.253,12.253,0,0,0,0,17.2l30.9,30.8h-.5c-.6.1-1.1.1-1.7.2h-.3c-.5.1-1.1.2-1.6.3-.1,0-.2.1-.4.1l-1.5.3c-.1,0-.3.1-.4.1a5.733,5.733,0,0,0-1.4.4c-.2.1-.3.1-.5.2-.4.1-.9.3-1.3.4-.2.1-.4.1-.6.2-.4.2-.8.3-1.3.5l-.6.3c-.4.2-.8.3-1.2.5-.2.1-.5.2-.7.3-.4.2-.7.3-1.1.5-.2.1-.5.3-.7.4-.3.2-.7.4-1,.6s-.5.3-.8.5l-.9.6a5.545,5.545,0,0,0-.8.6c-.3.2-.5.4-.8.6s-.6.5-.9.7a3.039,3.039,0,0,1-.7.5c-.3.3-.7.6-1,.9-.2.2-.4.3-.5.5-.5.5-1,.9-1.5,1.4a39.687,39.687,0,0,0-11.4,23.2,39.649,39.649,0,0,0-3.8,77.2v24.5a126.834,126.834,0,0,0,41.4,17.2V293.8H143.5V262.7a39.884,39.884,0,0,0,28.4-32.4h.3a.367.367,0,0,0,.3-.1,40.206,40.206,0,0,0,19.2-9.1,40.1,40.1,0,0,0,15.9-3.3l4.9,4.9h0l5.1,5.1L204,241.5l15.8,15.8,6.4-6.4L261.4,286a126.488,126.488,0,0,0,18.1-14.7,127.2,127.2,0,0,0,19.1-36.9Z" fill="#ded8d4"/>
      <path id="路径_1857" data-name="路径 1857" d="M312,219.3l-28.1-28-44.4,44.5,37.8,37.7c1.2-1.1,2.4-2.3,3.6-3.5A126.462,126.462,0,0,0,312,219.3Z" fill="#27b4e8"/>
      <path id="路径_1858" data-name="路径 1858" d="M216.8,164.8h0a12.228,12.228,0,0,1-12.2-12.1V96a12.228,12.228,0,0,1,12.1-12.2h0a12.228,12.228,0,0,1,12.2,12.1l.1,56.7A12.314,12.314,0,0,1,216.8,164.8Z" fill="#e65164"/>
      <path id="路径_1859" data-name="路径 1859" d="M207.9,151.7h0a12.107,12.107,0,0,1-15.3-7.8L175.1,90a12.107,12.107,0,0,1,7.8-15.3h0a12.107,12.107,0,0,1,15.3,7.8l17.5,53.9A12.107,12.107,0,0,1,207.9,151.7Z" fill="#e8676a"/>
      <path id="路径_1860" data-name="路径 1860" d="M197.7,109.5h0a3.969,3.969,0,0,1-5-2.6l-5.8-17.7a3.969,3.969,0,0,1,2.6-5h0a3.969,3.969,0,0,1,5,2.6l5.8,17.7A4.051,4.051,0,0,1,197.7,109.5Z" fill="#ed927f"/>
      <path id="路径_1861" data-name="路径 1861" d="M207.2,204a40.227,40.227,0,0,1-56.8.1,10.607,10.607,0,0,1,15-15,19.021,19.021,0,1,0,0-26.9,18.671,18.671,0,0,0-5.5,12.4,10.564,10.564,0,0,1-21.1-1.1,40.211,40.211,0,0,1,68.5-26.3A40.319,40.319,0,0,1,207.2,204Z" fill="#ed927f"/>
      <path id="路径_1862" data-name="路径 1862" d="M165.3,189.1a10.623,10.623,0,0,0-15.1.1c-4.1,4.2-3.7,11.1.5,15.2A40.09,40.09,0,0,0,188,214.6a10.529,10.529,0,0,0,4.9-17.7h0a10.252,10.252,0,0,0-9.7-2.8A19.139,19.139,0,0,1,165.3,189.1Z" fill="#e8676a"/>
      <path id="路径_1863" data-name="路径 1863" d="M177.7,139.5l-1.2,1.2A39,39,0,0,1,196,204.9a38.937,38.937,0,1,0-18.3-65.4Z" fill="#ed927f"/>
      <path id="路径_1864" data-name="路径 1864" d="M201.4,144.8h0a12.161,12.161,0,0,1-17.2,0l-40.1-40a12.161,12.161,0,0,1,0-17.2h0a12.161,12.161,0,0,1,17.2,0l40.1,40A12.161,12.161,0,0,1,201.4,144.8Z" fill="#ed927f"/>
      <rect id="矩形_480" data-name="矩形 480" width="45.3" height="59.5" transform="translate(204.854 186.662) rotate(-45.065)" fill="#ed927f"/>
      <rect id="矩形_481" data-name="矩形 481" width="45.3" height="35.5" transform="translate(225.822 207.642) rotate(-45.065)" fill="#e8676a"/>
      <rect id="矩形_482" data-name="矩形 482" width="62.8" height="17.5" transform="translate(239.531 235.794) rotate(-45.065)" fill="#1691cf"/>
      <path id="路径_1865" data-name="路径 1865" d="M156.8,247.7a39.7,39.7,0,1,0-21.6,0l.1,79.8H157v-8.3h19.7V302.6H157v-7.1h19.7V278.9H157Zm-29.5-38.2a18.6,18.6,0,1,1,18.6,18.6A18.565,18.565,0,0,1,127.3,209.5Z" fill="#ffc93e"/>
      <rect id="矩形_483" data-name="矩形 483" width="79.7" height="22.4" transform="translate(217.284 226.403) rotate(-45.065)" fill="#27b4e8"/>
      <rect id="矩形_484" data-name="矩形 484" width="35" height="6.6" transform="translate(262.167 247.264) rotate(-45.065)" fill="#1691cf"/>
      <rect id="矩形_485" data-name="矩形 485" width="26.6" height="6.6" transform="translate(283.028 243.428) rotate(-45.065)" fill="#1691cf"/>
      <path id="路径_1866" data-name="路径 1866" d="M187.5,125.4h0a4.047,4.047,0,0,1-5.6,0L156.2,99.8a4.046,4.046,0,0,1,0-5.6h0a4.047,4.047,0,0,1,5.6,0l25.7,25.6A4.046,4.046,0,0,1,187.5,125.4Z" fill="#f4be9a"/>
      <rect id="矩形_486" data-name="矩形 486" width="6.9" height="63.4" transform="translate(139.662 254.404) rotate(-0.068)" fill="#fff"/>
      <path id="路径_1867" data-name="路径 1867" d="M146,244.6a35.252,35.252,0,0,1-35.2-35.2,38.05,38.05,0,0,1,1.1-8.9,4.6,4.6,0,1,1,8.9,2.3,28.4,28.4,0,0,0-.8,6.6,26.1,26.1,0,0,0,26.1,26,26.514,26.514,0,0,0,14.7-4.5,4.6,4.6,0,1,1,5.2,7.6A36.163,36.163,0,0,1,146,244.6Z" fill="#fff"/>
      <circle id="椭圆_224" data-name="椭圆 224" cx="10" cy="10" r="10" transform="translate(202.094 146.505) rotate(-45)" fill="#f4be9a"/>
      <path id="路径_1868" data-name="路径 1868" d="M150.3,147.3a40.377,40.377,0,0,0-11.7,26.2,10.564,10.564,0,0,0,21.1,1.1A18.977,18.977,0,0,1,191.9,162l14.9-15A40.047,40.047,0,0,0,150.3,147.3Z" fill="#ed927f"/>
      <path id="路径_1869" data-name="路径 1869" d="M147.4,171a2.153,2.153,0,0,1-1.1-.2,3.957,3.957,0,0,1-2.7-4.9,36.721,36.721,0,0,1,35.1-26.5,3.9,3.9,0,1,1,0,7.8A28.921,28.921,0,0,0,151.1,168,3.724,3.724,0,0,1,147.4,171Z" fill="#fbdfd9"/>
      <path id="路径_1870" data-name="路径 1870" d="M128.9,173.9h-4.6v-4.6a4.9,4.9,0,0,0-9.8,0v4.6h-4.6a4.9,4.9,0,1,0,0,9.8h4.6v4.6a4.9,4.9,0,0,0,9.8,0v-4.6h4.6a4.908,4.908,0,0,0,4.9-4.9A4.845,4.845,0,0,0,128.9,173.9Z" fill="#fff"/>
      <path id="路径_1871" data-name="路径 1871" d="M199.9,275.1h-3.3v-3.3a3.5,3.5,0,0,0-7,0v3.3h-3.3a3.5,3.5,0,0,0,0,7h3.3v3.3a3.5,3.5,0,0,0,7,0v-3.3h3.3a3.478,3.478,0,0,0,3.5-3.5A3.543,3.543,0,0,0,199.9,275.1Z" fill="#fff"/>
      <path id="路径_1872" data-name="路径 1872" d="M95.8,198.5a4.5,4.5,0,1,1-4.5-4.5A4.546,4.546,0,0,1,95.8,198.5Z" fill="#ffc93e"/>
      <path id="路径_1873" data-name="路径 1873" d="M187.7,251.9a5.4,5.4,0,1,1-5.4-5.4A5.508,5.508,0,0,1,187.7,251.9Z" fill="#ffc93e"/>
      <path id="路径_1874" data-name="路径 1874" d="M126.7,265.3a7.85,7.85,0,1,1-7.9-7.8A7.768,7.768,0,0,1,126.7,265.3Z" fill="#ffc93e"/>
      <path id="路径_1875" data-name="路径 1875" d="M277.2,184.1l-32,32.1a4.167,4.167,0,0,1-6,0h0a4.167,4.167,0,0,1,0-6l32-32.1a4.167,4.167,0,0,1,6,0h0A4.167,4.167,0,0,1,277.2,184.1Z" fill="#fff"/>
    </g>
  </g>
</svg>
