<svg xmlns="http://www.w3.org/2000/svg" width="95.7" height="67.4" viewBox="0 0 95.7 67.4">
  <g id="ap" transform="translate(-294.7 -172)">
    <path id="XMLID_00000078746632641507100820000008291093360127424178_" d="M380.4,239.4H304.7a10.029,10.029,0,0,1-10-10V182a10.029,10.029,0,0,1,10-10h75.7a10.029,10.029,0,0,1,10,10v47.4A10.029,10.029,0,0,1,380.4,239.4Z" fill="#fff"/>
    <g id="组_918" data-name="组 918">
      <path id="XMLID_49_" d="M320.9,194.4H307.3a3.159,3.159,0,0,0-3.2,3.2v13.6a3.159,3.159,0,0,0,3.2,3.2h13.6a3.159,3.159,0,0,0,3.2-3.2V211s-5.2-2.2-7.8-3.4c-1.8,2.1-4,3.5-6.4,3.5-4,0-5.3-3.5-3.5-5.8a4.134,4.134,0,0,1,2.2-1.3c1.7-.4,4.4.3,6.9,1.1a18.159,18.159,0,0,0,1.1-2.8h-7.8v-.8h4v-1.4H308v-.8h4.9v-2a.294.294,0,0,1,.3-.3h2v2.4H320v.8h-4.8v1.4h3.9a14.242,14.242,0,0,1-1.7,4.2c1.2.4,2.3.8,3.1,1.1a16.193,16.193,0,0,0,3.5,1V197.6A3.137,3.137,0,0,0,320.9,194.4Z" fill="#00a0e9"/>
      <path id="XMLID_48_" d="M307.1,205.8c-1.6,1.3-.6,3.7,2.5,3.7,1.8,0,3.6-1.1,5.1-2.9a11.232,11.232,0,0,0-5.6-1.5A4.792,4.792,0,0,0,307.1,205.8Z" fill="#00a0e9"/>
      <path id="路径_1715" data-name="路径 1715" d="M332.4,201.7l2.3,4.9H330Zm3.5,7.6h2.8l-5.2-11.2h-.8a.367.367,0,0,0-.3.1c-.1.1-.2.2-.2.3L327,209.3h1.8l.9-1.8H335l.9,1.8Zm6.4,0h-2.6V198.6c0-.1.1-.2.2-.3s.2-.1.4-.1h2.1l-.1,11.1Zm2.1-7.6c0-.1.1-.2.2-.3s.2-.1.4-.1h2.1v8.3h-2.6l-.1-7.9Zm7.3,5.6a1.268,1.268,0,0,0,.1.6c.1.2.2.3.3.5s.3.2.5.3a1.268,1.268,0,0,0,.6.1,1.421,1.421,0,0,0,.6-.2c.2-.2.4-.3.5-.6a3.178,3.178,0,0,0,.3-.9,4.868,4.868,0,0,0,.1-1.2,6.149,6.149,0,0,0-.1-1.4,6.217,6.217,0,0,0-.3-1,1.47,1.47,0,0,0-.5-.6,1.421,1.421,0,0,0-.6-.2.9.9,0,0,0-.5.1c-.2.1-.3.1-.4.2s-.3.2-.4.3-.2.3-.3.4v3.6Zm-2.6-5.7a1.007,1.007,0,0,1,.1-.3c.1-.1.2-.2.3-.2h2v.7a8.8,8.8,0,0,1,1-.6,2.745,2.745,0,0,1,1.3-.2,3.194,3.194,0,0,1,1.4.3,4.44,4.44,0,0,1,1.1.8,5.388,5.388,0,0,1,.7,1.3,4.012,4.012,0,0,1,.3,1.5,5.823,5.823,0,0,1-.3,1.9,3.766,3.766,0,0,1-.9,1.5,4.125,4.125,0,0,1-1.3,1,4.777,4.777,0,0,1-1.8.4h-.9a1.854,1.854,0,0,1-.7-.2v3.3h-2.5V201.6Zm11.4,5.1a2,2,0,0,1,2.9-1.6V208a1.656,1.656,0,0,1-1.2.5,1.774,1.774,0,0,1-1.7-1.8m3.6-5.5a9.788,9.788,0,0,0-4.8.1,2.353,2.353,0,0,1,.2.8c3.3-.6,3.9-.1,3.9,1.3v.4c-.6-.1-1.3-.1-1.9-.2a2.875,2.875,0,0,0-3.1,2.9c0,2,1.9,3.8,5,2.4v.3H366v-6c0-1-1-1.7-1.9-2m2.7-.3h2.7l2.6,5.1,2.2-4.8c.1-.1.1-.2.2-.2a.367.367,0,0,1,.3-.1h1.4l-4.2,9.3a3.608,3.608,0,0,1-3.9,2.2V211a3.286,3.286,0,0,0,2-.5c.1-.1.2-.4.3-.5.1-.2.1-.3.2-.4l.3-.7Z"/>
      <path id="XMLID_00000091704541899389008140000016078490785262691241_" d="M347,198.7a1.3,1.3,0,1,1-1.3-1.2,1.391,1.391,0,0,1,1.3,1.2" fill="#00a0e9"/>
      <path id="路径_1716" data-name="路径 1716" d="M378.5,198.9v.2h.5v1.4h.3v-1.4h.5v-.2Zm2.9,0-.5,1-.5-1h-.3v1.6h.3v-1l.4.8h.2l.4-.8v1h.3v-1.6Z"/>
    </g>
  </g>
</svg>
