<svg xmlns="http://www.w3.org/2000/svg" width="40.5" height="31.5" viewBox="0 0 40.5 31.5">
  <path id="Icon_awesome-cc-amazon-pay" data-name="Icon awesome-cc-amazon-pay" d="M8.768,14.189c.007-.83,0-1.652,0-2.482V9.225a.2.2,0,0,1,.1-.19,4.083,4.083,0,0,1,2.686-.78A2.131,2.131,0,0,1,13.528,9.78a5.526,5.526,0,0,1,.288,1.948,5.763,5.763,0,0,1-.239,1.8,2.276,2.276,0,0,1-2.51,1.68,4.087,4.087,0,0,1-2.208-.823.222.222,0,0,1-.091-.2Zm10.891,1.027a2.072,2.072,0,0,0,.991.105,4.5,4.5,0,0,0,2.2-.879.187.187,0,0,0,.091-.176c-.007-.274,0-.555,0-.83s-.007-.562,0-.844c0-.1-.028-.141-.127-.155-.492-.063-.977-.155-1.47-.2a3.68,3.68,0,0,0-1.462.134,1.355,1.355,0,0,0-.963.921,1.908,1.908,0,0,0,.007,1.139,1.157,1.157,0,0,0,.731.788ZM40.5,5.625v24.75a3.376,3.376,0,0,1-3.375,3.375H3.375A3.376,3.376,0,0,1,0,30.375V5.625A3.376,3.376,0,0,1,3.375,2.25h33.75A3.376,3.376,0,0,1,40.5,5.625ZM25.91,7.305a2.343,2.343,0,0,0,.112.359c1.16,2.855,2.313,5.716,3.48,8.571a.831.831,0,0,1,.014.7c-.2.436-.345.886-.548,1.315a1.385,1.385,0,0,1-.893.788,2.615,2.615,0,0,1-.907.063c-.148-.014-.3-.049-.443-.056-.2-.014-.3.077-.3.281s-.007.394,0,.584c.007.323.112.471.436.527a6.791,6.791,0,0,0,1,.12,2.474,2.474,0,0,0,2.327-1.259,7.78,7.78,0,0,0,.541-1.083q2.088-5.284,4.162-10.582a1.305,1.305,0,0,0,.091-.323c.028-.169-.049-.253-.218-.26-.394-.007-.78,0-1.174,0a.442.442,0,0,0-.45.3c-.028.077-.063.162-.091.239L31,13.472c-.148.429-.3.851-.457,1.308-.028-.063-.042-.1-.056-.134q-1.139-3.154-2.278-6.314c-.12-.33-.246-.668-.373-1a.384.384,0,0,0-.38-.281c-.45-.007-.9-.014-1.35-.007a.193.193,0,0,0-.2.26Zm-8.866,7.179a2.439,2.439,0,0,0,1.266,1.87,3.442,3.442,0,0,0,2.229.323,4.792,4.792,0,0,0,2.377-1.09c.028-.021.056-.042.1-.07.035.225.063.436.105.647a.339.339,0,0,0,.316.309c.323.007.64.007.963,0a.281.281,0,0,0,.281-.274,1.3,1.3,0,0,0,.007-.162V9.795a5.509,5.509,0,0,0-.049-.759A2.325,2.325,0,0,0,23.52,7.249a3.425,3.425,0,0,0-1.28-.415c-.211-.028-.422-.049-.64-.077h-.7a1.337,1.337,0,0,1-.176.021,8.144,8.144,0,0,0-1.7.246c-.359.091-.7.225-1.055.345a.425.425,0,0,0-.309.457c.007.2-.007.394,0,.584.007.288.127.366.4.288.457-.12.921-.246,1.385-.337a6.72,6.72,0,0,1,2.187-.084,1.437,1.437,0,0,1,.991.492,1.638,1.638,0,0,1,.309.963c.021.485.014.977.021,1.462a.421.421,0,0,1-.014.084.264.264,0,0,1-.077-.007,10.61,10.61,0,0,0-1.884-.288,5.135,5.135,0,0,0-1.962.225,2.881,2.881,0,0,0-1.73,1.462,3.054,3.054,0,0,0-.239,1.814ZM6.94,7.516V19.842a1.47,1.47,0,0,0,.007.176.291.291,0,0,0,.288.3q.622.011,1.245,0a.277.277,0,0,0,.288-.288,1.47,1.47,0,0,0,.007-.176V15.581c.063.049.1.084.134.113A4.127,4.127,0,0,0,12.5,16.6a3.613,3.613,0,0,0,2.58-2.053,6.17,6.17,0,0,0,.612-2.6,6.643,6.643,0,0,0-.478-2.932,3.454,3.454,0,0,0-2.58-2.173c-.19-.042-.387-.056-.577-.084h-.492c-.084.014-.169.021-.253.035a4.717,4.717,0,0,0-2.236.893c-.141.1-.274.211-.415.316-.007-.035-.021-.056-.028-.084-.028-.162-.049-.323-.077-.485a.4.4,0,0,0-.45-.394H7.425c-.415-.007-.485.07-.485.478Zm27.766,16.32a.827.827,0,0,0-.534.07,35.561,35.561,0,0,1-9.619,2.517c-1.02.12-2.046.2-3.073.225a35.477,35.477,0,0,1-5.6-.3,37.368,37.368,0,0,1-3.727-.7,34.716,34.716,0,0,1-7.5-2.728c-.619-.309-1.223-.654-1.835-.984-.267-.148-.436-.105-.577.148v.12a2.4,2.4,0,0,0,.26.337,25.992,25.992,0,0,0,8.578,5.126,26.914,26.914,0,0,0,4.732,1.23,26.205,26.205,0,0,0,2.967.316c.211.007.422.014.633.028a1.067,1.067,0,0,1,.148.021h1.245a1.067,1.067,0,0,1,.148-.021,26.107,26.107,0,0,0,3.136-.281,27.863,27.863,0,0,0,4.423-1.034,22.444,22.444,0,0,0,5.864-2.82,3.432,3.432,0,0,0,.563-.436.482.482,0,0,0-.232-.837Zm3.544-1.948c-.056-.3-.281-.408-.534-.492a5.269,5.269,0,0,0-1.237-.232,8.735,8.735,0,0,0-2.306.112,5.942,5.942,0,0,0-2.355.921.7.7,0,0,0-.218.211.348.348,0,0,0-.035.239c.021.091.12.112.211.105a.764.764,0,0,0,.127-.007l1.371-.148a12.185,12.185,0,0,1,2.025-.056,4.824,4.824,0,0,1,.844.155.594.594,0,0,1,.45.612,4.531,4.531,0,0,1-.2,1.371,23.826,23.826,0,0,1-.935,2.658.85.85,0,0,0-.056.176c-.028.176.07.281.239.246a.6.6,0,0,0,.281-.148,7.851,7.851,0,0,0,.745-.788,8.019,8.019,0,0,0,1.455-3.277c.049-.211.084-.429.12-.64.014-.33.014-.675.014-1.02Z" transform="translate(0 -2.25)"/>
</svg>
