<svg xmlns="http://www.w3.org/2000/svg" width="95.7" height="67.4" viewBox="0 0 95.7 67.4">
  <g id="ae" transform="translate(-294.7 -172)">
    <path id="XMLID_6_" d="M380.4,239.4H304.7a10.029,10.029,0,0,1-10-10V182a10.029,10.029,0,0,1,10-10h75.7a10.029,10.029,0,0,1,10,10v47.4A10.029,10.029,0,0,1,380.4,239.4Z" fill="#006fcf"/>
    <g id="XMLID_63_">
      <g id="XMLID_64_" transform="translate(0 16.675)">
        <path id="XMLID_90_" d="M378.6,188.1h7.2V171.4h-7.7v2.7l-1.7-2.7h-6.7v3.4l-1.5-3.4h-11a7.568,7.568,0,0,0-1.5.1l-1.2.3-.9.3a5.3,5.3,0,0,0-1,.6v-1.3h-36l-1,2.9-1-2.9h-8.4v3.4l-1.5-3.4h-6.8l-3.1,7.1v9.6h4.8l.9-2.4h1.7l.9,2.4h37.3v-2.4l1.9,2.4h10.3v-1.2c.3.2.5.3.8.5l.9.3c.4.1.7.2,1.1.3a11.135,11.135,0,0,0,1.7.2h6.2l.9-2.4h1.7l.9,2.4h10.3v-2.5Zm11.7,21.4V193.8H331l-1.5,2.1-1.5-2.1H311v16.7h17l1.5-2.2,1.5,2.2h10.6v-3.6h-.1a10.46,10.46,0,0,0,3.6-.6v4.2h7.4v-2.4l1.9,2.4h32.2a5.64,5.64,0,0,0,3.7-1Z" fill="#f7f7f7"/>
        <g id="XMLID_77_" transform="translate(10.3 14.223)">
          <path id="XMLID_78_" d="M376.3,191.3h-5.8v2.3h5.7c2.4,0,3.9-1.5,3.9-3.6,0-2-1.3-3.2-3.5-3.2H374a1.049,1.049,0,0,1-1.1-1.1,1,1,0,0,1,1.1-1.1h4.9l1-2.3h-5.8c-2.4,0-3.9,1.5-3.9,3.5,0,2.1,1.4,3.3,3.5,3.3h2.6a1.049,1.049,0,0,1,1.1,1.1A1,1,0,0,1,376.3,191.3Zm-10.7,0h-5.8v2.3h5.7c2.4,0,3.9-1.5,3.9-3.6,0-2-1.3-3.2-3.5-3.2h-2.6a1.1,1.1,0,0,1,0-2.2h4.9l1-2.3h-5.8c-2.4,0-3.9,1.5-3.9,3.5,0,2.1,1.4,3.3,3.5,3.3h2.6a1.1,1.1,0,1,1,0,2.2Zm-7.4-6.7v-2.3h-9v11.3h9v-2.3h-6.3V189h6.2v-2.3h-6.2v-2.2h6.3Zm-15.1,0a1.4,1.4,0,1,1,0,2.8h-3.2v-2.8h3.2Zm-3.2,4.9h1.3l3.4,4.1H348l-3.7-4.2a3.538,3.538,0,0,0,3.1-3.5c0-2.1-1.5-3.6-3.9-3.6h-6.1v11.3h2.7v-4.1Zm-6.9-3.4a1.312,1.312,0,0,1-1.4,1.4h-3.2v-2.8h3.2A1.312,1.312,0,0,1,333,186.1Zm-7.3-3.8v11.3h2.7v-3.7h3.4a3.8,3.8,0,1,0,.1-7.6Zm-4,11.3h3.4l-4.5-5.7,4.5-5.6h-3.3l-2.8,3.6-2.8-3.6h-3.4l4.5,5.6-4.5,5.6h3.3l2.8-3.6Zm-9.4-9v-2.3h-9v11.3h9v-2.3H306V189h6.2v-2.3H306v-2.2h6.3Z" fill="#006fcf"/>
        </g>
        <path id="XMLID_65_" d="M374.9,178.6v-.9l.6.9,4.3,6.7H383V174h-2.6v7.3l-.5-.8-4.2-6.5h-3.3v11.3H375v-6.7Zm-10.8-.3.8-2.1.8,2.1,1,2.5h-3.6Zm4.5,7h3L366.8,174h-3.6l-4.8,11.3h2.9l.9-2.4h5.4Zm-11.8,0h.1l1.1-2.4h-.8c-1.9,0-2.9-1.2-2.9-3.2v-.2a2.786,2.786,0,0,1,2.9-3.1h2.9V174H357c-3.5,0-5.4,2.3-5.4,5.5v.2C351.6,183.1,353.5,185.3,356.8,185.3Zm-9.6,0h2.7V174h-2.7v11.3Zm-5.7-8.9a1.4,1.4,0,1,1,0,2.8h-3.2v-2.8h3.2Zm-3.2,4.9h1.3l3.4,4.1h3.4l-3.7-4.2a3.538,3.538,0,0,0,3.1-3.5c0-2.1-1.5-3.6-3.9-3.6h-6.1v11.3h2.7v-4.1Zm-4.7-4.9v-2.3h-9v11.3h9V183h-6.3v-2.2h6.2v-2.3h-6.2v-2.2h6.3Zm-22.4,1.2-.1-3,3.1,10.7h2.4l3.1-10.7-.1,3v7.7h2.6V174h-4.8l-2.1,8-2.2-8h-4.7v11.3H311v-7.7Zm-10.7.7.8-2.1.8,2.1,1,2.5h-3.6Zm4.4,7h3L303.1,174h-3.6l-4.8,11.3h2.9l.9-2.4h5.4Z" fill="#006fcf"/>
      </g>
    </g>
  </g>
</svg>
