<svg xmlns="http://www.w3.org/2000/svg" width="95.7" height="67.4" viewBox="0 0 95.7 67.4">
  <g id="pay" transform="translate(-294.7 -172)">
    <path id="XMLID_00000008848239259458100580000013413747402518770580_" d="M380.4,239.4H304.7a10.029,10.029,0,0,1-10-10V182a10.029,10.029,0,0,1,10-10h75.7a10.029,10.029,0,0,1,10,10v47.4A10.029,10.029,0,0,1,380.4,239.4Z" fill="#ef9831"/>
    <g id="组_919" data-name="组 919">
      <path id="路径_1717" data-name="路径 1717" d="M339.5,201.9a5.523,5.523,0,0,0,3.6.5,7.729,7.729,0,0,0,3.8-1.7.349.349,0,0,1,.2-.1c.1.4.1.7.2,1s.2.5.5.5h1.5a.366.366,0,0,0,.4-.4V191.4a4.868,4.868,0,0,0-.1-1.2,3.969,3.969,0,0,0-1.8-2.9,4.793,4.793,0,0,0-2-.7c-.3,0-.7-.1-1-.1h-1.4a12.589,12.589,0,0,0-2.7.4c-.6.1-1.1.4-1.7.5a.752.752,0,0,0-.5.7v.9c0,.5.2.6.6.5a17.418,17.418,0,0,1,2.2-.5,10.3,10.3,0,0,1,3.5-.1,2.469,2.469,0,0,1,1.6.8,2.7,2.7,0,0,1,.5,1.5v2.5h-.1c-1-.2-2-.4-3-.5a6.5,6.5,0,0,0-3.1.4,4.5,4.5,0,0,0-3.2,5.2A3.724,3.724,0,0,0,339.5,201.9Zm1-4.9a2.254,2.254,0,0,1,1.5-1.5,6,6,0,0,1,2.3-.2l2.4.3c.2,0,.2.1.2.2v2.7a.367.367,0,0,1-.1.3,6.675,6.675,0,0,1-3.5,1.4,2.966,2.966,0,0,1-1.6-.2,1.764,1.764,0,0,1-1.2-1.3A2.479,2.479,0,0,1,340.5,197Z" fill="#fff"/>
      <path id="路径_1718" data-name="路径 1718" d="M351.8,188c1.9,4.6,3.7,9.2,5.6,13.7a1.083,1.083,0,0,1,0,1.1,18.945,18.945,0,0,1-.9,2.1,2.539,2.539,0,0,1-1.4,1.3,7.568,7.568,0,0,1-1.5.1c-.2,0-.5-.1-.7-.1-.3,0-.5.1-.5.4v.9a.8.8,0,0,0,.7.9,8.752,8.752,0,0,0,1.6.2,3.96,3.96,0,0,0,3.7-2c.3-.5.6-1.1.9-1.7,2.2-5.6,4.5-11.3,6.7-17a.9.9,0,0,0,.1-.5c0-.3-.1-.4-.3-.4h-1.9a.752.752,0,0,0-.7.5c0,.1-.1.3-.1.4l-3.3,9.4c-.2.7-.5,1.4-.7,2.1a.349.349,0,0,0-.1-.2c-1.2-3.4-2.4-6.8-3.6-10.1-.2-.5-.4-1.1-.6-1.6a.548.548,0,0,0-.6-.4H352c-.3,0-.4.2-.3.4A1.088,1.088,0,0,0,351.8,188Z" fill="#fff"/>
      <path id="路径_1719" data-name="路径 1719" d="M365.7,213.9a1.412,1.412,0,0,0-.9.1,54.65,54.65,0,0,1-15.4,4c-1.6.2-3.3.3-4.9.4a54.344,54.344,0,0,1-9-.5c-2-.3-4-.6-6-1.1a55.6,55.6,0,0,1-12-4.4c-1-.5-2-1.1-2.9-1.6-.4-.2-.7-.2-.9.2v.2a1,1,0,0,0,.4.5,41.675,41.675,0,0,0,13.7,8.2,50.012,50.012,0,0,0,7.6,2,39.065,39.065,0,0,0,4.8.5h3.4a40.482,40.482,0,0,0,5-.4,43.17,43.17,0,0,0,7.1-1.7,36.958,36.958,0,0,0,9.4-4.5,5.5,5.5,0,0,0,.9-.7C366.6,214.7,366.4,214,365.7,213.9Z" fill="#fff"/>
      <path id="路径_1720" data-name="路径 1720" d="M321.7,208.2h2c.3,0,.4-.2.5-.5v-7.1c.1.1.2.1.2.2a6.755,6.755,0,0,0,5.8,1.5,5.743,5.743,0,0,0,4.1-3.3,11.761,11.761,0,0,0,1-4.2,9.558,9.558,0,0,0-.8-4.7,5.6,5.6,0,0,0-4.1-3.5,2.768,2.768,0,0,0-.9-.1h-.8a.6.6,0,0,0-.4.1,7.991,7.991,0,0,0-3.6,1.4,4.233,4.233,0,0,1-.7.5v-.1c0-.3-.1-.5-.1-.8a.661.661,0,0,0-.7-.6H322c-.7,0-.8.1-.8.8v20.1A.462.462,0,0,0,321.7,208.2Zm2.5-13.8v-4c0-.1,0-.2.2-.3a6.639,6.639,0,0,1,4.3-1.3,3.453,3.453,0,0,1,3.2,2.5,8.077,8.077,0,0,1,.5,3.1,9.667,9.667,0,0,1-.4,2.9,3.608,3.608,0,0,1-4,2.7,7.091,7.091,0,0,1-3.5-1.3c-.1-.1-.2-.2-.1-.3A26.143,26.143,0,0,1,324.2,194.4Z" fill="#fff"/>
      <path id="路径_1721" data-name="路径 1721" d="M370.6,210a11.8,11.8,0,0,0-2-.4,15.334,15.334,0,0,0-3.7.2,8.927,8.927,0,0,0-3.8,1.5c-.1.1-.3.2-.3.3a.6.6,0,0,0-.1.4c0,.1.2.2.3.2h.2l2.2-.2a17.39,17.39,0,0,1,3.2-.1,6.753,6.753,0,0,1,1.4.2.9.9,0,0,1,.7,1,7.8,7.8,0,0,1-.3,2.2,31.212,31.212,0,0,1-1.5,4.3c0,.1-.1.2-.1.3,0,.3.1.4.4.4a.52.52,0,0,0,.4-.2,7.411,7.411,0,0,0,1.2-1.3,12.625,12.625,0,0,0,2.3-5.3c.1-.3.1-.7.2-1v-1.6A.808.808,0,0,0,370.6,210Z" fill="#fff"/>
    </g>
  </g>
</svg>
