<svg xmlns="http://www.w3.org/2000/svg" width="95.7" height="67.4" viewBox="0 0 95.7 67.4">
  <g id="ms" transform="translate(-294.7 -172)">
    <path id="XMLID_5_" d="M380.4,239.4H304.7a10.029,10.029,0,0,1-10-10V182a10.029,10.029,0,0,1,10-10h75.7a10.029,10.029,0,0,1,10,10v47.4A10.029,10.029,0,0,1,380.4,239.4Z" fill="#36495d"/>
    <g id="XMLID_3_">
      <rect id="XMLID_41_" width="16.1" height="28.9" transform="translate(334.5 191.3)" fill="#f16522"/>
      <path id="XMLID_40_" d="M335.6,205.7a18.008,18.008,0,0,1,7-14.4,18.081,18.081,0,0,0-11.4-3.9,18.4,18.4,0,1,0,0,36.8,18.909,18.909,0,0,0,11.4-3.9,18.7,18.7,0,0,1-7-14.6" fill="#e41b24"/>
      <path id="XMLID_20_" d="M372.3,205.7a18.415,18.415,0,0,1-18.4,18.4,18.909,18.909,0,0,1-11.4-3.9,18.311,18.311,0,0,0,0-28.8,18.455,18.455,0,0,1,29.8,14.3m-1.8,11.4v-.6h.2v-.1h-.6v.1h.2v.6Zm1.2,0v-.7h-.2l-.2.5-.2-.5h-.2v.7h.1v-.5l.2.5h.1l.2-.5v.5Z" fill="#f89e1c"/>
    </g>
  </g>
</svg>
