<svg xmlns="http://www.w3.org/2000/svg" width="95.7" height="67.4" viewBox="0 0 95.7 67.4">
  <g id="pp" transform="translate(-294.7 -172)">
    <path id="XMLID_2_" d="M380.4,239.4H304.7a10.029,10.029,0,0,1-10-10V182a10.029,10.029,0,0,1,10-10h75.7a10.029,10.029,0,0,1,10,10v47.4A10.029,10.029,0,0,1,380.4,239.4Z" fill="#253b80"/>
    <g id="XMLID_1_">
      <path id="XMLID_57_" d="M317.7,201.7c-.3,1.9-1.7,1.9-3.1,1.9h-.8l.6-3.5a.43.43,0,0,1,.4-.4h.4a3.3,3.3,0,0,1,2.3.5A2.293,2.293,0,0,1,317.7,201.7Zm-.6-4.9h-5.2a.669.669,0,0,0-.7.6l-2.1,13.4a.458.458,0,0,0,.4.5H312a.669.669,0,0,0,.7-.6l.6-3.6a.73.73,0,0,1,.7-.6h1.7c3.4,0,5.4-1.7,5.9-5a4.166,4.166,0,0,0-.7-3.4A5.1,5.1,0,0,0,317.1,196.8Z" fill="#fff"/>
      <path id="XMLID_54_" d="M329.2,206.5a2.8,2.8,0,0,1-2.8,2.4,2.06,2.06,0,0,1-1.7-.7,2.142,2.142,0,0,1-.4-1.8,2.8,2.8,0,0,1,2.8-2.4,2.06,2.06,0,0,1,1.7.7A2.23,2.23,0,0,1,329.2,206.5Zm3.5-4.9h-2.5a.43.43,0,0,0-.4.4l-.1.7-.2-.3c-.5-.8-1.7-1-2.9-1a5.775,5.775,0,0,0-5.6,5,4.763,4.763,0,0,0,.9,3.8,3.871,3.871,0,0,0,3.1,1.3,5.051,5.051,0,0,0,3.5-1.4l-.1.7a.458.458,0,0,0,.4.5H331a.669.669,0,0,0,.7-.6l1.3-8.5A.4.4,0,0,0,332.7,201.6Z" fill="#fff"/>
      <path id="XMLID_33_" d="M346,201.6h-2.5a.713.713,0,0,0-.6.3l-3.5,5.1-1.5-4.9a.752.752,0,0,0-.7-.5h-2.5a.441.441,0,0,0-.4.6l2.8,8.1-2.6,3.7a.449.449,0,0,0,.4.7h2.5a.713.713,0,0,0,.6-.3l8.3-12C346.5,202,346.3,201.6,346,201.6Z" fill="#fff"/>
      <path id="XMLID_38_" d="M354.9,201.7c-.3,1.9-1.7,1.9-3.1,1.9H351l.6-3.5a.43.43,0,0,1,.4-.4h.4a3.3,3.3,0,0,1,2.3.5A2.293,2.293,0,0,1,354.9,201.7Zm-.6-4.9h-5.2a.669.669,0,0,0-.7.6l-2.1,13.4a.458.458,0,0,0,.4.5h2.7c.2,0,.5-.2.5-.4l.6-3.8a.73.73,0,0,1,.7-.6h1.6c3.4,0,5.4-1.7,5.9-5a4.166,4.166,0,0,0-.7-3.4A4.85,4.85,0,0,0,354.3,196.8Z" fill="#fff"/>
      <path id="XMLID_21_" d="M366.4,206.5a2.8,2.8,0,0,1-2.8,2.4,2.06,2.06,0,0,1-1.7-.7,2.142,2.142,0,0,1-.4-1.8,2.8,2.8,0,0,1,2.8-2.4,2.06,2.06,0,0,1,1.7.7A2.689,2.689,0,0,1,366.4,206.5Zm3.5-4.9h-2.5a.43.43,0,0,0-.4.4l-.1.7-.2-.3c-.5-.8-1.7-1-2.9-1a5.775,5.775,0,0,0-5.6,5,4.763,4.763,0,0,0,.9,3.8,3.871,3.871,0,0,0,3.1,1.3,5.051,5.051,0,0,0,3.5-1.4l-.1.7a.458.458,0,0,0,.4.5h2.2a.669.669,0,0,0,.7-.6l1.3-8.5C370.3,201.9,370.1,201.6,369.9,201.6Z" fill="#fff"/>
      <path id="XMLID_28_" d="M372.8,197.2l-2.1,13.6a.458.458,0,0,0,.4.5h2.2a.669.669,0,0,0,.7-.6l2.1-13.4a.458.458,0,0,0-.4-.5h-2.4A.458.458,0,0,0,372.8,197.2Z" fill="#fff"/>
    </g>
  </g>
</svg>
