<svg xmlns="http://www.w3.org/2000/svg" width="95.7" height="67.4" viewBox="0 0 95.7 67.4">
  <g id="visa" transform="translate(-294.7 -172)">
    <path id="XMLID_4_" d="M380.4,239.4H304.7a10.029,10.029,0,0,1-10-10V182a10.029,10.029,0,0,1,10-10h75.7a10.029,10.029,0,0,1,10,10v47.4A10.029,10.029,0,0,1,380.4,239.4Z" fill="#0066b2"/>
    <g id="XMLID_7_">
      <g id="XMLID_9_">
        <path id="XMLID_19_" d="M338.5,216.3h-5l3.1-19.1h5Z" fill="#fff"/>
        <path id="XMLID_18_" d="M329.3,197.2l-4.8,13.2-.6-2.8h0l-1.7-8.6a2.139,2.139,0,0,0-2.4-1.7h-7.9l-.1.3a18.368,18.368,0,0,1,5.2,2.2l4.3,16.6h5.2l7.9-19.1h-5.1Z" fill="#fff"/>
        <path id="XMLID_11_" d="M368.5,216.3h4.6l-4-19.1h-4a2.217,2.217,0,0,0-2.3,1.4l-7.4,17.7h5.2l1-2.8h6.3Zm-5.5-6.8,2.6-7.2,1.5,7.2Z" fill="#fff"/>
        <path id="XMLID_10_" d="M355.8,201.8l.7-4.1a15.008,15.008,0,0,0-4.5-.8c-2.5,0-8.3,1.1-8.3,6.3,0,4.9,6.9,5,6.9,7.6s-6.2,2.1-8.2.5l-.7,4.3a13.563,13.563,0,0,0,5.6,1.1c3.4,0,8.5-1.8,8.5-6.6,0-5-7-5.4-7-7.6S353.6,200.6,355.8,201.8Z" fill="#fff"/>
      </g>
      <path id="XMLID_8_" d="M324,207.5l-1.7-8.6a2.139,2.139,0,0,0-2.4-1.7H312l-.1.3a19.561,19.561,0,0,1,7.4,3.7A14.332,14.332,0,0,1,324,207.5Z" fill="#f9a533"/>
    </g>
  </g>
</svg>
