<svg id="组_1519" data-name="组 1519" xmlns="http://www.w3.org/2000/svg" xmlns:xlink="http://www.w3.org/1999/xlink" width="692.963" height="342.162" viewBox="0 0 692.963 342.162">
  <defs>
    <clipPath id="clip-path">
      <rect id="矩形_732" data-name="矩形 732" width="692.963" height="342.162" fill="none"/>
    </clipPath>
  </defs>
  <g id="组_1518" data-name="组 1518" clip-path="url(#clip-path)">
    <path id="路径_2856" data-name="路径 2856" d="M654.69,341.159H38.273A37.27,37.27,0,0,1,1,303.888V38.274A37.27,37.27,0,0,1,38.273,1H654.69a37.271,37.271,0,0,1,37.271,37.271V303.888a37.271,37.271,0,0,1-37.271,37.271" fill="#878786"/>
    <path id="路径_2857" data-name="路径 2857" d="M654.689,342.162H38.273A38.317,38.317,0,0,1,0,303.888V38.273A38.316,38.316,0,0,1,38.273,0H654.689a38.315,38.315,0,0,1,38.273,38.273V303.888a38.316,38.316,0,0,1-38.273,38.274M38.273,2.006A36.309,36.309,0,0,0,2.005,38.273V303.888a36.309,36.309,0,0,0,36.268,36.267H654.689a36.309,36.309,0,0,0,36.268-36.267V38.273A36.309,36.309,0,0,0,654.689,2.006Z"/>
  </g>
</svg>
